**ABCDEFGHIJKLMNOPQRSTUVWXYZabcdefghijklmnopqrstuvwxyz**************************
**PARASOLID !"#$%&'()*+,-./:;<=>?@[\]^_`{|}~0123456789**************************
**PART1;
MC=AMD64;
MC_MODEL=Intel64 Family 6 Model 158 Stepping 10, GenuineIntel;
MC_ID=unknown;
OS=Windows_NT;
OS_RELEASE=unknown;
FRU=Parasolid Version 32.1, build 255,  1- 1-2021;
APPL=SOLIDWORKS 2021-2021085;
SITE=;
USER=unknown;
FORMAT=text;
GUISE=transmit;
KEY=makeProjectedPlanarWire;
FILE=makeProjectedPlanarWire.x_t;
DATE=Mon Oct  2 15:51:09 2023;
**PART2;
SCH=SCH_3201255_32001;
USFLD_SIZE=0;
**PART3;
**END_OF_HEADER*****************************************************************
T51 : TRANSMIT FILE created by modeller version 320125523 SCH_3201255_32001_1300
6229 0 12 34 CCCCCCI4 mesh1006 0 I8 polyline1008 0 CCCCCCCDI5 owner1040 0 CCCCCC
I13 boundary_mesh1006 0 I17 boundary_polyline1008 0 CCCA16 index_map_offset0 0 1
 dA9 index_map82 0 A17 node_id_index_map82 0 A20 schema_embedding_map82 0 A5 chi
ld12 0 A14 lowest_node_id0 0 1 dA16 mesh_offset_data206 0 Z1 91 0 2 0 0 0 0 0 0
 1e3 1e-8 0 3 0 1 0 3 1 4 5 6 7 0 0 8 9 10 0 0 0 0 0 0 0 70 11 CI9 list_type0 0
 1 uI10 notransmit0 0 1 lCCCDCCDI12 finger_index0 0 1 dI12 finger_block1012 0 CZ
2 0 4 T1 0 0 2 20 1 11 11 13 255 4 88 0 1 0 12 0 0 8 12 50 255 5 3 0 12 0 0 0 +0
 0 .015 0 0 -1 -1 0 0 31 255 6 44 0 9 13 0 0 +.004 .004 .015 0 0 -1 -1 0 0 .004
 29 255 7 80 0 10 14 0 0 .004 .015 19 8 CCCCCCCA5 owner12 0 Z8 87 0 1 0 0 4 V0 1
6 255 9 42 0 ?15 0 16 6 0 0 1 18 255 10 78 0 17 0 18 7 ?1 17 255 17 0 0 0 0 10 1
9 20 0 15 +18 18 75 0 21 10 22 14 ?1 17 21 0 23 15 24 18 25 16 0 26 -18 22 72 0
 24 18 27 28 ?1 29 14 77 0 18 28 7 .004 0 .015 29 28 74 0 22 29 14 .151 0 .015 2
9 29 71 0 27 30 28 .155 .004 .015 18 27 69 0 31 22 32 29 ?1 29 30 68 0 32 33 29
 .155 .09 .015 18 32 66 0 34 27 35 30 ?1 29 33 65 0 35 36 30 .151 .094 .015 18 3
5 63 0 37 32 38 33 ?1 29 36 62 0 38 39 33 .004 .094 .015 18 38 60 0 40 35 41 36
 ?1 29 39 59 0 41 42 36 0 .09 .015 18 41 57 0 19 38 43 39 ?1 29 42 56 0 43 44 39
 -.004 .098 .015 18 43 54 0 45 41 46 42 ?1 29 44 53 0 46 47 42 .159 .098 .015 18
 46 51 0 48 43 49 44 ?1 29 47 50 0 49 50 44 .159 -.004 .015 18 49 48 0 51 46 52
 47 ?1 29 50 47 0 52 0 47 -.004 -.004 .015 18 52 45 0 53 49 0 50 ?1 17 53 0 54 5
1 55 52 45 56 0 57 +15 255 54 7 0 53 12 23 17 51 0 54 48 53 49 57 58 0 59 +17 55
 0 54 53 48 43 60 61 0 0 +17 45 0 0 0 0 43 53 56 0 55 -16 56 9 0 ?53 58 0 62 0 0
 1 17 57 0 0 0 0 52 51 58 0 0 -16 58 12 0 ?51 63 56 64 0 0 1 16 63 15 0 ?48 61 5
8 65 0 0 1 30 255 64 14 0 58 62 65 0 +-.004 -.004 .015 1 0 0 30 62 11 0 56 0 64
 0 +-.004 -.004 .015 0 -1 0 30 65 17 0 63 64 66 0 +.159 -.004 .015 0 1 0 30 66 2
0 0 61 65 67 0 +-.004 .098 .015 -1 0 0 16 61 18 0 ?55 20 63 66 0 0 1 30 67 23 0
 20 66 68 0 +0 0 .015 0 -1 0 16 20 21 0 ?17 69 61 67 0 0 1 31 68 26 0 69 67 70 0
 +.004 .09 .015 0 0 -1 -1 0 0 .004 16 69 24 0 ?40 71 20 68 0 0 1 30 70 29 0 71 6
8 72 0 +0 .094 .015 -1 0 0 16 71 27 0 ?73 74 69 70 0 0 1 31 72 32 0 74 70 75 0 +
.151 .09 .015 0 0 -1 -1 0 0 .004 16 74 30 0 ?34 76 71 72 0 0 1 30 75 35 0 76 72
 77 0 +.155 0 .015 0 1 0 16 76 33 0 ?78 79 74 75 0 0 1 31 77 38 0 79 75 13 0 +.1
51 .004 .015 0 0 -1 -1 0 0 .004 16 79 36 0 ?24 16 76 77 0 0 1 30 13 41 0 16 77 6
 0 +0 0 .015 1 0 0 16 16 39 0 ?25 9 79 13 0 0 1 17 25 0 0 0 0 22 21 16 0 0 +17 2
4 0 23 21 31 22 80 79 0 25 +15 23 8 0 19 12 0 17 31 0 23 24 34 27 78 76 0 80 -17
 80 0 0 0 0 27 24 79 0 0 -17 34 0 23 31 37 32 81 74 0 78 +17 78 0 0 0 0 32 31 76
 0 0 +17 37 0 23 34 40 35 73 71 0 81 -17 81 0 0 0 0 35 34 74 0 0 -17 40 0 23 37
 19 38 82 69 0 73 +17 73 0 0 0 0 38 37 71 0 0 +17 19 0 23 40 15 41 17 20 0 82 -1
7 82 0 0 0 0 41 40 69 0 0 -17 15 0 23 19 21 10 26 9 0 0 +17 26 0 0 0 0 18 15 9 0
 0 -14 255 12 1 83 ?0 0 54 4 5 -0 0 0 0 4 81 255 1 83 91 84 12 85 0 0 0 86 80 25
5 1 84 87 88 9000 1 1 1 1 1 1 1 1 0 FFFFTFTFFFFFFF1 81 1 85 4 89 12 0 83 0 0 90
 82 255 1 86 -946864023 80 1 89 0 91 8001 0 0 0 0 3 5 0 0 0 FFFFTFTFFFFFFF2 83 2
55 3 90 .792156862745098 .819607843137255 .933333333333333 79 255 15 91 SDL/TYSA
_COLOUR79 14 88 SWEntUnchanged17 48 0 54 55 51 46 59 63 0 60 +17 59 0 0 0 0 49 4
8 63 0 0 -17 60 0 0 0 0 46 55 61 0 0 -74 4 CI16 index_map_offset0 0 1 dCCZ20 11
 2 0 0 85 83 0 0 0 0 0 0 0 0 0 0 0 0 0 0 0 0 0 0 1 0 
