M48
;GenerationSoftware,Autodesk,EAGLE,9.3.0*%
;CreationDate,2019-11-14T08:29:53Z*%
FMAT,2
ICI,OFF
METRIC,TZ,000.000
T4C0.600
T3C1.100
T2C3.300
T1C4.500
%
G90
M71
T1
X20000Y20000
X60000Y20000
T2
X33000Y29000
X52000Y10000
T3
X27000Y-5960
X36000Y-5960
X40250Y-5960
X49250Y-5960
X33000Y-4000
X30000Y-4000
X46250Y-4000
X43250Y-4000
T4
X4515Y43450
X28975Y45540
X48445Y45570
X67415Y45680
X4475Y45070
X35475Y70
X37475Y70
X39475Y70
X41475Y70
X43475Y70
X2000Y35000
X2000Y33750
X37250Y13750
X42750Y13750
X9830Y34500
X10000Y5750
X66450Y34550
X70000Y5750
X37960Y20930
X40000Y29750
M30