G04 EAGLE Gerber RS-274X export*
G75*
%MOMM*%
%FSLAX34Y34*%
%LPD*%
%INBottom Copper*%
%IPPOS*%
%AMOC8*
5,1,8,0,0,1.08239X$1,22.5*%
G01*
%ADD10C,0.203200*%
%ADD11R,1.600000X1.803000*%
%ADD12R,1.780000X3.560000*%
%ADD13R,1.600000X2.700000*%
%ADD14C,2.000000*%
%ADD15R,0.550000X1.200000*%
%ADD16R,1.500000X1.100000*%
%ADD17R,1.700000X3.000000*%
%ADD18R,2.700000X1.600000*%
%ADD19C,0.400000*%
%ADD20C,1.209600*%
%ADD21C,2.540000*%
%ADD22C,0.508000*%
%ADD23C,1.016000*%
%ADD24C,0.609600*%
%ADD25C,1.270000*%

G36*
X467608Y-96946D02*
X467608Y-96946D01*
X467639Y-96949D01*
X471026Y-96727D01*
X471135Y-96704D01*
X471220Y-96695D01*
X477764Y-94942D01*
X477929Y-94871D01*
X478005Y-94842D01*
X483872Y-91454D01*
X483959Y-91386D01*
X484031Y-91340D01*
X486583Y-89102D01*
X486606Y-89076D01*
X486631Y-89057D01*
X567872Y-7817D01*
X569057Y-6631D01*
X572134Y-3554D01*
X579670Y797D01*
X588075Y3049D01*
X770000Y3049D01*
X770041Y3055D01*
X770078Y3052D01*
X774138Y3371D01*
X774278Y3403D01*
X774369Y3417D01*
X782091Y5926D01*
X782093Y5927D01*
X782095Y5928D01*
X782126Y5944D01*
X782344Y6050D01*
X782356Y6061D01*
X782369Y6068D01*
X788938Y10841D01*
X788940Y10842D01*
X788942Y10843D01*
X788966Y10868D01*
X789141Y11037D01*
X789149Y11051D01*
X789159Y11062D01*
X793932Y17631D01*
X793933Y17633D01*
X793934Y17634D01*
X793950Y17666D01*
X794064Y17880D01*
X794067Y17896D01*
X794074Y17909D01*
X796583Y25631D01*
X796601Y25738D01*
X796621Y25802D01*
X796621Y25832D01*
X796629Y25862D01*
X796948Y29922D01*
X796946Y29963D01*
X796951Y30000D01*
X796951Y129767D01*
X796947Y129799D01*
X796949Y129831D01*
X796927Y129938D01*
X796911Y130046D01*
X796898Y130075D01*
X796892Y130107D01*
X796840Y130203D01*
X796795Y130303D01*
X796774Y130327D01*
X796759Y130356D01*
X796683Y130434D01*
X796612Y130517D01*
X796585Y130535D01*
X796562Y130558D01*
X796467Y130612D01*
X796376Y130672D01*
X796345Y130681D01*
X796317Y130697D01*
X796211Y130722D01*
X796106Y130754D01*
X796074Y130755D01*
X796043Y130762D01*
X795933Y130756D01*
X795824Y130758D01*
X795793Y130749D01*
X795761Y130748D01*
X795658Y130712D01*
X795552Y130683D01*
X795525Y130666D01*
X795494Y130655D01*
X795421Y130602D01*
X795312Y130534D01*
X795280Y130498D01*
X795245Y130473D01*
X791280Y126508D01*
X708921Y44149D01*
X703133Y41751D01*
X696867Y41751D01*
X691079Y44149D01*
X686649Y48579D01*
X684251Y54367D01*
X684251Y60633D01*
X686649Y66421D01*
X766459Y146231D01*
X766516Y146307D01*
X766581Y146379D01*
X766601Y146420D01*
X766628Y146456D01*
X766662Y146546D01*
X766704Y146633D01*
X766710Y146675D01*
X766727Y146720D01*
X766737Y146848D01*
X766751Y146937D01*
X766751Y438133D01*
X769149Y443921D01*
X769759Y444531D01*
X769816Y444608D01*
X769881Y444679D01*
X769901Y444720D01*
X769928Y444756D01*
X769962Y444846D01*
X770004Y444933D01*
X770010Y444975D01*
X770027Y445020D01*
X770037Y445148D01*
X770051Y445237D01*
X770051Y446563D01*
X771837Y448349D01*
X773374Y448349D01*
X773416Y448355D01*
X773457Y448352D01*
X773541Y448372D01*
X773654Y448389D01*
X773707Y448413D01*
X773757Y448425D01*
X779367Y450749D01*
X785633Y450749D01*
X791243Y448425D01*
X791283Y448414D01*
X791321Y448396D01*
X791406Y448383D01*
X791516Y448355D01*
X791575Y448357D01*
X791626Y448349D01*
X792163Y448349D01*
X793949Y446563D01*
X793949Y446237D01*
X793962Y446142D01*
X793967Y446046D01*
X793982Y446003D01*
X793989Y445958D01*
X794028Y445871D01*
X794060Y445780D01*
X794085Y445745D01*
X794105Y445701D01*
X794188Y445604D01*
X794241Y445531D01*
X795245Y444527D01*
X795271Y444507D01*
X795292Y444483D01*
X795384Y444423D01*
X795471Y444357D01*
X795501Y444346D01*
X795528Y444328D01*
X795633Y444296D01*
X795735Y444258D01*
X795767Y444255D01*
X795798Y444246D01*
X795907Y444244D01*
X796016Y444236D01*
X796048Y444243D01*
X796080Y444242D01*
X796185Y444271D01*
X796292Y444294D01*
X796321Y444309D01*
X796352Y444317D01*
X796445Y444375D01*
X796541Y444426D01*
X796564Y444449D01*
X796592Y444466D01*
X796665Y444547D01*
X796743Y444623D01*
X796759Y444651D01*
X796781Y444675D01*
X796828Y444773D01*
X796882Y444868D01*
X796890Y444900D01*
X796904Y444929D01*
X796918Y445018D01*
X796947Y445143D01*
X796945Y445191D01*
X796951Y445233D01*
X796951Y470000D01*
X796945Y470041D01*
X796948Y470078D01*
X796629Y474138D01*
X796597Y474278D01*
X796583Y474369D01*
X794074Y482091D01*
X794073Y482093D01*
X794072Y482095D01*
X794057Y482125D01*
X793950Y482344D01*
X793939Y482356D01*
X793932Y482369D01*
X789159Y488938D01*
X789158Y488940D01*
X789157Y488942D01*
X789132Y488966D01*
X788963Y489141D01*
X788949Y489149D01*
X788938Y489159D01*
X782369Y493932D01*
X782367Y493933D01*
X782366Y493934D01*
X782334Y493950D01*
X782120Y494064D01*
X782104Y494067D01*
X782091Y494074D01*
X774369Y496583D01*
X774227Y496607D01*
X774138Y496629D01*
X770078Y496948D01*
X770037Y496946D01*
X770000Y496951D01*
X595253Y496951D01*
X595167Y496939D01*
X595080Y496936D01*
X595028Y496919D01*
X594974Y496911D01*
X594895Y496876D01*
X594812Y496849D01*
X594767Y496818D01*
X594717Y496795D01*
X594651Y496739D01*
X594579Y496690D01*
X594544Y496648D01*
X594503Y496612D01*
X594455Y496539D01*
X594400Y496472D01*
X594378Y496422D01*
X594348Y496376D01*
X594323Y496293D01*
X594288Y496213D01*
X594282Y496159D01*
X594266Y496106D01*
X594265Y496019D01*
X594254Y495933D01*
X594263Y495879D01*
X594262Y495824D01*
X594285Y495740D01*
X594299Y495655D01*
X594322Y495605D01*
X594337Y495552D01*
X594383Y495478D01*
X594420Y495400D01*
X594456Y495359D01*
X594485Y495312D01*
X594550Y495254D01*
X594607Y495189D01*
X594651Y495163D01*
X594695Y495123D01*
X594797Y495074D01*
X594871Y495029D01*
X598921Y493351D01*
X603351Y488921D01*
X605749Y483133D01*
X605749Y476867D01*
X605676Y476692D01*
X605674Y476683D01*
X605669Y476675D01*
X605639Y476546D01*
X605606Y476419D01*
X605606Y476409D01*
X605604Y476400D01*
X605611Y476268D01*
X605615Y476137D01*
X605618Y476128D01*
X605618Y476118D01*
X605661Y475995D01*
X605702Y475869D01*
X605708Y475861D01*
X605711Y475852D01*
X605757Y475790D01*
X605861Y475636D01*
X605880Y475621D01*
X605893Y475603D01*
X608043Y473452D01*
X608095Y473414D01*
X608140Y473368D01*
X608207Y473330D01*
X608269Y473283D01*
X608329Y473260D01*
X608385Y473229D01*
X608460Y473211D01*
X608533Y473184D01*
X608597Y473179D01*
X608659Y473164D01*
X608737Y473168D01*
X608814Y473162D01*
X608877Y473175D01*
X608941Y473178D01*
X609014Y473204D01*
X609090Y473219D01*
X609147Y473250D01*
X609208Y473271D01*
X609264Y473312D01*
X609339Y473352D01*
X609400Y473411D01*
X609457Y473452D01*
X615395Y479391D01*
X618383Y480629D01*
X632452Y480629D01*
X632516Y480638D01*
X632580Y480637D01*
X632655Y480658D01*
X632731Y480669D01*
X632790Y480695D01*
X632852Y480712D01*
X632918Y480753D01*
X632988Y480785D01*
X633037Y480827D01*
X633092Y480860D01*
X633144Y480918D01*
X633202Y480968D01*
X633238Y481022D01*
X633281Y481070D01*
X633314Y481139D01*
X633357Y481204D01*
X633376Y481266D01*
X633404Y481323D01*
X633415Y481393D01*
X633439Y481474D01*
X633440Y481559D01*
X633451Y481628D01*
X633451Y488763D01*
X635237Y490549D01*
X654763Y490549D01*
X656549Y488763D01*
X656549Y456237D01*
X654763Y454451D01*
X635237Y454451D01*
X633451Y456237D01*
X633451Y463372D01*
X633442Y463436D01*
X633443Y463500D01*
X633422Y463575D01*
X633411Y463651D01*
X633385Y463710D01*
X633368Y463772D01*
X633327Y463838D01*
X633295Y463908D01*
X633253Y463957D01*
X633220Y464012D01*
X633162Y464064D01*
X633112Y464122D01*
X633058Y464158D01*
X633010Y464201D01*
X632941Y464234D01*
X632876Y464277D01*
X632814Y464296D01*
X632757Y464324D01*
X632687Y464335D01*
X632606Y464359D01*
X632521Y464360D01*
X632452Y464371D01*
X623781Y464371D01*
X623686Y464358D01*
X623590Y464353D01*
X623547Y464338D01*
X623502Y464331D01*
X623414Y464292D01*
X623323Y464260D01*
X623289Y464235D01*
X623245Y464215D01*
X623148Y464132D01*
X623074Y464079D01*
X620952Y461957D01*
X620914Y461905D01*
X620868Y461860D01*
X620830Y461793D01*
X620783Y461731D01*
X620760Y461671D01*
X620729Y461615D01*
X620711Y461540D01*
X620684Y461467D01*
X620679Y461403D01*
X620664Y461341D01*
X620668Y461263D01*
X620662Y461186D01*
X620675Y461123D01*
X620678Y461059D01*
X620704Y460986D01*
X620719Y460910D01*
X620750Y460853D01*
X620771Y460792D01*
X620812Y460736D01*
X620852Y460661D01*
X620911Y460600D01*
X620952Y460543D01*
X628391Y453105D01*
X629629Y450117D01*
X629629Y380048D01*
X629638Y379984D01*
X629637Y379920D01*
X629658Y379845D01*
X629669Y379769D01*
X629695Y379710D01*
X629712Y379648D01*
X629753Y379582D01*
X629785Y379512D01*
X629827Y379463D01*
X629860Y379408D01*
X629918Y379356D01*
X629968Y379298D01*
X630022Y379262D01*
X630070Y379219D01*
X630139Y379186D01*
X630204Y379143D01*
X630266Y379124D01*
X630323Y379096D01*
X630393Y379085D01*
X630474Y379061D01*
X630559Y379060D01*
X630628Y379049D01*
X630763Y379049D01*
X632549Y377263D01*
X632549Y369088D01*
X632558Y369024D01*
X632557Y368960D01*
X632578Y368885D01*
X632589Y368809D01*
X632615Y368750D01*
X632632Y368688D01*
X632673Y368622D01*
X632705Y368552D01*
X632747Y368503D01*
X632780Y368448D01*
X632838Y368396D01*
X632888Y368338D01*
X632942Y368302D01*
X632990Y368259D01*
X633059Y368226D01*
X633124Y368183D01*
X633186Y368164D01*
X633243Y368136D01*
X633313Y368125D01*
X633394Y368101D01*
X633479Y368100D01*
X633548Y368089D01*
X638702Y368089D01*
X638766Y368098D01*
X638830Y368097D01*
X638905Y368118D01*
X638981Y368129D01*
X639040Y368155D01*
X639102Y368172D01*
X639168Y368213D01*
X639238Y368245D01*
X639287Y368287D01*
X639342Y368320D01*
X639394Y368378D01*
X639452Y368428D01*
X639488Y368482D01*
X639531Y368530D01*
X639564Y368599D01*
X639607Y368664D01*
X639626Y368726D01*
X639654Y368783D01*
X639665Y368853D01*
X639689Y368934D01*
X639690Y369019D01*
X639701Y369088D01*
X639701Y369285D01*
X639741Y369328D01*
X639761Y369369D01*
X639788Y369406D01*
X639822Y369496D01*
X639864Y369582D01*
X639870Y369624D01*
X639887Y369670D01*
X639897Y369797D01*
X639911Y369887D01*
X639911Y371612D01*
X640762Y373666D01*
X644342Y377245D01*
X644361Y377271D01*
X644386Y377292D01*
X644446Y377384D01*
X644511Y377471D01*
X644522Y377501D01*
X644540Y377528D01*
X644572Y377633D01*
X644611Y377735D01*
X644613Y377767D01*
X644623Y377798D01*
X644624Y377907D01*
X644632Y378016D01*
X644626Y378048D01*
X644626Y378080D01*
X644597Y378185D01*
X644575Y378292D01*
X644560Y378321D01*
X644551Y378352D01*
X644494Y378445D01*
X644442Y378541D01*
X644420Y378564D01*
X644403Y378592D01*
X644322Y378665D01*
X644246Y378743D01*
X644218Y378759D01*
X644194Y378781D01*
X644095Y378828D01*
X644000Y378882D01*
X643969Y378890D01*
X643940Y378904D01*
X643851Y378918D01*
X643726Y378947D01*
X643677Y378945D01*
X643635Y378951D01*
X641487Y378951D01*
X639701Y380737D01*
X639701Y395285D01*
X639741Y395328D01*
X639761Y395369D01*
X639788Y395406D01*
X639822Y395496D01*
X639864Y395582D01*
X639870Y395624D01*
X639887Y395670D01*
X639897Y395797D01*
X639911Y395887D01*
X639911Y408452D01*
X639902Y408516D01*
X639903Y408580D01*
X639882Y408655D01*
X639871Y408731D01*
X639845Y408790D01*
X639828Y408852D01*
X639787Y408918D01*
X639755Y408988D01*
X639713Y409037D01*
X639680Y409092D01*
X639622Y409144D01*
X639572Y409202D01*
X639518Y409238D01*
X639470Y409281D01*
X639401Y409314D01*
X639336Y409357D01*
X639274Y409376D01*
X639217Y409404D01*
X639147Y409415D01*
X639066Y409439D01*
X638981Y409440D01*
X638912Y409451D01*
X635237Y409451D01*
X633451Y411237D01*
X633451Y443763D01*
X635237Y445549D01*
X654763Y445549D01*
X656549Y443763D01*
X656549Y437898D01*
X656558Y437834D01*
X656557Y437770D01*
X656578Y437695D01*
X656589Y437619D01*
X656615Y437560D01*
X656632Y437498D01*
X656673Y437432D01*
X656705Y437362D01*
X656747Y437313D01*
X656780Y437258D01*
X656838Y437206D01*
X656888Y437148D01*
X656942Y437112D01*
X656990Y437069D01*
X657059Y437036D01*
X657124Y436993D01*
X657186Y436974D01*
X657243Y436946D01*
X657313Y436935D01*
X657394Y436911D01*
X657479Y436910D01*
X657548Y436899D01*
X675052Y436899D01*
X675116Y436908D01*
X675180Y436907D01*
X675255Y436928D01*
X675331Y436939D01*
X675390Y436965D01*
X675452Y436982D01*
X675518Y437023D01*
X675588Y437055D01*
X675637Y437097D01*
X675692Y437130D01*
X675744Y437188D01*
X675802Y437238D01*
X675838Y437292D01*
X675881Y437340D01*
X675914Y437409D01*
X675957Y437474D01*
X675976Y437536D01*
X676004Y437593D01*
X676015Y437663D01*
X676039Y437744D01*
X676040Y437829D01*
X676051Y437898D01*
X676051Y446566D01*
X676119Y446657D01*
X676200Y446759D01*
X676204Y446769D01*
X676211Y446778D01*
X676257Y446900D01*
X676305Y447020D01*
X676306Y447032D01*
X676310Y447042D01*
X676320Y447172D01*
X676333Y447301D01*
X676331Y447312D01*
X676332Y447324D01*
X676305Y447450D01*
X676282Y447578D01*
X676277Y447589D01*
X676274Y447600D01*
X676214Y447714D01*
X676155Y447830D01*
X676147Y447839D01*
X676142Y447849D01*
X676052Y447941D01*
X675963Y448037D01*
X675953Y448042D01*
X675945Y448051D01*
X675832Y448115D01*
X675721Y448181D01*
X675710Y448184D01*
X675700Y448190D01*
X675651Y448201D01*
X675651Y455301D01*
X682611Y455301D01*
X682411Y454295D01*
X681763Y452732D01*
X680823Y451325D01*
X679557Y450059D01*
X679541Y450037D01*
X679507Y450008D01*
X679501Y449999D01*
X679493Y449992D01*
X679424Y449881D01*
X679388Y449834D01*
X679382Y449817D01*
X679352Y449772D01*
X679349Y449762D01*
X679344Y449753D01*
X679308Y449627D01*
X679299Y449596D01*
X679289Y449570D01*
X679288Y449561D01*
X679270Y449502D01*
X679270Y449492D01*
X679267Y449482D01*
X679268Y449351D01*
X679267Y449292D01*
X679267Y449288D01*
X679267Y449287D01*
X679266Y449220D01*
X679269Y449210D01*
X679269Y449200D01*
X679306Y449075D01*
X679341Y448948D01*
X679347Y448939D01*
X679350Y448930D01*
X679420Y448820D01*
X679489Y448708D01*
X679497Y448701D01*
X679503Y448693D01*
X679602Y448607D01*
X679699Y448519D01*
X679708Y448515D01*
X679716Y448508D01*
X679835Y448453D01*
X679953Y448396D01*
X679962Y448395D01*
X679972Y448390D01*
X680140Y448365D01*
X680173Y448357D01*
X680188Y448358D01*
X680251Y448349D01*
X680254Y448349D01*
X680257Y448349D01*
X698163Y448349D01*
X699949Y446563D01*
X699949Y408437D01*
X698163Y406651D01*
X677837Y406651D01*
X676051Y408437D01*
X676051Y417102D01*
X676042Y417166D01*
X676043Y417230D01*
X676022Y417305D01*
X676011Y417381D01*
X675985Y417440D01*
X675968Y417502D01*
X675927Y417568D01*
X675895Y417638D01*
X675853Y417687D01*
X675820Y417742D01*
X675762Y417794D01*
X675712Y417852D01*
X675658Y417888D01*
X675610Y417931D01*
X675541Y417964D01*
X675476Y418007D01*
X675414Y418026D01*
X675357Y418054D01*
X675287Y418065D01*
X675206Y418089D01*
X675121Y418090D01*
X675052Y418101D01*
X657548Y418101D01*
X657484Y418092D01*
X657420Y418093D01*
X657345Y418072D01*
X657269Y418061D01*
X657210Y418035D01*
X657148Y418018D01*
X657082Y417977D01*
X657012Y417945D01*
X656963Y417903D01*
X656908Y417870D01*
X656856Y417812D01*
X656798Y417762D01*
X656762Y417708D01*
X656719Y417660D01*
X656686Y417591D01*
X656643Y417526D01*
X656624Y417464D01*
X656596Y417407D01*
X656585Y417337D01*
X656561Y417256D01*
X656560Y417171D01*
X656549Y417102D01*
X656549Y411237D01*
X654763Y409451D01*
X652088Y409451D01*
X652024Y409442D01*
X651960Y409443D01*
X651885Y409422D01*
X651809Y409411D01*
X651750Y409385D01*
X651688Y409368D01*
X651622Y409327D01*
X651552Y409295D01*
X651503Y409253D01*
X651448Y409220D01*
X651396Y409162D01*
X651338Y409112D01*
X651302Y409058D01*
X651259Y409010D01*
X651226Y408941D01*
X651183Y408876D01*
X651164Y408814D01*
X651136Y408757D01*
X651125Y408687D01*
X651101Y408606D01*
X651100Y408521D01*
X651089Y408452D01*
X651089Y397540D01*
X651098Y397476D01*
X651097Y397412D01*
X651118Y397337D01*
X651129Y397261D01*
X651155Y397202D01*
X651172Y397140D01*
X651213Y397074D01*
X651245Y397004D01*
X651287Y396955D01*
X651320Y396900D01*
X651378Y396848D01*
X651428Y396790D01*
X651482Y396754D01*
X651530Y396711D01*
X651599Y396678D01*
X651664Y396635D01*
X651726Y396616D01*
X651783Y396588D01*
X651853Y396577D01*
X651934Y396553D01*
X652019Y396552D01*
X652088Y396541D01*
X653626Y396541D01*
X653626Y388375D01*
X653635Y388312D01*
X653634Y388247D01*
X653655Y388173D01*
X653666Y388096D01*
X653692Y388038D01*
X653709Y387976D01*
X653750Y387910D01*
X653782Y387839D01*
X653823Y387790D01*
X653857Y387736D01*
X653915Y387684D01*
X653965Y387625D01*
X654019Y387590D01*
X654067Y387547D01*
X654136Y387513D01*
X654201Y387470D01*
X654263Y387452D01*
X654320Y387424D01*
X654390Y387413D01*
X654471Y387388D01*
X654556Y387387D01*
X654625Y387376D01*
X655375Y387376D01*
X655439Y387385D01*
X655503Y387384D01*
X655578Y387405D01*
X655654Y387416D01*
X655713Y387442D01*
X655775Y387459D01*
X655841Y387500D01*
X655911Y387532D01*
X655960Y387574D01*
X656015Y387608D01*
X656067Y387665D01*
X656125Y387715D01*
X656161Y387769D01*
X656204Y387817D01*
X656237Y387886D01*
X656280Y387951D01*
X656299Y388013D01*
X656327Y388071D01*
X656338Y388140D01*
X656362Y388221D01*
X656363Y388306D01*
X656374Y388375D01*
X656374Y396541D01*
X658085Y396541D01*
X658730Y396368D01*
X658748Y396357D01*
X658818Y396329D01*
X658883Y396292D01*
X658948Y396277D01*
X659010Y396252D01*
X659084Y396245D01*
X659158Y396228D01*
X659224Y396231D01*
X659291Y396224D01*
X659364Y396238D01*
X659439Y396242D01*
X659502Y396264D01*
X659568Y396276D01*
X659635Y396310D01*
X659706Y396334D01*
X659755Y396371D01*
X659820Y396403D01*
X659891Y396470D01*
X659955Y396516D01*
X660487Y397049D01*
X668513Y397049D01*
X670299Y395263D01*
X670299Y394088D01*
X670308Y394024D01*
X670307Y393960D01*
X670328Y393885D01*
X670339Y393809D01*
X670365Y393750D01*
X670382Y393688D01*
X670423Y393622D01*
X670455Y393552D01*
X670497Y393503D01*
X670530Y393448D01*
X670588Y393396D01*
X670638Y393338D01*
X670692Y393302D01*
X670740Y393259D01*
X670809Y393226D01*
X670874Y393183D01*
X670936Y393164D01*
X670993Y393136D01*
X671063Y393125D01*
X671144Y393101D01*
X671229Y393100D01*
X671298Y393089D01*
X678612Y393089D01*
X680666Y392238D01*
X699738Y373166D01*
X700589Y371112D01*
X700589Y365048D01*
X700598Y364984D01*
X700597Y364920D01*
X700618Y364845D01*
X700629Y364769D01*
X700655Y364710D01*
X700672Y364648D01*
X700713Y364582D01*
X700745Y364512D01*
X700787Y364463D01*
X700820Y364408D01*
X700878Y364356D01*
X700928Y364298D01*
X700982Y364262D01*
X701030Y364219D01*
X701099Y364186D01*
X701164Y364143D01*
X701226Y364124D01*
X701283Y364096D01*
X701353Y364085D01*
X701434Y364061D01*
X701519Y364060D01*
X701588Y364049D01*
X703763Y364049D01*
X705543Y362268D01*
X705595Y362230D01*
X705640Y362184D01*
X705707Y362145D01*
X705769Y362099D01*
X705829Y362076D01*
X705885Y362044D01*
X705960Y362027D01*
X706033Y361999D01*
X706097Y361994D01*
X706159Y361980D01*
X706237Y361983D01*
X706314Y361978D01*
X706377Y361991D01*
X706441Y361994D01*
X706514Y362019D01*
X706590Y362035D01*
X706647Y362065D01*
X706708Y362086D01*
X706764Y362128D01*
X706839Y362168D01*
X706900Y362227D01*
X706957Y362268D01*
X708737Y364049D01*
X726263Y364049D01*
X728049Y362263D01*
X728049Y348737D01*
X726263Y346951D01*
X708737Y346951D01*
X706957Y348732D01*
X706905Y348770D01*
X706860Y348816D01*
X706793Y348855D01*
X706731Y348901D01*
X706671Y348924D01*
X706615Y348956D01*
X706540Y348973D01*
X706467Y349001D01*
X706403Y349006D01*
X706340Y349020D01*
X706263Y349017D01*
X706186Y349022D01*
X706123Y349009D01*
X706059Y349006D01*
X705986Y348981D01*
X705910Y348965D01*
X705853Y348935D01*
X705792Y348914D01*
X705736Y348872D01*
X705661Y348832D01*
X705600Y348773D01*
X705543Y348732D01*
X703763Y346951D01*
X692865Y346951D01*
X692833Y346947D01*
X692801Y346949D01*
X692694Y346927D01*
X692586Y346911D01*
X692556Y346898D01*
X692525Y346892D01*
X692428Y346840D01*
X692329Y346795D01*
X692304Y346774D01*
X692276Y346759D01*
X692197Y346683D01*
X692114Y346612D01*
X692097Y346585D01*
X692074Y346562D01*
X692020Y346467D01*
X691960Y346376D01*
X691950Y346345D01*
X691935Y346317D01*
X691909Y346211D01*
X691877Y346106D01*
X691877Y346074D01*
X691870Y346043D01*
X691875Y345933D01*
X691874Y345824D01*
X691882Y345793D01*
X691884Y345761D01*
X691920Y345658D01*
X691949Y345552D01*
X691966Y345525D01*
X691976Y345494D01*
X692030Y345421D01*
X692097Y345312D01*
X692133Y345280D01*
X692158Y345245D01*
X694062Y343341D01*
X694139Y343284D01*
X694210Y343219D01*
X694251Y343199D01*
X694288Y343172D01*
X694378Y343138D01*
X694464Y343096D01*
X694506Y343090D01*
X694552Y343073D01*
X694679Y343063D01*
X694769Y343049D01*
X703763Y343049D01*
X705549Y341263D01*
X705549Y340794D01*
X705550Y340784D01*
X705549Y340773D01*
X705570Y340644D01*
X705589Y340515D01*
X705593Y340505D01*
X705595Y340495D01*
X705651Y340377D01*
X705705Y340258D01*
X705712Y340250D01*
X705716Y340240D01*
X705803Y340143D01*
X705888Y340044D01*
X705897Y340038D01*
X705904Y340030D01*
X706015Y339961D01*
X706124Y339889D01*
X706134Y339886D01*
X706144Y339880D01*
X706270Y339845D01*
X706394Y339807D01*
X706405Y339807D01*
X706415Y339804D01*
X706546Y339805D01*
X706676Y339803D01*
X706686Y339806D01*
X706697Y339806D01*
X706822Y339844D01*
X706948Y339878D01*
X706957Y339884D01*
X706967Y339887D01*
X707077Y339958D01*
X707188Y340027D01*
X707195Y340035D01*
X707204Y340040D01*
X707290Y340140D01*
X707377Y340236D01*
X707381Y340246D01*
X707388Y340254D01*
X707421Y340328D01*
X707500Y340490D01*
X707503Y340514D01*
X707513Y340536D01*
X707632Y340981D01*
X707967Y341560D01*
X708440Y342033D01*
X709019Y342368D01*
X709665Y342541D01*
X715501Y342541D01*
X715501Y335500D01*
X715510Y335436D01*
X715509Y335372D01*
X715530Y335298D01*
X715541Y335221D01*
X715567Y335162D01*
X715584Y335100D01*
X715625Y335034D01*
X715657Y334964D01*
X715699Y334915D01*
X715732Y334860D01*
X715790Y334809D01*
X715840Y334750D01*
X715894Y334714D01*
X715942Y334671D01*
X716011Y334638D01*
X716076Y334595D01*
X716138Y334576D01*
X716195Y334548D01*
X716265Y334538D01*
X716346Y334513D01*
X716431Y334512D01*
X716500Y334501D01*
X717501Y334501D01*
X717501Y334499D01*
X716500Y334499D01*
X716436Y334490D01*
X716372Y334491D01*
X716297Y334470D01*
X716221Y334459D01*
X716162Y334433D01*
X716100Y334416D01*
X716034Y334375D01*
X715964Y334343D01*
X715915Y334301D01*
X715860Y334268D01*
X715808Y334210D01*
X715750Y334160D01*
X715714Y334106D01*
X715671Y334058D01*
X715638Y333989D01*
X715595Y333924D01*
X715576Y333862D01*
X715548Y333804D01*
X715538Y333735D01*
X715513Y333654D01*
X715512Y333569D01*
X715501Y333500D01*
X715501Y326459D01*
X709665Y326459D01*
X709019Y326632D01*
X708440Y326967D01*
X707967Y327440D01*
X707632Y328019D01*
X707513Y328464D01*
X707509Y328474D01*
X707507Y328485D01*
X707454Y328603D01*
X707402Y328724D01*
X707396Y328732D01*
X707391Y328742D01*
X707307Y328841D01*
X707224Y328942D01*
X707215Y328948D01*
X707208Y328956D01*
X707099Y329028D01*
X706991Y329101D01*
X706981Y329105D01*
X706972Y329111D01*
X706847Y329149D01*
X706723Y329189D01*
X706712Y329190D01*
X706702Y329193D01*
X706571Y329195D01*
X706441Y329199D01*
X706431Y329197D01*
X706420Y329197D01*
X706294Y329162D01*
X706168Y329130D01*
X706159Y329124D01*
X706148Y329122D01*
X706037Y329053D01*
X705925Y328987D01*
X705918Y328979D01*
X705908Y328973D01*
X705821Y328876D01*
X705731Y328782D01*
X705727Y328772D01*
X705719Y328764D01*
X705663Y328647D01*
X705603Y328531D01*
X705601Y328520D01*
X705596Y328510D01*
X705584Y328431D01*
X705550Y328254D01*
X705552Y328230D01*
X705549Y328206D01*
X705549Y327737D01*
X703763Y325951D01*
X686237Y325951D01*
X684451Y327737D01*
X684451Y336731D01*
X684442Y336794D01*
X684443Y336851D01*
X684435Y336880D01*
X684433Y336922D01*
X684418Y336965D01*
X684411Y337010D01*
X684379Y337081D01*
X684368Y337123D01*
X684357Y337140D01*
X684340Y337189D01*
X684315Y337223D01*
X684295Y337267D01*
X684236Y337337D01*
X684220Y337363D01*
X684201Y337380D01*
X684159Y337438D01*
X675303Y346294D01*
X675277Y346313D01*
X675256Y346338D01*
X675164Y346398D01*
X675077Y346463D01*
X675047Y346474D01*
X675020Y346492D01*
X674915Y346524D01*
X674813Y346563D01*
X674781Y346565D01*
X674750Y346575D01*
X674641Y346576D01*
X674532Y346584D01*
X674500Y346578D01*
X674468Y346578D01*
X674363Y346549D01*
X674256Y346527D01*
X674227Y346512D01*
X674196Y346503D01*
X674103Y346446D01*
X674007Y346394D01*
X673984Y346372D01*
X673956Y346355D01*
X673883Y346274D01*
X673805Y346198D01*
X673789Y346170D01*
X673767Y346146D01*
X673720Y346047D01*
X673666Y345952D01*
X673658Y345921D01*
X673644Y345892D01*
X673630Y345803D01*
X673601Y345678D01*
X673603Y345629D01*
X673597Y345587D01*
X673597Y344721D01*
X673609Y344634D01*
X673609Y344589D01*
X673613Y344573D01*
X673615Y344530D01*
X673630Y344487D01*
X673637Y344442D01*
X673670Y344368D01*
X673684Y344318D01*
X673695Y344299D01*
X673708Y344263D01*
X673733Y344229D01*
X673753Y344185D01*
X673799Y344130D01*
X673832Y344078D01*
X673865Y344048D01*
X673889Y344014D01*
X673958Y343946D01*
X674809Y341892D01*
X674809Y335563D01*
X674818Y335499D01*
X674817Y335435D01*
X674838Y335360D01*
X674849Y335284D01*
X674875Y335225D01*
X674892Y335163D01*
X674933Y335097D01*
X674965Y335027D01*
X675007Y334978D01*
X675040Y334923D01*
X675098Y334871D01*
X675148Y334813D01*
X675202Y334777D01*
X675250Y334734D01*
X675319Y334701D01*
X675384Y334658D01*
X675446Y334639D01*
X675503Y334611D01*
X675573Y334600D01*
X675654Y334576D01*
X675739Y334575D01*
X675808Y334564D01*
X678483Y334564D01*
X680269Y332778D01*
X680269Y312222D01*
X678483Y310436D01*
X659957Y310436D01*
X658171Y312222D01*
X658171Y332778D01*
X659957Y334564D01*
X662108Y334564D01*
X662194Y334576D01*
X662281Y334579D01*
X662333Y334596D01*
X662387Y334604D01*
X662466Y334639D01*
X662549Y334666D01*
X662594Y334697D01*
X662644Y334720D01*
X662710Y334776D01*
X662782Y334825D01*
X662817Y334867D01*
X662858Y334903D01*
X662906Y334976D01*
X662961Y335043D01*
X662983Y335093D01*
X663013Y335139D01*
X663038Y335222D01*
X663073Y335302D01*
X663079Y335356D01*
X663095Y335409D01*
X663096Y335496D01*
X663107Y335582D01*
X663098Y335636D01*
X663099Y335691D01*
X663076Y335775D01*
X663062Y335860D01*
X663039Y335910D01*
X663024Y335963D01*
X662978Y336037D01*
X662941Y336115D01*
X662905Y336156D01*
X662876Y336203D01*
X662811Y336261D01*
X662754Y336326D01*
X662710Y336352D01*
X662666Y336392D01*
X662564Y336441D01*
X662490Y336486D01*
X659347Y337788D01*
X656788Y340347D01*
X655403Y343691D01*
X655403Y347309D01*
X656788Y350653D01*
X658619Y352483D01*
X658676Y352560D01*
X658741Y352632D01*
X658761Y352672D01*
X658788Y352709D01*
X658822Y352799D01*
X658864Y352885D01*
X658870Y352927D01*
X658887Y352973D01*
X658897Y353100D01*
X658911Y353190D01*
X658911Y354113D01*
X658898Y354208D01*
X658893Y354304D01*
X658878Y354348D01*
X658871Y354392D01*
X658832Y354480D01*
X658800Y354571D01*
X658775Y354605D01*
X658755Y354649D01*
X658701Y354712D01*
X658701Y368412D01*
X658692Y368476D01*
X658693Y368540D01*
X658672Y368615D01*
X658661Y368691D01*
X658635Y368750D01*
X658618Y368812D01*
X658577Y368878D01*
X658545Y368948D01*
X658503Y368997D01*
X658470Y369052D01*
X658412Y369104D01*
X658362Y369162D01*
X658308Y369198D01*
X658260Y369241D01*
X658191Y369274D01*
X658126Y369317D01*
X658064Y369336D01*
X658007Y369364D01*
X657937Y369375D01*
X657856Y369399D01*
X657771Y369400D01*
X657702Y369411D01*
X652729Y369411D01*
X652634Y369398D01*
X652538Y369393D01*
X652495Y369378D01*
X652450Y369371D01*
X652362Y369332D01*
X652271Y369300D01*
X652237Y369275D01*
X652193Y369255D01*
X652095Y369172D01*
X652022Y369119D01*
X651591Y368688D01*
X651534Y368611D01*
X651469Y368540D01*
X651449Y368499D01*
X651422Y368462D01*
X651388Y368372D01*
X651346Y368286D01*
X651340Y368244D01*
X651323Y368198D01*
X651313Y368071D01*
X651299Y367981D01*
X651299Y354715D01*
X651259Y354672D01*
X651239Y354631D01*
X651212Y354594D01*
X651178Y354504D01*
X651136Y354418D01*
X651130Y354376D01*
X651113Y354330D01*
X651103Y354203D01*
X651089Y354113D01*
X651089Y341888D01*
X650238Y339834D01*
X646673Y336270D01*
X646654Y336244D01*
X646629Y336223D01*
X646569Y336131D01*
X646504Y336044D01*
X646493Y336014D01*
X646475Y335987D01*
X646443Y335882D01*
X646404Y335780D01*
X646402Y335748D01*
X646392Y335717D01*
X646391Y335608D01*
X646383Y335499D01*
X646389Y335467D01*
X646389Y335435D01*
X646418Y335330D01*
X646440Y335223D01*
X646455Y335194D01*
X646464Y335163D01*
X646521Y335070D01*
X646573Y334974D01*
X646595Y334951D01*
X646612Y334923D01*
X646693Y334850D01*
X646769Y334772D01*
X646797Y334756D01*
X646821Y334734D01*
X646920Y334687D01*
X647015Y334633D01*
X647046Y334625D01*
X647075Y334611D01*
X647164Y334597D01*
X647289Y334568D01*
X647338Y334570D01*
X647380Y334564D01*
X650043Y334564D01*
X651829Y332778D01*
X651829Y312222D01*
X650043Y310436D01*
X631517Y310436D01*
X629731Y312222D01*
X629731Y332778D01*
X631517Y334564D01*
X634192Y334564D01*
X634256Y334573D01*
X634320Y334572D01*
X634395Y334593D01*
X634471Y334604D01*
X634530Y334630D01*
X634592Y334647D01*
X634658Y334688D01*
X634728Y334720D01*
X634777Y334762D01*
X634832Y334795D01*
X634884Y334853D01*
X634942Y334903D01*
X634978Y334957D01*
X635021Y335005D01*
X635054Y335074D01*
X635097Y335139D01*
X635116Y335201D01*
X635144Y335258D01*
X635155Y335328D01*
X635179Y335409D01*
X635180Y335494D01*
X635191Y335563D01*
X635191Y339392D01*
X636042Y341446D01*
X639619Y345022D01*
X639634Y345043D01*
X639650Y345057D01*
X639682Y345106D01*
X639741Y345170D01*
X639761Y345211D01*
X639788Y345248D01*
X639822Y345338D01*
X639864Y345424D01*
X639870Y345466D01*
X639887Y345512D01*
X639897Y345639D01*
X639911Y345729D01*
X639911Y354113D01*
X639898Y354208D01*
X639893Y354305D01*
X639878Y354348D01*
X639871Y354393D01*
X639832Y354480D01*
X639800Y354571D01*
X639775Y354605D01*
X639755Y354649D01*
X639701Y354713D01*
X639701Y355912D01*
X639692Y355976D01*
X639693Y356040D01*
X639672Y356115D01*
X639661Y356191D01*
X639635Y356250D01*
X639618Y356312D01*
X639577Y356378D01*
X639545Y356448D01*
X639503Y356497D01*
X639470Y356552D01*
X639412Y356604D01*
X639362Y356662D01*
X639308Y356698D01*
X639260Y356741D01*
X639191Y356774D01*
X639126Y356817D01*
X639064Y356836D01*
X639007Y356864D01*
X638937Y356875D01*
X638856Y356899D01*
X638771Y356900D01*
X638702Y356911D01*
X633548Y356911D01*
X633484Y356902D01*
X633420Y356903D01*
X633345Y356882D01*
X633269Y356871D01*
X633210Y356845D01*
X633148Y356828D01*
X633082Y356787D01*
X633012Y356755D01*
X632963Y356713D01*
X632908Y356680D01*
X632856Y356622D01*
X632798Y356572D01*
X632762Y356518D01*
X632719Y356470D01*
X632686Y356401D01*
X632643Y356336D01*
X632624Y356274D01*
X632596Y356217D01*
X632585Y356147D01*
X632561Y356066D01*
X632560Y355981D01*
X632549Y355912D01*
X632549Y347737D01*
X630763Y345951D01*
X612237Y345951D01*
X610451Y347737D01*
X610451Y377263D01*
X612237Y379049D01*
X612372Y379049D01*
X612436Y379058D01*
X612500Y379057D01*
X612575Y379078D01*
X612651Y379089D01*
X612710Y379115D01*
X612772Y379132D01*
X612838Y379173D01*
X612908Y379205D01*
X612957Y379247D01*
X613012Y379280D01*
X613064Y379338D01*
X613122Y379388D01*
X613158Y379442D01*
X613201Y379490D01*
X613234Y379559D01*
X613277Y379624D01*
X613296Y379686D01*
X613324Y379743D01*
X613335Y379813D01*
X613359Y379894D01*
X613360Y379979D01*
X613371Y380048D01*
X613371Y444719D01*
X613358Y444814D01*
X613353Y444910D01*
X613338Y444953D01*
X613331Y444998D01*
X613292Y445086D01*
X613260Y445177D01*
X613235Y445211D01*
X613215Y445255D01*
X613132Y445353D01*
X613079Y445426D01*
X604286Y454218D01*
X594397Y464107D01*
X594389Y464113D01*
X594383Y464121D01*
X594276Y464198D01*
X594171Y464277D01*
X594162Y464280D01*
X594155Y464286D01*
X594030Y464330D01*
X593907Y464376D01*
X593898Y464377D01*
X593889Y464380D01*
X593757Y464388D01*
X593626Y464398D01*
X593617Y464396D01*
X593607Y464397D01*
X593532Y464378D01*
X593350Y464340D01*
X593329Y464329D01*
X593308Y464324D01*
X593133Y464251D01*
X490408Y464251D01*
X490279Y464233D01*
X490150Y464218D01*
X490140Y464213D01*
X490128Y464211D01*
X490010Y464158D01*
X489891Y464107D01*
X489882Y464100D01*
X489871Y464095D01*
X489773Y464011D01*
X489672Y463929D01*
X489666Y463919D01*
X489657Y463912D01*
X489586Y463803D01*
X489512Y463696D01*
X489509Y463685D01*
X489503Y463676D01*
X489465Y463552D01*
X489424Y463428D01*
X489424Y463417D01*
X489420Y463406D01*
X489419Y463276D01*
X489414Y463147D01*
X489417Y463136D01*
X489416Y463124D01*
X489451Y462998D01*
X489483Y462873D01*
X489489Y462863D01*
X489492Y462852D01*
X489560Y462741D01*
X489626Y462630D01*
X489634Y462623D01*
X489640Y462612D01*
X489849Y462423D01*
X489851Y462422D01*
X489852Y462421D01*
X489927Y462371D01*
X491123Y461175D01*
X492063Y459768D01*
X492711Y458205D01*
X492911Y457199D01*
X484952Y457199D01*
X484889Y457190D01*
X484824Y457191D01*
X484750Y457170D01*
X484673Y457159D01*
X484615Y457133D01*
X484553Y457116D01*
X484487Y457075D01*
X484449Y457058D01*
X484441Y457062D01*
X484376Y457105D01*
X484314Y457124D01*
X484256Y457152D01*
X484187Y457163D01*
X484106Y457187D01*
X484021Y457188D01*
X483952Y457199D01*
X475993Y457199D01*
X476193Y458205D01*
X476841Y459768D01*
X477781Y461175D01*
X478977Y462371D01*
X479052Y462421D01*
X479148Y462508D01*
X479247Y462592D01*
X479253Y462602D01*
X479262Y462609D01*
X479330Y462719D01*
X479401Y462828D01*
X479405Y462839D01*
X479411Y462849D01*
X479446Y462974D01*
X479484Y463098D01*
X479484Y463109D01*
X479487Y463120D01*
X479486Y463251D01*
X479488Y463380D01*
X479484Y463391D01*
X479484Y463402D01*
X479447Y463526D01*
X479412Y463652D01*
X479406Y463661D01*
X479403Y463672D01*
X479333Y463781D01*
X479264Y463892D01*
X479256Y463899D01*
X479250Y463909D01*
X479151Y463994D01*
X479055Y464081D01*
X479045Y464086D01*
X479036Y464093D01*
X478918Y464147D01*
X478801Y464204D01*
X478790Y464205D01*
X478779Y464210D01*
X478500Y464251D01*
X478498Y464251D01*
X478496Y464251D01*
X467548Y464251D01*
X467484Y464242D01*
X467420Y464243D01*
X467345Y464222D01*
X467269Y464211D01*
X467210Y464185D01*
X467148Y464168D01*
X467082Y464127D01*
X467012Y464095D01*
X466963Y464053D01*
X466908Y464020D01*
X466856Y463962D01*
X466798Y463912D01*
X466762Y463858D01*
X466719Y463810D01*
X466686Y463741D01*
X466643Y463676D01*
X466624Y463614D01*
X466596Y463557D01*
X466585Y463487D01*
X466561Y463406D01*
X466560Y463321D01*
X466549Y463252D01*
X466549Y456237D01*
X464763Y454451D01*
X445237Y454451D01*
X443451Y456237D01*
X443451Y463252D01*
X443442Y463316D01*
X443443Y463380D01*
X443422Y463455D01*
X443411Y463531D01*
X443385Y463590D01*
X443368Y463652D01*
X443327Y463718D01*
X443295Y463788D01*
X443253Y463837D01*
X443220Y463892D01*
X443162Y463944D01*
X443112Y464002D01*
X443058Y464038D01*
X443010Y464081D01*
X442941Y464114D01*
X442876Y464157D01*
X442814Y464176D01*
X442757Y464204D01*
X442687Y464215D01*
X442606Y464239D01*
X442521Y464240D01*
X442452Y464251D01*
X440048Y464251D01*
X439984Y464242D01*
X439920Y464243D01*
X439845Y464222D01*
X439769Y464211D01*
X439710Y464185D01*
X439648Y464168D01*
X439582Y464127D01*
X439512Y464095D01*
X439463Y464053D01*
X439408Y464020D01*
X439356Y463962D01*
X439298Y463912D01*
X439262Y463858D01*
X439219Y463810D01*
X439186Y463741D01*
X439143Y463676D01*
X439124Y463614D01*
X439096Y463557D01*
X439085Y463487D01*
X439061Y463406D01*
X439060Y463321D01*
X439049Y463252D01*
X439049Y400434D01*
X439062Y400339D01*
X439067Y400243D01*
X439082Y400200D01*
X439089Y400155D01*
X439128Y400067D01*
X439160Y399976D01*
X439185Y399942D01*
X439205Y399898D01*
X439288Y399801D01*
X439341Y399728D01*
X445591Y393478D01*
X446829Y390490D01*
X446829Y388048D01*
X446838Y387984D01*
X446837Y387920D01*
X446858Y387845D01*
X446869Y387769D01*
X446895Y387710D01*
X446912Y387648D01*
X446953Y387582D01*
X446985Y387512D01*
X447027Y387463D01*
X447060Y387408D01*
X447118Y387356D01*
X447168Y387298D01*
X447222Y387262D01*
X447270Y387219D01*
X447339Y387186D01*
X447404Y387143D01*
X447466Y387124D01*
X447523Y387096D01*
X447593Y387085D01*
X447674Y387061D01*
X447759Y387060D01*
X447828Y387049D01*
X447963Y387049D01*
X447995Y387016D01*
X448021Y386997D01*
X448042Y386972D01*
X448134Y386912D01*
X448221Y386847D01*
X448251Y386835D01*
X448278Y386818D01*
X448383Y386786D01*
X448485Y386747D01*
X448517Y386745D01*
X448548Y386735D01*
X448657Y386734D01*
X448766Y386725D01*
X448798Y386732D01*
X448830Y386732D01*
X448935Y386761D01*
X449042Y386783D01*
X449071Y386798D01*
X449102Y386807D01*
X449195Y386864D01*
X449291Y386916D01*
X449314Y386938D01*
X449342Y386955D01*
X449415Y387036D01*
X449493Y387112D01*
X449509Y387140D01*
X449531Y387164D01*
X449578Y387263D01*
X449632Y387358D01*
X449640Y387389D01*
X449654Y387418D01*
X449668Y387508D01*
X449697Y387632D01*
X449695Y387681D01*
X449701Y387723D01*
X449701Y400285D01*
X449741Y400328D01*
X449761Y400369D01*
X449788Y400406D01*
X449822Y400496D01*
X449864Y400582D01*
X449870Y400624D01*
X449887Y400670D01*
X449897Y400797D01*
X449911Y400887D01*
X449911Y408452D01*
X449902Y408516D01*
X449903Y408580D01*
X449882Y408655D01*
X449871Y408731D01*
X449845Y408790D01*
X449828Y408852D01*
X449787Y408918D01*
X449755Y408988D01*
X449713Y409037D01*
X449680Y409092D01*
X449622Y409144D01*
X449572Y409202D01*
X449518Y409238D01*
X449470Y409281D01*
X449401Y409314D01*
X449336Y409357D01*
X449274Y409376D01*
X449217Y409404D01*
X449147Y409415D01*
X449066Y409439D01*
X448981Y409440D01*
X448912Y409451D01*
X445237Y409451D01*
X443451Y411237D01*
X443451Y443763D01*
X445237Y445549D01*
X464763Y445549D01*
X466549Y443763D01*
X466549Y437598D01*
X466557Y437539D01*
X466557Y437520D01*
X466558Y437517D01*
X466557Y437470D01*
X466578Y437395D01*
X466589Y437319D01*
X466615Y437260D01*
X466632Y437198D01*
X466673Y437132D01*
X466705Y437062D01*
X466747Y437013D01*
X466780Y436958D01*
X466838Y436906D01*
X466888Y436848D01*
X466942Y436812D01*
X466990Y436769D01*
X467059Y436736D01*
X467124Y436693D01*
X467186Y436674D01*
X467243Y436646D01*
X467313Y436635D01*
X467394Y436611D01*
X467479Y436610D01*
X467548Y436599D01*
X484552Y436599D01*
X484616Y436608D01*
X484680Y436607D01*
X484755Y436628D01*
X484831Y436639D01*
X484890Y436665D01*
X484952Y436682D01*
X485018Y436723D01*
X485088Y436755D01*
X485137Y436797D01*
X485192Y436830D01*
X485244Y436888D01*
X485302Y436938D01*
X485338Y436992D01*
X485381Y437040D01*
X485414Y437109D01*
X485457Y437174D01*
X485476Y437236D01*
X485504Y437293D01*
X485515Y437363D01*
X485539Y437444D01*
X485540Y437529D01*
X485551Y437598D01*
X485551Y446263D01*
X485659Y446370D01*
X485716Y446447D01*
X485781Y446518D01*
X485801Y446559D01*
X485828Y446596D01*
X485862Y446686D01*
X485904Y446772D01*
X485910Y446814D01*
X485927Y446860D01*
X485937Y446987D01*
X485951Y447077D01*
X485951Y454201D01*
X492911Y454201D01*
X492711Y453195D01*
X492063Y451632D01*
X491123Y450225D01*
X490653Y449755D01*
X490633Y449729D01*
X490609Y449708D01*
X490549Y449616D01*
X490484Y449529D01*
X490472Y449499D01*
X490455Y449472D01*
X490423Y449367D01*
X490384Y449265D01*
X490382Y449233D01*
X490372Y449202D01*
X490371Y449093D01*
X490362Y448984D01*
X490369Y448952D01*
X490368Y448920D01*
X490398Y448815D01*
X490420Y448708D01*
X490435Y448679D01*
X490444Y448648D01*
X490501Y448555D01*
X490552Y448459D01*
X490575Y448436D01*
X490592Y448408D01*
X490673Y448335D01*
X490749Y448257D01*
X490777Y448241D01*
X490801Y448219D01*
X490900Y448172D01*
X490994Y448118D01*
X491026Y448110D01*
X491055Y448096D01*
X491144Y448082D01*
X491269Y448053D01*
X491317Y448055D01*
X491359Y448049D01*
X507663Y448049D01*
X509449Y446263D01*
X509449Y408137D01*
X507663Y406351D01*
X487337Y406351D01*
X485551Y408137D01*
X485551Y416802D01*
X485542Y416866D01*
X485543Y416930D01*
X485522Y417005D01*
X485511Y417081D01*
X485485Y417140D01*
X485468Y417202D01*
X485427Y417268D01*
X485395Y417338D01*
X485353Y417387D01*
X485320Y417442D01*
X485262Y417494D01*
X485212Y417552D01*
X485158Y417588D01*
X485110Y417631D01*
X485041Y417664D01*
X484976Y417707D01*
X484914Y417726D01*
X484857Y417754D01*
X484787Y417765D01*
X484706Y417789D01*
X484621Y417790D01*
X484552Y417801D01*
X467548Y417801D01*
X467484Y417792D01*
X467420Y417793D01*
X467345Y417772D01*
X467269Y417761D01*
X467210Y417735D01*
X467148Y417718D01*
X467082Y417677D01*
X467012Y417645D01*
X466963Y417603D01*
X466908Y417570D01*
X466856Y417512D01*
X466798Y417462D01*
X466762Y417408D01*
X466719Y417360D01*
X466686Y417291D01*
X466643Y417226D01*
X466624Y417164D01*
X466596Y417107D01*
X466585Y417037D01*
X466561Y416956D01*
X466560Y416871D01*
X466549Y416802D01*
X466549Y411237D01*
X464763Y409451D01*
X462088Y409451D01*
X462024Y409442D01*
X461960Y409443D01*
X461885Y409422D01*
X461809Y409411D01*
X461750Y409385D01*
X461688Y409368D01*
X461622Y409327D01*
X461552Y409295D01*
X461503Y409253D01*
X461448Y409220D01*
X461396Y409162D01*
X461338Y409112D01*
X461302Y409058D01*
X461259Y409010D01*
X461226Y408941D01*
X461183Y408876D01*
X461164Y408814D01*
X461136Y408757D01*
X461125Y408687D01*
X461101Y408606D01*
X461100Y408521D01*
X461089Y408452D01*
X461089Y402540D01*
X461098Y402476D01*
X461097Y402412D01*
X461118Y402337D01*
X461129Y402261D01*
X461155Y402202D01*
X461172Y402140D01*
X461213Y402074D01*
X461245Y402004D01*
X461287Y401955D01*
X461320Y401900D01*
X461378Y401848D01*
X461428Y401790D01*
X461482Y401754D01*
X461530Y401711D01*
X461599Y401678D01*
X461664Y401635D01*
X461726Y401616D01*
X461783Y401588D01*
X461853Y401577D01*
X461934Y401553D01*
X462019Y401552D01*
X462088Y401541D01*
X463626Y401541D01*
X463626Y393375D01*
X463635Y393312D01*
X463634Y393247D01*
X463655Y393173D01*
X463666Y393096D01*
X463692Y393038D01*
X463709Y392976D01*
X463750Y392910D01*
X463782Y392839D01*
X463823Y392790D01*
X463857Y392736D01*
X463915Y392684D01*
X463965Y392625D01*
X464019Y392590D01*
X464067Y392547D01*
X464136Y392513D01*
X464201Y392470D01*
X464263Y392452D01*
X464320Y392424D01*
X464390Y392413D01*
X464471Y392388D01*
X464556Y392387D01*
X464625Y392376D01*
X465375Y392376D01*
X465439Y392385D01*
X465503Y392384D01*
X465578Y392405D01*
X465654Y392416D01*
X465713Y392442D01*
X465775Y392459D01*
X465841Y392500D01*
X465911Y392532D01*
X465960Y392574D01*
X466015Y392608D01*
X466067Y392665D01*
X466125Y392715D01*
X466161Y392769D01*
X466204Y392817D01*
X466237Y392886D01*
X466280Y392951D01*
X466299Y393013D01*
X466327Y393071D01*
X466338Y393140D01*
X466362Y393221D01*
X466363Y393306D01*
X466374Y393375D01*
X466374Y401541D01*
X468085Y401541D01*
X468731Y401368D01*
X468748Y401357D01*
X468818Y401329D01*
X468883Y401293D01*
X468948Y401277D01*
X469010Y401252D01*
X469084Y401245D01*
X469157Y401228D01*
X469224Y401231D01*
X469291Y401224D01*
X469364Y401238D01*
X469439Y401242D01*
X469502Y401264D01*
X469568Y401276D01*
X469635Y401310D01*
X469706Y401334D01*
X469755Y401371D01*
X469820Y401403D01*
X469891Y401470D01*
X469955Y401516D01*
X470487Y402049D01*
X478513Y402049D01*
X480299Y400263D01*
X480299Y399588D01*
X480308Y399524D01*
X480307Y399460D01*
X480328Y399385D01*
X480339Y399309D01*
X480365Y399250D01*
X480382Y399188D01*
X480423Y399122D01*
X480455Y399052D01*
X480497Y399003D01*
X480530Y398948D01*
X480588Y398896D01*
X480638Y398838D01*
X480692Y398802D01*
X480740Y398759D01*
X480809Y398726D01*
X480874Y398683D01*
X480936Y398664D01*
X480993Y398636D01*
X481063Y398625D01*
X481144Y398601D01*
X481229Y398600D01*
X481298Y398589D01*
X503112Y398589D01*
X505166Y397738D01*
X514738Y388166D01*
X515589Y386112D01*
X515589Y362548D01*
X515598Y362484D01*
X515597Y362420D01*
X515618Y362345D01*
X515629Y362269D01*
X515655Y362210D01*
X515672Y362148D01*
X515713Y362082D01*
X515745Y362012D01*
X515787Y361963D01*
X515820Y361908D01*
X515878Y361856D01*
X515928Y361798D01*
X515982Y361762D01*
X516030Y361719D01*
X516099Y361686D01*
X516164Y361643D01*
X516226Y361624D01*
X516283Y361596D01*
X516353Y361585D01*
X516434Y361561D01*
X516519Y361560D01*
X516588Y361549D01*
X518763Y361549D01*
X520543Y359768D01*
X520595Y359730D01*
X520640Y359684D01*
X520707Y359645D01*
X520769Y359599D01*
X520829Y359576D01*
X520885Y359544D01*
X520960Y359527D01*
X521033Y359499D01*
X521097Y359494D01*
X521159Y359480D01*
X521237Y359483D01*
X521314Y359478D01*
X521377Y359491D01*
X521441Y359494D01*
X521514Y359519D01*
X521590Y359535D01*
X521647Y359565D01*
X521708Y359586D01*
X521764Y359628D01*
X521839Y359668D01*
X521900Y359727D01*
X521957Y359768D01*
X523737Y361549D01*
X541263Y361549D01*
X543049Y359763D01*
X543049Y346237D01*
X541263Y344451D01*
X523737Y344451D01*
X521957Y346232D01*
X521905Y346270D01*
X521860Y346316D01*
X521793Y346355D01*
X521731Y346401D01*
X521671Y346424D01*
X521615Y346456D01*
X521540Y346473D01*
X521467Y346501D01*
X521403Y346506D01*
X521340Y346520D01*
X521263Y346517D01*
X521186Y346522D01*
X521123Y346509D01*
X521059Y346506D01*
X520986Y346481D01*
X520910Y346465D01*
X520853Y346435D01*
X520792Y346414D01*
X520736Y346372D01*
X520661Y346332D01*
X520600Y346273D01*
X520543Y346232D01*
X518763Y344451D01*
X503554Y344451D01*
X503437Y344435D01*
X503319Y344423D01*
X503298Y344415D01*
X503275Y344411D01*
X503167Y344363D01*
X503057Y344319D01*
X503039Y344305D01*
X503018Y344295D01*
X502928Y344218D01*
X502835Y344145D01*
X502821Y344127D01*
X502804Y344112D01*
X502739Y344012D01*
X502670Y343916D01*
X502662Y343895D01*
X502649Y343876D01*
X502615Y343762D01*
X502575Y343651D01*
X502574Y343628D01*
X502567Y343606D01*
X502566Y343488D01*
X502559Y343369D01*
X502564Y343348D01*
X502563Y343324D01*
X502613Y343144D01*
X502631Y343070D01*
X502712Y342874D01*
X502714Y342865D01*
X502744Y342796D01*
X502750Y342783D01*
X502752Y342780D01*
X502753Y342777D01*
X502785Y342686D01*
X502810Y342652D01*
X502830Y342608D01*
X502913Y342511D01*
X502966Y342437D01*
X504562Y340841D01*
X504639Y340784D01*
X504710Y340719D01*
X504751Y340699D01*
X504788Y340672D01*
X504878Y340638D01*
X504964Y340596D01*
X505006Y340590D01*
X505052Y340573D01*
X505179Y340563D01*
X505269Y340549D01*
X518763Y340549D01*
X520549Y338763D01*
X520549Y338294D01*
X520550Y338284D01*
X520549Y338273D01*
X520570Y338144D01*
X520589Y338015D01*
X520593Y338005D01*
X520595Y337995D01*
X520651Y337876D01*
X520705Y337758D01*
X520712Y337750D01*
X520716Y337740D01*
X520804Y337642D01*
X520888Y337544D01*
X520897Y337538D01*
X520904Y337530D01*
X521015Y337461D01*
X521124Y337389D01*
X521134Y337386D01*
X521144Y337381D01*
X521269Y337345D01*
X521394Y337307D01*
X521405Y337307D01*
X521415Y337304D01*
X521546Y337305D01*
X521676Y337303D01*
X521686Y337306D01*
X521697Y337306D01*
X521821Y337344D01*
X521948Y337378D01*
X521957Y337384D01*
X521967Y337387D01*
X522076Y337458D01*
X522188Y337527D01*
X522195Y337535D01*
X522204Y337540D01*
X522289Y337639D01*
X522377Y337736D01*
X522381Y337746D01*
X522388Y337754D01*
X522421Y337827D01*
X522500Y337990D01*
X522503Y338014D01*
X522513Y338036D01*
X522632Y338481D01*
X522967Y339060D01*
X523440Y339533D01*
X524019Y339868D01*
X524665Y340041D01*
X530501Y340041D01*
X530501Y333000D01*
X530510Y332936D01*
X530509Y332872D01*
X530530Y332798D01*
X530541Y332721D01*
X530567Y332662D01*
X530584Y332600D01*
X530625Y332534D01*
X530657Y332464D01*
X530699Y332415D01*
X530732Y332360D01*
X530790Y332309D01*
X530840Y332250D01*
X530894Y332214D01*
X530942Y332171D01*
X531011Y332138D01*
X531076Y332095D01*
X531138Y332076D01*
X531195Y332048D01*
X531265Y332038D01*
X531346Y332013D01*
X531431Y332012D01*
X531500Y332001D01*
X532501Y332001D01*
X532501Y331999D01*
X531500Y331999D01*
X531436Y331990D01*
X531372Y331991D01*
X531297Y331970D01*
X531221Y331959D01*
X531162Y331933D01*
X531100Y331916D01*
X531034Y331875D01*
X530964Y331843D01*
X530915Y331801D01*
X530860Y331768D01*
X530808Y331710D01*
X530750Y331660D01*
X530714Y331606D01*
X530671Y331558D01*
X530638Y331489D01*
X530595Y331424D01*
X530576Y331362D01*
X530548Y331304D01*
X530538Y331235D01*
X530513Y331154D01*
X530512Y331069D01*
X530501Y331000D01*
X530501Y323959D01*
X524665Y323959D01*
X524019Y324132D01*
X523440Y324467D01*
X522967Y324940D01*
X522632Y325519D01*
X522513Y325964D01*
X522509Y325974D01*
X522507Y325985D01*
X522454Y326103D01*
X522402Y326224D01*
X522396Y326232D01*
X522391Y326242D01*
X522306Y326341D01*
X522224Y326442D01*
X522215Y326448D01*
X522208Y326456D01*
X522098Y326528D01*
X521991Y326601D01*
X521981Y326605D01*
X521972Y326611D01*
X521847Y326649D01*
X521723Y326689D01*
X521712Y326690D01*
X521702Y326693D01*
X521572Y326695D01*
X521441Y326699D01*
X521431Y326697D01*
X521420Y326697D01*
X521294Y326662D01*
X521168Y326630D01*
X521159Y326624D01*
X521148Y326622D01*
X521037Y326553D01*
X520925Y326487D01*
X520918Y326479D01*
X520908Y326473D01*
X520821Y326377D01*
X520731Y326282D01*
X520727Y326272D01*
X520719Y326264D01*
X520663Y326147D01*
X520603Y326031D01*
X520601Y326020D01*
X520596Y326010D01*
X520584Y325931D01*
X520550Y325754D01*
X520552Y325730D01*
X520549Y325706D01*
X520549Y325237D01*
X518763Y323451D01*
X501237Y323451D01*
X499451Y325237D01*
X499451Y329731D01*
X499442Y329795D01*
X499443Y329856D01*
X499435Y329887D01*
X499433Y329922D01*
X499418Y329965D01*
X499411Y330010D01*
X499383Y330073D01*
X499368Y330128D01*
X499353Y330152D01*
X499340Y330189D01*
X499315Y330223D01*
X499295Y330267D01*
X499248Y330323D01*
X499220Y330368D01*
X499189Y330396D01*
X499159Y330438D01*
X496300Y333297D01*
X496274Y333316D01*
X496253Y333341D01*
X496161Y333401D01*
X496074Y333466D01*
X496044Y333477D01*
X496017Y333495D01*
X495912Y333527D01*
X495810Y333566D01*
X495778Y333568D01*
X495747Y333578D01*
X495638Y333579D01*
X495529Y333587D01*
X495497Y333581D01*
X495465Y333581D01*
X495360Y333552D01*
X495253Y333530D01*
X495224Y333515D01*
X495193Y333506D01*
X495100Y333449D01*
X495004Y333397D01*
X494981Y333375D01*
X494953Y333358D01*
X494880Y333277D01*
X494802Y333201D01*
X494786Y333173D01*
X494764Y333149D01*
X494717Y333050D01*
X494663Y332955D01*
X494655Y332924D01*
X494641Y332895D01*
X494627Y332805D01*
X494598Y332681D01*
X494600Y332632D01*
X494594Y332590D01*
X494594Y240712D01*
X492196Y234924D01*
X381421Y124149D01*
X375633Y121751D01*
X369367Y121751D01*
X363579Y124149D01*
X359149Y128579D01*
X356751Y134367D01*
X356751Y140633D01*
X359149Y146421D01*
X462804Y250076D01*
X462834Y250117D01*
X462847Y250128D01*
X462870Y250162D01*
X462926Y250224D01*
X462946Y250265D01*
X462973Y250301D01*
X462989Y250344D01*
X463002Y250364D01*
X463016Y250411D01*
X463049Y250478D01*
X463055Y250520D01*
X463072Y250565D01*
X463075Y250605D01*
X463084Y250634D01*
X463085Y250712D01*
X463096Y250782D01*
X463096Y323252D01*
X463092Y323284D01*
X463094Y323316D01*
X463072Y323423D01*
X463056Y323532D01*
X463043Y323561D01*
X463037Y323592D01*
X462985Y323689D01*
X462940Y323788D01*
X462919Y323813D01*
X462904Y323841D01*
X462828Y323920D01*
X462757Y324003D01*
X462730Y324020D01*
X462707Y324044D01*
X462612Y324097D01*
X462521Y324157D01*
X462490Y324167D01*
X462462Y324183D01*
X462356Y324208D01*
X462251Y324240D01*
X462219Y324240D01*
X462188Y324247D01*
X462078Y324242D01*
X461969Y324243D01*
X461938Y324235D01*
X461906Y324233D01*
X461803Y324197D01*
X461697Y324168D01*
X461670Y324151D01*
X461639Y324141D01*
X461566Y324087D01*
X461457Y324020D01*
X461425Y323984D01*
X461390Y323959D01*
X459668Y322236D01*
X441142Y322236D01*
X439356Y324022D01*
X439356Y344578D01*
X441142Y346364D01*
X443817Y346364D01*
X443881Y346373D01*
X443945Y346372D01*
X444020Y346393D01*
X444096Y346404D01*
X444155Y346430D01*
X444217Y346447D01*
X444283Y346488D01*
X444353Y346520D01*
X444402Y346562D01*
X444457Y346595D01*
X444509Y346653D01*
X444567Y346703D01*
X444603Y346757D01*
X444646Y346805D01*
X444679Y346874D01*
X444722Y346939D01*
X444741Y347001D01*
X444769Y347058D01*
X444780Y347128D01*
X444804Y347209D01*
X444805Y347294D01*
X444816Y347363D01*
X444816Y347912D01*
X445667Y349966D01*
X447380Y351678D01*
X447947Y352245D01*
X447966Y352271D01*
X447991Y352292D01*
X448051Y352384D01*
X448116Y352471D01*
X448127Y352501D01*
X448145Y352528D01*
X448177Y352633D01*
X448216Y352735D01*
X448218Y352767D01*
X448228Y352798D01*
X448229Y352907D01*
X448237Y353016D01*
X448231Y353048D01*
X448231Y353080D01*
X448202Y353185D01*
X448180Y353292D01*
X448165Y353321D01*
X448156Y353352D01*
X448099Y353445D01*
X448047Y353541D01*
X448025Y353564D01*
X448008Y353592D01*
X447927Y353665D01*
X447851Y353743D01*
X447823Y353759D01*
X447799Y353781D01*
X447700Y353828D01*
X447605Y353882D01*
X447574Y353890D01*
X447545Y353904D01*
X447455Y353918D01*
X447331Y353947D01*
X447282Y353945D01*
X447240Y353951D01*
X429437Y353951D01*
X427651Y355737D01*
X427651Y385263D01*
X428526Y386138D01*
X428565Y386189D01*
X428611Y386234D01*
X428649Y386301D01*
X428696Y386363D01*
X428718Y386424D01*
X428750Y386479D01*
X428768Y386555D01*
X428795Y386627D01*
X428800Y386691D01*
X428815Y386754D01*
X428811Y386831D01*
X428817Y386909D01*
X428804Y386971D01*
X428801Y387036D01*
X428775Y387109D01*
X428759Y387185D01*
X428729Y387241D01*
X428708Y387302D01*
X428667Y387359D01*
X428627Y387434D01*
X428568Y387494D01*
X428526Y387551D01*
X426456Y389621D01*
X424029Y392048D01*
X422791Y395036D01*
X422791Y463252D01*
X422782Y463316D01*
X422783Y463380D01*
X422762Y463455D01*
X422751Y463531D01*
X422725Y463590D01*
X422708Y463652D01*
X422667Y463718D01*
X422635Y463788D01*
X422593Y463837D01*
X422560Y463892D01*
X422502Y463944D01*
X422452Y464002D01*
X422398Y464038D01*
X422350Y464081D01*
X422281Y464114D01*
X422216Y464157D01*
X422154Y464176D01*
X422097Y464204D01*
X422027Y464215D01*
X421946Y464239D01*
X421861Y464240D01*
X421792Y464251D01*
X295259Y464251D01*
X295130Y464233D01*
X295001Y464218D01*
X294991Y464213D01*
X294979Y464211D01*
X294862Y464158D01*
X294742Y464107D01*
X294733Y464100D01*
X294722Y464095D01*
X294624Y464011D01*
X294523Y463929D01*
X294517Y463919D01*
X294508Y463912D01*
X294437Y463803D01*
X294363Y463696D01*
X294360Y463685D01*
X294354Y463676D01*
X294316Y463552D01*
X294275Y463428D01*
X294275Y463417D01*
X294271Y463406D01*
X294270Y463277D01*
X294265Y463147D01*
X294268Y463135D01*
X294267Y463124D01*
X294302Y462999D01*
X294334Y462873D01*
X294340Y462863D01*
X294343Y462852D01*
X294411Y462742D01*
X294477Y462630D01*
X294485Y462623D01*
X294491Y462612D01*
X294700Y462423D01*
X294702Y462422D01*
X294703Y462421D01*
X295227Y462071D01*
X296423Y460875D01*
X297363Y459468D01*
X298011Y457905D01*
X298211Y456899D01*
X290252Y456899D01*
X290189Y456890D01*
X290124Y456891D01*
X290050Y456870D01*
X289973Y456859D01*
X289915Y456833D01*
X289853Y456816D01*
X289787Y456775D01*
X289749Y456758D01*
X289741Y456762D01*
X289676Y456805D01*
X289614Y456824D01*
X289556Y456852D01*
X289487Y456863D01*
X289406Y456887D01*
X289321Y456888D01*
X289252Y456899D01*
X281293Y456899D01*
X281493Y457905D01*
X282141Y459468D01*
X283081Y460875D01*
X284277Y462071D01*
X284801Y462421D01*
X284897Y462508D01*
X284996Y462592D01*
X285002Y462602D01*
X285011Y462609D01*
X285079Y462719D01*
X285150Y462828D01*
X285154Y462839D01*
X285160Y462849D01*
X285195Y462974D01*
X285233Y463098D01*
X285233Y463109D01*
X285236Y463120D01*
X285235Y463250D01*
X285237Y463380D01*
X285233Y463391D01*
X285233Y463402D01*
X285196Y463526D01*
X285161Y463652D01*
X285155Y463661D01*
X285152Y463672D01*
X285081Y463781D01*
X285013Y463892D01*
X285005Y463899D01*
X284998Y463909D01*
X284900Y463994D01*
X284804Y464081D01*
X284794Y464086D01*
X284785Y464093D01*
X284667Y464147D01*
X284550Y464204D01*
X284539Y464205D01*
X284528Y464210D01*
X284249Y464251D01*
X284247Y464251D01*
X284245Y464251D01*
X274248Y464251D01*
X274184Y464242D01*
X274120Y464243D01*
X274045Y464222D01*
X273969Y464211D01*
X273910Y464185D01*
X273848Y464168D01*
X273782Y464127D01*
X273712Y464095D01*
X273663Y464053D01*
X273608Y464020D01*
X273556Y463962D01*
X273498Y463912D01*
X273462Y463858D01*
X273419Y463810D01*
X273386Y463741D01*
X273343Y463676D01*
X273324Y463614D01*
X273296Y463557D01*
X273285Y463487D01*
X273261Y463406D01*
X273260Y463321D01*
X273249Y463252D01*
X273249Y456237D01*
X271463Y454451D01*
X251937Y454451D01*
X250151Y456237D01*
X250151Y463252D01*
X250142Y463316D01*
X250143Y463380D01*
X250122Y463455D01*
X250111Y463531D01*
X250085Y463590D01*
X250068Y463652D01*
X250027Y463718D01*
X249995Y463788D01*
X249953Y463837D01*
X249920Y463892D01*
X249862Y463944D01*
X249812Y464002D01*
X249758Y464038D01*
X249710Y464081D01*
X249641Y464114D01*
X249576Y464157D01*
X249514Y464176D01*
X249457Y464204D01*
X249387Y464215D01*
X249306Y464239D01*
X249221Y464240D01*
X249152Y464251D01*
X244128Y464251D01*
X244064Y464242D01*
X244000Y464243D01*
X243925Y464222D01*
X243849Y464211D01*
X243790Y464185D01*
X243728Y464168D01*
X243662Y464127D01*
X243592Y464095D01*
X243543Y464053D01*
X243488Y464020D01*
X243436Y463962D01*
X243378Y463912D01*
X243342Y463858D01*
X243299Y463810D01*
X243266Y463741D01*
X243223Y463676D01*
X243204Y463614D01*
X243176Y463557D01*
X243165Y463487D01*
X243141Y463406D01*
X243140Y463321D01*
X243129Y463252D01*
X243129Y376048D01*
X243138Y375984D01*
X243137Y375920D01*
X243158Y375845D01*
X243169Y375769D01*
X243195Y375710D01*
X243212Y375648D01*
X243253Y375582D01*
X243285Y375512D01*
X243327Y375463D01*
X243360Y375408D01*
X243418Y375356D01*
X243468Y375298D01*
X243522Y375262D01*
X243570Y375219D01*
X243639Y375186D01*
X243704Y375143D01*
X243766Y375124D01*
X243823Y375096D01*
X243893Y375085D01*
X243974Y375061D01*
X244059Y375060D01*
X244128Y375049D01*
X254763Y375049D01*
X256549Y373263D01*
X256549Y371096D01*
X256558Y371032D01*
X256557Y370968D01*
X256578Y370893D01*
X256589Y370817D01*
X256615Y370758D01*
X256632Y370696D01*
X256673Y370630D01*
X256705Y370560D01*
X256747Y370511D01*
X256780Y370456D01*
X256838Y370404D01*
X256888Y370346D01*
X256942Y370310D01*
X256990Y370267D01*
X257059Y370234D01*
X257124Y370191D01*
X257186Y370172D01*
X257243Y370144D01*
X257313Y370133D01*
X257394Y370109D01*
X257479Y370108D01*
X257548Y370097D01*
X258702Y370097D01*
X258766Y370106D01*
X258830Y370105D01*
X258905Y370126D01*
X258981Y370137D01*
X259040Y370163D01*
X259102Y370180D01*
X259168Y370221D01*
X259238Y370253D01*
X259287Y370295D01*
X259342Y370328D01*
X259394Y370386D01*
X259452Y370436D01*
X259488Y370490D01*
X259531Y370538D01*
X259564Y370607D01*
X259607Y370672D01*
X259626Y370734D01*
X259654Y370791D01*
X259665Y370861D01*
X259689Y370942D01*
X259690Y371027D01*
X259701Y371096D01*
X259701Y371785D01*
X259741Y371828D01*
X259761Y371869D01*
X259788Y371906D01*
X259822Y371996D01*
X259864Y372082D01*
X259870Y372124D01*
X259887Y372170D01*
X259897Y372297D01*
X259911Y372387D01*
X259911Y374112D01*
X260762Y376166D01*
X262475Y377878D01*
X264342Y379745D01*
X264361Y379771D01*
X264386Y379792D01*
X264446Y379884D01*
X264511Y379971D01*
X264522Y380001D01*
X264540Y380028D01*
X264572Y380133D01*
X264611Y380235D01*
X264613Y380267D01*
X264623Y380298D01*
X264624Y380407D01*
X264632Y380516D01*
X264626Y380548D01*
X264626Y380580D01*
X264597Y380685D01*
X264575Y380792D01*
X264560Y380821D01*
X264551Y380852D01*
X264494Y380945D01*
X264442Y381041D01*
X264420Y381064D01*
X264403Y381092D01*
X264322Y381165D01*
X264246Y381243D01*
X264218Y381259D01*
X264194Y381281D01*
X264095Y381328D01*
X264000Y381382D01*
X263969Y381390D01*
X263940Y381404D01*
X263851Y381418D01*
X263726Y381447D01*
X263677Y381445D01*
X263635Y381451D01*
X261487Y381451D01*
X259701Y383237D01*
X259701Y397785D01*
X259741Y397828D01*
X259761Y397869D01*
X259788Y397906D01*
X259822Y397996D01*
X259864Y398082D01*
X259870Y398124D01*
X259887Y398170D01*
X259897Y398297D01*
X259911Y398387D01*
X259911Y408452D01*
X259902Y408516D01*
X259903Y408580D01*
X259882Y408655D01*
X259871Y408731D01*
X259845Y408790D01*
X259828Y408852D01*
X259787Y408918D01*
X259755Y408988D01*
X259713Y409037D01*
X259680Y409092D01*
X259622Y409144D01*
X259572Y409202D01*
X259518Y409238D01*
X259470Y409281D01*
X259401Y409314D01*
X259336Y409357D01*
X259274Y409376D01*
X259217Y409404D01*
X259147Y409415D01*
X259066Y409439D01*
X258981Y409440D01*
X258912Y409451D01*
X251937Y409451D01*
X250151Y411237D01*
X250151Y443763D01*
X251937Y445549D01*
X271463Y445549D01*
X273249Y443763D01*
X273249Y437898D01*
X273258Y437834D01*
X273257Y437770D01*
X273278Y437695D01*
X273289Y437619D01*
X273315Y437560D01*
X273332Y437498D01*
X273373Y437432D01*
X273405Y437362D01*
X273447Y437313D01*
X273480Y437258D01*
X273538Y437206D01*
X273588Y437148D01*
X273642Y437112D01*
X273690Y437069D01*
X273759Y437036D01*
X273824Y436993D01*
X273886Y436974D01*
X273943Y436946D01*
X274013Y436935D01*
X274094Y436911D01*
X274179Y436910D01*
X274248Y436899D01*
X290052Y436899D01*
X290116Y436908D01*
X290180Y436907D01*
X290255Y436928D01*
X290331Y436939D01*
X290390Y436965D01*
X290452Y436982D01*
X290518Y437023D01*
X290588Y437055D01*
X290637Y437097D01*
X290692Y437130D01*
X290744Y437188D01*
X290802Y437238D01*
X290838Y437292D01*
X290881Y437340D01*
X290914Y437409D01*
X290957Y437474D01*
X290976Y437536D01*
X291004Y437593D01*
X291015Y437663D01*
X291039Y437744D01*
X291040Y437829D01*
X291051Y437898D01*
X291051Y446586D01*
X291081Y446618D01*
X291101Y446659D01*
X291128Y446696D01*
X291162Y446786D01*
X291204Y446872D01*
X291210Y446914D01*
X291227Y446960D01*
X291237Y447087D01*
X291251Y447177D01*
X291251Y453901D01*
X298211Y453901D01*
X298011Y452895D01*
X297363Y451332D01*
X296409Y449903D01*
X296376Y449835D01*
X296335Y449772D01*
X296315Y449708D01*
X296287Y449649D01*
X296274Y449574D01*
X296252Y449502D01*
X296251Y449436D01*
X296241Y449371D01*
X296250Y449296D01*
X296249Y449220D01*
X296266Y449156D01*
X296274Y449091D01*
X296304Y449021D01*
X296324Y448948D01*
X296359Y448892D01*
X296384Y448831D01*
X296432Y448773D01*
X296472Y448708D01*
X296521Y448664D01*
X296563Y448613D01*
X296625Y448570D01*
X296681Y448519D01*
X296741Y448490D01*
X296795Y448453D01*
X296867Y448429D01*
X296935Y448396D01*
X296995Y448387D01*
X297063Y448364D01*
X297162Y448361D01*
X297240Y448349D01*
X313163Y448349D01*
X314949Y446563D01*
X314949Y408437D01*
X313163Y406651D01*
X292837Y406651D01*
X291051Y408437D01*
X291051Y417102D01*
X291042Y417166D01*
X291043Y417230D01*
X291022Y417305D01*
X291011Y417381D01*
X290985Y417440D01*
X290968Y417502D01*
X290927Y417568D01*
X290895Y417638D01*
X290853Y417687D01*
X290820Y417742D01*
X290762Y417794D01*
X290712Y417852D01*
X290658Y417888D01*
X290610Y417931D01*
X290541Y417964D01*
X290476Y418007D01*
X290414Y418026D01*
X290357Y418054D01*
X290287Y418065D01*
X290206Y418089D01*
X290121Y418090D01*
X290052Y418101D01*
X274248Y418101D01*
X274184Y418092D01*
X274120Y418093D01*
X274045Y418072D01*
X273969Y418061D01*
X273910Y418035D01*
X273848Y418018D01*
X273782Y417977D01*
X273712Y417945D01*
X273663Y417903D01*
X273608Y417870D01*
X273556Y417812D01*
X273498Y417762D01*
X273462Y417708D01*
X273419Y417660D01*
X273386Y417591D01*
X273343Y417526D01*
X273324Y417464D01*
X273296Y417407D01*
X273285Y417337D01*
X273261Y417256D01*
X273260Y417171D01*
X273249Y417102D01*
X273249Y411237D01*
X271381Y409370D01*
X271364Y409347D01*
X271344Y409329D01*
X271310Y409278D01*
X271259Y409222D01*
X271239Y409181D01*
X271212Y409144D01*
X271198Y409107D01*
X271189Y409093D01*
X271176Y409049D01*
X271136Y408968D01*
X271130Y408926D01*
X271113Y408880D01*
X271109Y408830D01*
X271107Y408823D01*
X271106Y408800D01*
X271103Y408753D01*
X271089Y408663D01*
X271089Y400040D01*
X271098Y399976D01*
X271097Y399912D01*
X271118Y399837D01*
X271129Y399761D01*
X271155Y399702D01*
X271172Y399640D01*
X271213Y399574D01*
X271245Y399504D01*
X271287Y399455D01*
X271320Y399400D01*
X271378Y399348D01*
X271428Y399290D01*
X271482Y399254D01*
X271530Y399211D01*
X271599Y399178D01*
X271664Y399135D01*
X271726Y399116D01*
X271783Y399088D01*
X271853Y399077D01*
X271934Y399053D01*
X272019Y399052D01*
X272088Y399041D01*
X273626Y399041D01*
X273626Y390875D01*
X273635Y390812D01*
X273634Y390747D01*
X273655Y390673D01*
X273666Y390596D01*
X273692Y390538D01*
X273709Y390476D01*
X273750Y390410D01*
X273782Y390339D01*
X273823Y390290D01*
X273857Y390236D01*
X273915Y390184D01*
X273965Y390125D01*
X274019Y390090D01*
X274067Y390047D01*
X274136Y390013D01*
X274201Y389970D01*
X274263Y389952D01*
X274320Y389924D01*
X274390Y389913D01*
X274471Y389888D01*
X274556Y389887D01*
X274625Y389876D01*
X275375Y389876D01*
X275439Y389885D01*
X275503Y389884D01*
X275578Y389905D01*
X275654Y389916D01*
X275713Y389942D01*
X275775Y389959D01*
X275841Y390000D01*
X275911Y390032D01*
X275960Y390074D01*
X276015Y390108D01*
X276067Y390165D01*
X276125Y390215D01*
X276161Y390269D01*
X276204Y390317D01*
X276237Y390386D01*
X276280Y390451D01*
X276299Y390513D01*
X276327Y390571D01*
X276338Y390640D01*
X276362Y390721D01*
X276363Y390806D01*
X276374Y390875D01*
X276374Y399041D01*
X278085Y399041D01*
X278730Y398868D01*
X278748Y398857D01*
X278818Y398829D01*
X278883Y398792D01*
X278948Y398777D01*
X279010Y398752D01*
X279084Y398745D01*
X279158Y398728D01*
X279224Y398731D01*
X279291Y398724D01*
X279364Y398738D01*
X279439Y398742D01*
X279502Y398764D01*
X279568Y398776D01*
X279635Y398810D01*
X279706Y398834D01*
X279755Y398871D01*
X279820Y398903D01*
X279891Y398970D01*
X279955Y399016D01*
X280487Y399549D01*
X288513Y399549D01*
X290299Y397763D01*
X290299Y397088D01*
X290308Y397024D01*
X290307Y396960D01*
X290328Y396885D01*
X290339Y396809D01*
X290365Y396750D01*
X290382Y396688D01*
X290423Y396622D01*
X290455Y396552D01*
X290497Y396503D01*
X290530Y396448D01*
X290588Y396396D01*
X290638Y396338D01*
X290692Y396302D01*
X290740Y396259D01*
X290809Y396226D01*
X290874Y396183D01*
X290936Y396164D01*
X290993Y396136D01*
X291063Y396125D01*
X291144Y396101D01*
X291229Y396100D01*
X291298Y396089D01*
X305612Y396089D01*
X307666Y395238D01*
X317238Y385666D01*
X318089Y383612D01*
X318089Y362548D01*
X318098Y362484D01*
X318097Y362420D01*
X318118Y362345D01*
X318129Y362269D01*
X318155Y362210D01*
X318172Y362148D01*
X318213Y362082D01*
X318245Y362012D01*
X318287Y361963D01*
X318320Y361908D01*
X318378Y361856D01*
X318428Y361798D01*
X318482Y361762D01*
X318530Y361719D01*
X318599Y361686D01*
X318664Y361643D01*
X318726Y361624D01*
X318783Y361596D01*
X318853Y361585D01*
X318934Y361561D01*
X319019Y361560D01*
X319088Y361549D01*
X323763Y361549D01*
X324293Y361018D01*
X324345Y360980D01*
X324390Y360934D01*
X324457Y360895D01*
X324519Y360849D01*
X324579Y360826D01*
X324635Y360794D01*
X324710Y360777D01*
X324783Y360749D01*
X324847Y360744D01*
X324909Y360730D01*
X324987Y360733D01*
X325064Y360728D01*
X325127Y360741D01*
X325191Y360744D01*
X325264Y360769D01*
X325340Y360785D01*
X325397Y360815D01*
X325458Y360836D01*
X325514Y360878D01*
X325589Y360918D01*
X325650Y360977D01*
X325707Y361018D01*
X326237Y361549D01*
X343763Y361549D01*
X345549Y359763D01*
X345549Y346237D01*
X343763Y344451D01*
X326237Y344451D01*
X325707Y344982D01*
X325655Y345020D01*
X325610Y345066D01*
X325543Y345105D01*
X325481Y345151D01*
X325421Y345174D01*
X325365Y345206D01*
X325290Y345223D01*
X325217Y345251D01*
X325153Y345256D01*
X325090Y345270D01*
X325013Y345267D01*
X324936Y345272D01*
X324873Y345259D01*
X324809Y345256D01*
X324736Y345231D01*
X324660Y345215D01*
X324603Y345185D01*
X324542Y345164D01*
X324486Y345122D01*
X324411Y345082D01*
X324350Y345023D01*
X324293Y344982D01*
X323763Y344451D01*
X312865Y344451D01*
X312833Y344447D01*
X312801Y344449D01*
X312694Y344427D01*
X312586Y344411D01*
X312556Y344398D01*
X312525Y344392D01*
X312428Y344340D01*
X312329Y344295D01*
X312304Y344274D01*
X312276Y344259D01*
X312197Y344183D01*
X312114Y344112D01*
X312097Y344085D01*
X312074Y344062D01*
X312020Y343967D01*
X311960Y343876D01*
X311950Y343845D01*
X311935Y343817D01*
X311909Y343711D01*
X311877Y343606D01*
X311877Y343574D01*
X311870Y343543D01*
X311875Y343433D01*
X311874Y343324D01*
X311882Y343293D01*
X311884Y343261D01*
X311920Y343158D01*
X311949Y343052D01*
X311966Y343025D01*
X311976Y342994D01*
X312030Y342921D01*
X312097Y342812D01*
X312133Y342780D01*
X312158Y342745D01*
X314062Y340841D01*
X314139Y340784D01*
X314210Y340719D01*
X314251Y340699D01*
X314288Y340672D01*
X314378Y340638D01*
X314464Y340596D01*
X314506Y340590D01*
X314552Y340573D01*
X314679Y340563D01*
X314769Y340549D01*
X323763Y340549D01*
X324661Y339650D01*
X324721Y339605D01*
X324775Y339553D01*
X324834Y339521D01*
X324887Y339481D01*
X324957Y339454D01*
X325023Y339419D01*
X325088Y339405D01*
X325151Y339381D01*
X325226Y339376D01*
X325299Y339360D01*
X325365Y339365D01*
X325432Y339360D01*
X325505Y339375D01*
X325580Y339380D01*
X325637Y339402D01*
X325708Y339417D01*
X325795Y339463D01*
X325868Y339491D01*
X326519Y339868D01*
X327165Y340041D01*
X333001Y340041D01*
X333001Y333000D01*
X333010Y332936D01*
X333009Y332872D01*
X333030Y332798D01*
X333041Y332721D01*
X333067Y332662D01*
X333084Y332600D01*
X333125Y332534D01*
X333157Y332464D01*
X333199Y332415D01*
X333232Y332360D01*
X333290Y332309D01*
X333340Y332250D01*
X333394Y332214D01*
X333442Y332171D01*
X333511Y332138D01*
X333576Y332095D01*
X333638Y332076D01*
X333695Y332048D01*
X333765Y332038D01*
X333846Y332013D01*
X333931Y332012D01*
X334000Y332001D01*
X335001Y332001D01*
X335001Y331999D01*
X334000Y331999D01*
X333936Y331990D01*
X333872Y331991D01*
X333797Y331970D01*
X333721Y331959D01*
X333662Y331933D01*
X333600Y331916D01*
X333534Y331875D01*
X333464Y331843D01*
X333415Y331801D01*
X333360Y331768D01*
X333308Y331710D01*
X333250Y331660D01*
X333214Y331606D01*
X333171Y331558D01*
X333138Y331489D01*
X333095Y331424D01*
X333076Y331362D01*
X333048Y331304D01*
X333038Y331235D01*
X333013Y331154D01*
X333012Y331069D01*
X333001Y331000D01*
X333001Y323959D01*
X327165Y323959D01*
X326519Y324132D01*
X325868Y324509D01*
X325798Y324537D01*
X325733Y324574D01*
X325668Y324589D01*
X325606Y324614D01*
X325531Y324621D01*
X325458Y324638D01*
X325392Y324635D01*
X325325Y324642D01*
X325252Y324628D01*
X325177Y324624D01*
X325114Y324602D01*
X325048Y324590D01*
X324981Y324556D01*
X324910Y324532D01*
X324861Y324495D01*
X324796Y324463D01*
X324725Y324396D01*
X324661Y324350D01*
X323763Y323451D01*
X306237Y323451D01*
X304451Y325237D01*
X304451Y334231D01*
X304438Y334326D01*
X304433Y334422D01*
X304418Y334465D01*
X304411Y334510D01*
X304372Y334598D01*
X304340Y334689D01*
X304315Y334723D01*
X304295Y334767D01*
X304212Y334865D01*
X304159Y334938D01*
X291715Y347382D01*
X291689Y347401D01*
X291668Y347426D01*
X291576Y347486D01*
X291489Y347551D01*
X291459Y347562D01*
X291432Y347580D01*
X291327Y347612D01*
X291225Y347651D01*
X291193Y347653D01*
X291162Y347663D01*
X291053Y347664D01*
X290944Y347672D01*
X290912Y347666D01*
X290880Y347666D01*
X290775Y347637D01*
X290668Y347615D01*
X290639Y347600D01*
X290608Y347591D01*
X290515Y347534D01*
X290419Y347482D01*
X290396Y347460D01*
X290368Y347443D01*
X290295Y347362D01*
X290217Y347286D01*
X290201Y347258D01*
X290179Y347234D01*
X290132Y347135D01*
X290078Y347040D01*
X290070Y347009D01*
X290056Y346980D01*
X290042Y346890D01*
X290013Y346766D01*
X290015Y346717D01*
X290009Y346675D01*
X290009Y333882D01*
X290022Y333787D01*
X290027Y333691D01*
X290042Y333648D01*
X290049Y333603D01*
X290088Y333515D01*
X290120Y333424D01*
X290145Y333390D01*
X290165Y333346D01*
X290248Y333248D01*
X290301Y333175D01*
X293958Y329519D01*
X294809Y327465D01*
X294809Y322899D01*
X294810Y322890D01*
X294809Y322880D01*
X294830Y322750D01*
X294849Y322620D01*
X294852Y322611D01*
X294854Y322602D01*
X294911Y322482D01*
X294965Y322363D01*
X294971Y322356D01*
X294975Y322347D01*
X295063Y322248D01*
X295148Y322149D01*
X295156Y322143D01*
X295162Y322136D01*
X295228Y322096D01*
X295384Y321994D01*
X295407Y321987D01*
X295426Y321976D01*
X298141Y320851D01*
X302571Y316421D01*
X304969Y310633D01*
X304969Y280217D01*
X304982Y280122D01*
X304987Y280026D01*
X305002Y279983D01*
X305009Y279938D01*
X305048Y279851D01*
X305080Y279760D01*
X305105Y279725D01*
X305125Y279681D01*
X305208Y279584D01*
X305261Y279511D01*
X359431Y225341D01*
X359507Y225284D01*
X359579Y225219D01*
X359620Y225199D01*
X359656Y225172D01*
X359746Y225138D01*
X359833Y225096D01*
X359875Y225090D01*
X359920Y225073D01*
X360048Y225063D01*
X360137Y225049D01*
X382733Y225049D01*
X388521Y222651D01*
X392951Y218221D01*
X395349Y212433D01*
X395349Y206167D01*
X392951Y200379D01*
X388521Y195949D01*
X382733Y193551D01*
X350067Y193551D01*
X344279Y195949D01*
X275869Y264359D01*
X273471Y270147D01*
X273471Y296452D01*
X273467Y296484D01*
X273469Y296516D01*
X273447Y296623D01*
X273431Y296732D01*
X273418Y296761D01*
X273412Y296792D01*
X273360Y296889D01*
X273315Y296988D01*
X273294Y297013D01*
X273279Y297041D01*
X273203Y297120D01*
X273132Y297203D01*
X273105Y297220D01*
X273082Y297244D01*
X272987Y297297D01*
X272896Y297357D01*
X272865Y297367D01*
X272837Y297383D01*
X272731Y297408D01*
X272626Y297440D01*
X272594Y297440D01*
X272563Y297447D01*
X272453Y297442D01*
X272344Y297443D01*
X272313Y297435D01*
X272281Y297433D01*
X272178Y297397D01*
X272072Y297368D01*
X272045Y297351D01*
X272014Y297341D01*
X271941Y297287D01*
X271832Y297220D01*
X271800Y297184D01*
X271765Y297159D01*
X270043Y295436D01*
X251517Y295436D01*
X249731Y297222D01*
X249731Y317778D01*
X251517Y319564D01*
X252452Y319564D01*
X252516Y319573D01*
X252580Y319572D01*
X252655Y319593D01*
X252731Y319604D01*
X252790Y319630D01*
X252852Y319647D01*
X252918Y319688D01*
X252988Y319720D01*
X253037Y319762D01*
X253092Y319795D01*
X253144Y319853D01*
X253202Y319903D01*
X253238Y319957D01*
X253281Y320005D01*
X253314Y320074D01*
X253357Y320139D01*
X253376Y320201D01*
X253404Y320258D01*
X253415Y320328D01*
X253439Y320409D01*
X253440Y320494D01*
X253451Y320563D01*
X253451Y322652D01*
X254042Y324078D01*
X254071Y324192D01*
X254106Y324306D01*
X254106Y324329D01*
X254112Y324351D01*
X254108Y324469D01*
X254110Y324588D01*
X254104Y324610D01*
X254103Y324633D01*
X254066Y324745D01*
X254035Y324860D01*
X254023Y324879D01*
X254016Y324901D01*
X253949Y324999D01*
X253886Y325100D01*
X253870Y325115D01*
X253857Y325134D01*
X253765Y325209D01*
X253677Y325289D01*
X253657Y325299D01*
X253639Y325313D01*
X253530Y325360D01*
X253423Y325412D01*
X253402Y325415D01*
X253380Y325425D01*
X253195Y325447D01*
X253119Y325459D01*
X241999Y325459D01*
X241999Y334001D01*
X256041Y334001D01*
X256041Y328857D01*
X256045Y328825D01*
X256043Y328793D01*
X256065Y328686D01*
X256081Y328578D01*
X256094Y328548D01*
X256100Y328517D01*
X256152Y328420D01*
X256197Y328321D01*
X256218Y328296D01*
X256233Y328268D01*
X256309Y328189D01*
X256380Y328106D01*
X256407Y328089D01*
X256430Y328066D01*
X256525Y328012D01*
X256616Y327952D01*
X256647Y327942D01*
X256675Y327927D01*
X256781Y327901D01*
X256886Y327869D01*
X256918Y327869D01*
X256949Y327862D01*
X257059Y327867D01*
X257168Y327866D01*
X257199Y327874D01*
X257231Y327876D01*
X257334Y327912D01*
X257440Y327941D01*
X257467Y327958D01*
X257498Y327968D01*
X257571Y328022D01*
X257680Y328089D01*
X257712Y328125D01*
X257747Y328150D01*
X259519Y329922D01*
X259576Y329999D01*
X259641Y330070D01*
X259661Y330111D01*
X259688Y330148D01*
X259722Y330238D01*
X259764Y330324D01*
X259770Y330366D01*
X259787Y330412D01*
X259797Y330539D01*
X259811Y330629D01*
X259811Y356713D01*
X259802Y356777D01*
X259803Y356836D01*
X259795Y356866D01*
X259793Y356905D01*
X259778Y356948D01*
X259771Y356993D01*
X259741Y357059D01*
X259728Y357108D01*
X259715Y357129D01*
X259700Y357171D01*
X259675Y357205D01*
X259655Y357249D01*
X259622Y357288D01*
X259618Y357304D01*
X259577Y357370D01*
X259545Y357440D01*
X259503Y357489D01*
X259470Y357544D01*
X259412Y357596D01*
X259362Y357654D01*
X259308Y357690D01*
X259260Y357733D01*
X259191Y357766D01*
X259126Y357809D01*
X259064Y357828D01*
X259007Y357856D01*
X258937Y357867D01*
X258856Y357891D01*
X258771Y357892D01*
X258702Y357903D01*
X257548Y357903D01*
X257484Y357894D01*
X257420Y357895D01*
X257345Y357874D01*
X257269Y357863D01*
X257210Y357837D01*
X257148Y357820D01*
X257082Y357779D01*
X257012Y357747D01*
X256963Y357705D01*
X256908Y357672D01*
X256856Y357614D01*
X256798Y357564D01*
X256762Y357510D01*
X256719Y357462D01*
X256686Y357393D01*
X256643Y357328D01*
X256624Y357266D01*
X256596Y357209D01*
X256585Y357139D01*
X256561Y357058D01*
X256560Y356973D01*
X256549Y356904D01*
X256549Y354737D01*
X254763Y352951D01*
X225237Y352951D01*
X223451Y354737D01*
X223451Y373263D01*
X225237Y375049D01*
X225872Y375049D01*
X225936Y375058D01*
X226000Y375057D01*
X226075Y375078D01*
X226151Y375089D01*
X226210Y375115D01*
X226272Y375132D01*
X226338Y375173D01*
X226408Y375205D01*
X226457Y375247D01*
X226512Y375280D01*
X226564Y375338D01*
X226622Y375388D01*
X226658Y375442D01*
X226701Y375490D01*
X226734Y375559D01*
X226777Y375624D01*
X226796Y375686D01*
X226824Y375743D01*
X226835Y375813D01*
X226859Y375894D01*
X226860Y375979D01*
X226871Y376048D01*
X226871Y395187D01*
X226867Y395219D01*
X226869Y395251D01*
X226847Y395358D01*
X226831Y395466D01*
X226818Y395495D01*
X226812Y395527D01*
X226760Y395624D01*
X226715Y395723D01*
X226694Y395747D01*
X226679Y395776D01*
X226603Y395854D01*
X226532Y395937D01*
X226505Y395955D01*
X226482Y395978D01*
X226387Y396032D01*
X226296Y396092D01*
X226265Y396101D01*
X226237Y396117D01*
X226130Y396142D01*
X226026Y396174D01*
X225994Y396175D01*
X225963Y396182D01*
X225853Y396176D01*
X225744Y396178D01*
X225713Y396169D01*
X225681Y396168D01*
X225578Y396132D01*
X225472Y396103D01*
X225445Y396086D01*
X225414Y396075D01*
X225341Y396022D01*
X225232Y395954D01*
X225200Y395918D01*
X225165Y395893D01*
X213041Y383769D01*
X212984Y383693D01*
X212919Y383621D01*
X212899Y383580D01*
X212872Y383544D01*
X212838Y383454D01*
X212796Y383367D01*
X212790Y383325D01*
X212773Y383280D01*
X212763Y383152D01*
X212749Y383063D01*
X212749Y303867D01*
X210351Y298079D01*
X205781Y293508D01*
X205780Y293508D01*
X163541Y251269D01*
X163484Y251193D01*
X163419Y251121D01*
X163399Y251080D01*
X163372Y251044D01*
X163338Y250954D01*
X163296Y250867D01*
X163290Y250825D01*
X163273Y250780D01*
X163263Y250652D01*
X163249Y250563D01*
X163249Y101867D01*
X160851Y96079D01*
X156281Y91508D01*
X156280Y91508D01*
X108921Y44149D01*
X103133Y41751D01*
X96867Y41751D01*
X91079Y44149D01*
X86649Y48579D01*
X84251Y54367D01*
X84251Y60633D01*
X86649Y66421D01*
X131459Y111231D01*
X131516Y111307D01*
X131581Y111379D01*
X131601Y111420D01*
X131628Y111456D01*
X131662Y111546D01*
X131704Y111633D01*
X131710Y111675D01*
X131727Y111720D01*
X131737Y111848D01*
X131751Y111937D01*
X131751Y260633D01*
X134149Y266421D01*
X180959Y313231D01*
X181016Y313307D01*
X181081Y313379D01*
X181101Y313420D01*
X181128Y313456D01*
X181162Y313546D01*
X181204Y313633D01*
X181210Y313675D01*
X181227Y313720D01*
X181237Y313848D01*
X181251Y313937D01*
X181251Y393133D01*
X183649Y398921D01*
X195959Y411231D01*
X196016Y411307D01*
X196081Y411379D01*
X196101Y411420D01*
X196128Y411456D01*
X196162Y411546D01*
X196204Y411633D01*
X196210Y411675D01*
X196227Y411720D01*
X196237Y411848D01*
X196251Y411937D01*
X196251Y433133D01*
X198649Y438921D01*
X199759Y440031D01*
X199816Y440107D01*
X199881Y440179D01*
X199901Y440220D01*
X199928Y440256D01*
X199962Y440346D01*
X200004Y440433D01*
X200010Y440475D01*
X200027Y440520D01*
X200037Y440648D01*
X200051Y440737D01*
X200051Y449063D01*
X201837Y450849D01*
X222163Y450849D01*
X223949Y449063D01*
X223949Y440737D01*
X223962Y440642D01*
X223967Y440546D01*
X223982Y440503D01*
X223989Y440458D01*
X224028Y440371D01*
X224060Y440280D01*
X224085Y440245D01*
X224105Y440201D01*
X224188Y440104D01*
X224241Y440031D01*
X225165Y439107D01*
X225191Y439087D01*
X225212Y439063D01*
X225304Y439003D01*
X225391Y438937D01*
X225421Y438926D01*
X225448Y438908D01*
X225553Y438876D01*
X225655Y438838D01*
X225687Y438835D01*
X225718Y438826D01*
X225827Y438824D01*
X225936Y438816D01*
X225968Y438823D01*
X226000Y438822D01*
X226105Y438851D01*
X226212Y438874D01*
X226241Y438889D01*
X226272Y438897D01*
X226365Y438955D01*
X226461Y439006D01*
X226484Y439029D01*
X226512Y439046D01*
X226585Y439126D01*
X226663Y439203D01*
X226679Y439231D01*
X226701Y439255D01*
X226748Y439353D01*
X226802Y439448D01*
X226810Y439480D01*
X226824Y439509D01*
X226838Y439598D01*
X226867Y439723D01*
X226865Y439771D01*
X226871Y439813D01*
X226871Y463252D01*
X226862Y463316D01*
X226863Y463380D01*
X226842Y463455D01*
X226831Y463531D01*
X226805Y463590D01*
X226788Y463652D01*
X226747Y463718D01*
X226715Y463788D01*
X226673Y463837D01*
X226640Y463892D01*
X226582Y463944D01*
X226532Y464002D01*
X226478Y464038D01*
X226430Y464081D01*
X226361Y464114D01*
X226296Y464157D01*
X226234Y464176D01*
X226177Y464204D01*
X226107Y464215D01*
X226026Y464239D01*
X225941Y464240D01*
X225872Y464251D01*
X90048Y464251D01*
X89984Y464242D01*
X89920Y464243D01*
X89845Y464222D01*
X89769Y464211D01*
X89710Y464185D01*
X89648Y464168D01*
X89582Y464127D01*
X89512Y464095D01*
X89463Y464053D01*
X89408Y464020D01*
X89356Y463962D01*
X89298Y463912D01*
X89262Y463858D01*
X89219Y463810D01*
X89186Y463741D01*
X89143Y463676D01*
X89124Y463614D01*
X89096Y463557D01*
X89085Y463487D01*
X89061Y463406D01*
X89060Y463321D01*
X89049Y463252D01*
X89049Y458737D01*
X87263Y456951D01*
X67737Y456951D01*
X65951Y458737D01*
X65951Y463252D01*
X65942Y463316D01*
X65943Y463380D01*
X65922Y463455D01*
X65911Y463531D01*
X65885Y463590D01*
X65868Y463652D01*
X65827Y463718D01*
X65795Y463788D01*
X65753Y463837D01*
X65720Y463892D01*
X65662Y463944D01*
X65612Y464002D01*
X65558Y464038D01*
X65510Y464081D01*
X65441Y464114D01*
X65376Y464157D01*
X65314Y464176D01*
X65257Y464204D01*
X65187Y464215D01*
X65106Y464239D01*
X65021Y464240D01*
X64952Y464251D01*
X48155Y464251D01*
X48061Y464238D01*
X47964Y464233D01*
X47921Y464218D01*
X47876Y464211D01*
X47789Y464172D01*
X47698Y464140D01*
X47663Y464115D01*
X47619Y464095D01*
X47522Y464012D01*
X47449Y463959D01*
X43545Y460055D01*
X43488Y459978D01*
X43423Y459907D01*
X43403Y459866D01*
X43376Y459830D01*
X43342Y459739D01*
X43300Y459653D01*
X43294Y459611D01*
X43277Y459566D01*
X43267Y459438D01*
X43253Y459349D01*
X43253Y451200D01*
X43262Y451137D01*
X43261Y451072D01*
X43282Y450998D01*
X43293Y450921D01*
X43319Y450863D01*
X43336Y450801D01*
X43377Y450735D01*
X43394Y450697D01*
X43390Y450689D01*
X43347Y450624D01*
X43328Y450562D01*
X43300Y450504D01*
X43289Y450435D01*
X43265Y450354D01*
X43264Y450269D01*
X43253Y450200D01*
X43253Y444088D01*
X43262Y444024D01*
X43261Y443960D01*
X43282Y443885D01*
X43293Y443809D01*
X43319Y443750D01*
X43336Y443688D01*
X43377Y443622D01*
X43409Y443552D01*
X43450Y443503D01*
X43484Y443448D01*
X43542Y443396D01*
X43592Y443338D01*
X43646Y443302D01*
X43653Y443296D01*
X43653Y435000D01*
X43662Y434937D01*
X43661Y434872D01*
X43682Y434798D01*
X43693Y434721D01*
X43719Y434663D01*
X43736Y434601D01*
X43777Y434535D01*
X43794Y434497D01*
X43790Y434489D01*
X43747Y434424D01*
X43728Y434362D01*
X43700Y434304D01*
X43689Y434235D01*
X43665Y434154D01*
X43664Y434069D01*
X43653Y434000D01*
X43653Y426041D01*
X42647Y426241D01*
X41084Y426889D01*
X39677Y427829D01*
X38481Y429025D01*
X37500Y430493D01*
X37491Y430512D01*
X37456Y430553D01*
X37428Y430600D01*
X37365Y430660D01*
X37308Y430726D01*
X37262Y430756D01*
X37223Y430793D01*
X37145Y430833D01*
X37072Y430881D01*
X37020Y430897D01*
X36972Y430921D01*
X36886Y430938D01*
X36802Y430963D01*
X36748Y430964D01*
X36694Y430974D01*
X36608Y430966D01*
X36520Y430967D01*
X36468Y430953D01*
X36414Y430947D01*
X36333Y430915D01*
X36248Y430892D01*
X36202Y430863D01*
X36152Y430843D01*
X36083Y430790D01*
X36008Y430744D01*
X35972Y430703D01*
X35929Y430670D01*
X35878Y430599D01*
X35819Y430534D01*
X35796Y430485D01*
X35764Y430441D01*
X35734Y430359D01*
X35696Y430281D01*
X35689Y430231D01*
X35669Y430176D01*
X35662Y430061D01*
X35649Y429976D01*
X35649Y377588D01*
X35658Y377524D01*
X35657Y377460D01*
X35678Y377385D01*
X35689Y377309D01*
X35715Y377250D01*
X35732Y377188D01*
X35773Y377122D01*
X35805Y377052D01*
X35847Y377003D01*
X35880Y376948D01*
X35938Y376896D01*
X35988Y376838D01*
X36042Y376802D01*
X36090Y376759D01*
X36159Y376726D01*
X36224Y376683D01*
X36286Y376664D01*
X36343Y376636D01*
X36413Y376625D01*
X36494Y376601D01*
X36579Y376600D01*
X36648Y376589D01*
X37452Y376589D01*
X37516Y376598D01*
X37580Y376597D01*
X37655Y376618D01*
X37731Y376629D01*
X37790Y376655D01*
X37852Y376672D01*
X37918Y376713D01*
X37988Y376745D01*
X38037Y376787D01*
X38092Y376820D01*
X38144Y376878D01*
X38202Y376928D01*
X38238Y376982D01*
X38281Y377030D01*
X38314Y377099D01*
X38357Y377164D01*
X38376Y377226D01*
X38404Y377283D01*
X38415Y377353D01*
X38439Y377434D01*
X38440Y377519D01*
X38451Y377588D01*
X38451Y380263D01*
X40237Y382049D01*
X69763Y382049D01*
X71549Y380263D01*
X71549Y377588D01*
X71558Y377524D01*
X71557Y377460D01*
X71578Y377385D01*
X71589Y377309D01*
X71615Y377250D01*
X71632Y377188D01*
X71673Y377122D01*
X71705Y377052D01*
X71747Y377003D01*
X71780Y376948D01*
X71838Y376896D01*
X71888Y376838D01*
X71942Y376802D01*
X71990Y376759D01*
X72059Y376726D01*
X72124Y376683D01*
X72186Y376664D01*
X72243Y376636D01*
X72313Y376625D01*
X72394Y376601D01*
X72479Y376600D01*
X72548Y376589D01*
X73912Y376589D01*
X73976Y376598D01*
X74040Y376597D01*
X74115Y376618D01*
X74191Y376629D01*
X74250Y376655D01*
X74312Y376672D01*
X74378Y376713D01*
X74448Y376745D01*
X74497Y376787D01*
X74552Y376820D01*
X74604Y376878D01*
X74662Y376928D01*
X74698Y376982D01*
X74741Y377030D01*
X74774Y377099D01*
X74817Y377164D01*
X74836Y377226D01*
X74864Y377283D01*
X74875Y377353D01*
X74899Y377434D01*
X74900Y377519D01*
X74911Y377588D01*
X74911Y379112D01*
X75762Y381166D01*
X78662Y384065D01*
X79342Y384745D01*
X79361Y384771D01*
X79386Y384792D01*
X79446Y384884D01*
X79511Y384971D01*
X79522Y385001D01*
X79540Y385028D01*
X79572Y385133D01*
X79611Y385235D01*
X79613Y385267D01*
X79623Y385298D01*
X79624Y385407D01*
X79632Y385516D01*
X79626Y385548D01*
X79626Y385580D01*
X79597Y385685D01*
X79575Y385792D01*
X79560Y385821D01*
X79551Y385852D01*
X79494Y385945D01*
X79442Y386041D01*
X79420Y386064D01*
X79403Y386092D01*
X79322Y386165D01*
X79246Y386243D01*
X79218Y386259D01*
X79194Y386281D01*
X79095Y386328D01*
X79000Y386382D01*
X78969Y386390D01*
X78940Y386404D01*
X78850Y386418D01*
X78726Y386447D01*
X78677Y386445D01*
X78635Y386451D01*
X76487Y386451D01*
X74701Y388237D01*
X74701Y402785D01*
X74741Y402828D01*
X74761Y402869D01*
X74788Y402906D01*
X74822Y402996D01*
X74864Y403082D01*
X74870Y403124D01*
X74887Y403170D01*
X74897Y403297D01*
X74911Y403387D01*
X74911Y410952D01*
X74902Y411016D01*
X74903Y411080D01*
X74882Y411155D01*
X74871Y411231D01*
X74845Y411290D01*
X74828Y411352D01*
X74787Y411418D01*
X74755Y411488D01*
X74713Y411537D01*
X74680Y411592D01*
X74622Y411644D01*
X74572Y411702D01*
X74518Y411738D01*
X74470Y411781D01*
X74401Y411814D01*
X74336Y411857D01*
X74274Y411876D01*
X74217Y411904D01*
X74147Y411915D01*
X74066Y411939D01*
X73981Y411940D01*
X73912Y411951D01*
X67737Y411951D01*
X65951Y413737D01*
X65951Y446263D01*
X67737Y448049D01*
X87263Y448049D01*
X89049Y446263D01*
X89049Y440398D01*
X89058Y440334D01*
X89057Y440270D01*
X89078Y440195D01*
X89089Y440119D01*
X89115Y440060D01*
X89132Y439998D01*
X89173Y439932D01*
X89205Y439862D01*
X89247Y439813D01*
X89280Y439758D01*
X89338Y439706D01*
X89388Y439648D01*
X89442Y439612D01*
X89490Y439569D01*
X89559Y439536D01*
X89624Y439493D01*
X89686Y439474D01*
X89743Y439446D01*
X89813Y439435D01*
X89894Y439411D01*
X89979Y439410D01*
X90048Y439399D01*
X105052Y439399D01*
X105116Y439408D01*
X105180Y439407D01*
X105255Y439428D01*
X105331Y439439D01*
X105390Y439465D01*
X105452Y439482D01*
X105518Y439523D01*
X105588Y439555D01*
X105637Y439597D01*
X105692Y439630D01*
X105744Y439688D01*
X105802Y439738D01*
X105838Y439792D01*
X105881Y439840D01*
X105914Y439909D01*
X105957Y439974D01*
X105976Y440036D01*
X106004Y440093D01*
X106015Y440163D01*
X106039Y440244D01*
X106040Y440329D01*
X106051Y440398D01*
X106051Y449063D01*
X107837Y450849D01*
X128163Y450849D01*
X129949Y449063D01*
X129949Y410937D01*
X128163Y409151D01*
X107837Y409151D01*
X106051Y410937D01*
X106051Y419602D01*
X106042Y419666D01*
X106043Y419730D01*
X106022Y419805D01*
X106011Y419881D01*
X105985Y419940D01*
X105968Y420002D01*
X105927Y420068D01*
X105895Y420138D01*
X105853Y420187D01*
X105820Y420242D01*
X105762Y420294D01*
X105712Y420352D01*
X105658Y420388D01*
X105610Y420431D01*
X105541Y420464D01*
X105476Y420507D01*
X105414Y420526D01*
X105357Y420554D01*
X105287Y420565D01*
X105206Y420589D01*
X105121Y420590D01*
X105052Y420601D01*
X90048Y420601D01*
X89984Y420592D01*
X89920Y420593D01*
X89845Y420572D01*
X89769Y420561D01*
X89710Y420535D01*
X89648Y420518D01*
X89582Y420477D01*
X89512Y420445D01*
X89463Y420403D01*
X89408Y420370D01*
X89356Y420312D01*
X89298Y420262D01*
X89262Y420208D01*
X89219Y420160D01*
X89186Y420091D01*
X89143Y420026D01*
X89124Y419964D01*
X89096Y419907D01*
X89085Y419837D01*
X89061Y419756D01*
X89060Y419671D01*
X89049Y419602D01*
X89049Y413737D01*
X87263Y411951D01*
X87088Y411951D01*
X87024Y411942D01*
X86960Y411943D01*
X86885Y411922D01*
X86809Y411911D01*
X86750Y411885D01*
X86688Y411868D01*
X86622Y411827D01*
X86552Y411795D01*
X86503Y411753D01*
X86448Y411720D01*
X86396Y411662D01*
X86338Y411612D01*
X86302Y411558D01*
X86259Y411510D01*
X86226Y411441D01*
X86183Y411376D01*
X86164Y411314D01*
X86136Y411257D01*
X86125Y411187D01*
X86101Y411106D01*
X86100Y411021D01*
X86089Y410952D01*
X86089Y405040D01*
X86098Y404976D01*
X86097Y404912D01*
X86118Y404837D01*
X86129Y404761D01*
X86155Y404702D01*
X86172Y404640D01*
X86213Y404574D01*
X86245Y404504D01*
X86287Y404455D01*
X86320Y404400D01*
X86378Y404348D01*
X86428Y404290D01*
X86482Y404254D01*
X86530Y404211D01*
X86599Y404178D01*
X86664Y404135D01*
X86726Y404116D01*
X86783Y404088D01*
X86853Y404077D01*
X86934Y404053D01*
X87019Y404052D01*
X87088Y404041D01*
X88626Y404041D01*
X88626Y395875D01*
X88635Y395812D01*
X88634Y395747D01*
X88655Y395673D01*
X88666Y395596D01*
X88692Y395538D01*
X88709Y395476D01*
X88750Y395410D01*
X88782Y395339D01*
X88823Y395290D01*
X88857Y395236D01*
X88915Y395184D01*
X88965Y395125D01*
X89019Y395090D01*
X89067Y395047D01*
X89136Y395013D01*
X89201Y394970D01*
X89263Y394952D01*
X89320Y394924D01*
X89390Y394913D01*
X89471Y394888D01*
X89556Y394887D01*
X89625Y394876D01*
X90375Y394876D01*
X90439Y394885D01*
X90503Y394884D01*
X90578Y394905D01*
X90654Y394916D01*
X90713Y394942D01*
X90775Y394959D01*
X90841Y395000D01*
X90911Y395032D01*
X90960Y395074D01*
X91015Y395108D01*
X91067Y395165D01*
X91125Y395215D01*
X91161Y395269D01*
X91204Y395317D01*
X91237Y395386D01*
X91280Y395451D01*
X91299Y395513D01*
X91327Y395571D01*
X91338Y395640D01*
X91362Y395721D01*
X91363Y395806D01*
X91374Y395875D01*
X91374Y404041D01*
X93085Y404041D01*
X93731Y403868D01*
X93748Y403857D01*
X93818Y403829D01*
X93883Y403793D01*
X93948Y403777D01*
X94010Y403752D01*
X94084Y403745D01*
X94157Y403728D01*
X94224Y403731D01*
X94291Y403724D01*
X94364Y403738D01*
X94439Y403742D01*
X94502Y403764D01*
X94568Y403776D01*
X94635Y403810D01*
X94706Y403834D01*
X94755Y403871D01*
X94820Y403903D01*
X94891Y403970D01*
X94955Y404016D01*
X95487Y404549D01*
X103513Y404549D01*
X105299Y402763D01*
X105299Y402088D01*
X105308Y402024D01*
X105307Y401960D01*
X105328Y401885D01*
X105339Y401809D01*
X105365Y401750D01*
X105382Y401688D01*
X105423Y401622D01*
X105455Y401552D01*
X105497Y401503D01*
X105530Y401448D01*
X105588Y401396D01*
X105638Y401338D01*
X105692Y401302D01*
X105740Y401259D01*
X105809Y401226D01*
X105874Y401183D01*
X105936Y401164D01*
X105993Y401136D01*
X106063Y401125D01*
X106144Y401101D01*
X106229Y401100D01*
X106298Y401089D01*
X125612Y401089D01*
X127666Y400238D01*
X134738Y393166D01*
X135589Y391112D01*
X135589Y370048D01*
X135598Y369984D01*
X135597Y369920D01*
X135618Y369845D01*
X135629Y369769D01*
X135655Y369710D01*
X135672Y369648D01*
X135713Y369582D01*
X135745Y369512D01*
X135787Y369463D01*
X135820Y369408D01*
X135878Y369356D01*
X135928Y369298D01*
X135982Y369262D01*
X136030Y369219D01*
X136099Y369186D01*
X136164Y369143D01*
X136226Y369124D01*
X136283Y369096D01*
X136353Y369085D01*
X136434Y369061D01*
X136519Y369060D01*
X136588Y369049D01*
X138763Y369049D01*
X140543Y367268D01*
X140595Y367230D01*
X140640Y367184D01*
X140707Y367145D01*
X140769Y367099D01*
X140829Y367076D01*
X140885Y367044D01*
X140960Y367027D01*
X141033Y366999D01*
X141097Y366994D01*
X141159Y366980D01*
X141237Y366983D01*
X141314Y366978D01*
X141377Y366991D01*
X141441Y366994D01*
X141514Y367019D01*
X141590Y367035D01*
X141647Y367065D01*
X141708Y367086D01*
X141764Y367128D01*
X141839Y367168D01*
X141900Y367227D01*
X141957Y367268D01*
X143737Y369049D01*
X161263Y369049D01*
X163049Y367263D01*
X163049Y353737D01*
X161263Y351951D01*
X143737Y351951D01*
X141957Y353732D01*
X141905Y353770D01*
X141860Y353816D01*
X141793Y353855D01*
X141731Y353901D01*
X141671Y353924D01*
X141615Y353956D01*
X141540Y353973D01*
X141467Y354001D01*
X141403Y354006D01*
X141340Y354020D01*
X141263Y354017D01*
X141186Y354022D01*
X141123Y354009D01*
X141059Y354006D01*
X140986Y353981D01*
X140910Y353965D01*
X140853Y353935D01*
X140792Y353914D01*
X140736Y353872D01*
X140661Y353832D01*
X140600Y353773D01*
X140543Y353732D01*
X138763Y351951D01*
X127865Y351951D01*
X127833Y351947D01*
X127801Y351949D01*
X127694Y351927D01*
X127586Y351911D01*
X127556Y351898D01*
X127525Y351892D01*
X127428Y351840D01*
X127329Y351795D01*
X127304Y351774D01*
X127276Y351759D01*
X127197Y351683D01*
X127114Y351612D01*
X127097Y351585D01*
X127074Y351562D01*
X127020Y351467D01*
X126960Y351376D01*
X126950Y351345D01*
X126935Y351317D01*
X126909Y351210D01*
X126877Y351106D01*
X126877Y351074D01*
X126870Y351043D01*
X126875Y350933D01*
X126874Y350824D01*
X126882Y350793D01*
X126884Y350761D01*
X126920Y350658D01*
X126949Y350552D01*
X126966Y350525D01*
X126976Y350494D01*
X127030Y350421D01*
X127097Y350312D01*
X127133Y350280D01*
X127158Y350245D01*
X129062Y348341D01*
X129139Y348284D01*
X129210Y348219D01*
X129251Y348199D01*
X129288Y348172D01*
X129378Y348138D01*
X129464Y348096D01*
X129506Y348090D01*
X129552Y348073D01*
X129679Y348063D01*
X129769Y348049D01*
X138763Y348049D01*
X140549Y346263D01*
X140549Y345794D01*
X140550Y345784D01*
X140549Y345773D01*
X140570Y345644D01*
X140589Y345515D01*
X140593Y345505D01*
X140595Y345495D01*
X140651Y345377D01*
X140705Y345258D01*
X140712Y345250D01*
X140716Y345240D01*
X140803Y345143D01*
X140888Y345044D01*
X140897Y345038D01*
X140904Y345030D01*
X141015Y344961D01*
X141124Y344889D01*
X141134Y344886D01*
X141144Y344880D01*
X141270Y344845D01*
X141394Y344807D01*
X141405Y344807D01*
X141415Y344804D01*
X141546Y344805D01*
X141676Y344803D01*
X141686Y344806D01*
X141697Y344806D01*
X141822Y344844D01*
X141948Y344878D01*
X141957Y344884D01*
X141967Y344887D01*
X142077Y344958D01*
X142188Y345027D01*
X142195Y345035D01*
X142204Y345040D01*
X142290Y345140D01*
X142377Y345236D01*
X142381Y345246D01*
X142388Y345254D01*
X142421Y345328D01*
X142500Y345490D01*
X142503Y345514D01*
X142513Y345536D01*
X142632Y345981D01*
X142967Y346560D01*
X143440Y347033D01*
X144019Y347368D01*
X144665Y347541D01*
X150501Y347541D01*
X150501Y340500D01*
X150510Y340436D01*
X150509Y340372D01*
X150530Y340298D01*
X150541Y340221D01*
X150567Y340162D01*
X150584Y340100D01*
X150625Y340034D01*
X150657Y339964D01*
X150699Y339915D01*
X150732Y339860D01*
X150790Y339809D01*
X150840Y339750D01*
X150894Y339714D01*
X150942Y339671D01*
X151011Y339638D01*
X151076Y339595D01*
X151138Y339576D01*
X151195Y339548D01*
X151265Y339538D01*
X151346Y339513D01*
X151431Y339512D01*
X151500Y339501D01*
X152501Y339501D01*
X152501Y339499D01*
X151500Y339499D01*
X151436Y339490D01*
X151372Y339491D01*
X151297Y339470D01*
X151221Y339459D01*
X151162Y339433D01*
X151100Y339416D01*
X151034Y339375D01*
X150964Y339343D01*
X150915Y339301D01*
X150860Y339268D01*
X150808Y339210D01*
X150750Y339160D01*
X150714Y339106D01*
X150671Y339058D01*
X150638Y338989D01*
X150595Y338924D01*
X150576Y338862D01*
X150548Y338804D01*
X150538Y338735D01*
X150513Y338654D01*
X150512Y338569D01*
X150501Y338500D01*
X150501Y331459D01*
X144665Y331459D01*
X144019Y331632D01*
X143440Y331967D01*
X142967Y332440D01*
X142632Y333019D01*
X142513Y333464D01*
X142509Y333474D01*
X142507Y333485D01*
X142454Y333603D01*
X142402Y333724D01*
X142396Y333732D01*
X142391Y333742D01*
X142307Y333841D01*
X142224Y333942D01*
X142215Y333948D01*
X142208Y333956D01*
X142099Y334028D01*
X141991Y334101D01*
X141981Y334105D01*
X141972Y334111D01*
X141847Y334149D01*
X141723Y334189D01*
X141712Y334190D01*
X141702Y334193D01*
X141571Y334195D01*
X141441Y334199D01*
X141431Y334197D01*
X141420Y334197D01*
X141294Y334162D01*
X141168Y334130D01*
X141159Y334124D01*
X141148Y334122D01*
X141037Y334053D01*
X140925Y333987D01*
X140918Y333979D01*
X140908Y333973D01*
X140821Y333876D01*
X140731Y333782D01*
X140727Y333772D01*
X140719Y333764D01*
X140663Y333647D01*
X140603Y333531D01*
X140601Y333520D01*
X140596Y333510D01*
X140584Y333431D01*
X140550Y333254D01*
X140552Y333230D01*
X140549Y333206D01*
X140549Y332737D01*
X138763Y330951D01*
X121237Y330951D01*
X119451Y332737D01*
X119451Y341731D01*
X119442Y341794D01*
X119443Y341847D01*
X119435Y341876D01*
X119433Y341922D01*
X119418Y341965D01*
X119411Y342010D01*
X119377Y342087D01*
X119368Y342119D01*
X119360Y342132D01*
X119340Y342189D01*
X119315Y342223D01*
X119295Y342267D01*
X119228Y342346D01*
X119220Y342359D01*
X119209Y342369D01*
X119159Y342438D01*
X115755Y345842D01*
X115729Y345861D01*
X115708Y345886D01*
X115616Y345946D01*
X115529Y346011D01*
X115499Y346022D01*
X115472Y346040D01*
X115367Y346072D01*
X115265Y346111D01*
X115233Y346113D01*
X115202Y346123D01*
X115093Y346124D01*
X114984Y346132D01*
X114952Y346126D01*
X114920Y346126D01*
X114815Y346097D01*
X114708Y346075D01*
X114679Y346060D01*
X114648Y346051D01*
X114555Y345994D01*
X114459Y345942D01*
X114436Y345920D01*
X114408Y345903D01*
X114335Y345822D01*
X114257Y345746D01*
X114241Y345718D01*
X114219Y345694D01*
X114172Y345595D01*
X114118Y345500D01*
X114110Y345469D01*
X114096Y345440D01*
X114082Y345351D01*
X114053Y345226D01*
X114055Y345177D01*
X114049Y345135D01*
X114049Y322667D01*
X111651Y316879D01*
X93921Y299149D01*
X88133Y296751D01*
X51087Y296751D01*
X45299Y299149D01*
X40869Y303579D01*
X38751Y308692D01*
X38707Y308766D01*
X38671Y308845D01*
X38636Y308887D01*
X38608Y308934D01*
X38544Y308994D01*
X38488Y309060D01*
X38442Y309090D01*
X38402Y309127D01*
X38325Y309167D01*
X38252Y309214D01*
X38199Y309230D01*
X38150Y309255D01*
X38065Y309271D01*
X37982Y309297D01*
X37927Y309297D01*
X37873Y309307D01*
X37787Y309299D01*
X37700Y309300D01*
X37647Y309286D01*
X37593Y309280D01*
X37512Y309248D01*
X37428Y309225D01*
X37381Y309196D01*
X37331Y309176D01*
X37262Y309123D01*
X37188Y309077D01*
X37151Y309036D01*
X37108Y309002D01*
X37058Y308932D01*
X36999Y308868D01*
X36975Y308818D01*
X36943Y308774D01*
X36914Y308692D01*
X36876Y308614D01*
X36868Y308563D01*
X36849Y308508D01*
X36842Y308394D01*
X36829Y308309D01*
X36829Y302222D01*
X35043Y300436D01*
X16517Y300436D01*
X14731Y302222D01*
X14731Y321968D01*
X14730Y321978D01*
X14731Y321987D01*
X14710Y322117D01*
X14691Y322248D01*
X14688Y322256D01*
X14686Y322266D01*
X14629Y322385D01*
X14575Y322505D01*
X14569Y322512D01*
X14565Y322520D01*
X14477Y322619D01*
X14392Y322719D01*
X14384Y322724D01*
X14378Y322731D01*
X14312Y322771D01*
X14156Y322873D01*
X14133Y322880D01*
X14114Y322892D01*
X11079Y324149D01*
X6649Y328579D01*
X4971Y332629D01*
X4927Y332704D01*
X4891Y332783D01*
X4856Y332825D01*
X4828Y332872D01*
X4764Y332931D01*
X4708Y332997D01*
X4662Y333028D01*
X4622Y333065D01*
X4545Y333104D01*
X4472Y333152D01*
X4419Y333168D01*
X4370Y333193D01*
X4285Y333209D01*
X4202Y333234D01*
X4147Y333235D01*
X4093Y333245D01*
X4007Y333237D01*
X3920Y333238D01*
X3867Y333223D01*
X3813Y333218D01*
X3732Y333186D01*
X3648Y333163D01*
X3601Y333134D01*
X3551Y333114D01*
X3482Y333060D01*
X3408Y333015D01*
X3371Y332974D01*
X3328Y332940D01*
X3278Y332870D01*
X3219Y332805D01*
X3195Y332756D01*
X3163Y332711D01*
X3134Y332630D01*
X3096Y332552D01*
X3088Y332501D01*
X3069Y332446D01*
X3062Y332332D01*
X3049Y332247D01*
X3049Y30000D01*
X3055Y29958D01*
X3052Y29922D01*
X3371Y25862D01*
X3375Y25844D01*
X3375Y25829D01*
X3394Y25761D01*
X3403Y25722D01*
X3417Y25631D01*
X5926Y17909D01*
X5927Y17907D01*
X5928Y17905D01*
X5944Y17874D01*
X6050Y17656D01*
X6061Y17644D01*
X6068Y17631D01*
X10841Y11062D01*
X10842Y11060D01*
X10843Y11058D01*
X10868Y11034D01*
X11037Y10859D01*
X11051Y10851D01*
X11062Y10841D01*
X17631Y6068D01*
X17633Y6067D01*
X17634Y6066D01*
X17666Y6050D01*
X17880Y5936D01*
X17896Y5933D01*
X17909Y5926D01*
X25631Y3417D01*
X25773Y3393D01*
X25862Y3371D01*
X29922Y3052D01*
X29963Y3054D01*
X30000Y3049D01*
X171925Y3049D01*
X180330Y797D01*
X187866Y-3555D01*
X189757Y-5445D01*
X191839Y-7527D01*
X192128Y-7817D01*
X273369Y-89057D01*
X273397Y-89078D01*
X273417Y-89102D01*
X275969Y-91340D01*
X276062Y-91401D01*
X276128Y-91454D01*
X281995Y-94842D01*
X282139Y-94900D01*
X282151Y-94905D01*
X282154Y-94906D01*
X282163Y-94909D01*
X282236Y-94942D01*
X288780Y-96695D01*
X288890Y-96708D01*
X288974Y-96727D01*
X292361Y-96949D01*
X292396Y-96946D01*
X292426Y-96951D01*
X467574Y-96951D01*
X467608Y-96946D01*
G37*
%LPC*%
G36*
X424367Y121751D02*
X424367Y121751D01*
X418579Y124149D01*
X414149Y128579D01*
X411751Y134367D01*
X411751Y140633D01*
X414149Y146421D01*
X548959Y281231D01*
X549016Y281307D01*
X549081Y281379D01*
X549101Y281420D01*
X549128Y281456D01*
X549162Y281546D01*
X549204Y281633D01*
X549210Y281675D01*
X549227Y281720D01*
X549237Y281848D01*
X549251Y281937D01*
X549251Y415633D01*
X551649Y421421D01*
X570779Y440551D01*
X576567Y442949D01*
X578552Y442949D01*
X578616Y442958D01*
X578680Y442957D01*
X578755Y442978D01*
X578831Y442989D01*
X578890Y443015D01*
X578952Y443032D01*
X579018Y443073D01*
X579088Y443105D01*
X579137Y443147D01*
X579192Y443180D01*
X579244Y443238D01*
X579302Y443288D01*
X579338Y443342D01*
X579381Y443390D01*
X579414Y443459D01*
X579457Y443524D01*
X579476Y443586D01*
X579504Y443643D01*
X579515Y443713D01*
X579539Y443794D01*
X579540Y443879D01*
X579551Y443948D01*
X579551Y446263D01*
X581337Y448049D01*
X601663Y448049D01*
X603449Y446263D01*
X603449Y437937D01*
X603462Y437842D01*
X603467Y437746D01*
X603482Y437703D01*
X603489Y437658D01*
X603528Y437570D01*
X603560Y437480D01*
X603585Y437445D01*
X603605Y437401D01*
X603688Y437304D01*
X603741Y437231D01*
X604851Y436121D01*
X607249Y430333D01*
X607249Y424067D01*
X604851Y418279D01*
X603741Y417169D01*
X603684Y417092D01*
X603619Y417021D01*
X603599Y416980D01*
X603572Y416944D01*
X603538Y416854D01*
X603496Y416767D01*
X603490Y416725D01*
X603473Y416680D01*
X603463Y416552D01*
X603449Y416463D01*
X603449Y408137D01*
X601663Y406351D01*
X581748Y406351D01*
X581684Y406342D01*
X581620Y406343D01*
X581545Y406322D01*
X581469Y406311D01*
X581410Y406285D01*
X581348Y406268D01*
X581282Y406227D01*
X581212Y406195D01*
X581163Y406153D01*
X581108Y406120D01*
X581056Y406062D01*
X580998Y406012D01*
X580962Y405958D01*
X580919Y405910D01*
X580886Y405841D01*
X580843Y405776D01*
X580824Y405714D01*
X580796Y405657D01*
X580785Y405587D01*
X580761Y405506D01*
X580760Y405421D01*
X580749Y405352D01*
X580749Y271867D01*
X578351Y266079D01*
X436421Y124149D01*
X430633Y121751D01*
X424367Y121751D01*
G37*
%LPD*%
%LPC*%
G36*
X396867Y281751D02*
X396867Y281751D01*
X391079Y284149D01*
X386649Y288579D01*
X384251Y294367D01*
X384251Y313063D01*
X384238Y313158D01*
X384233Y313254D01*
X384218Y313297D01*
X384211Y313342D01*
X384172Y313429D01*
X384140Y313520D01*
X384115Y313555D01*
X384095Y313599D01*
X384012Y313696D01*
X383959Y313769D01*
X351649Y346079D01*
X349251Y351867D01*
X349251Y420633D01*
X351649Y426421D01*
X366079Y440851D01*
X371867Y443249D01*
X384052Y443249D01*
X384116Y443258D01*
X384180Y443257D01*
X384255Y443278D01*
X384331Y443289D01*
X384390Y443315D01*
X384452Y443332D01*
X384518Y443373D01*
X384588Y443405D01*
X384637Y443447D01*
X384692Y443480D01*
X384744Y443538D01*
X384802Y443588D01*
X384838Y443642D01*
X384881Y443690D01*
X384914Y443759D01*
X384957Y443824D01*
X384976Y443886D01*
X385004Y443943D01*
X385015Y444013D01*
X385039Y444094D01*
X385040Y444179D01*
X385051Y444248D01*
X385051Y446563D01*
X386837Y448349D01*
X407163Y448349D01*
X408949Y446563D01*
X408949Y438237D01*
X408962Y438142D01*
X408967Y438046D01*
X408982Y438003D01*
X408989Y437958D01*
X409028Y437870D01*
X409060Y437780D01*
X409085Y437745D01*
X409105Y437701D01*
X409188Y437604D01*
X409241Y437531D01*
X410351Y436421D01*
X412749Y430633D01*
X412749Y424367D01*
X410351Y418579D01*
X409241Y417469D01*
X409184Y417392D01*
X409119Y417321D01*
X409099Y417280D01*
X409072Y417244D01*
X409038Y417154D01*
X408996Y417067D01*
X408990Y417025D01*
X408973Y416980D01*
X408963Y416852D01*
X408949Y416763D01*
X408949Y408437D01*
X407163Y406651D01*
X386837Y406651D01*
X385051Y408437D01*
X385051Y410752D01*
X385042Y410816D01*
X385043Y410880D01*
X385022Y410955D01*
X385011Y411031D01*
X384985Y411090D01*
X384968Y411152D01*
X384927Y411218D01*
X384895Y411288D01*
X384853Y411337D01*
X384820Y411392D01*
X384762Y411444D01*
X384712Y411502D01*
X384658Y411538D01*
X384610Y411581D01*
X384541Y411614D01*
X384476Y411657D01*
X384414Y411676D01*
X384357Y411704D01*
X384287Y411715D01*
X384206Y411739D01*
X384121Y411740D01*
X384052Y411751D01*
X381937Y411751D01*
X381842Y411738D01*
X381746Y411733D01*
X381703Y411718D01*
X381658Y411711D01*
X381571Y411672D01*
X381480Y411640D01*
X381445Y411615D01*
X381401Y411595D01*
X381304Y411512D01*
X381231Y411459D01*
X381041Y411269D01*
X380984Y411193D01*
X380919Y411121D01*
X380899Y411080D01*
X380872Y411044D01*
X380838Y410954D01*
X380796Y410867D01*
X380790Y410825D01*
X380773Y410780D01*
X380763Y410652D01*
X380749Y410563D01*
X380749Y361937D01*
X380762Y361842D01*
X380767Y361746D01*
X380782Y361703D01*
X380789Y361658D01*
X380828Y361571D01*
X380860Y361480D01*
X380885Y361445D01*
X380905Y361401D01*
X380988Y361304D01*
X381041Y361231D01*
X413351Y328921D01*
X415749Y323133D01*
X415749Y294367D01*
X413351Y288579D01*
X408921Y284149D01*
X403133Y281751D01*
X396867Y281751D01*
G37*
%LPD*%
%LPC*%
G36*
X389769Y21951D02*
X389769Y21951D01*
X386163Y25557D01*
X385452Y26268D01*
X383489Y28230D01*
X383489Y31598D01*
X384701Y32810D01*
X384702Y32810D01*
X386163Y34271D01*
X387095Y35203D01*
X387729Y35837D01*
X387749Y35863D01*
X387773Y35884D01*
X387833Y35976D01*
X387899Y36063D01*
X387910Y36093D01*
X387928Y36120D01*
X387960Y36225D01*
X387998Y36327D01*
X388001Y36359D01*
X388010Y36390D01*
X388011Y36499D01*
X388020Y36608D01*
X388013Y36640D01*
X388014Y36672D01*
X387985Y36777D01*
X387962Y36884D01*
X387947Y36913D01*
X387939Y36944D01*
X387881Y37037D01*
X387830Y37133D01*
X387807Y37156D01*
X387790Y37184D01*
X387709Y37257D01*
X387633Y37335D01*
X387605Y37351D01*
X387581Y37373D01*
X387483Y37420D01*
X387388Y37474D01*
X387356Y37482D01*
X387327Y37496D01*
X387238Y37510D01*
X387113Y37539D01*
X387065Y37537D01*
X387023Y37543D01*
X385871Y37543D01*
X383489Y39924D01*
X383489Y43292D01*
X385871Y45673D01*
X400932Y45673D01*
X405717Y40888D01*
X407211Y39394D01*
X407211Y36026D01*
X405691Y34506D01*
X403606Y32421D01*
X402971Y31787D01*
X402952Y31761D01*
X402927Y31740D01*
X402867Y31648D01*
X402802Y31561D01*
X402791Y31531D01*
X402773Y31504D01*
X402741Y31399D01*
X402702Y31297D01*
X402700Y31265D01*
X402690Y31234D01*
X402689Y31125D01*
X402681Y31016D01*
X402687Y30984D01*
X402687Y30952D01*
X402716Y30847D01*
X402738Y30740D01*
X402753Y30711D01*
X402762Y30680D01*
X402819Y30587D01*
X402871Y30491D01*
X402893Y30468D01*
X402910Y30440D01*
X402991Y30367D01*
X403067Y30289D01*
X403095Y30273D01*
X403119Y30251D01*
X403218Y30204D01*
X403313Y30150D01*
X403344Y30142D01*
X403373Y30128D01*
X403463Y30114D01*
X403587Y30085D01*
X403636Y30087D01*
X403678Y30081D01*
X404830Y30081D01*
X406338Y28573D01*
X406389Y28534D01*
X406434Y28488D01*
X406501Y28450D01*
X406563Y28404D01*
X406623Y28381D01*
X406679Y28349D01*
X406755Y28331D01*
X406827Y28304D01*
X406891Y28299D01*
X406954Y28284D01*
X407031Y28288D01*
X407108Y28282D01*
X407171Y28295D01*
X407235Y28299D01*
X407309Y28324D01*
X407384Y28340D01*
X407441Y28370D01*
X407502Y28391D01*
X407558Y28433D01*
X407633Y28472D01*
X407694Y28532D01*
X407751Y28573D01*
X409259Y30081D01*
X409776Y30081D01*
X409840Y30090D01*
X409904Y30089D01*
X409979Y30110D01*
X410055Y30121D01*
X410114Y30147D01*
X410176Y30164D01*
X410242Y30205D01*
X410312Y30237D01*
X410361Y30279D01*
X410416Y30312D01*
X410468Y30370D01*
X410527Y30420D01*
X410562Y30474D01*
X410605Y30522D01*
X410639Y30591D01*
X410681Y30656D01*
X410700Y30718D01*
X410728Y30775D01*
X410739Y30845D01*
X410763Y30926D01*
X410765Y31011D01*
X410775Y31080D01*
X410775Y43292D01*
X412283Y44799D01*
X412322Y44851D01*
X412368Y44896D01*
X412406Y44963D01*
X412452Y45025D01*
X412475Y45085D01*
X412507Y45141D01*
X412525Y45216D01*
X412552Y45289D01*
X412557Y45353D01*
X412572Y45415D01*
X412568Y45493D01*
X412574Y45570D01*
X412561Y45633D01*
X412557Y45697D01*
X412532Y45770D01*
X412516Y45846D01*
X412486Y45903D01*
X412465Y45964D01*
X412424Y46020D01*
X412384Y46095D01*
X412325Y46156D01*
X412283Y46213D01*
X410775Y47720D01*
X410775Y54986D01*
X413156Y57367D01*
X416524Y57367D01*
X418905Y54986D01*
X418905Y47720D01*
X418563Y47379D01*
X418544Y47353D01*
X418519Y47332D01*
X418459Y47240D01*
X418394Y47153D01*
X418382Y47123D01*
X418365Y47096D01*
X418333Y46991D01*
X418294Y46889D01*
X418292Y46857D01*
X418282Y46826D01*
X418281Y46717D01*
X418273Y46608D01*
X418279Y46576D01*
X418279Y46544D01*
X418308Y46439D01*
X418330Y46332D01*
X418345Y46303D01*
X418354Y46272D01*
X418411Y46179D01*
X418463Y46083D01*
X418485Y46060D01*
X418502Y46032D01*
X418583Y45959D01*
X418659Y45881D01*
X418687Y45865D01*
X418711Y45843D01*
X418810Y45796D01*
X418905Y45742D01*
X418936Y45734D01*
X418965Y45720D01*
X419055Y45706D01*
X419179Y45677D01*
X419228Y45679D01*
X419270Y45673D01*
X420422Y45673D01*
X422803Y43292D01*
X422803Y42139D01*
X422807Y42108D01*
X422805Y42075D01*
X422827Y41968D01*
X422843Y41860D01*
X422856Y41831D01*
X422863Y41799D01*
X422914Y41703D01*
X422959Y41603D01*
X422980Y41579D01*
X422995Y41550D01*
X423071Y41472D01*
X423142Y41389D01*
X423169Y41371D01*
X423192Y41348D01*
X423287Y41295D01*
X423378Y41235D01*
X423409Y41225D01*
X423437Y41209D01*
X423544Y41184D01*
X423648Y41152D01*
X423680Y41152D01*
X423712Y41144D01*
X423821Y41150D01*
X423930Y41148D01*
X423961Y41157D01*
X423993Y41159D01*
X424096Y41194D01*
X424202Y41224D01*
X424229Y41241D01*
X424260Y41251D01*
X424333Y41304D01*
X424442Y41372D01*
X424474Y41408D01*
X424509Y41433D01*
X425143Y42067D01*
X425143Y42068D01*
X428748Y45673D01*
X439912Y45673D01*
X442293Y43292D01*
X442293Y39924D01*
X440785Y38417D01*
X440747Y38365D01*
X440701Y38320D01*
X440662Y38253D01*
X440616Y38191D01*
X440593Y38131D01*
X440561Y38075D01*
X440544Y38000D01*
X440516Y37927D01*
X440511Y37863D01*
X440497Y37801D01*
X440501Y37723D01*
X440495Y37646D01*
X440508Y37583D01*
X440511Y37519D01*
X440536Y37446D01*
X440552Y37370D01*
X440582Y37313D01*
X440603Y37252D01*
X440645Y37196D01*
X440685Y37121D01*
X440744Y37060D01*
X440785Y37003D01*
X441874Y35914D01*
X442585Y35203D01*
X442586Y35203D01*
X444229Y33560D01*
X446191Y31598D01*
X446191Y30446D01*
X446195Y30414D01*
X446193Y30381D01*
X446215Y30274D01*
X446231Y30166D01*
X446244Y30137D01*
X446251Y30105D01*
X446302Y30009D01*
X446347Y29909D01*
X446368Y29885D01*
X446383Y29856D01*
X446459Y29778D01*
X446530Y29695D01*
X446557Y29677D01*
X446580Y29654D01*
X446675Y29601D01*
X446766Y29541D01*
X446797Y29531D01*
X446825Y29515D01*
X446932Y29490D01*
X447036Y29458D01*
X447068Y29458D01*
X447100Y29450D01*
X447209Y29456D01*
X447318Y29454D01*
X447349Y29463D01*
X447381Y29465D01*
X447484Y29500D01*
X447590Y29530D01*
X447617Y29547D01*
X447648Y29557D01*
X447721Y29611D01*
X447830Y29678D01*
X447862Y29714D01*
X447897Y29739D01*
X448238Y30081D01*
X448756Y30081D01*
X448820Y30090D01*
X448884Y30089D01*
X448959Y30110D01*
X449035Y30121D01*
X449094Y30147D01*
X449156Y30164D01*
X449222Y30205D01*
X449292Y30237D01*
X449341Y30279D01*
X449396Y30312D01*
X449448Y30370D01*
X449507Y30420D01*
X449542Y30474D01*
X449585Y30522D01*
X449619Y30591D01*
X449661Y30656D01*
X449680Y30718D01*
X449708Y30775D01*
X449719Y30845D01*
X449743Y30926D01*
X449745Y31011D01*
X449755Y31080D01*
X449755Y51088D01*
X452136Y53469D01*
X459402Y53469D01*
X461783Y51088D01*
X461783Y47720D01*
X459402Y45339D01*
X458884Y45339D01*
X458820Y45330D01*
X458756Y45331D01*
X458682Y45310D01*
X458605Y45299D01*
X458546Y45273D01*
X458484Y45256D01*
X458418Y45215D01*
X458348Y45183D01*
X458299Y45141D01*
X458244Y45108D01*
X458193Y45050D01*
X458134Y45000D01*
X458098Y44946D01*
X458055Y44898D01*
X458022Y44829D01*
X457979Y44764D01*
X457960Y44702D01*
X457932Y44645D01*
X457922Y44575D01*
X457897Y44494D01*
X457896Y44409D01*
X457885Y44340D01*
X457885Y31080D01*
X457894Y31016D01*
X457893Y30952D01*
X457914Y30877D01*
X457925Y30801D01*
X457951Y30742D01*
X457968Y30680D01*
X458009Y30614D01*
X458041Y30544D01*
X458083Y30495D01*
X458116Y30440D01*
X458174Y30388D01*
X458224Y30330D01*
X458278Y30294D01*
X458326Y30251D01*
X458395Y30218D01*
X458460Y30175D01*
X458522Y30156D01*
X458580Y30128D01*
X458649Y30117D01*
X458730Y30093D01*
X458815Y30092D01*
X458884Y30081D01*
X459402Y30081D01*
X459744Y29739D01*
X459769Y29720D01*
X459790Y29695D01*
X459882Y29635D01*
X459969Y29570D01*
X459999Y29558D01*
X460026Y29541D01*
X460131Y29509D01*
X460233Y29470D01*
X460265Y29468D01*
X460296Y29458D01*
X460405Y29457D01*
X460514Y29448D01*
X460546Y29455D01*
X460578Y29454D01*
X460683Y29484D01*
X460790Y29506D01*
X460819Y29521D01*
X460850Y29530D01*
X460943Y29587D01*
X461039Y29638D01*
X461062Y29661D01*
X461090Y29678D01*
X461163Y29759D01*
X461241Y29835D01*
X461257Y29863D01*
X461279Y29887D01*
X461326Y29985D01*
X461380Y30081D01*
X461388Y30112D01*
X461402Y30141D01*
X461416Y30230D01*
X461445Y30355D01*
X461443Y30403D01*
X461449Y30446D01*
X461449Y43292D01*
X463830Y45673D01*
X467198Y45673D01*
X469579Y43292D01*
X469579Y31080D01*
X469588Y31016D01*
X469587Y30952D01*
X469608Y30877D01*
X469619Y30801D01*
X469645Y30742D01*
X469662Y30680D01*
X469703Y30614D01*
X469735Y30544D01*
X469777Y30495D01*
X469810Y30440D01*
X469868Y30388D01*
X469918Y30330D01*
X469972Y30294D01*
X470020Y30251D01*
X470089Y30218D01*
X470154Y30175D01*
X470216Y30156D01*
X470273Y30128D01*
X470343Y30117D01*
X470424Y30093D01*
X470509Y30092D01*
X470578Y30081D01*
X475111Y30081D01*
X475205Y30094D01*
X475302Y30099D01*
X475345Y30114D01*
X475390Y30121D01*
X475477Y30160D01*
X475568Y30192D01*
X475603Y30217D01*
X475647Y30237D01*
X475744Y30320D01*
X475817Y30373D01*
X476749Y31305D01*
X476806Y31382D01*
X476871Y31453D01*
X476891Y31494D01*
X476918Y31531D01*
X476952Y31621D01*
X476994Y31707D01*
X477000Y31749D01*
X477017Y31794D01*
X477027Y31922D01*
X477041Y32012D01*
X477041Y43292D01*
X479422Y45673D01*
X482790Y45673D01*
X484298Y44165D01*
X484349Y44126D01*
X484394Y44080D01*
X484461Y44042D01*
X484523Y43996D01*
X484583Y43973D01*
X484639Y43941D01*
X484715Y43923D01*
X484787Y43896D01*
X484851Y43891D01*
X484914Y43876D01*
X484991Y43880D01*
X485068Y43874D01*
X485131Y43887D01*
X485195Y43891D01*
X485268Y43916D01*
X485344Y43932D01*
X485401Y43962D01*
X485462Y43983D01*
X485518Y44025D01*
X485593Y44064D01*
X485654Y44124D01*
X485711Y44165D01*
X487218Y45673D01*
X494484Y45673D01*
X495991Y44165D01*
X496043Y44126D01*
X496088Y44080D01*
X496155Y44042D01*
X496217Y43996D01*
X496277Y43973D01*
X496333Y43941D01*
X496409Y43923D01*
X496481Y43896D01*
X496545Y43891D01*
X496608Y43876D01*
X496685Y43880D01*
X496762Y43874D01*
X496825Y43887D01*
X496889Y43891D01*
X496962Y43916D01*
X497038Y43932D01*
X497095Y43962D01*
X497156Y43983D01*
X497212Y44025D01*
X497287Y44064D01*
X497348Y44124D01*
X497405Y44165D01*
X498912Y45673D01*
X502280Y45673D01*
X502621Y45331D01*
X502647Y45312D01*
X502668Y45287D01*
X502760Y45227D01*
X502847Y45162D01*
X502877Y45150D01*
X502904Y45133D01*
X503009Y45101D01*
X503111Y45062D01*
X503143Y45060D01*
X503174Y45050D01*
X503283Y45049D01*
X503392Y45040D01*
X503424Y45047D01*
X503456Y45046D01*
X503561Y45076D01*
X503668Y45098D01*
X503697Y45113D01*
X503728Y45122D01*
X503821Y45179D01*
X503917Y45230D01*
X503940Y45253D01*
X503968Y45270D01*
X504041Y45351D01*
X504119Y45427D01*
X504135Y45455D01*
X504157Y45479D01*
X504204Y45577D01*
X504258Y45672D01*
X504266Y45704D01*
X504280Y45733D01*
X504294Y45822D01*
X504323Y45947D01*
X504321Y45995D01*
X504327Y46037D01*
X504327Y47190D01*
X507001Y49863D01*
X510606Y53469D01*
X525668Y53469D01*
X528049Y51088D01*
X528049Y24332D01*
X525668Y21951D01*
X510606Y21951D01*
X508578Y23980D01*
X507001Y25557D01*
X506367Y26191D01*
X506341Y26210D01*
X506320Y26235D01*
X506228Y26295D01*
X506141Y26360D01*
X506111Y26372D01*
X506084Y26389D01*
X505979Y26421D01*
X505877Y26460D01*
X505845Y26462D01*
X505814Y26472D01*
X505705Y26473D01*
X505596Y26482D01*
X505564Y26475D01*
X505532Y26475D01*
X505427Y26446D01*
X505320Y26424D01*
X505291Y26409D01*
X505260Y26400D01*
X505167Y26343D01*
X505071Y26292D01*
X505048Y26269D01*
X505020Y26252D01*
X504947Y26171D01*
X504869Y26095D01*
X504853Y26067D01*
X504831Y26043D01*
X504784Y25945D01*
X504730Y25849D01*
X504722Y25818D01*
X504708Y25789D01*
X504694Y25700D01*
X504665Y25575D01*
X504667Y25527D01*
X504661Y25484D01*
X504661Y24332D01*
X502280Y21951D01*
X498912Y21951D01*
X496531Y24332D01*
X496531Y31714D01*
X496518Y31809D01*
X496513Y31906D01*
X496498Y31949D01*
X496491Y31994D01*
X496452Y32081D01*
X496420Y32172D01*
X496395Y32206D01*
X496375Y32251D01*
X496292Y32348D01*
X496239Y32421D01*
X491409Y37251D01*
X491332Y37308D01*
X491261Y37373D01*
X491220Y37393D01*
X491183Y37420D01*
X491093Y37454D01*
X491007Y37496D01*
X490965Y37502D01*
X490920Y37519D01*
X490792Y37529D01*
X490702Y37543D01*
X487218Y37543D01*
X486877Y37885D01*
X486851Y37904D01*
X486830Y37929D01*
X486738Y37989D01*
X486651Y38054D01*
X486621Y38066D01*
X486594Y38083D01*
X486489Y38115D01*
X486387Y38154D01*
X486355Y38156D01*
X486324Y38166D01*
X486215Y38167D01*
X486106Y38176D01*
X486074Y38169D01*
X486042Y38169D01*
X485937Y38140D01*
X485830Y38118D01*
X485801Y38103D01*
X485770Y38094D01*
X485677Y38037D01*
X485581Y37986D01*
X485558Y37963D01*
X485530Y37946D01*
X485457Y37865D01*
X485379Y37789D01*
X485363Y37761D01*
X485341Y37737D01*
X485294Y37639D01*
X485240Y37543D01*
X485232Y37512D01*
X485218Y37483D01*
X485204Y37394D01*
X485175Y37269D01*
X485177Y37221D01*
X485171Y37178D01*
X485171Y28230D01*
X478892Y21951D01*
X463830Y21951D01*
X462323Y23459D01*
X462271Y23498D01*
X462226Y23544D01*
X462159Y23582D01*
X462097Y23628D01*
X462037Y23651D01*
X461981Y23683D01*
X461906Y23701D01*
X461833Y23728D01*
X461769Y23733D01*
X461707Y23748D01*
X461629Y23744D01*
X461552Y23750D01*
X461489Y23737D01*
X461425Y23733D01*
X461352Y23708D01*
X461276Y23692D01*
X461219Y23662D01*
X461159Y23641D01*
X461102Y23599D01*
X461027Y23560D01*
X460966Y23500D01*
X460910Y23459D01*
X459402Y21951D01*
X448238Y21951D01*
X445857Y24332D01*
X445857Y25484D01*
X445853Y25516D01*
X445855Y25549D01*
X445833Y25655D01*
X445818Y25764D01*
X445804Y25793D01*
X445798Y25825D01*
X445746Y25921D01*
X445701Y26021D01*
X445680Y26045D01*
X445665Y26074D01*
X445589Y26152D01*
X445518Y26235D01*
X445491Y26253D01*
X445468Y26276D01*
X445374Y26329D01*
X445282Y26389D01*
X445251Y26399D01*
X445223Y26415D01*
X445117Y26440D01*
X445012Y26472D01*
X444980Y26472D01*
X444949Y26480D01*
X444839Y26474D01*
X444730Y26475D01*
X444699Y26467D01*
X444667Y26465D01*
X444564Y26429D01*
X444458Y26400D01*
X444431Y26383D01*
X444401Y26373D01*
X444327Y26319D01*
X444218Y26252D01*
X444186Y26216D01*
X444152Y26191D01*
X439912Y21951D01*
X424850Y21951D01*
X423343Y23459D01*
X423291Y23498D01*
X423247Y23544D01*
X423179Y23582D01*
X423117Y23628D01*
X423057Y23651D01*
X423001Y23683D01*
X422926Y23701D01*
X422853Y23728D01*
X422789Y23733D01*
X422727Y23748D01*
X422649Y23744D01*
X422572Y23750D01*
X422509Y23737D01*
X422445Y23733D01*
X422372Y23708D01*
X422296Y23692D01*
X422239Y23662D01*
X422179Y23641D01*
X422122Y23599D01*
X422047Y23560D01*
X421986Y23500D01*
X421930Y23459D01*
X420422Y21951D01*
X409259Y21951D01*
X407751Y23459D01*
X407699Y23498D01*
X407655Y23544D01*
X407587Y23582D01*
X407525Y23628D01*
X407465Y23651D01*
X407409Y23683D01*
X407334Y23701D01*
X407261Y23728D01*
X407197Y23733D01*
X407135Y23748D01*
X407057Y23744D01*
X406980Y23750D01*
X406917Y23737D01*
X406853Y23733D01*
X406780Y23708D01*
X406704Y23692D01*
X406647Y23662D01*
X406587Y23641D01*
X406530Y23599D01*
X406455Y23560D01*
X406394Y23500D01*
X406338Y23459D01*
X404830Y21951D01*
X389769Y21951D01*
G37*
%LPD*%
%LPC*%
G36*
X196636Y174451D02*
X196636Y174451D01*
X190139Y176192D01*
X184313Y179556D01*
X179556Y184313D01*
X176192Y190139D01*
X174451Y196636D01*
X174451Y203364D01*
X176192Y209861D01*
X179556Y215687D01*
X184313Y220444D01*
X190139Y223808D01*
X196636Y225549D01*
X203364Y225549D01*
X209861Y223808D01*
X215687Y220444D01*
X220444Y215687D01*
X223808Y209861D01*
X225549Y203364D01*
X225549Y196636D01*
X223808Y190139D01*
X220444Y184313D01*
X215687Y179556D01*
X209861Y176192D01*
X203364Y174451D01*
X196636Y174451D01*
G37*
%LPD*%
%LPC*%
G36*
X596636Y174451D02*
X596636Y174451D01*
X590139Y176192D01*
X584313Y179556D01*
X579556Y184313D01*
X576192Y190139D01*
X574451Y196636D01*
X574451Y203364D01*
X576192Y209861D01*
X579556Y215687D01*
X584313Y220444D01*
X590139Y223808D01*
X596636Y225549D01*
X603364Y225549D01*
X609861Y223808D01*
X615687Y220444D01*
X620444Y215687D01*
X623808Y209861D01*
X625549Y203364D01*
X625549Y196636D01*
X623808Y190139D01*
X620444Y184313D01*
X615687Y179556D01*
X609861Y176192D01*
X603364Y174451D01*
X596636Y174451D01*
G37*
%LPD*%
%LPC*%
G36*
X516112Y80451D02*
X516112Y80451D01*
X508926Y83427D01*
X503427Y88926D01*
X500451Y96111D01*
X500451Y103888D01*
X503427Y111074D01*
X508926Y116573D01*
X516112Y119549D01*
X523888Y119549D01*
X531074Y116573D01*
X536573Y111074D01*
X539549Y103888D01*
X539549Y96111D01*
X536573Y88926D01*
X531074Y83427D01*
X523888Y80451D01*
X516112Y80451D01*
G37*
%LPD*%
%LPC*%
G36*
X326112Y270451D02*
X326112Y270451D01*
X318926Y273427D01*
X313427Y278926D01*
X310451Y286111D01*
X310451Y293888D01*
X313427Y301074D01*
X318926Y306573D01*
X326112Y309549D01*
X333888Y309549D01*
X341074Y306573D01*
X346573Y301074D01*
X349549Y293888D01*
X349549Y286111D01*
X346573Y278926D01*
X341074Y273427D01*
X333888Y270451D01*
X326112Y270451D01*
G37*
%LPD*%
%LPC*%
G36*
X249441Y21951D02*
X249441Y21951D01*
X247479Y23913D01*
X247479Y23914D01*
X245835Y25557D01*
X245124Y26268D01*
X243162Y28230D01*
X243162Y47190D01*
X249441Y53469D01*
X260604Y53469D01*
X262633Y51440D01*
X263278Y50795D01*
X264854Y49218D01*
X266883Y47190D01*
X266883Y39924D01*
X264921Y37962D01*
X263278Y36319D01*
X262643Y35685D01*
X262624Y35659D01*
X262599Y35638D01*
X262540Y35546D01*
X262474Y35459D01*
X262463Y35429D01*
X262445Y35402D01*
X262413Y35297D01*
X262375Y35195D01*
X262372Y35163D01*
X262363Y35132D01*
X262361Y35023D01*
X262353Y34914D01*
X262359Y34882D01*
X262359Y34850D01*
X262388Y34745D01*
X262410Y34638D01*
X262425Y34609D01*
X262434Y34578D01*
X262491Y34485D01*
X262543Y34389D01*
X262565Y34366D01*
X262582Y34338D01*
X262663Y34265D01*
X262740Y34187D01*
X262768Y34171D01*
X262792Y34149D01*
X262890Y34102D01*
X262985Y34048D01*
X263016Y34040D01*
X263045Y34026D01*
X263135Y34012D01*
X263259Y33983D01*
X263308Y33985D01*
X263350Y33979D01*
X264502Y33979D01*
X266883Y31598D01*
X266883Y30446D01*
X266888Y30414D01*
X266885Y30381D01*
X266908Y30274D01*
X266923Y30166D01*
X266936Y30137D01*
X266943Y30105D01*
X266994Y30009D01*
X267039Y29909D01*
X267060Y29885D01*
X267075Y29856D01*
X267152Y29778D01*
X267223Y29695D01*
X267250Y29677D01*
X267272Y29654D01*
X267367Y29601D01*
X267458Y29541D01*
X267489Y29531D01*
X267517Y29515D01*
X267624Y29490D01*
X267728Y29458D01*
X267760Y29458D01*
X267792Y29450D01*
X267901Y29456D01*
X268010Y29454D01*
X268041Y29463D01*
X268074Y29465D01*
X268177Y29500D01*
X268282Y29530D01*
X268310Y29547D01*
X268340Y29557D01*
X268413Y29611D01*
X268522Y29678D01*
X268555Y29714D01*
X268589Y29739D01*
X268931Y30081D01*
X273346Y30081D01*
X273410Y30090D01*
X273474Y30089D01*
X273549Y30110D01*
X273626Y30121D01*
X273684Y30147D01*
X273746Y30164D01*
X273812Y30205D01*
X273883Y30237D01*
X273931Y30279D01*
X273986Y30312D01*
X274038Y30370D01*
X274097Y30420D01*
X274132Y30474D01*
X274175Y30522D01*
X274209Y30591D01*
X274251Y30656D01*
X274270Y30718D01*
X274298Y30775D01*
X274309Y30845D01*
X274334Y30926D01*
X274335Y31011D01*
X274346Y31080D01*
X274346Y51088D01*
X276727Y53469D01*
X280094Y53469D01*
X282768Y50795D01*
X290271Y43292D01*
X290271Y39924D01*
X287890Y37543D01*
X284523Y37543D01*
X284181Y37885D01*
X284155Y37904D01*
X284134Y37929D01*
X284043Y37989D01*
X283955Y38054D01*
X283925Y38066D01*
X283898Y38083D01*
X283794Y38115D01*
X283692Y38154D01*
X283659Y38156D01*
X283628Y38166D01*
X283519Y38167D01*
X283410Y38176D01*
X283379Y38169D01*
X283346Y38169D01*
X283241Y38140D01*
X283134Y38118D01*
X283106Y38103D01*
X283075Y38094D01*
X282982Y38037D01*
X282885Y37986D01*
X282862Y37963D01*
X282835Y37946D01*
X282761Y37865D01*
X282683Y37789D01*
X282667Y37761D01*
X282646Y37737D01*
X282598Y37639D01*
X282544Y37543D01*
X282537Y37512D01*
X282523Y37483D01*
X282509Y37394D01*
X282479Y37269D01*
X282482Y37221D01*
X282475Y37178D01*
X282475Y31080D01*
X282484Y31016D01*
X282483Y30952D01*
X282504Y30877D01*
X282515Y30801D01*
X282541Y30742D01*
X282559Y30680D01*
X282599Y30614D01*
X282631Y30544D01*
X282673Y30495D01*
X282707Y30440D01*
X282764Y30388D01*
X282815Y30330D01*
X282868Y30294D01*
X282916Y30251D01*
X282986Y30218D01*
X283050Y30175D01*
X283112Y30156D01*
X283170Y30128D01*
X283239Y30117D01*
X283320Y30093D01*
X283405Y30092D01*
X283474Y30081D01*
X287890Y30081D01*
X290271Y27700D01*
X290271Y24332D01*
X287890Y21951D01*
X268931Y21951D01*
X266550Y24332D01*
X266550Y25484D01*
X266545Y25516D01*
X266548Y25549D01*
X266525Y25655D01*
X266510Y25764D01*
X266497Y25793D01*
X266490Y25825D01*
X266439Y25921D01*
X266394Y26021D01*
X266373Y26045D01*
X266357Y26074D01*
X266281Y26152D01*
X266210Y26235D01*
X266183Y26253D01*
X266161Y26276D01*
X266066Y26329D01*
X265974Y26389D01*
X265943Y26399D01*
X265915Y26415D01*
X265809Y26440D01*
X265705Y26472D01*
X265672Y26472D01*
X265641Y26480D01*
X265532Y26474D01*
X265423Y26475D01*
X265391Y26467D01*
X265359Y26465D01*
X265256Y26429D01*
X265151Y26400D01*
X265123Y26383D01*
X265093Y26373D01*
X265020Y26319D01*
X264911Y26252D01*
X264878Y26216D01*
X264844Y26191D01*
X263278Y24625D01*
X260604Y21951D01*
X249441Y21951D01*
G37*
%LPD*%
%LPC*%
G36*
X319605Y21951D02*
X319605Y21951D01*
X317224Y24332D01*
X317224Y32646D01*
X317215Y32710D01*
X317215Y32774D01*
X317195Y32849D01*
X317184Y32925D01*
X317157Y32984D01*
X317140Y33046D01*
X317099Y33112D01*
X317068Y33182D01*
X317026Y33231D01*
X316992Y33286D01*
X316935Y33338D01*
X316884Y33396D01*
X316830Y33432D01*
X316783Y33475D01*
X316713Y33508D01*
X316648Y33551D01*
X316587Y33570D01*
X316529Y33598D01*
X316460Y33609D01*
X316378Y33633D01*
X316294Y33634D01*
X316224Y33645D01*
X315707Y33645D01*
X313326Y36026D01*
X313326Y39394D01*
X315707Y41775D01*
X316224Y41775D01*
X316288Y41784D01*
X316352Y41783D01*
X316427Y41804D01*
X316504Y41815D01*
X316562Y41841D01*
X316624Y41858D01*
X316690Y41899D01*
X316760Y41931D01*
X316809Y41972D01*
X316864Y42006D01*
X316916Y42064D01*
X316975Y42114D01*
X317010Y42168D01*
X317053Y42216D01*
X317087Y42285D01*
X317129Y42350D01*
X317148Y42412D01*
X317176Y42469D01*
X317187Y42539D01*
X317212Y42620D01*
X317213Y42705D01*
X317224Y42774D01*
X317224Y51088D01*
X319605Y53469D01*
X322972Y53469D01*
X325646Y50795D01*
X335008Y41433D01*
X335033Y41414D01*
X335054Y41389D01*
X335146Y41329D01*
X335233Y41264D01*
X335263Y41252D01*
X335290Y41235D01*
X335395Y41203D01*
X335497Y41164D01*
X335529Y41162D01*
X335560Y41152D01*
X335669Y41151D01*
X335778Y41142D01*
X335810Y41149D01*
X335842Y41148D01*
X335948Y41178D01*
X336054Y41200D01*
X336083Y41215D01*
X336114Y41224D01*
X336207Y41281D01*
X336303Y41332D01*
X336327Y41355D01*
X336354Y41372D01*
X336427Y41453D01*
X336505Y41529D01*
X336521Y41557D01*
X336543Y41581D01*
X336591Y41679D01*
X336645Y41775D01*
X336652Y41806D01*
X336666Y41835D01*
X336680Y41924D01*
X336709Y42049D01*
X336707Y42097D01*
X336714Y42139D01*
X336714Y47190D01*
X339387Y49863D01*
X342993Y53469D01*
X354156Y53469D01*
X356118Y51506D01*
X356830Y50795D01*
X358473Y49152D01*
X360435Y47190D01*
X360435Y28230D01*
X354156Y21951D01*
X342993Y21951D01*
X340964Y23980D01*
X339387Y25557D01*
X338742Y26202D01*
X336714Y28230D01*
X336714Y33280D01*
X336709Y33312D01*
X336711Y33345D01*
X336689Y33452D01*
X336674Y33560D01*
X336660Y33589D01*
X336654Y33621D01*
X336603Y33717D01*
X336558Y33817D01*
X336537Y33841D01*
X336521Y33870D01*
X336445Y33948D01*
X336374Y34031D01*
X336347Y34049D01*
X336325Y34072D01*
X336230Y34125D01*
X336138Y34185D01*
X336107Y34195D01*
X336079Y34211D01*
X335973Y34236D01*
X335868Y34268D01*
X335836Y34268D01*
X335805Y34276D01*
X335696Y34270D01*
X335586Y34271D01*
X335555Y34263D01*
X335523Y34261D01*
X335420Y34225D01*
X335315Y34196D01*
X335287Y34179D01*
X335257Y34169D01*
X335184Y34115D01*
X335075Y34048D01*
X335042Y34012D01*
X335008Y33987D01*
X334666Y33645D01*
X326352Y33645D01*
X326289Y33636D01*
X326224Y33637D01*
X326150Y33616D01*
X326073Y33605D01*
X326015Y33579D01*
X325953Y33562D01*
X325887Y33521D01*
X325816Y33489D01*
X325767Y33447D01*
X325713Y33414D01*
X325661Y33356D01*
X325602Y33306D01*
X325567Y33252D01*
X325524Y33204D01*
X325490Y33135D01*
X325447Y33070D01*
X325429Y33008D01*
X325401Y32951D01*
X325390Y32881D01*
X325365Y32800D01*
X325364Y32715D01*
X325353Y32646D01*
X325353Y24332D01*
X322972Y21951D01*
X319605Y21951D01*
G37*
%LPD*%
%LPC*%
G36*
X297404Y-53049D02*
X297404Y-53049D01*
X292608Y-51062D01*
X288938Y-47392D01*
X286951Y-42596D01*
X286951Y-37404D01*
X288938Y-32608D01*
X292608Y-28938D01*
X297404Y-26951D01*
X302596Y-26951D01*
X307392Y-28938D01*
X311062Y-32608D01*
X313049Y-37404D01*
X313049Y-42596D01*
X311062Y-47392D01*
X307392Y-51062D01*
X302596Y-53049D01*
X297404Y-53049D01*
G37*
%LPD*%
%LPC*%
G36*
X429904Y-53049D02*
X429904Y-53049D01*
X425108Y-51062D01*
X421438Y-47392D01*
X419451Y-42596D01*
X419451Y-37404D01*
X421438Y-32608D01*
X425108Y-28938D01*
X429904Y-26951D01*
X435096Y-26951D01*
X439892Y-28938D01*
X443562Y-32608D01*
X445549Y-37404D01*
X445549Y-42596D01*
X443562Y-47392D01*
X439892Y-51062D01*
X435096Y-53049D01*
X429904Y-53049D01*
G37*
%LPD*%
%LPC*%
G36*
X290628Y-89151D02*
X290628Y-89151D01*
X288247Y-86770D01*
X288247Y-82354D01*
X288238Y-82290D01*
X288239Y-82226D01*
X288218Y-82151D01*
X288208Y-82075D01*
X288181Y-82016D01*
X288164Y-81954D01*
X288123Y-81888D01*
X288091Y-81818D01*
X288050Y-81769D01*
X288016Y-81714D01*
X287958Y-81662D01*
X287908Y-81604D01*
X287854Y-81568D01*
X287806Y-81525D01*
X287737Y-81492D01*
X287672Y-81449D01*
X287610Y-81430D01*
X287553Y-81402D01*
X287483Y-81391D01*
X287402Y-81367D01*
X287318Y-81366D01*
X287248Y-81355D01*
X282832Y-81355D01*
X280451Y-78974D01*
X280451Y-75606D01*
X282832Y-73225D01*
X287248Y-73225D01*
X287312Y-73216D01*
X287376Y-73217D01*
X287451Y-73196D01*
X287527Y-73185D01*
X287586Y-73159D01*
X287648Y-73142D01*
X287714Y-73101D01*
X287784Y-73069D01*
X287833Y-73028D01*
X287888Y-72994D01*
X287940Y-72936D01*
X287999Y-72886D01*
X288034Y-72832D01*
X288077Y-72784D01*
X288111Y-72715D01*
X288153Y-72650D01*
X288172Y-72588D01*
X288200Y-72531D01*
X288211Y-72461D01*
X288235Y-72380D01*
X288237Y-72295D01*
X288247Y-72226D01*
X288247Y-67810D01*
X290628Y-65429D01*
X293996Y-65429D01*
X296377Y-67810D01*
X296377Y-72226D01*
X296386Y-72290D01*
X296385Y-72354D01*
X296406Y-72429D01*
X296417Y-72505D01*
X296443Y-72564D01*
X296460Y-72626D01*
X296501Y-72692D01*
X296533Y-72762D01*
X296575Y-72811D01*
X296608Y-72866D01*
X296666Y-72918D01*
X296716Y-72976D01*
X296770Y-73012D01*
X296818Y-73055D01*
X296887Y-73088D01*
X296952Y-73131D01*
X297014Y-73150D01*
X297071Y-73178D01*
X297141Y-73189D01*
X297222Y-73213D01*
X297307Y-73214D01*
X297376Y-73225D01*
X301792Y-73225D01*
X304173Y-75606D01*
X304173Y-78974D01*
X301792Y-81355D01*
X297376Y-81355D01*
X297312Y-81364D01*
X297248Y-81363D01*
X297173Y-81384D01*
X297097Y-81395D01*
X297038Y-81421D01*
X296976Y-81438D01*
X296910Y-81479D01*
X296840Y-81511D01*
X296791Y-81553D01*
X296736Y-81586D01*
X296684Y-81644D01*
X296626Y-81694D01*
X296590Y-81748D01*
X296547Y-81796D01*
X296514Y-81865D01*
X296471Y-81930D01*
X296452Y-81992D01*
X296424Y-82049D01*
X296414Y-82119D01*
X296389Y-82200D01*
X296388Y-82285D01*
X296377Y-82354D01*
X296377Y-86770D01*
X293996Y-89151D01*
X290628Y-89151D01*
G37*
%LPD*%
%LPC*%
G36*
X423128Y-89151D02*
X423128Y-89151D01*
X420747Y-86770D01*
X420747Y-82354D01*
X420738Y-82290D01*
X420739Y-82226D01*
X420718Y-82151D01*
X420708Y-82075D01*
X420681Y-82016D01*
X420664Y-81954D01*
X420623Y-81888D01*
X420591Y-81818D01*
X420550Y-81769D01*
X420516Y-81714D01*
X420458Y-81662D01*
X420408Y-81604D01*
X420354Y-81568D01*
X420306Y-81525D01*
X420237Y-81492D01*
X420172Y-81449D01*
X420110Y-81430D01*
X420053Y-81402D01*
X419983Y-81391D01*
X419902Y-81367D01*
X419818Y-81366D01*
X419748Y-81355D01*
X415332Y-81355D01*
X412951Y-78974D01*
X412951Y-75606D01*
X415332Y-73225D01*
X419748Y-73225D01*
X419812Y-73216D01*
X419876Y-73217D01*
X419951Y-73196D01*
X420027Y-73185D01*
X420086Y-73159D01*
X420148Y-73142D01*
X420214Y-73101D01*
X420284Y-73069D01*
X420333Y-73028D01*
X420388Y-72994D01*
X420440Y-72936D01*
X420499Y-72886D01*
X420534Y-72832D01*
X420577Y-72784D01*
X420611Y-72715D01*
X420653Y-72650D01*
X420672Y-72588D01*
X420700Y-72531D01*
X420711Y-72461D01*
X420735Y-72380D01*
X420737Y-72295D01*
X420747Y-72226D01*
X420747Y-67810D01*
X423128Y-65429D01*
X426496Y-65429D01*
X428877Y-67810D01*
X428877Y-72226D01*
X428886Y-72290D01*
X428885Y-72354D01*
X428906Y-72429D01*
X428917Y-72505D01*
X428943Y-72564D01*
X428960Y-72626D01*
X429001Y-72692D01*
X429033Y-72762D01*
X429075Y-72811D01*
X429108Y-72866D01*
X429166Y-72918D01*
X429216Y-72976D01*
X429270Y-73012D01*
X429318Y-73055D01*
X429387Y-73088D01*
X429452Y-73131D01*
X429514Y-73150D01*
X429571Y-73178D01*
X429641Y-73189D01*
X429722Y-73213D01*
X429807Y-73214D01*
X429876Y-73225D01*
X434292Y-73225D01*
X436673Y-75606D01*
X436673Y-78974D01*
X434292Y-81355D01*
X429876Y-81355D01*
X429812Y-81364D01*
X429748Y-81363D01*
X429673Y-81384D01*
X429597Y-81395D01*
X429538Y-81421D01*
X429476Y-81438D01*
X429410Y-81479D01*
X429340Y-81511D01*
X429291Y-81553D01*
X429236Y-81586D01*
X429184Y-81644D01*
X429126Y-81694D01*
X429090Y-81748D01*
X429047Y-81796D01*
X429014Y-81865D01*
X428971Y-81930D01*
X428952Y-81992D01*
X428924Y-82049D01*
X428914Y-82119D01*
X428889Y-82200D01*
X428888Y-82285D01*
X428877Y-82354D01*
X428877Y-86770D01*
X426496Y-89151D01*
X423128Y-89151D01*
G37*
%LPD*%
%LPC*%
G36*
X307146Y22360D02*
X307146Y22360D01*
X289686Y48550D01*
X290347Y51852D01*
X293149Y53720D01*
X296450Y53060D01*
X313910Y26870D01*
X313250Y23568D01*
X310448Y21700D01*
X307146Y22360D01*
G37*
%LPD*%
%LPC*%
G36*
X400800Y-68149D02*
X400800Y-68149D01*
X397657Y-66847D01*
X395253Y-64443D01*
X393951Y-61300D01*
X393951Y-57900D01*
X395253Y-54757D01*
X397657Y-52353D01*
X400800Y-51051D01*
X404200Y-51051D01*
X407343Y-52353D01*
X409747Y-54757D01*
X411049Y-57900D01*
X411049Y-61300D01*
X409747Y-64443D01*
X407343Y-66847D01*
X404200Y-68149D01*
X400800Y-68149D01*
G37*
%LPD*%
%LPC*%
G36*
X358300Y-68149D02*
X358300Y-68149D01*
X355157Y-66847D01*
X352753Y-64443D01*
X351451Y-61300D01*
X351451Y-57900D01*
X352753Y-54757D01*
X355157Y-52353D01*
X358300Y-51051D01*
X361700Y-51051D01*
X364843Y-52353D01*
X367247Y-54757D01*
X368549Y-57900D01*
X368549Y-61300D01*
X367247Y-64443D01*
X364843Y-66847D01*
X361700Y-68149D01*
X358300Y-68149D01*
G37*
%LPD*%
%LPC*%
G36*
X268300Y-68149D02*
X268300Y-68149D01*
X265157Y-66847D01*
X262753Y-64443D01*
X261451Y-61300D01*
X261451Y-57900D01*
X262753Y-54757D01*
X265157Y-52353D01*
X268300Y-51051D01*
X271700Y-51051D01*
X274843Y-52353D01*
X277247Y-54757D01*
X278549Y-57900D01*
X278549Y-61300D01*
X277247Y-64443D01*
X274843Y-66847D01*
X271700Y-68149D01*
X268300Y-68149D01*
G37*
%LPD*%
%LPC*%
G36*
X490800Y-68149D02*
X490800Y-68149D01*
X487657Y-66847D01*
X485253Y-64443D01*
X483951Y-61300D01*
X483951Y-57900D01*
X485253Y-54757D01*
X487657Y-52353D01*
X490800Y-51051D01*
X494200Y-51051D01*
X497343Y-52353D01*
X499747Y-54757D01*
X501049Y-57900D01*
X501049Y-61300D01*
X499747Y-64443D01*
X497343Y-66847D01*
X494200Y-68149D01*
X490800Y-68149D01*
G37*
%LPD*%
%LPC*%
G36*
X462108Y-81355D02*
X462108Y-81355D01*
X459727Y-78974D01*
X459727Y-75606D01*
X462108Y-73225D01*
X481068Y-73225D01*
X483449Y-75606D01*
X483449Y-78974D01*
X481068Y-81355D01*
X462108Y-81355D01*
G37*
%LPD*%
%LPC*%
G36*
X329608Y-81355D02*
X329608Y-81355D01*
X327227Y-78974D01*
X327227Y-75606D01*
X329608Y-73225D01*
X348568Y-73225D01*
X350949Y-75606D01*
X350949Y-78974D01*
X348568Y-81355D01*
X329608Y-81355D01*
G37*
%LPD*%
%LPC*%
G36*
X241999Y337999D02*
X241999Y337999D01*
X241999Y346541D01*
X253835Y346541D01*
X254481Y346368D01*
X255060Y346033D01*
X255533Y345560D01*
X255868Y344981D01*
X256041Y344335D01*
X256041Y337999D01*
X241999Y337999D01*
G37*
%LPD*%
%LPC*%
G36*
X56999Y400999D02*
X56999Y400999D01*
X56999Y409541D01*
X68835Y409541D01*
X69481Y409368D01*
X70060Y409033D01*
X70533Y408560D01*
X70868Y407981D01*
X71041Y407335D01*
X71041Y400999D01*
X56999Y400999D01*
G37*
%LPD*%
%LPC*%
G36*
X412699Y372499D02*
X412699Y372499D01*
X412699Y386541D01*
X419035Y386541D01*
X419681Y386368D01*
X420260Y386033D01*
X420733Y385560D01*
X421068Y384981D01*
X421241Y384335D01*
X421241Y372499D01*
X412699Y372499D01*
G37*
%LPD*%
%LPC*%
G36*
X595499Y364499D02*
X595499Y364499D01*
X595499Y378541D01*
X601835Y378541D01*
X602481Y378368D01*
X603060Y378033D01*
X603533Y377560D01*
X603868Y376981D01*
X604041Y376335D01*
X604041Y364499D01*
X595499Y364499D01*
G37*
%LPD*%
%LPC*%
G36*
X38959Y400999D02*
X38959Y400999D01*
X38959Y407335D01*
X39132Y407981D01*
X39467Y408560D01*
X39940Y409033D01*
X40519Y409368D01*
X41165Y409541D01*
X53001Y409541D01*
X53001Y400999D01*
X38959Y400999D01*
G37*
%LPD*%
%LPC*%
G36*
X412699Y354459D02*
X412699Y354459D01*
X412699Y368501D01*
X421241Y368501D01*
X421241Y356665D01*
X421068Y356019D01*
X420733Y355440D01*
X420260Y354967D01*
X419681Y354632D01*
X419035Y354459D01*
X412699Y354459D01*
G37*
%LPD*%
%LPC*%
G36*
X595499Y346459D02*
X595499Y346459D01*
X595499Y360501D01*
X604041Y360501D01*
X604041Y348665D01*
X603868Y348019D01*
X603533Y347440D01*
X603060Y346967D01*
X602481Y346632D01*
X601835Y346459D01*
X595499Y346459D01*
G37*
%LPD*%
%LPC*%
G36*
X223959Y337999D02*
X223959Y337999D01*
X223959Y344335D01*
X224132Y344981D01*
X224467Y345560D01*
X224940Y346033D01*
X225519Y346368D01*
X226165Y346541D01*
X238001Y346541D01*
X238001Y337999D01*
X223959Y337999D01*
G37*
%LPD*%
%LPC*%
G36*
X56999Y388459D02*
X56999Y388459D01*
X56999Y397001D01*
X71041Y397001D01*
X71041Y390665D01*
X70868Y390019D01*
X70533Y389440D01*
X70060Y388967D01*
X69481Y388632D01*
X68835Y388459D01*
X56999Y388459D01*
G37*
%LPD*%
%LPC*%
G36*
X400159Y372499D02*
X400159Y372499D01*
X400159Y384335D01*
X400332Y384981D01*
X400667Y385560D01*
X401140Y386033D01*
X401719Y386368D01*
X402365Y386541D01*
X408701Y386541D01*
X408701Y372499D01*
X400159Y372499D01*
G37*
%LPD*%
%LPC*%
G36*
X582959Y364499D02*
X582959Y364499D01*
X582959Y376335D01*
X583132Y376981D01*
X583467Y377560D01*
X583940Y378033D01*
X584519Y378368D01*
X585165Y378541D01*
X591501Y378541D01*
X591501Y364499D01*
X582959Y364499D01*
G37*
%LPD*%
%LPC*%
G36*
X585165Y346459D02*
X585165Y346459D01*
X584519Y346632D01*
X583940Y346967D01*
X583467Y347440D01*
X583132Y348019D01*
X582959Y348665D01*
X582959Y360501D01*
X591501Y360501D01*
X591501Y346459D01*
X585165Y346459D01*
G37*
%LPD*%
%LPC*%
G36*
X41165Y388459D02*
X41165Y388459D01*
X40519Y388632D01*
X39940Y388967D01*
X39467Y389440D01*
X39132Y390019D01*
X38959Y390665D01*
X38959Y397001D01*
X53001Y397001D01*
X53001Y388459D01*
X41165Y388459D01*
G37*
%LPD*%
%LPC*%
G36*
X402365Y354459D02*
X402365Y354459D01*
X401719Y354632D01*
X401140Y354967D01*
X400667Y355440D01*
X400332Y356019D01*
X400159Y356665D01*
X400159Y368501D01*
X408701Y368501D01*
X408701Y354459D01*
X402365Y354459D01*
G37*
%LPD*%
%LPC*%
G36*
X226165Y325459D02*
X226165Y325459D01*
X225519Y325632D01*
X224940Y325967D01*
X224467Y326440D01*
X224132Y327019D01*
X223959Y327665D01*
X223959Y334001D01*
X238001Y334001D01*
X238001Y325459D01*
X226165Y325459D01*
G37*
%LPD*%
%LPC*%
G36*
X331999Y-41999D02*
X331999Y-41999D01*
X342380Y-41999D01*
X342248Y-42838D01*
X342232Y-42937D01*
X341622Y-44814D01*
X340726Y-46573D01*
X339565Y-48170D01*
X338170Y-49565D01*
X336573Y-50726D01*
X334814Y-51622D01*
X332937Y-52232D01*
X331999Y-52380D01*
X331999Y-41999D01*
G37*
%LPD*%
%LPC*%
G36*
X464499Y-41999D02*
X464499Y-41999D01*
X474880Y-41999D01*
X474748Y-42838D01*
X474732Y-42937D01*
X474122Y-44814D01*
X473226Y-46573D01*
X472065Y-48170D01*
X470670Y-49565D01*
X469073Y-50726D01*
X467314Y-51622D01*
X465437Y-52232D01*
X464499Y-52380D01*
X464499Y-41999D01*
G37*
%LPD*%
%LPC*%
G36*
X327063Y-52232D02*
X327063Y-52232D01*
X325186Y-51622D01*
X323427Y-50726D01*
X321830Y-49565D01*
X320435Y-48170D01*
X319274Y-46573D01*
X318378Y-44814D01*
X317768Y-42937D01*
X317620Y-41999D01*
X328001Y-41999D01*
X328001Y-52380D01*
X327063Y-52232D01*
G37*
%LPD*%
%LPC*%
G36*
X459563Y-52232D02*
X459563Y-52232D01*
X457686Y-51622D01*
X455927Y-50726D01*
X454330Y-49565D01*
X452935Y-48170D01*
X451774Y-46573D01*
X450878Y-44814D01*
X450268Y-42937D01*
X450120Y-41999D01*
X460501Y-41999D01*
X460501Y-52380D01*
X459563Y-52232D01*
G37*
%LPD*%
%LPC*%
G36*
X464499Y-38001D02*
X464499Y-38001D01*
X464499Y-27620D01*
X465437Y-27768D01*
X467314Y-28378D01*
X469073Y-29274D01*
X470670Y-30435D01*
X472065Y-31830D01*
X473226Y-33427D01*
X474122Y-35186D01*
X474732Y-37063D01*
X474880Y-38001D01*
X464499Y-38001D01*
G37*
%LPD*%
%LPC*%
G36*
X331999Y-38001D02*
X331999Y-38001D01*
X331999Y-27620D01*
X332937Y-27768D01*
X334814Y-28378D01*
X336573Y-29274D01*
X338170Y-30435D01*
X339565Y-31830D01*
X340726Y-33427D01*
X341622Y-35186D01*
X342232Y-37063D01*
X342380Y-38001D01*
X331999Y-38001D01*
G37*
%LPD*%
%LPC*%
G36*
X450120Y-38001D02*
X450120Y-38001D01*
X450254Y-37151D01*
X450254Y-37150D01*
X450268Y-37063D01*
X450878Y-35186D01*
X451774Y-33427D01*
X452935Y-31830D01*
X454330Y-30435D01*
X455927Y-29274D01*
X457686Y-28378D01*
X459563Y-27768D01*
X460501Y-27620D01*
X460501Y-38001D01*
X450120Y-38001D01*
G37*
%LPD*%
%LPC*%
G36*
X317620Y-38001D02*
X317620Y-38001D01*
X317754Y-37151D01*
X317754Y-37150D01*
X317768Y-37063D01*
X318378Y-35186D01*
X319274Y-33427D01*
X320435Y-31830D01*
X321830Y-30435D01*
X323427Y-29274D01*
X325186Y-28378D01*
X327063Y-27768D01*
X328001Y-27620D01*
X328001Y-38001D01*
X317620Y-38001D01*
G37*
%LPD*%
%LPC*%
G36*
X46651Y435999D02*
X46651Y435999D01*
X46651Y441112D01*
X46642Y441176D01*
X46643Y441240D01*
X46622Y441315D01*
X46611Y441391D01*
X46585Y441450D01*
X46568Y441512D01*
X46527Y441578D01*
X46495Y441648D01*
X46453Y441697D01*
X46420Y441752D01*
X46362Y441804D01*
X46312Y441862D01*
X46258Y441898D01*
X46251Y441904D01*
X46251Y449201D01*
X53211Y449201D01*
X53011Y448195D01*
X52363Y446632D01*
X51423Y445225D01*
X50227Y444029D01*
X49532Y443565D01*
X49444Y443485D01*
X49352Y443410D01*
X49339Y443392D01*
X49322Y443376D01*
X49259Y443275D01*
X49192Y443178D01*
X49185Y443156D01*
X49173Y443137D01*
X49141Y443022D01*
X49104Y442910D01*
X49103Y442887D01*
X49097Y442865D01*
X49098Y442747D01*
X49094Y442628D01*
X49099Y442606D01*
X49100Y442583D01*
X49134Y442470D01*
X49163Y442355D01*
X49174Y442335D01*
X49181Y442313D01*
X49245Y442214D01*
X49305Y442112D01*
X49321Y442097D01*
X49334Y442077D01*
X49476Y441955D01*
X49532Y441903D01*
X50627Y441171D01*
X51823Y439975D01*
X52763Y438568D01*
X53411Y437005D01*
X53611Y435999D01*
X46651Y435999D01*
G37*
%LPD*%
%LPC*%
G36*
X534499Y333999D02*
X534499Y333999D01*
X534499Y340041D01*
X540335Y340041D01*
X540981Y339868D01*
X541560Y339533D01*
X542033Y339060D01*
X542368Y338481D01*
X542541Y337835D01*
X542541Y333999D01*
X534499Y333999D01*
G37*
%LPD*%
%LPC*%
G36*
X154499Y341499D02*
X154499Y341499D01*
X154499Y347541D01*
X160335Y347541D01*
X160981Y347368D01*
X161560Y347033D01*
X162033Y346560D01*
X162368Y345981D01*
X162541Y345335D01*
X162541Y341499D01*
X154499Y341499D01*
G37*
%LPD*%
%LPC*%
G36*
X719499Y336499D02*
X719499Y336499D01*
X719499Y342541D01*
X725335Y342541D01*
X725981Y342368D01*
X726560Y342033D01*
X727033Y341560D01*
X727368Y340981D01*
X727541Y340335D01*
X727541Y336499D01*
X719499Y336499D01*
G37*
%LPD*%
%LPC*%
G36*
X336999Y333999D02*
X336999Y333999D01*
X336999Y340041D01*
X342835Y340041D01*
X343481Y339868D01*
X344060Y339533D01*
X344533Y339060D01*
X344868Y338481D01*
X345041Y337835D01*
X345041Y333999D01*
X336999Y333999D01*
G37*
%LPD*%
%LPC*%
G36*
X336999Y323959D02*
X336999Y323959D01*
X336999Y330001D01*
X345041Y330001D01*
X345041Y326165D01*
X344868Y325519D01*
X344533Y324940D01*
X344060Y324467D01*
X343481Y324132D01*
X342835Y323959D01*
X336999Y323959D01*
G37*
%LPD*%
%LPC*%
G36*
X719499Y326459D02*
X719499Y326459D01*
X719499Y332501D01*
X727541Y332501D01*
X727541Y328665D01*
X727368Y328019D01*
X727033Y327440D01*
X726560Y326967D01*
X725981Y326632D01*
X725335Y326459D01*
X719499Y326459D01*
G37*
%LPD*%
%LPC*%
G36*
X154499Y331459D02*
X154499Y331459D01*
X154499Y337501D01*
X162541Y337501D01*
X162541Y333665D01*
X162368Y333019D01*
X162033Y332440D01*
X161560Y331967D01*
X160981Y331632D01*
X160335Y331459D01*
X154499Y331459D01*
G37*
%LPD*%
%LPC*%
G36*
X534499Y323959D02*
X534499Y323959D01*
X534499Y330001D01*
X542541Y330001D01*
X542541Y326165D01*
X542368Y325519D01*
X542033Y324940D01*
X541560Y324467D01*
X540981Y324132D01*
X540335Y323959D01*
X534499Y323959D01*
G37*
%LPD*%
%LPC*%
G36*
X396251Y2199D02*
X396251Y2199D01*
X396251Y9159D01*
X397257Y8959D01*
X398820Y8311D01*
X400227Y7371D01*
X401423Y6175D01*
X402363Y4768D01*
X403011Y3205D01*
X403211Y2199D01*
X396251Y2199D01*
G37*
%LPD*%
%LPC*%
G36*
X416251Y2199D02*
X416251Y2199D01*
X416251Y9159D01*
X417257Y8959D01*
X418820Y8311D01*
X420227Y7371D01*
X421423Y6175D01*
X422363Y4768D01*
X423011Y3205D01*
X423211Y2199D01*
X416251Y2199D01*
G37*
%LPD*%
%LPC*%
G36*
X675651Y458299D02*
X675651Y458299D01*
X675651Y465259D01*
X676657Y465059D01*
X678220Y464411D01*
X679627Y463471D01*
X680823Y462275D01*
X681763Y460868D01*
X682411Y459305D01*
X682611Y458299D01*
X675651Y458299D01*
G37*
%LPD*%
%LPC*%
G36*
X46251Y452199D02*
X46251Y452199D01*
X46251Y459159D01*
X47257Y458959D01*
X48820Y458311D01*
X50227Y457371D01*
X51423Y456175D01*
X52363Y454768D01*
X53011Y453205D01*
X53211Y452199D01*
X46251Y452199D01*
G37*
%LPD*%
%LPC*%
G36*
X356251Y2199D02*
X356251Y2199D01*
X356251Y9159D01*
X357257Y8959D01*
X358820Y8311D01*
X360227Y7371D01*
X361423Y6175D01*
X362363Y4768D01*
X363011Y3205D01*
X363211Y2199D01*
X356251Y2199D01*
G37*
%LPD*%
%LPC*%
G36*
X436251Y2199D02*
X436251Y2199D01*
X436251Y9159D01*
X437257Y8959D01*
X438820Y8311D01*
X440227Y7371D01*
X441423Y6175D01*
X442363Y4768D01*
X443011Y3205D01*
X443211Y2199D01*
X436251Y2199D01*
G37*
%LPD*%
%LPC*%
G36*
X376251Y2199D02*
X376251Y2199D01*
X376251Y9159D01*
X377257Y8959D01*
X378820Y8311D01*
X380227Y7371D01*
X381423Y6175D01*
X382363Y4768D01*
X383011Y3205D01*
X383211Y2199D01*
X376251Y2199D01*
G37*
%LPD*%
%LPC*%
G36*
X665693Y458299D02*
X665693Y458299D01*
X665893Y459305D01*
X666541Y460868D01*
X667481Y462275D01*
X668677Y463471D01*
X670084Y464411D01*
X671647Y465059D01*
X672653Y465259D01*
X672653Y458299D01*
X665693Y458299D01*
G37*
%LPD*%
%LPC*%
G36*
X366293Y2199D02*
X366293Y2199D01*
X366493Y3205D01*
X367141Y4768D01*
X368081Y6175D01*
X369277Y7371D01*
X370684Y8311D01*
X372247Y8959D01*
X373253Y9159D01*
X373253Y2199D01*
X366293Y2199D01*
G37*
%LPD*%
%LPC*%
G36*
X386293Y2199D02*
X386293Y2199D01*
X386493Y3205D01*
X387141Y4768D01*
X388081Y6175D01*
X389277Y7371D01*
X390684Y8311D01*
X392247Y8959D01*
X393253Y9159D01*
X393253Y2199D01*
X386293Y2199D01*
G37*
%LPD*%
%LPC*%
G36*
X406293Y2199D02*
X406293Y2199D01*
X406493Y3205D01*
X407141Y4768D01*
X408081Y6175D01*
X409277Y7371D01*
X410684Y8311D01*
X412247Y8959D01*
X413253Y9159D01*
X413253Y2199D01*
X406293Y2199D01*
G37*
%LPD*%
%LPC*%
G36*
X46651Y433001D02*
X46651Y433001D01*
X53611Y433001D01*
X53411Y431995D01*
X52763Y430432D01*
X51823Y429025D01*
X50627Y427829D01*
X49220Y426889D01*
X47657Y426241D01*
X46651Y426041D01*
X46651Y433001D01*
G37*
%LPD*%
%LPC*%
G36*
X426293Y2199D02*
X426293Y2199D01*
X426493Y3205D01*
X427141Y4768D01*
X428081Y6175D01*
X429277Y7371D01*
X430684Y8311D01*
X432247Y8959D01*
X433253Y9159D01*
X433253Y2199D01*
X426293Y2199D01*
G37*
%LPD*%
%LPC*%
G36*
X346293Y2199D02*
X346293Y2199D01*
X346493Y3205D01*
X347141Y4768D01*
X348081Y6175D01*
X349277Y7371D01*
X350684Y8311D01*
X352247Y8959D01*
X353253Y9159D01*
X353253Y2199D01*
X346293Y2199D01*
G37*
%LPD*%
%LPC*%
G36*
X287247Y447141D02*
X287247Y447141D01*
X285684Y447789D01*
X284277Y448729D01*
X283081Y449925D01*
X282141Y451332D01*
X281493Y452895D01*
X281293Y453901D01*
X288253Y453901D01*
X288253Y446941D01*
X287247Y447141D01*
G37*
%LPD*%
%LPC*%
G36*
X481947Y447441D02*
X481947Y447441D01*
X480384Y448089D01*
X478977Y449029D01*
X477781Y450225D01*
X476841Y451632D01*
X476193Y453195D01*
X475993Y454201D01*
X482953Y454201D01*
X482953Y447241D01*
X481947Y447441D01*
G37*
%LPD*%
%LPC*%
G36*
X671647Y448541D02*
X671647Y448541D01*
X670084Y449189D01*
X668677Y450129D01*
X667481Y451325D01*
X666541Y452732D01*
X665893Y454295D01*
X665693Y455301D01*
X672653Y455301D01*
X672653Y448341D01*
X671647Y448541D01*
G37*
%LPD*%
%LPC*%
G36*
X416251Y-799D02*
X416251Y-799D01*
X423211Y-799D01*
X423011Y-1805D01*
X422363Y-3368D01*
X421423Y-4775D01*
X420227Y-5971D01*
X418820Y-6911D01*
X417257Y-7559D01*
X416251Y-7759D01*
X416251Y-799D01*
G37*
%LPD*%
%LPC*%
G36*
X396251Y-799D02*
X396251Y-799D01*
X403211Y-799D01*
X403011Y-1805D01*
X402363Y-3368D01*
X401423Y-4775D01*
X400227Y-5971D01*
X398820Y-6911D01*
X397257Y-7559D01*
X396251Y-7759D01*
X396251Y-799D01*
G37*
%LPD*%
%LPC*%
G36*
X376251Y-799D02*
X376251Y-799D01*
X383211Y-799D01*
X383011Y-1805D01*
X382363Y-3368D01*
X381423Y-4775D01*
X380227Y-5971D01*
X378820Y-6911D01*
X377257Y-7559D01*
X376251Y-7759D01*
X376251Y-799D01*
G37*
%LPD*%
%LPC*%
G36*
X356251Y-799D02*
X356251Y-799D01*
X363211Y-799D01*
X363011Y-1805D01*
X362363Y-3368D01*
X361423Y-4775D01*
X360227Y-5971D01*
X358820Y-6911D01*
X357257Y-7559D01*
X356251Y-7759D01*
X356251Y-799D01*
G37*
%LPD*%
%LPC*%
G36*
X436251Y-799D02*
X436251Y-799D01*
X443211Y-799D01*
X443011Y-1805D01*
X442363Y-3368D01*
X441423Y-4775D01*
X440227Y-5971D01*
X438820Y-6911D01*
X437257Y-7559D01*
X436251Y-7759D01*
X436251Y-799D01*
G37*
%LPD*%
%LPC*%
G36*
X412247Y-7559D02*
X412247Y-7559D01*
X410684Y-6911D01*
X409277Y-5971D01*
X408081Y-4775D01*
X407141Y-3368D01*
X406493Y-1805D01*
X406293Y-799D01*
X413253Y-799D01*
X413253Y-7759D01*
X412247Y-7559D01*
G37*
%LPD*%
%LPC*%
G36*
X392247Y-7559D02*
X392247Y-7559D01*
X390684Y-6911D01*
X389277Y-5971D01*
X388081Y-4775D01*
X387141Y-3368D01*
X386493Y-1805D01*
X386293Y-799D01*
X393253Y-799D01*
X393253Y-7759D01*
X392247Y-7559D01*
G37*
%LPD*%
%LPC*%
G36*
X352247Y-7559D02*
X352247Y-7559D01*
X350684Y-6911D01*
X349277Y-5971D01*
X348081Y-4775D01*
X347141Y-3368D01*
X346493Y-1805D01*
X346293Y-799D01*
X353253Y-799D01*
X353253Y-7759D01*
X352247Y-7559D01*
G37*
%LPD*%
%LPC*%
G36*
X432247Y-7559D02*
X432247Y-7559D01*
X430684Y-6911D01*
X429277Y-5971D01*
X428081Y-4775D01*
X427141Y-3368D01*
X426493Y-1805D01*
X426293Y-799D01*
X433253Y-799D01*
X433253Y-7759D01*
X432247Y-7559D01*
G37*
%LPD*%
%LPC*%
G36*
X372247Y-7559D02*
X372247Y-7559D01*
X370684Y-6911D01*
X369277Y-5971D01*
X368081Y-4775D01*
X367141Y-3368D01*
X366493Y-1805D01*
X366293Y-799D01*
X373253Y-799D01*
X373253Y-7759D01*
X372247Y-7559D01*
G37*
%LPD*%
%LPC*%
G36*
X462499Y-40001D02*
X462499Y-40001D01*
X462499Y-39999D01*
X462501Y-39999D01*
X462501Y-40001D01*
X462499Y-40001D01*
G37*
%LPD*%
%LPC*%
G36*
X329999Y-40001D02*
X329999Y-40001D01*
X329999Y-39999D01*
X330001Y-39999D01*
X330001Y-40001D01*
X329999Y-40001D01*
G37*
%LPD*%
%LPC*%
G36*
X54999Y398999D02*
X54999Y398999D01*
X54999Y399001D01*
X55001Y399001D01*
X55001Y398999D01*
X54999Y398999D01*
G37*
%LPD*%
%LPC*%
G36*
X410699Y370499D02*
X410699Y370499D01*
X410699Y370501D01*
X410701Y370501D01*
X410701Y370499D01*
X410699Y370499D01*
G37*
%LPD*%
%LPC*%
G36*
X239999Y335999D02*
X239999Y335999D01*
X239999Y336001D01*
X240001Y336001D01*
X240001Y335999D01*
X239999Y335999D01*
G37*
%LPD*%
%LPC*%
G36*
X593499Y362499D02*
X593499Y362499D01*
X593499Y362501D01*
X593501Y362501D01*
X593501Y362499D01*
X593499Y362499D01*
G37*
%LPD*%
D10*
X346884Y-77290D02*
X331292Y-77290D01*
X300108Y-77290D02*
X284516Y-77290D01*
X292312Y-69494D02*
X292312Y-85086D01*
X463792Y-77290D02*
X479384Y-77290D01*
X432608Y-77290D02*
X417016Y-77290D01*
X424812Y-69494D02*
X424812Y-85086D01*
X523984Y26016D02*
X523984Y49404D01*
X512290Y49404D01*
X508392Y45506D01*
X508392Y41608D01*
X512290Y37710D01*
X508392Y33812D01*
X508392Y29914D01*
X512290Y26016D01*
X523984Y26016D01*
X523984Y37710D02*
X512290Y37710D01*
X500596Y41608D02*
X500596Y26016D01*
X500596Y33812D02*
X492800Y41608D01*
X488902Y41608D01*
X481106Y41608D02*
X481106Y29914D01*
X477208Y26016D01*
X465514Y26016D01*
X465514Y41608D01*
X457718Y49404D02*
X453820Y49404D01*
X453820Y26016D01*
X457718Y26016D02*
X449922Y26016D01*
X438228Y41608D02*
X430432Y41608D01*
X426534Y37710D01*
X426534Y26016D01*
X438228Y26016D01*
X442126Y29914D01*
X438228Y33812D01*
X426534Y33812D01*
X418738Y41608D02*
X414840Y41608D01*
X414840Y26016D01*
X418738Y26016D02*
X410942Y26016D01*
X414840Y49404D02*
X414840Y53302D01*
X403146Y26016D02*
X391452Y26016D01*
X387554Y29914D01*
X391452Y33812D01*
X399248Y33812D01*
X403146Y37710D01*
X399248Y41608D01*
X387554Y41608D01*
X356370Y45506D02*
X356370Y29914D01*
X356370Y45506D02*
X352472Y49404D01*
X344676Y49404D01*
X340778Y45506D01*
X340778Y29914D01*
X344676Y26016D01*
X352472Y26016D01*
X356370Y29914D01*
X340778Y45506D01*
X321288Y49404D02*
X321288Y26016D01*
X332982Y37710D02*
X321288Y49404D01*
X317390Y37710D02*
X332982Y37710D01*
X309594Y26016D02*
X294002Y49404D01*
X286206Y41608D02*
X278410Y49404D01*
X278410Y26016D01*
X286206Y26016D02*
X270614Y26016D01*
X262818Y29914D02*
X258920Y26016D01*
X251124Y26016D01*
X247226Y29914D01*
X247226Y45506D01*
X251124Y49404D01*
X258920Y49404D01*
X262818Y45506D01*
X262818Y41608D01*
X258920Y37710D01*
X247226Y37710D01*
D11*
X450405Y334300D03*
X478845Y334300D03*
D12*
X591500Y427200D03*
X497500Y427200D03*
D13*
X438700Y370500D03*
X410700Y370500D03*
D14*
X330000Y-40000D03*
X300000Y-40000D03*
X462500Y-40000D03*
X432500Y-40000D03*
D15*
X455500Y393000D03*
X465000Y393000D03*
X474500Y393000D03*
X474500Y367000D03*
X455500Y367000D03*
D16*
X510000Y353000D03*
X510000Y332000D03*
X532500Y332000D03*
X532500Y353000D03*
D17*
X455000Y427500D03*
X455000Y472500D03*
D11*
X25780Y312500D03*
X54220Y312500D03*
D12*
X212000Y430000D03*
X118000Y430000D03*
D18*
X55000Y371000D03*
X55000Y399000D03*
D15*
X80500Y395500D03*
X90000Y395500D03*
X99500Y395500D03*
X99500Y369500D03*
X80500Y369500D03*
D16*
X130000Y360500D03*
X130000Y339500D03*
X152500Y339500D03*
X152500Y360500D03*
D17*
X77500Y430000D03*
X77500Y475000D03*
D11*
X640780Y322500D03*
X669220Y322500D03*
D12*
X782000Y427500D03*
X688000Y427500D03*
D13*
X621500Y362500D03*
X593500Y362500D03*
D15*
X645500Y388000D03*
X655000Y388000D03*
X664500Y388000D03*
X664500Y362000D03*
X645500Y362000D03*
D16*
X695000Y355500D03*
X695000Y334500D03*
X717500Y334500D03*
X717500Y355500D03*
D17*
X645000Y427500D03*
X645000Y472500D03*
D11*
X260780Y307500D03*
X289220Y307500D03*
D12*
X397000Y427500D03*
X303000Y427500D03*
D18*
X240000Y364000D03*
X240000Y336000D03*
D15*
X265500Y390500D03*
X275000Y390500D03*
X284500Y390500D03*
X284500Y364500D03*
X265500Y364500D03*
D16*
X315000Y353000D03*
X315000Y332000D03*
X335000Y332000D03*
X335000Y353000D03*
D17*
X261700Y427500D03*
X261700Y472500D03*
D19*
X55000Y424652D02*
X55000Y399000D01*
D20*
X45152Y434500D03*
X289752Y455400D03*
X484452Y455700D03*
X674152Y456800D03*
X44752Y450700D03*
X354752Y700D03*
X374752Y700D03*
X394752Y700D03*
X414752Y700D03*
X434752Y700D03*
X20000Y350000D03*
D21*
X19900Y350100D02*
X19900Y377500D01*
X19900Y350100D02*
X20000Y350000D01*
X19900Y377500D02*
X19900Y458682D01*
X41218Y480000D01*
X235000Y480000D01*
D20*
X20000Y337500D03*
D21*
X235000Y480000D02*
X440000Y480000D01*
X20000Y350000D02*
X20000Y337500D01*
D22*
X80500Y369500D02*
X80500Y378000D01*
X83540Y381040D01*
X104545Y381040D02*
X115290Y370295D01*
X115290Y354210D01*
X130000Y339500D01*
X104545Y381040D02*
X83540Y381040D01*
X20780Y349220D02*
X20780Y317500D01*
X25780Y312500D01*
X20780Y349220D02*
X20000Y350000D01*
X26400Y371000D02*
X55000Y371000D01*
X26400Y371000D02*
X19900Y377500D01*
X55000Y371000D02*
X79000Y371000D01*
X80500Y369500D01*
D23*
X232500Y365000D02*
X235000Y367500D01*
X232500Y365000D02*
X233500Y364000D01*
X240000Y364000D01*
X235000Y367500D02*
X235000Y480000D01*
D24*
X265500Y364500D02*
X265400Y364400D01*
X265000Y364000D01*
X233500Y364000D01*
D22*
X292500Y354500D02*
X315000Y332000D01*
X292500Y354500D02*
X292500Y355915D01*
X292790Y356205D01*
X292790Y372795D02*
X288085Y377500D01*
X292790Y372795D02*
X292790Y356205D01*
X288085Y377500D02*
X270000Y377500D01*
X265500Y373000D01*
X265500Y364500D01*
X265400Y327900D02*
X259040Y321540D01*
X259040Y309240D01*
X260780Y307500D01*
X265400Y327900D02*
X265400Y364400D01*
D25*
X261700Y472500D02*
X254200Y480000D01*
X235000Y480000D01*
X77500Y475000D02*
X72500Y480000D01*
X41218Y480000D01*
D23*
X438700Y388873D02*
X438700Y370500D01*
X438700Y388873D02*
X430920Y396653D01*
X430920Y470920D01*
X440000Y480000D01*
D22*
X442200Y367000D02*
X455500Y367000D01*
X442200Y367000D02*
X438700Y370500D01*
X455500Y367000D02*
X455500Y375500D01*
X458540Y378540D02*
X479545Y378540D01*
X496960Y361125D01*
X458540Y378540D02*
X455500Y375500D01*
X455500Y351895D02*
X450405Y346800D01*
X450405Y334300D01*
X455500Y351895D02*
X455500Y367000D01*
D21*
X440000Y480000D02*
X590000Y480000D01*
D23*
X621500Y448500D02*
X621500Y362500D01*
X621500Y448500D02*
X608750Y461250D01*
X590000Y480000D01*
D24*
X621500Y362500D02*
X622000Y362000D01*
X455000Y472500D02*
X447500Y472500D01*
X440000Y480000D01*
D22*
X645500Y362000D02*
X645500Y343000D01*
X640780Y338280D02*
X640780Y322500D01*
X640780Y338280D02*
X645500Y343000D01*
X645000Y362500D02*
X621500Y362500D01*
X645000Y362500D02*
X645500Y362000D01*
X672790Y356710D02*
X695000Y334500D01*
X672790Y356710D02*
X672790Y370295D01*
X668085Y375000D01*
X650000Y375000D01*
X645500Y370500D02*
X645500Y362000D01*
X645500Y370500D02*
X650000Y375000D01*
X510000Y332000D02*
X505500Y332000D01*
X497085Y340415D02*
X497085Y341855D01*
X496960Y341980D01*
X496960Y361125D01*
X497085Y340415D02*
X505500Y332000D01*
D23*
X620000Y472500D02*
X645000Y472500D01*
X620000Y472500D02*
X608750Y461250D01*
D22*
X510000Y385000D02*
X510000Y353000D01*
X502000Y393000D02*
X474500Y393000D01*
X502000Y393000D02*
X510000Y385000D01*
X510000Y353000D02*
X532500Y353000D01*
X474500Y353000D02*
X474500Y367000D01*
X478845Y348655D02*
X478845Y334300D01*
X478845Y348655D02*
X474500Y353000D01*
D21*
X478845Y334300D02*
X478845Y243845D01*
X372500Y137500D01*
D20*
X372500Y137500D03*
X427500Y137500D03*
D21*
X565000Y275000D01*
X565000Y412500D01*
X579700Y427200D01*
X591500Y427200D01*
D22*
X455500Y427000D02*
X455500Y393000D01*
X455500Y427000D02*
X455000Y427500D01*
D25*
X455700Y427200D02*
X497500Y427200D01*
X455700Y427200D02*
X455500Y427000D01*
D24*
X152500Y360500D02*
X130000Y360500D01*
D22*
X130000Y390000D01*
X124500Y395500D02*
X99500Y395500D01*
X124500Y395500D02*
X130000Y390000D01*
D20*
X98300Y345000D03*
D21*
X98300Y325800D01*
X85000Y312500D01*
X54220Y312500D01*
D22*
X99500Y346200D02*
X99500Y369500D01*
X99500Y346200D02*
X98300Y345000D01*
D20*
X100000Y57500D03*
D21*
X147500Y105000D01*
X147500Y257500D01*
X197000Y307000D01*
X197000Y390000D01*
X212000Y405000D02*
X212000Y430000D01*
X212000Y405000D02*
X197000Y390000D01*
D22*
X80500Y395500D02*
X80500Y427000D01*
X77500Y430000D01*
D25*
X118000Y430000D01*
D22*
X665000Y387500D02*
X677500Y387500D01*
X665000Y387500D02*
X664500Y388000D01*
X677500Y387500D02*
X695000Y370000D01*
X695000Y355500D01*
X717500Y355500D01*
X664500Y362000D02*
X664500Y345500D01*
X669220Y340780D01*
X669220Y322500D01*
D20*
X664500Y345500D03*
X700000Y57500D03*
D21*
X782500Y140000D01*
X782500Y435000D01*
D23*
X782500Y428000D02*
X782000Y427500D01*
X782500Y428000D02*
X782500Y435000D01*
D22*
X645500Y427000D02*
X645500Y388000D01*
X645500Y427000D02*
X645000Y427500D01*
D25*
X646000Y427500D02*
X688000Y427500D01*
X646000Y427500D02*
X645500Y427000D01*
D22*
X315000Y353000D02*
X312500Y355500D01*
X312500Y382500D01*
X304500Y390500D01*
X284500Y390500D01*
X315000Y353000D02*
X335000Y353000D01*
X289220Y326353D02*
X284420Y331153D01*
X289220Y326353D02*
X289220Y307500D01*
X284420Y331153D02*
X284420Y359262D01*
X284500Y359342D02*
X284500Y364500D01*
X284500Y359342D02*
X284420Y359262D01*
D20*
X379600Y209300D03*
D21*
X353200Y209300D01*
X289220Y273280D01*
X289220Y307500D01*
X400000Y297500D02*
X400000Y320000D01*
X365000Y355000D01*
X365000Y417500D01*
X375000Y427500D01*
X397000Y427500D01*
D20*
X400000Y297500D03*
D25*
X303000Y427500D02*
X261700Y427500D01*
D22*
X265500Y423700D01*
X265500Y390500D01*
M02*
