G04 EAGLE Gerber RS-274X export*
G75*
%MOMM*%
%FSLAX34Y34*%
%LPD*%
%INSoldermask Top*%
%IPPOS*%
%AMOC8*
5,1,8,0,0,1.08239X$1,22.5*%
G01*
%ADD10C,4.703200*%
%ADD11C,3.503200*%
%ADD12C,0.293938*%
%ADD13R,3.703200X1.703200*%
%ADD14R,3.703200X0.903200*%
%ADD15R,2.903200X1.203200*%
%ADD16R,2.903200X0.703200*%
%ADD17R,3.003200X1.203200*%
%ADD18R,3.003200X0.753200*%
%ADD19C,2.203200*%
%ADD20C,1.303200*%
%ADD21C,1.412800*%


D10*
X200000Y200000D03*
X600000Y200000D03*
D11*
X330000Y290000D03*
X520000Y100000D03*
D12*
X406297Y145797D02*
X402703Y145797D01*
X406297Y145797D02*
X406297Y129203D01*
X402703Y129203D01*
X402703Y145797D01*
X402703Y131995D02*
X406297Y131995D01*
X406297Y134787D02*
X402703Y134787D01*
X402703Y137579D02*
X406297Y137579D01*
X406297Y140371D02*
X402703Y140371D01*
X402703Y143163D02*
X406297Y143163D01*
X397297Y145797D02*
X393703Y145797D01*
X397297Y145797D02*
X397297Y129203D01*
X393703Y129203D01*
X393703Y145797D01*
X393703Y131995D02*
X397297Y131995D01*
X397297Y134787D02*
X393703Y134787D01*
X393703Y137579D02*
X397297Y137579D01*
X397297Y140371D02*
X393703Y140371D01*
X393703Y143163D02*
X397297Y143163D01*
D13*
X100000Y300000D03*
D14*
X100000Y314000D03*
X100000Y286000D03*
D13*
X100000Y100000D03*
D14*
X100000Y114000D03*
X100000Y86000D03*
D15*
X700000Y300000D03*
D16*
X700000Y311000D03*
X700000Y289000D03*
D15*
X700000Y100000D03*
D16*
X700000Y111000D03*
X700000Y89000D03*
D17*
X400000Y255000D03*
D18*
X400000Y243750D03*
X400000Y266250D03*
D19*
X330000Y-40000D03*
X300000Y-40000D03*
D20*
X270000Y-59600D03*
X360000Y-59600D03*
D19*
X462500Y-40000D03*
X432500Y-40000D03*
D20*
X402500Y-59600D03*
X492500Y-59600D03*
D21*
X45152Y434500D03*
X289752Y455400D03*
X484452Y455700D03*
X674152Y456800D03*
X44752Y450700D03*
X354752Y700D03*
X374752Y700D03*
X394752Y700D03*
X414752Y700D03*
X434752Y700D03*
X20000Y350000D03*
X20000Y337500D03*
X372500Y137500D03*
X427500Y137500D03*
X98300Y345000D03*
X100000Y57500D03*
X664500Y345500D03*
X700000Y57500D03*
X379600Y209300D03*
X400000Y297500D03*
M02*
