G04 EAGLE Gerber RS-274X export*
G75*
%MOMM*%
%FSLAX34Y34*%
%LPD*%
%INSoldermask Bottom*%
%IPPOS*%
%AMOC8*
5,1,8,0,0,1.08239X$1,22.5*%
G01*
%ADD10C,4.703200*%
%ADD11C,3.503200*%
%ADD12R,1.803200X2.006200*%
%ADD13R,1.983200X3.763200*%
%ADD14R,1.803200X2.903200*%
%ADD15C,2.203200*%
%ADD16C,1.303200*%
%ADD17R,0.753200X1.403200*%
%ADD18R,1.703200X1.303200*%
%ADD19R,1.903200X3.203200*%
%ADD20R,2.903200X1.803200*%
%ADD21C,1.412800*%


D10*
X200000Y200000D03*
X600000Y200000D03*
D11*
X330000Y290000D03*
X520000Y100000D03*
D12*
X450405Y334300D03*
X478845Y334300D03*
D13*
X591500Y427200D03*
X497500Y427200D03*
D14*
X438700Y370500D03*
X410700Y370500D03*
D15*
X330000Y-40000D03*
X300000Y-40000D03*
D16*
X270000Y-59600D03*
X360000Y-59600D03*
D15*
X462500Y-40000D03*
X432500Y-40000D03*
D16*
X402500Y-59600D03*
X492500Y-59600D03*
D17*
X455500Y393000D03*
X465000Y393000D03*
X474500Y393000D03*
X474500Y367000D03*
X455500Y367000D03*
D18*
X510000Y353000D03*
X510000Y332000D03*
X532500Y332000D03*
X532500Y353000D03*
D19*
X455000Y427500D03*
X455000Y472500D03*
D12*
X25780Y312500D03*
X54220Y312500D03*
D13*
X212000Y430000D03*
X118000Y430000D03*
D20*
X55000Y371000D03*
X55000Y399000D03*
D17*
X80500Y395500D03*
X90000Y395500D03*
X99500Y395500D03*
X99500Y369500D03*
X80500Y369500D03*
D18*
X130000Y360500D03*
X130000Y339500D03*
X152500Y339500D03*
X152500Y360500D03*
D19*
X77500Y430000D03*
X77500Y475000D03*
D12*
X640780Y322500D03*
X669220Y322500D03*
D13*
X782000Y427500D03*
X688000Y427500D03*
D14*
X621500Y362500D03*
X593500Y362500D03*
D17*
X645500Y388000D03*
X655000Y388000D03*
X664500Y388000D03*
X664500Y362000D03*
X645500Y362000D03*
D18*
X695000Y355500D03*
X695000Y334500D03*
X717500Y334500D03*
X717500Y355500D03*
D19*
X645000Y427500D03*
X645000Y472500D03*
D12*
X260780Y307500D03*
X289220Y307500D03*
D13*
X397000Y427500D03*
X303000Y427500D03*
D20*
X240000Y364000D03*
X240000Y336000D03*
D17*
X265500Y390500D03*
X275000Y390500D03*
X284500Y390500D03*
X284500Y364500D03*
X265500Y364500D03*
D18*
X315000Y353000D03*
X315000Y332000D03*
X335000Y332000D03*
X335000Y353000D03*
D19*
X261700Y427500D03*
X261700Y472500D03*
D21*
X45152Y434500D03*
X289752Y455400D03*
X484452Y455700D03*
X674152Y456800D03*
X44752Y450700D03*
X354752Y700D03*
X374752Y700D03*
X394752Y700D03*
X414752Y700D03*
X434752Y700D03*
X20000Y350000D03*
X20000Y337500D03*
X372500Y137500D03*
X427500Y137500D03*
X98300Y345000D03*
X100000Y57500D03*
X664500Y345500D03*
X700000Y57500D03*
X379600Y209300D03*
X400000Y297500D03*
M02*
