G75*
G70*
%OFA0B0*%
%FSLAX24Y24*%
%IPPOS*%
%LPD*%
%AMOC8*
5,1,8,0,0,1.08239X$1,22.5*
%
%ADD10C,0.1339*%
%ADD11C,0.0749*%
%ADD12R,0.0840X0.0840*%
%ADD13C,0.0840*%
%ADD14C,0.1040*%
%ADD15C,0.1540*%
%ADD16C,0.0740*%
%ADD17C,0.0555*%
%ADD18C,0.1221*%
%ADD19R,0.0780X0.0780*%
%ADD20C,0.0780*%
%ADD21R,0.0591X0.0434*%
%ADD22R,0.0631X0.0473*%
%ADD23C,0.0690*%
%ADD24R,0.0690X0.0690*%
%ADD25R,0.0650X0.0552*%
D10*
X001725Y001725D03*
X033615Y001725D03*
X001725Y019048D03*
X033615Y019048D03*
D11*
X009205Y010091D03*
X007926Y010091D03*
X006646Y010091D03*
X009205Y003201D03*
X006646Y001823D03*
D12*
X002611Y007630D03*
X024658Y002414D03*
X029678Y002512D03*
X011567Y002512D03*
D13*
X002611Y005662D03*
X026626Y002414D03*
X031056Y002512D03*
X012945Y002512D03*
D14*
X015402Y007209D03*
X015402Y014209D03*
D15*
X033402Y007209D03*
X033402Y014209D03*
D16*
X027902Y006709D03*
X026902Y006709D03*
X025902Y006709D03*
X024902Y006709D03*
X023902Y006709D03*
X022902Y006709D03*
X021902Y006709D03*
X020902Y006709D03*
X019902Y006709D03*
X018902Y006709D03*
X017902Y006709D03*
X016902Y006709D03*
X027902Y014709D03*
X026902Y014709D03*
X025902Y014709D03*
X024902Y014709D03*
X023902Y014709D03*
X022902Y014709D03*
X021902Y014709D03*
X020902Y014709D03*
X019902Y014709D03*
X018902Y014709D03*
X017902Y014709D03*
X016902Y014709D03*
X028902Y014709D03*
X029902Y014709D03*
X030902Y014709D03*
X031902Y014709D03*
D17*
X011985Y013315D03*
X011985Y014315D03*
X011985Y015315D03*
X011985Y016315D03*
D18*
X001626Y014815D03*
D19*
X022000Y002119D03*
X023378Y018998D03*
D20*
X021000Y002119D03*
X020000Y002119D03*
X019000Y002119D03*
X018000Y002119D03*
X017000Y002119D03*
X016000Y002119D03*
X015000Y002119D03*
X022378Y019098D03*
X021378Y018998D03*
X020378Y019098D03*
D21*
X021646Y004874D03*
X020780Y004500D03*
X020780Y005248D03*
D22*
X019737Y005288D03*
X019737Y004461D03*
D23*
X014225Y018056D03*
D24*
X014225Y019056D03*
D25*
X027424Y016784D03*
X030554Y016784D03*
X027424Y018556D03*
X030554Y018556D03*
M02*
