G75*
G70*
%OFA0B0*%
%FSLAX24Y24*%
%IPPOS*%
%LPD*%
%AMOC8*
5,1,8,0,0,1.08239X$1,22.5*
%
%ADD10C,0.0709*%
%ADD11R,0.0800X0.0800*%
%ADD12C,0.0800*%
%ADD13C,0.1500*%
%ADD14C,0.0700*%
%ADD15C,0.0515*%
%ADD16R,0.0740X0.0740*%
%ADD17C,0.0740*%
%ADD18R,0.0433X0.0591*%
%ADD19R,0.0394X0.0551*%
%ADD20C,0.0650*%
%ADD21R,0.0650X0.0650*%
%ADD22R,0.0217X0.0472*%
%ADD23R,0.0551X0.0394*%
%ADD24R,0.0472X0.0787*%
%ADD25R,0.0591X0.0433*%
%ADD26C,0.0660*%
%ADD27C,0.0100*%
%ADD28C,0.0240*%
%ADD29C,0.0356*%
D10*
X009205Y010091D03*
X007926Y010091D03*
X006646Y010091D03*
X009205Y003201D03*
X006646Y001823D03*
D11*
X002611Y007630D03*
X024658Y002414D03*
X029678Y002512D03*
X011567Y002512D03*
D12*
X002611Y005662D03*
X026626Y002414D03*
X031056Y002512D03*
X012945Y002512D03*
D13*
X033402Y007209D03*
X033402Y014209D03*
D14*
X027902Y006709D03*
X026902Y006709D03*
X025902Y006709D03*
X024902Y006709D03*
X023902Y006709D03*
X022902Y006709D03*
X021902Y006709D03*
X020902Y006709D03*
X019902Y006709D03*
X018902Y006709D03*
X017902Y006709D03*
X016902Y006709D03*
X027902Y014709D03*
X026902Y014709D03*
X025902Y014709D03*
X024902Y014709D03*
X023902Y014709D03*
X022902Y014709D03*
X021902Y014709D03*
X020902Y014709D03*
X019902Y014709D03*
X018902Y014709D03*
X017902Y014709D03*
X016902Y014709D03*
X028902Y014709D03*
X029902Y014709D03*
X030902Y014709D03*
X031902Y014709D03*
D15*
X011985Y013315D03*
X011985Y014315D03*
X011985Y015315D03*
X011985Y016315D03*
D16*
X022000Y002119D03*
X023378Y018998D03*
D17*
X021000Y002119D03*
X020000Y002119D03*
X019000Y002119D03*
X018000Y002119D03*
X017000Y002119D03*
X016000Y002119D03*
X015000Y002119D03*
X022378Y019098D03*
X021378Y018998D03*
X020378Y019098D03*
D18*
X020839Y015800D03*
X020012Y015800D03*
X017493Y018949D03*
X016666Y018949D03*
X009815Y013930D03*
X008989Y013930D03*
X006469Y013930D03*
X005642Y013930D03*
D19*
X006154Y011626D03*
X006528Y012493D03*
X005780Y012493D03*
X009304Y011626D03*
X009678Y012493D03*
X008930Y012493D03*
D20*
X014225Y018056D03*
D21*
X014225Y019056D03*
D22*
X029402Y006075D03*
X029776Y006075D03*
X030150Y006075D03*
X030150Y005052D03*
X029402Y005052D03*
X029776Y005052D03*
D23*
X027178Y005563D03*
X028044Y005189D03*
X028044Y005937D03*
D24*
X028556Y009796D03*
X029815Y009796D03*
X028556Y007827D03*
X029815Y007827D03*
D25*
X011567Y006075D03*
X011567Y005248D03*
X013142Y014304D03*
X013142Y015130D03*
D26*
X006646Y001823D02*
X006646Y003300D01*
X004284Y005662D01*
X002611Y005662D01*
X009205Y003201D02*
X009205Y004284D01*
X005859Y007630D01*
X002611Y007630D01*
D27*
X034927Y019909D02*
X035027Y019603D01*
X035039Y019441D01*
X035039Y001331D01*
X035027Y001170D01*
X034927Y000863D01*
X034737Y000602D01*
X034476Y000412D01*
X034170Y000313D01*
X034008Y000300D01*
X001331Y000300D01*
X001170Y000313D01*
X000863Y000412D01*
X000602Y000602D01*
X000412Y000863D01*
X000313Y001170D01*
X000300Y001331D01*
X000300Y019441D01*
X000313Y019603D01*
X000412Y019909D01*
X000602Y020170D01*
X000863Y020360D01*
X001170Y020460D01*
X001331Y020472D01*
X034008Y020472D01*
X034170Y020460D01*
X034476Y020360D01*
X034476Y020360D01*
X034737Y020170D01*
X034927Y019909D01*
X029168Y005803D02*
X029168Y005914D01*
X029126Y006016D01*
X029048Y006094D01*
X028945Y006137D01*
X028923Y006137D01*
X028903Y006157D01*
X028419Y006157D01*
X028419Y006176D01*
X028361Y006234D01*
X027738Y006234D01*
X027778Y006274D01*
X027812Y006259D01*
X027991Y006259D01*
X028157Y006328D01*
X028283Y006454D01*
X028352Y006620D01*
X028352Y006799D01*
X028283Y006964D01*
X028157Y007091D01*
X027991Y007159D01*
X027812Y007159D01*
X027647Y007091D01*
X027520Y006964D01*
X027452Y006799D01*
X027452Y006620D01*
X027466Y006585D01*
X026958Y006076D01*
X026958Y005860D01*
X026861Y005860D01*
X026802Y005802D01*
X026802Y005325D01*
X026861Y005267D01*
X027495Y005267D01*
X027553Y005325D01*
X027553Y005802D01*
X027495Y005860D01*
X027398Y005860D01*
X027398Y005894D01*
X027668Y006164D01*
X027668Y005699D01*
X027727Y005641D01*
X028361Y005641D01*
X028419Y005699D01*
X028419Y005717D01*
X028648Y005717D01*
X028654Y005701D01*
X028733Y005623D01*
X028835Y005581D01*
X028945Y005581D01*
X029048Y005623D01*
X029126Y005701D01*
X029168Y005803D01*
X013479Y015447D02*
X013362Y015447D01*
X013362Y016465D01*
X016777Y016465D01*
X017564Y017253D01*
X017693Y017382D01*
X017693Y018554D01*
X017750Y018554D01*
X017809Y018613D01*
X017809Y019073D01*
X018351Y019615D01*
X022321Y019615D01*
X022257Y019605D01*
X022179Y019580D01*
X022106Y019542D01*
X022040Y019494D01*
X021982Y019436D01*
X021934Y019370D01*
X021896Y019297D01*
X021871Y019219D01*
X021860Y019148D01*
X022328Y019148D01*
X022328Y019048D01*
X021860Y019048D01*
X021871Y018976D01*
X021896Y018898D01*
X021934Y018825D01*
X021982Y018759D01*
X022040Y018701D01*
X022106Y018653D01*
X022179Y018616D01*
X022257Y018590D01*
X022328Y018579D01*
X022328Y019048D01*
X022428Y019048D01*
X022428Y018579D01*
X022500Y018590D01*
X022578Y018616D01*
X022651Y018653D01*
X022717Y018701D01*
X022775Y018759D01*
X022823Y018825D01*
X022860Y018898D01*
X022886Y018976D01*
X022897Y019048D01*
X022428Y019048D01*
X022428Y019148D01*
X022897Y019148D01*
X022886Y019219D01*
X022860Y019297D01*
X022823Y019370D01*
X022775Y019436D01*
X022717Y019494D01*
X022651Y019542D01*
X022578Y019580D01*
X022500Y019605D01*
X022436Y019615D01*
X023158Y019615D01*
X023158Y019468D01*
X022967Y019468D01*
X022908Y019409D01*
X022908Y018586D01*
X022967Y018528D01*
X023790Y018528D01*
X023848Y018586D01*
X023848Y019409D01*
X023790Y019468D01*
X023598Y019468D01*
X023598Y019615D01*
X029980Y019615D01*
X030639Y018957D01*
X030639Y015082D01*
X030520Y014964D01*
X030452Y014799D01*
X030452Y014620D01*
X030520Y014454D01*
X030647Y014328D01*
X030812Y014259D01*
X030991Y014259D01*
X031157Y014328D01*
X031283Y014454D01*
X031352Y014620D01*
X031352Y014799D01*
X031283Y014964D01*
X031157Y015091D01*
X031079Y015123D01*
X031079Y019139D01*
X030950Y019268D01*
X030162Y020055D01*
X018169Y020055D01*
X018040Y019926D01*
X017459Y019344D01*
X017235Y019344D01*
X017176Y019286D01*
X017176Y018613D01*
X017235Y018554D01*
X017253Y018554D01*
X017253Y017564D01*
X016594Y016905D01*
X013315Y016905D01*
X013300Y016921D01*
X013197Y016964D01*
X013087Y016964D01*
X012985Y016921D01*
X012906Y016843D01*
X012864Y016741D01*
X012864Y016630D01*
X012906Y016528D01*
X012922Y016512D01*
X012922Y015447D01*
X012805Y015447D01*
X012747Y015388D01*
X012747Y014872D01*
X012805Y014814D01*
X013479Y014814D01*
X013537Y014872D01*
X013537Y015388D01*
X013479Y015447D01*
X013479Y014620D02*
X012805Y014620D01*
X012747Y014561D01*
X012747Y014524D01*
X012282Y014524D01*
X012187Y014618D01*
X012056Y014673D01*
X011914Y014673D01*
X011782Y014618D01*
X011682Y014518D01*
X011627Y014386D01*
X011627Y014244D01*
X011682Y014113D01*
X011782Y014012D01*
X011914Y013958D01*
X012056Y013958D01*
X012187Y014012D01*
X012258Y014084D01*
X012747Y014084D01*
X012747Y014046D01*
X012805Y013987D01*
X013167Y013987D01*
X014103Y013051D01*
X014232Y012922D01*
X018677Y012922D01*
X018693Y012906D01*
X018795Y012864D01*
X018906Y012864D01*
X019008Y012906D01*
X019087Y012985D01*
X019129Y013087D01*
X019129Y013197D01*
X019087Y013300D01*
X019008Y013378D01*
X018906Y013420D01*
X018795Y013420D01*
X018693Y013378D01*
X018677Y013362D01*
X014414Y013362D01*
X013537Y014239D01*
X013537Y014561D01*
X013479Y014620D01*
X030178Y002071D02*
X030178Y002954D01*
X030119Y003012D01*
X029236Y003012D01*
X029178Y002954D01*
X029178Y002071D01*
X029236Y002012D01*
X030119Y002012D01*
X030178Y002071D01*
X028606Y008371D02*
X028606Y007877D01*
X028506Y007877D01*
X028506Y008371D01*
X028300Y008371D01*
X028261Y008361D01*
X028227Y008341D01*
X028199Y008313D01*
X028180Y008279D01*
X028169Y008241D01*
X028169Y007877D01*
X028506Y007877D01*
X028506Y007777D01*
X028169Y007777D01*
X028169Y007414D01*
X028180Y007376D01*
X028199Y007341D01*
X028227Y007313D01*
X028261Y007294D01*
X028300Y007283D01*
X028506Y007283D01*
X028506Y007777D01*
X028606Y007777D01*
X028606Y007283D01*
X028811Y007283D01*
X028850Y007294D01*
X028884Y007313D01*
X028912Y007341D01*
X028932Y007376D01*
X028942Y007414D01*
X028942Y007777D01*
X028606Y007777D01*
X028606Y007877D01*
X028942Y007877D01*
X028942Y008241D01*
X028932Y008279D01*
X028912Y008313D01*
X028884Y008341D01*
X028850Y008361D01*
X028811Y008371D01*
X028606Y008371D01*
X006419Y013484D02*
X006419Y013880D01*
X006519Y013880D01*
X006519Y013484D01*
X006705Y013484D01*
X006743Y013494D01*
X006778Y013514D01*
X006805Y013542D01*
X006825Y013576D01*
X006835Y013615D01*
X006835Y013880D01*
X006519Y013880D01*
X006519Y013980D01*
X006835Y013980D01*
X006835Y014245D01*
X006825Y014283D01*
X006805Y014317D01*
X006778Y014345D01*
X006743Y014365D01*
X006705Y014375D01*
X006519Y014375D01*
X006519Y013980D01*
X006419Y013980D01*
X006419Y014375D01*
X006233Y014375D01*
X006194Y014365D01*
X006160Y014345D01*
X006132Y014317D01*
X006113Y014283D01*
X006102Y014245D01*
X006102Y013980D01*
X006419Y013980D01*
X006419Y013880D01*
X006102Y013880D01*
X006102Y013615D01*
X006113Y013576D01*
X006132Y013542D01*
X006160Y013514D01*
X006194Y013494D01*
X006233Y013484D01*
X006419Y013484D01*
X008672Y014266D02*
X008672Y013593D01*
X008710Y013555D01*
X008710Y012868D01*
X008691Y012868D01*
X008633Y012810D01*
X008633Y012713D01*
X008464Y012713D01*
X008198Y012446D01*
X008198Y011279D01*
X008327Y011150D01*
X008720Y010757D01*
X016709Y010757D01*
X016725Y010741D01*
X016827Y010699D01*
X016938Y010699D01*
X017040Y010741D01*
X017118Y010819D01*
X017160Y010921D01*
X017160Y011032D01*
X017118Y011134D01*
X017040Y011213D01*
X016938Y011255D01*
X016827Y011255D01*
X016725Y011213D01*
X016709Y011197D01*
X008903Y011197D01*
X008638Y011462D01*
X008638Y012170D01*
X008691Y012117D01*
X009168Y012117D01*
X009226Y012176D01*
X009226Y012810D01*
X009168Y012868D01*
X009150Y012868D01*
X009150Y013534D01*
X009247Y013534D01*
X009305Y013593D01*
X009305Y014266D01*
X009247Y014325D01*
X008731Y014325D01*
X008672Y014266D01*
X009726Y012918D02*
X009726Y012541D01*
X009629Y012541D01*
X009629Y012918D01*
X009461Y012918D01*
X009423Y012908D01*
X009389Y012888D01*
X009361Y012860D01*
X009341Y012826D01*
X009331Y012788D01*
X009331Y012541D01*
X009629Y012541D01*
X009629Y012444D01*
X009331Y012444D01*
X009331Y012197D01*
X009341Y012159D01*
X009361Y012125D01*
X009389Y012097D01*
X009423Y012077D01*
X009461Y012067D01*
X009629Y012067D01*
X009629Y012444D01*
X009726Y012444D01*
X009726Y012067D01*
X009894Y012067D01*
X009932Y012077D01*
X009967Y012097D01*
X009994Y012125D01*
X010014Y012159D01*
X010024Y012197D01*
X010024Y012444D01*
X009726Y012444D01*
X009726Y012541D01*
X010024Y012541D01*
X010024Y012788D01*
X010014Y012826D01*
X009994Y012860D01*
X009967Y012888D01*
X009932Y012908D01*
X009894Y012918D01*
X009726Y012918D01*
X009600Y011309D02*
X009600Y011406D01*
X009760Y011406D01*
X009835Y011332D01*
X009937Y011289D01*
X010048Y011289D01*
X010150Y011332D01*
X010228Y011410D01*
X010271Y011512D01*
X010271Y011623D01*
X010228Y011725D01*
X010150Y011803D01*
X010048Y011845D01*
X010026Y011845D01*
X010025Y011846D01*
X009600Y011846D01*
X009600Y011943D01*
X009542Y012002D01*
X009065Y012002D01*
X009007Y011943D01*
X009007Y011309D01*
X009065Y011251D01*
X009542Y011251D01*
X009600Y011309D01*
X006077Y012176D02*
X006077Y012810D01*
X006018Y012868D01*
X006000Y012868D01*
X006000Y013115D01*
X005862Y013253D01*
X005862Y013534D01*
X005900Y013534D01*
X005959Y013593D01*
X005959Y014266D01*
X005900Y014325D01*
X005384Y014325D01*
X005326Y014266D01*
X005326Y013593D01*
X005384Y013534D01*
X005422Y013534D01*
X005422Y013071D01*
X005551Y012942D01*
X005560Y012933D01*
X005560Y012868D01*
X005542Y012868D01*
X005483Y012810D01*
X005483Y012507D01*
X005048Y012072D01*
X005048Y009901D01*
X005177Y009773D01*
X005768Y009182D01*
X017693Y009182D01*
X017709Y009166D01*
X017811Y009124D01*
X017922Y009124D01*
X018024Y009166D01*
X018102Y009244D01*
X018145Y009347D01*
X018145Y009457D01*
X018102Y009560D01*
X018024Y009638D01*
X017922Y009680D01*
X017811Y009680D01*
X017709Y009638D01*
X017693Y009622D01*
X005950Y009622D01*
X005488Y010084D01*
X005488Y011890D01*
X005715Y012117D01*
X006018Y012117D01*
X006077Y012176D01*
X020879Y001611D02*
X020950Y001600D01*
X020950Y002068D01*
X021050Y002068D01*
X021050Y001600D01*
X021122Y001611D01*
X021200Y001637D01*
X021273Y001674D01*
X021339Y001722D01*
X021397Y001780D01*
X021445Y001846D01*
X021482Y001919D01*
X021508Y001997D01*
X021519Y002069D01*
X021050Y002069D01*
X021050Y002169D01*
X021519Y002169D01*
X021508Y002240D01*
X021482Y002318D01*
X021445Y002391D01*
X021397Y002457D01*
X021339Y002515D01*
X021273Y002563D01*
X021200Y002600D01*
X021122Y002626D01*
X021050Y002637D01*
X021050Y002169D01*
X020950Y002169D01*
X020950Y002637D01*
X020879Y002626D01*
X020801Y002600D01*
X020728Y002563D01*
X020662Y002515D01*
X020604Y002457D01*
X020556Y002391D01*
X020518Y002318D01*
X020493Y002240D01*
X020482Y002169D01*
X020950Y002169D01*
X020950Y002069D01*
X020482Y002069D01*
X020493Y001997D01*
X020518Y001919D01*
X020556Y001846D01*
X020604Y001780D01*
X020662Y001722D01*
X020728Y001674D01*
X020801Y001637D01*
X020879Y001611D01*
X021589Y001649D02*
X022412Y001649D01*
X022470Y001707D01*
X022470Y002530D01*
X022412Y002589D01*
X021589Y002589D01*
X021530Y002530D01*
X021530Y001707D01*
X021589Y001649D01*
X002367Y014668D02*
X002367Y014963D01*
X002254Y015235D01*
X002046Y015443D01*
X001774Y015556D01*
X001479Y015556D01*
X001207Y015443D01*
X000999Y015235D01*
X000886Y014963D01*
X000886Y014668D01*
X000999Y014396D01*
X001207Y014188D01*
X001479Y014075D01*
X001774Y014075D01*
X002046Y014188D01*
X002254Y014396D01*
X002367Y014668D01*
X028950Y015208D02*
X028950Y014757D01*
X028854Y014757D01*
X028854Y015208D01*
X028785Y015197D01*
X028710Y015172D01*
X028640Y015137D01*
X028576Y015090D01*
X028521Y015035D01*
X028474Y014971D01*
X028439Y014901D01*
X028414Y014826D01*
X028403Y014757D01*
X028854Y014757D01*
X028854Y014661D01*
X028403Y014661D01*
X028414Y014592D01*
X028439Y014517D01*
X028474Y014447D01*
X028521Y014383D01*
X028576Y014328D01*
X028640Y014281D01*
X028710Y014246D01*
X028785Y014221D01*
X028854Y014210D01*
X028854Y014661D01*
X028950Y014661D01*
X028950Y014210D01*
X029019Y014221D01*
X029094Y014246D01*
X029164Y014281D01*
X029228Y014328D01*
X029283Y014383D01*
X029330Y014447D01*
X029365Y014517D01*
X029390Y014592D01*
X029401Y014661D01*
X028950Y014661D01*
X028950Y014757D01*
X029401Y014757D01*
X029390Y014826D01*
X029365Y014901D01*
X029330Y014971D01*
X029283Y015035D01*
X029228Y015090D01*
X029164Y015137D01*
X029094Y015172D01*
X029019Y015197D01*
X028950Y015208D01*
X017352Y014620D02*
X017352Y014799D01*
X017283Y014964D01*
X017157Y015091D01*
X016991Y015159D01*
X016812Y015159D01*
X016647Y015091D01*
X016520Y014964D01*
X016452Y014799D01*
X016452Y014620D01*
X016520Y014454D01*
X016647Y014328D01*
X016812Y014259D01*
X016991Y014259D01*
X017157Y014328D01*
X017283Y014454D01*
X017352Y014620D01*
X020352Y014620D02*
X020352Y014799D01*
X020283Y014964D01*
X020232Y015015D01*
X020232Y015404D01*
X020270Y015404D01*
X020329Y015463D01*
X020329Y016136D01*
X020270Y016195D01*
X019754Y016195D01*
X019696Y016136D01*
X019696Y015463D01*
X019754Y015404D01*
X019792Y015404D01*
X019792Y015151D01*
X019647Y015091D01*
X019520Y014964D01*
X019452Y014799D01*
X019452Y014620D01*
X019520Y014454D01*
X019647Y014328D01*
X019812Y014259D01*
X019991Y014259D01*
X020157Y014328D01*
X020283Y014454D01*
X020352Y014620D01*
X023352Y014620D02*
X023352Y014799D01*
X023283Y014964D01*
X023157Y015091D01*
X022991Y015159D01*
X022812Y015159D01*
X022647Y015091D01*
X022520Y014964D01*
X022452Y014799D01*
X022452Y014620D01*
X022520Y014454D01*
X022647Y014328D01*
X022812Y014259D01*
X022991Y014259D01*
X023157Y014328D01*
X023283Y014454D01*
X023352Y014620D01*
X024352Y014620D02*
X024352Y014799D01*
X024283Y014964D01*
X024157Y015091D01*
X023991Y015159D01*
X023812Y015159D01*
X023647Y015091D01*
X023520Y014964D01*
X023452Y014799D01*
X023452Y014620D01*
X023520Y014454D01*
X023647Y014328D01*
X023812Y014259D01*
X023991Y014259D01*
X024157Y014328D01*
X024283Y014454D01*
X024352Y014620D01*
X025352Y014620D02*
X025352Y014799D01*
X025283Y014964D01*
X025157Y015091D01*
X024991Y015159D01*
X024812Y015159D01*
X024647Y015091D01*
X024520Y014964D01*
X024452Y014799D01*
X024452Y014620D01*
X024520Y014454D01*
X024647Y014328D01*
X024812Y014259D01*
X024991Y014259D01*
X025157Y014328D01*
X025283Y014454D01*
X025352Y014620D01*
X026352Y014620D02*
X026352Y014799D01*
X026283Y014964D01*
X026157Y015091D01*
X025991Y015159D01*
X025812Y015159D01*
X025647Y015091D01*
X025520Y014964D01*
X025452Y014799D01*
X025452Y014620D01*
X025520Y014454D01*
X025647Y014328D01*
X025812Y014259D01*
X025991Y014259D01*
X026157Y014328D01*
X026283Y014454D01*
X026352Y014620D01*
X027352Y014620D02*
X027352Y014799D01*
X027283Y014964D01*
X027157Y015091D01*
X026991Y015159D01*
X026812Y015159D01*
X026647Y015091D01*
X026520Y014964D01*
X026452Y014799D01*
X026452Y014620D01*
X026520Y014454D01*
X026647Y014328D01*
X026812Y014259D01*
X026991Y014259D01*
X027157Y014328D01*
X027283Y014454D01*
X027352Y014620D01*
X028352Y014620D02*
X028352Y014799D01*
X028283Y014964D01*
X028157Y015091D01*
X027991Y015159D01*
X027812Y015159D01*
X027647Y015091D01*
X027520Y014964D01*
X027452Y014799D01*
X027452Y014620D01*
X027520Y014454D01*
X027647Y014328D01*
X027812Y014259D01*
X027991Y014259D01*
X028157Y014328D01*
X028283Y014454D01*
X028352Y014620D01*
X017352Y006620D02*
X017352Y006799D01*
X017283Y006964D01*
X017157Y007091D01*
X016991Y007159D01*
X016812Y007159D01*
X016647Y007091D01*
X016520Y006964D01*
X016452Y006799D01*
X016452Y006620D01*
X016520Y006454D01*
X016647Y006328D01*
X016773Y006276D01*
X016035Y006276D01*
X016128Y006368D01*
X016150Y006368D01*
X016252Y006410D01*
X016331Y006489D01*
X016373Y006591D01*
X016373Y006701D01*
X016331Y006804D01*
X016252Y006882D01*
X016150Y006924D01*
X016040Y006924D01*
X015977Y006898D01*
X016052Y007080D01*
X016052Y007338D01*
X015953Y007577D01*
X015770Y007760D01*
X015531Y007859D01*
X015273Y007859D01*
X015034Y007760D01*
X014851Y007577D01*
X014752Y007338D01*
X014752Y007080D01*
X014851Y006841D01*
X015034Y006658D01*
X015273Y006559D01*
X015531Y006559D01*
X015770Y006658D01*
X015819Y006707D01*
X015817Y006701D01*
X015817Y006679D01*
X015610Y006472D01*
X013119Y006472D01*
X013103Y006488D01*
X013001Y006530D01*
X012890Y006530D01*
X012788Y006488D01*
X012710Y006410D01*
X012667Y006308D01*
X012667Y006197D01*
X012710Y006095D01*
X012788Y006017D01*
X012890Y005974D01*
X013001Y005974D01*
X013103Y006017D01*
X013119Y006032D01*
X015761Y006032D01*
X015197Y005468D01*
X011963Y005468D01*
X011963Y005506D01*
X011904Y005565D01*
X011231Y005565D01*
X011172Y005506D01*
X011172Y004990D01*
X011231Y004932D01*
X011347Y004932D01*
X011347Y003012D01*
X011126Y003012D01*
X011067Y002954D01*
X011067Y002071D01*
X011126Y002012D01*
X012009Y002012D01*
X012067Y002071D01*
X012067Y002954D01*
X012009Y003012D01*
X011787Y003012D01*
X011787Y004932D01*
X011904Y004932D01*
X011963Y004990D01*
X011963Y005028D01*
X015379Y005028D01*
X015508Y005157D01*
X016186Y005836D01*
X019729Y005836D01*
X019858Y005964D01*
X020122Y006228D01*
X020122Y006313D01*
X020157Y006328D01*
X020283Y006454D01*
X020352Y006620D01*
X020352Y006799D01*
X020283Y006964D01*
X020157Y007091D01*
X019991Y007159D01*
X019812Y007159D01*
X019647Y007091D01*
X019520Y006964D01*
X019452Y006799D01*
X019452Y006620D01*
X019520Y006454D01*
X019623Y006352D01*
X019547Y006276D01*
X019031Y006276D01*
X019157Y006328D01*
X019283Y006454D01*
X019352Y006620D01*
X019352Y006799D01*
X019283Y006964D01*
X019157Y007091D01*
X018991Y007159D01*
X018812Y007159D01*
X018647Y007091D01*
X018520Y006964D01*
X018452Y006799D01*
X018452Y006620D01*
X018520Y006454D01*
X018647Y006328D01*
X018773Y006276D01*
X018031Y006276D01*
X018157Y006328D01*
X018283Y006454D01*
X018352Y006620D01*
X018352Y006799D01*
X018283Y006964D01*
X018157Y007091D01*
X017991Y007159D01*
X017812Y007159D01*
X017647Y007091D01*
X017520Y006964D01*
X017452Y006799D01*
X017452Y006620D01*
X017520Y006454D01*
X017647Y006328D01*
X017773Y006276D01*
X017031Y006276D01*
X017157Y006328D01*
X017283Y006454D01*
X017352Y006620D01*
X021352Y006620D02*
X021352Y006799D01*
X021283Y006964D01*
X021157Y007091D01*
X020991Y007159D01*
X020812Y007159D01*
X020647Y007091D01*
X020520Y006964D01*
X020452Y006799D01*
X020452Y006620D01*
X020520Y006454D01*
X020647Y006328D01*
X020812Y006259D01*
X020991Y006259D01*
X021157Y006328D01*
X021283Y006454D01*
X021352Y006620D01*
X026352Y006620D02*
X026352Y006799D01*
X026283Y006964D01*
X026157Y007091D01*
X025991Y007159D01*
X025812Y007159D01*
X025647Y007091D01*
X025520Y006964D01*
X025452Y006799D01*
X025452Y006620D01*
X025520Y006454D01*
X025647Y006328D01*
X025812Y006259D01*
X025991Y006259D01*
X026157Y006328D01*
X026283Y006454D01*
X026352Y006620D01*
X027352Y006620D02*
X027352Y006799D01*
X027283Y006964D01*
X027157Y007091D01*
X026991Y007159D01*
X026812Y007159D01*
X026647Y007091D01*
X026520Y006964D01*
X026452Y006799D01*
X026452Y006620D01*
X026520Y006454D01*
X026647Y006328D01*
X026812Y006259D01*
X026991Y006259D01*
X027157Y006328D01*
X027283Y006454D01*
X027352Y006620D01*
X034252Y014040D02*
X034252Y014378D01*
X034123Y014691D01*
X033883Y014930D01*
X033571Y015059D01*
X033233Y015059D01*
X032920Y014930D01*
X032681Y014691D01*
X032552Y014378D01*
X032552Y014040D01*
X032681Y013728D01*
X032920Y013488D01*
X033233Y013359D01*
X033571Y013359D01*
X033883Y013488D01*
X034123Y013728D01*
X034252Y014040D01*
X034252Y007040D02*
X034252Y007378D01*
X034123Y007691D01*
X033883Y007930D01*
X033571Y008059D01*
X033233Y008059D01*
X032920Y007930D01*
X032681Y007691D01*
X032552Y007378D01*
X032552Y007040D01*
X032681Y006728D01*
X032920Y006488D01*
X033233Y006359D01*
X033571Y006359D01*
X033883Y006488D01*
X034123Y006728D01*
X034252Y007040D01*
X016052Y014080D02*
X016052Y014338D01*
X015953Y014577D01*
X015770Y014760D01*
X015531Y014859D01*
X015273Y014859D01*
X015034Y014760D01*
X014851Y014577D01*
X014752Y014338D01*
X014752Y014080D01*
X014851Y013841D01*
X015034Y013658D01*
X015273Y013559D01*
X015531Y013559D01*
X015770Y013658D01*
X015953Y013841D01*
X016052Y014080D01*
X002710Y006162D02*
X002511Y006162D01*
X002327Y006086D01*
X002187Y005945D01*
X002111Y005761D01*
X002111Y005562D01*
X002187Y005379D01*
X002327Y005238D01*
X002511Y005162D01*
X002710Y005162D01*
X002879Y005232D01*
X004106Y005232D01*
X006216Y003121D01*
X006216Y001972D01*
X006192Y001914D01*
X006192Y001733D01*
X006261Y001566D01*
X006389Y001438D01*
X006556Y001369D01*
X006736Y001369D01*
X006903Y001438D01*
X007031Y001566D01*
X007100Y001733D01*
X007100Y001914D01*
X007076Y001972D01*
X007076Y003385D01*
X007011Y003543D01*
X004648Y005905D01*
X004527Y006026D01*
X004369Y006092D01*
X002879Y006092D01*
X002710Y006162D01*
X009659Y003111D02*
X009659Y003292D01*
X009635Y003350D01*
X009635Y004369D01*
X009570Y004527D01*
X006223Y007874D01*
X006102Y007995D01*
X005944Y008060D01*
X003111Y008060D01*
X003111Y008072D01*
X003052Y008130D01*
X002169Y008130D01*
X002111Y008072D01*
X002111Y007189D01*
X002169Y007130D01*
X003052Y007130D01*
X003111Y007189D01*
X003111Y007200D01*
X005681Y007200D01*
X008775Y004106D01*
X008775Y003350D01*
X008751Y003292D01*
X008751Y003111D01*
X008820Y002944D01*
X008948Y002816D01*
X009115Y002747D01*
X009295Y002747D01*
X009462Y002816D01*
X009590Y002944D01*
X009659Y003111D01*
X007100Y010001D02*
X007100Y010181D01*
X007031Y010348D01*
X006903Y010476D01*
X006866Y010492D01*
X006866Y010871D01*
X006737Y011000D01*
X006439Y011298D01*
X006451Y011309D01*
X006451Y011943D01*
X006392Y012002D01*
X005916Y012002D01*
X005857Y011943D01*
X005857Y011309D01*
X005916Y011251D01*
X005934Y011251D01*
X005934Y011181D01*
X006426Y010689D01*
X006426Y010492D01*
X006389Y010476D01*
X006261Y010348D01*
X006192Y010181D01*
X006192Y010001D01*
X006261Y009834D01*
X006389Y009706D01*
X006556Y009637D01*
X006736Y009637D01*
X006903Y009706D01*
X007031Y009834D01*
X007100Y010001D01*
X008380Y010001D02*
X008380Y010181D01*
X008311Y010348D01*
X008183Y010476D01*
X008016Y010545D01*
X007835Y010545D01*
X007668Y010476D01*
X007540Y010348D01*
X007471Y010181D01*
X007471Y010001D01*
X007540Y009834D01*
X007668Y009706D01*
X007835Y009637D01*
X008016Y009637D01*
X008183Y009706D01*
X008311Y009834D01*
X008380Y010001D01*
X009659Y010001D02*
X009659Y010181D01*
X009590Y010348D01*
X009462Y010476D01*
X009295Y010545D01*
X009115Y010545D01*
X008948Y010476D01*
X008820Y010348D01*
X008751Y010181D01*
X008751Y010001D01*
X008820Y009834D01*
X008948Y009706D01*
X009115Y009637D01*
X009295Y009637D01*
X009462Y009706D01*
X009590Y009834D01*
X009659Y010001D01*
X002524Y001566D02*
X002524Y001884D01*
X002403Y002178D01*
X002178Y002403D01*
X001884Y002524D01*
X001566Y002524D01*
X001272Y002403D01*
X001047Y002178D01*
X000925Y001884D01*
X000925Y001566D01*
X001047Y001272D01*
X001272Y001047D01*
X001566Y000925D01*
X001884Y000925D01*
X002178Y001047D01*
X002403Y001272D01*
X002524Y001566D01*
X034414Y001566D02*
X034414Y001884D01*
X034292Y002178D01*
X034068Y002403D01*
X033774Y002524D01*
X033456Y002524D01*
X033162Y002403D01*
X032937Y002178D01*
X032815Y001884D01*
X032815Y001566D01*
X032937Y001272D01*
X033162Y001047D01*
X033456Y000925D01*
X033774Y000925D01*
X034068Y001047D01*
X034292Y001272D01*
X034414Y001566D01*
X002524Y018889D02*
X002524Y019207D01*
X002403Y019501D01*
X002178Y019726D01*
X001884Y019847D01*
X001566Y019847D01*
X001272Y019726D01*
X001047Y019501D01*
X000925Y019207D01*
X000925Y018889D01*
X001047Y018595D01*
X001272Y018370D01*
X001566Y018248D01*
X001884Y018248D01*
X002178Y018370D01*
X002403Y018595D01*
X002524Y018889D01*
X034414Y018889D02*
X034414Y019207D01*
X034292Y019501D01*
X034068Y019726D01*
X033774Y019847D01*
X033456Y019847D01*
X033162Y019726D01*
X032937Y019501D01*
X032815Y019207D01*
X032815Y018889D01*
X032937Y018595D01*
X033162Y018370D01*
X033456Y018248D01*
X033774Y018248D01*
X034068Y018370D01*
X034292Y018595D01*
X034414Y018889D01*
X030352Y014620D02*
X030352Y014799D01*
X030283Y014964D01*
X030157Y015091D01*
X029991Y015159D01*
X029812Y015159D01*
X029647Y015091D01*
X029520Y014964D01*
X029452Y014799D01*
X029452Y014620D01*
X029520Y014454D01*
X029647Y014328D01*
X029812Y014259D01*
X029991Y014259D01*
X030157Y014328D01*
X030283Y014454D01*
X030352Y014620D01*
X032352Y014620D02*
X032352Y014799D01*
X032283Y014964D01*
X032157Y015091D01*
X031991Y015159D01*
X031812Y015159D01*
X031647Y015091D01*
X031520Y014964D01*
X031452Y014799D01*
X031452Y014620D01*
X031520Y014454D01*
X031647Y014328D01*
X031812Y014259D01*
X031991Y014259D01*
X032157Y014328D01*
X032283Y014454D01*
X032352Y014620D01*
X012342Y013244D02*
X012342Y013386D01*
X012288Y013518D01*
X012187Y013618D01*
X012056Y013673D01*
X011914Y013673D01*
X011782Y013618D01*
X011682Y013518D01*
X011627Y013386D01*
X011627Y013244D01*
X011682Y013113D01*
X011782Y013012D01*
X011914Y012958D01*
X012056Y012958D01*
X012187Y013012D01*
X012288Y013113D01*
X012342Y013244D01*
X012342Y015244D02*
X012342Y015386D01*
X012288Y015518D01*
X012187Y015618D01*
X012056Y015673D01*
X011914Y015673D01*
X011782Y015618D01*
X011682Y015518D01*
X011627Y015386D01*
X011627Y015244D01*
X011682Y015113D01*
X011782Y015012D01*
X011914Y014958D01*
X012056Y014958D01*
X012187Y015012D01*
X012288Y015113D01*
X012342Y015244D01*
X011953Y015908D02*
X011956Y015908D01*
X011956Y016287D01*
X012013Y016287D01*
X012013Y015908D01*
X012017Y015908D01*
X012080Y015918D01*
X012141Y015938D01*
X012198Y015967D01*
X012250Y016005D01*
X012295Y016050D01*
X012333Y016102D01*
X012362Y016159D01*
X012382Y016220D01*
X012392Y016283D01*
X012392Y016287D01*
X012013Y016287D01*
X012013Y016344D01*
X012392Y016344D01*
X012392Y016347D01*
X012382Y016411D01*
X012362Y016472D01*
X012333Y016529D01*
X012295Y016581D01*
X012250Y016626D01*
X012198Y016664D01*
X012141Y016693D01*
X012080Y016713D01*
X012017Y016723D01*
X012013Y016723D01*
X012013Y016344D01*
X011956Y016344D01*
X011956Y016723D01*
X011953Y016723D01*
X011889Y016713D01*
X011828Y016693D01*
X011771Y016664D01*
X011719Y016626D01*
X011674Y016581D01*
X011636Y016529D01*
X011607Y016472D01*
X011587Y016411D01*
X011577Y016347D01*
X011577Y016344D01*
X011956Y016344D01*
X011956Y016287D01*
X011577Y016287D01*
X011577Y016283D01*
X011587Y016220D01*
X011607Y016159D01*
X011636Y016102D01*
X011674Y016050D01*
X011719Y016005D01*
X011771Y015967D01*
X011828Y015938D01*
X011889Y015918D01*
X011953Y015908D01*
X020470Y002025D02*
X020470Y002212D01*
X020399Y002385D01*
X020267Y002517D01*
X020094Y002589D01*
X019907Y002589D01*
X019734Y002517D01*
X019602Y002385D01*
X019530Y002212D01*
X019530Y002025D01*
X019602Y001852D01*
X019734Y001720D01*
X019907Y001649D01*
X020094Y001649D01*
X020267Y001720D01*
X020399Y001852D01*
X020470Y002025D01*
X019470Y002025D02*
X019470Y002212D01*
X019399Y002385D01*
X019267Y002517D01*
X019094Y002589D01*
X018907Y002589D01*
X018734Y002517D01*
X018602Y002385D01*
X018530Y002212D01*
X018530Y002025D01*
X018602Y001852D01*
X018734Y001720D01*
X018907Y001649D01*
X019094Y001649D01*
X019267Y001720D01*
X019399Y001852D01*
X019470Y002025D01*
X015470Y002025D02*
X015470Y002212D01*
X015399Y002385D01*
X015267Y002517D01*
X015220Y002536D01*
X015220Y004082D01*
X016383Y005245D01*
X016745Y005245D01*
X016662Y005162D01*
X015780Y004280D01*
X015780Y002536D01*
X015734Y002517D01*
X015602Y002385D01*
X015530Y002212D01*
X015530Y002025D01*
X015602Y001852D01*
X015734Y001720D01*
X015907Y001649D01*
X016094Y001649D01*
X016267Y001720D01*
X016399Y001852D01*
X016470Y002025D01*
X016470Y002212D01*
X016399Y002385D01*
X016267Y002517D01*
X016220Y002536D01*
X016220Y004098D01*
X016973Y004851D01*
X017335Y004851D01*
X017253Y004769D01*
X016780Y004296D01*
X016780Y002536D01*
X016734Y002517D01*
X016602Y002385D01*
X016530Y002212D01*
X016530Y002025D01*
X016602Y001852D01*
X016734Y001720D01*
X016907Y001649D01*
X017094Y001649D01*
X017267Y001720D01*
X017399Y001852D01*
X017470Y002025D01*
X017470Y002212D01*
X017399Y002385D01*
X017267Y002517D01*
X017220Y002536D01*
X017220Y004114D01*
X017564Y004458D01*
X018320Y004458D01*
X018237Y004375D01*
X017780Y003918D01*
X017780Y002536D01*
X017734Y002517D01*
X017602Y002385D01*
X017530Y002212D01*
X017530Y002025D01*
X017602Y001852D01*
X017734Y001720D01*
X017907Y001649D01*
X018094Y001649D01*
X018267Y001720D01*
X018399Y001852D01*
X018470Y002025D01*
X018470Y002212D01*
X018399Y002385D01*
X018267Y002517D01*
X018220Y002536D01*
X018220Y003736D01*
X018548Y004064D01*
X023863Y004064D01*
X025122Y005323D01*
X025122Y006313D01*
X025157Y006328D01*
X025283Y006454D01*
X025352Y006620D01*
X025352Y006799D01*
X025283Y006964D01*
X025157Y007091D01*
X024991Y007159D01*
X024812Y007159D01*
X024647Y007091D01*
X024520Y006964D01*
X024452Y006799D01*
X024452Y006620D01*
X024520Y006454D01*
X024647Y006328D01*
X024682Y006313D01*
X024682Y005505D01*
X023681Y004504D01*
X023319Y004504D01*
X023993Y005178D01*
X024122Y005307D01*
X024122Y006313D01*
X024157Y006328D01*
X024283Y006454D01*
X024352Y006620D01*
X024352Y006799D01*
X024283Y006964D01*
X024157Y007091D01*
X023991Y007159D01*
X023812Y007159D01*
X023647Y007091D01*
X023520Y006964D01*
X023452Y006799D01*
X023452Y006620D01*
X023520Y006454D01*
X023647Y006328D01*
X023682Y006313D01*
X023682Y005489D01*
X023090Y004898D01*
X022532Y004898D01*
X023122Y005488D01*
X023122Y006313D01*
X023157Y006328D01*
X023283Y006454D01*
X023352Y006620D01*
X023352Y006799D01*
X023283Y006964D01*
X023157Y007091D01*
X022991Y007159D01*
X022812Y007159D01*
X022647Y007091D01*
X022520Y006964D01*
X022452Y006799D01*
X022452Y006620D01*
X022520Y006454D01*
X022647Y006328D01*
X022682Y006313D01*
X022682Y005670D01*
X022303Y005291D01*
X021744Y005291D01*
X021827Y005374D01*
X022122Y005669D01*
X022122Y006313D01*
X022157Y006328D01*
X022283Y006454D01*
X022352Y006620D01*
X022352Y006799D01*
X022283Y006964D01*
X022157Y007091D01*
X021991Y007159D01*
X021812Y007159D01*
X021647Y007091D01*
X021520Y006964D01*
X021452Y006799D01*
X021452Y006620D01*
X021520Y006454D01*
X021647Y006328D01*
X021682Y006313D01*
X021682Y005851D01*
X021516Y005685D01*
X016201Y005685D01*
X014909Y004394D01*
X014780Y004265D01*
X014780Y002536D01*
X014734Y002517D01*
X014602Y002385D01*
X014530Y002212D01*
X014530Y002025D01*
X014602Y001852D01*
X014734Y001720D01*
X014907Y001649D01*
X015094Y001649D01*
X015267Y001720D01*
X015399Y001852D01*
X015470Y002025D01*
X020522Y016136D02*
X020522Y015463D01*
X020581Y015404D01*
X020682Y015404D01*
X020682Y015105D01*
X020647Y015091D01*
X020520Y014964D01*
X020452Y014799D01*
X020452Y014620D01*
X020520Y014454D01*
X020647Y014328D01*
X020682Y014313D01*
X020682Y014103D01*
X019153Y012575D01*
X014693Y012575D01*
X014678Y012590D01*
X014575Y012633D01*
X014465Y012633D01*
X014363Y012590D01*
X014284Y012512D01*
X014242Y012410D01*
X014242Y012299D01*
X014284Y012197D01*
X014363Y012119D01*
X014465Y012077D01*
X014575Y012077D01*
X014678Y012119D01*
X014693Y012135D01*
X019336Y012135D01*
X020993Y013792D01*
X021122Y013921D01*
X021122Y014313D01*
X021157Y014328D01*
X021283Y014454D01*
X021352Y014620D01*
X021352Y014799D01*
X021283Y014964D01*
X021157Y015091D01*
X021122Y015105D01*
X021122Y015429D01*
X021156Y015463D01*
X021156Y016136D01*
X021097Y016195D01*
X020581Y016195D01*
X020522Y016136D01*
X016349Y019286D02*
X016349Y019169D01*
X014650Y019169D01*
X014650Y019422D01*
X014591Y019481D01*
X013858Y019481D01*
X013800Y019422D01*
X013800Y018689D01*
X013858Y018631D01*
X014591Y018631D01*
X014650Y018689D01*
X014650Y018729D01*
X016349Y018729D01*
X016349Y018613D01*
X016408Y018554D01*
X016924Y018554D01*
X016982Y018613D01*
X016982Y019286D01*
X016924Y019344D01*
X016408Y019344D01*
X016349Y019286D01*
X006576Y012918D02*
X006576Y012541D01*
X006480Y012541D01*
X006480Y012918D01*
X006311Y012918D01*
X006273Y012908D01*
X006239Y012888D01*
X006211Y012860D01*
X006191Y012826D01*
X006181Y012788D01*
X006181Y012541D01*
X006480Y012541D01*
X006480Y012444D01*
X006181Y012444D01*
X006181Y012197D01*
X006191Y012159D01*
X006211Y012125D01*
X006239Y012097D01*
X006273Y012077D01*
X006311Y012067D01*
X006480Y012067D01*
X006480Y012444D01*
X006576Y012444D01*
X006576Y012067D01*
X006745Y012067D01*
X006783Y012077D01*
X006817Y012097D01*
X006845Y012125D01*
X006865Y012159D01*
X006875Y012197D01*
X006875Y012444D01*
X006576Y012444D01*
X006576Y012541D01*
X006875Y012541D01*
X006875Y012788D01*
X006865Y012826D01*
X006845Y012860D01*
X006817Y012888D01*
X006783Y012908D01*
X006745Y012918D01*
X006576Y012918D01*
X009765Y013484D02*
X009765Y013880D01*
X009865Y013880D01*
X009865Y013484D01*
X010052Y013484D01*
X010090Y013494D01*
X010124Y013514D01*
X010152Y013542D01*
X010172Y013576D01*
X010182Y013615D01*
X010182Y013880D01*
X009865Y013880D01*
X009865Y013980D01*
X010182Y013980D01*
X010182Y014245D01*
X010172Y014283D01*
X010152Y014317D01*
X010124Y014345D01*
X010090Y014365D01*
X010052Y014375D01*
X009865Y014375D01*
X009865Y013980D01*
X009765Y013980D01*
X009765Y014375D01*
X009579Y014375D01*
X009541Y014365D01*
X009507Y014345D01*
X009479Y014317D01*
X009459Y014283D01*
X009449Y014245D01*
X009449Y013980D01*
X009765Y013980D01*
X009765Y013880D01*
X009449Y013880D01*
X009449Y013615D01*
X009459Y013576D01*
X009479Y013542D01*
X009507Y013514D01*
X009541Y013494D01*
X009579Y013484D01*
X009765Y013484D01*
X014187Y017581D02*
X014206Y017581D01*
X014206Y018037D01*
X014244Y018037D01*
X014244Y017581D01*
X014262Y017581D01*
X014336Y017592D01*
X014407Y017615D01*
X014474Y017649D01*
X014534Y017693D01*
X014587Y017746D01*
X014631Y017807D01*
X014665Y017873D01*
X014688Y017944D01*
X014700Y018018D01*
X014700Y018037D01*
X014244Y018037D01*
X014244Y018074D01*
X014700Y018074D01*
X014700Y018093D01*
X014688Y018167D01*
X014665Y018238D01*
X014631Y018304D01*
X014587Y018365D01*
X014534Y018418D01*
X014474Y018462D01*
X014407Y018496D01*
X014336Y018519D01*
X014262Y018531D01*
X014244Y018531D01*
X014244Y018074D01*
X014206Y018074D01*
X014206Y018531D01*
X014187Y018531D01*
X014114Y018519D01*
X014042Y018496D01*
X013976Y018462D01*
X013915Y018418D01*
X013862Y018365D01*
X013819Y018304D01*
X013785Y018238D01*
X013761Y018167D01*
X013750Y018093D01*
X013750Y018074D01*
X014206Y018074D01*
X014206Y018037D01*
X013750Y018037D01*
X013750Y018018D01*
X013761Y017944D01*
X013785Y017873D01*
X013819Y017807D01*
X013862Y017746D01*
X013915Y017693D01*
X013976Y017649D01*
X014042Y017615D01*
X014114Y017592D01*
X014187Y017581D01*
X028606Y010339D02*
X028606Y009846D01*
X028506Y009846D01*
X028506Y010339D01*
X028300Y010339D01*
X028261Y010329D01*
X028227Y010309D01*
X028199Y010281D01*
X028180Y010247D01*
X028169Y010209D01*
X028169Y009846D01*
X028506Y009846D01*
X028506Y009746D01*
X028169Y009746D01*
X028169Y009382D01*
X028180Y009344D01*
X028199Y009310D01*
X028227Y009282D01*
X028261Y009262D01*
X028300Y009252D01*
X028506Y009252D01*
X028506Y009746D01*
X028606Y009746D01*
X028606Y009252D01*
X028811Y009252D01*
X028850Y009262D01*
X028884Y009282D01*
X028912Y009310D01*
X028932Y009344D01*
X028942Y009382D01*
X028942Y009746D01*
X028606Y009746D01*
X028606Y009846D01*
X028942Y009846D01*
X028942Y010209D01*
X028932Y010247D01*
X028912Y010281D01*
X028884Y010309D01*
X028850Y010329D01*
X028811Y010339D01*
X028606Y010339D01*
X024708Y002964D02*
X024708Y002464D01*
X024608Y002464D01*
X024608Y002964D01*
X024238Y002964D01*
X024200Y002954D01*
X024166Y002934D01*
X024138Y002906D01*
X024118Y002872D01*
X024108Y002834D01*
X024108Y002464D01*
X024608Y002464D01*
X024608Y002364D01*
X024108Y002364D01*
X024108Y001994D01*
X024118Y001956D01*
X024138Y001922D01*
X024166Y001894D01*
X024200Y001874D01*
X024238Y001864D01*
X024608Y001864D01*
X024608Y002364D01*
X024708Y002364D01*
X024708Y001864D01*
X025078Y001864D01*
X025116Y001874D01*
X025150Y001894D01*
X025178Y001922D01*
X025198Y001956D01*
X025208Y001994D01*
X025208Y002364D01*
X024708Y002364D01*
X024708Y002464D01*
X025208Y002464D01*
X025208Y002834D01*
X025198Y002872D01*
X025178Y002906D01*
X025150Y002934D01*
X025116Y002954D01*
X025078Y002964D01*
X024708Y002964D01*
X021848Y018904D02*
X021848Y019091D01*
X021777Y019264D01*
X021645Y019396D01*
X021472Y019468D01*
X021285Y019468D01*
X021112Y019396D01*
X020980Y019264D01*
X020908Y019091D01*
X020908Y018904D01*
X020980Y018731D01*
X021112Y018599D01*
X021158Y018580D01*
X021158Y018320D01*
X018682Y015843D01*
X018682Y015105D01*
X018647Y015091D01*
X018520Y014964D01*
X018452Y014799D01*
X018452Y014620D01*
X018520Y014454D01*
X018647Y014328D01*
X018812Y014259D01*
X018991Y014259D01*
X019157Y014328D01*
X019283Y014454D01*
X019352Y014620D01*
X019352Y014799D01*
X019283Y014964D01*
X019157Y015091D01*
X019122Y015105D01*
X019122Y015661D01*
X021469Y018009D01*
X021598Y018138D01*
X021598Y018580D01*
X021645Y018599D01*
X021777Y018731D01*
X021848Y018904D01*
X020848Y019004D02*
X020848Y019191D01*
X020777Y019364D01*
X020645Y019496D01*
X020472Y019568D01*
X020285Y019568D01*
X020112Y019496D01*
X019980Y019364D01*
X019908Y019191D01*
X019908Y019004D01*
X019980Y018831D01*
X020112Y018699D01*
X020158Y018680D01*
X020158Y018501D01*
X017682Y016025D01*
X017682Y015105D01*
X017647Y015091D01*
X017520Y014964D01*
X017452Y014799D01*
X017452Y014620D01*
X017520Y014454D01*
X017647Y014328D01*
X017812Y014259D01*
X017991Y014259D01*
X018157Y014328D01*
X018283Y014454D01*
X018352Y014620D01*
X018352Y014799D01*
X018283Y014964D01*
X018157Y015091D01*
X018122Y015105D01*
X018122Y015842D01*
X020469Y018190D01*
X020598Y018319D01*
X020598Y018680D01*
X020645Y018699D01*
X020777Y018831D01*
X020848Y019004D01*
X013445Y002413D02*
X013445Y002612D01*
X013369Y002795D01*
X013229Y002936D01*
X013045Y003012D01*
X012846Y003012D01*
X012662Y002936D01*
X012521Y002795D01*
X012445Y002612D01*
X012445Y002413D01*
X012521Y002229D01*
X012662Y002088D01*
X012846Y002012D01*
X013045Y002012D01*
X013229Y002088D01*
X013369Y002229D01*
X013445Y002413D01*
X012013Y006025D02*
X011617Y006025D01*
X011617Y006125D01*
X012013Y006125D01*
X012013Y006311D01*
X012002Y006350D01*
X011983Y006384D01*
X011955Y006412D01*
X011920Y006432D01*
X011882Y006442D01*
X011617Y006442D01*
X011617Y006125D01*
X011517Y006125D01*
X011517Y006442D01*
X011252Y006442D01*
X011214Y006432D01*
X011180Y006412D01*
X011152Y006384D01*
X011132Y006350D01*
X011122Y006311D01*
X011122Y006125D01*
X011517Y006125D01*
X011517Y006025D01*
X011122Y006025D01*
X011122Y005839D01*
X011132Y005801D01*
X011152Y005767D01*
X011180Y005739D01*
X011214Y005719D01*
X011252Y005709D01*
X011517Y005709D01*
X011517Y006025D01*
X011617Y006025D01*
X011617Y005709D01*
X011882Y005709D01*
X011920Y005719D01*
X011955Y005739D01*
X011983Y005767D01*
X012002Y005801D01*
X012013Y005839D01*
X012013Y006025D01*
X013890Y012000D02*
X013788Y012042D01*
X013677Y012042D01*
X013575Y012000D01*
X013497Y011922D01*
X013455Y011819D01*
X013455Y011709D01*
X013497Y011607D01*
X013575Y011528D01*
X013677Y011486D01*
X013788Y011486D01*
X013890Y011528D01*
X013906Y011544D01*
X020123Y011544D01*
X021993Y013414D01*
X022122Y013543D01*
X022122Y014313D01*
X022157Y014328D01*
X022283Y014454D01*
X022352Y014620D01*
X022352Y014799D01*
X022283Y014964D01*
X022157Y015091D01*
X021991Y015159D01*
X021812Y015159D01*
X021647Y015091D01*
X021520Y014964D01*
X021452Y014799D01*
X021452Y014620D01*
X021520Y014454D01*
X021647Y014328D01*
X021682Y014313D01*
X021682Y013725D01*
X019941Y011984D01*
X013906Y011984D01*
X013890Y012000D01*
X030940Y006000D02*
X030940Y006111D01*
X030898Y006213D01*
X030819Y006291D01*
X030717Y006334D01*
X030606Y006334D01*
X030504Y006291D01*
X030489Y006276D01*
X030370Y006276D01*
X030370Y006855D01*
X030035Y007190D01*
X030035Y007333D01*
X030093Y007333D01*
X030152Y007392D01*
X030152Y008262D01*
X030093Y008321D01*
X030035Y008321D01*
X030035Y009302D01*
X030093Y009302D01*
X030152Y009361D01*
X030152Y009576D01*
X033638Y009576D01*
X033654Y009560D01*
X033756Y009518D01*
X033867Y009518D01*
X033969Y009560D01*
X034047Y009638D01*
X034090Y009740D01*
X034090Y009851D01*
X034047Y009953D01*
X033969Y010031D01*
X033867Y010074D01*
X033756Y010074D01*
X033654Y010031D01*
X033638Y010016D01*
X030152Y010016D01*
X030152Y010231D01*
X030093Y010289D01*
X029538Y010289D01*
X029479Y010231D01*
X029479Y009361D01*
X029538Y009302D01*
X029595Y009302D01*
X029595Y008321D01*
X029538Y008321D01*
X029479Y008262D01*
X029479Y007392D01*
X029538Y007333D01*
X029595Y007333D01*
X029595Y007008D01*
X029724Y006879D01*
X029930Y006673D01*
X029930Y006454D01*
X029904Y006461D01*
X029780Y006461D01*
X029780Y006079D01*
X029772Y006079D01*
X029772Y006461D01*
X029648Y006461D01*
X029610Y006451D01*
X029576Y006431D01*
X029554Y006409D01*
X029552Y006411D01*
X029252Y006411D01*
X029194Y006353D01*
X029194Y006178D01*
X029182Y006166D01*
X029182Y005409D01*
X028419Y005409D01*
X028419Y005428D01*
X028361Y005486D01*
X027727Y005486D01*
X027668Y005428D01*
X027668Y004951D01*
X027727Y004893D01*
X027883Y004893D01*
X027883Y002997D01*
X027520Y002634D01*
X027076Y002634D01*
X027050Y002697D01*
X026910Y002838D01*
X026726Y002914D01*
X026527Y002914D01*
X026343Y002838D01*
X026202Y002697D01*
X026126Y002513D01*
X026126Y002314D01*
X026202Y002131D01*
X026343Y001990D01*
X026527Y001914D01*
X026726Y001914D01*
X026910Y001990D01*
X027050Y002131D01*
X027076Y002194D01*
X027702Y002194D01*
X028194Y002686D01*
X028323Y002815D01*
X028323Y004893D01*
X028361Y004893D01*
X028419Y004951D01*
X028419Y004969D01*
X029182Y004969D01*
X029182Y004075D01*
X030582Y002675D01*
X030556Y002612D01*
X030556Y002413D01*
X030632Y002229D01*
X030772Y002088D01*
X030956Y002012D01*
X031155Y002012D01*
X031339Y002088D01*
X031479Y002229D01*
X031506Y002292D01*
X032328Y002292D01*
X032457Y002421D01*
X035016Y004980D01*
X035016Y015399D01*
X034887Y015527D01*
X033509Y016905D01*
X032607Y016905D01*
X032591Y016921D01*
X032489Y016964D01*
X032378Y016964D01*
X032276Y016921D01*
X032198Y016843D01*
X032155Y016741D01*
X032155Y016630D01*
X032198Y016528D01*
X032276Y016450D01*
X032378Y016407D01*
X032489Y016407D01*
X032591Y016450D01*
X032607Y016465D01*
X033327Y016465D01*
X034576Y015216D01*
X034576Y005162D01*
X032145Y002732D01*
X031506Y002732D01*
X031479Y002795D01*
X031339Y002936D01*
X031155Y003012D01*
X030956Y003012D01*
X030893Y002986D01*
X029622Y004257D01*
X029622Y004363D01*
X029639Y004323D01*
X029717Y004245D01*
X029819Y004203D01*
X029930Y004203D01*
X030032Y004245D01*
X030110Y004323D01*
X030153Y004425D01*
X030153Y004536D01*
X030110Y004638D01*
X030033Y004715D01*
X030300Y004715D01*
X030358Y004774D01*
X030358Y005329D01*
X030300Y005388D01*
X030000Y005388D01*
X029963Y005350D01*
X029926Y005388D01*
X029626Y005388D01*
X029622Y005383D01*
X029622Y005696D01*
X029648Y005689D01*
X029772Y005689D01*
X029772Y006071D01*
X029780Y006071D01*
X029780Y005689D01*
X029904Y005689D01*
X029942Y005699D01*
X029976Y005719D01*
X029998Y005741D01*
X030000Y005739D01*
X030300Y005739D01*
X030358Y005798D01*
X030358Y005836D01*
X030489Y005836D01*
X030504Y005820D01*
X030606Y005777D01*
X030717Y005777D01*
X030819Y005820D01*
X030898Y005898D01*
X030940Y006000D01*
X034275Y000347D02*
X001064Y000347D01*
X000817Y000446D02*
X034522Y000446D01*
X034658Y000544D02*
X000682Y000544D01*
X000573Y000643D02*
X034767Y000643D01*
X034838Y000741D02*
X000501Y000741D01*
X000429Y000840D02*
X034910Y000840D01*
X001535Y000938D02*
X000388Y000938D01*
X001915Y000938D02*
X033425Y000938D01*
X033805Y000938D02*
X034951Y000938D01*
X001297Y001037D02*
X000356Y001037D01*
X002153Y001037D02*
X033187Y001037D01*
X034042Y001037D02*
X034983Y001037D01*
X001184Y001135D02*
X000324Y001135D01*
X002266Y001135D02*
X033074Y001135D01*
X034156Y001135D02*
X035015Y001135D01*
X001085Y001234D02*
X000308Y001234D01*
X002364Y001234D02*
X032975Y001234D01*
X034254Y001234D02*
X035032Y001234D01*
X001022Y001332D02*
X000300Y001332D01*
X002428Y001332D02*
X032912Y001332D01*
X034317Y001332D02*
X035039Y001332D01*
X000981Y001431D02*
X000300Y001431D01*
X002468Y001431D02*
X006407Y001431D01*
X006885Y001431D02*
X032871Y001431D01*
X034358Y001431D02*
X035039Y001431D01*
X000940Y001529D02*
X000300Y001529D01*
X002509Y001529D02*
X006298Y001529D01*
X006994Y001529D02*
X032830Y001529D01*
X034399Y001529D02*
X035039Y001529D01*
X000925Y001628D02*
X000300Y001628D01*
X002524Y001628D02*
X006235Y001628D01*
X007057Y001628D02*
X020829Y001628D01*
X020950Y001628D02*
X021050Y001628D01*
X021172Y001628D02*
X032815Y001628D01*
X034414Y001628D02*
X035039Y001628D01*
X000925Y001726D02*
X000300Y001726D01*
X002524Y001726D02*
X006195Y001726D01*
X007098Y001726D02*
X014728Y001726D01*
X015273Y001726D02*
X015728Y001726D01*
X016273Y001726D02*
X016728Y001726D01*
X017273Y001726D02*
X017728Y001726D01*
X018273Y001726D02*
X018728Y001726D01*
X019273Y001726D02*
X019728Y001726D01*
X020273Y001726D02*
X020658Y001726D01*
X020950Y001726D02*
X021050Y001726D01*
X021343Y001726D02*
X021530Y001726D01*
X022470Y001726D02*
X032815Y001726D01*
X034414Y001726D02*
X035039Y001726D01*
X000925Y001825D02*
X000300Y001825D01*
X002524Y001825D02*
X006192Y001825D01*
X007100Y001825D02*
X014630Y001825D01*
X015371Y001825D02*
X015630Y001825D01*
X016371Y001825D02*
X016630Y001825D01*
X017371Y001825D02*
X017630Y001825D01*
X018371Y001825D02*
X018630Y001825D01*
X019371Y001825D02*
X019630Y001825D01*
X020371Y001825D02*
X020571Y001825D01*
X020950Y001825D02*
X021050Y001825D01*
X021430Y001825D02*
X021530Y001825D01*
X022470Y001825D02*
X032815Y001825D01*
X034414Y001825D02*
X035039Y001825D01*
X000941Y001923D02*
X000300Y001923D01*
X002508Y001923D02*
X006196Y001923D01*
X007096Y001923D02*
X014573Y001923D01*
X015428Y001923D02*
X015573Y001923D01*
X016428Y001923D02*
X016573Y001923D01*
X017428Y001923D02*
X017573Y001923D01*
X018428Y001923D02*
X018573Y001923D01*
X019428Y001923D02*
X019573Y001923D01*
X020428Y001923D02*
X020517Y001923D01*
X020950Y001923D02*
X021050Y001923D01*
X021484Y001923D02*
X021530Y001923D01*
X022470Y001923D02*
X024137Y001923D01*
X024608Y001923D02*
X024708Y001923D01*
X025179Y001923D02*
X026505Y001923D01*
X026748Y001923D02*
X032831Y001923D01*
X034398Y001923D02*
X035039Y001923D01*
X000982Y002022D02*
X000300Y002022D01*
X002467Y002022D02*
X006216Y002022D01*
X007076Y002022D02*
X011117Y002022D01*
X012018Y002022D02*
X012823Y002022D01*
X013067Y002022D02*
X014532Y002022D01*
X015469Y002022D02*
X015532Y002022D01*
X016469Y002022D02*
X016532Y002022D01*
X017469Y002022D02*
X017532Y002022D01*
X018469Y002022D02*
X018532Y002022D01*
X019469Y002022D02*
X019532Y002022D01*
X020469Y002022D02*
X020489Y002022D01*
X020950Y002022D02*
X021050Y002022D01*
X021512Y002022D02*
X021530Y002022D01*
X022470Y002022D02*
X024108Y002022D01*
X024608Y002022D02*
X024708Y002022D01*
X025208Y002022D02*
X026312Y002022D01*
X026941Y002022D02*
X029227Y002022D01*
X030128Y002022D02*
X030934Y002022D01*
X031177Y002022D02*
X032872Y002022D01*
X034357Y002022D02*
X035039Y002022D01*
X001023Y002120D02*
X000300Y002120D01*
X002427Y002120D02*
X006216Y002120D01*
X007076Y002120D02*
X011067Y002120D01*
X012067Y002120D02*
X012630Y002120D01*
X013260Y002120D02*
X014530Y002120D01*
X015470Y002120D02*
X015530Y002120D01*
X016470Y002120D02*
X016530Y002120D01*
X017470Y002120D02*
X017530Y002120D01*
X018470Y002120D02*
X018530Y002120D01*
X019470Y002120D02*
X019530Y002120D01*
X020470Y002120D02*
X020950Y002120D01*
X021050Y002120D02*
X021530Y002120D01*
X022470Y002120D02*
X024108Y002120D01*
X024608Y002120D02*
X024708Y002120D01*
X025208Y002120D02*
X026213Y002120D01*
X027040Y002120D02*
X029178Y002120D01*
X030178Y002120D02*
X030741Y002120D01*
X031370Y002120D02*
X032913Y002120D01*
X034316Y002120D02*
X035039Y002120D01*
X001088Y002219D02*
X000300Y002219D01*
X002362Y002219D02*
X006216Y002219D01*
X007076Y002219D02*
X011067Y002219D01*
X012067Y002219D02*
X012532Y002219D01*
X013359Y002219D02*
X014533Y002219D01*
X015468Y002219D02*
X015533Y002219D01*
X016468Y002219D02*
X016533Y002219D01*
X017468Y002219D02*
X017533Y002219D01*
X018468Y002219D02*
X018533Y002219D01*
X019468Y002219D02*
X019533Y002219D01*
X020468Y002219D02*
X020490Y002219D01*
X020950Y002219D02*
X021050Y002219D01*
X021511Y002219D02*
X021530Y002219D01*
X022470Y002219D02*
X024108Y002219D01*
X024608Y002219D02*
X024708Y002219D01*
X025208Y002219D02*
X026166Y002219D01*
X027726Y002219D02*
X029178Y002219D01*
X030178Y002219D02*
X030642Y002219D01*
X031469Y002219D02*
X032977Y002219D01*
X034252Y002219D02*
X035039Y002219D01*
X001186Y002317D02*
X000300Y002317D01*
X002263Y002317D02*
X006216Y002317D01*
X007076Y002317D02*
X011067Y002317D01*
X012067Y002317D02*
X012485Y002317D01*
X013406Y002317D02*
X014574Y002317D01*
X015427Y002317D02*
X015574Y002317D01*
X016427Y002317D02*
X016574Y002317D01*
X017427Y002317D02*
X017574Y002317D01*
X018427Y002317D02*
X018574Y002317D01*
X019427Y002317D02*
X019574Y002317D01*
X020427Y002317D02*
X020518Y002317D01*
X020950Y002317D02*
X021050Y002317D01*
X021483Y002317D02*
X021530Y002317D01*
X022470Y002317D02*
X024108Y002317D01*
X024608Y002317D02*
X024708Y002317D01*
X025208Y002317D02*
X026126Y002317D01*
X027825Y002317D02*
X029178Y002317D01*
X030178Y002317D02*
X030595Y002317D01*
X032353Y002317D02*
X033076Y002317D01*
X034153Y002317D02*
X035039Y002317D01*
X001303Y002416D02*
X000300Y002416D01*
X002147Y002416D02*
X006216Y002416D01*
X007076Y002416D02*
X011067Y002416D01*
X012067Y002416D02*
X012445Y002416D01*
X013445Y002416D02*
X014633Y002416D01*
X015368Y002416D02*
X015633Y002416D01*
X016368Y002416D02*
X016633Y002416D01*
X017368Y002416D02*
X017633Y002416D01*
X018368Y002416D02*
X018633Y002416D01*
X019368Y002416D02*
X019633Y002416D01*
X020368Y002416D02*
X020573Y002416D01*
X020950Y002416D02*
X021050Y002416D01*
X021427Y002416D02*
X021530Y002416D01*
X022470Y002416D02*
X024608Y002416D01*
X024708Y002416D02*
X026126Y002416D01*
X027923Y002416D02*
X029178Y002416D01*
X030178Y002416D02*
X030556Y002416D01*
X032451Y002416D02*
X033193Y002416D01*
X034037Y002416D02*
X035039Y002416D01*
X001541Y002514D02*
X000300Y002514D01*
X001909Y002514D02*
X006216Y002514D01*
X007076Y002514D02*
X011067Y002514D01*
X012067Y002514D02*
X012445Y002514D01*
X013445Y002514D02*
X014731Y002514D01*
X015270Y002514D02*
X015731Y002514D01*
X016270Y002514D02*
X016731Y002514D01*
X017270Y002514D02*
X017731Y002514D01*
X018270Y002514D02*
X018731Y002514D01*
X019270Y002514D02*
X019731Y002514D01*
X020270Y002514D02*
X020661Y002514D01*
X020950Y002514D02*
X021050Y002514D01*
X021340Y002514D02*
X021530Y002514D01*
X022470Y002514D02*
X024108Y002514D01*
X024608Y002514D02*
X024708Y002514D01*
X025208Y002514D02*
X026127Y002514D01*
X028022Y002514D02*
X029178Y002514D01*
X030178Y002514D02*
X030556Y002514D01*
X032550Y002514D02*
X033430Y002514D01*
X033799Y002514D02*
X035039Y002514D01*
X006216Y002613D02*
X000300Y002613D01*
X007076Y002613D02*
X011067Y002613D01*
X012067Y002613D02*
X012446Y002613D01*
X013445Y002613D02*
X014780Y002613D01*
X015220Y002613D02*
X015780Y002613D01*
X016220Y002613D02*
X016780Y002613D01*
X017220Y002613D02*
X017780Y002613D01*
X018220Y002613D02*
X020838Y002613D01*
X020950Y002613D02*
X021050Y002613D01*
X021163Y002613D02*
X024108Y002613D01*
X024608Y002613D02*
X024708Y002613D01*
X025208Y002613D02*
X026167Y002613D01*
X028120Y002613D02*
X029178Y002613D01*
X030178Y002613D02*
X030556Y002613D01*
X032648Y002613D02*
X035039Y002613D01*
X006216Y002711D02*
X000300Y002711D01*
X007076Y002711D02*
X011067Y002711D01*
X012067Y002711D02*
X012486Y002711D01*
X013404Y002711D02*
X014780Y002711D01*
X015220Y002711D02*
X015780Y002711D01*
X016220Y002711D02*
X016780Y002711D01*
X017220Y002711D02*
X017780Y002711D01*
X018220Y002711D02*
X024108Y002711D01*
X024608Y002711D02*
X024708Y002711D01*
X025208Y002711D02*
X026216Y002711D01*
X027036Y002711D02*
X027597Y002711D01*
X028219Y002711D02*
X029178Y002711D01*
X030178Y002711D02*
X030546Y002711D01*
X032747Y002711D02*
X035039Y002711D01*
X006216Y002810D02*
X000300Y002810D01*
X007076Y002810D02*
X008963Y002810D01*
X009447Y002810D02*
X011067Y002810D01*
X012067Y002810D02*
X012535Y002810D01*
X013355Y002810D02*
X014780Y002810D01*
X015220Y002810D02*
X015780Y002810D01*
X016220Y002810D02*
X016780Y002810D01*
X017220Y002810D02*
X017780Y002810D01*
X018220Y002810D02*
X024108Y002810D01*
X024608Y002810D02*
X024708Y002810D01*
X025208Y002810D02*
X026315Y002810D01*
X026938Y002810D02*
X027695Y002810D01*
X028317Y002810D02*
X029178Y002810D01*
X030178Y002810D02*
X030447Y002810D01*
X031465Y002810D02*
X032223Y002810D01*
X032845Y002810D02*
X035039Y002810D01*
X006216Y002908D02*
X000300Y002908D01*
X007076Y002908D02*
X008856Y002908D01*
X009554Y002908D02*
X011067Y002908D01*
X012067Y002908D02*
X012634Y002908D01*
X013257Y002908D02*
X014780Y002908D01*
X015220Y002908D02*
X015780Y002908D01*
X016220Y002908D02*
X016780Y002908D01*
X017220Y002908D02*
X017780Y002908D01*
X018220Y002908D02*
X024140Y002908D01*
X024608Y002908D02*
X024708Y002908D01*
X025176Y002908D02*
X026513Y002908D01*
X026740Y002908D02*
X027794Y002908D01*
X028323Y002908D02*
X029178Y002908D01*
X030178Y002908D02*
X030349Y002908D01*
X031367Y002908D02*
X032321Y002908D01*
X032944Y002908D02*
X035039Y002908D01*
X006216Y003007D02*
X000300Y003007D01*
X007076Y003007D02*
X008794Y003007D01*
X009616Y003007D02*
X011120Y003007D01*
X012014Y003007D02*
X012832Y003007D01*
X013058Y003007D02*
X014780Y003007D01*
X015220Y003007D02*
X015780Y003007D01*
X016220Y003007D02*
X016780Y003007D01*
X017220Y003007D02*
X017780Y003007D01*
X018220Y003007D02*
X027883Y003007D01*
X028323Y003007D02*
X029230Y003007D01*
X030125Y003007D02*
X030250Y003007D01*
X030872Y003007D02*
X030942Y003007D01*
X031169Y003007D02*
X032420Y003007D01*
X033042Y003007D02*
X035039Y003007D01*
X006216Y003105D02*
X000300Y003105D01*
X007076Y003105D02*
X008753Y003105D01*
X009657Y003105D02*
X011347Y003105D01*
X011787Y003105D02*
X014780Y003105D01*
X015220Y003105D02*
X015780Y003105D01*
X016220Y003105D02*
X016780Y003105D01*
X017220Y003105D02*
X017780Y003105D01*
X018220Y003105D02*
X027883Y003105D01*
X028323Y003105D02*
X030152Y003105D01*
X030774Y003105D02*
X032518Y003105D01*
X033141Y003105D02*
X035039Y003105D01*
X006134Y003204D02*
X000300Y003204D01*
X007076Y003204D02*
X008751Y003204D01*
X009659Y003204D02*
X011347Y003204D01*
X011787Y003204D02*
X014780Y003204D01*
X015220Y003204D02*
X015780Y003204D01*
X016220Y003204D02*
X016780Y003204D01*
X017220Y003204D02*
X017780Y003204D01*
X018220Y003204D02*
X027883Y003204D01*
X028323Y003204D02*
X030053Y003204D01*
X030675Y003204D02*
X032617Y003204D01*
X033239Y003204D02*
X035039Y003204D01*
X006036Y003302D02*
X000300Y003302D01*
X007076Y003302D02*
X008755Y003302D01*
X009655Y003302D02*
X011347Y003302D01*
X011787Y003302D02*
X014780Y003302D01*
X015220Y003302D02*
X015780Y003302D01*
X016220Y003302D02*
X016780Y003302D01*
X017220Y003302D02*
X017780Y003302D01*
X018220Y003302D02*
X027883Y003302D01*
X028323Y003302D02*
X029955Y003302D01*
X030577Y003302D02*
X032715Y003302D01*
X033338Y003302D02*
X035039Y003302D01*
X005937Y003401D02*
X000300Y003401D01*
X007070Y003401D02*
X008775Y003401D01*
X009635Y003401D02*
X011347Y003401D01*
X011787Y003401D02*
X014780Y003401D01*
X015220Y003401D02*
X015780Y003401D01*
X016220Y003401D02*
X016780Y003401D01*
X017220Y003401D02*
X017780Y003401D01*
X018220Y003401D02*
X027883Y003401D01*
X028323Y003401D02*
X029856Y003401D01*
X030478Y003401D02*
X032814Y003401D01*
X033436Y003401D02*
X035039Y003401D01*
X005839Y003499D02*
X000300Y003499D01*
X007029Y003499D02*
X008775Y003499D01*
X009635Y003499D02*
X011347Y003499D01*
X011787Y003499D02*
X014780Y003499D01*
X015220Y003499D02*
X015780Y003499D01*
X016220Y003499D02*
X016780Y003499D01*
X017220Y003499D02*
X017780Y003499D01*
X018220Y003499D02*
X027883Y003499D01*
X028323Y003499D02*
X029758Y003499D01*
X030380Y003499D02*
X032912Y003499D01*
X033535Y003499D02*
X035039Y003499D01*
X005740Y003598D02*
X000300Y003598D01*
X006956Y003598D02*
X008775Y003598D01*
X009635Y003598D02*
X011347Y003598D01*
X011787Y003598D02*
X014780Y003598D01*
X015220Y003598D02*
X015780Y003598D01*
X016220Y003598D02*
X016780Y003598D01*
X017220Y003598D02*
X017780Y003598D01*
X018220Y003598D02*
X027883Y003598D01*
X028323Y003598D02*
X029659Y003598D01*
X030281Y003598D02*
X033011Y003598D01*
X033633Y003598D02*
X035039Y003598D01*
X005642Y003696D02*
X000300Y003696D01*
X006858Y003696D02*
X008775Y003696D01*
X009635Y003696D02*
X011347Y003696D01*
X011787Y003696D02*
X014780Y003696D01*
X015220Y003696D02*
X015780Y003696D01*
X016220Y003696D02*
X016780Y003696D01*
X017220Y003696D02*
X017780Y003696D01*
X018220Y003696D02*
X027883Y003696D01*
X028323Y003696D02*
X029561Y003696D01*
X030183Y003696D02*
X033109Y003696D01*
X033732Y003696D02*
X035039Y003696D01*
X005543Y003795D02*
X000300Y003795D01*
X006759Y003795D02*
X008775Y003795D01*
X009635Y003795D02*
X011347Y003795D01*
X011787Y003795D02*
X014780Y003795D01*
X015220Y003795D02*
X015780Y003795D01*
X016220Y003795D02*
X016780Y003795D01*
X017220Y003795D02*
X017780Y003795D01*
X018279Y003795D02*
X027883Y003795D01*
X028323Y003795D02*
X029462Y003795D01*
X030084Y003795D02*
X033208Y003795D01*
X033830Y003795D02*
X035039Y003795D01*
X005445Y003893D02*
X000300Y003893D01*
X006661Y003893D02*
X008775Y003893D01*
X009635Y003893D02*
X011347Y003893D01*
X011787Y003893D02*
X014780Y003893D01*
X015220Y003893D02*
X015780Y003893D01*
X016220Y003893D02*
X016780Y003893D01*
X017220Y003893D02*
X017780Y003893D01*
X018377Y003893D02*
X027883Y003893D01*
X028323Y003893D02*
X029364Y003893D01*
X029986Y003893D02*
X033306Y003893D01*
X033929Y003893D02*
X035039Y003893D01*
X005346Y003992D02*
X000300Y003992D01*
X006562Y003992D02*
X008775Y003992D01*
X009635Y003992D02*
X011347Y003992D01*
X011787Y003992D02*
X014780Y003992D01*
X015220Y003992D02*
X015780Y003992D01*
X016220Y003992D02*
X016780Y003992D01*
X017220Y003992D02*
X017854Y003992D01*
X018476Y003992D02*
X027883Y003992D01*
X028323Y003992D02*
X029265Y003992D01*
X029887Y003992D02*
X033405Y003992D01*
X034027Y003992D02*
X035039Y003992D01*
X005248Y004090D02*
X000300Y004090D01*
X006464Y004090D02*
X008775Y004090D01*
X009635Y004090D02*
X011347Y004090D01*
X011787Y004090D02*
X014780Y004090D01*
X015228Y004090D02*
X015780Y004090D01*
X016220Y004090D02*
X016780Y004090D01*
X017220Y004090D02*
X017952Y004090D01*
X023889Y004090D02*
X027883Y004090D01*
X028323Y004090D02*
X029182Y004090D01*
X029789Y004090D02*
X033503Y004090D01*
X034126Y004090D02*
X035039Y004090D01*
X005149Y004189D02*
X000300Y004189D01*
X006365Y004189D02*
X008692Y004189D01*
X009635Y004189D02*
X011347Y004189D01*
X011787Y004189D02*
X014780Y004189D01*
X015326Y004189D02*
X015780Y004189D01*
X016311Y004189D02*
X016780Y004189D01*
X017295Y004189D02*
X018051Y004189D01*
X023988Y004189D02*
X027883Y004189D01*
X028323Y004189D02*
X029182Y004189D01*
X029690Y004189D02*
X033602Y004189D01*
X034224Y004189D02*
X035039Y004189D01*
X005051Y004287D02*
X000300Y004287D01*
X006267Y004287D02*
X008594Y004287D01*
X009635Y004287D02*
X011347Y004287D01*
X011787Y004287D02*
X014803Y004287D01*
X015425Y004287D02*
X015787Y004287D01*
X016409Y004287D02*
X016780Y004287D01*
X017393Y004287D02*
X018149Y004287D01*
X024086Y004287D02*
X027883Y004287D01*
X028323Y004287D02*
X029182Y004287D01*
X029622Y004287D02*
X029675Y004287D01*
X030074Y004287D02*
X033700Y004287D01*
X034323Y004287D02*
X035039Y004287D01*
X004952Y004386D02*
X000300Y004386D01*
X006168Y004386D02*
X008495Y004386D01*
X009628Y004386D02*
X011347Y004386D01*
X011787Y004386D02*
X014901Y004386D01*
X015523Y004386D02*
X015885Y004386D01*
X016508Y004386D02*
X016870Y004386D01*
X017492Y004386D02*
X018248Y004386D01*
X024185Y004386D02*
X027883Y004386D01*
X028323Y004386D02*
X029182Y004386D01*
X030136Y004386D02*
X033799Y004386D01*
X034421Y004386D02*
X035039Y004386D01*
X004854Y004484D02*
X000300Y004484D01*
X006070Y004484D02*
X008397Y004484D01*
X009588Y004484D02*
X011347Y004484D01*
X011787Y004484D02*
X015000Y004484D01*
X015622Y004484D02*
X015984Y004484D01*
X016606Y004484D02*
X016968Y004484D01*
X024283Y004484D02*
X027883Y004484D01*
X028323Y004484D02*
X029182Y004484D01*
X030153Y004484D02*
X033897Y004484D01*
X034520Y004484D02*
X035039Y004484D01*
X004755Y004583D02*
X000300Y004583D01*
X005971Y004583D02*
X008298Y004583D01*
X009515Y004583D02*
X011347Y004583D01*
X011787Y004583D02*
X015098Y004583D01*
X015720Y004583D02*
X016082Y004583D01*
X016705Y004583D02*
X017067Y004583D01*
X023398Y004583D02*
X023760Y004583D01*
X024382Y004583D02*
X027883Y004583D01*
X028323Y004583D02*
X029182Y004583D01*
X030133Y004583D02*
X033996Y004583D01*
X034618Y004583D02*
X035039Y004583D01*
X004657Y004681D02*
X000300Y004681D01*
X005873Y004681D02*
X008200Y004681D01*
X009416Y004681D02*
X011347Y004681D01*
X011787Y004681D02*
X015197Y004681D01*
X015819Y004681D02*
X016181Y004681D01*
X016803Y004681D02*
X017165Y004681D01*
X023496Y004681D02*
X023858Y004681D01*
X024480Y004681D02*
X027883Y004681D01*
X028323Y004681D02*
X029182Y004681D01*
X030067Y004681D02*
X034094Y004681D01*
X034717Y004681D02*
X035039Y004681D01*
X004558Y004780D02*
X000300Y004780D01*
X005774Y004780D02*
X008101Y004780D01*
X009318Y004780D02*
X011347Y004780D01*
X011787Y004780D02*
X015295Y004780D01*
X015917Y004780D02*
X016279Y004780D01*
X016902Y004780D02*
X017264Y004780D01*
X023595Y004780D02*
X023957Y004780D01*
X024579Y004780D02*
X027883Y004780D01*
X028323Y004780D02*
X029182Y004780D01*
X030358Y004780D02*
X034193Y004780D01*
X034815Y004780D02*
X035039Y004780D01*
X004460Y004878D02*
X000300Y004878D01*
X005676Y004878D02*
X008003Y004878D01*
X009219Y004878D02*
X011347Y004878D01*
X011787Y004878D02*
X015394Y004878D01*
X016016Y004878D02*
X016378Y004878D01*
X023693Y004878D02*
X024055Y004878D01*
X024677Y004878D02*
X027883Y004878D01*
X028323Y004878D02*
X029182Y004878D01*
X030358Y004878D02*
X034291Y004878D01*
X034914Y004878D02*
X035039Y004878D01*
X004361Y004977D02*
X000300Y004977D01*
X005577Y004977D02*
X007904Y004977D01*
X009121Y004977D02*
X011186Y004977D01*
X011949Y004977D02*
X015492Y004977D01*
X016114Y004977D02*
X016476Y004977D01*
X022610Y004977D02*
X023169Y004977D01*
X023792Y004977D02*
X024154Y004977D01*
X024776Y004977D02*
X027668Y004977D01*
X030358Y004977D02*
X034390Y004977D01*
X035012Y004977D02*
X035039Y004977D01*
X004263Y005075D02*
X000300Y005075D01*
X005479Y005075D02*
X007806Y005075D01*
X009022Y005075D02*
X011172Y005075D01*
X015426Y005075D02*
X015591Y005075D01*
X016213Y005075D02*
X016575Y005075D01*
X022709Y005075D02*
X023268Y005075D01*
X023890Y005075D02*
X024252Y005075D01*
X024874Y005075D02*
X027668Y005075D01*
X030358Y005075D02*
X034488Y005075D01*
X035016Y005075D02*
X035039Y005075D01*
X002483Y005174D02*
X000300Y005174D01*
X002738Y005174D02*
X004164Y005174D01*
X005380Y005174D02*
X007707Y005174D01*
X008924Y005174D02*
X011172Y005174D01*
X015524Y005174D02*
X015689Y005174D01*
X016311Y005174D02*
X016673Y005174D01*
X022807Y005174D02*
X023366Y005174D01*
X023989Y005174D02*
X024351Y005174D01*
X024973Y005174D02*
X027668Y005174D01*
X030358Y005174D02*
X034576Y005174D01*
X035016Y005174D02*
X035039Y005174D01*
X002293Y005272D02*
X000300Y005272D01*
X005282Y005272D02*
X007609Y005272D01*
X008825Y005272D02*
X011172Y005272D01*
X015623Y005272D02*
X015788Y005272D01*
X022906Y005272D02*
X023465Y005272D01*
X024087Y005272D02*
X024449Y005272D01*
X025071Y005272D02*
X026855Y005272D01*
X027500Y005272D02*
X027668Y005272D01*
X030358Y005272D02*
X034576Y005272D01*
X035016Y005272D02*
X035039Y005272D01*
X002195Y005371D02*
X000300Y005371D01*
X005183Y005371D02*
X007510Y005371D01*
X008727Y005371D02*
X011172Y005371D01*
X015721Y005371D02*
X015886Y005371D01*
X021823Y005371D02*
X022382Y005371D01*
X023004Y005371D02*
X023563Y005371D01*
X024122Y005371D02*
X024548Y005371D01*
X025122Y005371D02*
X026802Y005371D01*
X027553Y005371D02*
X027668Y005371D01*
X029943Y005371D02*
X029983Y005371D01*
X030317Y005371D02*
X034576Y005371D01*
X035016Y005371D02*
X035039Y005371D01*
X002149Y005469D02*
X000300Y005469D01*
X005085Y005469D02*
X007412Y005469D01*
X008628Y005469D02*
X011172Y005469D01*
X011963Y005469D02*
X015197Y005469D01*
X015820Y005469D02*
X015985Y005469D01*
X021922Y005469D02*
X022481Y005469D01*
X023103Y005469D02*
X023662Y005469D01*
X024122Y005469D02*
X024646Y005469D01*
X025122Y005469D02*
X026802Y005469D01*
X027553Y005469D02*
X027709Y005469D01*
X028378Y005469D02*
X029182Y005469D01*
X029622Y005469D02*
X034576Y005469D01*
X035016Y005469D02*
X035039Y005469D01*
X002111Y005568D02*
X000300Y005568D01*
X004986Y005568D02*
X007313Y005568D01*
X008530Y005568D02*
X015296Y005568D01*
X015918Y005568D02*
X016083Y005568D01*
X022020Y005568D02*
X022579Y005568D01*
X023122Y005568D02*
X023682Y005568D01*
X024122Y005568D02*
X024682Y005568D01*
X025122Y005568D02*
X026802Y005568D01*
X027553Y005568D02*
X029182Y005568D01*
X029622Y005568D02*
X034576Y005568D01*
X035016Y005568D02*
X035039Y005568D01*
X002111Y005666D02*
X000300Y005666D01*
X004888Y005666D02*
X007215Y005666D01*
X008431Y005666D02*
X015394Y005666D01*
X016017Y005666D02*
X016182Y005666D01*
X022119Y005666D02*
X022678Y005666D01*
X023122Y005666D02*
X023682Y005666D01*
X024122Y005666D02*
X024682Y005666D01*
X025122Y005666D02*
X026802Y005666D01*
X027553Y005666D02*
X027701Y005666D01*
X028386Y005666D02*
X028689Y005666D01*
X029091Y005666D02*
X029182Y005666D01*
X029622Y005666D02*
X034576Y005666D01*
X035016Y005666D02*
X035039Y005666D01*
X002112Y005765D02*
X000300Y005765D01*
X004789Y005765D02*
X007116Y005765D01*
X008333Y005765D02*
X011154Y005765D01*
X011517Y005765D02*
X011617Y005765D01*
X011981Y005765D02*
X015493Y005765D01*
X016115Y005765D02*
X021595Y005765D01*
X022122Y005765D02*
X022682Y005765D01*
X023122Y005765D02*
X023682Y005765D01*
X024122Y005765D02*
X024682Y005765D01*
X025122Y005765D02*
X026802Y005765D01*
X027553Y005765D02*
X027668Y005765D01*
X029152Y005765D02*
X029182Y005765D01*
X029772Y005765D02*
X029780Y005765D01*
X030325Y005765D02*
X034576Y005765D01*
X035016Y005765D02*
X035039Y005765D01*
X002153Y005863D02*
X000300Y005863D01*
X004691Y005863D02*
X007018Y005863D01*
X008234Y005863D02*
X011122Y005863D01*
X011517Y005863D02*
X011617Y005863D01*
X012013Y005863D02*
X015591Y005863D01*
X019757Y005863D02*
X021682Y005863D01*
X022122Y005863D02*
X022682Y005863D01*
X023122Y005863D02*
X023682Y005863D01*
X024122Y005863D02*
X024682Y005863D01*
X025122Y005863D02*
X026958Y005863D01*
X027398Y005863D02*
X027668Y005863D01*
X029168Y005863D02*
X029182Y005863D01*
X029772Y005863D02*
X029780Y005863D01*
X030863Y005863D02*
X034576Y005863D01*
X035016Y005863D02*
X035039Y005863D01*
X002203Y005962D02*
X000300Y005962D01*
X004592Y005962D02*
X006919Y005962D01*
X008136Y005962D02*
X011122Y005962D01*
X011517Y005962D02*
X011617Y005962D01*
X012013Y005962D02*
X015690Y005962D01*
X019855Y005962D02*
X021682Y005962D01*
X022122Y005962D02*
X022682Y005962D01*
X023122Y005962D02*
X023682Y005962D01*
X024122Y005962D02*
X024682Y005962D01*
X025122Y005962D02*
X026958Y005962D01*
X027466Y005962D02*
X027668Y005962D01*
X029149Y005962D02*
X029182Y005962D01*
X029772Y005962D02*
X029780Y005962D01*
X030924Y005962D02*
X034576Y005962D01*
X035016Y005962D02*
X035039Y005962D01*
X002302Y006060D02*
X000300Y006060D01*
X004446Y006060D02*
X006821Y006060D01*
X008037Y006060D02*
X011517Y006060D01*
X011617Y006060D02*
X012744Y006060D01*
X019954Y006060D02*
X021682Y006060D01*
X022122Y006060D02*
X022682Y006060D01*
X023122Y006060D02*
X023682Y006060D01*
X024122Y006060D02*
X024682Y006060D01*
X025122Y006060D02*
X026958Y006060D01*
X027564Y006060D02*
X027668Y006060D01*
X029082Y006060D02*
X029182Y006060D01*
X029772Y006060D02*
X029780Y006060D01*
X030940Y006060D02*
X034576Y006060D01*
X035016Y006060D02*
X035039Y006060D01*
X002503Y006159D02*
X000300Y006159D01*
X002718Y006159D02*
X006722Y006159D01*
X007939Y006159D02*
X011122Y006159D01*
X011517Y006159D02*
X011617Y006159D01*
X012013Y006159D02*
X012683Y006159D01*
X020052Y006159D02*
X021682Y006159D01*
X022122Y006159D02*
X022682Y006159D01*
X023122Y006159D02*
X023682Y006159D01*
X024122Y006159D02*
X024682Y006159D01*
X025122Y006159D02*
X027040Y006159D01*
X027663Y006159D02*
X027668Y006159D01*
X028419Y006159D02*
X029182Y006159D01*
X029772Y006159D02*
X029780Y006159D01*
X030920Y006159D02*
X034576Y006159D01*
X035016Y006159D02*
X035039Y006159D01*
X006624Y006257D02*
X000300Y006257D01*
X007840Y006257D02*
X011122Y006257D01*
X011517Y006257D02*
X011617Y006257D01*
X012013Y006257D02*
X012667Y006257D01*
X020122Y006257D02*
X021682Y006257D01*
X022122Y006257D02*
X022682Y006257D01*
X023122Y006257D02*
X023682Y006257D01*
X024122Y006257D02*
X024682Y006257D01*
X025122Y006257D02*
X027139Y006257D01*
X027761Y006257D02*
X029194Y006257D01*
X029772Y006257D02*
X029780Y006257D01*
X030854Y006257D02*
X034576Y006257D01*
X035016Y006257D02*
X035039Y006257D01*
X006525Y006356D02*
X000300Y006356D01*
X007742Y006356D02*
X011136Y006356D01*
X011517Y006356D02*
X011617Y006356D01*
X011999Y006356D02*
X012687Y006356D01*
X016115Y006356D02*
X016619Y006356D01*
X017185Y006356D02*
X017619Y006356D01*
X018185Y006356D02*
X018619Y006356D01*
X019185Y006356D02*
X019619Y006356D01*
X020185Y006356D02*
X020619Y006356D01*
X021185Y006356D02*
X021619Y006356D01*
X022185Y006356D02*
X022619Y006356D01*
X023185Y006356D02*
X023619Y006356D01*
X024185Y006356D02*
X024619Y006356D01*
X025185Y006356D02*
X025619Y006356D01*
X026185Y006356D02*
X026619Y006356D01*
X027185Y006356D02*
X027237Y006356D01*
X028185Y006356D02*
X029196Y006356D01*
X029772Y006356D02*
X029780Y006356D01*
X030370Y006356D02*
X034576Y006356D01*
X035016Y006356D02*
X035039Y006356D01*
X006427Y006454D02*
X000300Y006454D01*
X007643Y006454D02*
X012754Y006454D01*
X016296Y006454D02*
X016521Y006454D01*
X017283Y006454D02*
X017521Y006454D01*
X018283Y006454D02*
X018521Y006454D01*
X019283Y006454D02*
X019521Y006454D01*
X020283Y006454D02*
X020521Y006454D01*
X021283Y006454D02*
X021521Y006454D01*
X022283Y006454D02*
X022521Y006454D01*
X023283Y006454D02*
X023521Y006454D01*
X024283Y006454D02*
X024521Y006454D01*
X025283Y006454D02*
X025521Y006454D01*
X026283Y006454D02*
X026521Y006454D01*
X027283Y006454D02*
X027336Y006454D01*
X028283Y006454D02*
X029620Y006454D01*
X029772Y006454D02*
X029780Y006454D01*
X030370Y006454D02*
X033004Y006454D01*
X033800Y006454D02*
X034576Y006454D01*
X035016Y006454D02*
X035039Y006454D01*
X006328Y006553D02*
X000300Y006553D01*
X007545Y006553D02*
X015690Y006553D01*
X016357Y006553D02*
X016480Y006553D01*
X017324Y006553D02*
X017480Y006553D01*
X018324Y006553D02*
X018480Y006553D01*
X019324Y006553D02*
X019480Y006553D01*
X020324Y006553D02*
X020480Y006553D01*
X021324Y006553D02*
X021480Y006553D01*
X022324Y006553D02*
X022480Y006553D01*
X023324Y006553D02*
X023480Y006553D01*
X024324Y006553D02*
X024480Y006553D01*
X025324Y006553D02*
X025480Y006553D01*
X026324Y006553D02*
X026480Y006553D01*
X027324Y006553D02*
X027434Y006553D01*
X028324Y006553D02*
X029930Y006553D01*
X030370Y006553D02*
X032856Y006553D01*
X033948Y006553D02*
X034576Y006553D01*
X035016Y006553D02*
X035039Y006553D01*
X006230Y006651D02*
X000300Y006651D01*
X007446Y006651D02*
X015051Y006651D01*
X015753Y006651D02*
X015789Y006651D01*
X016373Y006651D02*
X016452Y006651D01*
X017352Y006651D02*
X017452Y006651D01*
X018352Y006651D02*
X018452Y006651D01*
X019352Y006651D02*
X019452Y006651D01*
X020352Y006651D02*
X020452Y006651D01*
X021352Y006651D02*
X021452Y006651D01*
X022352Y006651D02*
X022452Y006651D01*
X023352Y006651D02*
X023452Y006651D01*
X024352Y006651D02*
X024452Y006651D01*
X025352Y006651D02*
X025452Y006651D01*
X026352Y006651D02*
X026452Y006651D01*
X027352Y006651D02*
X027452Y006651D01*
X028352Y006651D02*
X029930Y006651D01*
X030370Y006651D02*
X032758Y006651D01*
X034046Y006651D02*
X034576Y006651D01*
X035016Y006651D02*
X035039Y006651D01*
X006131Y006750D02*
X000300Y006750D01*
X007348Y006750D02*
X014942Y006750D01*
X016353Y006750D02*
X016452Y006750D01*
X017352Y006750D02*
X017452Y006750D01*
X018352Y006750D02*
X018452Y006750D01*
X019352Y006750D02*
X019452Y006750D01*
X020352Y006750D02*
X020452Y006750D01*
X021352Y006750D02*
X021452Y006750D01*
X022352Y006750D02*
X022452Y006750D01*
X023352Y006750D02*
X023452Y006750D01*
X024352Y006750D02*
X024452Y006750D01*
X025352Y006750D02*
X025452Y006750D01*
X026352Y006750D02*
X026452Y006750D01*
X027352Y006750D02*
X027452Y006750D01*
X028352Y006750D02*
X029854Y006750D01*
X030370Y006750D02*
X032672Y006750D01*
X034132Y006750D02*
X034576Y006750D01*
X035016Y006750D02*
X035039Y006750D01*
X006033Y006848D02*
X000300Y006848D01*
X007249Y006848D02*
X014848Y006848D01*
X016286Y006848D02*
X016472Y006848D01*
X017331Y006848D02*
X017472Y006848D01*
X018331Y006848D02*
X018472Y006848D01*
X019331Y006848D02*
X019472Y006848D01*
X020331Y006848D02*
X020472Y006848D01*
X021331Y006848D02*
X021472Y006848D01*
X022331Y006848D02*
X022472Y006848D01*
X023331Y006848D02*
X023472Y006848D01*
X024331Y006848D02*
X024472Y006848D01*
X025331Y006848D02*
X025472Y006848D01*
X026331Y006848D02*
X026472Y006848D01*
X027331Y006848D02*
X027472Y006848D01*
X028331Y006848D02*
X029755Y006848D01*
X030370Y006848D02*
X032631Y006848D01*
X034172Y006848D02*
X034576Y006848D01*
X035016Y006848D02*
X035039Y006848D01*
X005934Y006947D02*
X000300Y006947D01*
X007151Y006947D02*
X014807Y006947D01*
X015997Y006947D02*
X016513Y006947D01*
X017291Y006947D02*
X017513Y006947D01*
X018291Y006947D02*
X018513Y006947D01*
X019291Y006947D02*
X019513Y006947D01*
X020291Y006947D02*
X020513Y006947D01*
X021291Y006947D02*
X021513Y006947D01*
X022291Y006947D02*
X022513Y006947D01*
X023291Y006947D02*
X023513Y006947D01*
X024291Y006947D02*
X024513Y006947D01*
X025291Y006947D02*
X025513Y006947D01*
X026291Y006947D02*
X026513Y006947D01*
X027291Y006947D02*
X027513Y006947D01*
X028291Y006947D02*
X029657Y006947D01*
X030279Y006947D02*
X032591Y006947D01*
X034213Y006947D02*
X034576Y006947D01*
X035016Y006947D02*
X035039Y006947D01*
X005836Y007045D02*
X000300Y007045D01*
X007052Y007045D02*
X014766Y007045D01*
X016038Y007045D02*
X016602Y007045D01*
X017202Y007045D02*
X017602Y007045D01*
X018202Y007045D02*
X018602Y007045D01*
X019202Y007045D02*
X019602Y007045D01*
X020202Y007045D02*
X020602Y007045D01*
X021202Y007045D02*
X021602Y007045D01*
X022202Y007045D02*
X022602Y007045D01*
X023202Y007045D02*
X023602Y007045D01*
X024202Y007045D02*
X024602Y007045D01*
X025202Y007045D02*
X025602Y007045D01*
X026202Y007045D02*
X026602Y007045D01*
X027202Y007045D02*
X027602Y007045D01*
X028202Y007045D02*
X029595Y007045D01*
X030180Y007045D02*
X032552Y007045D01*
X034252Y007045D02*
X034576Y007045D01*
X035016Y007045D02*
X035039Y007045D01*
X002156Y007144D02*
X000300Y007144D01*
X003065Y007144D02*
X005737Y007144D01*
X006954Y007144D02*
X014752Y007144D01*
X016052Y007144D02*
X016775Y007144D01*
X017029Y007144D02*
X017775Y007144D01*
X018029Y007144D02*
X018775Y007144D01*
X019029Y007144D02*
X019775Y007144D01*
X020029Y007144D02*
X020775Y007144D01*
X021029Y007144D02*
X021775Y007144D01*
X022029Y007144D02*
X022775Y007144D01*
X023029Y007144D02*
X023775Y007144D01*
X024029Y007144D02*
X024775Y007144D01*
X025029Y007144D02*
X025775Y007144D01*
X026029Y007144D02*
X026775Y007144D01*
X027029Y007144D02*
X027775Y007144D01*
X028029Y007144D02*
X029595Y007144D01*
X030082Y007144D02*
X032552Y007144D01*
X034252Y007144D02*
X034576Y007144D01*
X035016Y007144D02*
X035039Y007144D01*
X002111Y007242D02*
X000300Y007242D01*
X006855Y007242D02*
X014752Y007242D01*
X016052Y007242D02*
X029595Y007242D01*
X030035Y007242D02*
X032552Y007242D01*
X034252Y007242D02*
X034576Y007242D01*
X035016Y007242D02*
X035039Y007242D01*
X002111Y007341D02*
X000300Y007341D01*
X006757Y007341D02*
X014753Y007341D01*
X016051Y007341D02*
X028200Y007341D01*
X028506Y007341D02*
X028606Y007341D01*
X028911Y007341D02*
X029531Y007341D01*
X030100Y007341D02*
X032552Y007341D01*
X034252Y007341D02*
X034576Y007341D01*
X035016Y007341D02*
X035039Y007341D01*
X002111Y007439D02*
X000300Y007439D01*
X006658Y007439D02*
X014794Y007439D01*
X016010Y007439D02*
X028169Y007439D01*
X028506Y007439D02*
X028606Y007439D01*
X028942Y007439D02*
X029479Y007439D01*
X030152Y007439D02*
X032577Y007439D01*
X034227Y007439D02*
X034576Y007439D01*
X035016Y007439D02*
X035039Y007439D01*
X002111Y007538D02*
X000300Y007538D01*
X006560Y007538D02*
X014834Y007538D01*
X015969Y007538D02*
X028169Y007538D01*
X028506Y007538D02*
X028606Y007538D01*
X028942Y007538D02*
X029479Y007538D01*
X030152Y007538D02*
X032618Y007538D01*
X034186Y007538D02*
X034576Y007538D01*
X035016Y007538D02*
X035039Y007538D01*
X002111Y007636D02*
X000300Y007636D01*
X006461Y007636D02*
X014910Y007636D01*
X015894Y007636D02*
X028169Y007636D01*
X028506Y007636D02*
X028606Y007636D01*
X028942Y007636D02*
X029479Y007636D01*
X030152Y007636D02*
X032659Y007636D01*
X034145Y007636D02*
X034576Y007636D01*
X035016Y007636D02*
X035039Y007636D01*
X002111Y007735D02*
X000300Y007735D01*
X006363Y007735D02*
X015008Y007735D01*
X015796Y007735D02*
X028169Y007735D01*
X028506Y007735D02*
X028606Y007735D01*
X028942Y007735D02*
X029479Y007735D01*
X030152Y007735D02*
X032725Y007735D01*
X034079Y007735D02*
X034576Y007735D01*
X035016Y007735D02*
X035039Y007735D01*
X002111Y007833D02*
X000300Y007833D01*
X006264Y007833D02*
X015210Y007833D01*
X015594Y007833D02*
X028506Y007833D01*
X028606Y007833D02*
X029479Y007833D01*
X030152Y007833D02*
X032824Y007833D01*
X033980Y007833D02*
X034576Y007833D01*
X035016Y007833D02*
X035039Y007833D01*
X002111Y007932D02*
X000300Y007932D01*
X006166Y007932D02*
X028169Y007932D01*
X028506Y007932D02*
X028606Y007932D01*
X028942Y007932D02*
X029479Y007932D01*
X030152Y007932D02*
X032925Y007932D01*
X033879Y007932D02*
X034576Y007932D01*
X035016Y007932D02*
X035039Y007932D01*
X002111Y008030D02*
X000300Y008030D01*
X006017Y008030D02*
X028169Y008030D01*
X028506Y008030D02*
X028606Y008030D01*
X028942Y008030D02*
X029479Y008030D01*
X030152Y008030D02*
X033163Y008030D01*
X033641Y008030D02*
X034576Y008030D01*
X035016Y008030D02*
X035039Y008030D01*
X002167Y008129D02*
X000300Y008129D01*
X003054Y008129D02*
X028169Y008129D01*
X028506Y008129D02*
X028606Y008129D01*
X028942Y008129D02*
X029479Y008129D01*
X030152Y008129D02*
X034576Y008129D01*
X035016Y008129D02*
X035039Y008129D01*
X028169Y008227D02*
X000300Y008227D01*
X028506Y008227D02*
X028606Y008227D01*
X028942Y008227D02*
X029479Y008227D01*
X030152Y008227D02*
X034576Y008227D01*
X035016Y008227D02*
X035039Y008227D01*
X028212Y008326D02*
X000300Y008326D01*
X028506Y008326D02*
X028606Y008326D01*
X028899Y008326D02*
X029595Y008326D01*
X030035Y008326D02*
X034576Y008326D01*
X035016Y008326D02*
X035039Y008326D01*
X029595Y008424D02*
X000300Y008424D01*
X030035Y008424D02*
X034576Y008424D01*
X035016Y008424D02*
X035039Y008424D01*
X029595Y008523D02*
X000300Y008523D01*
X030035Y008523D02*
X034576Y008523D01*
X035016Y008523D02*
X035039Y008523D01*
X029595Y008621D02*
X000300Y008621D01*
X030035Y008621D02*
X034576Y008621D01*
X035016Y008621D02*
X035039Y008621D01*
X029595Y008720D02*
X000300Y008720D01*
X030035Y008720D02*
X034576Y008720D01*
X035016Y008720D02*
X035039Y008720D01*
X029595Y008818D02*
X000300Y008818D01*
X030035Y008818D02*
X034576Y008818D01*
X035016Y008818D02*
X035039Y008818D01*
X029595Y008917D02*
X000300Y008917D01*
X030035Y008917D02*
X034576Y008917D01*
X035016Y008917D02*
X035039Y008917D01*
X029595Y009015D02*
X000300Y009015D01*
X030035Y009015D02*
X034576Y009015D01*
X035016Y009015D02*
X035039Y009015D01*
X029595Y009114D02*
X000300Y009114D01*
X030035Y009114D02*
X034576Y009114D01*
X035016Y009114D02*
X035039Y009114D01*
X005737Y009212D02*
X000300Y009212D01*
X018070Y009212D02*
X029595Y009212D01*
X030035Y009212D02*
X034576Y009212D01*
X035016Y009212D02*
X035039Y009212D01*
X005639Y009311D02*
X000300Y009311D01*
X018130Y009311D02*
X028199Y009311D01*
X028506Y009311D02*
X028606Y009311D01*
X028912Y009311D02*
X029529Y009311D01*
X030102Y009311D02*
X034576Y009311D01*
X035016Y009311D02*
X035039Y009311D01*
X005540Y009409D02*
X000300Y009409D01*
X018145Y009409D02*
X028169Y009409D01*
X028506Y009409D02*
X028606Y009409D01*
X028942Y009409D02*
X029479Y009409D01*
X030152Y009409D02*
X034576Y009409D01*
X035016Y009409D02*
X035039Y009409D01*
X005442Y009508D02*
X000300Y009508D01*
X018124Y009508D02*
X028169Y009508D01*
X028506Y009508D02*
X028606Y009508D01*
X028942Y009508D02*
X029479Y009508D01*
X030152Y009508D02*
X034576Y009508D01*
X035016Y009508D02*
X035039Y009508D01*
X005343Y009606D02*
X000300Y009606D01*
X018056Y009606D02*
X028169Y009606D01*
X028506Y009606D02*
X028606Y009606D01*
X028942Y009606D02*
X029479Y009606D01*
X034015Y009606D02*
X034576Y009606D01*
X035016Y009606D02*
X035039Y009606D01*
X005245Y009705D02*
X000300Y009705D01*
X005867Y009705D02*
X006392Y009705D01*
X006900Y009705D02*
X007671Y009705D01*
X008180Y009705D02*
X008951Y009705D01*
X009459Y009705D02*
X028169Y009705D01*
X028506Y009705D02*
X028606Y009705D01*
X028942Y009705D02*
X029479Y009705D01*
X034075Y009705D02*
X034576Y009705D01*
X035016Y009705D02*
X035039Y009705D01*
X005146Y009803D02*
X000300Y009803D01*
X005769Y009803D02*
X006291Y009803D01*
X007001Y009803D02*
X007571Y009803D01*
X008280Y009803D02*
X008851Y009803D01*
X009560Y009803D02*
X028506Y009803D01*
X028606Y009803D02*
X029479Y009803D01*
X034090Y009803D02*
X034576Y009803D01*
X035016Y009803D02*
X035039Y009803D01*
X005048Y009902D02*
X000300Y009902D01*
X005670Y009902D02*
X006233Y009902D01*
X007059Y009902D02*
X007512Y009902D01*
X008339Y009902D02*
X008792Y009902D01*
X009618Y009902D02*
X028169Y009902D01*
X028506Y009902D02*
X028606Y009902D01*
X028942Y009902D02*
X029479Y009902D01*
X034069Y009902D02*
X034576Y009902D01*
X035016Y009902D02*
X035039Y009902D01*
X005048Y010000D02*
X000300Y010000D01*
X005572Y010000D02*
X006192Y010000D01*
X007100Y010000D02*
X007471Y010000D01*
X008380Y010000D02*
X008751Y010000D01*
X009659Y010000D02*
X028169Y010000D01*
X028506Y010000D02*
X028606Y010000D01*
X028942Y010000D02*
X029479Y010000D01*
X034000Y010000D02*
X034576Y010000D01*
X035016Y010000D02*
X035039Y010000D01*
X005048Y010099D02*
X000300Y010099D01*
X005488Y010099D02*
X006192Y010099D01*
X007100Y010099D02*
X007471Y010099D01*
X008380Y010099D02*
X008751Y010099D01*
X009659Y010099D02*
X028169Y010099D01*
X028506Y010099D02*
X028606Y010099D01*
X028942Y010099D02*
X029479Y010099D01*
X030152Y010099D02*
X034576Y010099D01*
X035016Y010099D02*
X035039Y010099D01*
X005048Y010197D02*
X000300Y010197D01*
X005488Y010197D02*
X006198Y010197D01*
X007094Y010197D02*
X007478Y010197D01*
X008373Y010197D02*
X008757Y010197D01*
X009653Y010197D02*
X028169Y010197D01*
X028506Y010197D02*
X028606Y010197D01*
X028942Y010197D02*
X029479Y010197D01*
X030152Y010197D02*
X034576Y010197D01*
X035016Y010197D02*
X035039Y010197D01*
X005048Y010296D02*
X000300Y010296D01*
X005488Y010296D02*
X006239Y010296D01*
X007053Y010296D02*
X007519Y010296D01*
X008333Y010296D02*
X008798Y010296D01*
X009612Y010296D02*
X028213Y010296D01*
X028506Y010296D02*
X028606Y010296D01*
X028898Y010296D02*
X034576Y010296D01*
X035016Y010296D02*
X035039Y010296D01*
X005048Y010394D02*
X000300Y010394D01*
X005488Y010394D02*
X006307Y010394D01*
X006986Y010394D02*
X007586Y010394D01*
X008265Y010394D02*
X008866Y010394D01*
X009545Y010394D02*
X034576Y010394D01*
X035016Y010394D02*
X035039Y010394D01*
X005048Y010493D02*
X000300Y010493D01*
X005488Y010493D02*
X006426Y010493D01*
X006866Y010493D02*
X007708Y010493D01*
X008143Y010493D02*
X008987Y010493D01*
X009423Y010493D02*
X034576Y010493D01*
X035016Y010493D02*
X035039Y010493D01*
X005048Y010591D02*
X000300Y010591D01*
X005488Y010591D02*
X006426Y010591D01*
X006866Y010591D02*
X034576Y010591D01*
X035016Y010591D02*
X035039Y010591D01*
X005048Y010690D02*
X000300Y010690D01*
X005488Y010690D02*
X006425Y010690D01*
X006866Y010690D02*
X034576Y010690D01*
X035016Y010690D02*
X035039Y010690D01*
X005048Y010788D02*
X000300Y010788D01*
X005488Y010788D02*
X006327Y010788D01*
X006866Y010788D02*
X008689Y010788D01*
X017087Y010788D02*
X034576Y010788D01*
X035016Y010788D02*
X035039Y010788D01*
X005048Y010887D02*
X000300Y010887D01*
X005488Y010887D02*
X006228Y010887D01*
X006851Y010887D02*
X008591Y010887D01*
X017146Y010887D02*
X034576Y010887D01*
X035016Y010887D02*
X035039Y010887D01*
X005048Y010985D02*
X000300Y010985D01*
X005488Y010985D02*
X006130Y010985D01*
X006752Y010985D02*
X008492Y010985D01*
X017160Y010985D02*
X034576Y010985D01*
X035016Y010985D02*
X035039Y010985D01*
X005048Y011084D02*
X000300Y011084D01*
X005488Y011084D02*
X006031Y011084D01*
X006654Y011084D02*
X008394Y011084D01*
X017139Y011084D02*
X034576Y011084D01*
X035016Y011084D02*
X035039Y011084D01*
X005048Y011182D02*
X000300Y011182D01*
X005488Y011182D02*
X005934Y011182D01*
X006555Y011182D02*
X008295Y011182D01*
X017070Y011182D02*
X034576Y011182D01*
X035016Y011182D02*
X035039Y011182D01*
X005048Y011281D02*
X000300Y011281D01*
X005488Y011281D02*
X005886Y011281D01*
X006457Y011281D02*
X008198Y011281D01*
X008819Y011281D02*
X009036Y011281D01*
X009572Y011281D02*
X034576Y011281D01*
X035016Y011281D02*
X035039Y011281D01*
X005048Y011379D02*
X000300Y011379D01*
X005488Y011379D02*
X005857Y011379D01*
X006451Y011379D02*
X008198Y011379D01*
X008720Y011379D02*
X009007Y011379D01*
X009600Y011379D02*
X009788Y011379D01*
X010198Y011379D02*
X034576Y011379D01*
X035016Y011379D02*
X035039Y011379D01*
X005048Y011478D02*
X000300Y011478D01*
X005488Y011478D02*
X005857Y011478D01*
X006451Y011478D02*
X008198Y011478D01*
X008638Y011478D02*
X009007Y011478D01*
X010256Y011478D02*
X034576Y011478D01*
X035016Y011478D02*
X035039Y011478D01*
X005048Y011576D02*
X000300Y011576D01*
X005488Y011576D02*
X005857Y011576D01*
X006451Y011576D02*
X008198Y011576D01*
X008638Y011576D02*
X009007Y011576D01*
X010271Y011576D02*
X013528Y011576D01*
X020155Y011576D02*
X034576Y011576D01*
X035016Y011576D02*
X035039Y011576D01*
X005048Y011675D02*
X000300Y011675D01*
X005488Y011675D02*
X005857Y011675D01*
X006451Y011675D02*
X008198Y011675D01*
X008638Y011675D02*
X009007Y011675D01*
X010249Y011675D02*
X013469Y011675D01*
X020253Y011675D02*
X034576Y011675D01*
X035016Y011675D02*
X035039Y011675D01*
X005048Y011773D02*
X000300Y011773D01*
X005488Y011773D02*
X005857Y011773D01*
X006451Y011773D02*
X008198Y011773D01*
X008638Y011773D02*
X009007Y011773D01*
X010180Y011773D02*
X013455Y011773D01*
X020352Y011773D02*
X034576Y011773D01*
X035016Y011773D02*
X035039Y011773D01*
X005048Y011872D02*
X000300Y011872D01*
X005488Y011872D02*
X005857Y011872D01*
X006451Y011872D02*
X008198Y011872D01*
X008638Y011872D02*
X009007Y011872D01*
X009600Y011872D02*
X013476Y011872D01*
X020450Y011872D02*
X034576Y011872D01*
X035016Y011872D02*
X035039Y011872D01*
X005048Y011970D02*
X000300Y011970D01*
X005569Y011970D02*
X005884Y011970D01*
X006424Y011970D02*
X008198Y011970D01*
X008638Y011970D02*
X009033Y011970D01*
X009574Y011970D02*
X013545Y011970D01*
X020549Y011970D02*
X034576Y011970D01*
X035016Y011970D02*
X035039Y011970D01*
X005048Y012069D02*
X000300Y012069D01*
X005667Y012069D02*
X006305Y012069D01*
X006480Y012069D02*
X006576Y012069D01*
X006751Y012069D02*
X008198Y012069D01*
X008638Y012069D02*
X009455Y012069D01*
X009629Y012069D02*
X009726Y012069D01*
X009900Y012069D02*
X020025Y012069D01*
X020647Y012069D02*
X034576Y012069D01*
X035016Y012069D02*
X035039Y012069D01*
X005143Y012167D02*
X000300Y012167D01*
X006068Y012167D02*
X006189Y012167D01*
X006480Y012167D02*
X006576Y012167D01*
X006867Y012167D02*
X008198Y012167D01*
X008638Y012167D02*
X008641Y012167D01*
X009218Y012167D02*
X009339Y012167D01*
X009629Y012167D02*
X009726Y012167D01*
X010016Y012167D02*
X014314Y012167D01*
X019368Y012167D02*
X020124Y012167D01*
X020746Y012167D02*
X034576Y012167D01*
X035016Y012167D02*
X035039Y012167D01*
X005242Y012266D02*
X000300Y012266D01*
X006077Y012266D02*
X006181Y012266D01*
X006480Y012266D02*
X006576Y012266D01*
X006875Y012266D02*
X008198Y012266D01*
X009226Y012266D02*
X009331Y012266D01*
X009629Y012266D02*
X009726Y012266D01*
X010024Y012266D02*
X014256Y012266D01*
X019466Y012266D02*
X020222Y012266D01*
X020844Y012266D02*
X034576Y012266D01*
X035016Y012266D02*
X035039Y012266D01*
X005340Y012364D02*
X000300Y012364D01*
X006077Y012364D02*
X006181Y012364D01*
X006480Y012364D02*
X006576Y012364D01*
X006875Y012364D02*
X008198Y012364D01*
X009226Y012364D02*
X009331Y012364D01*
X009629Y012364D02*
X009726Y012364D01*
X010024Y012364D02*
X014242Y012364D01*
X019565Y012364D02*
X020321Y012364D01*
X020943Y012364D02*
X034576Y012364D01*
X035016Y012364D02*
X035039Y012364D01*
X005439Y012463D02*
X000300Y012463D01*
X006077Y012463D02*
X006480Y012463D01*
X006576Y012463D02*
X008214Y012463D01*
X009226Y012463D02*
X009629Y012463D01*
X009726Y012463D02*
X014264Y012463D01*
X019663Y012463D02*
X020419Y012463D01*
X021041Y012463D02*
X034576Y012463D01*
X035016Y012463D02*
X035039Y012463D01*
X005483Y012561D02*
X000300Y012561D01*
X006077Y012561D02*
X006181Y012561D01*
X006480Y012561D02*
X006576Y012561D01*
X006875Y012561D02*
X008313Y012561D01*
X009226Y012561D02*
X009331Y012561D01*
X009629Y012561D02*
X009726Y012561D01*
X010024Y012561D02*
X014333Y012561D01*
X019762Y012561D02*
X020518Y012561D01*
X021140Y012561D02*
X034576Y012561D01*
X035016Y012561D02*
X035039Y012561D01*
X005483Y012660D02*
X000300Y012660D01*
X006077Y012660D02*
X006181Y012660D01*
X006480Y012660D02*
X006576Y012660D01*
X006875Y012660D02*
X008411Y012660D01*
X009226Y012660D02*
X009331Y012660D01*
X009629Y012660D02*
X009726Y012660D01*
X010024Y012660D02*
X019238Y012660D01*
X019860Y012660D02*
X020616Y012660D01*
X021238Y012660D02*
X034576Y012660D01*
X035016Y012660D02*
X035039Y012660D01*
X005483Y012758D02*
X000300Y012758D01*
X006077Y012758D02*
X006181Y012758D01*
X006480Y012758D02*
X006576Y012758D01*
X006875Y012758D02*
X008633Y012758D01*
X009226Y012758D02*
X009331Y012758D01*
X009629Y012758D02*
X009726Y012758D01*
X010024Y012758D02*
X019337Y012758D01*
X019959Y012758D02*
X020715Y012758D01*
X021337Y012758D02*
X034576Y012758D01*
X035016Y012758D02*
X035039Y012758D01*
X005530Y012857D02*
X000300Y012857D01*
X006030Y012857D02*
X006209Y012857D01*
X006480Y012857D02*
X006576Y012857D01*
X006847Y012857D02*
X008680Y012857D01*
X009179Y012857D02*
X009359Y012857D01*
X009629Y012857D02*
X009726Y012857D01*
X009997Y012857D02*
X019435Y012857D01*
X020057Y012857D02*
X020813Y012857D01*
X021435Y012857D02*
X034576Y012857D01*
X035016Y012857D02*
X035039Y012857D01*
X005538Y012955D02*
X000300Y012955D01*
X006000Y012955D02*
X008710Y012955D01*
X009150Y012955D02*
X014199Y012955D01*
X019057Y012955D02*
X019534Y012955D01*
X020156Y012955D02*
X020912Y012955D01*
X021534Y012955D02*
X034576Y012955D01*
X035016Y012955D02*
X035039Y012955D01*
X005439Y013054D02*
X000300Y013054D01*
X006000Y013054D02*
X008710Y013054D01*
X009150Y013054D02*
X011741Y013054D01*
X012228Y013054D02*
X014101Y013054D01*
X019115Y013054D02*
X019632Y013054D01*
X020254Y013054D02*
X021010Y013054D01*
X021632Y013054D02*
X034576Y013054D01*
X035016Y013054D02*
X035039Y013054D01*
X005422Y013152D02*
X000300Y013152D01*
X005963Y013152D02*
X008710Y013152D01*
X009150Y013152D02*
X011665Y013152D01*
X012304Y013152D02*
X014002Y013152D01*
X019129Y013152D02*
X019731Y013152D01*
X020353Y013152D02*
X021109Y013152D01*
X021731Y013152D02*
X034576Y013152D01*
X035016Y013152D02*
X035039Y013152D01*
X005422Y013251D02*
X000300Y013251D01*
X005865Y013251D02*
X008710Y013251D01*
X009150Y013251D02*
X011627Y013251D01*
X012342Y013251D02*
X013904Y013251D01*
X019107Y013251D02*
X019829Y013251D01*
X020451Y013251D02*
X021207Y013251D01*
X021829Y013251D02*
X034576Y013251D01*
X035016Y013251D02*
X035039Y013251D01*
X005422Y013349D02*
X000300Y013349D01*
X005862Y013349D02*
X008710Y013349D01*
X009150Y013349D02*
X011627Y013349D01*
X012342Y013349D02*
X013805Y013349D01*
X019037Y013349D02*
X019928Y013349D01*
X020550Y013349D02*
X021306Y013349D01*
X021928Y013349D02*
X034576Y013349D01*
X035016Y013349D02*
X035039Y013349D01*
X005422Y013448D02*
X000300Y013448D01*
X005862Y013448D02*
X008710Y013448D01*
X009150Y013448D02*
X011652Y013448D01*
X012317Y013448D02*
X013707Y013448D01*
X014329Y013448D02*
X020026Y013448D01*
X020648Y013448D02*
X021404Y013448D01*
X022026Y013448D02*
X033019Y013448D01*
X033785Y013448D02*
X034576Y013448D01*
X035016Y013448D02*
X035039Y013448D01*
X005372Y013546D02*
X000300Y013546D01*
X005912Y013546D02*
X006130Y013546D01*
X006419Y013546D02*
X006519Y013546D01*
X006808Y013546D02*
X008710Y013546D01*
X009258Y013546D02*
X009477Y013546D01*
X009765Y013546D02*
X009865Y013546D01*
X010154Y013546D02*
X011710Y013546D01*
X012260Y013546D02*
X013608Y013546D01*
X014230Y013546D02*
X020125Y013546D01*
X020747Y013546D02*
X021503Y013546D01*
X022122Y013546D02*
X032863Y013546D01*
X033941Y013546D02*
X034576Y013546D01*
X035016Y013546D02*
X035039Y013546D01*
X005326Y013645D02*
X000300Y013645D01*
X005959Y013645D02*
X006102Y013645D01*
X006419Y013645D02*
X006519Y013645D01*
X006835Y013645D02*
X008672Y013645D01*
X009305Y013645D02*
X009449Y013645D01*
X009765Y013645D02*
X009865Y013645D01*
X010182Y013645D02*
X011845Y013645D01*
X012124Y013645D02*
X013510Y013645D01*
X014132Y013645D02*
X015066Y013645D01*
X015738Y013645D02*
X020223Y013645D01*
X020845Y013645D02*
X021601Y013645D01*
X022122Y013645D02*
X032764Y013645D01*
X034040Y013645D02*
X034576Y013645D01*
X035016Y013645D02*
X035039Y013645D01*
X005326Y013743D02*
X000300Y013743D01*
X005959Y013743D02*
X006102Y013743D01*
X006419Y013743D02*
X006519Y013743D01*
X006835Y013743D02*
X008672Y013743D01*
X009305Y013743D02*
X009449Y013743D01*
X009765Y013743D02*
X009865Y013743D01*
X010182Y013743D02*
X013411Y013743D01*
X014033Y013743D02*
X014949Y013743D01*
X015855Y013743D02*
X020322Y013743D01*
X020944Y013743D02*
X021682Y013743D01*
X022122Y013743D02*
X032675Y013743D01*
X034129Y013743D02*
X034576Y013743D01*
X035016Y013743D02*
X035039Y013743D01*
X005326Y013842D02*
X000300Y013842D01*
X005959Y013842D02*
X006102Y013842D01*
X006419Y013842D02*
X006519Y013842D01*
X006835Y013842D02*
X008672Y013842D01*
X009305Y013842D02*
X009449Y013842D01*
X009765Y013842D02*
X009865Y013842D01*
X010182Y013842D02*
X013313Y013842D01*
X013935Y013842D02*
X014851Y013842D01*
X015953Y013842D02*
X020420Y013842D01*
X021042Y013842D02*
X021682Y013842D01*
X022122Y013842D02*
X032634Y013842D01*
X034170Y013842D02*
X034576Y013842D01*
X035016Y013842D02*
X035039Y013842D01*
X005326Y013940D02*
X000300Y013940D01*
X005959Y013940D02*
X006419Y013940D01*
X006519Y013940D02*
X008672Y013940D01*
X009305Y013940D02*
X009765Y013940D01*
X009865Y013940D02*
X013214Y013940D01*
X013836Y013940D02*
X014810Y013940D01*
X015994Y013940D02*
X020519Y013940D01*
X021122Y013940D02*
X021682Y013940D01*
X022122Y013940D02*
X032593Y013940D01*
X034211Y013940D02*
X034576Y013940D01*
X035016Y013940D02*
X035039Y013940D01*
X005326Y014039D02*
X000300Y014039D01*
X005959Y014039D02*
X006102Y014039D01*
X006419Y014039D02*
X006519Y014039D01*
X006835Y014039D02*
X008672Y014039D01*
X009305Y014039D02*
X009449Y014039D01*
X009765Y014039D02*
X009865Y014039D01*
X010182Y014039D02*
X011756Y014039D01*
X012213Y014039D02*
X012754Y014039D01*
X013738Y014039D02*
X014769Y014039D01*
X016035Y014039D02*
X020617Y014039D01*
X021122Y014039D02*
X021682Y014039D01*
X022122Y014039D02*
X032553Y014039D01*
X034251Y014039D02*
X034576Y014039D01*
X035016Y014039D02*
X035039Y014039D01*
X001329Y014137D02*
X000300Y014137D01*
X001924Y014137D02*
X005326Y014137D01*
X005959Y014137D02*
X006102Y014137D01*
X006419Y014137D02*
X006519Y014137D01*
X006835Y014137D02*
X008672Y014137D01*
X009305Y014137D02*
X009449Y014137D01*
X009765Y014137D02*
X009865Y014137D01*
X010182Y014137D02*
X011672Y014137D01*
X013639Y014137D02*
X014752Y014137D01*
X016052Y014137D02*
X020682Y014137D01*
X021122Y014137D02*
X021682Y014137D01*
X022122Y014137D02*
X032552Y014137D01*
X034252Y014137D02*
X034576Y014137D01*
X035016Y014137D02*
X035039Y014137D01*
X001159Y014236D02*
X000300Y014236D01*
X002094Y014236D02*
X005326Y014236D01*
X005959Y014236D02*
X006102Y014236D01*
X006419Y014236D02*
X006519Y014236D01*
X006835Y014236D02*
X008672Y014236D01*
X009305Y014236D02*
X009449Y014236D01*
X009765Y014236D02*
X009865Y014236D01*
X010182Y014236D02*
X011631Y014236D01*
X013541Y014236D02*
X014752Y014236D01*
X016052Y014236D02*
X020682Y014236D01*
X021122Y014236D02*
X021682Y014236D01*
X022122Y014236D02*
X028741Y014236D01*
X028854Y014236D02*
X028950Y014236D01*
X029063Y014236D02*
X032552Y014236D01*
X034252Y014236D02*
X034576Y014236D01*
X035016Y014236D02*
X035039Y014236D01*
X001060Y014334D02*
X000300Y014334D01*
X002192Y014334D02*
X006149Y014334D01*
X006419Y014334D02*
X006519Y014334D01*
X006788Y014334D02*
X009496Y014334D01*
X009765Y014334D02*
X009865Y014334D01*
X010135Y014334D02*
X011627Y014334D01*
X013537Y014334D02*
X014752Y014334D01*
X016052Y014334D02*
X016641Y014334D01*
X017163Y014334D02*
X017641Y014334D01*
X018163Y014334D02*
X018641Y014334D01*
X019163Y014334D02*
X019641Y014334D01*
X020163Y014334D02*
X020641Y014334D01*
X021163Y014334D02*
X021641Y014334D01*
X022163Y014334D02*
X022641Y014334D01*
X023163Y014334D02*
X023641Y014334D01*
X024163Y014334D02*
X024641Y014334D01*
X025163Y014334D02*
X025641Y014334D01*
X026163Y014334D02*
X026641Y014334D01*
X027163Y014334D02*
X027641Y014334D01*
X028163Y014334D02*
X028570Y014334D01*
X028854Y014334D02*
X028950Y014334D01*
X029234Y014334D02*
X029641Y014334D01*
X030163Y014334D02*
X030641Y014334D01*
X031163Y014334D02*
X031641Y014334D01*
X032163Y014334D02*
X032552Y014334D01*
X034252Y014334D02*
X034576Y014334D01*
X035016Y014334D02*
X035039Y014334D01*
X000983Y014433D02*
X000300Y014433D01*
X002269Y014433D02*
X011646Y014433D01*
X013537Y014433D02*
X014791Y014433D01*
X016013Y014433D02*
X016542Y014433D01*
X017262Y014433D02*
X017542Y014433D01*
X018262Y014433D02*
X018542Y014433D01*
X019262Y014433D02*
X019542Y014433D01*
X020262Y014433D02*
X020542Y014433D01*
X021262Y014433D02*
X021542Y014433D01*
X022262Y014433D02*
X022542Y014433D01*
X023262Y014433D02*
X023542Y014433D01*
X024262Y014433D02*
X024542Y014433D01*
X025262Y014433D02*
X025542Y014433D01*
X026262Y014433D02*
X026542Y014433D01*
X027262Y014433D02*
X027542Y014433D01*
X028262Y014433D02*
X028485Y014433D01*
X028854Y014433D02*
X028950Y014433D01*
X029319Y014433D02*
X029542Y014433D01*
X030262Y014433D02*
X030542Y014433D01*
X031262Y014433D02*
X031542Y014433D01*
X032262Y014433D02*
X032575Y014433D01*
X034229Y014433D02*
X034576Y014433D01*
X035016Y014433D02*
X035039Y014433D01*
X000943Y014531D02*
X000300Y014531D01*
X002310Y014531D02*
X011695Y014531D01*
X012275Y014531D02*
X012747Y014531D01*
X013537Y014531D02*
X014832Y014531D01*
X015972Y014531D02*
X016489Y014531D01*
X017315Y014531D02*
X017489Y014531D01*
X018315Y014531D02*
X018489Y014531D01*
X019315Y014531D02*
X019489Y014531D01*
X020315Y014531D02*
X020489Y014531D01*
X021315Y014531D02*
X021489Y014531D01*
X022315Y014531D02*
X022489Y014531D01*
X023315Y014531D02*
X023489Y014531D01*
X024315Y014531D02*
X024489Y014531D01*
X025315Y014531D02*
X025489Y014531D01*
X026315Y014531D02*
X026489Y014531D01*
X027315Y014531D02*
X027489Y014531D01*
X028315Y014531D02*
X028434Y014531D01*
X028854Y014531D02*
X028950Y014531D01*
X029370Y014531D02*
X029489Y014531D01*
X030315Y014531D02*
X030489Y014531D01*
X031315Y014531D02*
X031489Y014531D01*
X032315Y014531D02*
X032615Y014531D01*
X034189Y014531D02*
X034576Y014531D01*
X035016Y014531D02*
X035039Y014531D01*
X000902Y014630D02*
X000300Y014630D01*
X002351Y014630D02*
X011809Y014630D01*
X012160Y014630D02*
X014903Y014630D01*
X015901Y014630D02*
X016452Y014630D01*
X017352Y014630D02*
X017452Y014630D01*
X018352Y014630D02*
X018452Y014630D01*
X019352Y014630D02*
X019452Y014630D01*
X020352Y014630D02*
X020452Y014630D01*
X021352Y014630D02*
X021452Y014630D01*
X022352Y014630D02*
X022452Y014630D01*
X023352Y014630D02*
X023452Y014630D01*
X024352Y014630D02*
X024452Y014630D01*
X025352Y014630D02*
X025452Y014630D01*
X026352Y014630D02*
X026452Y014630D01*
X027352Y014630D02*
X027452Y014630D01*
X028352Y014630D02*
X028408Y014630D01*
X028854Y014630D02*
X028950Y014630D01*
X029396Y014630D02*
X029452Y014630D01*
X030352Y014630D02*
X030452Y014630D01*
X031352Y014630D02*
X031452Y014630D01*
X032352Y014630D02*
X032656Y014630D01*
X034148Y014630D02*
X034576Y014630D01*
X035016Y014630D02*
X035039Y014630D01*
X000886Y014728D02*
X000300Y014728D01*
X002367Y014728D02*
X015002Y014728D01*
X015802Y014728D02*
X016452Y014728D01*
X017352Y014728D02*
X017452Y014728D01*
X018352Y014728D02*
X018452Y014728D01*
X019352Y014728D02*
X019452Y014728D01*
X020352Y014728D02*
X020452Y014728D01*
X021352Y014728D02*
X021452Y014728D01*
X022352Y014728D02*
X022452Y014728D01*
X023352Y014728D02*
X023452Y014728D01*
X024352Y014728D02*
X024452Y014728D01*
X025352Y014728D02*
X025452Y014728D01*
X026352Y014728D02*
X026452Y014728D01*
X027352Y014728D02*
X027452Y014728D01*
X028352Y014728D02*
X028854Y014728D01*
X028950Y014728D02*
X029452Y014728D01*
X030352Y014728D02*
X030452Y014728D01*
X031352Y014728D02*
X031452Y014728D01*
X032352Y014728D02*
X032719Y014728D01*
X034085Y014728D02*
X034576Y014728D01*
X035016Y014728D02*
X035039Y014728D01*
X000886Y014827D02*
X000300Y014827D01*
X002367Y014827D02*
X012793Y014827D01*
X013492Y014827D02*
X015194Y014827D01*
X015610Y014827D02*
X016464Y014827D01*
X017340Y014827D02*
X017464Y014827D01*
X018340Y014827D02*
X018464Y014827D01*
X019340Y014827D02*
X019464Y014827D01*
X020340Y014827D02*
X020464Y014827D01*
X021340Y014827D02*
X021464Y014827D01*
X022340Y014827D02*
X022464Y014827D01*
X023340Y014827D02*
X023464Y014827D01*
X024340Y014827D02*
X024464Y014827D01*
X025340Y014827D02*
X025464Y014827D01*
X026340Y014827D02*
X026464Y014827D01*
X027340Y014827D02*
X027464Y014827D01*
X028340Y014827D02*
X028414Y014827D01*
X028854Y014827D02*
X028950Y014827D01*
X029390Y014827D02*
X029464Y014827D01*
X030340Y014827D02*
X030464Y014827D01*
X031340Y014827D02*
X031464Y014827D01*
X032340Y014827D02*
X032817Y014827D01*
X033987Y014827D02*
X034576Y014827D01*
X035016Y014827D02*
X035039Y014827D01*
X000886Y014925D02*
X000300Y014925D01*
X002367Y014925D02*
X012747Y014925D01*
X013537Y014925D02*
X016504Y014925D01*
X017300Y014925D02*
X017504Y014925D01*
X018300Y014925D02*
X018504Y014925D01*
X019300Y014925D02*
X019504Y014925D01*
X020300Y014925D02*
X020504Y014925D01*
X021300Y014925D02*
X021504Y014925D01*
X022300Y014925D02*
X022504Y014925D01*
X023300Y014925D02*
X023504Y014925D01*
X024300Y014925D02*
X024504Y014925D01*
X025300Y014925D02*
X025504Y014925D01*
X026300Y014925D02*
X026504Y014925D01*
X027300Y014925D02*
X027504Y014925D01*
X028300Y014925D02*
X028451Y014925D01*
X028854Y014925D02*
X028950Y014925D01*
X029353Y014925D02*
X029504Y014925D01*
X030300Y014925D02*
X030504Y014925D01*
X031300Y014925D02*
X031504Y014925D01*
X032300Y014925D02*
X032916Y014925D01*
X033888Y014925D02*
X034576Y014925D01*
X035016Y014925D02*
X035039Y014925D01*
X000911Y015024D02*
X000300Y015024D01*
X002342Y015024D02*
X011771Y015024D01*
X012198Y015024D02*
X012747Y015024D01*
X013537Y015024D02*
X016580Y015024D01*
X017224Y015024D02*
X017580Y015024D01*
X018224Y015024D02*
X018580Y015024D01*
X019224Y015024D02*
X019580Y015024D01*
X020232Y015024D02*
X020580Y015024D01*
X021224Y015024D02*
X021580Y015024D01*
X022224Y015024D02*
X022580Y015024D01*
X023224Y015024D02*
X023580Y015024D01*
X024224Y015024D02*
X024580Y015024D01*
X025224Y015024D02*
X025580Y015024D01*
X026224Y015024D02*
X026580Y015024D01*
X027224Y015024D02*
X027580Y015024D01*
X028224Y015024D02*
X028512Y015024D01*
X028854Y015024D02*
X028950Y015024D01*
X029292Y015024D02*
X029580Y015024D01*
X030224Y015024D02*
X030580Y015024D01*
X031224Y015024D02*
X031580Y015024D01*
X032224Y015024D02*
X033147Y015024D01*
X033657Y015024D02*
X034576Y015024D01*
X035016Y015024D02*
X035039Y015024D01*
X000952Y015122D02*
X000300Y015122D01*
X002301Y015122D02*
X011678Y015122D01*
X012292Y015122D02*
X012747Y015122D01*
X013537Y015122D02*
X016723Y015122D01*
X017081Y015122D02*
X017682Y015122D01*
X018122Y015122D02*
X018682Y015122D01*
X019122Y015122D02*
X019723Y015122D01*
X020232Y015122D02*
X020682Y015122D01*
X021122Y015122D02*
X021723Y015122D01*
X022081Y015122D02*
X022723Y015122D01*
X023081Y015122D02*
X023723Y015122D01*
X024081Y015122D02*
X024723Y015122D01*
X025081Y015122D02*
X025723Y015122D01*
X026081Y015122D02*
X026723Y015122D01*
X027081Y015122D02*
X027723Y015122D01*
X028081Y015122D02*
X028620Y015122D01*
X028854Y015122D02*
X028950Y015122D01*
X029184Y015122D02*
X029723Y015122D01*
X030081Y015122D02*
X030639Y015122D01*
X031081Y015122D02*
X031723Y015122D01*
X032081Y015122D02*
X034576Y015122D01*
X035016Y015122D02*
X035039Y015122D01*
X000993Y015221D02*
X000300Y015221D01*
X002260Y015221D02*
X011637Y015221D01*
X012332Y015221D02*
X012747Y015221D01*
X013537Y015221D02*
X017682Y015221D01*
X018122Y015221D02*
X018682Y015221D01*
X019122Y015221D02*
X019792Y015221D01*
X020232Y015221D02*
X020682Y015221D01*
X021122Y015221D02*
X030639Y015221D01*
X031079Y015221D02*
X034571Y015221D01*
X035016Y015221D02*
X035039Y015221D01*
X001083Y015319D02*
X000300Y015319D01*
X002170Y015319D02*
X011627Y015319D01*
X012342Y015319D02*
X012747Y015319D01*
X013537Y015319D02*
X017682Y015319D01*
X018122Y015319D02*
X018682Y015319D01*
X019122Y015319D02*
X019792Y015319D01*
X020232Y015319D02*
X020682Y015319D01*
X021122Y015319D02*
X030639Y015319D01*
X031079Y015319D02*
X034473Y015319D01*
X035016Y015319D02*
X035039Y015319D01*
X001181Y015418D02*
X000300Y015418D01*
X002071Y015418D02*
X011640Y015418D01*
X012329Y015418D02*
X012776Y015418D01*
X013508Y015418D02*
X017682Y015418D01*
X018122Y015418D02*
X018682Y015418D01*
X019122Y015418D02*
X019741Y015418D01*
X020283Y015418D02*
X020568Y015418D01*
X021122Y015418D02*
X030639Y015418D01*
X031079Y015418D02*
X034374Y015418D01*
X034997Y015418D02*
X035039Y015418D01*
X001383Y015516D02*
X000300Y015516D01*
X001870Y015516D02*
X011681Y015516D01*
X012288Y015516D02*
X012922Y015516D01*
X013362Y015516D02*
X017682Y015516D01*
X018122Y015516D02*
X018682Y015516D01*
X019122Y015516D02*
X019696Y015516D01*
X020329Y015516D02*
X020522Y015516D01*
X021156Y015516D02*
X030639Y015516D01*
X031079Y015516D02*
X034276Y015516D01*
X034898Y015516D02*
X035039Y015516D01*
X011778Y015615D02*
X000300Y015615D01*
X012191Y015615D02*
X012922Y015615D01*
X013362Y015615D02*
X017682Y015615D01*
X018122Y015615D02*
X018682Y015615D01*
X019122Y015615D02*
X019696Y015615D01*
X020329Y015615D02*
X020522Y015615D01*
X021156Y015615D02*
X030639Y015615D01*
X031079Y015615D02*
X034177Y015615D01*
X034800Y015615D02*
X035039Y015615D01*
X012922Y015713D02*
X000300Y015713D01*
X013362Y015713D02*
X017682Y015713D01*
X018122Y015713D02*
X018682Y015713D01*
X019174Y015713D02*
X019696Y015713D01*
X020329Y015713D02*
X020522Y015713D01*
X021156Y015713D02*
X030639Y015713D01*
X031079Y015713D02*
X034079Y015713D01*
X034701Y015713D02*
X035039Y015713D01*
X012922Y015812D02*
X000300Y015812D01*
X013362Y015812D02*
X017682Y015812D01*
X018122Y015812D02*
X018682Y015812D01*
X019272Y015812D02*
X019696Y015812D01*
X020329Y015812D02*
X020522Y015812D01*
X021156Y015812D02*
X030639Y015812D01*
X031079Y015812D02*
X033980Y015812D01*
X034603Y015812D02*
X035039Y015812D01*
X011939Y015910D02*
X000300Y015910D01*
X011956Y015910D02*
X012013Y015910D01*
X012030Y015910D02*
X012922Y015910D01*
X013362Y015910D02*
X017682Y015910D01*
X018190Y015910D02*
X018749Y015910D01*
X019371Y015910D02*
X019696Y015910D01*
X020329Y015910D02*
X020522Y015910D01*
X021156Y015910D02*
X030639Y015910D01*
X031079Y015910D02*
X033882Y015910D01*
X034504Y015910D02*
X035039Y015910D01*
X011715Y016009D02*
X000300Y016009D01*
X011956Y016009D02*
X012013Y016009D01*
X012254Y016009D02*
X012922Y016009D01*
X013362Y016009D02*
X017682Y016009D01*
X018288Y016009D02*
X018847Y016009D01*
X019469Y016009D02*
X019696Y016009D01*
X020329Y016009D02*
X020522Y016009D01*
X021156Y016009D02*
X030639Y016009D01*
X031079Y016009D02*
X033783Y016009D01*
X034406Y016009D02*
X035039Y016009D01*
X011633Y016107D02*
X000300Y016107D01*
X011956Y016107D02*
X012013Y016107D01*
X012336Y016107D02*
X012922Y016107D01*
X013362Y016107D02*
X017764Y016107D01*
X018387Y016107D02*
X018946Y016107D01*
X019568Y016107D02*
X019696Y016107D01*
X020329Y016107D02*
X020522Y016107D01*
X021156Y016107D02*
X030639Y016107D01*
X031079Y016107D02*
X033685Y016107D01*
X034307Y016107D02*
X035039Y016107D01*
X011592Y016206D02*
X000300Y016206D01*
X011956Y016206D02*
X012013Y016206D01*
X012377Y016206D02*
X012922Y016206D01*
X013362Y016206D02*
X017863Y016206D01*
X018485Y016206D02*
X019044Y016206D01*
X019666Y016206D02*
X030639Y016206D01*
X031079Y016206D02*
X033586Y016206D01*
X034209Y016206D02*
X035039Y016206D01*
X011956Y016304D02*
X000300Y016304D01*
X012013Y016304D02*
X012922Y016304D01*
X013362Y016304D02*
X017961Y016304D01*
X018584Y016304D02*
X019143Y016304D01*
X019765Y016304D02*
X030639Y016304D01*
X031079Y016304D02*
X033488Y016304D01*
X034110Y016304D02*
X035039Y016304D01*
X011586Y016403D02*
X000300Y016403D01*
X011956Y016403D02*
X012013Y016403D01*
X012383Y016403D02*
X012922Y016403D01*
X013362Y016403D02*
X018060Y016403D01*
X018682Y016403D02*
X019241Y016403D01*
X019863Y016403D02*
X030639Y016403D01*
X031079Y016403D02*
X033389Y016403D01*
X034012Y016403D02*
X035039Y016403D01*
X011622Y016501D02*
X000300Y016501D01*
X011956Y016501D02*
X012013Y016501D01*
X012347Y016501D02*
X012922Y016501D01*
X016812Y016501D02*
X018158Y016501D01*
X018781Y016501D02*
X019340Y016501D01*
X019962Y016501D02*
X030639Y016501D01*
X031079Y016501D02*
X032225Y016501D01*
X033913Y016501D02*
X035039Y016501D01*
X011693Y016600D02*
X000300Y016600D01*
X011956Y016600D02*
X012013Y016600D01*
X012277Y016600D02*
X012877Y016600D01*
X016911Y016600D02*
X018257Y016600D01*
X018879Y016600D02*
X019438Y016600D01*
X020060Y016600D02*
X030639Y016600D01*
X031079Y016600D02*
X032168Y016600D01*
X033815Y016600D02*
X035039Y016600D01*
X011844Y016698D02*
X000300Y016698D01*
X011956Y016698D02*
X012013Y016698D01*
X012125Y016698D02*
X012864Y016698D01*
X017009Y016698D02*
X018355Y016698D01*
X018978Y016698D02*
X019537Y016698D01*
X020159Y016698D02*
X030639Y016698D01*
X031079Y016698D02*
X032155Y016698D01*
X033716Y016698D02*
X035039Y016698D01*
X012887Y016797D02*
X000300Y016797D01*
X017108Y016797D02*
X018454Y016797D01*
X019076Y016797D02*
X019635Y016797D01*
X020257Y016797D02*
X030639Y016797D01*
X031079Y016797D02*
X032178Y016797D01*
X033618Y016797D02*
X035039Y016797D01*
X012958Y016895D02*
X000300Y016895D01*
X017206Y016895D02*
X018552Y016895D01*
X019175Y016895D02*
X019734Y016895D01*
X020356Y016895D02*
X030639Y016895D01*
X031079Y016895D02*
X032250Y016895D01*
X033519Y016895D02*
X035039Y016895D01*
X016682Y016994D02*
X000300Y016994D01*
X017305Y016994D02*
X018651Y016994D01*
X019273Y016994D02*
X019832Y016994D01*
X020454Y016994D02*
X030639Y016994D01*
X031079Y016994D02*
X035039Y016994D01*
X016781Y017092D02*
X000300Y017092D01*
X017403Y017092D02*
X018749Y017092D01*
X019372Y017092D02*
X019931Y017092D01*
X020553Y017092D02*
X030639Y017092D01*
X031079Y017092D02*
X035039Y017092D01*
X016879Y017191D02*
X000300Y017191D01*
X017502Y017191D02*
X018848Y017191D01*
X019470Y017191D02*
X020029Y017191D01*
X020651Y017191D02*
X030639Y017191D01*
X031079Y017191D02*
X035039Y017191D01*
X016978Y017289D02*
X000300Y017289D01*
X017600Y017289D02*
X018946Y017289D01*
X019569Y017289D02*
X020128Y017289D01*
X020750Y017289D02*
X030639Y017289D01*
X031079Y017289D02*
X035039Y017289D01*
X017076Y017388D02*
X000300Y017388D01*
X017693Y017388D02*
X019045Y017388D01*
X019667Y017388D02*
X020226Y017388D01*
X020848Y017388D02*
X030639Y017388D01*
X031079Y017388D02*
X035039Y017388D01*
X017175Y017486D02*
X000300Y017486D01*
X017693Y017486D02*
X019143Y017486D01*
X019766Y017486D02*
X020325Y017486D01*
X020947Y017486D02*
X030639Y017486D01*
X031079Y017486D02*
X035039Y017486D01*
X014162Y017585D02*
X000300Y017585D01*
X014206Y017585D02*
X014244Y017585D01*
X014288Y017585D02*
X017253Y017585D01*
X017693Y017585D02*
X019242Y017585D01*
X019864Y017585D02*
X020423Y017585D01*
X021045Y017585D02*
X030639Y017585D01*
X031079Y017585D02*
X035039Y017585D01*
X013929Y017683D02*
X000300Y017683D01*
X014206Y017683D02*
X014244Y017683D01*
X014520Y017683D02*
X017253Y017683D01*
X017693Y017683D02*
X019340Y017683D01*
X019963Y017683D02*
X020522Y017683D01*
X021144Y017683D02*
X030639Y017683D01*
X031079Y017683D02*
X035039Y017683D01*
X013837Y017782D02*
X000300Y017782D01*
X014206Y017782D02*
X014244Y017782D01*
X014613Y017782D02*
X017253Y017782D01*
X017693Y017782D02*
X019439Y017782D01*
X020061Y017782D02*
X020620Y017782D01*
X021242Y017782D02*
X030639Y017782D01*
X031079Y017782D02*
X035039Y017782D01*
X013782Y017880D02*
X000300Y017880D01*
X014206Y017880D02*
X014244Y017880D01*
X014667Y017880D02*
X017253Y017880D01*
X017693Y017880D02*
X019537Y017880D01*
X020160Y017880D02*
X020719Y017880D01*
X021341Y017880D02*
X030639Y017880D01*
X031079Y017880D02*
X035039Y017880D01*
X013756Y017979D02*
X000300Y017979D01*
X014206Y017979D02*
X014244Y017979D01*
X014694Y017979D02*
X017253Y017979D01*
X017693Y017979D02*
X019636Y017979D01*
X020258Y017979D02*
X020817Y017979D01*
X021439Y017979D02*
X030639Y017979D01*
X031079Y017979D02*
X035039Y017979D01*
X013750Y018077D02*
X000300Y018077D01*
X014206Y018077D02*
X014244Y018077D01*
X014700Y018077D02*
X017253Y018077D01*
X017693Y018077D02*
X019734Y018077D01*
X020357Y018077D02*
X020916Y018077D01*
X021538Y018077D02*
X030639Y018077D01*
X031079Y018077D02*
X035039Y018077D01*
X013764Y018176D02*
X000300Y018176D01*
X014206Y018176D02*
X014244Y018176D01*
X014685Y018176D02*
X017253Y018176D01*
X017693Y018176D02*
X019833Y018176D01*
X020455Y018176D02*
X021014Y018176D01*
X021598Y018176D02*
X030639Y018176D01*
X031079Y018176D02*
X035039Y018176D01*
X001503Y018274D02*
X000300Y018274D01*
X001947Y018274D02*
X013803Y018274D01*
X014206Y018274D02*
X014244Y018274D01*
X014647Y018274D02*
X017253Y018274D01*
X017693Y018274D02*
X019931Y018274D01*
X020554Y018274D02*
X021113Y018274D01*
X021598Y018274D02*
X030639Y018274D01*
X031079Y018274D02*
X033393Y018274D01*
X033836Y018274D02*
X035039Y018274D01*
X001269Y018373D02*
X000300Y018373D01*
X002181Y018373D02*
X013870Y018373D01*
X014206Y018373D02*
X014244Y018373D01*
X014580Y018373D02*
X017253Y018373D01*
X017693Y018373D02*
X020030Y018373D01*
X020598Y018373D02*
X021158Y018373D01*
X021598Y018373D02*
X030639Y018373D01*
X031079Y018373D02*
X033159Y018373D01*
X034070Y018373D02*
X035039Y018373D01*
X001171Y018471D02*
X000300Y018471D01*
X002279Y018471D02*
X013994Y018471D01*
X014206Y018471D02*
X014244Y018471D01*
X014456Y018471D02*
X017253Y018471D01*
X017693Y018471D02*
X020128Y018471D01*
X020598Y018471D02*
X021158Y018471D01*
X021598Y018471D02*
X030639Y018471D01*
X031079Y018471D02*
X033060Y018471D01*
X034169Y018471D02*
X035039Y018471D01*
X001072Y018570D02*
X000300Y018570D01*
X002378Y018570D02*
X016392Y018570D01*
X016939Y018570D02*
X017219Y018570D01*
X017766Y018570D02*
X020158Y018570D01*
X020598Y018570D02*
X021158Y018570D01*
X021598Y018570D02*
X022925Y018570D01*
X023832Y018570D02*
X030639Y018570D01*
X031079Y018570D02*
X032962Y018570D01*
X034267Y018570D02*
X035039Y018570D01*
X001017Y018668D02*
X000300Y018668D01*
X002433Y018668D02*
X013821Y018668D01*
X014629Y018668D02*
X016349Y018668D01*
X016982Y018668D02*
X017176Y018668D01*
X017809Y018668D02*
X020158Y018668D01*
X020598Y018668D02*
X021043Y018668D01*
X021713Y018668D02*
X022085Y018668D01*
X022328Y018668D02*
X022428Y018668D01*
X022672Y018668D02*
X022908Y018668D01*
X023848Y018668D02*
X030639Y018668D01*
X031079Y018668D02*
X032906Y018668D01*
X034323Y018668D02*
X035039Y018668D01*
X000976Y018767D02*
X000300Y018767D01*
X002474Y018767D02*
X013800Y018767D01*
X016982Y018767D02*
X017176Y018767D01*
X017809Y018767D02*
X020045Y018767D01*
X020712Y018767D02*
X020965Y018767D01*
X021791Y018767D02*
X021976Y018767D01*
X022328Y018767D02*
X022428Y018767D01*
X022781Y018767D02*
X022908Y018767D01*
X023848Y018767D02*
X030639Y018767D01*
X031079Y018767D02*
X032866Y018767D01*
X034364Y018767D02*
X035039Y018767D01*
X000935Y018865D02*
X000300Y018865D01*
X002515Y018865D02*
X013800Y018865D01*
X016982Y018865D02*
X017176Y018865D01*
X017809Y018865D02*
X019966Y018865D01*
X020791Y018865D02*
X020925Y018865D01*
X021832Y018865D02*
X021913Y018865D01*
X022328Y018865D02*
X022428Y018865D01*
X022843Y018865D02*
X022908Y018865D01*
X023848Y018865D02*
X030639Y018865D01*
X031079Y018865D02*
X032825Y018865D01*
X034404Y018865D02*
X035039Y018865D01*
X000925Y018964D02*
X000300Y018964D01*
X002524Y018964D02*
X013800Y018964D01*
X016982Y018964D02*
X017176Y018964D01*
X017809Y018964D02*
X019925Y018964D01*
X020832Y018964D02*
X020908Y018964D01*
X021848Y018964D02*
X021875Y018964D01*
X022328Y018964D02*
X022428Y018964D01*
X022882Y018964D02*
X022908Y018964D01*
X023848Y018964D02*
X030632Y018964D01*
X031079Y018964D02*
X032815Y018964D01*
X034414Y018964D02*
X035039Y018964D01*
X000925Y019062D02*
X000300Y019062D01*
X002524Y019062D02*
X013800Y019062D01*
X016982Y019062D02*
X017176Y019062D01*
X017809Y019062D02*
X019908Y019062D01*
X020848Y019062D02*
X020908Y019062D01*
X021848Y019062D02*
X022328Y019062D01*
X022428Y019062D02*
X022908Y019062D01*
X023848Y019062D02*
X030533Y019062D01*
X031079Y019062D02*
X032815Y019062D01*
X034414Y019062D02*
X035039Y019062D01*
X000925Y019161D02*
X000300Y019161D01*
X002524Y019161D02*
X013800Y019161D01*
X016982Y019161D02*
X017176Y019161D01*
X017897Y019161D02*
X019908Y019161D01*
X020848Y019161D02*
X020937Y019161D01*
X021820Y019161D02*
X021862Y019161D01*
X022895Y019161D02*
X022908Y019161D01*
X023848Y019161D02*
X030435Y019161D01*
X031057Y019161D02*
X032815Y019161D01*
X034414Y019161D02*
X035039Y019161D01*
X000947Y019259D02*
X000300Y019259D01*
X002503Y019259D02*
X013800Y019259D01*
X014650Y019259D02*
X016349Y019259D01*
X016982Y019259D02*
X017176Y019259D01*
X017995Y019259D02*
X019936Y019259D01*
X020820Y019259D02*
X020978Y019259D01*
X021779Y019259D02*
X021884Y019259D01*
X022873Y019259D02*
X022908Y019259D01*
X023848Y019259D02*
X030336Y019259D01*
X030958Y019259D02*
X032837Y019259D01*
X034392Y019259D02*
X035039Y019259D01*
X000988Y019358D02*
X000300Y019358D01*
X002462Y019358D02*
X013800Y019358D01*
X014650Y019358D02*
X017472Y019358D01*
X018094Y019358D02*
X019977Y019358D01*
X020779Y019358D02*
X021074Y019358D01*
X021683Y019358D02*
X021927Y019358D01*
X022830Y019358D02*
X022908Y019358D01*
X023848Y019358D02*
X030238Y019358D01*
X030860Y019358D02*
X032877Y019358D01*
X034352Y019358D02*
X035039Y019358D01*
X001028Y019456D02*
X000301Y019456D01*
X002421Y019456D02*
X013834Y019456D01*
X014616Y019456D02*
X017570Y019456D01*
X018192Y019456D02*
X020072Y019456D01*
X020685Y019456D02*
X021257Y019456D01*
X021500Y019456D02*
X022001Y019456D01*
X022755Y019456D02*
X022955Y019456D01*
X023801Y019456D02*
X030139Y019456D01*
X030761Y019456D02*
X032918Y019456D01*
X034311Y019456D02*
X035038Y019456D01*
X001101Y019555D02*
X000309Y019555D01*
X002349Y019555D02*
X017669Y019555D01*
X018291Y019555D02*
X020253Y019555D01*
X020503Y019555D02*
X022130Y019555D01*
X022627Y019555D02*
X023158Y019555D01*
X023598Y019555D02*
X030041Y019555D01*
X030663Y019555D02*
X032991Y019555D01*
X034238Y019555D02*
X035030Y019555D01*
X001199Y019653D02*
X000329Y019653D01*
X002250Y019653D02*
X017767Y019653D01*
X030564Y019653D02*
X033089Y019653D01*
X034140Y019653D02*
X035010Y019653D01*
X001335Y019752D02*
X000361Y019752D01*
X002115Y019752D02*
X017866Y019752D01*
X030466Y019752D02*
X033224Y019752D01*
X034005Y019752D02*
X034978Y019752D01*
X017964Y019850D02*
X000393Y019850D01*
X030367Y019850D02*
X034946Y019850D01*
X018063Y019949D02*
X000441Y019949D01*
X030269Y019949D02*
X034899Y019949D01*
X018161Y020047D02*
X000512Y020047D01*
X030170Y020047D02*
X034827Y020047D01*
X034755Y020146D02*
X000584Y020146D01*
X000703Y020244D02*
X034636Y020244D01*
X034500Y020343D02*
X000839Y020343D01*
X001112Y020441D02*
X034227Y020441D01*
D28*
X013142Y014304D02*
X011996Y014304D01*
X011985Y014315D01*
X013142Y014304D02*
X013162Y014304D01*
X014323Y013142D01*
X018851Y013142D01*
X014520Y012355D02*
X019244Y012355D01*
X020902Y014012D01*
X020902Y014709D01*
X020902Y015737D01*
X020839Y015800D01*
X013733Y011764D02*
X020032Y011764D01*
X021902Y013634D01*
X021902Y014709D01*
X018000Y002119D02*
X018000Y003827D01*
X018457Y004284D01*
X023772Y004284D01*
X024902Y005414D01*
X024902Y006709D01*
X017000Y002119D02*
X017000Y004205D01*
X017473Y004678D01*
X023181Y004678D01*
X023902Y005398D01*
X023902Y006709D01*
X016000Y002119D02*
X016000Y004189D01*
X016882Y005071D01*
X022394Y005071D01*
X022902Y006709D02*
X022902Y005579D01*
X022394Y005071D01*
X021902Y006709D02*
X021902Y005760D01*
X021607Y005465D01*
X016292Y005465D01*
X015000Y004174D01*
X015000Y002119D01*
X020012Y015800D02*
X020012Y014819D01*
X019902Y014709D01*
X017493Y018949D02*
X017493Y019067D01*
X018260Y019835D01*
X023378Y019835D01*
X030071Y019835D01*
X030859Y019048D01*
X030859Y014752D01*
X030902Y014709D01*
X023378Y018998D02*
X023378Y019835D01*
X013142Y016685D02*
X016685Y016685D01*
X017473Y017473D01*
X017473Y018930D01*
X017493Y018949D01*
X016095Y006646D02*
X015701Y006252D01*
X012945Y006252D01*
X013142Y015130D02*
X013142Y016685D01*
X016666Y018949D02*
X014331Y018949D01*
X014225Y019056D01*
X006154Y011626D02*
X006154Y011272D01*
X006646Y010780D01*
X006646Y010091D01*
X009304Y011626D02*
X009933Y011626D01*
X009993Y011567D01*
X016882Y010977D02*
X008811Y010977D01*
X008418Y011370D01*
X008418Y012355D01*
X008930Y012493D02*
X008556Y012493D01*
X008418Y012355D01*
X008930Y012493D02*
X008930Y013870D01*
X008989Y013930D01*
X017867Y009402D02*
X005859Y009402D01*
X005268Y009993D01*
X005268Y011981D01*
X005780Y012493D01*
X005780Y013024D01*
X005642Y013162D01*
X005642Y013930D01*
X029776Y005052D02*
X029776Y004579D01*
X029874Y004481D01*
X028044Y005937D02*
X028811Y005937D01*
X028890Y005859D01*
X032433Y016685D02*
X033418Y016685D01*
X034796Y015307D01*
X034796Y005071D01*
X032237Y002512D01*
X031056Y002512D01*
X029402Y005052D02*
X029402Y005268D01*
X029402Y006075D01*
X029402Y005052D02*
X029402Y004166D01*
X031056Y002512D01*
X028044Y005189D02*
X029323Y005189D01*
X029402Y005268D01*
X026626Y002414D02*
X027611Y002414D01*
X028103Y002906D01*
X028103Y005130D01*
X028044Y005189D01*
X033811Y009796D02*
X029815Y009796D01*
X029815Y007827D01*
X030150Y006075D02*
X030150Y006764D01*
X029815Y007099D01*
X029815Y007827D01*
X030662Y006056D02*
X030170Y006056D01*
X030150Y006075D01*
X018902Y014709D02*
X018902Y015752D01*
X021378Y018229D01*
X021378Y018998D01*
X017902Y014709D02*
X017902Y015933D01*
X020378Y018410D01*
X020378Y019098D01*
X027178Y005563D02*
X027178Y005985D01*
X027902Y006709D01*
X011567Y005248D02*
X011567Y002512D01*
X019902Y006709D02*
X019902Y006319D01*
X019638Y006056D01*
X016095Y006056D01*
X015288Y005248D01*
X011567Y005248D01*
D29*
X018851Y013142D03*
X014520Y012355D03*
X013733Y011764D03*
X013142Y016685D03*
X016095Y006646D03*
X012945Y006252D03*
X009993Y011567D03*
X016882Y010977D03*
X017867Y009402D03*
X029874Y004481D03*
X028890Y005859D03*
X032433Y016685D03*
X033811Y009796D03*
X030662Y006056D03*
M02*
