%
M48
M72
T01C0.0236
T02C0.0276
T03C0.0315
T04C0.0394
T05C0.0400
T06C0.0472
T07C0.0512
T08C0.0984
T09C0.1000
T10C0.1181
T11C0.1299
%
T01
X18851Y13142
X14520Y12355
X13733Y11764
X13142Y16685
X16095Y6646
X12945Y6252
X9993Y11567
X16882Y10977
X17867Y9402
X29874Y4481
X28890Y5859
X32433Y16685
X33811Y9796
X30662Y6056
T02
X14225Y18056
X14225Y19056
T03
X11985Y13315
X11985Y14315
X11985Y15315
X11985Y16315
T04
X27902Y6709
X26902Y6709
X25902Y6709
X24902Y6709
X23902Y6709
X22902Y6709
X21902Y6709
X20902Y6709
X19902Y6709
X18902Y6709
X17902Y6709
X16902Y6709
X27902Y14709
X26902Y14709
X25902Y14709
X24902Y14709
X23902Y14709
X22902Y14709
X21902Y14709
X20902Y14709
X19902Y14709
X18902Y14709
X17902Y14709
X16902Y14709
X28902Y14709
X29902Y14709
X30902Y14709
X31902Y14709
T05
X22000Y2119
X21000Y2119
X20000Y2119
X19000Y2119
X18000Y2119
X17000Y2119
X16000Y2119
X15000Y2119
X23378Y18998
X22378Y19098
X21378Y18998
X20378Y19098
T06
X9205Y10091
X7926Y10091
X6646Y10091
X9205Y3201
X6646Y1823
X29678Y2512
X31056Y2512
X11567Y2512
X12945Y2512
T07
X2611Y7630
X2611Y5662
X24658Y2414
X26626Y2414
T08
X33402Y7209
X33402Y14209
T09
X15402Y7209
X15402Y14209
T10
X1626Y14815
T11
X1725Y1725
X33615Y1725
X1725Y19048
X33615Y19048
M30
