M48
;GenerationSoftware,Autodesk,EAGLE,9.3.0*%
;CreationDate,2019-03-21T13:25:14Z*%
FMAT,2
ICI,OFF
METRIC,TZ,000.000
T4C0.800
T3C0.914
T2C1.100
T1C3.500
%
G90
M71
T1
X150000Y219000
X20000Y219000
X20000Y10000
X280000Y219000
X280000Y10000
X150000Y10000
X80000Y114500
X80000Y219000
X80000Y10000
X220000Y114500
X220000Y219000
X220000Y10000
T2
X5500Y22500
X2500Y39540
X11500Y39540
X2500Y20540
X11500Y20540
X8500Y41500
X5500Y41500
X8500Y22500
T3
X22290Y127020
X19750Y124480
X19750Y127020
X17210Y124480
X17210Y127020
X14670Y124480
X14670Y127020
X24830Y112480
X24830Y115020
X22290Y115020
X19750Y112480
X19750Y115020
X17210Y112480
X17210Y115020
X14670Y112480
X14670Y115020
X24830Y127020
X24830Y124480
X22290Y124480
X22290Y112480
T4
X34000Y76000
X34000Y166000
X25250Y134125
X20750Y143625
X21125Y90875
X18375Y98875
X9000Y70000
X29000Y107500
X21125Y68500
X26875Y107500
X21125Y135500
X21125Y131625
X23250Y48750
X23250Y69750
X23250Y93000
X23255Y137455
X9250Y137750
X21125Y47375
X12250Y137750
X15500Y137750
X9000Y91750
X12250Y91750
X15500Y91750
X18000Y138500
X12250Y70000
X15500Y70000
X18000Y70500
X18000Y49500
X15750Y48750
X12250Y48750
X9250Y48750
X15250Y119750
X27750Y119750
X14000Y44000
X9000Y38000
X14000Y38000
X14000Y33000
X15250Y131250
X28250Y131250
X15250Y106750
X20830Y54345
X17750Y92500
X9000Y33000
X14000Y28000
X9000Y28000
X25100Y88200
X20700Y97200
X25080Y45220
X34000Y55000
X39000Y178000
X25110Y66220
X20860Y75345
M30