G04 EAGLE Gerber RS-274X export*
G75*
%MOMM*%
%FSLAX34Y34*%
%LPD*%
%INSilkscreen Bottom*%
%IPPOS*%
%AMOC8*
5,1,8,0,0,1.08239X$1,22.5*%
G01*
%ADD10C,0.152400*%
%ADD11C,0.050800*%
%ADD12C,0.127000*%
%ADD13C,0.177800*%


D10*
X286400Y1289250D02*
X108600Y1289250D01*
X108600Y1225750D01*
X286400Y1225750D02*
X286400Y1289250D01*
X286400Y1301950D02*
X299100Y1301950D01*
X142890Y1213050D02*
X95900Y1213050D01*
X95900Y1301950D01*
X299100Y1301950D02*
X299100Y1213050D01*
X151780Y1225750D02*
X108600Y1225750D01*
X177180Y1233370D02*
X217820Y1233370D01*
X217820Y1225750D01*
X286400Y1225750D01*
X217820Y1225750D02*
X217820Y1223210D01*
X177180Y1225750D02*
X177180Y1233370D01*
X177180Y1225750D02*
X177180Y1223210D01*
X108600Y1301950D02*
X108600Y1304490D01*
X121300Y1304490D01*
X121300Y1301950D01*
X108600Y1301950D02*
X95900Y1301950D01*
X191150Y1304490D02*
X203850Y1304490D01*
X191150Y1304490D02*
X191150Y1301950D01*
X121300Y1301950D01*
X203850Y1301950D02*
X203850Y1304490D01*
X273700Y1304490D02*
X286400Y1304490D01*
X286400Y1301950D01*
X273700Y1301950D02*
X273700Y1304490D01*
X273700Y1301950D02*
X203850Y1301950D01*
X177180Y1213050D02*
X175910Y1213050D01*
X177180Y1213050D02*
X217820Y1213050D01*
X167020Y1223210D02*
X167020Y1225750D01*
X177180Y1225750D01*
X151780Y1225750D02*
X151780Y1223210D01*
X151780Y1225750D02*
X167020Y1225750D01*
X172100Y1218130D02*
X175910Y1213050D01*
X146700Y1218130D02*
X142890Y1213050D01*
X146700Y1218130D02*
X151780Y1218130D01*
D11*
X167020Y1223210D02*
X177180Y1223210D01*
D10*
X177180Y1213050D01*
D11*
X151780Y1223210D02*
X106060Y1223210D01*
X106060Y1291790D01*
X288940Y1291790D01*
X288940Y1223210D01*
X217820Y1223210D01*
D10*
X217820Y1213050D01*
X167020Y1218130D02*
X167020Y1223210D01*
X167020Y1218130D02*
X172100Y1218130D01*
X151780Y1218130D02*
X151780Y1223210D01*
X151780Y1218130D02*
X167020Y1218130D01*
X217820Y1213050D02*
X241950Y1213050D01*
X241950Y1214320D01*
X254650Y1214320D01*
X254650Y1213050D01*
X299100Y1213050D01*
D12*
X207025Y1225122D02*
X203212Y1228935D01*
X203212Y1217495D01*
X207025Y1217495D02*
X199399Y1217495D01*
X195331Y1219402D02*
X195331Y1227028D01*
X193424Y1228935D01*
X189611Y1228935D01*
X187705Y1227028D01*
X187705Y1219402D01*
X189611Y1217495D01*
X193424Y1217495D01*
X195331Y1219402D01*
X187705Y1227028D01*
X269252Y1250525D02*
X273065Y1246712D01*
X269252Y1250525D02*
X269252Y1239085D01*
X273065Y1239085D02*
X265439Y1239085D01*
X265439Y1264485D02*
X273065Y1264485D01*
X265439Y1272112D01*
X265439Y1274018D01*
X267345Y1275925D01*
X271158Y1275925D01*
X273065Y1274018D01*
D13*
X295542Y1309189D02*
X298211Y1311858D01*
X295542Y1309189D02*
X292872Y1309189D01*
X290203Y1311858D01*
X290203Y1325205D01*
X292872Y1325205D02*
X287534Y1325205D01*
X281839Y1319866D02*
X276501Y1325205D01*
X276501Y1309189D01*
X281839Y1309189D02*
X271162Y1309189D01*
D10*
X286400Y1169250D02*
X108600Y1169250D01*
X108600Y1105750D01*
X286400Y1105750D02*
X286400Y1169250D01*
X286400Y1181950D02*
X299100Y1181950D01*
X142890Y1093050D02*
X95900Y1093050D01*
X95900Y1181950D01*
X299100Y1181950D02*
X299100Y1093050D01*
X151780Y1105750D02*
X108600Y1105750D01*
X177180Y1113370D02*
X217820Y1113370D01*
X217820Y1105750D01*
X286400Y1105750D01*
X217820Y1105750D02*
X217820Y1103210D01*
X177180Y1105750D02*
X177180Y1113370D01*
X177180Y1105750D02*
X177180Y1103210D01*
X108600Y1181950D02*
X108600Y1184490D01*
X121300Y1184490D01*
X121300Y1181950D01*
X108600Y1181950D02*
X95900Y1181950D01*
X191150Y1184490D02*
X203850Y1184490D01*
X191150Y1184490D02*
X191150Y1181950D01*
X121300Y1181950D01*
X203850Y1181950D02*
X203850Y1184490D01*
X273700Y1184490D02*
X286400Y1184490D01*
X286400Y1181950D01*
X273700Y1181950D02*
X273700Y1184490D01*
X273700Y1181950D02*
X203850Y1181950D01*
X177180Y1093050D02*
X175910Y1093050D01*
X177180Y1093050D02*
X217820Y1093050D01*
X167020Y1103210D02*
X167020Y1105750D01*
X177180Y1105750D01*
X151780Y1105750D02*
X151780Y1103210D01*
X151780Y1105750D02*
X167020Y1105750D01*
X172100Y1098130D02*
X175910Y1093050D01*
X146700Y1098130D02*
X142890Y1093050D01*
X146700Y1098130D02*
X151780Y1098130D01*
D11*
X167020Y1103210D02*
X177180Y1103210D01*
D10*
X177180Y1093050D01*
D11*
X151780Y1103210D02*
X106060Y1103210D01*
X106060Y1171790D01*
X288940Y1171790D01*
X288940Y1103210D01*
X217820Y1103210D01*
D10*
X217820Y1093050D01*
X167020Y1098130D02*
X167020Y1103210D01*
X167020Y1098130D02*
X172100Y1098130D01*
X151780Y1098130D02*
X151780Y1103210D01*
X151780Y1098130D02*
X167020Y1098130D01*
X217820Y1093050D02*
X241950Y1093050D01*
X241950Y1094320D01*
X254650Y1094320D01*
X254650Y1093050D01*
X299100Y1093050D01*
D12*
X207025Y1105122D02*
X203212Y1108935D01*
X203212Y1097495D01*
X207025Y1097495D02*
X199399Y1097495D01*
X195331Y1099402D02*
X195331Y1107028D01*
X193424Y1108935D01*
X189611Y1108935D01*
X187705Y1107028D01*
X187705Y1099402D01*
X189611Y1097495D01*
X193424Y1097495D01*
X195331Y1099402D01*
X187705Y1107028D01*
X269252Y1130525D02*
X273065Y1126712D01*
X269252Y1130525D02*
X269252Y1119085D01*
X273065Y1119085D02*
X265439Y1119085D01*
X265439Y1144485D02*
X273065Y1144485D01*
X265439Y1152112D01*
X265439Y1154018D01*
X267345Y1155925D01*
X271158Y1155925D01*
X273065Y1154018D01*
D13*
X295542Y1189189D02*
X298211Y1191858D01*
X295542Y1189189D02*
X292872Y1189189D01*
X290203Y1191858D01*
X290203Y1205205D01*
X292872Y1205205D02*
X287534Y1205205D01*
X281839Y1189189D02*
X271162Y1189189D01*
X281839Y1189189D02*
X271162Y1199866D01*
X271162Y1202535D01*
X273832Y1205205D01*
X279170Y1205205D01*
X281839Y1202535D01*
D12*
X65000Y396000D02*
X21750Y396000D01*
X65000Y396000D02*
X75000Y396000D01*
X118250Y396000D01*
X118250Y439700D01*
X87500Y439700D01*
X77500Y439700D01*
X62500Y439700D01*
X52500Y439700D01*
X21750Y439700D01*
X21750Y396000D01*
X65000Y396000D02*
X65000Y390000D01*
X75000Y390000D01*
X75000Y396000D01*
X62500Y439700D02*
X62500Y445700D01*
X52500Y445700D01*
X52500Y439700D01*
X77500Y439700D02*
X77500Y445700D01*
X87500Y445700D01*
X87500Y439700D01*
X97500Y402500D02*
X72500Y402500D01*
X97500Y402500D02*
X97500Y422500D01*
X92500Y427500D01*
X72500Y427500D01*
X72500Y402500D01*
X67500Y402500D02*
X42500Y402500D01*
X67500Y402500D02*
X67500Y427500D01*
X47500Y427500D01*
X42500Y422500D01*
X42500Y402500D01*
X82325Y366635D02*
X83781Y368091D01*
X82325Y366635D02*
X80868Y366635D01*
X79412Y368091D01*
X79412Y375372D01*
X80868Y375372D02*
X77956Y375372D01*
X74573Y373916D02*
X73117Y375372D01*
X70204Y375372D01*
X68748Y373916D01*
X68748Y372460D01*
X70204Y371004D01*
X71660Y371004D01*
X70204Y371004D02*
X68748Y369547D01*
X68748Y368091D01*
X70204Y366635D01*
X73117Y366635D01*
X74573Y368091D01*
X65000Y206000D02*
X21750Y206000D01*
X65000Y206000D02*
X75000Y206000D01*
X118250Y206000D01*
X118250Y249700D01*
X87500Y249700D01*
X77500Y249700D01*
X62500Y249700D01*
X52500Y249700D01*
X21750Y249700D01*
X21750Y206000D01*
X65000Y206000D02*
X65000Y200000D01*
X75000Y200000D01*
X75000Y206000D01*
X62500Y249700D02*
X62500Y255700D01*
X52500Y255700D01*
X52500Y249700D01*
X77500Y249700D02*
X77500Y255700D01*
X87500Y255700D01*
X87500Y249700D01*
X97500Y212500D02*
X72500Y212500D01*
X97500Y212500D02*
X97500Y232500D01*
X92500Y237500D01*
X72500Y237500D01*
X72500Y212500D01*
X67500Y212500D02*
X42500Y212500D01*
X67500Y212500D02*
X67500Y237500D01*
X47500Y237500D01*
X42500Y232500D01*
X42500Y212500D01*
X82325Y176635D02*
X83781Y178091D01*
X82325Y176635D02*
X80868Y176635D01*
X79412Y178091D01*
X79412Y185372D01*
X80868Y185372D02*
X77956Y185372D01*
X70204Y185372D02*
X70204Y176635D01*
X74573Y181004D02*
X70204Y185372D01*
X68748Y181004D02*
X74573Y181004D01*
M02*
