G04 EAGLE Gerber RS-274X export*
G75*
%MOMM*%
%FSLAX34Y34*%
%LPD*%
%INSilkscreen Top*%
%IPPOS*%
%AMOC8*
5,1,8,0,0,1.08239X$1,22.5*%
G01*
%ADD10C,0.406400*%
%ADD11C,0.050000*%
%ADD12C,0.101600*%
%ADD13C,0.050800*%
%ADD14C,0.152400*%
%ADD15C,0.500000*%
%ADD16C,0.127000*%
%ADD17C,0.076200*%
%ADD18C,0.100000*%


D10*
X30858Y1145000D02*
X30862Y1145347D01*
X30875Y1145694D01*
X30896Y1146040D01*
X30926Y1146386D01*
X30964Y1146731D01*
X31011Y1147075D01*
X31066Y1147418D01*
X31130Y1147759D01*
X31202Y1148099D01*
X31282Y1148436D01*
X31370Y1148772D01*
X31467Y1149105D01*
X31572Y1149436D01*
X31685Y1149764D01*
X31806Y1150090D01*
X31934Y1150412D01*
X32071Y1150731D01*
X32216Y1151046D01*
X32368Y1151358D01*
X32528Y1151666D01*
X32695Y1151971D01*
X32870Y1152270D01*
X33052Y1152566D01*
X33241Y1152857D01*
X33438Y1153143D01*
X33641Y1153424D01*
X33851Y1153701D01*
X34068Y1153972D01*
X34292Y1154237D01*
X34521Y1154497D01*
X34758Y1154751D01*
X35000Y1155000D01*
X35249Y1155242D01*
X35503Y1155479D01*
X35763Y1155708D01*
X36028Y1155932D01*
X36299Y1156149D01*
X36576Y1156359D01*
X36857Y1156562D01*
X37143Y1156759D01*
X37434Y1156948D01*
X37730Y1157130D01*
X38029Y1157305D01*
X38334Y1157472D01*
X38642Y1157632D01*
X38954Y1157784D01*
X39269Y1157929D01*
X39588Y1158066D01*
X39910Y1158194D01*
X40236Y1158315D01*
X40564Y1158428D01*
X40895Y1158533D01*
X41228Y1158630D01*
X41564Y1158718D01*
X41901Y1158798D01*
X42241Y1158870D01*
X42582Y1158934D01*
X42925Y1158989D01*
X43269Y1159036D01*
X43614Y1159074D01*
X43960Y1159104D01*
X44306Y1159125D01*
X44653Y1159138D01*
X45000Y1159142D01*
X45347Y1159138D01*
X45694Y1159125D01*
X46040Y1159104D01*
X46386Y1159074D01*
X46731Y1159036D01*
X47075Y1158989D01*
X47418Y1158934D01*
X47759Y1158870D01*
X48099Y1158798D01*
X48436Y1158718D01*
X48772Y1158630D01*
X49105Y1158533D01*
X49436Y1158428D01*
X49764Y1158315D01*
X50090Y1158194D01*
X50412Y1158066D01*
X50731Y1157929D01*
X51046Y1157784D01*
X51358Y1157632D01*
X51666Y1157472D01*
X51971Y1157305D01*
X52270Y1157130D01*
X52566Y1156948D01*
X52857Y1156759D01*
X53143Y1156562D01*
X53424Y1156359D01*
X53701Y1156149D01*
X53972Y1155932D01*
X54237Y1155708D01*
X54497Y1155479D01*
X54751Y1155242D01*
X55000Y1155000D01*
X55242Y1154751D01*
X55479Y1154497D01*
X55708Y1154237D01*
X55932Y1153972D01*
X56149Y1153701D01*
X56359Y1153424D01*
X56562Y1153143D01*
X56759Y1152857D01*
X56948Y1152566D01*
X57130Y1152270D01*
X57305Y1151971D01*
X57472Y1151666D01*
X57632Y1151358D01*
X57784Y1151046D01*
X57929Y1150731D01*
X58066Y1150412D01*
X58194Y1150090D01*
X58315Y1149764D01*
X58428Y1149436D01*
X58533Y1149105D01*
X58630Y1148772D01*
X58718Y1148436D01*
X58798Y1148099D01*
X58870Y1147759D01*
X58934Y1147418D01*
X58989Y1147075D01*
X59036Y1146731D01*
X59074Y1146386D01*
X59104Y1146040D01*
X59125Y1145694D01*
X59138Y1145347D01*
X59142Y1145000D01*
X59138Y1144653D01*
X59125Y1144306D01*
X59104Y1143960D01*
X59074Y1143614D01*
X59036Y1143269D01*
X58989Y1142925D01*
X58934Y1142582D01*
X58870Y1142241D01*
X58798Y1141901D01*
X58718Y1141564D01*
X58630Y1141228D01*
X58533Y1140895D01*
X58428Y1140564D01*
X58315Y1140236D01*
X58194Y1139910D01*
X58066Y1139588D01*
X57929Y1139269D01*
X57784Y1138954D01*
X57632Y1138642D01*
X57472Y1138334D01*
X57305Y1138029D01*
X57130Y1137730D01*
X56948Y1137434D01*
X56759Y1137143D01*
X56562Y1136857D01*
X56359Y1136576D01*
X56149Y1136299D01*
X55932Y1136028D01*
X55708Y1135763D01*
X55479Y1135503D01*
X55242Y1135249D01*
X55000Y1135000D01*
X54751Y1134758D01*
X54497Y1134521D01*
X54237Y1134292D01*
X53972Y1134068D01*
X53701Y1133851D01*
X53424Y1133641D01*
X53143Y1133438D01*
X52857Y1133241D01*
X52566Y1133052D01*
X52270Y1132870D01*
X51971Y1132695D01*
X51666Y1132528D01*
X51358Y1132368D01*
X51046Y1132216D01*
X50731Y1132071D01*
X50412Y1131934D01*
X50090Y1131806D01*
X49764Y1131685D01*
X49436Y1131572D01*
X49105Y1131467D01*
X48772Y1131370D01*
X48436Y1131282D01*
X48099Y1131202D01*
X47759Y1131130D01*
X47418Y1131066D01*
X47075Y1131011D01*
X46731Y1130964D01*
X46386Y1130926D01*
X46040Y1130896D01*
X45694Y1130875D01*
X45347Y1130862D01*
X45000Y1130858D01*
X44653Y1130862D01*
X44306Y1130875D01*
X43960Y1130896D01*
X43614Y1130926D01*
X43269Y1130964D01*
X42925Y1131011D01*
X42582Y1131066D01*
X42241Y1131130D01*
X41901Y1131202D01*
X41564Y1131282D01*
X41228Y1131370D01*
X40895Y1131467D01*
X40564Y1131572D01*
X40236Y1131685D01*
X39910Y1131806D01*
X39588Y1131934D01*
X39269Y1132071D01*
X38954Y1132216D01*
X38642Y1132368D01*
X38334Y1132528D01*
X38029Y1132695D01*
X37730Y1132870D01*
X37434Y1133052D01*
X37143Y1133241D01*
X36857Y1133438D01*
X36576Y1133641D01*
X36299Y1133851D01*
X36028Y1134068D01*
X35763Y1134292D01*
X35503Y1134521D01*
X35249Y1134758D01*
X35000Y1135000D01*
X34758Y1135249D01*
X34521Y1135503D01*
X34292Y1135763D01*
X34068Y1136028D01*
X33851Y1136299D01*
X33641Y1136576D01*
X33438Y1136857D01*
X33241Y1137143D01*
X33052Y1137434D01*
X32870Y1137730D01*
X32695Y1138029D01*
X32528Y1138334D01*
X32368Y1138642D01*
X32216Y1138954D01*
X32071Y1139269D01*
X31934Y1139588D01*
X31806Y1139910D01*
X31685Y1140236D01*
X31572Y1140564D01*
X31467Y1140895D01*
X31370Y1141228D01*
X31282Y1141564D01*
X31202Y1141901D01*
X31130Y1142241D01*
X31066Y1142582D01*
X31011Y1142925D01*
X30964Y1143269D01*
X30926Y1143614D01*
X30896Y1143960D01*
X30875Y1144306D01*
X30862Y1144653D01*
X30858Y1145000D01*
X3010000Y1145000D02*
X3020000Y1145000D01*
X3050000Y1165000D02*
X3050000Y1125000D01*
X3015000Y1140000D02*
X3015000Y1150000D01*
X2985000Y1150000D02*
X2985000Y1140000D01*
X2985000Y1160000D02*
X3015000Y1160000D01*
X3015000Y1130000D02*
X2985000Y1130000D01*
X2980000Y1145000D02*
X2990000Y1145000D01*
X2985000Y1160000D02*
X2984635Y1159996D01*
X2984270Y1159982D01*
X2983905Y1159960D01*
X2983541Y1159929D01*
X2983178Y1159889D01*
X2982816Y1159840D01*
X2982455Y1159783D01*
X2982096Y1159716D01*
X2981739Y1159641D01*
X2981383Y1159557D01*
X2981030Y1159465D01*
X2980679Y1159364D01*
X2980330Y1159255D01*
X2979984Y1159137D01*
X2979642Y1159010D01*
X2979302Y1158876D01*
X2978966Y1158733D01*
X2978633Y1158582D01*
X2978304Y1158423D01*
X2977979Y1158256D01*
X2977659Y1158081D01*
X2977342Y1157898D01*
X2977031Y1157708D01*
X2976723Y1157510D01*
X2976421Y1157305D01*
X2976124Y1157092D01*
X2975832Y1156872D01*
X2975546Y1156646D01*
X2975265Y1156412D01*
X2974990Y1156172D01*
X2974721Y1155925D01*
X2974458Y1155671D01*
X2974201Y1155411D01*
X2973951Y1155145D01*
X2973707Y1154873D01*
X2973470Y1154595D01*
X2973240Y1154311D01*
X2973017Y1154022D01*
X2972801Y1153728D01*
X2972592Y1153428D01*
X2972390Y1153124D01*
X2972196Y1152814D01*
X2972010Y1152500D01*
X2971831Y1152181D01*
X2971660Y1151859D01*
X2971497Y1151532D01*
X2971342Y1151201D01*
X2971195Y1150867D01*
X2971056Y1150529D01*
X2970926Y1150187D01*
X2970803Y1149843D01*
X2970690Y1149496D01*
X2970584Y1149146D01*
X2970488Y1148794D01*
X2970400Y1148439D01*
X2970320Y1148083D01*
X2970250Y1147725D01*
X2970188Y1147365D01*
X2970134Y1147003D01*
X2970090Y1146641D01*
X2970054Y1146277D01*
X2970028Y1145913D01*
X2970010Y1145548D01*
X2970001Y1145183D01*
X2970001Y1144817D01*
X2970010Y1144452D01*
X2970028Y1144087D01*
X2970054Y1143723D01*
X2970090Y1143359D01*
X2970134Y1142997D01*
X2970188Y1142635D01*
X2970250Y1142275D01*
X2970320Y1141917D01*
X2970400Y1141561D01*
X2970488Y1141206D01*
X2970584Y1140854D01*
X2970690Y1140504D01*
X2970803Y1140157D01*
X2970926Y1139813D01*
X2971056Y1139471D01*
X2971195Y1139133D01*
X2971342Y1138799D01*
X2971497Y1138468D01*
X2971660Y1138141D01*
X2971831Y1137819D01*
X2972010Y1137500D01*
X2972196Y1137186D01*
X2972390Y1136876D01*
X2972592Y1136572D01*
X2972801Y1136272D01*
X2973017Y1135978D01*
X2973240Y1135689D01*
X2973470Y1135405D01*
X2973707Y1135127D01*
X2973951Y1134855D01*
X2974201Y1134589D01*
X2974458Y1134329D01*
X2974721Y1134075D01*
X2974990Y1133828D01*
X2975265Y1133588D01*
X2975546Y1133354D01*
X2975832Y1133128D01*
X2976124Y1132908D01*
X2976421Y1132695D01*
X2976723Y1132490D01*
X2977031Y1132292D01*
X2977342Y1132102D01*
X2977659Y1131919D01*
X2977979Y1131744D01*
X2978304Y1131577D01*
X2978633Y1131418D01*
X2978966Y1131267D01*
X2979302Y1131124D01*
X2979642Y1130990D01*
X2979984Y1130863D01*
X2980330Y1130745D01*
X2980679Y1130636D01*
X2981030Y1130535D01*
X2981383Y1130443D01*
X2981739Y1130359D01*
X2982096Y1130284D01*
X2982455Y1130217D01*
X2982816Y1130160D01*
X2983178Y1130111D01*
X2983541Y1130071D01*
X2983905Y1130040D01*
X2984270Y1130018D01*
X2984635Y1130004D01*
X2985000Y1130000D01*
D11*
X1548900Y1148600D02*
X1539400Y1148600D01*
X1548900Y1148600D02*
X1550000Y1147500D01*
X1551100Y1148600D01*
X1560600Y1148600D01*
X1560600Y1131400D01*
X1539400Y1131400D01*
X1539400Y1148600D01*
D12*
X1564000Y1097122D02*
X1569995Y1097122D01*
X1572992Y1100119D01*
X1569995Y1103117D01*
X1564000Y1103117D01*
X1572992Y1106330D02*
X1572992Y1109327D01*
X1572992Y1107829D02*
X1564000Y1107829D01*
X1564000Y1109327D02*
X1564000Y1106330D01*
X1564000Y1113967D02*
X1564000Y1116964D01*
X1564000Y1113967D02*
X1565499Y1112469D01*
X1571493Y1112469D01*
X1572992Y1113967D01*
X1572992Y1116964D01*
X1571493Y1118463D01*
X1565499Y1118463D01*
X1564000Y1116964D01*
X1564000Y1121676D02*
X1572992Y1121676D01*
X1572992Y1127671D01*
X1564000Y1130884D02*
X1564000Y1136879D01*
X1564000Y1130884D02*
X1572992Y1130884D01*
X1572992Y1136879D01*
X1568496Y1133882D02*
X1568496Y1130884D01*
X1572992Y1143089D02*
X1564000Y1143089D01*
X1564000Y1140092D02*
X1564000Y1146087D01*
X1566998Y1149300D02*
X1564000Y1152297D01*
X1572992Y1152297D01*
X1572992Y1149300D02*
X1572992Y1155294D01*
D11*
X517250Y1797250D02*
X482750Y1797250D01*
X517250Y1797250D02*
X517250Y1762750D01*
X482750Y1762750D01*
X482750Y1797250D01*
D12*
X480758Y1800108D02*
X480758Y1809100D01*
X485254Y1809100D01*
X486752Y1807601D01*
X486752Y1806102D01*
X485254Y1804604D01*
X486752Y1803105D01*
X486752Y1801607D01*
X485254Y1800108D01*
X480758Y1800108D01*
X480758Y1804604D02*
X485254Y1804604D01*
X489966Y1809100D02*
X489966Y1800108D01*
X495960Y1800108D01*
X499174Y1809100D02*
X505168Y1809100D01*
X499174Y1809100D02*
X499174Y1800108D01*
X505168Y1800108D01*
X502171Y1804604D02*
X499174Y1804604D01*
X508382Y1801607D02*
X508382Y1809100D01*
X508382Y1801607D02*
X509880Y1800108D01*
X512877Y1800108D01*
X514376Y1801607D01*
X514376Y1809100D01*
X517589Y1806102D02*
X520587Y1809100D01*
X520587Y1800108D01*
X523584Y1800108D02*
X517589Y1800108D01*
D11*
X1482750Y1797250D02*
X1517250Y1797250D01*
X1517250Y1762750D01*
X1482750Y1762750D01*
X1482750Y1797250D01*
D12*
X1480758Y1800108D02*
X1480758Y1809100D01*
X1485254Y1809100D01*
X1486752Y1807601D01*
X1486752Y1806102D01*
X1485254Y1804604D01*
X1486752Y1803105D01*
X1486752Y1801607D01*
X1485254Y1800108D01*
X1480758Y1800108D01*
X1480758Y1804604D02*
X1485254Y1804604D01*
X1489966Y1809100D02*
X1489966Y1800108D01*
X1495960Y1800108D01*
X1499174Y1809100D02*
X1505168Y1809100D01*
X1499174Y1809100D02*
X1499174Y1800108D01*
X1505168Y1800108D01*
X1502171Y1804604D02*
X1499174Y1804604D01*
X1508382Y1801607D02*
X1508382Y1809100D01*
X1508382Y1801607D02*
X1509880Y1800108D01*
X1512877Y1800108D01*
X1514376Y1801607D01*
X1514376Y1809100D01*
X1517589Y1800108D02*
X1523584Y1800108D01*
X1523584Y1806102D02*
X1517589Y1800108D01*
X1523584Y1806102D02*
X1523584Y1807601D01*
X1522085Y1809100D01*
X1519088Y1809100D01*
X1517589Y1807601D01*
D11*
X2482750Y1797250D02*
X2517250Y1797250D01*
X2517250Y1762750D01*
X2482750Y1762750D01*
X2482750Y1797250D01*
D12*
X2480758Y1800108D02*
X2480758Y1809100D01*
X2485254Y1809100D01*
X2486752Y1807601D01*
X2486752Y1806102D01*
X2485254Y1804604D01*
X2486752Y1803105D01*
X2486752Y1801607D01*
X2485254Y1800108D01*
X2480758Y1800108D01*
X2480758Y1804604D02*
X2485254Y1804604D01*
X2489966Y1809100D02*
X2489966Y1800108D01*
X2495960Y1800108D01*
X2499174Y1809100D02*
X2505168Y1809100D01*
X2499174Y1809100D02*
X2499174Y1800108D01*
X2505168Y1800108D01*
X2502171Y1804604D02*
X2499174Y1804604D01*
X2508382Y1801607D02*
X2508382Y1809100D01*
X2508382Y1801607D02*
X2509880Y1800108D01*
X2512877Y1800108D01*
X2514376Y1801607D01*
X2514376Y1809100D01*
X2517589Y1807601D02*
X2519088Y1809100D01*
X2522085Y1809100D01*
X2523584Y1807601D01*
X2523584Y1806102D01*
X2522085Y1804604D01*
X2520587Y1804604D01*
X2522085Y1804604D02*
X2523584Y1803105D01*
X2523584Y1801607D01*
X2522085Y1800108D01*
X2519088Y1800108D01*
X2517589Y1801607D01*
D11*
X2517250Y492750D02*
X2482750Y492750D01*
X2482750Y527250D01*
X2517250Y527250D01*
X2517250Y492750D01*
D12*
X2474219Y489900D02*
X2474219Y480908D01*
X2474219Y489900D02*
X2478714Y489900D01*
X2480213Y488401D01*
X2480213Y486902D01*
X2478714Y485404D01*
X2480213Y483905D01*
X2480213Y482407D01*
X2478714Y480908D01*
X2474219Y480908D01*
X2474219Y485404D02*
X2478714Y485404D01*
X2483427Y489900D02*
X2483427Y480908D01*
X2489421Y480908D01*
X2492634Y489900D02*
X2498629Y489900D01*
X2492634Y489900D02*
X2492634Y480908D01*
X2498629Y480908D01*
X2495632Y485404D02*
X2492634Y485404D01*
X2501842Y482407D02*
X2501842Y489900D01*
X2501842Y482407D02*
X2503341Y480908D01*
X2506338Y480908D01*
X2507837Y482407D01*
X2507837Y489900D01*
X2515546Y489900D02*
X2515546Y480908D01*
X2511050Y485404D02*
X2515546Y489900D01*
X2517044Y485404D02*
X2511050Y485404D01*
D11*
X1517250Y492750D02*
X1482750Y492750D01*
X1482750Y527250D01*
X1517250Y527250D01*
X1517250Y492750D01*
D12*
X1474219Y489900D02*
X1474219Y480908D01*
X1474219Y489900D02*
X1478714Y489900D01*
X1480213Y488401D01*
X1480213Y486902D01*
X1478714Y485404D01*
X1480213Y483905D01*
X1480213Y482407D01*
X1478714Y480908D01*
X1474219Y480908D01*
X1474219Y485404D02*
X1478714Y485404D01*
X1483427Y489900D02*
X1483427Y480908D01*
X1489421Y480908D01*
X1492634Y489900D02*
X1498629Y489900D01*
X1492634Y489900D02*
X1492634Y480908D01*
X1498629Y480908D01*
X1495632Y485404D02*
X1492634Y485404D01*
X1501842Y482407D02*
X1501842Y489900D01*
X1501842Y482407D02*
X1503341Y480908D01*
X1506338Y480908D01*
X1507837Y482407D01*
X1507837Y489900D01*
X1511050Y489900D02*
X1517044Y489900D01*
X1511050Y489900D02*
X1511050Y485404D01*
X1514047Y486902D01*
X1515546Y486902D01*
X1517044Y485404D01*
X1517044Y482407D01*
X1515546Y480908D01*
X1512549Y480908D01*
X1511050Y482407D01*
D11*
X482750Y1642750D02*
X482750Y1677250D01*
X517250Y1677250D01*
X517250Y1642750D01*
X482750Y1642750D01*
X484000Y1644000D02*
X484000Y1646000D01*
X486000Y1646000D01*
X486000Y1644000D01*
X484000Y1644000D01*
X483000Y1674000D02*
X487000Y1674000D01*
X487000Y1677000D01*
X513000Y1674000D02*
X517000Y1674000D01*
X513000Y1674000D02*
X513000Y1677000D01*
D12*
X462261Y1639500D02*
X462261Y1630508D01*
X462261Y1639500D02*
X466757Y1639500D01*
X468255Y1638001D01*
X468255Y1635004D01*
X466757Y1633505D01*
X462261Y1633505D01*
X465258Y1633505D02*
X468255Y1630508D01*
X472967Y1639500D02*
X475964Y1639500D01*
X472967Y1639500D02*
X471469Y1638001D01*
X471469Y1632007D01*
X472967Y1630508D01*
X475964Y1630508D01*
X477463Y1632007D01*
X477463Y1638001D01*
X475964Y1639500D01*
X480676Y1639500D02*
X480676Y1632007D01*
X482175Y1630508D01*
X485172Y1630508D01*
X486671Y1632007D01*
X486671Y1639500D01*
X494380Y1639500D02*
X495879Y1638001D01*
X494380Y1639500D02*
X491383Y1639500D01*
X489884Y1638001D01*
X489884Y1632007D01*
X491383Y1630508D01*
X494380Y1630508D01*
X495879Y1632007D01*
X495879Y1635004D01*
X492882Y1635004D01*
X499092Y1639500D02*
X505087Y1639500D01*
X499092Y1639500D02*
X499092Y1630508D01*
X505087Y1630508D01*
X502089Y1635004D02*
X499092Y1635004D01*
X508300Y1636502D02*
X511297Y1639500D01*
X511297Y1630508D01*
X508300Y1630508D02*
X514294Y1630508D01*
D11*
X1482750Y1642750D02*
X1482750Y1677250D01*
X1517250Y1677250D01*
X1517250Y1642750D01*
X1482750Y1642750D01*
X1484000Y1644000D02*
X1484000Y1646000D01*
X1486000Y1646000D01*
X1486000Y1644000D01*
X1484000Y1644000D01*
X1483000Y1674000D02*
X1487000Y1674000D01*
X1487000Y1677000D01*
X1513000Y1674000D02*
X1517000Y1674000D01*
X1513000Y1674000D02*
X1513000Y1677000D01*
D12*
X1462261Y1639500D02*
X1462261Y1630508D01*
X1462261Y1639500D02*
X1466757Y1639500D01*
X1468255Y1638001D01*
X1468255Y1635004D01*
X1466757Y1633505D01*
X1462261Y1633505D01*
X1465258Y1633505D02*
X1468255Y1630508D01*
X1472967Y1639500D02*
X1475964Y1639500D01*
X1472967Y1639500D02*
X1471469Y1638001D01*
X1471469Y1632007D01*
X1472967Y1630508D01*
X1475964Y1630508D01*
X1477463Y1632007D01*
X1477463Y1638001D01*
X1475964Y1639500D01*
X1480676Y1639500D02*
X1480676Y1632007D01*
X1482175Y1630508D01*
X1485172Y1630508D01*
X1486671Y1632007D01*
X1486671Y1639500D01*
X1494380Y1639500D02*
X1495879Y1638001D01*
X1494380Y1639500D02*
X1491383Y1639500D01*
X1489884Y1638001D01*
X1489884Y1632007D01*
X1491383Y1630508D01*
X1494380Y1630508D01*
X1495879Y1632007D01*
X1495879Y1635004D01*
X1492882Y1635004D01*
X1499092Y1639500D02*
X1505087Y1639500D01*
X1499092Y1639500D02*
X1499092Y1630508D01*
X1505087Y1630508D01*
X1502089Y1635004D02*
X1499092Y1635004D01*
X1508300Y1630508D02*
X1514294Y1630508D01*
X1508300Y1630508D02*
X1514294Y1636502D01*
X1514294Y1638001D01*
X1512796Y1639500D01*
X1509799Y1639500D01*
X1508300Y1638001D01*
D11*
X2482750Y1642750D02*
X2482750Y1677250D01*
X2517250Y1677250D01*
X2517250Y1642750D01*
X2482750Y1642750D01*
X2484000Y1644000D02*
X2484000Y1646000D01*
X2486000Y1646000D01*
X2486000Y1644000D01*
X2484000Y1644000D01*
X2483000Y1674000D02*
X2487000Y1674000D01*
X2487000Y1677000D01*
X2513000Y1674000D02*
X2517000Y1674000D01*
X2513000Y1674000D02*
X2513000Y1677000D01*
D12*
X2462261Y1639500D02*
X2462261Y1630508D01*
X2462261Y1639500D02*
X2466757Y1639500D01*
X2468255Y1638001D01*
X2468255Y1635004D01*
X2466757Y1633505D01*
X2462261Y1633505D01*
X2465258Y1633505D02*
X2468255Y1630508D01*
X2472967Y1639500D02*
X2475964Y1639500D01*
X2472967Y1639500D02*
X2471469Y1638001D01*
X2471469Y1632007D01*
X2472967Y1630508D01*
X2475964Y1630508D01*
X2477463Y1632007D01*
X2477463Y1638001D01*
X2475964Y1639500D01*
X2480676Y1639500D02*
X2480676Y1632007D01*
X2482175Y1630508D01*
X2485172Y1630508D01*
X2486671Y1632007D01*
X2486671Y1639500D01*
X2494380Y1639500D02*
X2495879Y1638001D01*
X2494380Y1639500D02*
X2491383Y1639500D01*
X2489884Y1638001D01*
X2489884Y1632007D01*
X2491383Y1630508D01*
X2494380Y1630508D01*
X2495879Y1632007D01*
X2495879Y1635004D01*
X2492882Y1635004D01*
X2499092Y1639500D02*
X2505087Y1639500D01*
X2499092Y1639500D02*
X2499092Y1630508D01*
X2505087Y1630508D01*
X2502089Y1635004D02*
X2499092Y1635004D01*
X2508300Y1638001D02*
X2509799Y1639500D01*
X2512796Y1639500D01*
X2514294Y1638001D01*
X2514294Y1636502D01*
X2512796Y1635004D01*
X2511297Y1635004D01*
X2512796Y1635004D02*
X2514294Y1633505D01*
X2514294Y1632007D01*
X2512796Y1630508D01*
X2509799Y1630508D01*
X2508300Y1632007D01*
D11*
X2517250Y647250D02*
X2517250Y612750D01*
X2482750Y612750D01*
X2482750Y647250D01*
X2517250Y647250D01*
X2516000Y646000D02*
X2516000Y644000D01*
X2514000Y644000D01*
X2514000Y646000D01*
X2516000Y646000D01*
X2517000Y616000D02*
X2513000Y616000D01*
X2513000Y613000D01*
X2487000Y616000D02*
X2483000Y616000D01*
X2487000Y616000D02*
X2487000Y613000D01*
D12*
X2483508Y650508D02*
X2483508Y659500D01*
X2488004Y659500D01*
X2489502Y658001D01*
X2489502Y655004D01*
X2488004Y653505D01*
X2483508Y653505D01*
X2486505Y653505D02*
X2489502Y650508D01*
X2494214Y659500D02*
X2497212Y659500D01*
X2494214Y659500D02*
X2492716Y658001D01*
X2492716Y652007D01*
X2494214Y650508D01*
X2497212Y650508D01*
X2498710Y652007D01*
X2498710Y658001D01*
X2497212Y659500D01*
X2501924Y659500D02*
X2501924Y652007D01*
X2503422Y650508D01*
X2506420Y650508D01*
X2507918Y652007D01*
X2507918Y659500D01*
X2515627Y659500D02*
X2517126Y658001D01*
X2515627Y659500D02*
X2512630Y659500D01*
X2511132Y658001D01*
X2511132Y652007D01*
X2512630Y650508D01*
X2515627Y650508D01*
X2517126Y652007D01*
X2517126Y655004D01*
X2514129Y655004D01*
X2520339Y659500D02*
X2526334Y659500D01*
X2520339Y659500D02*
X2520339Y650508D01*
X2526334Y650508D01*
X2523337Y655004D02*
X2520339Y655004D01*
X2534043Y650508D02*
X2534043Y659500D01*
X2529547Y655004D01*
X2535542Y655004D01*
D11*
X1517250Y647250D02*
X1517250Y612750D01*
X1482750Y612750D01*
X1482750Y647250D01*
X1517250Y647250D01*
X1516000Y646000D02*
X1516000Y644000D01*
X1514000Y644000D01*
X1514000Y646000D01*
X1516000Y646000D01*
X1517000Y616000D02*
X1513000Y616000D01*
X1513000Y613000D01*
X1487000Y616000D02*
X1483000Y616000D01*
X1487000Y616000D02*
X1487000Y613000D01*
D12*
X1483508Y650508D02*
X1483508Y659500D01*
X1488004Y659500D01*
X1489502Y658001D01*
X1489502Y655004D01*
X1488004Y653505D01*
X1483508Y653505D01*
X1486505Y653505D02*
X1489502Y650508D01*
X1494214Y659500D02*
X1497212Y659500D01*
X1494214Y659500D02*
X1492716Y658001D01*
X1492716Y652007D01*
X1494214Y650508D01*
X1497212Y650508D01*
X1498710Y652007D01*
X1498710Y658001D01*
X1497212Y659500D01*
X1501924Y659500D02*
X1501924Y652007D01*
X1503422Y650508D01*
X1506420Y650508D01*
X1507918Y652007D01*
X1507918Y659500D01*
X1515627Y659500D02*
X1517126Y658001D01*
X1515627Y659500D02*
X1512630Y659500D01*
X1511132Y658001D01*
X1511132Y652007D01*
X1512630Y650508D01*
X1515627Y650508D01*
X1517126Y652007D01*
X1517126Y655004D01*
X1514129Y655004D01*
X1520339Y659500D02*
X1526334Y659500D01*
X1520339Y659500D02*
X1520339Y650508D01*
X1526334Y650508D01*
X1523337Y655004D02*
X1520339Y655004D01*
X1529547Y659500D02*
X1535542Y659500D01*
X1529547Y659500D02*
X1529547Y655004D01*
X1532544Y656502D01*
X1534043Y656502D01*
X1535542Y655004D01*
X1535542Y652007D01*
X1534043Y650508D01*
X1531046Y650508D01*
X1529547Y652007D01*
D11*
X517250Y647250D02*
X517250Y612750D01*
X482750Y612750D01*
X482750Y647250D01*
X517250Y647250D01*
X516000Y646000D02*
X516000Y644000D01*
X514000Y644000D01*
X514000Y646000D01*
X516000Y646000D01*
X517000Y616000D02*
X513000Y616000D01*
X513000Y613000D01*
X487000Y616000D02*
X483000Y616000D01*
X487000Y616000D02*
X487000Y613000D01*
D12*
X483508Y650508D02*
X483508Y659500D01*
X488004Y659500D01*
X489502Y658001D01*
X489502Y655004D01*
X488004Y653505D01*
X483508Y653505D01*
X486505Y653505D02*
X489502Y650508D01*
X494214Y659500D02*
X497212Y659500D01*
X494214Y659500D02*
X492716Y658001D01*
X492716Y652007D01*
X494214Y650508D01*
X497212Y650508D01*
X498710Y652007D01*
X498710Y658001D01*
X497212Y659500D01*
X501924Y659500D02*
X501924Y652007D01*
X503422Y650508D01*
X506420Y650508D01*
X507918Y652007D01*
X507918Y659500D01*
X515627Y659500D02*
X517126Y658001D01*
X515627Y659500D02*
X512630Y659500D01*
X511132Y658001D01*
X511132Y652007D01*
X512630Y650508D01*
X515627Y650508D01*
X517126Y652007D01*
X517126Y655004D01*
X514129Y655004D01*
X520339Y659500D02*
X526334Y659500D01*
X520339Y659500D02*
X520339Y650508D01*
X526334Y650508D01*
X523337Y655004D02*
X520339Y655004D01*
X532544Y658001D02*
X535542Y659500D01*
X532544Y658001D02*
X529547Y655004D01*
X529547Y652007D01*
X531046Y650508D01*
X534043Y650508D01*
X535542Y652007D01*
X535542Y653505D01*
X534043Y655004D01*
X529547Y655004D01*
D11*
X1425000Y1155000D02*
X1455000Y1155000D01*
X1455000Y1125000D01*
X1425000Y1125000D01*
X1425000Y1155000D01*
D12*
X1420492Y1126508D02*
X1411500Y1126508D01*
X1411500Y1131004D01*
X1412999Y1132502D01*
X1414498Y1132502D01*
X1415996Y1131004D01*
X1417495Y1132502D01*
X1418993Y1132502D01*
X1420492Y1131004D01*
X1420492Y1126508D01*
X1415996Y1126508D02*
X1415996Y1131004D01*
X1411500Y1135716D02*
X1420492Y1135716D01*
X1420492Y1141710D01*
X1420492Y1144924D02*
X1414498Y1144924D01*
X1411500Y1147921D01*
X1414498Y1150918D01*
X1420492Y1150918D01*
X1415996Y1150918D02*
X1415996Y1144924D01*
X1420492Y1154132D02*
X1411500Y1154132D01*
X1420492Y1160126D01*
X1411500Y1160126D01*
X1411500Y1167835D02*
X1412999Y1169334D01*
X1411500Y1167835D02*
X1411500Y1164838D01*
X1412999Y1163339D01*
X1418993Y1163339D01*
X1420492Y1164838D01*
X1420492Y1167835D01*
X1418993Y1169334D01*
X1414498Y1172547D02*
X1411500Y1175544D01*
X1420492Y1175544D01*
X1420492Y1172547D02*
X1420492Y1178542D01*
D11*
X517250Y492750D02*
X482750Y492750D01*
X482750Y527250D01*
X517250Y527250D01*
X517250Y492750D01*
D12*
X474219Y489900D02*
X474219Y480908D01*
X474219Y489900D02*
X478714Y489900D01*
X480213Y488401D01*
X480213Y486902D01*
X478714Y485404D01*
X480213Y483905D01*
X480213Y482407D01*
X478714Y480908D01*
X474219Y480908D01*
X474219Y485404D02*
X478714Y485404D01*
X483427Y489900D02*
X483427Y480908D01*
X489421Y480908D01*
X492634Y489900D02*
X498629Y489900D01*
X492634Y489900D02*
X492634Y480908D01*
X498629Y480908D01*
X495632Y485404D02*
X492634Y485404D01*
X501842Y482407D02*
X501842Y489900D01*
X501842Y482407D02*
X503341Y480908D01*
X506338Y480908D01*
X507837Y482407D01*
X507837Y489900D01*
X514047Y488401D02*
X517044Y489900D01*
X514047Y488401D02*
X511050Y485404D01*
X511050Y482407D01*
X512549Y480908D01*
X515546Y480908D01*
X517044Y482407D01*
X517044Y483905D01*
X515546Y485404D01*
X511050Y485404D01*
D13*
X210471Y891196D02*
X205975Y891196D01*
X205975Y893444D01*
X206724Y894193D01*
X208223Y894193D01*
X208972Y893444D01*
X208972Y891196D01*
X208972Y892695D02*
X210471Y894193D01*
X209722Y895800D02*
X210471Y896549D01*
X210471Y898048D01*
X209722Y898797D01*
X206724Y898797D01*
X205975Y898048D01*
X205975Y896549D01*
X206724Y895800D01*
X207474Y895800D01*
X208223Y896549D01*
X208223Y898797D01*
D14*
X196280Y931600D02*
X196280Y947800D01*
X224720Y943800D02*
X224720Y931600D01*
X215720Y931600D02*
X205280Y931600D01*
X214780Y947800D02*
X215720Y947800D01*
X206220Y947800D02*
X205280Y947800D01*
X220780Y947800D02*
X224720Y943800D01*
X197220Y947800D02*
X196280Y947800D01*
X196280Y931600D02*
X197220Y931600D01*
X223780Y931600D02*
X224720Y931600D01*
D15*
X227500Y949700D02*
X227502Y949763D01*
X227508Y949825D01*
X227518Y949887D01*
X227531Y949949D01*
X227549Y950009D01*
X227570Y950068D01*
X227595Y950126D01*
X227624Y950182D01*
X227656Y950236D01*
X227691Y950288D01*
X227729Y950337D01*
X227771Y950385D01*
X227815Y950429D01*
X227863Y950471D01*
X227912Y950509D01*
X227964Y950544D01*
X228018Y950576D01*
X228074Y950605D01*
X228132Y950630D01*
X228191Y950651D01*
X228251Y950669D01*
X228313Y950682D01*
X228375Y950692D01*
X228437Y950698D01*
X228500Y950700D01*
X228563Y950698D01*
X228625Y950692D01*
X228687Y950682D01*
X228749Y950669D01*
X228809Y950651D01*
X228868Y950630D01*
X228926Y950605D01*
X228982Y950576D01*
X229036Y950544D01*
X229088Y950509D01*
X229137Y950471D01*
X229185Y950429D01*
X229229Y950385D01*
X229271Y950337D01*
X229309Y950288D01*
X229344Y950236D01*
X229376Y950182D01*
X229405Y950126D01*
X229430Y950068D01*
X229451Y950009D01*
X229469Y949949D01*
X229482Y949887D01*
X229492Y949825D01*
X229498Y949763D01*
X229500Y949700D01*
X229498Y949637D01*
X229492Y949575D01*
X229482Y949513D01*
X229469Y949451D01*
X229451Y949391D01*
X229430Y949332D01*
X229405Y949274D01*
X229376Y949218D01*
X229344Y949164D01*
X229309Y949112D01*
X229271Y949063D01*
X229229Y949015D01*
X229185Y948971D01*
X229137Y948929D01*
X229088Y948891D01*
X229036Y948856D01*
X228982Y948824D01*
X228926Y948795D01*
X228868Y948770D01*
X228809Y948749D01*
X228749Y948731D01*
X228687Y948718D01*
X228625Y948708D01*
X228563Y948702D01*
X228500Y948700D01*
X228437Y948702D01*
X228375Y948708D01*
X228313Y948718D01*
X228251Y948731D01*
X228191Y948749D01*
X228132Y948770D01*
X228074Y948795D01*
X228018Y948824D01*
X227964Y948856D01*
X227912Y948891D01*
X227863Y948929D01*
X227815Y948971D01*
X227771Y949015D01*
X227729Y949063D01*
X227691Y949112D01*
X227656Y949164D01*
X227624Y949218D01*
X227595Y949274D01*
X227570Y949332D01*
X227549Y949391D01*
X227531Y949451D01*
X227518Y949513D01*
X227508Y949575D01*
X227502Y949637D01*
X227500Y949700D01*
D12*
X202772Y908458D02*
X198874Y908458D01*
X200823Y908458D02*
X200823Y920152D01*
X198874Y920152D02*
X202772Y920152D01*
X212517Y920152D02*
X214466Y918203D01*
X212517Y920152D02*
X208619Y920152D01*
X206670Y918203D01*
X206670Y910407D01*
X208619Y908458D01*
X212517Y908458D01*
X214466Y910407D01*
X218364Y920152D02*
X226160Y920152D01*
X218364Y920152D02*
X218364Y914305D01*
X222262Y916254D01*
X224211Y916254D01*
X226160Y914305D01*
X226160Y910407D01*
X224211Y908458D01*
X220313Y908458D01*
X218364Y910407D01*
D13*
X189164Y902831D02*
X188415Y903580D01*
X186917Y903580D01*
X186167Y902831D01*
X186167Y899833D01*
X186917Y899084D01*
X188415Y899084D01*
X189164Y899833D01*
X190771Y902831D02*
X191520Y903580D01*
X193019Y903580D01*
X193768Y902831D01*
X193768Y902081D01*
X193019Y901332D01*
X192270Y901332D01*
X193019Y901332D02*
X193768Y900583D01*
X193768Y899833D01*
X193019Y899084D01*
X191520Y899084D01*
X190771Y899833D01*
X195375Y899084D02*
X198372Y899084D01*
X195375Y899084D02*
X198372Y902081D01*
X198372Y902831D01*
X197623Y903580D01*
X196124Y903580D01*
X195375Y902831D01*
X231990Y874330D02*
X232739Y873581D01*
X231990Y874330D02*
X230492Y874330D01*
X229742Y873581D01*
X229742Y870583D01*
X230492Y869834D01*
X231990Y869834D01*
X232739Y870583D01*
X234346Y873581D02*
X235095Y874330D01*
X236594Y874330D01*
X237343Y873581D01*
X237343Y872831D01*
X236594Y872082D01*
X235845Y872082D01*
X236594Y872082D02*
X237343Y871333D01*
X237343Y870583D01*
X236594Y869834D01*
X235095Y869834D01*
X234346Y870583D01*
X238950Y873581D02*
X239699Y874330D01*
X241198Y874330D01*
X241947Y873581D01*
X241947Y872831D01*
X241198Y872082D01*
X240449Y872082D01*
X241198Y872082D02*
X241947Y871333D01*
X241947Y870583D01*
X241198Y869834D01*
X239699Y869834D01*
X238950Y870583D01*
X192250Y952665D02*
X192999Y953414D01*
X192250Y952665D02*
X192250Y951167D01*
X192999Y950417D01*
X195997Y950417D01*
X196746Y951167D01*
X196746Y952665D01*
X195997Y953414D01*
X192999Y955021D02*
X192250Y955770D01*
X192250Y957269D01*
X192999Y958018D01*
X193749Y958018D01*
X194498Y957269D01*
X194498Y956520D01*
X194498Y957269D02*
X195247Y958018D01*
X195997Y958018D01*
X196746Y957269D01*
X196746Y955770D01*
X195997Y955021D01*
X196746Y961873D02*
X192250Y961873D01*
X194498Y959625D01*
X194498Y962622D01*
D12*
X176997Y944472D02*
X175048Y942523D01*
X175048Y938625D01*
X176997Y936676D01*
X184793Y936676D01*
X186742Y938625D01*
X186742Y942523D01*
X184793Y944472D01*
X176997Y948370D02*
X175048Y950319D01*
X175048Y954217D01*
X176997Y956166D01*
X178946Y956166D01*
X180895Y954217D01*
X180895Y952268D01*
X180895Y954217D02*
X182844Y956166D01*
X184793Y956166D01*
X186742Y954217D01*
X186742Y950319D01*
X184793Y948370D01*
X175048Y960064D02*
X175048Y967860D01*
X175048Y960064D02*
X180895Y960064D01*
X178946Y963962D01*
X178946Y965911D01*
X180895Y967860D01*
X184793Y967860D01*
X186742Y965911D01*
X186742Y962013D01*
X184793Y960064D01*
D16*
X104500Y969700D02*
X104500Y934700D01*
X76500Y934700D01*
X76500Y969700D01*
X104500Y969700D01*
X90500Y967200D02*
X90500Y962200D01*
X93000Y964700D02*
X88000Y964700D01*
X88000Y939700D02*
X93000Y939700D01*
D17*
X109923Y948268D02*
X111491Y949836D01*
X109923Y948268D02*
X109923Y945133D01*
X111491Y943565D01*
X117761Y943565D01*
X119329Y945133D01*
X119329Y948268D01*
X117761Y949836D01*
X111491Y952921D02*
X109923Y954488D01*
X109923Y957624D01*
X111491Y959191D01*
X113058Y959191D01*
X114626Y957624D01*
X114626Y956056D01*
X114626Y957624D02*
X116194Y959191D01*
X117761Y959191D01*
X119329Y957624D01*
X119329Y954488D01*
X117761Y952921D01*
X111491Y965411D02*
X109923Y968547D01*
X111491Y965411D02*
X114626Y962276D01*
X117761Y962276D01*
X119329Y963843D01*
X119329Y966979D01*
X117761Y968547D01*
X116194Y968547D01*
X114626Y966979D01*
X114626Y962276D01*
D12*
X276273Y927123D02*
X278222Y929072D01*
X276273Y927123D02*
X276273Y923225D01*
X278222Y921276D01*
X286018Y921276D01*
X287967Y923225D01*
X287967Y927123D01*
X286018Y929072D01*
X278222Y932970D02*
X276273Y934919D01*
X276273Y938817D01*
X278222Y940766D01*
X280171Y940766D01*
X282120Y938817D01*
X282120Y936868D01*
X282120Y938817D02*
X284069Y940766D01*
X286018Y940766D01*
X287967Y938817D01*
X287967Y934919D01*
X286018Y932970D01*
X276273Y944664D02*
X276273Y952460D01*
X278222Y952460D01*
X286018Y944664D01*
X287967Y944664D01*
X306273Y927123D02*
X308222Y929072D01*
X306273Y927123D02*
X306273Y923225D01*
X308222Y921276D01*
X316018Y921276D01*
X317967Y923225D01*
X317967Y927123D01*
X316018Y929072D01*
X308222Y932970D02*
X306273Y934919D01*
X306273Y938817D01*
X308222Y940766D01*
X310171Y940766D01*
X312120Y938817D01*
X312120Y936868D01*
X312120Y938817D02*
X314069Y940766D01*
X316018Y940766D01*
X317967Y938817D01*
X317967Y934919D01*
X316018Y932970D01*
X308222Y944664D02*
X306273Y946613D01*
X306273Y950511D01*
X308222Y952460D01*
X310171Y952460D01*
X312120Y950511D01*
X314069Y952460D01*
X316018Y952460D01*
X317967Y950511D01*
X317967Y946613D01*
X316018Y944664D01*
X314069Y944664D01*
X312120Y946613D01*
X310171Y944664D01*
X308222Y944664D01*
X312120Y946613D02*
X312120Y950511D01*
X235683Y926702D02*
X235683Y915008D01*
X235683Y926702D02*
X241530Y926702D01*
X243479Y924753D01*
X243479Y920855D01*
X241530Y918906D01*
X235683Y918906D01*
X239581Y918906D02*
X243479Y915008D01*
X247377Y922804D02*
X251275Y926702D01*
X251275Y915008D01*
X247377Y915008D02*
X255173Y915008D01*
X259071Y916957D02*
X259071Y924753D01*
X261020Y926702D01*
X264918Y926702D01*
X266867Y924753D01*
X266867Y916957D01*
X264918Y915008D01*
X261020Y915008D01*
X259071Y916957D01*
X266867Y924753D01*
D18*
X215500Y964700D02*
X215500Y1064700D01*
X315500Y1064700D01*
X315500Y964700D01*
X215500Y964700D01*
D12*
X267592Y958200D02*
X267592Y949208D01*
X273587Y949208D01*
X276800Y958200D02*
X282795Y958200D01*
X276800Y958200D02*
X276800Y953704D01*
X279797Y955202D01*
X281296Y955202D01*
X282795Y953704D01*
X282795Y950707D01*
X281296Y949208D01*
X278299Y949208D01*
X276800Y950707D01*
X144497Y944472D02*
X142548Y942523D01*
X142548Y938625D01*
X144497Y936676D01*
X152293Y936676D01*
X154242Y938625D01*
X154242Y942523D01*
X152293Y944472D01*
X144497Y948370D02*
X142548Y950319D01*
X142548Y954217D01*
X144497Y956166D01*
X146446Y956166D01*
X148395Y954217D01*
X148395Y952268D01*
X148395Y954217D02*
X150344Y956166D01*
X152293Y956166D01*
X154242Y954217D01*
X154242Y950319D01*
X152293Y948370D01*
X152293Y960064D02*
X154242Y962013D01*
X154242Y965911D01*
X152293Y967860D01*
X144497Y967860D01*
X142548Y965911D01*
X142548Y962013D01*
X144497Y960064D01*
X146446Y960064D01*
X148395Y962013D01*
X148395Y967860D01*
X336273Y927123D02*
X338222Y929072D01*
X336273Y927123D02*
X336273Y923225D01*
X338222Y921276D01*
X346018Y921276D01*
X347967Y923225D01*
X347967Y927123D01*
X346018Y929072D01*
X347967Y938817D02*
X336273Y938817D01*
X342120Y932970D01*
X342120Y940766D01*
X346018Y944664D02*
X338222Y944664D01*
X336273Y946613D01*
X336273Y950511D01*
X338222Y952460D01*
X346018Y952460D01*
X347967Y950511D01*
X347967Y946613D01*
X346018Y944664D01*
X338222Y952460D01*
X366273Y927123D02*
X368222Y929072D01*
X366273Y927123D02*
X366273Y923225D01*
X368222Y921276D01*
X376018Y921276D01*
X377967Y923225D01*
X377967Y927123D01*
X376018Y929072D01*
X377967Y938817D02*
X366273Y938817D01*
X372120Y932970D01*
X372120Y940766D01*
X370171Y944664D02*
X366273Y948562D01*
X377967Y948562D01*
X377967Y944664D02*
X377967Y952460D01*
D13*
X208271Y461196D02*
X203775Y461196D01*
X203775Y463444D01*
X204524Y464193D01*
X206023Y464193D01*
X206772Y463444D01*
X206772Y461196D01*
X206772Y462695D02*
X208271Y464193D01*
X205274Y465800D02*
X203775Y467299D01*
X208271Y467299D01*
X208271Y468797D02*
X208271Y465800D01*
D14*
X196580Y501600D02*
X196580Y517800D01*
X225020Y513800D02*
X225020Y501600D01*
X216020Y501600D02*
X205580Y501600D01*
X215080Y517800D02*
X216020Y517800D01*
X206520Y517800D02*
X205580Y517800D01*
X221080Y517800D02*
X225020Y513800D01*
X197520Y517800D02*
X196580Y517800D01*
X196580Y501600D02*
X197520Y501600D01*
X224080Y501600D02*
X225020Y501600D01*
D15*
X227800Y519700D02*
X227802Y519763D01*
X227808Y519825D01*
X227818Y519887D01*
X227831Y519949D01*
X227849Y520009D01*
X227870Y520068D01*
X227895Y520126D01*
X227924Y520182D01*
X227956Y520236D01*
X227991Y520288D01*
X228029Y520337D01*
X228071Y520385D01*
X228115Y520429D01*
X228163Y520471D01*
X228212Y520509D01*
X228264Y520544D01*
X228318Y520576D01*
X228374Y520605D01*
X228432Y520630D01*
X228491Y520651D01*
X228551Y520669D01*
X228613Y520682D01*
X228675Y520692D01*
X228737Y520698D01*
X228800Y520700D01*
X228863Y520698D01*
X228925Y520692D01*
X228987Y520682D01*
X229049Y520669D01*
X229109Y520651D01*
X229168Y520630D01*
X229226Y520605D01*
X229282Y520576D01*
X229336Y520544D01*
X229388Y520509D01*
X229437Y520471D01*
X229485Y520429D01*
X229529Y520385D01*
X229571Y520337D01*
X229609Y520288D01*
X229644Y520236D01*
X229676Y520182D01*
X229705Y520126D01*
X229730Y520068D01*
X229751Y520009D01*
X229769Y519949D01*
X229782Y519887D01*
X229792Y519825D01*
X229798Y519763D01*
X229800Y519700D01*
X229798Y519637D01*
X229792Y519575D01*
X229782Y519513D01*
X229769Y519451D01*
X229751Y519391D01*
X229730Y519332D01*
X229705Y519274D01*
X229676Y519218D01*
X229644Y519164D01*
X229609Y519112D01*
X229571Y519063D01*
X229529Y519015D01*
X229485Y518971D01*
X229437Y518929D01*
X229388Y518891D01*
X229336Y518856D01*
X229282Y518824D01*
X229226Y518795D01*
X229168Y518770D01*
X229109Y518749D01*
X229049Y518731D01*
X228987Y518718D01*
X228925Y518708D01*
X228863Y518702D01*
X228800Y518700D01*
X228737Y518702D01*
X228675Y518708D01*
X228613Y518718D01*
X228551Y518731D01*
X228491Y518749D01*
X228432Y518770D01*
X228374Y518795D01*
X228318Y518824D01*
X228264Y518856D01*
X228212Y518891D01*
X228163Y518929D01*
X228115Y518971D01*
X228071Y519015D01*
X228029Y519063D01*
X227991Y519112D01*
X227956Y519164D01*
X227924Y519218D01*
X227895Y519274D01*
X227870Y519332D01*
X227849Y519391D01*
X227831Y519451D01*
X227818Y519513D01*
X227808Y519575D01*
X227802Y519637D01*
X227800Y519700D01*
D12*
X203072Y478458D02*
X199174Y478458D01*
X201123Y478458D02*
X201123Y490152D01*
X199174Y490152D02*
X203072Y490152D01*
X212817Y490152D02*
X214766Y488203D01*
X212817Y490152D02*
X208919Y490152D01*
X206970Y488203D01*
X206970Y480407D01*
X208919Y478458D01*
X212817Y478458D01*
X214766Y480407D01*
X218664Y486254D02*
X222562Y490152D01*
X222562Y478458D01*
X218664Y478458D02*
X226460Y478458D01*
D13*
X194068Y472831D02*
X193319Y473580D01*
X191820Y473580D01*
X191071Y472831D01*
X191071Y469833D01*
X191820Y469084D01*
X193319Y469084D01*
X194068Y469833D01*
X195675Y472081D02*
X197174Y473580D01*
X197174Y469084D01*
X198672Y469084D02*
X195675Y469084D01*
X236894Y444330D02*
X237643Y443581D01*
X236894Y444330D02*
X235395Y444330D01*
X234646Y443581D01*
X234646Y440583D01*
X235395Y439834D01*
X236894Y439834D01*
X237643Y440583D01*
X239250Y439834D02*
X242247Y439834D01*
X239250Y439834D02*
X242247Y442831D01*
X242247Y443581D01*
X241498Y444330D01*
X239999Y444330D01*
X239250Y443581D01*
X192550Y527269D02*
X193299Y528018D01*
X192550Y527269D02*
X192550Y525770D01*
X193299Y525021D01*
X196297Y525021D01*
X197046Y525770D01*
X197046Y527269D01*
X196297Y528018D01*
X197046Y531873D02*
X192550Y531873D01*
X194798Y529625D01*
X194798Y532622D01*
D12*
X177297Y526166D02*
X175348Y524217D01*
X175348Y520319D01*
X177297Y518370D01*
X185093Y518370D01*
X187042Y520319D01*
X187042Y524217D01*
X185093Y526166D01*
X175348Y530064D02*
X175348Y537860D01*
X175348Y530064D02*
X181195Y530064D01*
X179246Y533962D01*
X179246Y535911D01*
X181195Y537860D01*
X185093Y537860D01*
X187042Y535911D01*
X187042Y532013D01*
X185093Y530064D01*
D16*
X104800Y539700D02*
X104800Y504700D01*
X76800Y504700D01*
X76800Y539700D01*
X104800Y539700D01*
X90800Y537200D02*
X90800Y532200D01*
X93300Y534700D02*
X88300Y534700D01*
X88300Y509700D02*
X93300Y509700D01*
D17*
X110223Y527624D02*
X111791Y529191D01*
X110223Y527624D02*
X110223Y524488D01*
X111791Y522921D01*
X118061Y522921D01*
X119629Y524488D01*
X119629Y527624D01*
X118061Y529191D01*
X111791Y535411D02*
X110223Y538547D01*
X111791Y535411D02*
X114926Y532276D01*
X118061Y532276D01*
X119629Y533843D01*
X119629Y536979D01*
X118061Y538547D01*
X116494Y538547D01*
X114926Y536979D01*
X114926Y532276D01*
D12*
X276573Y508817D02*
X278522Y510766D01*
X276573Y508817D02*
X276573Y504919D01*
X278522Y502970D01*
X286318Y502970D01*
X288267Y504919D01*
X288267Y508817D01*
X286318Y510766D01*
X276573Y514664D02*
X276573Y522460D01*
X278522Y522460D01*
X286318Y514664D01*
X288267Y514664D01*
X306573Y508817D02*
X308522Y510766D01*
X306573Y508817D02*
X306573Y504919D01*
X308522Y502970D01*
X316318Y502970D01*
X318267Y504919D01*
X318267Y508817D01*
X316318Y510766D01*
X308522Y514664D02*
X306573Y516613D01*
X306573Y520511D01*
X308522Y522460D01*
X310471Y522460D01*
X312420Y520511D01*
X312420Y518562D01*
X312420Y520511D02*
X314369Y522460D01*
X316318Y522460D01*
X318267Y520511D01*
X318267Y516613D01*
X316318Y514664D01*
X235983Y496702D02*
X235983Y485008D01*
X235983Y496702D02*
X241830Y496702D01*
X243779Y494753D01*
X243779Y490855D01*
X241830Y488906D01*
X235983Y488906D01*
X239881Y488906D02*
X243779Y485008D01*
X247677Y485008D02*
X255473Y485008D01*
X247677Y485008D02*
X255473Y492804D01*
X255473Y494753D01*
X253524Y496702D01*
X249626Y496702D01*
X247677Y494753D01*
D18*
X215800Y534700D02*
X215800Y634700D01*
X315800Y634700D01*
X315800Y534700D01*
X215800Y534700D01*
D12*
X267892Y528200D02*
X267892Y519208D01*
X273887Y519208D01*
X277100Y525202D02*
X280097Y528200D01*
X280097Y519208D01*
X277100Y519208D02*
X283095Y519208D01*
X144797Y514472D02*
X142848Y512523D01*
X142848Y508625D01*
X144797Y506676D01*
X152593Y506676D01*
X154542Y508625D01*
X154542Y512523D01*
X152593Y514472D01*
X154542Y518370D02*
X154542Y526166D01*
X154542Y518370D02*
X146746Y526166D01*
X144797Y526166D01*
X142848Y524217D01*
X142848Y520319D01*
X144797Y518370D01*
X152593Y530064D02*
X154542Y532013D01*
X154542Y535911D01*
X152593Y537860D01*
X144797Y537860D01*
X142848Y535911D01*
X142848Y532013D01*
X144797Y530064D01*
X146746Y530064D01*
X148695Y532013D01*
X148695Y537860D01*
X336573Y497123D02*
X338522Y499072D01*
X336573Y497123D02*
X336573Y493225D01*
X338522Y491276D01*
X346318Y491276D01*
X348267Y493225D01*
X348267Y497123D01*
X346318Y499072D01*
X338522Y502970D02*
X336573Y504919D01*
X336573Y508817D01*
X338522Y510766D01*
X340471Y510766D01*
X342420Y508817D01*
X342420Y506868D01*
X342420Y508817D02*
X344369Y510766D01*
X346318Y510766D01*
X348267Y508817D01*
X348267Y504919D01*
X346318Y502970D01*
X346318Y514664D02*
X338522Y514664D01*
X336573Y516613D01*
X336573Y520511D01*
X338522Y522460D01*
X346318Y522460D01*
X348267Y520511D01*
X348267Y516613D01*
X346318Y514664D01*
X338522Y522460D01*
X366573Y497123D02*
X368522Y499072D01*
X366573Y497123D02*
X366573Y493225D01*
X368522Y491276D01*
X376318Y491276D01*
X378267Y493225D01*
X378267Y497123D01*
X376318Y499072D01*
X368522Y502970D02*
X366573Y504919D01*
X366573Y508817D01*
X368522Y510766D01*
X370471Y510766D01*
X372420Y508817D01*
X372420Y506868D01*
X372420Y508817D02*
X374369Y510766D01*
X376318Y510766D01*
X378267Y508817D01*
X378267Y504919D01*
X376318Y502970D01*
X370471Y514664D02*
X366573Y518562D01*
X378267Y518562D01*
X378267Y514664D02*
X378267Y522460D01*
D13*
X211071Y671196D02*
X206575Y671196D01*
X206575Y673444D01*
X207324Y674193D01*
X208823Y674193D01*
X209572Y673444D01*
X209572Y671196D01*
X209572Y672695D02*
X211071Y674193D01*
X207324Y675800D02*
X206575Y676549D01*
X206575Y678048D01*
X207324Y678797D01*
X208074Y678797D01*
X208823Y678048D01*
X208823Y677299D01*
X208823Y678048D02*
X209572Y678797D01*
X210322Y678797D01*
X211071Y678048D01*
X211071Y676549D01*
X210322Y675800D01*
D14*
X196880Y711600D02*
X196880Y727800D01*
X225320Y723800D02*
X225320Y711600D01*
X216320Y711600D02*
X205880Y711600D01*
X215380Y727800D02*
X216320Y727800D01*
X206820Y727800D02*
X205880Y727800D01*
X221380Y727800D02*
X225320Y723800D01*
X197820Y727800D02*
X196880Y727800D01*
X196880Y711600D02*
X197820Y711600D01*
X224380Y711600D02*
X225320Y711600D01*
D15*
X228100Y729700D02*
X228102Y729763D01*
X228108Y729825D01*
X228118Y729887D01*
X228131Y729949D01*
X228149Y730009D01*
X228170Y730068D01*
X228195Y730126D01*
X228224Y730182D01*
X228256Y730236D01*
X228291Y730288D01*
X228329Y730337D01*
X228371Y730385D01*
X228415Y730429D01*
X228463Y730471D01*
X228512Y730509D01*
X228564Y730544D01*
X228618Y730576D01*
X228674Y730605D01*
X228732Y730630D01*
X228791Y730651D01*
X228851Y730669D01*
X228913Y730682D01*
X228975Y730692D01*
X229037Y730698D01*
X229100Y730700D01*
X229163Y730698D01*
X229225Y730692D01*
X229287Y730682D01*
X229349Y730669D01*
X229409Y730651D01*
X229468Y730630D01*
X229526Y730605D01*
X229582Y730576D01*
X229636Y730544D01*
X229688Y730509D01*
X229737Y730471D01*
X229785Y730429D01*
X229829Y730385D01*
X229871Y730337D01*
X229909Y730288D01*
X229944Y730236D01*
X229976Y730182D01*
X230005Y730126D01*
X230030Y730068D01*
X230051Y730009D01*
X230069Y729949D01*
X230082Y729887D01*
X230092Y729825D01*
X230098Y729763D01*
X230100Y729700D01*
X230098Y729637D01*
X230092Y729575D01*
X230082Y729513D01*
X230069Y729451D01*
X230051Y729391D01*
X230030Y729332D01*
X230005Y729274D01*
X229976Y729218D01*
X229944Y729164D01*
X229909Y729112D01*
X229871Y729063D01*
X229829Y729015D01*
X229785Y728971D01*
X229737Y728929D01*
X229688Y728891D01*
X229636Y728856D01*
X229582Y728824D01*
X229526Y728795D01*
X229468Y728770D01*
X229409Y728749D01*
X229349Y728731D01*
X229287Y728718D01*
X229225Y728708D01*
X229163Y728702D01*
X229100Y728700D01*
X229037Y728702D01*
X228975Y728708D01*
X228913Y728718D01*
X228851Y728731D01*
X228791Y728749D01*
X228732Y728770D01*
X228674Y728795D01*
X228618Y728824D01*
X228564Y728856D01*
X228512Y728891D01*
X228463Y728929D01*
X228415Y728971D01*
X228371Y729015D01*
X228329Y729063D01*
X228291Y729112D01*
X228256Y729164D01*
X228224Y729218D01*
X228195Y729274D01*
X228170Y729332D01*
X228149Y729391D01*
X228131Y729451D01*
X228118Y729513D01*
X228108Y729575D01*
X228102Y729637D01*
X228100Y729700D01*
D12*
X203372Y688458D02*
X199474Y688458D01*
X201423Y688458D02*
X201423Y700152D01*
X199474Y700152D02*
X203372Y700152D01*
X213117Y700152D02*
X215066Y698203D01*
X213117Y700152D02*
X209219Y700152D01*
X207270Y698203D01*
X207270Y690407D01*
X209219Y688458D01*
X213117Y688458D01*
X215066Y690407D01*
X218964Y688458D02*
X226760Y688458D01*
X218964Y688458D02*
X226760Y696254D01*
X226760Y698203D01*
X224811Y700152D01*
X220913Y700152D01*
X218964Y698203D01*
D13*
X196868Y682831D02*
X196119Y683580D01*
X194620Y683580D01*
X193871Y682831D01*
X193871Y679833D01*
X194620Y679084D01*
X196119Y679084D01*
X196868Y679833D01*
X198475Y682831D02*
X199224Y683580D01*
X200723Y683580D01*
X201472Y682831D01*
X201472Y682081D01*
X200723Y681332D01*
X201472Y680583D01*
X201472Y679833D01*
X200723Y679084D01*
X199224Y679084D01*
X198475Y679833D01*
X198475Y680583D01*
X199224Y681332D01*
X198475Y682081D01*
X198475Y682831D01*
X199224Y681332D02*
X200723Y681332D01*
X237194Y654330D02*
X237943Y653581D01*
X237194Y654330D02*
X235695Y654330D01*
X234946Y653581D01*
X234946Y650583D01*
X235695Y649834D01*
X237194Y649834D01*
X237943Y650583D01*
X239550Y650583D02*
X240299Y649834D01*
X241798Y649834D01*
X242547Y650583D01*
X242547Y653581D01*
X241798Y654330D01*
X240299Y654330D01*
X239550Y653581D01*
X239550Y652831D01*
X240299Y652082D01*
X242547Y652082D01*
X192850Y732665D02*
X193599Y733414D01*
X192850Y732665D02*
X192850Y731167D01*
X193599Y730417D01*
X196597Y730417D01*
X197346Y731167D01*
X197346Y732665D01*
X196597Y733414D01*
X194349Y735021D02*
X192850Y736520D01*
X197346Y736520D01*
X197346Y738018D02*
X197346Y735021D01*
X196597Y739625D02*
X193599Y739625D01*
X192850Y740374D01*
X192850Y741873D01*
X193599Y742622D01*
X196597Y742622D01*
X197346Y741873D01*
X197346Y740374D01*
X196597Y739625D01*
X193599Y742622D01*
D12*
X177597Y724472D02*
X175648Y722523D01*
X175648Y718625D01*
X177597Y716676D01*
X185393Y716676D01*
X187342Y718625D01*
X187342Y722523D01*
X185393Y724472D01*
X179546Y728370D02*
X175648Y732268D01*
X187342Y732268D01*
X187342Y728370D02*
X187342Y736166D01*
X179546Y740064D02*
X175648Y743962D01*
X187342Y743962D01*
X187342Y740064D02*
X187342Y747860D01*
D16*
X105100Y749700D02*
X105100Y714700D01*
X77100Y714700D01*
X77100Y749700D01*
X105100Y749700D01*
X91100Y747200D02*
X91100Y742200D01*
X93600Y744700D02*
X88600Y744700D01*
X88600Y719700D02*
X93600Y719700D01*
D17*
X110523Y728268D02*
X112091Y729836D01*
X110523Y728268D02*
X110523Y725133D01*
X112091Y723565D01*
X118361Y723565D01*
X119929Y725133D01*
X119929Y728268D01*
X118361Y729836D01*
X113658Y732921D02*
X110523Y736056D01*
X119929Y736056D01*
X119929Y732921D02*
X119929Y739191D01*
X119929Y742276D02*
X119929Y748547D01*
X119929Y742276D02*
X113658Y748547D01*
X112091Y748547D01*
X110523Y746979D01*
X110523Y743843D01*
X112091Y742276D01*
D12*
X276873Y707123D02*
X278822Y709072D01*
X276873Y707123D02*
X276873Y703225D01*
X278822Y701276D01*
X286618Y701276D01*
X288567Y703225D01*
X288567Y707123D01*
X286618Y709072D01*
X280771Y712970D02*
X276873Y716868D01*
X288567Y716868D01*
X288567Y712970D02*
X288567Y720766D01*
X278822Y724664D02*
X276873Y726613D01*
X276873Y730511D01*
X278822Y732460D01*
X280771Y732460D01*
X282720Y730511D01*
X282720Y728562D01*
X282720Y730511D02*
X284669Y732460D01*
X286618Y732460D01*
X288567Y730511D01*
X288567Y726613D01*
X286618Y724664D01*
X306873Y707123D02*
X308822Y709072D01*
X306873Y707123D02*
X306873Y703225D01*
X308822Y701276D01*
X316618Y701276D01*
X318567Y703225D01*
X318567Y707123D01*
X316618Y709072D01*
X310771Y712970D02*
X306873Y716868D01*
X318567Y716868D01*
X318567Y712970D02*
X318567Y720766D01*
X318567Y730511D02*
X306873Y730511D01*
X312720Y724664D01*
X312720Y732460D01*
X236283Y706702D02*
X236283Y695008D01*
X236283Y706702D02*
X242130Y706702D01*
X244079Y704753D01*
X244079Y700855D01*
X242130Y698906D01*
X236283Y698906D01*
X240181Y698906D02*
X244079Y695008D01*
X253824Y695008D02*
X253824Y706702D01*
X247977Y700855D01*
X255773Y700855D01*
D18*
X216100Y744700D02*
X216100Y844700D01*
X316100Y844700D01*
X316100Y744700D01*
X216100Y744700D01*
D12*
X268192Y738200D02*
X268192Y729208D01*
X274187Y729208D01*
X277400Y729208D02*
X283395Y729208D01*
X283395Y735202D02*
X277400Y729208D01*
X283395Y735202D02*
X283395Y736701D01*
X281896Y738200D01*
X278899Y738200D01*
X277400Y736701D01*
X145097Y724472D02*
X143148Y722523D01*
X143148Y718625D01*
X145097Y716676D01*
X152893Y716676D01*
X154842Y718625D01*
X154842Y722523D01*
X152893Y724472D01*
X154842Y734217D02*
X143148Y734217D01*
X148995Y728370D01*
X148995Y736166D01*
X154842Y740064D02*
X154842Y747860D01*
X154842Y740064D02*
X147046Y747860D01*
X145097Y747860D01*
X143148Y745911D01*
X143148Y742013D01*
X145097Y740064D01*
X336873Y707123D02*
X338822Y709072D01*
X336873Y707123D02*
X336873Y703225D01*
X338822Y701276D01*
X346618Y701276D01*
X348567Y703225D01*
X348567Y707123D01*
X346618Y709072D01*
X348567Y718817D02*
X336873Y718817D01*
X342720Y712970D01*
X342720Y720766D01*
X338822Y724664D02*
X336873Y726613D01*
X336873Y730511D01*
X338822Y732460D01*
X340771Y732460D01*
X342720Y730511D01*
X342720Y728562D01*
X342720Y730511D02*
X344669Y732460D01*
X346618Y732460D01*
X348567Y730511D01*
X348567Y726613D01*
X346618Y724664D01*
X366873Y707123D02*
X368822Y709072D01*
X366873Y707123D02*
X366873Y703225D01*
X368822Y701276D01*
X376618Y701276D01*
X378567Y703225D01*
X378567Y707123D01*
X376618Y709072D01*
X378567Y718817D02*
X366873Y718817D01*
X372720Y712970D01*
X372720Y720766D01*
X378567Y730511D02*
X366873Y730511D01*
X372720Y724664D01*
X372720Y732460D01*
D13*
X206371Y1351196D02*
X201875Y1351196D01*
X201875Y1353444D01*
X202624Y1354193D01*
X204123Y1354193D01*
X204872Y1353444D01*
X204872Y1351196D01*
X204872Y1352695D02*
X206371Y1354193D01*
X201875Y1355800D02*
X201875Y1358797D01*
X201875Y1355800D02*
X204123Y1355800D01*
X203374Y1357299D01*
X203374Y1358048D01*
X204123Y1358797D01*
X205622Y1358797D01*
X206371Y1358048D01*
X206371Y1356549D01*
X205622Y1355800D01*
D14*
X197180Y1391600D02*
X197180Y1407800D01*
X225620Y1403800D02*
X225620Y1391600D01*
X216620Y1391600D02*
X206180Y1391600D01*
X215680Y1407800D02*
X216620Y1407800D01*
X207120Y1407800D02*
X206180Y1407800D01*
X221680Y1407800D02*
X225620Y1403800D01*
X198120Y1407800D02*
X197180Y1407800D01*
X197180Y1391600D02*
X198120Y1391600D01*
X224680Y1391600D02*
X225620Y1391600D01*
D15*
X228400Y1409700D02*
X228402Y1409763D01*
X228408Y1409825D01*
X228418Y1409887D01*
X228431Y1409949D01*
X228449Y1410009D01*
X228470Y1410068D01*
X228495Y1410126D01*
X228524Y1410182D01*
X228556Y1410236D01*
X228591Y1410288D01*
X228629Y1410337D01*
X228671Y1410385D01*
X228715Y1410429D01*
X228763Y1410471D01*
X228812Y1410509D01*
X228864Y1410544D01*
X228918Y1410576D01*
X228974Y1410605D01*
X229032Y1410630D01*
X229091Y1410651D01*
X229151Y1410669D01*
X229213Y1410682D01*
X229275Y1410692D01*
X229337Y1410698D01*
X229400Y1410700D01*
X229463Y1410698D01*
X229525Y1410692D01*
X229587Y1410682D01*
X229649Y1410669D01*
X229709Y1410651D01*
X229768Y1410630D01*
X229826Y1410605D01*
X229882Y1410576D01*
X229936Y1410544D01*
X229988Y1410509D01*
X230037Y1410471D01*
X230085Y1410429D01*
X230129Y1410385D01*
X230171Y1410337D01*
X230209Y1410288D01*
X230244Y1410236D01*
X230276Y1410182D01*
X230305Y1410126D01*
X230330Y1410068D01*
X230351Y1410009D01*
X230369Y1409949D01*
X230382Y1409887D01*
X230392Y1409825D01*
X230398Y1409763D01*
X230400Y1409700D01*
X230398Y1409637D01*
X230392Y1409575D01*
X230382Y1409513D01*
X230369Y1409451D01*
X230351Y1409391D01*
X230330Y1409332D01*
X230305Y1409274D01*
X230276Y1409218D01*
X230244Y1409164D01*
X230209Y1409112D01*
X230171Y1409063D01*
X230129Y1409015D01*
X230085Y1408971D01*
X230037Y1408929D01*
X229988Y1408891D01*
X229936Y1408856D01*
X229882Y1408824D01*
X229826Y1408795D01*
X229768Y1408770D01*
X229709Y1408749D01*
X229649Y1408731D01*
X229587Y1408718D01*
X229525Y1408708D01*
X229463Y1408702D01*
X229400Y1408700D01*
X229337Y1408702D01*
X229275Y1408708D01*
X229213Y1408718D01*
X229151Y1408731D01*
X229091Y1408749D01*
X229032Y1408770D01*
X228974Y1408795D01*
X228918Y1408824D01*
X228864Y1408856D01*
X228812Y1408891D01*
X228763Y1408929D01*
X228715Y1408971D01*
X228671Y1409015D01*
X228629Y1409063D01*
X228591Y1409112D01*
X228556Y1409164D01*
X228524Y1409218D01*
X228495Y1409274D01*
X228470Y1409332D01*
X228449Y1409391D01*
X228431Y1409451D01*
X228418Y1409513D01*
X228408Y1409575D01*
X228402Y1409637D01*
X228400Y1409700D01*
D12*
X203672Y1368458D02*
X199774Y1368458D01*
X201723Y1368458D02*
X201723Y1380152D01*
X199774Y1380152D02*
X203672Y1380152D01*
X213417Y1380152D02*
X215366Y1378203D01*
X213417Y1380152D02*
X209519Y1380152D01*
X207570Y1378203D01*
X207570Y1370407D01*
X209519Y1368458D01*
X213417Y1368458D01*
X215366Y1370407D01*
X219264Y1378203D02*
X221213Y1380152D01*
X225111Y1380152D01*
X227060Y1378203D01*
X227060Y1376254D01*
X225111Y1374305D01*
X223162Y1374305D01*
X225111Y1374305D02*
X227060Y1372356D01*
X227060Y1370407D01*
X225111Y1368458D01*
X221213Y1368458D01*
X219264Y1370407D01*
D13*
X192564Y1362831D02*
X191815Y1363580D01*
X190317Y1363580D01*
X189567Y1362831D01*
X189567Y1359833D01*
X190317Y1359084D01*
X191815Y1359084D01*
X192564Y1359833D01*
X194171Y1362081D02*
X195670Y1363580D01*
X195670Y1359084D01*
X197168Y1359084D02*
X194171Y1359084D01*
X198775Y1363580D02*
X201772Y1363580D01*
X198775Y1363580D02*
X198775Y1361332D01*
X200274Y1362081D01*
X201023Y1362081D01*
X201772Y1361332D01*
X201772Y1359833D01*
X201023Y1359084D01*
X199524Y1359084D01*
X198775Y1359833D01*
X234140Y1334330D02*
X234889Y1333581D01*
X234140Y1334330D02*
X232642Y1334330D01*
X231892Y1333581D01*
X231892Y1330583D01*
X232642Y1329834D01*
X234140Y1329834D01*
X234889Y1330583D01*
X236496Y1332831D02*
X237995Y1334330D01*
X237995Y1329834D01*
X239493Y1329834D02*
X236496Y1329834D01*
X242599Y1333581D02*
X244097Y1334330D01*
X242599Y1333581D02*
X241100Y1332082D01*
X241100Y1330583D01*
X241849Y1329834D01*
X243348Y1329834D01*
X244097Y1330583D01*
X244097Y1331333D01*
X243348Y1332082D01*
X241100Y1332082D01*
X193150Y1412665D02*
X193899Y1413414D01*
X193150Y1412665D02*
X193150Y1411167D01*
X193899Y1410417D01*
X196897Y1410417D01*
X197646Y1411167D01*
X197646Y1412665D01*
X196897Y1413414D01*
X194649Y1415021D02*
X193150Y1416520D01*
X197646Y1416520D01*
X197646Y1418018D02*
X197646Y1415021D01*
X193150Y1419625D02*
X193150Y1422622D01*
X193899Y1422622D01*
X196897Y1419625D01*
X197646Y1419625D01*
D12*
X177897Y1404472D02*
X175948Y1402523D01*
X175948Y1398625D01*
X177897Y1396676D01*
X185693Y1396676D01*
X187642Y1398625D01*
X187642Y1402523D01*
X185693Y1404472D01*
X179846Y1408370D02*
X175948Y1412268D01*
X187642Y1412268D01*
X187642Y1408370D02*
X187642Y1416166D01*
X177897Y1420064D02*
X175948Y1422013D01*
X175948Y1425911D01*
X177897Y1427860D01*
X179846Y1427860D01*
X181795Y1425911D01*
X183744Y1427860D01*
X185693Y1427860D01*
X187642Y1425911D01*
X187642Y1422013D01*
X185693Y1420064D01*
X183744Y1420064D01*
X181795Y1422013D01*
X179846Y1420064D01*
X177897Y1420064D01*
X181795Y1422013D02*
X181795Y1425911D01*
D16*
X105400Y1429700D02*
X105400Y1394700D01*
X77400Y1394700D01*
X77400Y1429700D01*
X105400Y1429700D01*
X91400Y1427200D02*
X91400Y1422200D01*
X93900Y1424700D02*
X88900Y1424700D01*
X88900Y1399700D02*
X93900Y1399700D01*
D17*
X110823Y1408268D02*
X112391Y1409836D01*
X110823Y1408268D02*
X110823Y1405133D01*
X112391Y1403565D01*
X118661Y1403565D01*
X120229Y1405133D01*
X120229Y1408268D01*
X118661Y1409836D01*
X113958Y1412921D02*
X110823Y1416056D01*
X120229Y1416056D01*
X120229Y1412921D02*
X120229Y1419191D01*
X118661Y1422276D02*
X120229Y1423843D01*
X120229Y1426979D01*
X118661Y1428547D01*
X112391Y1428547D01*
X110823Y1426979D01*
X110823Y1423843D01*
X112391Y1422276D01*
X113958Y1422276D01*
X115526Y1423843D01*
X115526Y1428547D01*
D12*
X277173Y1387123D02*
X279122Y1389072D01*
X277173Y1387123D02*
X277173Y1383225D01*
X279122Y1381276D01*
X286918Y1381276D01*
X288867Y1383225D01*
X288867Y1387123D01*
X286918Y1389072D01*
X288867Y1392970D02*
X288867Y1400766D01*
X288867Y1392970D02*
X281071Y1400766D01*
X279122Y1400766D01*
X277173Y1398817D01*
X277173Y1394919D01*
X279122Y1392970D01*
X279122Y1404664D02*
X286918Y1404664D01*
X279122Y1404664D02*
X277173Y1406613D01*
X277173Y1410511D01*
X279122Y1412460D01*
X286918Y1412460D01*
X288867Y1410511D01*
X288867Y1406613D01*
X286918Y1404664D01*
X279122Y1412460D01*
X307173Y1387123D02*
X309122Y1389072D01*
X307173Y1387123D02*
X307173Y1383225D01*
X309122Y1381276D01*
X316918Y1381276D01*
X318867Y1383225D01*
X318867Y1387123D01*
X316918Y1389072D01*
X318867Y1392970D02*
X318867Y1400766D01*
X318867Y1392970D02*
X311071Y1400766D01*
X309122Y1400766D01*
X307173Y1398817D01*
X307173Y1394919D01*
X309122Y1392970D01*
X311071Y1404664D02*
X307173Y1408562D01*
X318867Y1408562D01*
X318867Y1404664D02*
X318867Y1412460D01*
X236583Y1386702D02*
X236583Y1375008D01*
X236583Y1386702D02*
X242430Y1386702D01*
X244379Y1384753D01*
X244379Y1380855D01*
X242430Y1378906D01*
X236583Y1378906D01*
X240481Y1378906D02*
X244379Y1375008D01*
X252175Y1384753D02*
X256073Y1386702D01*
X252175Y1384753D02*
X248277Y1380855D01*
X248277Y1376957D01*
X250226Y1375008D01*
X254124Y1375008D01*
X256073Y1376957D01*
X256073Y1378906D01*
X254124Y1380855D01*
X248277Y1380855D01*
D18*
X216400Y1424700D02*
X216400Y1524700D01*
X316400Y1524700D01*
X316400Y1424700D01*
X216400Y1424700D01*
D12*
X268492Y1418200D02*
X268492Y1409208D01*
X274487Y1409208D01*
X277700Y1416701D02*
X279199Y1418200D01*
X282196Y1418200D01*
X283695Y1416701D01*
X283695Y1415202D01*
X282196Y1413704D01*
X280697Y1413704D01*
X282196Y1413704D02*
X283695Y1412205D01*
X283695Y1410707D01*
X282196Y1409208D01*
X279199Y1409208D01*
X277700Y1410707D01*
X145397Y1404472D02*
X143448Y1402523D01*
X143448Y1398625D01*
X145397Y1396676D01*
X153193Y1396676D01*
X155142Y1398625D01*
X155142Y1402523D01*
X153193Y1404472D01*
X155142Y1414217D02*
X143448Y1414217D01*
X149295Y1408370D01*
X149295Y1416166D01*
X143448Y1420064D02*
X143448Y1427860D01*
X143448Y1420064D02*
X149295Y1420064D01*
X147346Y1423962D01*
X147346Y1425911D01*
X149295Y1427860D01*
X153193Y1427860D01*
X155142Y1425911D01*
X155142Y1422013D01*
X153193Y1420064D01*
X337173Y1387123D02*
X339122Y1389072D01*
X337173Y1387123D02*
X337173Y1383225D01*
X339122Y1381276D01*
X346918Y1381276D01*
X348867Y1383225D01*
X348867Y1387123D01*
X346918Y1389072D01*
X348867Y1398817D02*
X337173Y1398817D01*
X343020Y1392970D01*
X343020Y1400766D01*
X339122Y1408562D02*
X337173Y1412460D01*
X339122Y1408562D02*
X343020Y1404664D01*
X346918Y1404664D01*
X348867Y1406613D01*
X348867Y1410511D01*
X346918Y1412460D01*
X344969Y1412460D01*
X343020Y1410511D01*
X343020Y1404664D01*
X367173Y1387123D02*
X369122Y1389072D01*
X367173Y1387123D02*
X367173Y1383225D01*
X369122Y1381276D01*
X376918Y1381276D01*
X378867Y1383225D01*
X378867Y1387123D01*
X376918Y1389072D01*
X378867Y1398817D02*
X367173Y1398817D01*
X373020Y1392970D01*
X373020Y1400766D01*
X367173Y1404664D02*
X367173Y1412460D01*
X369122Y1412460D01*
X376918Y1404664D01*
X378867Y1404664D01*
M02*
