  0
SECTION
  2
HEADER
  9
$ACADVER
  1
AC1009
  9
$FILLMODE
 70
1
  9
$EXTMIN
 10
-0.1000
 20
-10.1000
 30
0.0000
  9
$EXTMAX
 10
80.1000
 20
50.1000
 30
0.0000
  0
ENDSEC
  0
SECTION
  2
TABLES
  0
TABLE
  2
LTYPE
 70
1
  0
LTYPE
  2
CONTINUOUS
 70
64
  3
Solid line
 72
65
 73
0
 40
0
  0
ENDTAB
  0
TABLE
  2
LAYER
 70
255
  0
LAYER
  2
20
 70
64
 62
53
  6
CONTINUOUS
  0
LAYER
  2
21
 70
64
 62
253
  6
CONTINUOUS
  0
LAYER
  2
22
 70
64
 62
253
  6
CONTINUOUS
  0
ENDTAB
  0
ENDSEC
  0
SECTION
  2
BLOCKS
  0
BLOCK
  8
0
  2
RECT
 70
64
 10
0.0000
 20
0.0000
 30
0.0000
  3
RECT
  0
SOLID
  8
0
 10
-0.5000
 20
-0.5000
 30
0.0000
 11
0.5000
 21
-0.5000
 31
0.0000
 12
-0.5000
 22
0.5000
 32
0.0000
 13
0.5000
 23
0.5000
 33
0.0000
  0
ENDBLK
  8
0
  0
BLOCK
  8
0
  2
PIE
 70
64
 10
0.0000
 20
0.0000
 30
0.0000
  3
PIE
  0
POLYLINE
  8
0
 66
1
 10
0.0000
 20
0.0000
 30
0.0000
 40
0.5000
 41
0.5000
 70
0
  0
VERTEX
  8
0
 10
0.0000
 20
-0.2500
 30
0.0000
 42
1.0000
  0
VERTEX
  8
0
 10
0.0000
 20
0.2500
 30
0.0000
 42
1.0000
  0
VERTEX
  8
0
 10
0.0000
 20
-0.2500
 30
0.0000
  0
SEQEND
  8
0
  0
ENDBLK
  8
0
  0
BLOCK
  8
0
  2
OCTAGONP
 70
64
 10
0.0000
 20
0.0000
 30
0.0000
  3
OCTAGONP
  0
POLYLINE
  8
0
 66
1
 10
0.0000
 20
0.0000
 30
0.0000
 40
0.5000
 41
0.5000
 70
0
  0
VERTEX
  8
0
 10
-0.2500
 20
-0.1036
 30
0.0000
  0
VERTEX
  8
0
 10
-0.2500
 20
0.1036
 30
0.0000
  0
VERTEX
  8
0
 10
-0.1036
 20
0.2500
 30
0.0000
  0
VERTEX
  8
0
 10
0.1036
 20
0.2500
 30
0.0000
  0
VERTEX
  8
0
 10
0.2500
 20
0.1036
 30
0.0000
  0
VERTEX
  8
0
 10
0.2500
 20
-0.1036
 30
0.0000
  0
VERTEX
  8
0
 10
0.1036
 20
-0.2500
 30
0.0000
  0
VERTEX
  8
0
 10
-0.1036
 20
-0.2500
 30
0.0000
  0
VERTEX
  8
0
 10
-0.2500
 20
-0.1036
 30
0.0000
  0
VERTEX
  8
0
 10
-0.2500
 20
0.1036
 30
0.0000
  0
SEQEND
  8
0
  0
ENDBLK
  8
0
  0
BLOCK
  8
0
  2
SQUAREP
 70
64
 10
0.0000
 20
0.0000
 30
0.0000
  3
SQUAREP
  0
SOLID
  8
0
 10
-0.5000
 20
-0.5000
 30
0.0000
 11
0.5000
 21
-0.5000
 31
0.0000
 12
-0.5000
 22
0.5000
 32
0.0000
 13
0.5000
 23
0.5000
 33
0.0000
  0
ENDBLK
  8
0
  0
BLOCK
  8
0
  2
ROUNDP
 70
64
 10
0.0000
 20
0.0000
 30
0.0000
  3
ROUNDP
  0
POLYLINE
  8
0
 66
1
 10
0.0000
 20
0.0000
 30
0.0000
 40
0.5000
 41
0.5000
 70
0
  0
VERTEX
  8
0
 10
0.0000
 20
-0.2500
 30
0.0000
 42
1.0000
  0
VERTEX
  8
0
 10
0.0000
 20
0.2500
 30
0.0000
 42
1.0000
  0
VERTEX
  8
0
 10
0.0000
 20
-0.2500
 30
0.0000
  0
SEQEND
  8
0
  0
ENDBLK
  8
0
  0
BLOCK
  8
0
  2
ANNULUSP
 70
64
 10
0.0000
 20
0.0000
 30
0.0000
  3
ANNULUSP
  0
POLYLINE
  8
0
 66
1
 10
0.0000
 20
0.0000
 30
0.0000
 40
0.5000
 41
0.5000
 70
0
  0
VERTEX
  8
0
 10
0.0000
 20
-0.2500
 30
0.0000
 42
1.0000
  0
VERTEX
  8
0
 10
0.0000
 20
0.2500
 30
0.0000
 42
1.0000
  0
VERTEX
  8
0
 10
0.0000
 20
-0.2500
 30
0.0000
  0
SEQEND
  8
0
  0
ENDBLK
  8
0
  0
BLOCK
  8
0
  2
THERMALP
 70
64
 10
0.0000
 20
0.0000
 30
0.0000
  3
THERMALP
  0
POLYLINE
  8
0
 66
1
 10
0.0000
 20
0.0000
 30
0.0000
 40
0.1000
 41
0.1000
 70
0
  0
VERTEX
  8
0
 10
-0.2379
 20
0.4500
 30
0.0000
  0
VERTEX
  8
0
 10
0.2379
 20
0.4500
 30
0.0000
  0
SEQEND
  8
0
  0
POLYLINE
  8
0
 66
1
 10
0.0000
 20
0.0000
 30
0.0000
 40
0.0500
 41
0.0500
 70
0
  0
VERTEX
  8
0
 10
0.2379
 20
0.4250
 30
0.0000
 42
1.0000
  0
VERTEX
  8
0
 10
0.2379
 20
0.4750
 30
0.0000
  0
SEQEND
  8
0
  0
POLYLINE
  8
0
 66
1
 10
0.0000
 20
0.0000
 30
0.0000
 40
0.0500
 41
0.0500
 70
0
  0
VERTEX
  8
0
 10
-0.2379
 20
0.4750
 30
0.0000
 42
1.0000
  0
VERTEX
  8
0
 10
-0.2379
 20
0.4250
 30
0.0000
  0
SEQEND
  8
0
  0
POLYLINE
  8
0
 66
1
 10
0.0000
 20
0.0000
 30
0.0000
 40
0.1000
 41
0.1000
 70
0
  0
VERTEX
  8
0
 10
0.4500
 20
0.2379
 30
0.0000
  0
VERTEX
  8
0
 10
0.4500
 20
-0.2379
 30
0.0000
  0
SEQEND
  8
0
  0
POLYLINE
  8
0
 66
1
 10
0.0000
 20
0.0000
 30
0.0000
 40
0.0500
 41
0.0500
 70
0
  0
VERTEX
  8
0
 10
0.4250
 20
-0.2379
 30
0.0000
 42
1.0000
  0
VERTEX
  8
0
 10
0.4750
 20
-0.2379
 30
0.0000
  0
SEQEND
  8
0
  0
POLYLINE
  8
0
 66
1
 10
0.0000
 20
0.0000
 30
0.0000
 40
0.0500
 41
0.0500
 70
0
  0
VERTEX
  8
0
 10
0.4750
 20
0.2379
 30
0.0000
 42
1.0000
  0
VERTEX
  8
0
 10
0.4250
 20
0.2379
 30
0.0000
  0
SEQEND
  8
0
  0
POLYLINE
  8
0
 66
1
 10
0.0000
 20
0.0000
 30
0.0000
 40
0.1000
 41
0.1000
 70
0
  0
VERTEX
  8
0
 10
0.2379
 20
-0.4500
 30
0.0000
  0
VERTEX
  8
0
 10
-0.2379
 20
-0.4500
 30
0.0000
  0
SEQEND
  8
0
  0
POLYLINE
  8
0
 66
1
 10
0.0000
 20
0.0000
 30
0.0000
 40
0.0500
 41
0.0500
 70
0
  0
VERTEX
  8
0
 10
-0.2379
 20
-0.4250
 30
0.0000
 42
1.0000
  0
VERTEX
  8
0
 10
-0.2379
 20
-0.4750
 30
0.0000
  0
SEQEND
  8
0
  0
POLYLINE
  8
0
 66
1
 10
0.0000
 20
0.0000
 30
0.0000
 40
0.0500
 41
0.0500
 70
0
  0
VERTEX
  8
0
 10
0.2379
 20
-0.4750
 30
0.0000
 42
1.0000
  0
VERTEX
  8
0
 10
0.2379
 20
-0.4250
 30
0.0000
  0
SEQEND
  8
0
  0
POLYLINE
  8
0
 66
1
 10
0.0000
 20
0.0000
 30
0.0000
 40
0.1000
 41
0.1000
 70
0
  0
VERTEX
  8
0
 10
-0.4500
 20
-0.2379
 30
0.0000
  0
VERTEX
  8
0
 10
-0.4500
 20
0.2379
 30
0.0000
  0
SEQEND
  8
0
  0
POLYLINE
  8
0
 66
1
 10
0.0000
 20
0.0000
 30
0.0000
 40
0.0500
 41
0.0500
 70
0
  0
VERTEX
  8
0
 10
-0.4250
 20
0.2379
 30
0.0000
 42
1.0000
  0
VERTEX
  8
0
 10
-0.4750
 20
0.2379
 30
0.0000
  0
SEQEND
  8
0
  0
POLYLINE
  8
0
 66
1
 10
0.0000
 20
0.0000
 30
0.0000
 40
0.0500
 41
0.0500
 70
0
  0
VERTEX
  8
0
 10
-0.4750
 20
-0.2379
 30
0.0000
 42
1.0000
  0
VERTEX
  8
0
 10
-0.4250
 20
-0.2379
 30
0.0000
  0
SEQEND
  8
0
  0
ENDBLK
  8
0
  0
BLOCK
  8
0
  2
OCTAGONV
 70
64
 10
0.0000
 20
0.0000
 30
0.0000
  3
OCTAGONV
  0
POLYLINE
  8
0
 66
1
 10
0.0000
 20
0.0000
 30
0.0000
 40
0.5000
 41
0.5000
 70
0
  0
VERTEX
  8
0
 10
-0.2500
 20
-0.1036
 30
0.0000
  0
VERTEX
  8
0
 10
-0.2500
 20
0.1036
 30
0.0000
  0
VERTEX
  8
0
 10
-0.1036
 20
0.2500
 30
0.0000
  0
VERTEX
  8
0
 10
0.1036
 20
0.2500
 30
0.0000
  0
VERTEX
  8
0
 10
0.2500
 20
0.1036
 30
0.0000
  0
VERTEX
  8
0
 10
0.2500
 20
-0.1036
 30
0.0000
  0
VERTEX
  8
0
 10
0.1036
 20
-0.2500
 30
0.0000
  0
VERTEX
  8
0
 10
-0.1036
 20
-0.2500
 30
0.0000
  0
VERTEX
  8
0
 10
-0.2500
 20
-0.1036
 30
0.0000
  0
VERTEX
  8
0
 10
-0.2500
 20
0.1036
 30
0.0000
  0
SEQEND
  8
0
  0
ENDBLK
  8
0
  0
BLOCK
  8
0
  2
SQUAREV
 70
64
 10
0.0000
 20
0.0000
 30
0.0000
  3
SQUAREV
  0
SOLID
  8
0
 10
-0.5000
 20
-0.5000
 30
0.0000
 11
0.5000
 21
-0.5000
 31
0.0000
 12
-0.5000
 22
0.5000
 32
0.0000
 13
0.5000
 23
0.5000
 33
0.0000
  0
ENDBLK
  8
0
  0
BLOCK
  8
0
  2
ROUNDV
 70
64
 10
0.0000
 20
0.0000
 30
0.0000
  3
ROUNDV
  0
POLYLINE
  8
0
 66
1
 10
0.0000
 20
0.0000
 30
0.0000
 40
0.5000
 41
0.5000
 70
0
  0
VERTEX
  8
0
 10
0.0000
 20
-0.2500
 30
0.0000
 42
1.0000
  0
VERTEX
  8
0
 10
0.0000
 20
0.2500
 30
0.0000
 42
1.0000
  0
VERTEX
  8
0
 10
0.0000
 20
-0.2500
 30
0.0000
  0
SEQEND
  8
0
  0
ENDBLK
  8
0
  0
BLOCK
  8
0
  2
ANNULUSV
 70
64
 10
0.0000
 20
0.0000
 30
0.0000
  3
ANNULUSV
  0
POLYLINE
  8
0
 66
1
 10
0.0000
 20
0.0000
 30
0.0000
 40
0.5000
 41
0.5000
 70
0
  0
VERTEX
  8
0
 10
0.0000
 20
-0.2500
 30
0.0000
 42
1.0000
  0
VERTEX
  8
0
 10
0.0000
 20
0.2500
 30
0.0000
 42
1.0000
  0
VERTEX
  8
0
 10
0.0000
 20
-0.2500
 30
0.0000
  0
SEQEND
  8
0
  0
ENDBLK
  8
0
  0
BLOCK
  8
0
  2
THERMALV
 70
64
 10
0.0000
 20
0.0000
 30
0.0000
  3
THERMALV
  0
POLYLINE
  8
0
 66
1
 10
0.0000
 20
0.0000
 30
0.0000
 40
0.1000
 41
0.1000
 70
0
  0
VERTEX
  8
0
 10
-0.2379
 20
0.4500
 30
0.0000
  0
VERTEX
  8
0
 10
0.2379
 20
0.4500
 30
0.0000
  0
SEQEND
  8
0
  0
POLYLINE
  8
0
 66
1
 10
0.0000
 20
0.0000
 30
0.0000
 40
0.0500
 41
0.0500
 70
0
  0
VERTEX
  8
0
 10
0.2379
 20
0.4250
 30
0.0000
 42
1.0000
  0
VERTEX
  8
0
 10
0.2379
 20
0.4750
 30
0.0000
  0
SEQEND
  8
0
  0
POLYLINE
  8
0
 66
1
 10
0.0000
 20
0.0000
 30
0.0000
 40
0.0500
 41
0.0500
 70
0
  0
VERTEX
  8
0
 10
-0.2379
 20
0.4750
 30
0.0000
 42
1.0000
  0
VERTEX
  8
0
 10
-0.2379
 20
0.4250
 30
0.0000
  0
SEQEND
  8
0
  0
POLYLINE
  8
0
 66
1
 10
0.0000
 20
0.0000
 30
0.0000
 40
0.1000
 41
0.1000
 70
0
  0
VERTEX
  8
0
 10
0.4500
 20
0.2379
 30
0.0000
  0
VERTEX
  8
0
 10
0.4500
 20
-0.2379
 30
0.0000
  0
SEQEND
  8
0
  0
POLYLINE
  8
0
 66
1
 10
0.0000
 20
0.0000
 30
0.0000
 40
0.0500
 41
0.0500
 70
0
  0
VERTEX
  8
0
 10
0.4250
 20
-0.2379
 30
0.0000
 42
1.0000
  0
VERTEX
  8
0
 10
0.4750
 20
-0.2379
 30
0.0000
  0
SEQEND
  8
0
  0
POLYLINE
  8
0
 66
1
 10
0.0000
 20
0.0000
 30
0.0000
 40
0.0500
 41
0.0500
 70
0
  0
VERTEX
  8
0
 10
0.4750
 20
0.2379
 30
0.0000
 42
1.0000
  0
VERTEX
  8
0
 10
0.4250
 20
0.2379
 30
0.0000
  0
SEQEND
  8
0
  0
POLYLINE
  8
0
 66
1
 10
0.0000
 20
0.0000
 30
0.0000
 40
0.1000
 41
0.1000
 70
0
  0
VERTEX
  8
0
 10
0.2379
 20
-0.4500
 30
0.0000
  0
VERTEX
  8
0
 10
-0.2379
 20
-0.4500
 30
0.0000
  0
SEQEND
  8
0
  0
POLYLINE
  8
0
 66
1
 10
0.0000
 20
0.0000
 30
0.0000
 40
0.0500
 41
0.0500
 70
0
  0
VERTEX
  8
0
 10
-0.2379
 20
-0.4250
 30
0.0000
 42
1.0000
  0
VERTEX
  8
0
 10
-0.2379
 20
-0.4750
 30
0.0000
  0
SEQEND
  8
0
  0
POLYLINE
  8
0
 66
1
 10
0.0000
 20
0.0000
 30
0.0000
 40
0.0500
 41
0.0500
 70
0
  0
VERTEX
  8
0
 10
0.2379
 20
-0.4750
 30
0.0000
 42
1.0000
  0
VERTEX
  8
0
 10
0.2379
 20
-0.4250
 30
0.0000
  0
SEQEND
  8
0
  0
POLYLINE
  8
0
 66
1
 10
0.0000
 20
0.0000
 30
0.0000
 40
0.1000
 41
0.1000
 70
0
  0
VERTEX
  8
0
 10
-0.4500
 20
-0.2379
 30
0.0000
  0
VERTEX
  8
0
 10
-0.4500
 20
0.2379
 30
0.0000
  0
SEQEND
  8
0
  0
POLYLINE
  8
0
 66
1
 10
0.0000
 20
0.0000
 30
0.0000
 40
0.0500
 41
0.0500
 70
0
  0
VERTEX
  8
0
 10
-0.4250
 20
0.2379
 30
0.0000
 42
1.0000
  0
VERTEX
  8
0
 10
-0.4750
 20
0.2379
 30
0.0000
  0
SEQEND
  8
0
  0
POLYLINE
  8
0
 66
1
 10
0.0000
 20
0.0000
 30
0.0000
 40
0.0500
 41
0.0500
 70
0
  0
VERTEX
  8
0
 10
-0.4750
 20
-0.2379
 30
0.0000
 42
1.0000
  0
VERTEX
  8
0
 10
-0.4250
 20
-0.2379
 30
0.0000
  0
SEQEND
  8
0
  0
ENDBLK
  8
0
  0
ENDSEC
  0
SECTION
  2
ENTITIES
  0
LINE
  8
20
 10
29.2426
 20
-10.0000
 30
0.0000
 11
46.7574
 21
-10.0000
 31
0.0000
  0
ARC
  8
20
 10
46.7574
 20
-7.0000
 30
0.0000
 40
3.0000
 50
270.0000
 51
315.0000
  0
LINE
  8
20
 10
48.8787
 20
-9.1213
 30
0.0000
 11
57.1213
 21
-0.8787
 31
0.0000
  0
ARC
  8
20
 10
59.2426
 20
-3.0000
 30
0.0000
 40
3.0000
 50
90.0000
 51
134.9999
  0
LINE
  8
20
 10
59.2426
 20
0.0000
 30
0.0000
 11
77.0000
 21
0.0000
 31
0.0000
  0
ARC
  8
20
 10
29.2426
 20
-7.0000
 30
0.0000
 40
3.0000
 50
225.0000
 51
270.0000
  0
LINE
  8
20
 10
27.1213
 20
-9.1213
 30
0.0000
 11
18.8787
 21
-0.8787
 31
0.0000
  0
ARC
  8
20
 10
16.7574
 20
-3.0000
 30
0.0000
 40
3.0000
 50
45.0001
 51
90.0000
  0
LINE
  8
20
 10
16.7574
 20
0.0000
 30
0.0000
 11
3.0000
 21
0.0000
 31
0.0000
  0
ARC
  8
20
 10
77.0000
 20
3.0000
 30
0.0000
 40
3.0000
 50
270.0000
 51
0.0000
  0
LINE
  8
20
 10
80.0000
 20
3.0000
 30
0.0000
 11
80.0000
 21
47.0000
 31
0.0000
  0
ARC
  8
20
 10
77.0000
 20
47.0000
 30
0.0000
 40
3.0000
 50
0.0000
 51
90.0000
  0
LINE
  8
20
 10
77.0000
 20
50.0000
 30
0.0000
 11
3.0000
 21
50.0000
 31
0.0000
  0
ARC
  8
20
 10
3.0000
 20
47.0000
 30
0.0000
 40
3.0000
 50
90.0000
 51
180.0000
  0
ARC
  8
20
 10
3.0000
 20
3.0000
 30
0.0000
 40
3.0000
 50
180.0000
 51
270.0000
  0
LINE
  8
20
 10
0.0000
 20
3.0000
 30
0.0000
 11
0.0000
 21
47.0000
 31
0.0000
  0
POLYLINE
  8
22
 66
1
 10
0.0000
 20
0.0000
 30
0.0000
 40
0.2000
 41
0.2000
 70
0
  0
VERTEX
  8
22
 10
55.0000
 20
7.0000
 30
0.0000
  0
VERTEX
  8
22
 10
55.0000
 20
32.0000
 30
0.0000
  0
SEQEND
  8
0
  0
POLYLINE
  8
22
 66
1
 10
0.0000
 20
0.0000
 30
0.0000
 40
0.1000
 41
0.1000
 70
0
  0
VERTEX
  8
22
 10
55.0500
 20
32.0000
 30
0.0000
 42
1.0000
  0
VERTEX
  8
22
 10
54.9500
 20
32.0000
 30
0.0000
  0
SEQEND
  8
0
  0
POLYLINE
  8
22
 66
1
 10
0.0000
 20
0.0000
 30
0.0000
 40
0.1000
 41
0.1000
 70
0
  0
VERTEX
  8
22
 10
54.9500
 20
7.0000
 30
0.0000
 42
1.0000
  0
VERTEX
  8
22
 10
55.0500
 20
7.0000
 30
0.0000
  0
SEQEND
  8
0
  0
POLYLINE
  8
22
 66
1
 10
0.0000
 20
0.0000
 30
0.0000
 40
0.2000
 41
0.2000
 70
0
  0
VERTEX
  8
22
 10
55.0000
 20
32.0000
 30
0.0000
  0
VERTEX
  8
22
 10
30.0000
 20
32.0000
 30
0.0000
  0
SEQEND
  8
0
  0
POLYLINE
  8
22
 66
1
 10
0.0000
 20
0.0000
 30
0.0000
 40
0.1000
 41
0.1000
 70
0
  0
VERTEX
  8
22
 10
30.0000
 20
32.0500
 30
0.0000
 42
1.0000
  0
VERTEX
  8
22
 10
30.0000
 20
31.9500
 30
0.0000
  0
SEQEND
  8
0
  0
POLYLINE
  8
22
 66
1
 10
0.0000
 20
0.0000
 30
0.0000
 40
0.1000
 41
0.1000
 70
0
  0
VERTEX
  8
22
 10
55.0000
 20
31.9500
 30
0.0000
 42
1.0000
  0
VERTEX
  8
22
 10
55.0000
 20
32.0500
 30
0.0000
  0
SEQEND
  8
0
  0
POLYLINE
  8
22
 66
1
 10
0.0000
 20
0.0000
 30
0.0000
 40
0.2000
 41
0.2000
 70
0
  0
VERTEX
  8
22
 10
30.0000
 20
32.0000
 30
0.0000
  0
VERTEX
  8
22
 10
30.0000
 20
7.0000
 30
0.0000
  0
SEQEND
  8
0
  0
POLYLINE
  8
22
 66
1
 10
0.0000
 20
0.0000
 30
0.0000
 40
0.1000
 41
0.1000
 70
0
  0
VERTEX
  8
22
 10
29.9500
 20
7.0000
 30
0.0000
 42
1.0000
  0
VERTEX
  8
22
 10
30.0500
 20
7.0000
 30
0.0000
  0
SEQEND
  8
0
  0
POLYLINE
  8
22
 66
1
 10
0.0000
 20
0.0000
 30
0.0000
 40
0.1000
 41
0.1000
 70
0
  0
VERTEX
  8
22
 10
30.0500
 20
32.0000
 30
0.0000
 42
1.0000
  0
VERTEX
  8
22
 10
29.9500
 20
32.0000
 30
0.0000
  0
SEQEND
  8
0
  0
POLYLINE
  8
22
 66
1
 10
0.0000
 20
0.0000
 30
0.0000
 40
0.2000
 41
0.2000
 70
0
  0
VERTEX
  8
22
 10
30.0000
 20
7.0000
 30
0.0000
  0
VERTEX
  8
22
 10
55.0000
 20
7.0000
 30
0.0000
  0
SEQEND
  8
0
  0
POLYLINE
  8
22
 66
1
 10
0.0000
 20
0.0000
 30
0.0000
 40
0.1000
 41
0.1000
 70
0
  0
VERTEX
  8
22
 10
55.0000
 20
6.9500
 30
0.0000
 42
1.0000
  0
VERTEX
  8
22
 10
55.0000
 20
7.0500
 30
0.0000
  0
SEQEND
  8
0
  0
POLYLINE
  8
22
 66
1
 10
0.0000
 20
0.0000
 30
0.0000
 40
0.1000
 41
0.1000
 70
0
  0
VERTEX
  8
22
 10
30.0000
 20
7.0500
 30
0.0000
 42
1.0000
  0
VERTEX
  8
22
 10
30.0000
 20
6.9500
 30
0.0000
  0
SEQEND
  8
0
  0
CIRCLE
  8
20
 10
20.0000
 20
20.0000
 30
0.0000
 40
2.2500
  0
CIRCLE
  8
20
 10
60.0000
 20
20.0000
 30
0.0000
 40
2.2500
  0
CIRCLE
  8
20
 10
33.0000
 20
29.0000
 30
0.0000
 40
1.6500
  0
CIRCLE
  8
20
 10
52.0000
 20
10.0000
 30
0.0000
 40
1.6500
  0
POLYLINE
  8
21
 66
1
 10
0.0000
 20
0.0000
 30
0.0000
 40
0.0500
 41
0.0500
 70
0
  0
VERTEX
  8
21
 10
11.7250
 20
31.7250
 30
0.0000
  0
VERTEX
  8
21
 10
11.7250
 20
28.2750
 30
0.0000
  0
SEQEND
  8
0
  0
POLYLINE
  8
21
 66
1
 10
0.0000
 20
0.0000
 30
0.0000
 40
0.0250
 41
0.0250
 70
0
  0
VERTEX
  8
21
 10
11.7125
 20
28.2750
 30
0.0000
 42
1.0000
  0
VERTEX
  8
21
 10
11.7375
 20
28.2750
 30
0.0000
  0
SEQEND
  8
0
  0
POLYLINE
  8
21
 66
1
 10
0.0000
 20
0.0000
 30
0.0000
 40
0.0250
 41
0.0250
 70
0
  0
VERTEX
  8
21
 10
11.7375
 20
31.7250
 30
0.0000
 42
1.0000
  0
VERTEX
  8
21
 10
11.7125
 20
31.7250
 30
0.0000
  0
SEQEND
  8
0
  0
POLYLINE
  8
21
 66
1
 10
0.0000
 20
0.0000
 30
0.0000
 40
0.0500
 41
0.0500
 70
0
  0
VERTEX
  8
21
 10
11.7250
 20
28.2750
 30
0.0000
  0
VERTEX
  8
21
 10
8.2750
 20
28.2750
 30
0.0000
  0
SEQEND
  8
0
  0
POLYLINE
  8
21
 66
1
 10
0.0000
 20
0.0000
 30
0.0000
 40
0.0250
 41
0.0250
 70
0
  0
VERTEX
  8
21
 10
8.2750
 20
28.2875
 30
0.0000
 42
1.0000
  0
VERTEX
  8
21
 10
8.2750
 20
28.2625
 30
0.0000
  0
SEQEND
  8
0
  0
POLYLINE
  8
21
 66
1
 10
0.0000
 20
0.0000
 30
0.0000
 40
0.0250
 41
0.0250
 70
0
  0
VERTEX
  8
21
 10
11.7250
 20
28.2625
 30
0.0000
 42
1.0000
  0
VERTEX
  8
21
 10
11.7250
 20
28.2875
 30
0.0000
  0
SEQEND
  8
0
  0
POLYLINE
  8
21
 66
1
 10
0.0000
 20
0.0000
 30
0.0000
 40
0.0500
 41
0.0500
 70
0
  0
VERTEX
  8
21
 10
8.2750
 20
28.2750
 30
0.0000
  0
VERTEX
  8
21
 10
8.2750
 20
31.7250
 30
0.0000
  0
SEQEND
  8
0
  0
POLYLINE
  8
21
 66
1
 10
0.0000
 20
0.0000
 30
0.0000
 40
0.0250
 41
0.0250
 70
0
  0
VERTEX
  8
21
 10
8.2875
 20
31.7250
 30
0.0000
 42
1.0000
  0
VERTEX
  8
21
 10
8.2625
 20
31.7250
 30
0.0000
  0
SEQEND
  8
0
  0
POLYLINE
  8
21
 66
1
 10
0.0000
 20
0.0000
 30
0.0000
 40
0.0250
 41
0.0250
 70
0
  0
VERTEX
  8
21
 10
8.2625
 20
28.2750
 30
0.0000
 42
1.0000
  0
VERTEX
  8
21
 10
8.2875
 20
28.2750
 30
0.0000
  0
SEQEND
  8
0
  0
POLYLINE
  8
21
 66
1
 10
0.0000
 20
0.0000
 30
0.0000
 40
0.0500
 41
0.0500
 70
0
  0
VERTEX
  8
21
 10
8.2750
 20
31.7250
 30
0.0000
  0
VERTEX
  8
21
 10
11.7250
 20
31.7250
 30
0.0000
  0
SEQEND
  8
0
  0
POLYLINE
  8
21
 66
1
 10
0.0000
 20
0.0000
 30
0.0000
 40
0.0250
 41
0.0250
 70
0
  0
VERTEX
  8
21
 10
11.7250
 20
31.7125
 30
0.0000
 42
1.0000
  0
VERTEX
  8
21
 10
11.7250
 20
31.7375
 30
0.0000
  0
SEQEND
  8
0
  0
POLYLINE
  8
21
 66
1
 10
0.0000
 20
0.0000
 30
0.0000
 40
0.0250
 41
0.0250
 70
0
  0
VERTEX
  8
21
 10
8.2750
 20
31.7375
 30
0.0000
 42
1.0000
  0
VERTEX
  8
21
 10
8.2750
 20
31.7125
 30
0.0000
  0
SEQEND
  8
0
  0
POLYLINE
  8
21
 66
1
 10
0.0000
 20
0.0000
 30
0.0000
 40
0.0500
 41
0.0500
 70
0
  0
VERTEX
  8
21
 10
11.7250
 20
11.7250
 30
0.0000
  0
VERTEX
  8
21
 10
11.7250
 20
8.2750
 30
0.0000
  0
SEQEND
  8
0
  0
POLYLINE
  8
21
 66
1
 10
0.0000
 20
0.0000
 30
0.0000
 40
0.0250
 41
0.0250
 70
0
  0
VERTEX
  8
21
 10
11.7125
 20
8.2750
 30
0.0000
 42
1.0000
  0
VERTEX
  8
21
 10
11.7375
 20
8.2750
 30
0.0000
  0
SEQEND
  8
0
  0
POLYLINE
  8
21
 66
1
 10
0.0000
 20
0.0000
 30
0.0000
 40
0.0250
 41
0.0250
 70
0
  0
VERTEX
  8
21
 10
11.7375
 20
11.7250
 30
0.0000
 42
1.0000
  0
VERTEX
  8
21
 10
11.7125
 20
11.7250
 30
0.0000
  0
SEQEND
  8
0
  0
POLYLINE
  8
21
 66
1
 10
0.0000
 20
0.0000
 30
0.0000
 40
0.0500
 41
0.0500
 70
0
  0
VERTEX
  8
21
 10
11.7250
 20
8.2750
 30
0.0000
  0
VERTEX
  8
21
 10
8.2750
 20
8.2750
 30
0.0000
  0
SEQEND
  8
0
  0
POLYLINE
  8
21
 66
1
 10
0.0000
 20
0.0000
 30
0.0000
 40
0.0250
 41
0.0250
 70
0
  0
VERTEX
  8
21
 10
8.2750
 20
8.2875
 30
0.0000
 42
1.0000
  0
VERTEX
  8
21
 10
8.2750
 20
8.2625
 30
0.0000
  0
SEQEND
  8
0
  0
POLYLINE
  8
21
 66
1
 10
0.0000
 20
0.0000
 30
0.0000
 40
0.0250
 41
0.0250
 70
0
  0
VERTEX
  8
21
 10
11.7250
 20
8.2625
 30
0.0000
 42
1.0000
  0
VERTEX
  8
21
 10
11.7250
 20
8.2875
 30
0.0000
  0
SEQEND
  8
0
  0
POLYLINE
  8
21
 66
1
 10
0.0000
 20
0.0000
 30
0.0000
 40
0.0500
 41
0.0500
 70
0
  0
VERTEX
  8
21
 10
8.2750
 20
8.2750
 30
0.0000
  0
VERTEX
  8
21
 10
8.2750
 20
11.7250
 30
0.0000
  0
SEQEND
  8
0
  0
POLYLINE
  8
21
 66
1
 10
0.0000
 20
0.0000
 30
0.0000
 40
0.0250
 41
0.0250
 70
0
  0
VERTEX
  8
21
 10
8.2875
 20
11.7250
 30
0.0000
 42
1.0000
  0
VERTEX
  8
21
 10
8.2625
 20
11.7250
 30
0.0000
  0
SEQEND
  8
0
  0
POLYLINE
  8
21
 66
1
 10
0.0000
 20
0.0000
 30
0.0000
 40
0.0250
 41
0.0250
 70
0
  0
VERTEX
  8
21
 10
8.2625
 20
8.2750
 30
0.0000
 42
1.0000
  0
VERTEX
  8
21
 10
8.2875
 20
8.2750
 30
0.0000
  0
SEQEND
  8
0
  0
POLYLINE
  8
21
 66
1
 10
0.0000
 20
0.0000
 30
0.0000
 40
0.0500
 41
0.0500
 70
0
  0
VERTEX
  8
21
 10
8.2750
 20
11.7250
 30
0.0000
  0
VERTEX
  8
21
 10
11.7250
 20
11.7250
 30
0.0000
  0
SEQEND
  8
0
  0
POLYLINE
  8
21
 66
1
 10
0.0000
 20
0.0000
 30
0.0000
 40
0.0250
 41
0.0250
 70
0
  0
VERTEX
  8
21
 10
11.7250
 20
11.7125
 30
0.0000
 42
1.0000
  0
VERTEX
  8
21
 10
11.7250
 20
11.7375
 30
0.0000
  0
SEQEND
  8
0
  0
POLYLINE
  8
21
 66
1
 10
0.0000
 20
0.0000
 30
0.0000
 40
0.0250
 41
0.0250
 70
0
  0
VERTEX
  8
21
 10
8.2750
 20
11.7375
 30
0.0000
 42
1.0000
  0
VERTEX
  8
21
 10
8.2750
 20
11.7125
 30
0.0000
  0
SEQEND
  8
0
  0
POLYLINE
  8
22
 66
1
 10
0.0000
 20
0.0000
 30
0.0000
 40
0.2540
 41
0.2540
 70
0
  0
VERTEX
  8
22
 10
47.4000
 20
42.7500
 30
0.0000
  0
VERTEX
  8
22
 10
47.4000
 20
45.9500
 30
0.0000
  0
SEQEND
  8
0
  0
POLYLINE
  8
22
 66
1
 10
0.0000
 20
0.0000
 30
0.0000
 40
0.1270
 41
0.1270
 70
0
  0
VERTEX
  8
22
 10
47.4635
 20
45.9500
 30
0.0000
 42
1.0000
  0
VERTEX
  8
22
 10
47.3365
 20
45.9500
 30
0.0000
  0
SEQEND
  8
0
  0
POLYLINE
  8
22
 66
1
 10
0.0000
 20
0.0000
 30
0.0000
 40
0.1270
 41
0.1270
 70
0
  0
VERTEX
  8
22
 10
47.3365
 20
42.7500
 30
0.0000
 42
1.0000
  0
VERTEX
  8
22
 10
47.4635
 20
42.7500
 30
0.0000
  0
SEQEND
  8
0
  0
POLYLINE
  8
22
 66
1
 10
0.0000
 20
0.0000
 30
0.0000
 40
0.2540
 41
0.2540
 70
0
  0
VERTEX
  8
22
 10
47.4000
 20
45.9500
 30
0.0000
  0
VERTEX
  8
22
 10
47.4000
 20
47.2500
 30
0.0000
  0
SEQEND
  8
0
  0
POLYLINE
  8
22
 66
1
 10
0.0000
 20
0.0000
 30
0.0000
 40
0.1270
 41
0.1270
 70
0
  0
VERTEX
  8
22
 10
47.4635
 20
47.2500
 30
0.0000
 42
1.0000
  0
VERTEX
  8
22
 10
47.3365
 20
47.2500
 30
0.0000
  0
SEQEND
  8
0
  0
POLYLINE
  8
22
 66
1
 10
0.0000
 20
0.0000
 30
0.0000
 40
0.1270
 41
0.1270
 70
0
  0
VERTEX
  8
22
 10
47.3365
 20
45.9500
 30
0.0000
 42
1.0000
  0
VERTEX
  8
22
 10
47.4635
 20
45.9500
 30
0.0000
  0
SEQEND
  8
0
  0
POLYLINE
  8
22
 66
1
 10
0.0000
 20
0.0000
 30
0.0000
 40
0.2540
 41
0.2540
 70
0
  0
VERTEX
  8
22
 10
47.4000
 20
47.2500
 30
0.0000
  0
VERTEX
  8
22
 10
43.6000
 20
47.2500
 30
0.0000
  0
SEQEND
  8
0
  0
POLYLINE
  8
22
 66
1
 10
0.0000
 20
0.0000
 30
0.0000
 40
0.1270
 41
0.1270
 70
0
  0
VERTEX
  8
22
 10
43.6000
 20
47.3135
 30
0.0000
 42
1.0000
  0
VERTEX
  8
22
 10
43.6000
 20
47.1865
 30
0.0000
  0
SEQEND
  8
0
  0
POLYLINE
  8
22
 66
1
 10
0.0000
 20
0.0000
 30
0.0000
 40
0.1270
 41
0.1270
 70
0
  0
VERTEX
  8
22
 10
47.4000
 20
47.1865
 30
0.0000
 42
1.0000
  0
VERTEX
  8
22
 10
47.4000
 20
47.3135
 30
0.0000
  0
SEQEND
  8
0
  0
POLYLINE
  8
22
 66
1
 10
0.0000
 20
0.0000
 30
0.0000
 40
0.2540
 41
0.2540
 70
0
  0
VERTEX
  8
22
 10
43.6000
 20
47.2500
 30
0.0000
  0
VERTEX
  8
22
 10
43.6000
 20
45.9500
 30
0.0000
  0
SEQEND
  8
0
  0
POLYLINE
  8
22
 66
1
 10
0.0000
 20
0.0000
 30
0.0000
 40
0.1270
 41
0.1270
 70
0
  0
VERTEX
  8
22
 10
43.5365
 20
45.9500
 30
0.0000
 42
1.0000
  0
VERTEX
  8
22
 10
43.6635
 20
45.9500
 30
0.0000
  0
SEQEND
  8
0
  0
POLYLINE
  8
22
 66
1
 10
0.0000
 20
0.0000
 30
0.0000
 40
0.1270
 41
0.1270
 70
0
  0
VERTEX
  8
22
 10
43.6635
 20
47.2500
 30
0.0000
 42
1.0000
  0
VERTEX
  8
22
 10
43.5365
 20
47.2500
 30
0.0000
  0
SEQEND
  8
0
  0
POLYLINE
  8
22
 66
1
 10
0.0000
 20
0.0000
 30
0.0000
 40
0.2540
 41
0.2540
 70
0
  0
VERTEX
  8
22
 10
43.6000
 20
45.9500
 30
0.0000
  0
VERTEX
  8
22
 10
43.6000
 20
42.7500
 30
0.0000
  0
SEQEND
  8
0
  0
POLYLINE
  8
22
 66
1
 10
0.0000
 20
0.0000
 30
0.0000
 40
0.1270
 41
0.1270
 70
0
  0
VERTEX
  8
22
 10
43.5365
 20
42.7500
 30
0.0000
 42
1.0000
  0
VERTEX
  8
22
 10
43.6635
 20
42.7500
 30
0.0000
  0
SEQEND
  8
0
  0
POLYLINE
  8
22
 66
1
 10
0.0000
 20
0.0000
 30
0.0000
 40
0.1270
 41
0.1270
 70
0
  0
VERTEX
  8
22
 10
43.6635
 20
45.9500
 30
0.0000
 42
1.0000
  0
VERTEX
  8
22
 10
43.5365
 20
45.9500
 30
0.0000
  0
SEQEND
  8
0
  0
POLYLINE
  8
22
 66
1
 10
0.0000
 20
0.0000
 30
0.0000
 40
0.2540
 41
0.2540
 70
0
  0
VERTEX
  8
22
 10
43.6000
 20
42.7500
 30
0.0000
  0
VERTEX
  8
22
 10
47.4000
 20
42.7500
 30
0.0000
  0
SEQEND
  8
0
  0
POLYLINE
  8
22
 66
1
 10
0.0000
 20
0.0000
 30
0.0000
 40
0.1270
 41
0.1270
 70
0
  0
VERTEX
  8
22
 10
47.4000
 20
42.6865
 30
0.0000
 42
1.0000
  0
VERTEX
  8
22
 10
47.4000
 20
42.8135
 30
0.0000
  0
SEQEND
  8
0
  0
POLYLINE
  8
22
 66
1
 10
0.0000
 20
0.0000
 30
0.0000
 40
0.1270
 41
0.1270
 70
0
  0
VERTEX
  8
22
 10
43.6000
 20
42.8135
 30
0.0000
 42
1.0000
  0
VERTEX
  8
22
 10
43.6000
 20
42.6865
 30
0.0000
  0
SEQEND
  8
0
  0
POLYLINE
  8
22
 66
1
 10
0.0000
 20
0.0000
 30
0.0000
 40
0.2540
 41
0.2540
 70
0
  0
VERTEX
  8
22
 10
47.4000
 20
45.9500
 30
0.0000
  0
VERTEX
  8
22
 10
43.6000
 20
45.9500
 30
0.0000
  0
SEQEND
  8
0
  0
POLYLINE
  8
22
 66
1
 10
0.0000
 20
0.0000
 30
0.0000
 40
0.1270
 41
0.1270
 70
0
  0
VERTEX
  8
22
 10
43.6000
 20
46.0135
 30
0.0000
 42
1.0000
  0
VERTEX
  8
22
 10
43.6000
 20
45.8865
 30
0.0000
  0
SEQEND
  8
0
  0
POLYLINE
  8
22
 66
1
 10
0.0000
 20
0.0000
 30
0.0000
 40
0.1270
 41
0.1270
 70
0
  0
VERTEX
  8
22
 10
47.4000
 20
45.8865
 30
0.0000
 42
1.0000
  0
VERTEX
  8
22
 10
47.4000
 20
46.0135
 30
0.0000
  0
SEQEND
  8
0
  0
POLYLINE
  8
22
 66
1
 10
0.0000
 20
0.0000
 30
0.0000
 40
0.2540
 41
0.2540
 70
0
  0
VERTEX
  8
22
 10
9.6500
 20
43.0000
 30
0.0000
  0
VERTEX
  8
22
 10
9.6500
 20
46.2000
 30
0.0000
  0
SEQEND
  8
0
  0
POLYLINE
  8
22
 66
1
 10
0.0000
 20
0.0000
 30
0.0000
 40
0.1270
 41
0.1270
 70
0
  0
VERTEX
  8
22
 10
9.7135
 20
46.2000
 30
0.0000
 42
1.0000
  0
VERTEX
  8
22
 10
9.5865
 20
46.2000
 30
0.0000
  0
SEQEND
  8
0
  0
POLYLINE
  8
22
 66
1
 10
0.0000
 20
0.0000
 30
0.0000
 40
0.1270
 41
0.1270
 70
0
  0
VERTEX
  8
22
 10
9.5865
 20
43.0000
 30
0.0000
 42
1.0000
  0
VERTEX
  8
22
 10
9.7135
 20
43.0000
 30
0.0000
  0
SEQEND
  8
0
  0
POLYLINE
  8
22
 66
1
 10
0.0000
 20
0.0000
 30
0.0000
 40
0.2540
 41
0.2540
 70
0
  0
VERTEX
  8
22
 10
9.6500
 20
46.2000
 30
0.0000
  0
VERTEX
  8
22
 10
9.6500
 20
47.5000
 30
0.0000
  0
SEQEND
  8
0
  0
POLYLINE
  8
22
 66
1
 10
0.0000
 20
0.0000
 30
0.0000
 40
0.1270
 41
0.1270
 70
0
  0
VERTEX
  8
22
 10
9.7135
 20
47.5000
 30
0.0000
 42
1.0000
  0
VERTEX
  8
22
 10
9.5865
 20
47.5000
 30
0.0000
  0
SEQEND
  8
0
  0
POLYLINE
  8
22
 66
1
 10
0.0000
 20
0.0000
 30
0.0000
 40
0.1270
 41
0.1270
 70
0
  0
VERTEX
  8
22
 10
9.5865
 20
46.2000
 30
0.0000
 42
1.0000
  0
VERTEX
  8
22
 10
9.7135
 20
46.2000
 30
0.0000
  0
SEQEND
  8
0
  0
POLYLINE
  8
22
 66
1
 10
0.0000
 20
0.0000
 30
0.0000
 40
0.2540
 41
0.2540
 70
0
  0
VERTEX
  8
22
 10
9.6500
 20
47.5000
 30
0.0000
  0
VERTEX
  8
22
 10
5.8500
 20
47.5000
 30
0.0000
  0
SEQEND
  8
0
  0
POLYLINE
  8
22
 66
1
 10
0.0000
 20
0.0000
 30
0.0000
 40
0.1270
 41
0.1270
 70
0
  0
VERTEX
  8
22
 10
5.8500
 20
47.5635
 30
0.0000
 42
1.0000
  0
VERTEX
  8
22
 10
5.8500
 20
47.4365
 30
0.0000
  0
SEQEND
  8
0
  0
POLYLINE
  8
22
 66
1
 10
0.0000
 20
0.0000
 30
0.0000
 40
0.1270
 41
0.1270
 70
0
  0
VERTEX
  8
22
 10
9.6500
 20
47.4365
 30
0.0000
 42
1.0000
  0
VERTEX
  8
22
 10
9.6500
 20
47.5635
 30
0.0000
  0
SEQEND
  8
0
  0
POLYLINE
  8
22
 66
1
 10
0.0000
 20
0.0000
 30
0.0000
 40
0.2540
 41
0.2540
 70
0
  0
VERTEX
  8
22
 10
5.8500
 20
47.5000
 30
0.0000
  0
VERTEX
  8
22
 10
5.8500
 20
46.2000
 30
0.0000
  0
SEQEND
  8
0
  0
POLYLINE
  8
22
 66
1
 10
0.0000
 20
0.0000
 30
0.0000
 40
0.1270
 41
0.1270
 70
0
  0
VERTEX
  8
22
 10
5.7865
 20
46.2000
 30
0.0000
 42
1.0000
  0
VERTEX
  8
22
 10
5.9135
 20
46.2000
 30
0.0000
  0
SEQEND
  8
0
  0
POLYLINE
  8
22
 66
1
 10
0.0000
 20
0.0000
 30
0.0000
 40
0.1270
 41
0.1270
 70
0
  0
VERTEX
  8
22
 10
5.9135
 20
47.5000
 30
0.0000
 42
1.0000
  0
VERTEX
  8
22
 10
5.7865
 20
47.5000
 30
0.0000
  0
SEQEND
  8
0
  0
POLYLINE
  8
22
 66
1
 10
0.0000
 20
0.0000
 30
0.0000
 40
0.2540
 41
0.2540
 70
0
  0
VERTEX
  8
22
 10
5.8500
 20
46.2000
 30
0.0000
  0
VERTEX
  8
22
 10
5.8500
 20
43.0000
 30
0.0000
  0
SEQEND
  8
0
  0
POLYLINE
  8
22
 66
1
 10
0.0000
 20
0.0000
 30
0.0000
 40
0.1270
 41
0.1270
 70
0
  0
VERTEX
  8
22
 10
5.7865
 20
43.0000
 30
0.0000
 42
1.0000
  0
VERTEX
  8
22
 10
5.9135
 20
43.0000
 30
0.0000
  0
SEQEND
  8
0
  0
POLYLINE
  8
22
 66
1
 10
0.0000
 20
0.0000
 30
0.0000
 40
0.1270
 41
0.1270
 70
0
  0
VERTEX
  8
22
 10
5.9135
 20
46.2000
 30
0.0000
 42
1.0000
  0
VERTEX
  8
22
 10
5.7865
 20
46.2000
 30
0.0000
  0
SEQEND
  8
0
  0
POLYLINE
  8
22
 66
1
 10
0.0000
 20
0.0000
 30
0.0000
 40
0.2540
 41
0.2540
 70
0
  0
VERTEX
  8
22
 10
5.8500
 20
43.0000
 30
0.0000
  0
VERTEX
  8
22
 10
9.6500
 20
43.0000
 30
0.0000
  0
SEQEND
  8
0
  0
POLYLINE
  8
22
 66
1
 10
0.0000
 20
0.0000
 30
0.0000
 40
0.1270
 41
0.1270
 70
0
  0
VERTEX
  8
22
 10
9.6500
 20
42.9365
 30
0.0000
 42
1.0000
  0
VERTEX
  8
22
 10
9.6500
 20
43.0635
 30
0.0000
  0
SEQEND
  8
0
  0
POLYLINE
  8
22
 66
1
 10
0.0000
 20
0.0000
 30
0.0000
 40
0.1270
 41
0.1270
 70
0
  0
VERTEX
  8
22
 10
5.8500
 20
43.0635
 30
0.0000
 42
1.0000
  0
VERTEX
  8
22
 10
5.8500
 20
42.9365
 30
0.0000
  0
SEQEND
  8
0
  0
POLYLINE
  8
22
 66
1
 10
0.0000
 20
0.0000
 30
0.0000
 40
0.2540
 41
0.2540
 70
0
  0
VERTEX
  8
22
 10
9.6500
 20
46.2000
 30
0.0000
  0
VERTEX
  8
22
 10
5.8500
 20
46.2000
 30
0.0000
  0
SEQEND
  8
0
  0
POLYLINE
  8
22
 66
1
 10
0.0000
 20
0.0000
 30
0.0000
 40
0.1270
 41
0.1270
 70
0
  0
VERTEX
  8
22
 10
5.8500
 20
46.2635
 30
0.0000
 42
1.0000
  0
VERTEX
  8
22
 10
5.8500
 20
46.1365
 30
0.0000
  0
SEQEND
  8
0
  0
POLYLINE
  8
22
 66
1
 10
0.0000
 20
0.0000
 30
0.0000
 40
0.1270
 41
0.1270
 70
0
  0
VERTEX
  8
22
 10
9.6500
 20
46.1365
 30
0.0000
 42
1.0000
  0
VERTEX
  8
22
 10
9.6500
 20
46.2635
 30
0.0000
  0
SEQEND
  8
0
  0
POLYLINE
  8
22
 66
1
 10
0.0000
 20
0.0000
 30
0.0000
 40
0.2540
 41
0.2540
 70
0
  0
VERTEX
  8
22
 10
66.4000
 20
42.7500
 30
0.0000
  0
VERTEX
  8
22
 10
66.4000
 20
45.9500
 30
0.0000
  0
SEQEND
  8
0
  0
POLYLINE
  8
22
 66
1
 10
0.0000
 20
0.0000
 30
0.0000
 40
0.1270
 41
0.1270
 70
0
  0
VERTEX
  8
22
 10
66.4635
 20
45.9500
 30
0.0000
 42
1.0000
  0
VERTEX
  8
22
 10
66.3365
 20
45.9500
 30
0.0000
  0
SEQEND
  8
0
  0
POLYLINE
  8
22
 66
1
 10
0.0000
 20
0.0000
 30
0.0000
 40
0.1270
 41
0.1270
 70
0
  0
VERTEX
  8
22
 10
66.3365
 20
42.7500
 30
0.0000
 42
1.0000
  0
VERTEX
  8
22
 10
66.4635
 20
42.7500
 30
0.0000
  0
SEQEND
  8
0
  0
POLYLINE
  8
22
 66
1
 10
0.0000
 20
0.0000
 30
0.0000
 40
0.2540
 41
0.2540
 70
0
  0
VERTEX
  8
22
 10
66.4000
 20
45.9500
 30
0.0000
  0
VERTEX
  8
22
 10
66.4000
 20
47.2500
 30
0.0000
  0
SEQEND
  8
0
  0
POLYLINE
  8
22
 66
1
 10
0.0000
 20
0.0000
 30
0.0000
 40
0.1270
 41
0.1270
 70
0
  0
VERTEX
  8
22
 10
66.4635
 20
47.2500
 30
0.0000
 42
1.0000
  0
VERTEX
  8
22
 10
66.3365
 20
47.2500
 30
0.0000
  0
SEQEND
  8
0
  0
POLYLINE
  8
22
 66
1
 10
0.0000
 20
0.0000
 30
0.0000
 40
0.1270
 41
0.1270
 70
0
  0
VERTEX
  8
22
 10
66.3365
 20
45.9500
 30
0.0000
 42
1.0000
  0
VERTEX
  8
22
 10
66.4635
 20
45.9500
 30
0.0000
  0
SEQEND
  8
0
  0
POLYLINE
  8
22
 66
1
 10
0.0000
 20
0.0000
 30
0.0000
 40
0.2540
 41
0.2540
 70
0
  0
VERTEX
  8
22
 10
66.4000
 20
47.2500
 30
0.0000
  0
VERTEX
  8
22
 10
62.6000
 20
47.2500
 30
0.0000
  0
SEQEND
  8
0
  0
POLYLINE
  8
22
 66
1
 10
0.0000
 20
0.0000
 30
0.0000
 40
0.1270
 41
0.1270
 70
0
  0
VERTEX
  8
22
 10
62.6000
 20
47.3135
 30
0.0000
 42
1.0000
  0
VERTEX
  8
22
 10
62.6000
 20
47.1865
 30
0.0000
  0
SEQEND
  8
0
  0
POLYLINE
  8
22
 66
1
 10
0.0000
 20
0.0000
 30
0.0000
 40
0.1270
 41
0.1270
 70
0
  0
VERTEX
  8
22
 10
66.4000
 20
47.1865
 30
0.0000
 42
1.0000
  0
VERTEX
  8
22
 10
66.4000
 20
47.3135
 30
0.0000
  0
SEQEND
  8
0
  0
POLYLINE
  8
22
 66
1
 10
0.0000
 20
0.0000
 30
0.0000
 40
0.2540
 41
0.2540
 70
0
  0
VERTEX
  8
22
 10
62.6000
 20
47.2500
 30
0.0000
  0
VERTEX
  8
22
 10
62.6000
 20
45.9500
 30
0.0000
  0
SEQEND
  8
0
  0
POLYLINE
  8
22
 66
1
 10
0.0000
 20
0.0000
 30
0.0000
 40
0.1270
 41
0.1270
 70
0
  0
VERTEX
  8
22
 10
62.5365
 20
45.9500
 30
0.0000
 42
1.0000
  0
VERTEX
  8
22
 10
62.6635
 20
45.9500
 30
0.0000
  0
SEQEND
  8
0
  0
POLYLINE
  8
22
 66
1
 10
0.0000
 20
0.0000
 30
0.0000
 40
0.1270
 41
0.1270
 70
0
  0
VERTEX
  8
22
 10
62.6635
 20
47.2500
 30
0.0000
 42
1.0000
  0
VERTEX
  8
22
 10
62.5365
 20
47.2500
 30
0.0000
  0
SEQEND
  8
0
  0
POLYLINE
  8
22
 66
1
 10
0.0000
 20
0.0000
 30
0.0000
 40
0.2540
 41
0.2540
 70
0
  0
VERTEX
  8
22
 10
62.6000
 20
45.9500
 30
0.0000
  0
VERTEX
  8
22
 10
62.6000
 20
42.7500
 30
0.0000
  0
SEQEND
  8
0
  0
POLYLINE
  8
22
 66
1
 10
0.0000
 20
0.0000
 30
0.0000
 40
0.1270
 41
0.1270
 70
0
  0
VERTEX
  8
22
 10
62.5365
 20
42.7500
 30
0.0000
 42
1.0000
  0
VERTEX
  8
22
 10
62.6635
 20
42.7500
 30
0.0000
  0
SEQEND
  8
0
  0
POLYLINE
  8
22
 66
1
 10
0.0000
 20
0.0000
 30
0.0000
 40
0.1270
 41
0.1270
 70
0
  0
VERTEX
  8
22
 10
62.6635
 20
45.9500
 30
0.0000
 42
1.0000
  0
VERTEX
  8
22
 10
62.5365
 20
45.9500
 30
0.0000
  0
SEQEND
  8
0
  0
POLYLINE
  8
22
 66
1
 10
0.0000
 20
0.0000
 30
0.0000
 40
0.2540
 41
0.2540
 70
0
  0
VERTEX
  8
22
 10
62.6000
 20
42.7500
 30
0.0000
  0
VERTEX
  8
22
 10
66.4000
 20
42.7500
 30
0.0000
  0
SEQEND
  8
0
  0
POLYLINE
  8
22
 66
1
 10
0.0000
 20
0.0000
 30
0.0000
 40
0.1270
 41
0.1270
 70
0
  0
VERTEX
  8
22
 10
66.4000
 20
42.6865
 30
0.0000
 42
1.0000
  0
VERTEX
  8
22
 10
66.4000
 20
42.8135
 30
0.0000
  0
SEQEND
  8
0
  0
POLYLINE
  8
22
 66
1
 10
0.0000
 20
0.0000
 30
0.0000
 40
0.1270
 41
0.1270
 70
0
  0
VERTEX
  8
22
 10
62.6000
 20
42.8135
 30
0.0000
 42
1.0000
  0
VERTEX
  8
22
 10
62.6000
 20
42.6865
 30
0.0000
  0
SEQEND
  8
0
  0
POLYLINE
  8
22
 66
1
 10
0.0000
 20
0.0000
 30
0.0000
 40
0.2540
 41
0.2540
 70
0
  0
VERTEX
  8
22
 10
66.4000
 20
45.9500
 30
0.0000
  0
VERTEX
  8
22
 10
62.6000
 20
45.9500
 30
0.0000
  0
SEQEND
  8
0
  0
POLYLINE
  8
22
 66
1
 10
0.0000
 20
0.0000
 30
0.0000
 40
0.1270
 41
0.1270
 70
0
  0
VERTEX
  8
22
 10
62.6000
 20
46.0135
 30
0.0000
 42
1.0000
  0
VERTEX
  8
22
 10
62.6000
 20
45.8865
 30
0.0000
  0
SEQEND
  8
0
  0
POLYLINE
  8
22
 66
1
 10
0.0000
 20
0.0000
 30
0.0000
 40
0.1270
 41
0.1270
 70
0
  0
VERTEX
  8
22
 10
66.4000
 20
45.8865
 30
0.0000
 42
1.0000
  0
VERTEX
  8
22
 10
66.4000
 20
46.0135
 30
0.0000
  0
SEQEND
  8
0
  0
POLYLINE
  8
22
 66
1
 10
0.0000
 20
0.0000
 30
0.0000
 40
0.2540
 41
0.2540
 70
0
  0
VERTEX
  8
22
 10
28.0700
 20
42.7500
 30
0.0000
  0
VERTEX
  8
22
 10
28.0700
 20
45.9500
 30
0.0000
  0
SEQEND
  8
0
  0
POLYLINE
  8
22
 66
1
 10
0.0000
 20
0.0000
 30
0.0000
 40
0.1270
 41
0.1270
 70
0
  0
VERTEX
  8
22
 10
28.1335
 20
45.9500
 30
0.0000
 42
1.0000
  0
VERTEX
  8
22
 10
28.0065
 20
45.9500
 30
0.0000
  0
SEQEND
  8
0
  0
POLYLINE
  8
22
 66
1
 10
0.0000
 20
0.0000
 30
0.0000
 40
0.1270
 41
0.1270
 70
0
  0
VERTEX
  8
22
 10
28.0065
 20
42.7500
 30
0.0000
 42
1.0000
  0
VERTEX
  8
22
 10
28.1335
 20
42.7500
 30
0.0000
  0
SEQEND
  8
0
  0
POLYLINE
  8
22
 66
1
 10
0.0000
 20
0.0000
 30
0.0000
 40
0.2540
 41
0.2540
 70
0
  0
VERTEX
  8
22
 10
28.0700
 20
45.9500
 30
0.0000
  0
VERTEX
  8
22
 10
28.0700
 20
47.2500
 30
0.0000
  0
SEQEND
  8
0
  0
POLYLINE
  8
22
 66
1
 10
0.0000
 20
0.0000
 30
0.0000
 40
0.1270
 41
0.1270
 70
0
  0
VERTEX
  8
22
 10
28.1335
 20
47.2500
 30
0.0000
 42
1.0000
  0
VERTEX
  8
22
 10
28.0065
 20
47.2500
 30
0.0000
  0
SEQEND
  8
0
  0
POLYLINE
  8
22
 66
1
 10
0.0000
 20
0.0000
 30
0.0000
 40
0.1270
 41
0.1270
 70
0
  0
VERTEX
  8
22
 10
28.0065
 20
45.9500
 30
0.0000
 42
1.0000
  0
VERTEX
  8
22
 10
28.1335
 20
45.9500
 30
0.0000
  0
SEQEND
  8
0
  0
POLYLINE
  8
22
 66
1
 10
0.0000
 20
0.0000
 30
0.0000
 40
0.2540
 41
0.2540
 70
0
  0
VERTEX
  8
22
 10
28.0700
 20
47.2500
 30
0.0000
  0
VERTEX
  8
22
 10
24.2700
 20
47.2500
 30
0.0000
  0
SEQEND
  8
0
  0
POLYLINE
  8
22
 66
1
 10
0.0000
 20
0.0000
 30
0.0000
 40
0.1270
 41
0.1270
 70
0
  0
VERTEX
  8
22
 10
24.2700
 20
47.3135
 30
0.0000
 42
1.0000
  0
VERTEX
  8
22
 10
24.2700
 20
47.1865
 30
0.0000
  0
SEQEND
  8
0
  0
POLYLINE
  8
22
 66
1
 10
0.0000
 20
0.0000
 30
0.0000
 40
0.1270
 41
0.1270
 70
0
  0
VERTEX
  8
22
 10
28.0700
 20
47.1865
 30
0.0000
 42
1.0000
  0
VERTEX
  8
22
 10
28.0700
 20
47.3135
 30
0.0000
  0
SEQEND
  8
0
  0
POLYLINE
  8
22
 66
1
 10
0.0000
 20
0.0000
 30
0.0000
 40
0.2540
 41
0.2540
 70
0
  0
VERTEX
  8
22
 10
24.2700
 20
47.2500
 30
0.0000
  0
VERTEX
  8
22
 10
24.2700
 20
45.9500
 30
0.0000
  0
SEQEND
  8
0
  0
POLYLINE
  8
22
 66
1
 10
0.0000
 20
0.0000
 30
0.0000
 40
0.1270
 41
0.1270
 70
0
  0
VERTEX
  8
22
 10
24.2065
 20
45.9500
 30
0.0000
 42
1.0000
  0
VERTEX
  8
22
 10
24.3335
 20
45.9500
 30
0.0000
  0
SEQEND
  8
0
  0
POLYLINE
  8
22
 66
1
 10
0.0000
 20
0.0000
 30
0.0000
 40
0.1270
 41
0.1270
 70
0
  0
VERTEX
  8
22
 10
24.3335
 20
47.2500
 30
0.0000
 42
1.0000
  0
VERTEX
  8
22
 10
24.2065
 20
47.2500
 30
0.0000
  0
SEQEND
  8
0
  0
POLYLINE
  8
22
 66
1
 10
0.0000
 20
0.0000
 30
0.0000
 40
0.2540
 41
0.2540
 70
0
  0
VERTEX
  8
22
 10
24.2700
 20
45.9500
 30
0.0000
  0
VERTEX
  8
22
 10
24.2700
 20
42.7500
 30
0.0000
  0
SEQEND
  8
0
  0
POLYLINE
  8
22
 66
1
 10
0.0000
 20
0.0000
 30
0.0000
 40
0.1270
 41
0.1270
 70
0
  0
VERTEX
  8
22
 10
24.2065
 20
42.7500
 30
0.0000
 42
1.0000
  0
VERTEX
  8
22
 10
24.3335
 20
42.7500
 30
0.0000
  0
SEQEND
  8
0
  0
POLYLINE
  8
22
 66
1
 10
0.0000
 20
0.0000
 30
0.0000
 40
0.1270
 41
0.1270
 70
0
  0
VERTEX
  8
22
 10
24.3335
 20
45.9500
 30
0.0000
 42
1.0000
  0
VERTEX
  8
22
 10
24.2065
 20
45.9500
 30
0.0000
  0
SEQEND
  8
0
  0
POLYLINE
  8
22
 66
1
 10
0.0000
 20
0.0000
 30
0.0000
 40
0.2540
 41
0.2540
 70
0
  0
VERTEX
  8
22
 10
24.2700
 20
42.7500
 30
0.0000
  0
VERTEX
  8
22
 10
28.0700
 20
42.7500
 30
0.0000
  0
SEQEND
  8
0
  0
POLYLINE
  8
22
 66
1
 10
0.0000
 20
0.0000
 30
0.0000
 40
0.1270
 41
0.1270
 70
0
  0
VERTEX
  8
22
 10
28.0700
 20
42.6865
 30
0.0000
 42
1.0000
  0
VERTEX
  8
22
 10
28.0700
 20
42.8135
 30
0.0000
  0
SEQEND
  8
0
  0
POLYLINE
  8
22
 66
1
 10
0.0000
 20
0.0000
 30
0.0000
 40
0.1270
 41
0.1270
 70
0
  0
VERTEX
  8
22
 10
24.2700
 20
42.8135
 30
0.0000
 42
1.0000
  0
VERTEX
  8
22
 10
24.2700
 20
42.6865
 30
0.0000
  0
SEQEND
  8
0
  0
POLYLINE
  8
22
 66
1
 10
0.0000
 20
0.0000
 30
0.0000
 40
0.2540
 41
0.2540
 70
0
  0
VERTEX
  8
22
 10
28.0700
 20
45.9500
 30
0.0000
  0
VERTEX
  8
22
 10
24.2700
 20
45.9500
 30
0.0000
  0
SEQEND
  8
0
  0
POLYLINE
  8
22
 66
1
 10
0.0000
 20
0.0000
 30
0.0000
 40
0.1270
 41
0.1270
 70
0
  0
VERTEX
  8
22
 10
24.2700
 20
46.0135
 30
0.0000
 42
1.0000
  0
VERTEX
  8
22
 10
24.2700
 20
45.8865
 30
0.0000
  0
SEQEND
  8
0
  0
POLYLINE
  8
22
 66
1
 10
0.0000
 20
0.0000
 30
0.0000
 40
0.1270
 41
0.1270
 70
0
  0
VERTEX
  8
22
 10
28.0700
 20
45.8865
 30
0.0000
 42
1.0000
  0
VERTEX
  8
22
 10
28.0700
 20
46.0135
 30
0.0000
  0
SEQEND
  8
0
  0
POLYLINE
  8
22
 66
1
 10
0.0000
 20
0.0000
 30
0.0000
 40
0.1270
 41
0.1270
 70
0
  0
VERTEX
  8
22
 10
26.6750
 20
-5.9000
 30
0.0000
  0
VERTEX
  8
22
 10
31.0000
 20
-5.9000
 30
0.0000
  0
SEQEND
  8
0
  0
POLYLINE
  8
22
 66
1
 10
0.0000
 20
0.0000
 30
0.0000
 40
0.0635
 41
0.0635
 70
0
  0
VERTEX
  8
22
 10
31.0000
 20
-5.9318
 30
0.0000
 42
1.0000
  0
VERTEX
  8
22
 10
31.0000
 20
-5.8683
 30
0.0000
  0
SEQEND
  8
0
  0
POLYLINE
  8
22
 66
1
 10
0.0000
 20
0.0000
 30
0.0000
 40
0.0635
 41
0.0635
 70
0
  0
VERTEX
  8
22
 10
26.6750
 20
-5.8683
 30
0.0000
 42
1.0000
  0
VERTEX
  8
22
 10
26.6750
 20
-5.9318
 30
0.0000
  0
SEQEND
  8
0
  0
POLYLINE
  8
22
 66
1
 10
0.0000
 20
0.0000
 30
0.0000
 40
0.1270
 41
0.1270
 70
0
  0
VERTEX
  8
22
 10
31.0000
 20
-5.9000
 30
0.0000
  0
VERTEX
  8
22
 10
32.0000
 20
-5.9000
 30
0.0000
  0
SEQEND
  8
0
  0
POLYLINE
  8
22
 66
1
 10
0.0000
 20
0.0000
 30
0.0000
 40
0.0635
 41
0.0635
 70
0
  0
VERTEX
  8
22
 10
32.0000
 20
-5.9318
 30
0.0000
 42
1.0000
  0
VERTEX
  8
22
 10
32.0000
 20
-5.8683
 30
0.0000
  0
SEQEND
  8
0
  0
POLYLINE
  8
22
 66
1
 10
0.0000
 20
0.0000
 30
0.0000
 40
0.0635
 41
0.0635
 70
0
  0
VERTEX
  8
22
 10
31.0000
 20
-5.8683
 30
0.0000
 42
1.0000
  0
VERTEX
  8
22
 10
31.0000
 20
-5.9318
 30
0.0000
  0
SEQEND
  8
0
  0
POLYLINE
  8
22
 66
1
 10
0.0000
 20
0.0000
 30
0.0000
 40
0.1270
 41
0.1270
 70
0
  0
VERTEX
  8
22
 10
32.0000
 20
-5.9000
 30
0.0000
  0
VERTEX
  8
22
 10
36.3250
 20
-5.9000
 30
0.0000
  0
SEQEND
  8
0
  0
POLYLINE
  8
22
 66
1
 10
0.0000
 20
0.0000
 30
0.0000
 40
0.0635
 41
0.0635
 70
0
  0
VERTEX
  8
22
 10
36.3250
 20
-5.9318
 30
0.0000
 42
1.0000
  0
VERTEX
  8
22
 10
36.3250
 20
-5.8683
 30
0.0000
  0
SEQEND
  8
0
  0
POLYLINE
  8
22
 66
1
 10
0.0000
 20
0.0000
 30
0.0000
 40
0.0635
 41
0.0635
 70
0
  0
VERTEX
  8
22
 10
32.0000
 20
-5.8683
 30
0.0000
 42
1.0000
  0
VERTEX
  8
22
 10
32.0000
 20
-5.9318
 30
0.0000
  0
SEQEND
  8
0
  0
POLYLINE
  8
22
 66
1
 10
0.0000
 20
0.0000
 30
0.0000
 40
0.1270
 41
0.1270
 70
0
  0
VERTEX
  8
22
 10
36.3250
 20
-5.9000
 30
0.0000
  0
VERTEX
  8
22
 10
36.3250
 20
-1.5300
 30
0.0000
  0
SEQEND
  8
0
  0
POLYLINE
  8
22
 66
1
 10
0.0000
 20
0.0000
 30
0.0000
 40
0.0635
 41
0.0635
 70
0
  0
VERTEX
  8
22
 10
36.3568
 20
-1.5300
 30
0.0000
 42
1.0000
  0
VERTEX
  8
22
 10
36.2933
 20
-1.5300
 30
0.0000
  0
SEQEND
  8
0
  0
POLYLINE
  8
22
 66
1
 10
0.0000
 20
0.0000
 30
0.0000
 40
0.0635
 41
0.0635
 70
0
  0
VERTEX
  8
22
 10
36.2933
 20
-5.9000
 30
0.0000
 42
1.0000
  0
VERTEX
  8
22
 10
36.3568
 20
-5.9000
 30
0.0000
  0
SEQEND
  8
0
  0
POLYLINE
  8
22
 66
1
 10
0.0000
 20
0.0000
 30
0.0000
 40
0.1270
 41
0.1270
 70
0
  0
VERTEX
  8
22
 10
36.3250
 20
-1.5300
 30
0.0000
  0
VERTEX
  8
22
 10
33.2500
 20
-1.5300
 30
0.0000
  0
SEQEND
  8
0
  0
POLYLINE
  8
22
 66
1
 10
0.0000
 20
0.0000
 30
0.0000
 40
0.0635
 41
0.0635
 70
0
  0
VERTEX
  8
22
 10
33.2500
 20
-1.4983
 30
0.0000
 42
1.0000
  0
VERTEX
  8
22
 10
33.2500
 20
-1.5617
 30
0.0000
  0
SEQEND
  8
0
  0
POLYLINE
  8
22
 66
1
 10
0.0000
 20
0.0000
 30
0.0000
 40
0.0635
 41
0.0635
 70
0
  0
VERTEX
  8
22
 10
36.3250
 20
-1.5617
 30
0.0000
 42
1.0000
  0
VERTEX
  8
22
 10
36.3250
 20
-1.4983
 30
0.0000
  0
SEQEND
  8
0
  0
POLYLINE
  8
22
 66
1
 10
0.0000
 20
0.0000
 30
0.0000
 40
0.1270
 41
0.1270
 70
0
  0
VERTEX
  8
22
 10
33.2500
 20
-1.5300
 30
0.0000
  0
VERTEX
  8
22
 10
32.2500
 20
-1.5300
 30
0.0000
  0
SEQEND
  8
0
  0
POLYLINE
  8
22
 66
1
 10
0.0000
 20
0.0000
 30
0.0000
 40
0.0635
 41
0.0635
 70
0
  0
VERTEX
  8
22
 10
32.2500
 20
-1.4983
 30
0.0000
 42
1.0000
  0
VERTEX
  8
22
 10
32.2500
 20
-1.5617
 30
0.0000
  0
SEQEND
  8
0
  0
POLYLINE
  8
22
 66
1
 10
0.0000
 20
0.0000
 30
0.0000
 40
0.0635
 41
0.0635
 70
0
  0
VERTEX
  8
22
 10
33.2500
 20
-1.5617
 30
0.0000
 42
1.0000
  0
VERTEX
  8
22
 10
33.2500
 20
-1.4983
 30
0.0000
  0
SEQEND
  8
0
  0
POLYLINE
  8
22
 66
1
 10
0.0000
 20
0.0000
 30
0.0000
 40
0.1270
 41
0.1270
 70
0
  0
VERTEX
  8
22
 10
32.2500
 20
-1.5300
 30
0.0000
  0
VERTEX
  8
22
 10
30.7500
 20
-1.5300
 30
0.0000
  0
SEQEND
  8
0
  0
POLYLINE
  8
22
 66
1
 10
0.0000
 20
0.0000
 30
0.0000
 40
0.0635
 41
0.0635
 70
0
  0
VERTEX
  8
22
 10
30.7500
 20
-1.4983
 30
0.0000
 42
1.0000
  0
VERTEX
  8
22
 10
30.7500
 20
-1.5617
 30
0.0000
  0
SEQEND
  8
0
  0
POLYLINE
  8
22
 66
1
 10
0.0000
 20
0.0000
 30
0.0000
 40
0.0635
 41
0.0635
 70
0
  0
VERTEX
  8
22
 10
32.2500
 20
-1.5617
 30
0.0000
 42
1.0000
  0
VERTEX
  8
22
 10
32.2500
 20
-1.4983
 30
0.0000
  0
SEQEND
  8
0
  0
POLYLINE
  8
22
 66
1
 10
0.0000
 20
0.0000
 30
0.0000
 40
0.1270
 41
0.1270
 70
0
  0
VERTEX
  8
22
 10
30.7500
 20
-1.5300
 30
0.0000
  0
VERTEX
  8
22
 10
29.7500
 20
-1.5300
 30
0.0000
  0
SEQEND
  8
0
  0
POLYLINE
  8
22
 66
1
 10
0.0000
 20
0.0000
 30
0.0000
 40
0.0635
 41
0.0635
 70
0
  0
VERTEX
  8
22
 10
29.7500
 20
-1.4983
 30
0.0000
 42
1.0000
  0
VERTEX
  8
22
 10
29.7500
 20
-1.5617
 30
0.0000
  0
SEQEND
  8
0
  0
POLYLINE
  8
22
 66
1
 10
0.0000
 20
0.0000
 30
0.0000
 40
0.0635
 41
0.0635
 70
0
  0
VERTEX
  8
22
 10
30.7500
 20
-1.5617
 30
0.0000
 42
1.0000
  0
VERTEX
  8
22
 10
30.7500
 20
-1.4983
 30
0.0000
  0
SEQEND
  8
0
  0
POLYLINE
  8
22
 66
1
 10
0.0000
 20
0.0000
 30
0.0000
 40
0.1270
 41
0.1270
 70
0
  0
VERTEX
  8
22
 10
29.7500
 20
-1.5300
 30
0.0000
  0
VERTEX
  8
22
 10
26.6750
 20
-1.5300
 30
0.0000
  0
SEQEND
  8
0
  0
POLYLINE
  8
22
 66
1
 10
0.0000
 20
0.0000
 30
0.0000
 40
0.0635
 41
0.0635
 70
0
  0
VERTEX
  8
22
 10
26.6750
 20
-1.4983
 30
0.0000
 42
1.0000
  0
VERTEX
  8
22
 10
26.6750
 20
-1.5617
 30
0.0000
  0
SEQEND
  8
0
  0
POLYLINE
  8
22
 66
1
 10
0.0000
 20
0.0000
 30
0.0000
 40
0.0635
 41
0.0635
 70
0
  0
VERTEX
  8
22
 10
29.7500
 20
-1.5617
 30
0.0000
 42
1.0000
  0
VERTEX
  8
22
 10
29.7500
 20
-1.4983
 30
0.0000
  0
SEQEND
  8
0
  0
POLYLINE
  8
22
 66
1
 10
0.0000
 20
0.0000
 30
0.0000
 40
0.1270
 41
0.1270
 70
0
  0
VERTEX
  8
22
 10
26.6750
 20
-1.5300
 30
0.0000
  0
VERTEX
  8
22
 10
26.6750
 20
-5.9000
 30
0.0000
  0
SEQEND
  8
0
  0
POLYLINE
  8
22
 66
1
 10
0.0000
 20
0.0000
 30
0.0000
 40
0.0635
 41
0.0635
 70
0
  0
VERTEX
  8
22
 10
26.6433
 20
-5.9000
 30
0.0000
 42
1.0000
  0
VERTEX
  8
22
 10
26.7067
 20
-5.9000
 30
0.0000
  0
SEQEND
  8
0
  0
POLYLINE
  8
22
 66
1
 10
0.0000
 20
0.0000
 30
0.0000
 40
0.0635
 41
0.0635
 70
0
  0
VERTEX
  8
22
 10
26.7067
 20
-1.5300
 30
0.0000
 42
1.0000
  0
VERTEX
  8
22
 10
26.6433
 20
-1.5300
 30
0.0000
  0
SEQEND
  8
0
  0
POLYLINE
  8
22
 66
1
 10
0.0000
 20
0.0000
 30
0.0000
 40
0.1270
 41
0.1270
 70
0
  0
VERTEX
  8
22
 10
31.0000
 20
-5.9000
 30
0.0000
  0
VERTEX
  8
22
 10
31.0000
 20
-6.5000
 30
0.0000
  0
SEQEND
  8
0
  0
POLYLINE
  8
22
 66
1
 10
0.0000
 20
0.0000
 30
0.0000
 40
0.0635
 41
0.0635
 70
0
  0
VERTEX
  8
22
 10
30.9683
 20
-6.5000
 30
0.0000
 42
1.0000
  0
VERTEX
  8
22
 10
31.0317
 20
-6.5000
 30
0.0000
  0
SEQEND
  8
0
  0
POLYLINE
  8
22
 66
1
 10
0.0000
 20
0.0000
 30
0.0000
 40
0.0635
 41
0.0635
 70
0
  0
VERTEX
  8
22
 10
31.0317
 20
-5.9000
 30
0.0000
 42
1.0000
  0
VERTEX
  8
22
 10
30.9683
 20
-5.9000
 30
0.0000
  0
SEQEND
  8
0
  0
POLYLINE
  8
22
 66
1
 10
0.0000
 20
0.0000
 30
0.0000
 40
0.1270
 41
0.1270
 70
0
  0
VERTEX
  8
22
 10
31.0000
 20
-6.5000
 30
0.0000
  0
VERTEX
  8
22
 10
32.0000
 20
-6.5000
 30
0.0000
  0
SEQEND
  8
0
  0
POLYLINE
  8
22
 66
1
 10
0.0000
 20
0.0000
 30
0.0000
 40
0.0635
 41
0.0635
 70
0
  0
VERTEX
  8
22
 10
32.0000
 20
-6.5317
 30
0.0000
 42
1.0000
  0
VERTEX
  8
22
 10
32.0000
 20
-6.4683
 30
0.0000
  0
SEQEND
  8
0
  0
POLYLINE
  8
22
 66
1
 10
0.0000
 20
0.0000
 30
0.0000
 40
0.0635
 41
0.0635
 70
0
  0
VERTEX
  8
22
 10
31.0000
 20
-6.4683
 30
0.0000
 42
1.0000
  0
VERTEX
  8
22
 10
31.0000
 20
-6.5317
 30
0.0000
  0
SEQEND
  8
0
  0
POLYLINE
  8
22
 66
1
 10
0.0000
 20
0.0000
 30
0.0000
 40
0.1270
 41
0.1270
 70
0
  0
VERTEX
  8
22
 10
32.0000
 20
-6.5000
 30
0.0000
  0
VERTEX
  8
22
 10
32.0000
 20
-5.9000
 30
0.0000
  0
SEQEND
  8
0
  0
POLYLINE
  8
22
 66
1
 10
0.0000
 20
0.0000
 30
0.0000
 40
0.0635
 41
0.0635
 70
0
  0
VERTEX
  8
22
 10
32.0318
 20
-5.9000
 30
0.0000
 42
1.0000
  0
VERTEX
  8
22
 10
31.9683
 20
-5.9000
 30
0.0000
  0
SEQEND
  8
0
  0
POLYLINE
  8
22
 66
1
 10
0.0000
 20
0.0000
 30
0.0000
 40
0.0635
 41
0.0635
 70
0
  0
VERTEX
  8
22
 10
31.9683
 20
-6.5000
 30
0.0000
 42
1.0000
  0
VERTEX
  8
22
 10
32.0318
 20
-6.5000
 30
0.0000
  0
SEQEND
  8
0
  0
POLYLINE
  8
22
 66
1
 10
0.0000
 20
0.0000
 30
0.0000
 40
0.1270
 41
0.1270
 70
0
  0
VERTEX
  8
22
 10
30.7500
 20
-1.5300
 30
0.0000
  0
VERTEX
  8
22
 10
30.7500
 20
-0.9300
 30
0.0000
  0
SEQEND
  8
0
  0
POLYLINE
  8
22
 66
1
 10
0.0000
 20
0.0000
 30
0.0000
 40
0.0635
 41
0.0635
 70
0
  0
VERTEX
  8
22
 10
30.7817
 20
-0.9300
 30
0.0000
 42
1.0000
  0
VERTEX
  8
22
 10
30.7183
 20
-0.9300
 30
0.0000
  0
SEQEND
  8
0
  0
POLYLINE
  8
22
 66
1
 10
0.0000
 20
0.0000
 30
0.0000
 40
0.0635
 41
0.0635
 70
0
  0
VERTEX
  8
22
 10
30.7183
 20
-1.5300
 30
0.0000
 42
1.0000
  0
VERTEX
  8
22
 10
30.7817
 20
-1.5300
 30
0.0000
  0
SEQEND
  8
0
  0
POLYLINE
  8
22
 66
1
 10
0.0000
 20
0.0000
 30
0.0000
 40
0.1270
 41
0.1270
 70
0
  0
VERTEX
  8
22
 10
30.7500
 20
-0.9300
 30
0.0000
  0
VERTEX
  8
22
 10
29.7500
 20
-0.9300
 30
0.0000
  0
SEQEND
  8
0
  0
POLYLINE
  8
22
 66
1
 10
0.0000
 20
0.0000
 30
0.0000
 40
0.0635
 41
0.0635
 70
0
  0
VERTEX
  8
22
 10
29.7500
 20
-0.8982
 30
0.0000
 42
1.0000
  0
VERTEX
  8
22
 10
29.7500
 20
-0.9618
 30
0.0000
  0
SEQEND
  8
0
  0
POLYLINE
  8
22
 66
1
 10
0.0000
 20
0.0000
 30
0.0000
 40
0.0635
 41
0.0635
 70
0
  0
VERTEX
  8
22
 10
30.7500
 20
-0.9618
 30
0.0000
 42
1.0000
  0
VERTEX
  8
22
 10
30.7500
 20
-0.8982
 30
0.0000
  0
SEQEND
  8
0
  0
POLYLINE
  8
22
 66
1
 10
0.0000
 20
0.0000
 30
0.0000
 40
0.1270
 41
0.1270
 70
0
  0
VERTEX
  8
22
 10
29.7500
 20
-0.9300
 30
0.0000
  0
VERTEX
  8
22
 10
29.7500
 20
-1.5300
 30
0.0000
  0
SEQEND
  8
0
  0
POLYLINE
  8
22
 66
1
 10
0.0000
 20
0.0000
 30
0.0000
 40
0.0635
 41
0.0635
 70
0
  0
VERTEX
  8
22
 10
29.7183
 20
-1.5300
 30
0.0000
 42
1.0000
  0
VERTEX
  8
22
 10
29.7817
 20
-1.5300
 30
0.0000
  0
SEQEND
  8
0
  0
POLYLINE
  8
22
 66
1
 10
0.0000
 20
0.0000
 30
0.0000
 40
0.0635
 41
0.0635
 70
0
  0
VERTEX
  8
22
 10
29.7817
 20
-0.9300
 30
0.0000
 42
1.0000
  0
VERTEX
  8
22
 10
29.7183
 20
-0.9300
 30
0.0000
  0
SEQEND
  8
0
  0
POLYLINE
  8
22
 66
1
 10
0.0000
 20
0.0000
 30
0.0000
 40
0.1270
 41
0.1270
 70
0
  0
VERTEX
  8
22
 10
32.2500
 20
-1.5300
 30
0.0000
  0
VERTEX
  8
22
 10
32.2500
 20
-0.9300
 30
0.0000
  0
SEQEND
  8
0
  0
POLYLINE
  8
22
 66
1
 10
0.0000
 20
0.0000
 30
0.0000
 40
0.0635
 41
0.0635
 70
0
  0
VERTEX
  8
22
 10
32.2818
 20
-0.9300
 30
0.0000
 42
1.0000
  0
VERTEX
  8
22
 10
32.2182
 20
-0.9300
 30
0.0000
  0
SEQEND
  8
0
  0
POLYLINE
  8
22
 66
1
 10
0.0000
 20
0.0000
 30
0.0000
 40
0.0635
 41
0.0635
 70
0
  0
VERTEX
  8
22
 10
32.2182
 20
-1.5300
 30
0.0000
 42
1.0000
  0
VERTEX
  8
22
 10
32.2818
 20
-1.5300
 30
0.0000
  0
SEQEND
  8
0
  0
POLYLINE
  8
22
 66
1
 10
0.0000
 20
0.0000
 30
0.0000
 40
0.1270
 41
0.1270
 70
0
  0
VERTEX
  8
22
 10
32.2500
 20
-0.9300
 30
0.0000
  0
VERTEX
  8
22
 10
33.2500
 20
-0.9300
 30
0.0000
  0
SEQEND
  8
0
  0
POLYLINE
  8
22
 66
1
 10
0.0000
 20
0.0000
 30
0.0000
 40
0.0635
 41
0.0635
 70
0
  0
VERTEX
  8
22
 10
33.2500
 20
-0.9618
 30
0.0000
 42
1.0000
  0
VERTEX
  8
22
 10
33.2500
 20
-0.8982
 30
0.0000
  0
SEQEND
  8
0
  0
POLYLINE
  8
22
 66
1
 10
0.0000
 20
0.0000
 30
0.0000
 40
0.0635
 41
0.0635
 70
0
  0
VERTEX
  8
22
 10
32.2500
 20
-0.8982
 30
0.0000
 42
1.0000
  0
VERTEX
  8
22
 10
32.2500
 20
-0.9618
 30
0.0000
  0
SEQEND
  8
0
  0
POLYLINE
  8
22
 66
1
 10
0.0000
 20
0.0000
 30
0.0000
 40
0.1270
 41
0.1270
 70
0
  0
VERTEX
  8
22
 10
33.2500
 20
-0.9300
 30
0.0000
  0
VERTEX
  8
22
 10
33.2500
 20
-1.5300
 30
0.0000
  0
SEQEND
  8
0
  0
POLYLINE
  8
22
 66
1
 10
0.0000
 20
0.0000
 30
0.0000
 40
0.0635
 41
0.0635
 70
0
  0
VERTEX
  8
22
 10
33.2182
 20
-1.5300
 30
0.0000
 42
1.0000
  0
VERTEX
  8
22
 10
33.2818
 20
-1.5300
 30
0.0000
  0
SEQEND
  8
0
  0
POLYLINE
  8
22
 66
1
 10
0.0000
 20
0.0000
 30
0.0000
 40
0.0635
 41
0.0635
 70
0
  0
VERTEX
  8
22
 10
33.2818
 20
-0.9300
 30
0.0000
 42
1.0000
  0
VERTEX
  8
22
 10
33.2182
 20
-0.9300
 30
0.0000
  0
SEQEND
  8
0
  0
POLYLINE
  8
22
 66
1
 10
0.0000
 20
0.0000
 30
0.0000
 40
0.1270
 41
0.1270
 70
0
  0
VERTEX
  8
22
 10
31.7500
 20
-5.2500
 30
0.0000
  0
VERTEX
  8
22
 10
34.2500
 20
-5.2500
 30
0.0000
  0
SEQEND
  8
0
  0
POLYLINE
  8
22
 66
1
 10
0.0000
 20
0.0000
 30
0.0000
 40
0.0635
 41
0.0635
 70
0
  0
VERTEX
  8
22
 10
34.2500
 20
-5.2817
 30
0.0000
 42
1.0000
  0
VERTEX
  8
22
 10
34.2500
 20
-5.2183
 30
0.0000
  0
SEQEND
  8
0
  0
POLYLINE
  8
22
 66
1
 10
0.0000
 20
0.0000
 30
0.0000
 40
0.0635
 41
0.0635
 70
0
  0
VERTEX
  8
22
 10
31.7500
 20
-5.2183
 30
0.0000
 42
1.0000
  0
VERTEX
  8
22
 10
31.7500
 20
-5.2817
 30
0.0000
  0
SEQEND
  8
0
  0
POLYLINE
  8
22
 66
1
 10
0.0000
 20
0.0000
 30
0.0000
 40
0.1270
 41
0.1270
 70
0
  0
VERTEX
  8
22
 10
34.2500
 20
-5.2500
 30
0.0000
  0
VERTEX
  8
22
 10
34.2500
 20
-3.2500
 30
0.0000
  0
SEQEND
  8
0
  0
POLYLINE
  8
22
 66
1
 10
0.0000
 20
0.0000
 30
0.0000
 40
0.0635
 41
0.0635
 70
0
  0
VERTEX
  8
22
 10
34.2818
 20
-3.2500
 30
0.0000
 42
1.0000
  0
VERTEX
  8
22
 10
34.2182
 20
-3.2500
 30
0.0000
  0
SEQEND
  8
0
  0
POLYLINE
  8
22
 66
1
 10
0.0000
 20
0.0000
 30
0.0000
 40
0.0635
 41
0.0635
 70
0
  0
VERTEX
  8
22
 10
34.2182
 20
-5.2500
 30
0.0000
 42
1.0000
  0
VERTEX
  8
22
 10
34.2818
 20
-5.2500
 30
0.0000
  0
SEQEND
  8
0
  0
POLYLINE
  8
22
 66
1
 10
0.0000
 20
0.0000
 30
0.0000
 40
0.1270
 41
0.1270
 70
0
  0
VERTEX
  8
22
 10
34.2500
 20
-3.2500
 30
0.0000
  0
VERTEX
  8
22
 10
33.7500
 20
-2.7500
 30
0.0000
  0
SEQEND
  8
0
  0
POLYLINE
  8
22
 66
1
 10
0.0000
 20
0.0000
 30
0.0000
 40
0.0635
 41
0.0635
 70
0
  0
VERTEX
  8
22
 10
33.7725
 20
-2.7275
 30
0.0000
 42
1.0000
  0
VERTEX
  8
22
 10
33.7275
 20
-2.7725
 30
0.0000
  0
SEQEND
  8
0
  0
POLYLINE
  8
22
 66
1
 10
0.0000
 20
0.0000
 30
0.0000
 40
0.0635
 41
0.0635
 70
0
  0
VERTEX
  8
22
 10
34.2275
 20
-3.2725
 30
0.0000
 42
1.0000
  0
VERTEX
  8
22
 10
34.2725
 20
-3.2275
 30
0.0000
  0
SEQEND
  8
0
  0
POLYLINE
  8
22
 66
1
 10
0.0000
 20
0.0000
 30
0.0000
 40
0.1270
 41
0.1270
 70
0
  0
VERTEX
  8
22
 10
33.7500
 20
-2.7500
 30
0.0000
  0
VERTEX
  8
22
 10
31.7500
 20
-2.7500
 30
0.0000
  0
SEQEND
  8
0
  0
POLYLINE
  8
22
 66
1
 10
0.0000
 20
0.0000
 30
0.0000
 40
0.0635
 41
0.0635
 70
0
  0
VERTEX
  8
22
 10
31.7500
 20
-2.7182
 30
0.0000
 42
1.0000
  0
VERTEX
  8
22
 10
31.7500
 20
-2.7818
 30
0.0000
  0
SEQEND
  8
0
  0
POLYLINE
  8
22
 66
1
 10
0.0000
 20
0.0000
 30
0.0000
 40
0.0635
 41
0.0635
 70
0
  0
VERTEX
  8
22
 10
33.7500
 20
-2.7818
 30
0.0000
 42
1.0000
  0
VERTEX
  8
22
 10
33.7500
 20
-2.7182
 30
0.0000
  0
SEQEND
  8
0
  0
POLYLINE
  8
22
 66
1
 10
0.0000
 20
0.0000
 30
0.0000
 40
0.1270
 41
0.1270
 70
0
  0
VERTEX
  8
22
 10
31.7500
 20
-2.7500
 30
0.0000
  0
VERTEX
  8
22
 10
31.7500
 20
-5.2500
 30
0.0000
  0
SEQEND
  8
0
  0
POLYLINE
  8
22
 66
1
 10
0.0000
 20
0.0000
 30
0.0000
 40
0.0635
 41
0.0635
 70
0
  0
VERTEX
  8
22
 10
31.7183
 20
-5.2500
 30
0.0000
 42
1.0000
  0
VERTEX
  8
22
 10
31.7817
 20
-5.2500
 30
0.0000
  0
SEQEND
  8
0
  0
POLYLINE
  8
22
 66
1
 10
0.0000
 20
0.0000
 30
0.0000
 40
0.0635
 41
0.0635
 70
0
  0
VERTEX
  8
22
 10
31.7817
 20
-2.7500
 30
0.0000
 42
1.0000
  0
VERTEX
  8
22
 10
31.7183
 20
-2.7500
 30
0.0000
  0
SEQEND
  8
0
  0
POLYLINE
  8
22
 66
1
 10
0.0000
 20
0.0000
 30
0.0000
 40
0.1270
 41
0.1270
 70
0
  0
VERTEX
  8
22
 10
28.7500
 20
-5.2500
 30
0.0000
  0
VERTEX
  8
22
 10
31.2500
 20
-5.2500
 30
0.0000
  0
SEQEND
  8
0
  0
POLYLINE
  8
22
 66
1
 10
0.0000
 20
0.0000
 30
0.0000
 40
0.0635
 41
0.0635
 70
0
  0
VERTEX
  8
22
 10
31.2500
 20
-5.2817
 30
0.0000
 42
1.0000
  0
VERTEX
  8
22
 10
31.2500
 20
-5.2183
 30
0.0000
  0
SEQEND
  8
0
  0
POLYLINE
  8
22
 66
1
 10
0.0000
 20
0.0000
 30
0.0000
 40
0.0635
 41
0.0635
 70
0
  0
VERTEX
  8
22
 10
28.7500
 20
-5.2183
 30
0.0000
 42
1.0000
  0
VERTEX
  8
22
 10
28.7500
 20
-5.2817
 30
0.0000
  0
SEQEND
  8
0
  0
POLYLINE
  8
22
 66
1
 10
0.0000
 20
0.0000
 30
0.0000
 40
0.1270
 41
0.1270
 70
0
  0
VERTEX
  8
22
 10
31.2500
 20
-5.2500
 30
0.0000
  0
VERTEX
  8
22
 10
31.2500
 20
-2.7500
 30
0.0000
  0
SEQEND
  8
0
  0
POLYLINE
  8
22
 66
1
 10
0.0000
 20
0.0000
 30
0.0000
 40
0.0635
 41
0.0635
 70
0
  0
VERTEX
  8
22
 10
31.2817
 20
-2.7500
 30
0.0000
 42
1.0000
  0
VERTEX
  8
22
 10
31.2183
 20
-2.7500
 30
0.0000
  0
SEQEND
  8
0
  0
POLYLINE
  8
22
 66
1
 10
0.0000
 20
0.0000
 30
0.0000
 40
0.0635
 41
0.0635
 70
0
  0
VERTEX
  8
22
 10
31.2183
 20
-5.2500
 30
0.0000
 42
1.0000
  0
VERTEX
  8
22
 10
31.2817
 20
-5.2500
 30
0.0000
  0
SEQEND
  8
0
  0
POLYLINE
  8
22
 66
1
 10
0.0000
 20
0.0000
 30
0.0000
 40
0.1270
 41
0.1270
 70
0
  0
VERTEX
  8
22
 10
31.2500
 20
-2.7500
 30
0.0000
  0
VERTEX
  8
22
 10
29.2500
 20
-2.7500
 30
0.0000
  0
SEQEND
  8
0
  0
POLYLINE
  8
22
 66
1
 10
0.0000
 20
0.0000
 30
0.0000
 40
0.0635
 41
0.0635
 70
0
  0
VERTEX
  8
22
 10
29.2500
 20
-2.7182
 30
0.0000
 42
1.0000
  0
VERTEX
  8
22
 10
29.2500
 20
-2.7818
 30
0.0000
  0
SEQEND
  8
0
  0
POLYLINE
  8
22
 66
1
 10
0.0000
 20
0.0000
 30
0.0000
 40
0.0635
 41
0.0635
 70
0
  0
VERTEX
  8
22
 10
31.2500
 20
-2.7818
 30
0.0000
 42
1.0000
  0
VERTEX
  8
22
 10
31.2500
 20
-2.7182
 30
0.0000
  0
SEQEND
  8
0
  0
POLYLINE
  8
22
 66
1
 10
0.0000
 20
0.0000
 30
0.0000
 40
0.1270
 41
0.1270
 70
0
  0
VERTEX
  8
22
 10
29.2500
 20
-2.7500
 30
0.0000
  0
VERTEX
  8
22
 10
28.7500
 20
-3.2500
 30
0.0000
  0
SEQEND
  8
0
  0
POLYLINE
  8
22
 66
1
 10
0.0000
 20
0.0000
 30
0.0000
 40
0.0635
 41
0.0635
 70
0
  0
VERTEX
  8
22
 10
28.7275
 20
-3.2275
 30
0.0000
 42
1.0000
  0
VERTEX
  8
22
 10
28.7725
 20
-3.2725
 30
0.0000
  0
SEQEND
  8
0
  0
POLYLINE
  8
22
 66
1
 10
0.0000
 20
0.0000
 30
0.0000
 40
0.0635
 41
0.0635
 70
0
  0
VERTEX
  8
22
 10
29.2725
 20
-2.7725
 30
0.0000
 42
1.0000
  0
VERTEX
  8
22
 10
29.2275
 20
-2.7275
 30
0.0000
  0
SEQEND
  8
0
  0
POLYLINE
  8
22
 66
1
 10
0.0000
 20
0.0000
 30
0.0000
 40
0.1270
 41
0.1270
 70
0
  0
VERTEX
  8
22
 10
28.7500
 20
-3.2500
 30
0.0000
  0
VERTEX
  8
22
 10
28.7500
 20
-5.2500
 30
0.0000
  0
SEQEND
  8
0
  0
POLYLINE
  8
22
 66
1
 10
0.0000
 20
0.0000
 30
0.0000
 40
0.0635
 41
0.0635
 70
0
  0
VERTEX
  8
22
 10
28.7183
 20
-5.2500
 30
0.0000
 42
1.0000
  0
VERTEX
  8
22
 10
28.7817
 20
-5.2500
 30
0.0000
  0
SEQEND
  8
0
  0
POLYLINE
  8
22
 66
1
 10
0.0000
 20
0.0000
 30
0.0000
 40
0.0635
 41
0.0635
 70
0
  0
VERTEX
  8
22
 10
28.7817
 20
-3.2500
 30
0.0000
 42
1.0000
  0
VERTEX
  8
22
 10
28.7183
 20
-3.2500
 30
0.0000
  0
SEQEND
  8
0
  0
CIRCLE
  8
20
 10
27.0000
 20
-5.9600
 30
0.0000
 40
0.5500
  0
CIRCLE
  8
20
 10
36.0000
 20
-5.9600
 30
0.0000
 40
0.5500
  0
POLYLINE
  8
22
 66
1
 10
0.0000
 20
0.0000
 30
0.0000
 40
0.1270
 41
0.1270
 70
0
  0
VERTEX
  8
22
 10
39.9250
 20
-5.9000
 30
0.0000
  0
VERTEX
  8
22
 10
44.2500
 20
-5.9000
 30
0.0000
  0
SEQEND
  8
0
  0
POLYLINE
  8
22
 66
1
 10
0.0000
 20
0.0000
 30
0.0000
 40
0.0635
 41
0.0635
 70
0
  0
VERTEX
  8
22
 10
44.2500
 20
-5.9318
 30
0.0000
 42
1.0000
  0
VERTEX
  8
22
 10
44.2500
 20
-5.8683
 30
0.0000
  0
SEQEND
  8
0
  0
POLYLINE
  8
22
 66
1
 10
0.0000
 20
0.0000
 30
0.0000
 40
0.0635
 41
0.0635
 70
0
  0
VERTEX
  8
22
 10
39.9250
 20
-5.8683
 30
0.0000
 42
1.0000
  0
VERTEX
  8
22
 10
39.9250
 20
-5.9318
 30
0.0000
  0
SEQEND
  8
0
  0
POLYLINE
  8
22
 66
1
 10
0.0000
 20
0.0000
 30
0.0000
 40
0.1270
 41
0.1270
 70
0
  0
VERTEX
  8
22
 10
44.2500
 20
-5.9000
 30
0.0000
  0
VERTEX
  8
22
 10
45.2500
 20
-5.9000
 30
0.0000
  0
SEQEND
  8
0
  0
POLYLINE
  8
22
 66
1
 10
0.0000
 20
0.0000
 30
0.0000
 40
0.0635
 41
0.0635
 70
0
  0
VERTEX
  8
22
 10
45.2500
 20
-5.9318
 30
0.0000
 42
1.0000
  0
VERTEX
  8
22
 10
45.2500
 20
-5.8683
 30
0.0000
  0
SEQEND
  8
0
  0
POLYLINE
  8
22
 66
1
 10
0.0000
 20
0.0000
 30
0.0000
 40
0.0635
 41
0.0635
 70
0
  0
VERTEX
  8
22
 10
44.2500
 20
-5.8683
 30
0.0000
 42
1.0000
  0
VERTEX
  8
22
 10
44.2500
 20
-5.9318
 30
0.0000
  0
SEQEND
  8
0
  0
POLYLINE
  8
22
 66
1
 10
0.0000
 20
0.0000
 30
0.0000
 40
0.1270
 41
0.1270
 70
0
  0
VERTEX
  8
22
 10
45.2500
 20
-5.9000
 30
0.0000
  0
VERTEX
  8
22
 10
49.5750
 20
-5.9000
 30
0.0000
  0
SEQEND
  8
0
  0
POLYLINE
  8
22
 66
1
 10
0.0000
 20
0.0000
 30
0.0000
 40
0.0635
 41
0.0635
 70
0
  0
VERTEX
  8
22
 10
49.5750
 20
-5.9318
 30
0.0000
 42
1.0000
  0
VERTEX
  8
22
 10
49.5750
 20
-5.8683
 30
0.0000
  0
SEQEND
  8
0
  0
POLYLINE
  8
22
 66
1
 10
0.0000
 20
0.0000
 30
0.0000
 40
0.0635
 41
0.0635
 70
0
  0
VERTEX
  8
22
 10
45.2500
 20
-5.8683
 30
0.0000
 42
1.0000
  0
VERTEX
  8
22
 10
45.2500
 20
-5.9318
 30
0.0000
  0
SEQEND
  8
0
  0
POLYLINE
  8
22
 66
1
 10
0.0000
 20
0.0000
 30
0.0000
 40
0.1270
 41
0.1270
 70
0
  0
VERTEX
  8
22
 10
49.5750
 20
-5.9000
 30
0.0000
  0
VERTEX
  8
22
 10
49.5750
 20
-1.5300
 30
0.0000
  0
SEQEND
  8
0
  0
POLYLINE
  8
22
 66
1
 10
0.0000
 20
0.0000
 30
0.0000
 40
0.0635
 41
0.0635
 70
0
  0
VERTEX
  8
22
 10
49.6068
 20
-1.5300
 30
0.0000
 42
1.0000
  0
VERTEX
  8
22
 10
49.5433
 20
-1.5300
 30
0.0000
  0
SEQEND
  8
0
  0
POLYLINE
  8
22
 66
1
 10
0.0000
 20
0.0000
 30
0.0000
 40
0.0635
 41
0.0635
 70
0
  0
VERTEX
  8
22
 10
49.5433
 20
-5.9000
 30
0.0000
 42
1.0000
  0
VERTEX
  8
22
 10
49.6068
 20
-5.9000
 30
0.0000
  0
SEQEND
  8
0
  0
POLYLINE
  8
22
 66
1
 10
0.0000
 20
0.0000
 30
0.0000
 40
0.1270
 41
0.1270
 70
0
  0
VERTEX
  8
22
 10
49.5750
 20
-1.5300
 30
0.0000
  0
VERTEX
  8
22
 10
46.5000
 20
-1.5300
 30
0.0000
  0
SEQEND
  8
0
  0
POLYLINE
  8
22
 66
1
 10
0.0000
 20
0.0000
 30
0.0000
 40
0.0635
 41
0.0635
 70
0
  0
VERTEX
  8
22
 10
46.5000
 20
-1.4983
 30
0.0000
 42
1.0000
  0
VERTEX
  8
22
 10
46.5000
 20
-1.5617
 30
0.0000
  0
SEQEND
  8
0
  0
POLYLINE
  8
22
 66
1
 10
0.0000
 20
0.0000
 30
0.0000
 40
0.0635
 41
0.0635
 70
0
  0
VERTEX
  8
22
 10
49.5750
 20
-1.5617
 30
0.0000
 42
1.0000
  0
VERTEX
  8
22
 10
49.5750
 20
-1.4983
 30
0.0000
  0
SEQEND
  8
0
  0
POLYLINE
  8
22
 66
1
 10
0.0000
 20
0.0000
 30
0.0000
 40
0.1270
 41
0.1270
 70
0
  0
VERTEX
  8
22
 10
46.5000
 20
-1.5300
 30
0.0000
  0
VERTEX
  8
22
 10
45.5000
 20
-1.5300
 30
0.0000
  0
SEQEND
  8
0
  0
POLYLINE
  8
22
 66
1
 10
0.0000
 20
0.0000
 30
0.0000
 40
0.0635
 41
0.0635
 70
0
  0
VERTEX
  8
22
 10
45.5000
 20
-1.4983
 30
0.0000
 42
1.0000
  0
VERTEX
  8
22
 10
45.5000
 20
-1.5617
 30
0.0000
  0
SEQEND
  8
0
  0
POLYLINE
  8
22
 66
1
 10
0.0000
 20
0.0000
 30
0.0000
 40
0.0635
 41
0.0635
 70
0
  0
VERTEX
  8
22
 10
46.5000
 20
-1.5617
 30
0.0000
 42
1.0000
  0
VERTEX
  8
22
 10
46.5000
 20
-1.4983
 30
0.0000
  0
SEQEND
  8
0
  0
POLYLINE
  8
22
 66
1
 10
0.0000
 20
0.0000
 30
0.0000
 40
0.1270
 41
0.1270
 70
0
  0
VERTEX
  8
22
 10
45.5000
 20
-1.5300
 30
0.0000
  0
VERTEX
  8
22
 10
44.0000
 20
-1.5300
 30
0.0000
  0
SEQEND
  8
0
  0
POLYLINE
  8
22
 66
1
 10
0.0000
 20
0.0000
 30
0.0000
 40
0.0635
 41
0.0635
 70
0
  0
VERTEX
  8
22
 10
44.0000
 20
-1.4983
 30
0.0000
 42
1.0000
  0
VERTEX
  8
22
 10
44.0000
 20
-1.5617
 30
0.0000
  0
SEQEND
  8
0
  0
POLYLINE
  8
22
 66
1
 10
0.0000
 20
0.0000
 30
0.0000
 40
0.0635
 41
0.0635
 70
0
  0
VERTEX
  8
22
 10
45.5000
 20
-1.5617
 30
0.0000
 42
1.0000
  0
VERTEX
  8
22
 10
45.5000
 20
-1.4983
 30
0.0000
  0
SEQEND
  8
0
  0
POLYLINE
  8
22
 66
1
 10
0.0000
 20
0.0000
 30
0.0000
 40
0.1270
 41
0.1270
 70
0
  0
VERTEX
  8
22
 10
44.0000
 20
-1.5300
 30
0.0000
  0
VERTEX
  8
22
 10
43.0000
 20
-1.5300
 30
0.0000
  0
SEQEND
  8
0
  0
POLYLINE
  8
22
 66
1
 10
0.0000
 20
0.0000
 30
0.0000
 40
0.0635
 41
0.0635
 70
0
  0
VERTEX
  8
22
 10
43.0000
 20
-1.4983
 30
0.0000
 42
1.0000
  0
VERTEX
  8
22
 10
43.0000
 20
-1.5617
 30
0.0000
  0
SEQEND
  8
0
  0
POLYLINE
  8
22
 66
1
 10
0.0000
 20
0.0000
 30
0.0000
 40
0.0635
 41
0.0635
 70
0
  0
VERTEX
  8
22
 10
44.0000
 20
-1.5617
 30
0.0000
 42
1.0000
  0
VERTEX
  8
22
 10
44.0000
 20
-1.4983
 30
0.0000
  0
SEQEND
  8
0
  0
POLYLINE
  8
22
 66
1
 10
0.0000
 20
0.0000
 30
0.0000
 40
0.1270
 41
0.1270
 70
0
  0
VERTEX
  8
22
 10
43.0000
 20
-1.5300
 30
0.0000
  0
VERTEX
  8
22
 10
39.9250
 20
-1.5300
 30
0.0000
  0
SEQEND
  8
0
  0
POLYLINE
  8
22
 66
1
 10
0.0000
 20
0.0000
 30
0.0000
 40
0.0635
 41
0.0635
 70
0
  0
VERTEX
  8
22
 10
39.9250
 20
-1.4983
 30
0.0000
 42
1.0000
  0
VERTEX
  8
22
 10
39.9250
 20
-1.5617
 30
0.0000
  0
SEQEND
  8
0
  0
POLYLINE
  8
22
 66
1
 10
0.0000
 20
0.0000
 30
0.0000
 40
0.0635
 41
0.0635
 70
0
  0
VERTEX
  8
22
 10
43.0000
 20
-1.5617
 30
0.0000
 42
1.0000
  0
VERTEX
  8
22
 10
43.0000
 20
-1.4983
 30
0.0000
  0
SEQEND
  8
0
  0
POLYLINE
  8
22
 66
1
 10
0.0000
 20
0.0000
 30
0.0000
 40
0.1270
 41
0.1270
 70
0
  0
VERTEX
  8
22
 10
39.9250
 20
-1.5300
 30
0.0000
  0
VERTEX
  8
22
 10
39.9250
 20
-5.9000
 30
0.0000
  0
SEQEND
  8
0
  0
POLYLINE
  8
22
 66
1
 10
0.0000
 20
0.0000
 30
0.0000
 40
0.0635
 41
0.0635
 70
0
  0
VERTEX
  8
22
 10
39.8933
 20
-5.9000
 30
0.0000
 42
1.0000
  0
VERTEX
  8
22
 10
39.9568
 20
-5.9000
 30
0.0000
  0
SEQEND
  8
0
  0
POLYLINE
  8
22
 66
1
 10
0.0000
 20
0.0000
 30
0.0000
 40
0.0635
 41
0.0635
 70
0
  0
VERTEX
  8
22
 10
39.9568
 20
-1.5300
 30
0.0000
 42
1.0000
  0
VERTEX
  8
22
 10
39.8933
 20
-1.5300
 30
0.0000
  0
SEQEND
  8
0
  0
POLYLINE
  8
22
 66
1
 10
0.0000
 20
0.0000
 30
0.0000
 40
0.1270
 41
0.1270
 70
0
  0
VERTEX
  8
22
 10
44.2500
 20
-5.9000
 30
0.0000
  0
VERTEX
  8
22
 10
44.2500
 20
-6.5000
 30
0.0000
  0
SEQEND
  8
0
  0
POLYLINE
  8
22
 66
1
 10
0.0000
 20
0.0000
 30
0.0000
 40
0.0635
 41
0.0635
 70
0
  0
VERTEX
  8
22
 10
44.2182
 20
-6.5000
 30
0.0000
 42
1.0000
  0
VERTEX
  8
22
 10
44.2818
 20
-6.5000
 30
0.0000
  0
SEQEND
  8
0
  0
POLYLINE
  8
22
 66
1
 10
0.0000
 20
0.0000
 30
0.0000
 40
0.0635
 41
0.0635
 70
0
  0
VERTEX
  8
22
 10
44.2818
 20
-5.9000
 30
0.0000
 42
1.0000
  0
VERTEX
  8
22
 10
44.2182
 20
-5.9000
 30
0.0000
  0
SEQEND
  8
0
  0
POLYLINE
  8
22
 66
1
 10
0.0000
 20
0.0000
 30
0.0000
 40
0.1270
 41
0.1270
 70
0
  0
VERTEX
  8
22
 10
44.2500
 20
-6.5000
 30
0.0000
  0
VERTEX
  8
22
 10
45.2500
 20
-6.5000
 30
0.0000
  0
SEQEND
  8
0
  0
POLYLINE
  8
22
 66
1
 10
0.0000
 20
0.0000
 30
0.0000
 40
0.0635
 41
0.0635
 70
0
  0
VERTEX
  8
22
 10
45.2500
 20
-6.5317
 30
0.0000
 42
1.0000
  0
VERTEX
  8
22
 10
45.2500
 20
-6.4683
 30
0.0000
  0
SEQEND
  8
0
  0
POLYLINE
  8
22
 66
1
 10
0.0000
 20
0.0000
 30
0.0000
 40
0.0635
 41
0.0635
 70
0
  0
VERTEX
  8
22
 10
44.2500
 20
-6.4683
 30
0.0000
 42
1.0000
  0
VERTEX
  8
22
 10
44.2500
 20
-6.5317
 30
0.0000
  0
SEQEND
  8
0
  0
POLYLINE
  8
22
 66
1
 10
0.0000
 20
0.0000
 30
0.0000
 40
0.1270
 41
0.1270
 70
0
  0
VERTEX
  8
22
 10
45.2500
 20
-6.5000
 30
0.0000
  0
VERTEX
  8
22
 10
45.2500
 20
-5.9000
 30
0.0000
  0
SEQEND
  8
0
  0
POLYLINE
  8
22
 66
1
 10
0.0000
 20
0.0000
 30
0.0000
 40
0.0635
 41
0.0635
 70
0
  0
VERTEX
  8
22
 10
45.2818
 20
-5.9000
 30
0.0000
 42
1.0000
  0
VERTEX
  8
22
 10
45.2182
 20
-5.9000
 30
0.0000
  0
SEQEND
  8
0
  0
POLYLINE
  8
22
 66
1
 10
0.0000
 20
0.0000
 30
0.0000
 40
0.0635
 41
0.0635
 70
0
  0
VERTEX
  8
22
 10
45.2182
 20
-6.5000
 30
0.0000
 42
1.0000
  0
VERTEX
  8
22
 10
45.2818
 20
-6.5000
 30
0.0000
  0
SEQEND
  8
0
  0
POLYLINE
  8
22
 66
1
 10
0.0000
 20
0.0000
 30
0.0000
 40
0.1270
 41
0.1270
 70
0
  0
VERTEX
  8
22
 10
44.0000
 20
-1.5300
 30
0.0000
  0
VERTEX
  8
22
 10
44.0000
 20
-0.9300
 30
0.0000
  0
SEQEND
  8
0
  0
POLYLINE
  8
22
 66
1
 10
0.0000
 20
0.0000
 30
0.0000
 40
0.0635
 41
0.0635
 70
0
  0
VERTEX
  8
22
 10
44.0318
 20
-0.9300
 30
0.0000
 42
1.0000
  0
VERTEX
  8
22
 10
43.9682
 20
-0.9300
 30
0.0000
  0
SEQEND
  8
0
  0
POLYLINE
  8
22
 66
1
 10
0.0000
 20
0.0000
 30
0.0000
 40
0.0635
 41
0.0635
 70
0
  0
VERTEX
  8
22
 10
43.9682
 20
-1.5300
 30
0.0000
 42
1.0000
  0
VERTEX
  8
22
 10
44.0318
 20
-1.5300
 30
0.0000
  0
SEQEND
  8
0
  0
POLYLINE
  8
22
 66
1
 10
0.0000
 20
0.0000
 30
0.0000
 40
0.1270
 41
0.1270
 70
0
  0
VERTEX
  8
22
 10
44.0000
 20
-0.9300
 30
0.0000
  0
VERTEX
  8
22
 10
43.0000
 20
-0.9300
 30
0.0000
  0
SEQEND
  8
0
  0
POLYLINE
  8
22
 66
1
 10
0.0000
 20
0.0000
 30
0.0000
 40
0.0635
 41
0.0635
 70
0
  0
VERTEX
  8
22
 10
43.0000
 20
-0.8982
 30
0.0000
 42
1.0000
  0
VERTEX
  8
22
 10
43.0000
 20
-0.9618
 30
0.0000
  0
SEQEND
  8
0
  0
POLYLINE
  8
22
 66
1
 10
0.0000
 20
0.0000
 30
0.0000
 40
0.0635
 41
0.0635
 70
0
  0
VERTEX
  8
22
 10
44.0000
 20
-0.9618
 30
0.0000
 42
1.0000
  0
VERTEX
  8
22
 10
44.0000
 20
-0.8982
 30
0.0000
  0
SEQEND
  8
0
  0
POLYLINE
  8
22
 66
1
 10
0.0000
 20
0.0000
 30
0.0000
 40
0.1270
 41
0.1270
 70
0
  0
VERTEX
  8
22
 10
43.0000
 20
-0.9300
 30
0.0000
  0
VERTEX
  8
22
 10
43.0000
 20
-1.5300
 30
0.0000
  0
SEQEND
  8
0
  0
POLYLINE
  8
22
 66
1
 10
0.0000
 20
0.0000
 30
0.0000
 40
0.0635
 41
0.0635
 70
0
  0
VERTEX
  8
22
 10
42.9682
 20
-1.5300
 30
0.0000
 42
1.0000
  0
VERTEX
  8
22
 10
43.0318
 20
-1.5300
 30
0.0000
  0
SEQEND
  8
0
  0
POLYLINE
  8
22
 66
1
 10
0.0000
 20
0.0000
 30
0.0000
 40
0.0635
 41
0.0635
 70
0
  0
VERTEX
  8
22
 10
43.0318
 20
-0.9300
 30
0.0000
 42
1.0000
  0
VERTEX
  8
22
 10
42.9682
 20
-0.9300
 30
0.0000
  0
SEQEND
  8
0
  0
POLYLINE
  8
22
 66
1
 10
0.0000
 20
0.0000
 30
0.0000
 40
0.1270
 41
0.1270
 70
0
  0
VERTEX
  8
22
 10
45.5000
 20
-1.5300
 30
0.0000
  0
VERTEX
  8
22
 10
45.5000
 20
-0.9300
 30
0.0000
  0
SEQEND
  8
0
  0
POLYLINE
  8
22
 66
1
 10
0.0000
 20
0.0000
 30
0.0000
 40
0.0635
 41
0.0635
 70
0
  0
VERTEX
  8
22
 10
45.5318
 20
-0.9300
 30
0.0000
 42
1.0000
  0
VERTEX
  8
22
 10
45.4682
 20
-0.9300
 30
0.0000
  0
SEQEND
  8
0
  0
POLYLINE
  8
22
 66
1
 10
0.0000
 20
0.0000
 30
0.0000
 40
0.0635
 41
0.0635
 70
0
  0
VERTEX
  8
22
 10
45.4682
 20
-1.5300
 30
0.0000
 42
1.0000
  0
VERTEX
  8
22
 10
45.5318
 20
-1.5300
 30
0.0000
  0
SEQEND
  8
0
  0
POLYLINE
  8
22
 66
1
 10
0.0000
 20
0.0000
 30
0.0000
 40
0.1270
 41
0.1270
 70
0
  0
VERTEX
  8
22
 10
45.5000
 20
-0.9300
 30
0.0000
  0
VERTEX
  8
22
 10
46.5000
 20
-0.9300
 30
0.0000
  0
SEQEND
  8
0
  0
POLYLINE
  8
22
 66
1
 10
0.0000
 20
0.0000
 30
0.0000
 40
0.0635
 41
0.0635
 70
0
  0
VERTEX
  8
22
 10
46.5000
 20
-0.9618
 30
0.0000
 42
1.0000
  0
VERTEX
  8
22
 10
46.5000
 20
-0.8982
 30
0.0000
  0
SEQEND
  8
0
  0
POLYLINE
  8
22
 66
1
 10
0.0000
 20
0.0000
 30
0.0000
 40
0.0635
 41
0.0635
 70
0
  0
VERTEX
  8
22
 10
45.5000
 20
-0.8982
 30
0.0000
 42
1.0000
  0
VERTEX
  8
22
 10
45.5000
 20
-0.9618
 30
0.0000
  0
SEQEND
  8
0
  0
POLYLINE
  8
22
 66
1
 10
0.0000
 20
0.0000
 30
0.0000
 40
0.1270
 41
0.1270
 70
0
  0
VERTEX
  8
22
 10
46.5000
 20
-0.9300
 30
0.0000
  0
VERTEX
  8
22
 10
46.5000
 20
-1.5300
 30
0.0000
  0
SEQEND
  8
0
  0
POLYLINE
  8
22
 66
1
 10
0.0000
 20
0.0000
 30
0.0000
 40
0.0635
 41
0.0635
 70
0
  0
VERTEX
  8
22
 10
46.4682
 20
-1.5300
 30
0.0000
 42
1.0000
  0
VERTEX
  8
22
 10
46.5318
 20
-1.5300
 30
0.0000
  0
SEQEND
  8
0
  0
POLYLINE
  8
22
 66
1
 10
0.0000
 20
0.0000
 30
0.0000
 40
0.0635
 41
0.0635
 70
0
  0
VERTEX
  8
22
 10
46.5318
 20
-0.9300
 30
0.0000
 42
1.0000
  0
VERTEX
  8
22
 10
46.4682
 20
-0.9300
 30
0.0000
  0
SEQEND
  8
0
  0
POLYLINE
  8
22
 66
1
 10
0.0000
 20
0.0000
 30
0.0000
 40
0.1270
 41
0.1270
 70
0
  0
VERTEX
  8
22
 10
45.0000
 20
-5.2500
 30
0.0000
  0
VERTEX
  8
22
 10
47.5000
 20
-5.2500
 30
0.0000
  0
SEQEND
  8
0
  0
POLYLINE
  8
22
 66
1
 10
0.0000
 20
0.0000
 30
0.0000
 40
0.0635
 41
0.0635
 70
0
  0
VERTEX
  8
22
 10
47.5000
 20
-5.2817
 30
0.0000
 42
1.0000
  0
VERTEX
  8
22
 10
47.5000
 20
-5.2183
 30
0.0000
  0
SEQEND
  8
0
  0
POLYLINE
  8
22
 66
1
 10
0.0000
 20
0.0000
 30
0.0000
 40
0.0635
 41
0.0635
 70
0
  0
VERTEX
  8
22
 10
45.0000
 20
-5.2183
 30
0.0000
 42
1.0000
  0
VERTEX
  8
22
 10
45.0000
 20
-5.2817
 30
0.0000
  0
SEQEND
  8
0
  0
POLYLINE
  8
22
 66
1
 10
0.0000
 20
0.0000
 30
0.0000
 40
0.1270
 41
0.1270
 70
0
  0
VERTEX
  8
22
 10
47.5000
 20
-5.2500
 30
0.0000
  0
VERTEX
  8
22
 10
47.5000
 20
-3.2500
 30
0.0000
  0
SEQEND
  8
0
  0
POLYLINE
  8
22
 66
1
 10
0.0000
 20
0.0000
 30
0.0000
 40
0.0635
 41
0.0635
 70
0
  0
VERTEX
  8
22
 10
47.5318
 20
-3.2500
 30
0.0000
 42
1.0000
  0
VERTEX
  8
22
 10
47.4682
 20
-3.2500
 30
0.0000
  0
SEQEND
  8
0
  0
POLYLINE
  8
22
 66
1
 10
0.0000
 20
0.0000
 30
0.0000
 40
0.0635
 41
0.0635
 70
0
  0
VERTEX
  8
22
 10
47.4682
 20
-5.2500
 30
0.0000
 42
1.0000
  0
VERTEX
  8
22
 10
47.5318
 20
-5.2500
 30
0.0000
  0
SEQEND
  8
0
  0
POLYLINE
  8
22
 66
1
 10
0.0000
 20
0.0000
 30
0.0000
 40
0.1270
 41
0.1270
 70
0
  0
VERTEX
  8
22
 10
47.5000
 20
-3.2500
 30
0.0000
  0
VERTEX
  8
22
 10
47.0000
 20
-2.7500
 30
0.0000
  0
SEQEND
  8
0
  0
POLYLINE
  8
22
 66
1
 10
0.0000
 20
0.0000
 30
0.0000
 40
0.0635
 41
0.0635
 70
0
  0
VERTEX
  8
22
 10
47.0225
 20
-2.7275
 30
0.0000
 42
1.0000
  0
VERTEX
  8
22
 10
46.9775
 20
-2.7725
 30
0.0000
  0
SEQEND
  8
0
  0
POLYLINE
  8
22
 66
1
 10
0.0000
 20
0.0000
 30
0.0000
 40
0.0635
 41
0.0635
 70
0
  0
VERTEX
  8
22
 10
47.4775
 20
-3.2725
 30
0.0000
 42
1.0000
  0
VERTEX
  8
22
 10
47.5225
 20
-3.2275
 30
0.0000
  0
SEQEND
  8
0
  0
POLYLINE
  8
22
 66
1
 10
0.0000
 20
0.0000
 30
0.0000
 40
0.1270
 41
0.1270
 70
0
  0
VERTEX
  8
22
 10
47.0000
 20
-2.7500
 30
0.0000
  0
VERTEX
  8
22
 10
45.0000
 20
-2.7500
 30
0.0000
  0
SEQEND
  8
0
  0
POLYLINE
  8
22
 66
1
 10
0.0000
 20
0.0000
 30
0.0000
 40
0.0635
 41
0.0635
 70
0
  0
VERTEX
  8
22
 10
45.0000
 20
-2.7182
 30
0.0000
 42
1.0000
  0
VERTEX
  8
22
 10
45.0000
 20
-2.7818
 30
0.0000
  0
SEQEND
  8
0
  0
POLYLINE
  8
22
 66
1
 10
0.0000
 20
0.0000
 30
0.0000
 40
0.0635
 41
0.0635
 70
0
  0
VERTEX
  8
22
 10
47.0000
 20
-2.7818
 30
0.0000
 42
1.0000
  0
VERTEX
  8
22
 10
47.0000
 20
-2.7182
 30
0.0000
  0
SEQEND
  8
0
  0
POLYLINE
  8
22
 66
1
 10
0.0000
 20
0.0000
 30
0.0000
 40
0.1270
 41
0.1270
 70
0
  0
VERTEX
  8
22
 10
45.0000
 20
-2.7500
 30
0.0000
  0
VERTEX
  8
22
 10
45.0000
 20
-5.2500
 30
0.0000
  0
SEQEND
  8
0
  0
POLYLINE
  8
22
 66
1
 10
0.0000
 20
0.0000
 30
0.0000
 40
0.0635
 41
0.0635
 70
0
  0
VERTEX
  8
22
 10
44.9682
 20
-5.2500
 30
0.0000
 42
1.0000
  0
VERTEX
  8
22
 10
45.0318
 20
-5.2500
 30
0.0000
  0
SEQEND
  8
0
  0
POLYLINE
  8
22
 66
1
 10
0.0000
 20
0.0000
 30
0.0000
 40
0.0635
 41
0.0635
 70
0
  0
VERTEX
  8
22
 10
45.0318
 20
-2.7500
 30
0.0000
 42
1.0000
  0
VERTEX
  8
22
 10
44.9682
 20
-2.7500
 30
0.0000
  0
SEQEND
  8
0
  0
POLYLINE
  8
22
 66
1
 10
0.0000
 20
0.0000
 30
0.0000
 40
0.1270
 41
0.1270
 70
0
  0
VERTEX
  8
22
 10
42.0000
 20
-5.2500
 30
0.0000
  0
VERTEX
  8
22
 10
44.5000
 20
-5.2500
 30
0.0000
  0
SEQEND
  8
0
  0
POLYLINE
  8
22
 66
1
 10
0.0000
 20
0.0000
 30
0.0000
 40
0.0635
 41
0.0635
 70
0
  0
VERTEX
  8
22
 10
44.5000
 20
-5.2817
 30
0.0000
 42
1.0000
  0
VERTEX
  8
22
 10
44.5000
 20
-5.2183
 30
0.0000
  0
SEQEND
  8
0
  0
POLYLINE
  8
22
 66
1
 10
0.0000
 20
0.0000
 30
0.0000
 40
0.0635
 41
0.0635
 70
0
  0
VERTEX
  8
22
 10
42.0000
 20
-5.2183
 30
0.0000
 42
1.0000
  0
VERTEX
  8
22
 10
42.0000
 20
-5.2817
 30
0.0000
  0
SEQEND
  8
0
  0
POLYLINE
  8
22
 66
1
 10
0.0000
 20
0.0000
 30
0.0000
 40
0.1270
 41
0.1270
 70
0
  0
VERTEX
  8
22
 10
44.5000
 20
-5.2500
 30
0.0000
  0
VERTEX
  8
22
 10
44.5000
 20
-2.7500
 30
0.0000
  0
SEQEND
  8
0
  0
POLYLINE
  8
22
 66
1
 10
0.0000
 20
0.0000
 30
0.0000
 40
0.0635
 41
0.0635
 70
0
  0
VERTEX
  8
22
 10
44.5318
 20
-2.7500
 30
0.0000
 42
1.0000
  0
VERTEX
  8
22
 10
44.4682
 20
-2.7500
 30
0.0000
  0
SEQEND
  8
0
  0
POLYLINE
  8
22
 66
1
 10
0.0000
 20
0.0000
 30
0.0000
 40
0.0635
 41
0.0635
 70
0
  0
VERTEX
  8
22
 10
44.4682
 20
-5.2500
 30
0.0000
 42
1.0000
  0
VERTEX
  8
22
 10
44.5318
 20
-5.2500
 30
0.0000
  0
SEQEND
  8
0
  0
POLYLINE
  8
22
 66
1
 10
0.0000
 20
0.0000
 30
0.0000
 40
0.1270
 41
0.1270
 70
0
  0
VERTEX
  8
22
 10
44.5000
 20
-2.7500
 30
0.0000
  0
VERTEX
  8
22
 10
42.5000
 20
-2.7500
 30
0.0000
  0
SEQEND
  8
0
  0
POLYLINE
  8
22
 66
1
 10
0.0000
 20
0.0000
 30
0.0000
 40
0.0635
 41
0.0635
 70
0
  0
VERTEX
  8
22
 10
42.5000
 20
-2.7182
 30
0.0000
 42
1.0000
  0
VERTEX
  8
22
 10
42.5000
 20
-2.7818
 30
0.0000
  0
SEQEND
  8
0
  0
POLYLINE
  8
22
 66
1
 10
0.0000
 20
0.0000
 30
0.0000
 40
0.0635
 41
0.0635
 70
0
  0
VERTEX
  8
22
 10
44.5000
 20
-2.7818
 30
0.0000
 42
1.0000
  0
VERTEX
  8
22
 10
44.5000
 20
-2.7182
 30
0.0000
  0
SEQEND
  8
0
  0
POLYLINE
  8
22
 66
1
 10
0.0000
 20
0.0000
 30
0.0000
 40
0.1270
 41
0.1270
 70
0
  0
VERTEX
  8
22
 10
42.5000
 20
-2.7500
 30
0.0000
  0
VERTEX
  8
22
 10
42.0000
 20
-3.2500
 30
0.0000
  0
SEQEND
  8
0
  0
POLYLINE
  8
22
 66
1
 10
0.0000
 20
0.0000
 30
0.0000
 40
0.0635
 41
0.0635
 70
0
  0
VERTEX
  8
22
 10
41.9775
 20
-3.2275
 30
0.0000
 42
1.0000
  0
VERTEX
  8
22
 10
42.0225
 20
-3.2725
 30
0.0000
  0
SEQEND
  8
0
  0
POLYLINE
  8
22
 66
1
 10
0.0000
 20
0.0000
 30
0.0000
 40
0.0635
 41
0.0635
 70
0
  0
VERTEX
  8
22
 10
42.5225
 20
-2.7725
 30
0.0000
 42
1.0000
  0
VERTEX
  8
22
 10
42.4775
 20
-2.7275
 30
0.0000
  0
SEQEND
  8
0
  0
POLYLINE
  8
22
 66
1
 10
0.0000
 20
0.0000
 30
0.0000
 40
0.1270
 41
0.1270
 70
0
  0
VERTEX
  8
22
 10
42.0000
 20
-3.2500
 30
0.0000
  0
VERTEX
  8
22
 10
42.0000
 20
-5.2500
 30
0.0000
  0
SEQEND
  8
0
  0
POLYLINE
  8
22
 66
1
 10
0.0000
 20
0.0000
 30
0.0000
 40
0.0635
 41
0.0635
 70
0
  0
VERTEX
  8
22
 10
41.9682
 20
-5.2500
 30
0.0000
 42
1.0000
  0
VERTEX
  8
22
 10
42.0318
 20
-5.2500
 30
0.0000
  0
SEQEND
  8
0
  0
POLYLINE
  8
22
 66
1
 10
0.0000
 20
0.0000
 30
0.0000
 40
0.0635
 41
0.0635
 70
0
  0
VERTEX
  8
22
 10
42.0318
 20
-3.2500
 30
0.0000
 42
1.0000
  0
VERTEX
  8
22
 10
41.9682
 20
-3.2500
 30
0.0000
  0
SEQEND
  8
0
  0
CIRCLE
  8
20
 10
40.2500
 20
-5.9600
 30
0.0000
 40
0.5500
  0
CIRCLE
  8
20
 10
49.2500
 20
-5.9600
 30
0.0000
 40
0.5500
  0
POLYLINE
  8
22
 66
1
 10
0.0000
 20
0.0000
 30
0.0000
 40
0.1000
 41
0.1000
 70
0
  0
VERTEX
  8
22
 10
21.5000
 20
38.0000
 30
0.0000
  0
VERTEX
  8
22
 10
21.5000
 20
48.0000
 30
0.0000
  0
SEQEND
  8
0
  0
POLYLINE
  8
22
 66
1
 10
0.0000
 20
0.0000
 30
0.0000
 40
0.0500
 41
0.0500
 70
0
  0
VERTEX
  8
22
 10
21.5250
 20
48.0000
 30
0.0000
 42
1.0000
  0
VERTEX
  8
22
 10
21.4750
 20
48.0000
 30
0.0000
  0
SEQEND
  8
0
  0
POLYLINE
  8
22
 66
1
 10
0.0000
 20
0.0000
 30
0.0000
 40
0.0500
 41
0.0500
 70
0
  0
VERTEX
  8
22
 10
21.4750
 20
38.0000
 30
0.0000
 42
1.0000
  0
VERTEX
  8
22
 10
21.5250
 20
38.0000
 30
0.0000
  0
SEQEND
  8
0
  0
POLYLINE
  8
22
 66
1
 10
0.0000
 20
0.0000
 30
0.0000
 40
0.1000
 41
0.1000
 70
0
  0
VERTEX
  8
22
 10
21.5000
 20
48.0000
 30
0.0000
  0
VERTEX
  8
22
 10
11.5000
 20
48.0000
 30
0.0000
  0
SEQEND
  8
0
  0
POLYLINE
  8
22
 66
1
 10
0.0000
 20
0.0000
 30
0.0000
 40
0.0500
 41
0.0500
 70
0
  0
VERTEX
  8
22
 10
11.5000
 20
48.0250
 30
0.0000
 42
1.0000
  0
VERTEX
  8
22
 10
11.5000
 20
47.9750
 30
0.0000
  0
SEQEND
  8
0
  0
POLYLINE
  8
22
 66
1
 10
0.0000
 20
0.0000
 30
0.0000
 40
0.0500
 41
0.0500
 70
0
  0
VERTEX
  8
22
 10
21.5000
 20
47.9750
 30
0.0000
 42
1.0000
  0
VERTEX
  8
22
 10
21.5000
 20
48.0250
 30
0.0000
  0
SEQEND
  8
0
  0
POLYLINE
  8
22
 66
1
 10
0.0000
 20
0.0000
 30
0.0000
 40
0.1000
 41
0.1000
 70
0
  0
VERTEX
  8
22
 10
11.5000
 20
48.0000
 30
0.0000
  0
VERTEX
  8
22
 10
11.5000
 20
38.0000
 30
0.0000
  0
SEQEND
  8
0
  0
POLYLINE
  8
22
 66
1
 10
0.0000
 20
0.0000
 30
0.0000
 40
0.0500
 41
0.0500
 70
0
  0
VERTEX
  8
22
 10
11.4750
 20
38.0000
 30
0.0000
 42
1.0000
  0
VERTEX
  8
22
 10
11.5250
 20
38.0000
 30
0.0000
  0
SEQEND
  8
0
  0
POLYLINE
  8
22
 66
1
 10
0.0000
 20
0.0000
 30
0.0000
 40
0.0500
 41
0.0500
 70
0
  0
VERTEX
  8
22
 10
11.5250
 20
48.0000
 30
0.0000
 42
1.0000
  0
VERTEX
  8
22
 10
11.4750
 20
48.0000
 30
0.0000
  0
SEQEND
  8
0
  0
POLYLINE
  8
22
 66
1
 10
0.0000
 20
0.0000
 30
0.0000
 40
0.1000
 41
0.1000
 70
0
  0
VERTEX
  8
22
 10
11.5000
 20
38.0000
 30
0.0000
  0
VERTEX
  8
22
 10
21.5000
 20
38.0000
 30
0.0000
  0
SEQEND
  8
0
  0
POLYLINE
  8
22
 66
1
 10
0.0000
 20
0.0000
 30
0.0000
 40
0.0500
 41
0.0500
 70
0
  0
VERTEX
  8
22
 10
21.5000
 20
37.9750
 30
0.0000
 42
1.0000
  0
VERTEX
  8
22
 10
21.5000
 20
38.0250
 30
0.0000
  0
SEQEND
  8
0
  0
POLYLINE
  8
22
 66
1
 10
0.0000
 20
0.0000
 30
0.0000
 40
0.0500
 41
0.0500
 70
0
  0
VERTEX
  8
22
 10
11.5000
 20
38.0250
 30
0.0000
 42
1.0000
  0
VERTEX
  8
22
 10
11.5000
 20
37.9750
 30
0.0000
  0
SEQEND
  8
0
  0
POLYLINE
  8
22
 66
1
 10
0.0000
 20
0.0000
 30
0.0000
 40
0.1016
 41
0.1016
 70
0
  0
VERTEX
  8
22
 10
16.2908
 20
37.3500
 30
0.0000
  0
VERTEX
  8
22
 10
16.2908
 20
36.4508
 30
0.0000
  0
SEQEND
  8
0
  0
POLYLINE
  8
22
 66
1
 10
0.0000
 20
0.0000
 30
0.0000
 40
0.0508
 41
0.0508
 70
0
  0
VERTEX
  8
22
 10
16.2654
 20
36.4508
 30
0.0000
 42
1.0000
  0
VERTEX
  8
22
 10
16.3162
 20
36.4508
 30
0.0000
  0
SEQEND
  8
0
  0
POLYLINE
  8
22
 66
1
 10
0.0000
 20
0.0000
 30
0.0000
 40
0.0508
 41
0.0508
 70
0
  0
VERTEX
  8
22
 10
16.3162
 20
37.3500
 30
0.0000
 42
1.0000
  0
VERTEX
  8
22
 10
16.2654
 20
37.3500
 30
0.0000
  0
SEQEND
  8
0
  0
POLYLINE
  8
22
 66
1
 10
0.0000
 20
0.0000
 30
0.0000
 40
0.1016
 41
0.1016
 70
0
  0
VERTEX
  8
22
 10
16.2908
 20
36.4508
 30
0.0000
  0
VERTEX
  8
22
 10
15.6913
 20
36.4508
 30
0.0000
  0
SEQEND
  8
0
  0
POLYLINE
  8
22
 66
1
 10
0.0000
 20
0.0000
 30
0.0000
 40
0.0508
 41
0.0508
 70
0
  0
VERTEX
  8
22
 10
15.6913
 20
36.4762
 30
0.0000
 42
1.0000
  0
VERTEX
  8
22
 10
15.6913
 20
36.4254
 30
0.0000
  0
SEQEND
  8
0
  0
POLYLINE
  8
22
 66
1
 10
0.0000
 20
0.0000
 30
0.0000
 40
0.0508
 41
0.0508
 70
0
  0
VERTEX
  8
22
 10
16.2908
 20
36.4254
 30
0.0000
 42
1.0000
  0
VERTEX
  8
22
 10
16.2908
 20
36.4762
 30
0.0000
  0
SEQEND
  8
0
  0
POLYLINE
  8
22
 66
1
 10
0.0000
 20
0.0000
 30
0.0000
 40
0.1016
 41
0.1016
 70
0
  0
VERTEX
  8
22
 10
15.3700
 20
37.0502
 30
0.0000
  0
VERTEX
  8
22
 10
15.0703
 20
37.3500
 30
0.0000
  0
SEQEND
  8
0
  0
POLYLINE
  8
22
 66
1
 10
0.0000
 20
0.0000
 30
0.0000
 40
0.0508
 41
0.0508
 70
0
  0
VERTEX
  8
22
 10
15.0882
 20
37.3679
 30
0.0000
 42
1.0000
  0
VERTEX
  8
22
 10
15.0523
 20
37.3320
 30
0.0000
  0
SEQEND
  8
0
  0
POLYLINE
  8
22
 66
1
 10
0.0000
 20
0.0000
 30
0.0000
 40
0.0508
 41
0.0508
 70
0
  0
VERTEX
  8
22
 10
15.3520
 20
37.0323
 30
0.0000
 42
1.0000
  0
VERTEX
  8
22
 10
15.3879
 20
37.0682
 30
0.0000
  0
SEQEND
  8
0
  0
POLYLINE
  8
22
 66
1
 10
0.0000
 20
0.0000
 30
0.0000
 40
0.1016
 41
0.1016
 70
0
  0
VERTEX
  8
22
 10
15.0703
 20
37.3500
 30
0.0000
  0
VERTEX
  8
22
 10
15.0703
 20
36.4508
 30
0.0000
  0
SEQEND
  8
0
  0
POLYLINE
  8
22
 66
1
 10
0.0000
 20
0.0000
 30
0.0000
 40
0.0508
 41
0.0508
 70
0
  0
VERTEX
  8
22
 10
15.0449
 20
36.4508
 30
0.0000
 42
1.0000
  0
VERTEX
  8
22
 10
15.0957
 20
36.4508
 30
0.0000
  0
SEQEND
  8
0
  0
POLYLINE
  8
22
 66
1
 10
0.0000
 20
0.0000
 30
0.0000
 40
0.0508
 41
0.0508
 70
0
  0
VERTEX
  8
22
 10
15.0957
 20
37.3500
 30
0.0000
 42
1.0000
  0
VERTEX
  8
22
 10
15.0449
 20
37.3500
 30
0.0000
  0
SEQEND
  8
0
  0
POLYLINE
  8
22
 66
1
 10
0.0000
 20
0.0000
 30
0.0000
 40
0.1016
 41
0.1016
 70
0
  0
VERTEX
  8
22
 10
15.3700
 20
36.4508
 30
0.0000
  0
VERTEX
  8
22
 10
14.7705
 20
36.4508
 30
0.0000
  0
SEQEND
  8
0
  0
POLYLINE
  8
22
 66
1
 10
0.0000
 20
0.0000
 30
0.0000
 40
0.0508
 41
0.0508
 70
0
  0
VERTEX
  8
22
 10
14.7705
 20
36.4762
 30
0.0000
 42
1.0000
  0
VERTEX
  8
22
 10
14.7705
 20
36.4254
 30
0.0000
  0
SEQEND
  8
0
  0
POLYLINE
  8
22
 66
1
 10
0.0000
 20
0.0000
 30
0.0000
 40
0.0508
 41
0.0508
 70
0
  0
VERTEX
  8
22
 10
15.3700
 20
36.4254
 30
0.0000
 42
1.0000
  0
VERTEX
  8
22
 10
15.3700
 20
36.4762
 30
0.0000
  0
SEQEND
  8
0
  0
POLYLINE
  8
22
 66
1
 10
0.0000
 20
0.0000
 30
0.0000
 40
0.1000
 41
0.1000
 70
0
  0
VERTEX
  8
22
 10
78.5000
 20
37.7500
 30
0.0000
  0
VERTEX
  8
22
 10
78.5000
 20
47.7500
 30
0.0000
  0
SEQEND
  8
0
  0
POLYLINE
  8
22
 66
1
 10
0.0000
 20
0.0000
 30
0.0000
 40
0.0500
 41
0.0500
 70
0
  0
VERTEX
  8
22
 10
78.5250
 20
47.7500
 30
0.0000
 42
1.0000
  0
VERTEX
  8
22
 10
78.4750
 20
47.7500
 30
0.0000
  0
SEQEND
  8
0
  0
POLYLINE
  8
22
 66
1
 10
0.0000
 20
0.0000
 30
0.0000
 40
0.0500
 41
0.0500
 70
0
  0
VERTEX
  8
22
 10
78.4750
 20
37.7500
 30
0.0000
 42
1.0000
  0
VERTEX
  8
22
 10
78.5250
 20
37.7500
 30
0.0000
  0
SEQEND
  8
0
  0
POLYLINE
  8
22
 66
1
 10
0.0000
 20
0.0000
 30
0.0000
 40
0.1000
 41
0.1000
 70
0
  0
VERTEX
  8
22
 10
78.5000
 20
47.7500
 30
0.0000
  0
VERTEX
  8
22
 10
68.5000
 20
47.7500
 30
0.0000
  0
SEQEND
  8
0
  0
POLYLINE
  8
22
 66
1
 10
0.0000
 20
0.0000
 30
0.0000
 40
0.0500
 41
0.0500
 70
0
  0
VERTEX
  8
22
 10
68.5000
 20
47.7750
 30
0.0000
 42
1.0000
  0
VERTEX
  8
22
 10
68.5000
 20
47.7250
 30
0.0000
  0
SEQEND
  8
0
  0
POLYLINE
  8
22
 66
1
 10
0.0000
 20
0.0000
 30
0.0000
 40
0.0500
 41
0.0500
 70
0
  0
VERTEX
  8
22
 10
78.5000
 20
47.7250
 30
0.0000
 42
1.0000
  0
VERTEX
  8
22
 10
78.5000
 20
47.7750
 30
0.0000
  0
SEQEND
  8
0
  0
POLYLINE
  8
22
 66
1
 10
0.0000
 20
0.0000
 30
0.0000
 40
0.1000
 41
0.1000
 70
0
  0
VERTEX
  8
22
 10
68.5000
 20
47.7500
 30
0.0000
  0
VERTEX
  8
22
 10
68.5000
 20
37.7500
 30
0.0000
  0
SEQEND
  8
0
  0
POLYLINE
  8
22
 66
1
 10
0.0000
 20
0.0000
 30
0.0000
 40
0.0500
 41
0.0500
 70
0
  0
VERTEX
  8
22
 10
68.4750
 20
37.7500
 30
0.0000
 42
1.0000
  0
VERTEX
  8
22
 10
68.5250
 20
37.7500
 30
0.0000
  0
SEQEND
  8
0
  0
POLYLINE
  8
22
 66
1
 10
0.0000
 20
0.0000
 30
0.0000
 40
0.0500
 41
0.0500
 70
0
  0
VERTEX
  8
22
 10
68.5250
 20
47.7500
 30
0.0000
 42
1.0000
  0
VERTEX
  8
22
 10
68.4750
 20
47.7500
 30
0.0000
  0
SEQEND
  8
0
  0
POLYLINE
  8
22
 66
1
 10
0.0000
 20
0.0000
 30
0.0000
 40
0.1000
 41
0.1000
 70
0
  0
VERTEX
  8
22
 10
68.5000
 20
37.7500
 30
0.0000
  0
VERTEX
  8
22
 10
78.5000
 20
37.7500
 30
0.0000
  0
SEQEND
  8
0
  0
POLYLINE
  8
22
 66
1
 10
0.0000
 20
0.0000
 30
0.0000
 40
0.0500
 41
0.0500
 70
0
  0
VERTEX
  8
22
 10
78.5000
 20
37.7250
 30
0.0000
 42
1.0000
  0
VERTEX
  8
22
 10
78.5000
 20
37.7750
 30
0.0000
  0
SEQEND
  8
0
  0
POLYLINE
  8
22
 66
1
 10
0.0000
 20
0.0000
 30
0.0000
 40
0.0500
 41
0.0500
 70
0
  0
VERTEX
  8
22
 10
68.5000
 20
37.7750
 30
0.0000
 42
1.0000
  0
VERTEX
  8
22
 10
68.5000
 20
37.7250
 30
0.0000
  0
SEQEND
  8
0
  0
POLYLINE
  8
22
 66
1
 10
0.0000
 20
0.0000
 30
0.0000
 40
0.1016
 41
0.1016
 70
0
  0
VERTEX
  8
22
 10
73.2908
 20
37.1000
 30
0.0000
  0
VERTEX
  8
22
 10
73.2908
 20
36.2008
 30
0.0000
  0
SEQEND
  8
0
  0
POLYLINE
  8
22
 66
1
 10
0.0000
 20
0.0000
 30
0.0000
 40
0.0508
 41
0.0508
 70
0
  0
VERTEX
  8
22
 10
73.2654
 20
36.2008
 30
0.0000
 42
1.0000
  0
VERTEX
  8
22
 10
73.3162
 20
36.2008
 30
0.0000
  0
SEQEND
  8
0
  0
POLYLINE
  8
22
 66
1
 10
0.0000
 20
0.0000
 30
0.0000
 40
0.0508
 41
0.0508
 70
0
  0
VERTEX
  8
22
 10
73.3162
 20
37.1000
 30
0.0000
 42
1.0000
  0
VERTEX
  8
22
 10
73.2654
 20
37.1000
 30
0.0000
  0
SEQEND
  8
0
  0
POLYLINE
  8
22
 66
1
 10
0.0000
 20
0.0000
 30
0.0000
 40
0.1016
 41
0.1016
 70
0
  0
VERTEX
  8
22
 10
73.2908
 20
36.2008
 30
0.0000
  0
VERTEX
  8
22
 10
72.6913
 20
36.2008
 30
0.0000
  0
SEQEND
  8
0
  0
POLYLINE
  8
22
 66
1
 10
0.0000
 20
0.0000
 30
0.0000
 40
0.0508
 41
0.0508
 70
0
  0
VERTEX
  8
22
 10
72.6913
 20
36.2262
 30
0.0000
 42
1.0000
  0
VERTEX
  8
22
 10
72.6913
 20
36.1754
 30
0.0000
  0
SEQEND
  8
0
  0
POLYLINE
  8
22
 66
1
 10
0.0000
 20
0.0000
 30
0.0000
 40
0.0508
 41
0.0508
 70
0
  0
VERTEX
  8
22
 10
73.2908
 20
36.1754
 30
0.0000
 42
1.0000
  0
VERTEX
  8
22
 10
73.2908
 20
36.2262
 30
0.0000
  0
SEQEND
  8
0
  0
POLYLINE
  8
22
 66
1
 10
0.0000
 20
0.0000
 30
0.0000
 40
0.1016
 41
0.1016
 70
0
  0
VERTEX
  8
22
 10
71.7705
 20
36.2008
 30
0.0000
  0
VERTEX
  8
22
 10
72.3700
 20
36.2008
 30
0.0000
  0
SEQEND
  8
0
  0
POLYLINE
  8
22
 66
1
 10
0.0000
 20
0.0000
 30
0.0000
 40
0.0508
 41
0.0508
 70
0
  0
VERTEX
  8
22
 10
72.3700
 20
36.1754
 30
0.0000
 42
1.0000
  0
VERTEX
  8
22
 10
72.3700
 20
36.2262
 30
0.0000
  0
SEQEND
  8
0
  0
POLYLINE
  8
22
 66
1
 10
0.0000
 20
0.0000
 30
0.0000
 40
0.0508
 41
0.0508
 70
0
  0
VERTEX
  8
22
 10
71.7705
 20
36.2262
 30
0.0000
 42
1.0000
  0
VERTEX
  8
22
 10
71.7705
 20
36.1754
 30
0.0000
  0
SEQEND
  8
0
  0
POLYLINE
  8
22
 66
1
 10
0.0000
 20
0.0000
 30
0.0000
 40
0.1016
 41
0.1016
 70
0
  0
VERTEX
  8
22
 10
72.3700
 20
36.2008
 30
0.0000
  0
VERTEX
  8
22
 10
71.7705
 20
36.8002
 30
0.0000
  0
SEQEND
  8
0
  0
POLYLINE
  8
22
 66
1
 10
0.0000
 20
0.0000
 30
0.0000
 40
0.0508
 41
0.0508
 70
0
  0
VERTEX
  8
22
 10
71.7885
 20
36.8182
 30
0.0000
 42
1.0000
  0
VERTEX
  8
22
 10
71.7526
 20
36.7823
 30
0.0000
  0
SEQEND
  8
0
  0
POLYLINE
  8
22
 66
1
 10
0.0000
 20
0.0000
 30
0.0000
 40
0.0508
 41
0.0508
 70
0
  0
VERTEX
  8
22
 10
72.3520
 20
36.1828
 30
0.0000
 42
1.0000
  0
VERTEX
  8
22
 10
72.3879
 20
36.2188
 30
0.0000
  0
SEQEND
  8
0
  0
POLYLINE
  8
22
 66
1
 10
0.0000
 20
0.0000
 30
0.0000
 40
0.1016
 41
0.1016
 70
0
  0
VERTEX
  8
22
 10
71.7705
 20
36.8002
 30
0.0000
  0
VERTEX
  8
22
 10
71.7705
 20
36.9501
 30
0.0000
  0
SEQEND
  8
0
  0
POLYLINE
  8
22
 66
1
 10
0.0000
 20
0.0000
 30
0.0000
 40
0.0508
 41
0.0508
 70
0
  0
VERTEX
  8
22
 10
71.7959
 20
36.9501
 30
0.0000
 42
1.0000
  0
VERTEX
  8
22
 10
71.7451
 20
36.9501
 30
0.0000
  0
SEQEND
  8
0
  0
POLYLINE
  8
22
 66
1
 10
0.0000
 20
0.0000
 30
0.0000
 40
0.0508
 41
0.0508
 70
0
  0
VERTEX
  8
22
 10
71.7451
 20
36.8002
 30
0.0000
 42
1.0000
  0
VERTEX
  8
22
 10
71.7959
 20
36.8002
 30
0.0000
  0
SEQEND
  8
0
  0
POLYLINE
  8
22
 66
1
 10
0.0000
 20
0.0000
 30
0.0000
 40
0.1016
 41
0.1016
 70
0
  0
VERTEX
  8
22
 10
71.7705
 20
36.9501
 30
0.0000
  0
VERTEX
  8
22
 10
71.9204
 20
37.1000
 30
0.0000
  0
SEQEND
  8
0
  0
POLYLINE
  8
22
 66
1
 10
0.0000
 20
0.0000
 30
0.0000
 40
0.0508
 41
0.0508
 70
0
  0
VERTEX
  8
22
 10
71.9384
 20
37.0820
 30
0.0000
 42
1.0000
  0
VERTEX
  8
22
 10
71.9024
 20
37.1179
 30
0.0000
  0
SEQEND
  8
0
  0
POLYLINE
  8
22
 66
1
 10
0.0000
 20
0.0000
 30
0.0000
 40
0.0508
 41
0.0508
 70
0
  0
VERTEX
  8
22
 10
71.7526
 20
36.9681
 30
0.0000
 42
1.0000
  0
VERTEX
  8
22
 10
71.7885
 20
36.9321
 30
0.0000
  0
SEQEND
  8
0
  0
POLYLINE
  8
22
 66
1
 10
0.0000
 20
0.0000
 30
0.0000
 40
0.1016
 41
0.1016
 70
0
  0
VERTEX
  8
22
 10
71.9204
 20
37.1000
 30
0.0000
  0
VERTEX
  8
22
 10
72.2201
 20
37.1000
 30
0.0000
  0
SEQEND
  8
0
  0
POLYLINE
  8
22
 66
1
 10
0.0000
 20
0.0000
 30
0.0000
 40
0.0508
 41
0.0508
 70
0
  0
VERTEX
  8
22
 10
72.2201
 20
37.0746
 30
0.0000
 42
1.0000
  0
VERTEX
  8
22
 10
72.2201
 20
37.1254
 30
0.0000
  0
SEQEND
  8
0
  0
POLYLINE
  8
22
 66
1
 10
0.0000
 20
0.0000
 30
0.0000
 40
0.0508
 41
0.0508
 70
0
  0
VERTEX
  8
22
 10
71.9204
 20
37.1254
 30
0.0000
 42
1.0000
  0
VERTEX
  8
22
 10
71.9204
 20
37.0746
 30
0.0000
  0
SEQEND
  8
0
  0
POLYLINE
  8
22
 66
1
 10
0.0000
 20
0.0000
 30
0.0000
 40
0.1016
 41
0.1016
 70
0
  0
VERTEX
  8
22
 10
72.2201
 20
37.1000
 30
0.0000
  0
VERTEX
  8
22
 10
72.3700
 20
36.9501
 30
0.0000
  0
SEQEND
  8
0
  0
POLYLINE
  8
22
 66
1
 10
0.0000
 20
0.0000
 30
0.0000
 40
0.0508
 41
0.0508
 70
0
  0
VERTEX
  8
22
 10
72.3520
 20
36.9321
 30
0.0000
 42
1.0000
  0
VERTEX
  8
22
 10
72.3879
 20
36.9681
 30
0.0000
  0
SEQEND
  8
0
  0
POLYLINE
  8
22
 66
1
 10
0.0000
 20
0.0000
 30
0.0000
 40
0.0508
 41
0.0508
 70
0
  0
VERTEX
  8
22
 10
72.2381
 20
37.1179
 30
0.0000
 42
1.0000
  0
VERTEX
  8
22
 10
72.2022
 20
37.0820
 30
0.0000
  0
SEQEND
  8
0
  0
POLYLINE
  8
22
 66
1
 10
0.0000
 20
0.0000
 30
0.0000
 40
0.1000
 41
0.1000
 70
0
  0
VERTEX
  8
22
 10
40.0000
 20
37.7500
 30
0.0000
  0
VERTEX
  8
22
 10
40.0000
 20
47.7500
 30
0.0000
  0
SEQEND
  8
0
  0
POLYLINE
  8
22
 66
1
 10
0.0000
 20
0.0000
 30
0.0000
 40
0.0500
 41
0.0500
 70
0
  0
VERTEX
  8
22
 10
40.0250
 20
47.7500
 30
0.0000
 42
1.0000
  0
VERTEX
  8
22
 10
39.9750
 20
47.7500
 30
0.0000
  0
SEQEND
  8
0
  0
POLYLINE
  8
22
 66
1
 10
0.0000
 20
0.0000
 30
0.0000
 40
0.0500
 41
0.0500
 70
0
  0
VERTEX
  8
22
 10
39.9750
 20
37.7500
 30
0.0000
 42
1.0000
  0
VERTEX
  8
22
 10
40.0250
 20
37.7500
 30
0.0000
  0
SEQEND
  8
0
  0
POLYLINE
  8
22
 66
1
 10
0.0000
 20
0.0000
 30
0.0000
 40
0.1000
 41
0.1000
 70
0
  0
VERTEX
  8
22
 10
40.0000
 20
47.7500
 30
0.0000
  0
VERTEX
  8
22
 10
30.0000
 20
47.7500
 30
0.0000
  0
SEQEND
  8
0
  0
POLYLINE
  8
22
 66
1
 10
0.0000
 20
0.0000
 30
0.0000
 40
0.0500
 41
0.0500
 70
0
  0
VERTEX
  8
22
 10
30.0000
 20
47.7750
 30
0.0000
 42
1.0000
  0
VERTEX
  8
22
 10
30.0000
 20
47.7250
 30
0.0000
  0
SEQEND
  8
0
  0
POLYLINE
  8
22
 66
1
 10
0.0000
 20
0.0000
 30
0.0000
 40
0.0500
 41
0.0500
 70
0
  0
VERTEX
  8
22
 10
40.0000
 20
47.7250
 30
0.0000
 42
1.0000
  0
VERTEX
  8
22
 10
40.0000
 20
47.7750
 30
0.0000
  0
SEQEND
  8
0
  0
POLYLINE
  8
22
 66
1
 10
0.0000
 20
0.0000
 30
0.0000
 40
0.1000
 41
0.1000
 70
0
  0
VERTEX
  8
22
 10
30.0000
 20
47.7500
 30
0.0000
  0
VERTEX
  8
22
 10
30.0000
 20
37.7500
 30
0.0000
  0
SEQEND
  8
0
  0
POLYLINE
  8
22
 66
1
 10
0.0000
 20
0.0000
 30
0.0000
 40
0.0500
 41
0.0500
 70
0
  0
VERTEX
  8
22
 10
29.9750
 20
37.7500
 30
0.0000
 42
1.0000
  0
VERTEX
  8
22
 10
30.0250
 20
37.7500
 30
0.0000
  0
SEQEND
  8
0
  0
POLYLINE
  8
22
 66
1
 10
0.0000
 20
0.0000
 30
0.0000
 40
0.0500
 41
0.0500
 70
0
  0
VERTEX
  8
22
 10
30.0250
 20
47.7500
 30
0.0000
 42
1.0000
  0
VERTEX
  8
22
 10
29.9750
 20
47.7500
 30
0.0000
  0
SEQEND
  8
0
  0
POLYLINE
  8
22
 66
1
 10
0.0000
 20
0.0000
 30
0.0000
 40
0.1000
 41
0.1000
 70
0
  0
VERTEX
  8
22
 10
30.0000
 20
37.7500
 30
0.0000
  0
VERTEX
  8
22
 10
40.0000
 20
37.7500
 30
0.0000
  0
SEQEND
  8
0
  0
POLYLINE
  8
22
 66
1
 10
0.0000
 20
0.0000
 30
0.0000
 40
0.0500
 41
0.0500
 70
0
  0
VERTEX
  8
22
 10
40.0000
 20
37.7250
 30
0.0000
 42
1.0000
  0
VERTEX
  8
22
 10
40.0000
 20
37.7750
 30
0.0000
  0
SEQEND
  8
0
  0
POLYLINE
  8
22
 66
1
 10
0.0000
 20
0.0000
 30
0.0000
 40
0.0500
 41
0.0500
 70
0
  0
VERTEX
  8
22
 10
30.0000
 20
37.7750
 30
0.0000
 42
1.0000
  0
VERTEX
  8
22
 10
30.0000
 20
37.7250
 30
0.0000
  0
SEQEND
  8
0
  0
POLYLINE
  8
22
 66
1
 10
0.0000
 20
0.0000
 30
0.0000
 40
0.1016
 41
0.1016
 70
0
  0
VERTEX
  8
22
 10
34.7908
 20
37.1000
 30
0.0000
  0
VERTEX
  8
22
 10
34.7908
 20
36.2008
 30
0.0000
  0
SEQEND
  8
0
  0
POLYLINE
  8
22
 66
1
 10
0.0000
 20
0.0000
 30
0.0000
 40
0.0508
 41
0.0508
 70
0
  0
VERTEX
  8
22
 10
34.7654
 20
36.2008
 30
0.0000
 42
1.0000
  0
VERTEX
  8
22
 10
34.8162
 20
36.2008
 30
0.0000
  0
SEQEND
  8
0
  0
POLYLINE
  8
22
 66
1
 10
0.0000
 20
0.0000
 30
0.0000
 40
0.0508
 41
0.0508
 70
0
  0
VERTEX
  8
22
 10
34.8162
 20
37.1000
 30
0.0000
 42
1.0000
  0
VERTEX
  8
22
 10
34.7654
 20
37.1000
 30
0.0000
  0
SEQEND
  8
0
  0
POLYLINE
  8
22
 66
1
 10
0.0000
 20
0.0000
 30
0.0000
 40
0.1016
 41
0.1016
 70
0
  0
VERTEX
  8
22
 10
34.7908
 20
36.2008
 30
0.0000
  0
VERTEX
  8
22
 10
34.1913
 20
36.2008
 30
0.0000
  0
SEQEND
  8
0
  0
POLYLINE
  8
22
 66
1
 10
0.0000
 20
0.0000
 30
0.0000
 40
0.0508
 41
0.0508
 70
0
  0
VERTEX
  8
22
 10
34.1913
 20
36.2262
 30
0.0000
 42
1.0000
  0
VERTEX
  8
22
 10
34.1913
 20
36.1754
 30
0.0000
  0
SEQEND
  8
0
  0
POLYLINE
  8
22
 66
1
 10
0.0000
 20
0.0000
 30
0.0000
 40
0.0508
 41
0.0508
 70
0
  0
VERTEX
  8
22
 10
34.7908
 20
36.1754
 30
0.0000
 42
1.0000
  0
VERTEX
  8
22
 10
34.7908
 20
36.2262
 30
0.0000
  0
SEQEND
  8
0
  0
POLYLINE
  8
22
 66
1
 10
0.0000
 20
0.0000
 30
0.0000
 40
0.1016
 41
0.1016
 70
0
  0
VERTEX
  8
22
 10
33.8700
 20
36.9501
 30
0.0000
  0
VERTEX
  8
22
 10
33.7201
 20
37.1000
 30
0.0000
  0
SEQEND
  8
0
  0
POLYLINE
  8
22
 66
1
 10
0.0000
 20
0.0000
 30
0.0000
 40
0.0508
 41
0.0508
 70
0
  0
VERTEX
  8
22
 10
33.7381
 20
37.1179
 30
0.0000
 42
1.0000
  0
VERTEX
  8
22
 10
33.7022
 20
37.0820
 30
0.0000
  0
SEQEND
  8
0
  0
POLYLINE
  8
22
 66
1
 10
0.0000
 20
0.0000
 30
0.0000
 40
0.0508
 41
0.0508
 70
0
  0
VERTEX
  8
22
 10
33.8520
 20
36.9321
 30
0.0000
 42
1.0000
  0
VERTEX
  8
22
 10
33.8879
 20
36.9681
 30
0.0000
  0
SEQEND
  8
0
  0
POLYLINE
  8
22
 66
1
 10
0.0000
 20
0.0000
 30
0.0000
 40
0.1016
 41
0.1016
 70
0
  0
VERTEX
  8
22
 10
33.7201
 20
37.1000
 30
0.0000
  0
VERTEX
  8
22
 10
33.4204
 20
37.1000
 30
0.0000
  0
SEQEND
  8
0
  0
POLYLINE
  8
22
 66
1
 10
0.0000
 20
0.0000
 30
0.0000
 40
0.0508
 41
0.0508
 70
0
  0
VERTEX
  8
22
 10
33.4204
 20
37.1254
 30
0.0000
 42
1.0000
  0
VERTEX
  8
22
 10
33.4204
 20
37.0746
 30
0.0000
  0
SEQEND
  8
0
  0
POLYLINE
  8
22
 66
1
 10
0.0000
 20
0.0000
 30
0.0000
 40
0.0508
 41
0.0508
 70
0
  0
VERTEX
  8
22
 10
33.7201
 20
37.0746
 30
0.0000
 42
1.0000
  0
VERTEX
  8
22
 10
33.7201
 20
37.1254
 30
0.0000
  0
SEQEND
  8
0
  0
POLYLINE
  8
22
 66
1
 10
0.0000
 20
0.0000
 30
0.0000
 40
0.1016
 41
0.1016
 70
0
  0
VERTEX
  8
22
 10
33.4204
 20
37.1000
 30
0.0000
  0
VERTEX
  8
22
 10
33.2705
 20
36.9501
 30
0.0000
  0
SEQEND
  8
0
  0
POLYLINE
  8
22
 66
1
 10
0.0000
 20
0.0000
 30
0.0000
 40
0.0508
 41
0.0508
 70
0
  0
VERTEX
  8
22
 10
33.2526
 20
36.9681
 30
0.0000
 42
1.0000
  0
VERTEX
  8
22
 10
33.2885
 20
36.9321
 30
0.0000
  0
SEQEND
  8
0
  0
POLYLINE
  8
22
 66
1
 10
0.0000
 20
0.0000
 30
0.0000
 40
0.0508
 41
0.0508
 70
0
  0
VERTEX
  8
22
 10
33.4384
 20
37.0820
 30
0.0000
 42
1.0000
  0
VERTEX
  8
22
 10
33.4024
 20
37.1179
 30
0.0000
  0
SEQEND
  8
0
  0
POLYLINE
  8
22
 66
1
 10
0.0000
 20
0.0000
 30
0.0000
 40
0.1016
 41
0.1016
 70
0
  0
VERTEX
  8
22
 10
33.2705
 20
36.9501
 30
0.0000
  0
VERTEX
  8
22
 10
33.2705
 20
36.8002
 30
0.0000
  0
SEQEND
  8
0
  0
POLYLINE
  8
22
 66
1
 10
0.0000
 20
0.0000
 30
0.0000
 40
0.0508
 41
0.0508
 70
0
  0
VERTEX
  8
22
 10
33.2451
 20
36.8002
 30
0.0000
 42
1.0000
  0
VERTEX
  8
22
 10
33.2959
 20
36.8002
 30
0.0000
  0
SEQEND
  8
0
  0
POLYLINE
  8
22
 66
1
 10
0.0000
 20
0.0000
 30
0.0000
 40
0.0508
 41
0.0508
 70
0
  0
VERTEX
  8
22
 10
33.2959
 20
36.9501
 30
0.0000
 42
1.0000
  0
VERTEX
  8
22
 10
33.2451
 20
36.9501
 30
0.0000
  0
SEQEND
  8
0
  0
POLYLINE
  8
22
 66
1
 10
0.0000
 20
0.0000
 30
0.0000
 40
0.1016
 41
0.1016
 70
0
  0
VERTEX
  8
22
 10
33.2705
 20
36.8002
 30
0.0000
  0
VERTEX
  8
22
 10
33.4204
 20
36.6504
 30
0.0000
  0
SEQEND
  8
0
  0
POLYLINE
  8
22
 66
1
 10
0.0000
 20
0.0000
 30
0.0000
 40
0.0508
 41
0.0508
 70
0
  0
VERTEX
  8
22
 10
33.4024
 20
36.6324
 30
0.0000
 42
1.0000
  0
VERTEX
  8
22
 10
33.4384
 20
36.6683
 30
0.0000
  0
SEQEND
  8
0
  0
POLYLINE
  8
22
 66
1
 10
0.0000
 20
0.0000
 30
0.0000
 40
0.0508
 41
0.0508
 70
0
  0
VERTEX
  8
22
 10
33.2885
 20
36.8182
 30
0.0000
 42
1.0000
  0
VERTEX
  8
22
 10
33.2526
 20
36.7823
 30
0.0000
  0
SEQEND
  8
0
  0
POLYLINE
  8
22
 66
1
 10
0.0000
 20
0.0000
 30
0.0000
 40
0.1016
 41
0.1016
 70
0
  0
VERTEX
  8
22
 10
33.4204
 20
36.6504
 30
0.0000
  0
VERTEX
  8
22
 10
33.5703
 20
36.6504
 30
0.0000
  0
SEQEND
  8
0
  0
POLYLINE
  8
22
 66
1
 10
0.0000
 20
0.0000
 30
0.0000
 40
0.0508
 41
0.0508
 70
0
  0
VERTEX
  8
22
 10
33.5703
 20
36.6250
 30
0.0000
 42
1.0000
  0
VERTEX
  8
22
 10
33.5703
 20
36.6758
 30
0.0000
  0
SEQEND
  8
0
  0
POLYLINE
  8
22
 66
1
 10
0.0000
 20
0.0000
 30
0.0000
 40
0.0508
 41
0.0508
 70
0
  0
VERTEX
  8
22
 10
33.4204
 20
36.6758
 30
0.0000
 42
1.0000
  0
VERTEX
  8
22
 10
33.4204
 20
36.6250
 30
0.0000
  0
SEQEND
  8
0
  0
POLYLINE
  8
22
 66
1
 10
0.0000
 20
0.0000
 30
0.0000
 40
0.1016
 41
0.1016
 70
0
  0
VERTEX
  8
22
 10
33.4204
 20
36.6504
 30
0.0000
  0
VERTEX
  8
22
 10
33.2705
 20
36.5005
 30
0.0000
  0
SEQEND
  8
0
  0
POLYLINE
  8
22
 66
1
 10
0.0000
 20
0.0000
 30
0.0000
 40
0.0508
 41
0.0508
 70
0
  0
VERTEX
  8
22
 10
33.2526
 20
36.5185
 30
0.0000
 42
1.0000
  0
VERTEX
  8
22
 10
33.2885
 20
36.4826
 30
0.0000
  0
SEQEND
  8
0
  0
POLYLINE
  8
22
 66
1
 10
0.0000
 20
0.0000
 30
0.0000
 40
0.0508
 41
0.0508
 70
0
  0
VERTEX
  8
22
 10
33.4384
 20
36.6324
 30
0.0000
 42
1.0000
  0
VERTEX
  8
22
 10
33.4024
 20
36.6683
 30
0.0000
  0
SEQEND
  8
0
  0
POLYLINE
  8
22
 66
1
 10
0.0000
 20
0.0000
 30
0.0000
 40
0.1016
 41
0.1016
 70
0
  0
VERTEX
  8
22
 10
33.2705
 20
36.5005
 30
0.0000
  0
VERTEX
  8
22
 10
33.2705
 20
36.3507
 30
0.0000
  0
SEQEND
  8
0
  0
POLYLINE
  8
22
 66
1
 10
0.0000
 20
0.0000
 30
0.0000
 40
0.0508
 41
0.0508
 70
0
  0
VERTEX
  8
22
 10
33.2451
 20
36.3507
 30
0.0000
 42
1.0000
  0
VERTEX
  8
22
 10
33.2959
 20
36.3507
 30
0.0000
  0
SEQEND
  8
0
  0
POLYLINE
  8
22
 66
1
 10
0.0000
 20
0.0000
 30
0.0000
 40
0.0508
 41
0.0508
 70
0
  0
VERTEX
  8
22
 10
33.2959
 20
36.5005
 30
0.0000
 42
1.0000
  0
VERTEX
  8
22
 10
33.2451
 20
36.5005
 30
0.0000
  0
SEQEND
  8
0
  0
POLYLINE
  8
22
 66
1
 10
0.0000
 20
0.0000
 30
0.0000
 40
0.1016
 41
0.1016
 70
0
  0
VERTEX
  8
22
 10
33.2705
 20
36.3507
 30
0.0000
  0
VERTEX
  8
22
 10
33.4204
 20
36.2008
 30
0.0000
  0
SEQEND
  8
0
  0
POLYLINE
  8
22
 66
1
 10
0.0000
 20
0.0000
 30
0.0000
 40
0.0508
 41
0.0508
 70
0
  0
VERTEX
  8
22
 10
33.4024
 20
36.1828
 30
0.0000
 42
1.0000
  0
VERTEX
  8
22
 10
33.4384
 20
36.2188
 30
0.0000
  0
SEQEND
  8
0
  0
POLYLINE
  8
22
 66
1
 10
0.0000
 20
0.0000
 30
0.0000
 40
0.0508
 41
0.0508
 70
0
  0
VERTEX
  8
22
 10
33.2885
 20
36.3686
 30
0.0000
 42
1.0000
  0
VERTEX
  8
22
 10
33.2526
 20
36.3327
 30
0.0000
  0
SEQEND
  8
0
  0
POLYLINE
  8
22
 66
1
 10
0.0000
 20
0.0000
 30
0.0000
 40
0.1016
 41
0.1016
 70
0
  0
VERTEX
  8
22
 10
33.4204
 20
36.2008
 30
0.0000
  0
VERTEX
  8
22
 10
33.7201
 20
36.2008
 30
0.0000
  0
SEQEND
  8
0
  0
POLYLINE
  8
22
 66
1
 10
0.0000
 20
0.0000
 30
0.0000
 40
0.0508
 41
0.0508
 70
0
  0
VERTEX
  8
22
 10
33.7201
 20
36.1754
 30
0.0000
 42
1.0000
  0
VERTEX
  8
22
 10
33.7201
 20
36.2262
 30
0.0000
  0
SEQEND
  8
0
  0
POLYLINE
  8
22
 66
1
 10
0.0000
 20
0.0000
 30
0.0000
 40
0.0508
 41
0.0508
 70
0
  0
VERTEX
  8
22
 10
33.4204
 20
36.2262
 30
0.0000
 42
1.0000
  0
VERTEX
  8
22
 10
33.4204
 20
36.1754
 30
0.0000
  0
SEQEND
  8
0
  0
POLYLINE
  8
22
 66
1
 10
0.0000
 20
0.0000
 30
0.0000
 40
0.1016
 41
0.1016
 70
0
  0
VERTEX
  8
22
 10
33.7201
 20
36.2008
 30
0.0000
  0
VERTEX
  8
22
 10
33.8700
 20
36.3507
 30
0.0000
  0
SEQEND
  8
0
  0
POLYLINE
  8
22
 66
1
 10
0.0000
 20
0.0000
 30
0.0000
 40
0.0508
 41
0.0508
 70
0
  0
VERTEX
  8
22
 10
33.8879
 20
36.3327
 30
0.0000
 42
1.0000
  0
VERTEX
  8
22
 10
33.8520
 20
36.3686
 30
0.0000
  0
SEQEND
  8
0
  0
POLYLINE
  8
22
 66
1
 10
0.0000
 20
0.0000
 30
0.0000
 40
0.0508
 41
0.0508
 70
0
  0
VERTEX
  8
22
 10
33.7022
 20
36.2188
 30
0.0000
 42
1.0000
  0
VERTEX
  8
22
 10
33.7381
 20
36.1828
 30
0.0000
  0
SEQEND
  8
0
  0
POLYLINE
  8
22
 66
1
 10
0.0000
 20
0.0000
 30
0.0000
 40
0.1000
 41
0.1000
 70
0
  0
VERTEX
  8
22
 10
59.4500
 20
37.7200
 30
0.0000
  0
VERTEX
  8
22
 10
59.4500
 20
47.7200
 30
0.0000
  0
SEQEND
  8
0
  0
POLYLINE
  8
22
 66
1
 10
0.0000
 20
0.0000
 30
0.0000
 40
0.0500
 41
0.0500
 70
0
  0
VERTEX
  8
22
 10
59.4750
 20
47.7200
 30
0.0000
 42
1.0000
  0
VERTEX
  8
22
 10
59.4250
 20
47.7200
 30
0.0000
  0
SEQEND
  8
0
  0
POLYLINE
  8
22
 66
1
 10
0.0000
 20
0.0000
 30
0.0000
 40
0.0500
 41
0.0500
 70
0
  0
VERTEX
  8
22
 10
59.4250
 20
37.7200
 30
0.0000
 42
1.0000
  0
VERTEX
  8
22
 10
59.4750
 20
37.7200
 30
0.0000
  0
SEQEND
  8
0
  0
POLYLINE
  8
22
 66
1
 10
0.0000
 20
0.0000
 30
0.0000
 40
0.1000
 41
0.1000
 70
0
  0
VERTEX
  8
22
 10
59.4500
 20
47.7200
 30
0.0000
  0
VERTEX
  8
22
 10
49.4500
 20
47.7200
 30
0.0000
  0
SEQEND
  8
0
  0
POLYLINE
  8
22
 66
1
 10
0.0000
 20
0.0000
 30
0.0000
 40
0.0500
 41
0.0500
 70
0
  0
VERTEX
  8
22
 10
49.4500
 20
47.7450
 30
0.0000
 42
1.0000
  0
VERTEX
  8
22
 10
49.4500
 20
47.6950
 30
0.0000
  0
SEQEND
  8
0
  0
POLYLINE
  8
22
 66
1
 10
0.0000
 20
0.0000
 30
0.0000
 40
0.0500
 41
0.0500
 70
0
  0
VERTEX
  8
22
 10
59.4500
 20
47.6950
 30
0.0000
 42
1.0000
  0
VERTEX
  8
22
 10
59.4500
 20
47.7450
 30
0.0000
  0
SEQEND
  8
0
  0
POLYLINE
  8
22
 66
1
 10
0.0000
 20
0.0000
 30
0.0000
 40
0.1000
 41
0.1000
 70
0
  0
VERTEX
  8
22
 10
49.4500
 20
47.7200
 30
0.0000
  0
VERTEX
  8
22
 10
49.4500
 20
37.7200
 30
0.0000
  0
SEQEND
  8
0
  0
POLYLINE
  8
22
 66
1
 10
0.0000
 20
0.0000
 30
0.0000
 40
0.0500
 41
0.0500
 70
0
  0
VERTEX
  8
22
 10
49.4250
 20
37.7200
 30
0.0000
 42
1.0000
  0
VERTEX
  8
22
 10
49.4750
 20
37.7200
 30
0.0000
  0
SEQEND
  8
0
  0
POLYLINE
  8
22
 66
1
 10
0.0000
 20
0.0000
 30
0.0000
 40
0.0500
 41
0.0500
 70
0
  0
VERTEX
  8
22
 10
49.4750
 20
47.7200
 30
0.0000
 42
1.0000
  0
VERTEX
  8
22
 10
49.4250
 20
47.7200
 30
0.0000
  0
SEQEND
  8
0
  0
POLYLINE
  8
22
 66
1
 10
0.0000
 20
0.0000
 30
0.0000
 40
0.1000
 41
0.1000
 70
0
  0
VERTEX
  8
22
 10
49.4500
 20
37.7200
 30
0.0000
  0
VERTEX
  8
22
 10
59.4500
 20
37.7200
 30
0.0000
  0
SEQEND
  8
0
  0
POLYLINE
  8
22
 66
1
 10
0.0000
 20
0.0000
 30
0.0000
 40
0.0500
 41
0.0500
 70
0
  0
VERTEX
  8
22
 10
59.4500
 20
37.6950
 30
0.0000
 42
1.0000
  0
VERTEX
  8
22
 10
59.4500
 20
37.7450
 30
0.0000
  0
SEQEND
  8
0
  0
POLYLINE
  8
22
 66
1
 10
0.0000
 20
0.0000
 30
0.0000
 40
0.0500
 41
0.0500
 70
0
  0
VERTEX
  8
22
 10
49.4500
 20
37.7450
 30
0.0000
 42
1.0000
  0
VERTEX
  8
22
 10
49.4500
 20
37.6950
 30
0.0000
  0
SEQEND
  8
0
  0
POLYLINE
  8
22
 66
1
 10
0.0000
 20
0.0000
 30
0.0000
 40
0.1016
 41
0.1016
 70
0
  0
VERTEX
  8
22
 10
54.2408
 20
37.0700
 30
0.0000
  0
VERTEX
  8
22
 10
54.2408
 20
36.1708
 30
0.0000
  0
SEQEND
  8
0
  0
POLYLINE
  8
22
 66
1
 10
0.0000
 20
0.0000
 30
0.0000
 40
0.0508
 41
0.0508
 70
0
  0
VERTEX
  8
22
 10
54.2154
 20
36.1708
 30
0.0000
 42
1.0000
  0
VERTEX
  8
22
 10
54.2662
 20
36.1708
 30
0.0000
  0
SEQEND
  8
0
  0
POLYLINE
  8
22
 66
1
 10
0.0000
 20
0.0000
 30
0.0000
 40
0.0508
 41
0.0508
 70
0
  0
VERTEX
  8
22
 10
54.2662
 20
37.0700
 30
0.0000
 42
1.0000
  0
VERTEX
  8
22
 10
54.2154
 20
37.0700
 30
0.0000
  0
SEQEND
  8
0
  0
POLYLINE
  8
22
 66
1
 10
0.0000
 20
0.0000
 30
0.0000
 40
0.1016
 41
0.1016
 70
0
  0
VERTEX
  8
22
 10
54.2408
 20
36.1708
 30
0.0000
  0
VERTEX
  8
22
 10
53.6413
 20
36.1708
 30
0.0000
  0
SEQEND
  8
0
  0
POLYLINE
  8
22
 66
1
 10
0.0000
 20
0.0000
 30
0.0000
 40
0.0508
 41
0.0508
 70
0
  0
VERTEX
  8
22
 10
53.6413
 20
36.1962
 30
0.0000
 42
1.0000
  0
VERTEX
  8
22
 10
53.6413
 20
36.1454
 30
0.0000
  0
SEQEND
  8
0
  0
POLYLINE
  8
22
 66
1
 10
0.0000
 20
0.0000
 30
0.0000
 40
0.0508
 41
0.0508
 70
0
  0
VERTEX
  8
22
 10
54.2408
 20
36.1454
 30
0.0000
 42
1.0000
  0
VERTEX
  8
22
 10
54.2408
 20
36.1962
 30
0.0000
  0
SEQEND
  8
0
  0
POLYLINE
  8
22
 66
1
 10
0.0000
 20
0.0000
 30
0.0000
 40
0.1016
 41
0.1016
 70
0
  0
VERTEX
  8
22
 10
52.7205
 20
37.0700
 30
0.0000
  0
VERTEX
  8
22
 10
53.3200
 20
37.0700
 30
0.0000
  0
SEQEND
  8
0
  0
POLYLINE
  8
22
 66
1
 10
0.0000
 20
0.0000
 30
0.0000
 40
0.0508
 41
0.0508
 70
0
  0
VERTEX
  8
22
 10
53.3200
 20
37.0446
 30
0.0000
 42
1.0000
  0
VERTEX
  8
22
 10
53.3200
 20
37.0954
 30
0.0000
  0
SEQEND
  8
0
  0
POLYLINE
  8
22
 66
1
 10
0.0000
 20
0.0000
 30
0.0000
 40
0.0508
 41
0.0508
 70
0
  0
VERTEX
  8
22
 10
52.7205
 20
37.0954
 30
0.0000
 42
1.0000
  0
VERTEX
  8
22
 10
52.7205
 20
37.0446
 30
0.0000
  0
SEQEND
  8
0
  0
POLYLINE
  8
22
 66
1
 10
0.0000
 20
0.0000
 30
0.0000
 40
0.1016
 41
0.1016
 70
0
  0
VERTEX
  8
22
 10
53.3200
 20
37.0700
 30
0.0000
  0
VERTEX
  8
22
 10
53.3200
 20
36.6204
 30
0.0000
  0
SEQEND
  8
0
  0
POLYLINE
  8
22
 66
1
 10
0.0000
 20
0.0000
 30
0.0000
 40
0.0508
 41
0.0508
 70
0
  0
VERTEX
  8
22
 10
53.2946
 20
36.6204
 30
0.0000
 42
1.0000
  0
VERTEX
  8
22
 10
53.3454
 20
36.6204
 30
0.0000
  0
SEQEND
  8
0
  0
POLYLINE
  8
22
 66
1
 10
0.0000
 20
0.0000
 30
0.0000
 40
0.0508
 41
0.0508
 70
0
  0
VERTEX
  8
22
 10
53.3454
 20
37.0700
 30
0.0000
 42
1.0000
  0
VERTEX
  8
22
 10
53.2946
 20
37.0700
 30
0.0000
  0
SEQEND
  8
0
  0
POLYLINE
  8
22
 66
1
 10
0.0000
 20
0.0000
 30
0.0000
 40
0.1016
 41
0.1016
 70
0
  0
VERTEX
  8
22
 10
53.3200
 20
36.6204
 30
0.0000
  0
VERTEX
  8
22
 10
53.0203
 20
36.7702
 30
0.0000
  0
SEQEND
  8
0
  0
POLYLINE
  8
22
 66
1
 10
0.0000
 20
0.0000
 30
0.0000
 40
0.0508
 41
0.0508
 70
0
  0
VERTEX
  8
22
 10
53.0316
 20
36.7930
 30
0.0000
 42
1.0000
  0
VERTEX
  8
22
 10
53.0089
 20
36.7475
 30
0.0000
  0
SEQEND
  8
0
  0
POLYLINE
  8
22
 66
1
 10
0.0000
 20
0.0000
 30
0.0000
 40
0.0508
 41
0.0508
 70
0
  0
VERTEX
  8
22
 10
53.3086
 20
36.5977
 30
0.0000
 42
1.0000
  0
VERTEX
  8
22
 10
53.3313
 20
36.6431
 30
0.0000
  0
SEQEND
  8
0
  0
POLYLINE
  8
22
 66
1
 10
0.0000
 20
0.0000
 30
0.0000
 40
0.1016
 41
0.1016
 70
0
  0
VERTEX
  8
22
 10
53.0203
 20
36.7702
 30
0.0000
  0
VERTEX
  8
22
 10
52.8704
 20
36.7702
 30
0.0000
  0
SEQEND
  8
0
  0
POLYLINE
  8
22
 66
1
 10
0.0000
 20
0.0000
 30
0.0000
 40
0.0508
 41
0.0508
 70
0
  0
VERTEX
  8
22
 10
52.8704
 20
36.7956
 30
0.0000
 42
1.0000
  0
VERTEX
  8
22
 10
52.8704
 20
36.7448
 30
0.0000
  0
SEQEND
  8
0
  0
POLYLINE
  8
22
 66
1
 10
0.0000
 20
0.0000
 30
0.0000
 40
0.0508
 41
0.0508
 70
0
  0
VERTEX
  8
22
 10
53.0203
 20
36.7448
 30
0.0000
 42
1.0000
  0
VERTEX
  8
22
 10
53.0203
 20
36.7956
 30
0.0000
  0
SEQEND
  8
0
  0
POLYLINE
  8
22
 66
1
 10
0.0000
 20
0.0000
 30
0.0000
 40
0.1016
 41
0.1016
 70
0
  0
VERTEX
  8
22
 10
52.8704
 20
36.7702
 30
0.0000
  0
VERTEX
  8
22
 10
52.7205
 20
36.6204
 30
0.0000
  0
SEQEND
  8
0
  0
POLYLINE
  8
22
 66
1
 10
0.0000
 20
0.0000
 30
0.0000
 40
0.0508
 41
0.0508
 70
0
  0
VERTEX
  8
22
 10
52.7026
 20
36.6383
 30
0.0000
 42
1.0000
  0
VERTEX
  8
22
 10
52.7385
 20
36.6024
 30
0.0000
  0
SEQEND
  8
0
  0
POLYLINE
  8
22
 66
1
 10
0.0000
 20
0.0000
 30
0.0000
 40
0.0508
 41
0.0508
 70
0
  0
VERTEX
  8
22
 10
52.8884
 20
36.7523
 30
0.0000
 42
1.0000
  0
VERTEX
  8
22
 10
52.8524
 20
36.7882
 30
0.0000
  0
SEQEND
  8
0
  0
POLYLINE
  8
22
 66
1
 10
0.0000
 20
0.0000
 30
0.0000
 40
0.1016
 41
0.1016
 70
0
  0
VERTEX
  8
22
 10
52.7205
 20
36.6204
 30
0.0000
  0
VERTEX
  8
22
 10
52.7205
 20
36.3207
 30
0.0000
  0
SEQEND
  8
0
  0
POLYLINE
  8
22
 66
1
 10
0.0000
 20
0.0000
 30
0.0000
 40
0.0508
 41
0.0508
 70
0
  0
VERTEX
  8
22
 10
52.6951
 20
36.3207
 30
0.0000
 42
1.0000
  0
VERTEX
  8
22
 10
52.7459
 20
36.3207
 30
0.0000
  0
SEQEND
  8
0
  0
POLYLINE
  8
22
 66
1
 10
0.0000
 20
0.0000
 30
0.0000
 40
0.0508
 41
0.0508
 70
0
  0
VERTEX
  8
22
 10
52.7459
 20
36.6204
 30
0.0000
 42
1.0000
  0
VERTEX
  8
22
 10
52.6951
 20
36.6204
 30
0.0000
  0
SEQEND
  8
0
  0
POLYLINE
  8
22
 66
1
 10
0.0000
 20
0.0000
 30
0.0000
 40
0.1016
 41
0.1016
 70
0
  0
VERTEX
  8
22
 10
52.7205
 20
36.3207
 30
0.0000
  0
VERTEX
  8
22
 10
52.8704
 20
36.1708
 30
0.0000
  0
SEQEND
  8
0
  0
POLYLINE
  8
22
 66
1
 10
0.0000
 20
0.0000
 30
0.0000
 40
0.0508
 41
0.0508
 70
0
  0
VERTEX
  8
22
 10
52.8524
 20
36.1528
 30
0.0000
 42
1.0000
  0
VERTEX
  8
22
 10
52.8884
 20
36.1888
 30
0.0000
  0
SEQEND
  8
0
  0
POLYLINE
  8
22
 66
1
 10
0.0000
 20
0.0000
 30
0.0000
 40
0.0508
 41
0.0508
 70
0
  0
VERTEX
  8
22
 10
52.7385
 20
36.3386
 30
0.0000
 42
1.0000
  0
VERTEX
  8
22
 10
52.7026
 20
36.3027
 30
0.0000
  0
SEQEND
  8
0
  0
POLYLINE
  8
22
 66
1
 10
0.0000
 20
0.0000
 30
0.0000
 40
0.1016
 41
0.1016
 70
0
  0
VERTEX
  8
22
 10
52.8704
 20
36.1708
 30
0.0000
  0
VERTEX
  8
22
 10
53.1701
 20
36.1708
 30
0.0000
  0
SEQEND
  8
0
  0
POLYLINE
  8
22
 66
1
 10
0.0000
 20
0.0000
 30
0.0000
 40
0.0508
 41
0.0508
 70
0
  0
VERTEX
  8
22
 10
53.1701
 20
36.1454
 30
0.0000
 42
1.0000
  0
VERTEX
  8
22
 10
53.1701
 20
36.1962
 30
0.0000
  0
SEQEND
  8
0
  0
POLYLINE
  8
22
 66
1
 10
0.0000
 20
0.0000
 30
0.0000
 40
0.0508
 41
0.0508
 70
0
  0
VERTEX
  8
22
 10
52.8704
 20
36.1962
 30
0.0000
 42
1.0000
  0
VERTEX
  8
22
 10
52.8704
 20
36.1454
 30
0.0000
  0
SEQEND
  8
0
  0
POLYLINE
  8
22
 66
1
 10
0.0000
 20
0.0000
 30
0.0000
 40
0.1016
 41
0.1016
 70
0
  0
VERTEX
  8
22
 10
53.1701
 20
36.1708
 30
0.0000
  0
VERTEX
  8
22
 10
53.3200
 20
36.3207
 30
0.0000
  0
SEQEND
  8
0
  0
POLYLINE
  8
22
 66
1
 10
0.0000
 20
0.0000
 30
0.0000
 40
0.0508
 41
0.0508
 70
0
  0
VERTEX
  8
22
 10
53.3379
 20
36.3027
 30
0.0000
 42
1.0000
  0
VERTEX
  8
22
 10
53.3020
 20
36.3386
 30
0.0000
  0
SEQEND
  8
0
  0
POLYLINE
  8
22
 66
1
 10
0.0000
 20
0.0000
 30
0.0000
 40
0.0508
 41
0.0508
 70
0
  0
VERTEX
  8
22
 10
53.1522
 20
36.1888
 30
0.0000
 42
1.0000
  0
VERTEX
  8
22
 10
53.1881
 20
36.1528
 30
0.0000
  0
SEQEND
  8
0
  0
POLYLINE
  8
21
 66
1
 10
0.0000
 20
0.0000
 30
0.0000
 40
0.0500
 41
0.0500
 70
0
  0
VERTEX
  8
21
 10
68.2750
 20
31.7250
 30
0.0000
  0
VERTEX
  8
21
 10
71.7250
 20
31.7250
 30
0.0000
  0
SEQEND
  8
0
  0
POLYLINE
  8
21
 66
1
 10
0.0000
 20
0.0000
 30
0.0000
 40
0.0250
 41
0.0250
 70
0
  0
VERTEX
  8
21
 10
71.7250
 20
31.7125
 30
0.0000
 42
1.0000
  0
VERTEX
  8
21
 10
71.7250
 20
31.7375
 30
0.0000
  0
SEQEND
  8
0
  0
POLYLINE
  8
21
 66
1
 10
0.0000
 20
0.0000
 30
0.0000
 40
0.0250
 41
0.0250
 70
0
  0
VERTEX
  8
21
 10
68.2750
 20
31.7375
 30
0.0000
 42
1.0000
  0
VERTEX
  8
21
 10
68.2750
 20
31.7125
 30
0.0000
  0
SEQEND
  8
0
  0
POLYLINE
  8
21
 66
1
 10
0.0000
 20
0.0000
 30
0.0000
 40
0.0500
 41
0.0500
 70
0
  0
VERTEX
  8
21
 10
71.7250
 20
31.7250
 30
0.0000
  0
VERTEX
  8
21
 10
71.7250
 20
28.2750
 30
0.0000
  0
SEQEND
  8
0
  0
POLYLINE
  8
21
 66
1
 10
0.0000
 20
0.0000
 30
0.0000
 40
0.0250
 41
0.0250
 70
0
  0
VERTEX
  8
21
 10
71.7125
 20
28.2750
 30
0.0000
 42
1.0000
  0
VERTEX
  8
21
 10
71.7375
 20
28.2750
 30
0.0000
  0
SEQEND
  8
0
  0
POLYLINE
  8
21
 66
1
 10
0.0000
 20
0.0000
 30
0.0000
 40
0.0250
 41
0.0250
 70
0
  0
VERTEX
  8
21
 10
71.7375
 20
31.7250
 30
0.0000
 42
1.0000
  0
VERTEX
  8
21
 10
71.7125
 20
31.7250
 30
0.0000
  0
SEQEND
  8
0
  0
POLYLINE
  8
21
 66
1
 10
0.0000
 20
0.0000
 30
0.0000
 40
0.0500
 41
0.0500
 70
0
  0
VERTEX
  8
21
 10
71.7250
 20
28.2750
 30
0.0000
  0
VERTEX
  8
21
 10
68.2750
 20
28.2750
 30
0.0000
  0
SEQEND
  8
0
  0
POLYLINE
  8
21
 66
1
 10
0.0000
 20
0.0000
 30
0.0000
 40
0.0250
 41
0.0250
 70
0
  0
VERTEX
  8
21
 10
68.2750
 20
28.2875
 30
0.0000
 42
1.0000
  0
VERTEX
  8
21
 10
68.2750
 20
28.2625
 30
0.0000
  0
SEQEND
  8
0
  0
POLYLINE
  8
21
 66
1
 10
0.0000
 20
0.0000
 30
0.0000
 40
0.0250
 41
0.0250
 70
0
  0
VERTEX
  8
21
 10
71.7250
 20
28.2625
 30
0.0000
 42
1.0000
  0
VERTEX
  8
21
 10
71.7250
 20
28.2875
 30
0.0000
  0
SEQEND
  8
0
  0
POLYLINE
  8
21
 66
1
 10
0.0000
 20
0.0000
 30
0.0000
 40
0.0500
 41
0.0500
 70
0
  0
VERTEX
  8
21
 10
68.2750
 20
28.2750
 30
0.0000
  0
VERTEX
  8
21
 10
68.2750
 20
31.7250
 30
0.0000
  0
SEQEND
  8
0
  0
POLYLINE
  8
21
 66
1
 10
0.0000
 20
0.0000
 30
0.0000
 40
0.0250
 41
0.0250
 70
0
  0
VERTEX
  8
21
 10
68.2875
 20
31.7250
 30
0.0000
 42
1.0000
  0
VERTEX
  8
21
 10
68.2625
 20
31.7250
 30
0.0000
  0
SEQEND
  8
0
  0
POLYLINE
  8
21
 66
1
 10
0.0000
 20
0.0000
 30
0.0000
 40
0.0250
 41
0.0250
 70
0
  0
VERTEX
  8
21
 10
68.2625
 20
28.2750
 30
0.0000
 42
1.0000
  0
VERTEX
  8
21
 10
68.2875
 20
28.2750
 30
0.0000
  0
SEQEND
  8
0
  0
POLYLINE
  8
21
 66
1
 10
0.0000
 20
0.0000
 30
0.0000
 40
0.0500
 41
0.0500
 70
0
  0
VERTEX
  8
21
 10
68.2750
 20
11.7250
 30
0.0000
  0
VERTEX
  8
21
 10
71.7250
 20
11.7250
 30
0.0000
  0
SEQEND
  8
0
  0
POLYLINE
  8
21
 66
1
 10
0.0000
 20
0.0000
 30
0.0000
 40
0.0250
 41
0.0250
 70
0
  0
VERTEX
  8
21
 10
71.7250
 20
11.7125
 30
0.0000
 42
1.0000
  0
VERTEX
  8
21
 10
71.7250
 20
11.7375
 30
0.0000
  0
SEQEND
  8
0
  0
POLYLINE
  8
21
 66
1
 10
0.0000
 20
0.0000
 30
0.0000
 40
0.0250
 41
0.0250
 70
0
  0
VERTEX
  8
21
 10
68.2750
 20
11.7375
 30
0.0000
 42
1.0000
  0
VERTEX
  8
21
 10
68.2750
 20
11.7125
 30
0.0000
  0
SEQEND
  8
0
  0
POLYLINE
  8
21
 66
1
 10
0.0000
 20
0.0000
 30
0.0000
 40
0.0500
 41
0.0500
 70
0
  0
VERTEX
  8
21
 10
71.7250
 20
11.7250
 30
0.0000
  0
VERTEX
  8
21
 10
71.7250
 20
8.2750
 30
0.0000
  0
SEQEND
  8
0
  0
POLYLINE
  8
21
 66
1
 10
0.0000
 20
0.0000
 30
0.0000
 40
0.0250
 41
0.0250
 70
0
  0
VERTEX
  8
21
 10
71.7125
 20
8.2750
 30
0.0000
 42
1.0000
  0
VERTEX
  8
21
 10
71.7375
 20
8.2750
 30
0.0000
  0
SEQEND
  8
0
  0
POLYLINE
  8
21
 66
1
 10
0.0000
 20
0.0000
 30
0.0000
 40
0.0250
 41
0.0250
 70
0
  0
VERTEX
  8
21
 10
71.7375
 20
11.7250
 30
0.0000
 42
1.0000
  0
VERTEX
  8
21
 10
71.7125
 20
11.7250
 30
0.0000
  0
SEQEND
  8
0
  0
POLYLINE
  8
21
 66
1
 10
0.0000
 20
0.0000
 30
0.0000
 40
0.0500
 41
0.0500
 70
0
  0
VERTEX
  8
21
 10
71.7250
 20
8.2750
 30
0.0000
  0
VERTEX
  8
21
 10
68.2750
 20
8.2750
 30
0.0000
  0
SEQEND
  8
0
  0
POLYLINE
  8
21
 66
1
 10
0.0000
 20
0.0000
 30
0.0000
 40
0.0250
 41
0.0250
 70
0
  0
VERTEX
  8
21
 10
68.2750
 20
8.2875
 30
0.0000
 42
1.0000
  0
VERTEX
  8
21
 10
68.2750
 20
8.2625
 30
0.0000
  0
SEQEND
  8
0
  0
POLYLINE
  8
21
 66
1
 10
0.0000
 20
0.0000
 30
0.0000
 40
0.0250
 41
0.0250
 70
0
  0
VERTEX
  8
21
 10
71.7250
 20
8.2625
 30
0.0000
 42
1.0000
  0
VERTEX
  8
21
 10
71.7250
 20
8.2875
 30
0.0000
  0
SEQEND
  8
0
  0
POLYLINE
  8
21
 66
1
 10
0.0000
 20
0.0000
 30
0.0000
 40
0.0500
 41
0.0500
 70
0
  0
VERTEX
  8
21
 10
68.2750
 20
8.2750
 30
0.0000
  0
VERTEX
  8
21
 10
68.2750
 20
11.7250
 30
0.0000
  0
SEQEND
  8
0
  0
POLYLINE
  8
21
 66
1
 10
0.0000
 20
0.0000
 30
0.0000
 40
0.0250
 41
0.0250
 70
0
  0
VERTEX
  8
21
 10
68.2875
 20
11.7250
 30
0.0000
 42
1.0000
  0
VERTEX
  8
21
 10
68.2625
 20
11.7250
 30
0.0000
  0
SEQEND
  8
0
  0
POLYLINE
  8
21
 66
1
 10
0.0000
 20
0.0000
 30
0.0000
 40
0.0250
 41
0.0250
 70
0
  0
VERTEX
  8
21
 10
68.2625
 20
8.2750
 30
0.0000
 42
1.0000
  0
VERTEX
  8
21
 10
68.2875
 20
8.2750
 30
0.0000
  0
SEQEND
  8
0
  0
POLYLINE
  8
22
 66
1
 10
0.0000
 20
0.0000
 30
0.0000
 40
0.1524
 41
0.1524
 70
0
  0
VERTEX
  8
22
 10
10.4220
 20
37.4400
 30
0.0000
  0
VERTEX
  8
22
 10
10.4220
 20
39.0600
 30
0.0000
  0
SEQEND
  8
0
  0
POLYLINE
  8
22
 66
1
 10
0.0000
 20
0.0000
 30
0.0000
 40
0.0762
 41
0.0762
 70
0
  0
VERTEX
  8
22
 10
10.4601
 20
39.0600
 30
0.0000
 42
1.0000
  0
VERTEX
  8
22
 10
10.3839
 20
39.0600
 30
0.0000
  0
SEQEND
  8
0
  0
POLYLINE
  8
22
 66
1
 10
0.0000
 20
0.0000
 30
0.0000
 40
0.0762
 41
0.0762
 70
0
  0
VERTEX
  8
22
 10
10.3839
 20
37.4400
 30
0.0000
 42
1.0000
  0
VERTEX
  8
22
 10
10.4601
 20
37.4400
 30
0.0000
  0
SEQEND
  8
0
  0
POLYLINE
  8
22
 66
1
 10
0.0000
 20
0.0000
 30
0.0000
 40
0.1524
 41
0.1524
 70
0
  0
VERTEX
  8
22
 10
7.5780
 20
39.0600
 30
0.0000
  0
VERTEX
  8
22
 10
7.5780
 20
37.4400
 30
0.0000
  0
SEQEND
  8
0
  0
POLYLINE
  8
22
 66
1
 10
0.0000
 20
0.0000
 30
0.0000
 40
0.0762
 41
0.0762
 70
0
  0
VERTEX
  8
22
 10
7.5399
 20
37.4400
 30
0.0000
 42
1.0000
  0
VERTEX
  8
22
 10
7.6161
 20
37.4400
 30
0.0000
  0
SEQEND
  8
0
  0
POLYLINE
  8
22
 66
1
 10
0.0000
 20
0.0000
 30
0.0000
 40
0.0762
 41
0.0762
 70
0
  0
VERTEX
  8
22
 10
7.6161
 20
39.0600
 30
0.0000
 42
1.0000
  0
VERTEX
  8
22
 10
7.5399
 20
39.0600
 30
0.0000
  0
SEQEND
  8
0
  0
POLYLINE
  8
22
 66
1
 10
0.0000
 20
0.0000
 30
0.0000
 40
0.1524
 41
0.1524
 70
0
  0
VERTEX
  8
22
 10
8.4780
 20
37.4400
 30
0.0000
  0
VERTEX
  8
22
 10
9.5220
 20
37.4400
 30
0.0000
  0
SEQEND
  8
0
  0
POLYLINE
  8
22
 66
1
 10
0.0000
 20
0.0000
 30
0.0000
 40
0.0762
 41
0.0762
 70
0
  0
VERTEX
  8
22
 10
9.5220
 20
37.4019
 30
0.0000
 42
1.0000
  0
VERTEX
  8
22
 10
9.5220
 20
37.4781
 30
0.0000
  0
SEQEND
  8
0
  0
POLYLINE
  8
22
 66
1
 10
0.0000
 20
0.0000
 30
0.0000
 40
0.0762
 41
0.0762
 70
0
  0
VERTEX
  8
22
 10
8.4780
 20
37.4781
 30
0.0000
 42
1.0000
  0
VERTEX
  8
22
 10
8.4780
 20
37.4019
 30
0.0000
  0
SEQEND
  8
0
  0
POLYLINE
  8
22
 66
1
 10
0.0000
 20
0.0000
 30
0.0000
 40
0.1524
 41
0.1524
 70
0
  0
VERTEX
  8
22
 10
8.5720
 20
39.0600
 30
0.0000
  0
VERTEX
  8
22
 10
8.4780
 20
39.0600
 30
0.0000
  0
SEQEND
  8
0
  0
POLYLINE
  8
22
 66
1
 10
0.0000
 20
0.0000
 30
0.0000
 40
0.0762
 41
0.0762
 70
0
  0
VERTEX
  8
22
 10
8.4780
 20
39.0981
 30
0.0000
 42
1.0000
  0
VERTEX
  8
22
 10
8.4780
 20
39.0219
 30
0.0000
  0
SEQEND
  8
0
  0
POLYLINE
  8
22
 66
1
 10
0.0000
 20
0.0000
 30
0.0000
 40
0.0762
 41
0.0762
 70
0
  0
VERTEX
  8
22
 10
8.5720
 20
39.0219
 30
0.0000
 42
1.0000
  0
VERTEX
  8
22
 10
8.5720
 20
39.0981
 30
0.0000
  0
SEQEND
  8
0
  0
POLYLINE
  8
22
 66
1
 10
0.0000
 20
0.0000
 30
0.0000
 40
0.1524
 41
0.1524
 70
0
  0
VERTEX
  8
22
 10
9.5220
 20
39.0600
 30
0.0000
  0
VERTEX
  8
22
 10
9.4280
 20
39.0600
 30
0.0000
  0
SEQEND
  8
0
  0
POLYLINE
  8
22
 66
1
 10
0.0000
 20
0.0000
 30
0.0000
 40
0.0762
 41
0.0762
 70
0
  0
VERTEX
  8
22
 10
9.4280
 20
39.0981
 30
0.0000
 42
1.0000
  0
VERTEX
  8
22
 10
9.4280
 20
39.0219
 30
0.0000
  0
SEQEND
  8
0
  0
POLYLINE
  8
22
 66
1
 10
0.0000
 20
0.0000
 30
0.0000
 40
0.0762
 41
0.0762
 70
0
  0
VERTEX
  8
22
 10
9.5220
 20
39.0219
 30
0.0000
 42
1.0000
  0
VERTEX
  8
22
 10
9.5220
 20
39.0981
 30
0.0000
  0
SEQEND
  8
0
  0
POLYLINE
  8
22
 66
1
 10
0.0000
 20
0.0000
 30
0.0000
 40
0.1524
 41
0.1524
 70
0
  0
VERTEX
  8
22
 10
7.6720
 20
39.0600
 30
0.0000
  0
VERTEX
  8
22
 10
7.5780
 20
39.0600
 30
0.0000
  0
SEQEND
  8
0
  0
POLYLINE
  8
22
 66
1
 10
0.0000
 20
0.0000
 30
0.0000
 40
0.0762
 41
0.0762
 70
0
  0
VERTEX
  8
22
 10
7.5780
 20
39.0981
 30
0.0000
 42
1.0000
  0
VERTEX
  8
22
 10
7.5780
 20
39.0219
 30
0.0000
  0
SEQEND
  8
0
  0
POLYLINE
  8
22
 66
1
 10
0.0000
 20
0.0000
 30
0.0000
 40
0.0762
 41
0.0762
 70
0
  0
VERTEX
  8
22
 10
7.6720
 20
39.0219
 30
0.0000
 42
1.0000
  0
VERTEX
  8
22
 10
7.6720
 20
39.0981
 30
0.0000
  0
SEQEND
  8
0
  0
POLYLINE
  8
22
 66
1
 10
0.0000
 20
0.0000
 30
0.0000
 40
0.1524
 41
0.1524
 70
0
  0
VERTEX
  8
22
 10
10.4220
 20
39.0600
 30
0.0000
  0
VERTEX
  8
22
 10
10.3280
 20
39.0600
 30
0.0000
  0
SEQEND
  8
0
  0
POLYLINE
  8
22
 66
1
 10
0.0000
 20
0.0000
 30
0.0000
 40
0.0762
 41
0.0762
 70
0
  0
VERTEX
  8
22
 10
10.3280
 20
39.0981
 30
0.0000
 42
1.0000
  0
VERTEX
  8
22
 10
10.3280
 20
39.0219
 30
0.0000
  0
SEQEND
  8
0
  0
POLYLINE
  8
22
 66
1
 10
0.0000
 20
0.0000
 30
0.0000
 40
0.0762
 41
0.0762
 70
0
  0
VERTEX
  8
22
 10
10.4220
 20
39.0219
 30
0.0000
 42
1.0000
  0
VERTEX
  8
22
 10
10.4220
 20
39.0981
 30
0.0000
  0
SEQEND
  8
0
  0
POLYLINE
  8
22
 66
1
 10
0.0000
 20
0.0000
 30
0.0000
 40
0.1524
 41
0.1524
 70
0
  0
VERTEX
  8
22
 10
10.3280
 20
37.4400
 30
0.0000
  0
VERTEX
  8
22
 10
10.4220
 20
37.4400
 30
0.0000
  0
SEQEND
  8
0
  0
POLYLINE
  8
22
 66
1
 10
0.0000
 20
0.0000
 30
0.0000
 40
0.0762
 41
0.0762
 70
0
  0
VERTEX
  8
22
 10
10.4220
 20
37.4019
 30
0.0000
 42
1.0000
  0
VERTEX
  8
22
 10
10.4220
 20
37.4781
 30
0.0000
  0
SEQEND
  8
0
  0
POLYLINE
  8
22
 66
1
 10
0.0000
 20
0.0000
 30
0.0000
 40
0.0762
 41
0.0762
 70
0
  0
VERTEX
  8
22
 10
10.3280
 20
37.4781
 30
0.0000
 42
1.0000
  0
VERTEX
  8
22
 10
10.3280
 20
37.4019
 30
0.0000
  0
SEQEND
  8
0
  0
POLYLINE
  8
22
 66
1
 10
0.0000
 20
0.0000
 30
0.0000
 40
0.1524
 41
0.1524
 70
0
  0
VERTEX
  8
22
 10
7.5780
 20
37.4400
 30
0.0000
  0
VERTEX
  8
22
 10
7.6720
 20
37.4400
 30
0.0000
  0
SEQEND
  8
0
  0
POLYLINE
  8
22
 66
1
 10
0.0000
 20
0.0000
 30
0.0000
 40
0.0762
 41
0.0762
 70
0
  0
VERTEX
  8
22
 10
7.6720
 20
37.4019
 30
0.0000
 42
1.0000
  0
VERTEX
  8
22
 10
7.6720
 20
37.4781
 30
0.0000
  0
SEQEND
  8
0
  0
POLYLINE
  8
22
 66
1
 10
0.0000
 20
0.0000
 30
0.0000
 40
0.0762
 41
0.0762
 70
0
  0
VERTEX
  8
22
 10
7.5780
 20
37.4781
 30
0.0000
 42
1.0000
  0
VERTEX
  8
22
 10
7.5780
 20
37.4019
 30
0.0000
  0
SEQEND
  8
0
  0
POLYLINE
  8
22
 66
1
 10
0.0000
 20
0.0000
 30
0.0000
 40
0.1524
 41
0.1524
 70
0
  0
VERTEX
  8
22
 10
66.9220
 20
36.6900
 30
0.0000
  0
VERTEX
  8
22
 10
66.9220
 20
38.3100
 30
0.0000
  0
SEQEND
  8
0
  0
POLYLINE
  8
22
 66
1
 10
0.0000
 20
0.0000
 30
0.0000
 40
0.0762
 41
0.0762
 70
0
  0
VERTEX
  8
22
 10
66.9601
 20
38.3100
 30
0.0000
 42
1.0000
  0
VERTEX
  8
22
 10
66.8839
 20
38.3100
 30
0.0000
  0
SEQEND
  8
0
  0
POLYLINE
  8
22
 66
1
 10
0.0000
 20
0.0000
 30
0.0000
 40
0.0762
 41
0.0762
 70
0
  0
VERTEX
  8
22
 10
66.8839
 20
36.6900
 30
0.0000
 42
1.0000
  0
VERTEX
  8
22
 10
66.9601
 20
36.6900
 30
0.0000
  0
SEQEND
  8
0
  0
POLYLINE
  8
22
 66
1
 10
0.0000
 20
0.0000
 30
0.0000
 40
0.1524
 41
0.1524
 70
0
  0
VERTEX
  8
22
 10
64.0780
 20
38.3100
 30
0.0000
  0
VERTEX
  8
22
 10
64.0780
 20
36.6900
 30
0.0000
  0
SEQEND
  8
0
  0
POLYLINE
  8
22
 66
1
 10
0.0000
 20
0.0000
 30
0.0000
 40
0.0762
 41
0.0762
 70
0
  0
VERTEX
  8
22
 10
64.0399
 20
36.6900
 30
0.0000
 42
1.0000
  0
VERTEX
  8
22
 10
64.1161
 20
36.6900
 30
0.0000
  0
SEQEND
  8
0
  0
POLYLINE
  8
22
 66
1
 10
0.0000
 20
0.0000
 30
0.0000
 40
0.0762
 41
0.0762
 70
0
  0
VERTEX
  8
22
 10
64.1161
 20
38.3100
 30
0.0000
 42
1.0000
  0
VERTEX
  8
22
 10
64.0399
 20
38.3100
 30
0.0000
  0
SEQEND
  8
0
  0
POLYLINE
  8
22
 66
1
 10
0.0000
 20
0.0000
 30
0.0000
 40
0.1524
 41
0.1524
 70
0
  0
VERTEX
  8
22
 10
64.9780
 20
36.6900
 30
0.0000
  0
VERTEX
  8
22
 10
66.0220
 20
36.6900
 30
0.0000
  0
SEQEND
  8
0
  0
POLYLINE
  8
22
 66
1
 10
0.0000
 20
0.0000
 30
0.0000
 40
0.0762
 41
0.0762
 70
0
  0
VERTEX
  8
22
 10
66.0220
 20
36.6519
 30
0.0000
 42
1.0000
  0
VERTEX
  8
22
 10
66.0220
 20
36.7281
 30
0.0000
  0
SEQEND
  8
0
  0
POLYLINE
  8
22
 66
1
 10
0.0000
 20
0.0000
 30
0.0000
 40
0.0762
 41
0.0762
 70
0
  0
VERTEX
  8
22
 10
64.9780
 20
36.7281
 30
0.0000
 42
1.0000
  0
VERTEX
  8
22
 10
64.9780
 20
36.6519
 30
0.0000
  0
SEQEND
  8
0
  0
POLYLINE
  8
22
 66
1
 10
0.0000
 20
0.0000
 30
0.0000
 40
0.1524
 41
0.1524
 70
0
  0
VERTEX
  8
22
 10
65.0720
 20
38.3100
 30
0.0000
  0
VERTEX
  8
22
 10
64.9780
 20
38.3100
 30
0.0000
  0
SEQEND
  8
0
  0
POLYLINE
  8
22
 66
1
 10
0.0000
 20
0.0000
 30
0.0000
 40
0.0762
 41
0.0762
 70
0
  0
VERTEX
  8
22
 10
64.9780
 20
38.3481
 30
0.0000
 42
1.0000
  0
VERTEX
  8
22
 10
64.9780
 20
38.2719
 30
0.0000
  0
SEQEND
  8
0
  0
POLYLINE
  8
22
 66
1
 10
0.0000
 20
0.0000
 30
0.0000
 40
0.0762
 41
0.0762
 70
0
  0
VERTEX
  8
22
 10
65.0720
 20
38.2719
 30
0.0000
 42
1.0000
  0
VERTEX
  8
22
 10
65.0720
 20
38.3481
 30
0.0000
  0
SEQEND
  8
0
  0
POLYLINE
  8
22
 66
1
 10
0.0000
 20
0.0000
 30
0.0000
 40
0.1524
 41
0.1524
 70
0
  0
VERTEX
  8
22
 10
66.0220
 20
38.3100
 30
0.0000
  0
VERTEX
  8
22
 10
65.9280
 20
38.3100
 30
0.0000
  0
SEQEND
  8
0
  0
POLYLINE
  8
22
 66
1
 10
0.0000
 20
0.0000
 30
0.0000
 40
0.0762
 41
0.0762
 70
0
  0
VERTEX
  8
22
 10
65.9280
 20
38.3481
 30
0.0000
 42
1.0000
  0
VERTEX
  8
22
 10
65.9280
 20
38.2719
 30
0.0000
  0
SEQEND
  8
0
  0
POLYLINE
  8
22
 66
1
 10
0.0000
 20
0.0000
 30
0.0000
 40
0.0762
 41
0.0762
 70
0
  0
VERTEX
  8
22
 10
66.0220
 20
38.2719
 30
0.0000
 42
1.0000
  0
VERTEX
  8
22
 10
66.0220
 20
38.3481
 30
0.0000
  0
SEQEND
  8
0
  0
POLYLINE
  8
22
 66
1
 10
0.0000
 20
0.0000
 30
0.0000
 40
0.1524
 41
0.1524
 70
0
  0
VERTEX
  8
22
 10
64.1720
 20
38.3100
 30
0.0000
  0
VERTEX
  8
22
 10
64.0780
 20
38.3100
 30
0.0000
  0
SEQEND
  8
0
  0
POLYLINE
  8
22
 66
1
 10
0.0000
 20
0.0000
 30
0.0000
 40
0.0762
 41
0.0762
 70
0
  0
VERTEX
  8
22
 10
64.0780
 20
38.3481
 30
0.0000
 42
1.0000
  0
VERTEX
  8
22
 10
64.0780
 20
38.2719
 30
0.0000
  0
SEQEND
  8
0
  0
POLYLINE
  8
22
 66
1
 10
0.0000
 20
0.0000
 30
0.0000
 40
0.0762
 41
0.0762
 70
0
  0
VERTEX
  8
22
 10
64.1720
 20
38.2719
 30
0.0000
 42
1.0000
  0
VERTEX
  8
22
 10
64.1720
 20
38.3481
 30
0.0000
  0
SEQEND
  8
0
  0
POLYLINE
  8
22
 66
1
 10
0.0000
 20
0.0000
 30
0.0000
 40
0.1524
 41
0.1524
 70
0
  0
VERTEX
  8
22
 10
66.9220
 20
38.3100
 30
0.0000
  0
VERTEX
  8
22
 10
66.8280
 20
38.3100
 30
0.0000
  0
SEQEND
  8
0
  0
POLYLINE
  8
22
 66
1
 10
0.0000
 20
0.0000
 30
0.0000
 40
0.0762
 41
0.0762
 70
0
  0
VERTEX
  8
22
 10
66.8280
 20
38.3481
 30
0.0000
 42
1.0000
  0
VERTEX
  8
22
 10
66.8280
 20
38.2719
 30
0.0000
  0
SEQEND
  8
0
  0
POLYLINE
  8
22
 66
1
 10
0.0000
 20
0.0000
 30
0.0000
 40
0.0762
 41
0.0762
 70
0
  0
VERTEX
  8
22
 10
66.9220
 20
38.2719
 30
0.0000
 42
1.0000
  0
VERTEX
  8
22
 10
66.9220
 20
38.3481
 30
0.0000
  0
SEQEND
  8
0
  0
POLYLINE
  8
22
 66
1
 10
0.0000
 20
0.0000
 30
0.0000
 40
0.1524
 41
0.1524
 70
0
  0
VERTEX
  8
22
 10
66.8280
 20
36.6900
 30
0.0000
  0
VERTEX
  8
22
 10
66.9220
 20
36.6900
 30
0.0000
  0
SEQEND
  8
0
  0
POLYLINE
  8
22
 66
1
 10
0.0000
 20
0.0000
 30
0.0000
 40
0.0762
 41
0.0762
 70
0
  0
VERTEX
  8
22
 10
66.9220
 20
36.6519
 30
0.0000
 42
1.0000
  0
VERTEX
  8
22
 10
66.9220
 20
36.7281
 30
0.0000
  0
SEQEND
  8
0
  0
POLYLINE
  8
22
 66
1
 10
0.0000
 20
0.0000
 30
0.0000
 40
0.0762
 41
0.0762
 70
0
  0
VERTEX
  8
22
 10
66.8280
 20
36.7281
 30
0.0000
 42
1.0000
  0
VERTEX
  8
22
 10
66.8280
 20
36.6519
 30
0.0000
  0
SEQEND
  8
0
  0
POLYLINE
  8
22
 66
1
 10
0.0000
 20
0.0000
 30
0.0000
 40
0.1524
 41
0.1524
 70
0
  0
VERTEX
  8
22
 10
64.0780
 20
36.6900
 30
0.0000
  0
VERTEX
  8
22
 10
64.1720
 20
36.6900
 30
0.0000
  0
SEQEND
  8
0
  0
POLYLINE
  8
22
 66
1
 10
0.0000
 20
0.0000
 30
0.0000
 40
0.0762
 41
0.0762
 70
0
  0
VERTEX
  8
22
 10
64.1720
 20
36.6519
 30
0.0000
 42
1.0000
  0
VERTEX
  8
22
 10
64.1720
 20
36.7281
 30
0.0000
  0
SEQEND
  8
0
  0
POLYLINE
  8
22
 66
1
 10
0.0000
 20
0.0000
 30
0.0000
 40
0.0762
 41
0.0762
 70
0
  0
VERTEX
  8
22
 10
64.0780
 20
36.7281
 30
0.0000
 42
1.0000
  0
VERTEX
  8
22
 10
64.0780
 20
36.6519
 30
0.0000
  0
SEQEND
  8
0
  0
POLYLINE
  8
22
 66
1
 10
0.0000
 20
0.0000
 30
0.0000
 40
0.1524
 41
0.1524
 70
0
  0
VERTEX
  8
22
 10
28.9220
 20
36.9400
 30
0.0000
  0
VERTEX
  8
22
 10
28.9220
 20
38.5600
 30
0.0000
  0
SEQEND
  8
0
  0
POLYLINE
  8
22
 66
1
 10
0.0000
 20
0.0000
 30
0.0000
 40
0.0762
 41
0.0762
 70
0
  0
VERTEX
  8
22
 10
28.9601
 20
38.5600
 30
0.0000
 42
1.0000
  0
VERTEX
  8
22
 10
28.8839
 20
38.5600
 30
0.0000
  0
SEQEND
  8
0
  0
POLYLINE
  8
22
 66
1
 10
0.0000
 20
0.0000
 30
0.0000
 40
0.0762
 41
0.0762
 70
0
  0
VERTEX
  8
22
 10
28.8839
 20
36.9400
 30
0.0000
 42
1.0000
  0
VERTEX
  8
22
 10
28.9601
 20
36.9400
 30
0.0000
  0
SEQEND
  8
0
  0
POLYLINE
  8
22
 66
1
 10
0.0000
 20
0.0000
 30
0.0000
 40
0.1524
 41
0.1524
 70
0
  0
VERTEX
  8
22
 10
26.0780
 20
38.5600
 30
0.0000
  0
VERTEX
  8
22
 10
26.0780
 20
36.9400
 30
0.0000
  0
SEQEND
  8
0
  0
POLYLINE
  8
22
 66
1
 10
0.0000
 20
0.0000
 30
0.0000
 40
0.0762
 41
0.0762
 70
0
  0
VERTEX
  8
22
 10
26.0399
 20
36.9400
 30
0.0000
 42
1.0000
  0
VERTEX
  8
22
 10
26.1161
 20
36.9400
 30
0.0000
  0
SEQEND
  8
0
  0
POLYLINE
  8
22
 66
1
 10
0.0000
 20
0.0000
 30
0.0000
 40
0.0762
 41
0.0762
 70
0
  0
VERTEX
  8
22
 10
26.1161
 20
38.5600
 30
0.0000
 42
1.0000
  0
VERTEX
  8
22
 10
26.0399
 20
38.5600
 30
0.0000
  0
SEQEND
  8
0
  0
POLYLINE
  8
22
 66
1
 10
0.0000
 20
0.0000
 30
0.0000
 40
0.1524
 41
0.1524
 70
0
  0
VERTEX
  8
22
 10
26.9780
 20
36.9400
 30
0.0000
  0
VERTEX
  8
22
 10
28.0220
 20
36.9400
 30
0.0000
  0
SEQEND
  8
0
  0
POLYLINE
  8
22
 66
1
 10
0.0000
 20
0.0000
 30
0.0000
 40
0.0762
 41
0.0762
 70
0
  0
VERTEX
  8
22
 10
28.0220
 20
36.9019
 30
0.0000
 42
1.0000
  0
VERTEX
  8
22
 10
28.0220
 20
36.9781
 30
0.0000
  0
SEQEND
  8
0
  0
POLYLINE
  8
22
 66
1
 10
0.0000
 20
0.0000
 30
0.0000
 40
0.0762
 41
0.0762
 70
0
  0
VERTEX
  8
22
 10
26.9780
 20
36.9781
 30
0.0000
 42
1.0000
  0
VERTEX
  8
22
 10
26.9780
 20
36.9019
 30
0.0000
  0
SEQEND
  8
0
  0
POLYLINE
  8
22
 66
1
 10
0.0000
 20
0.0000
 30
0.0000
 40
0.1524
 41
0.1524
 70
0
  0
VERTEX
  8
22
 10
27.0720
 20
38.5600
 30
0.0000
  0
VERTEX
  8
22
 10
26.9780
 20
38.5600
 30
0.0000
  0
SEQEND
  8
0
  0
POLYLINE
  8
22
 66
1
 10
0.0000
 20
0.0000
 30
0.0000
 40
0.0762
 41
0.0762
 70
0
  0
VERTEX
  8
22
 10
26.9780
 20
38.5981
 30
0.0000
 42
1.0000
  0
VERTEX
  8
22
 10
26.9780
 20
38.5219
 30
0.0000
  0
SEQEND
  8
0
  0
POLYLINE
  8
22
 66
1
 10
0.0000
 20
0.0000
 30
0.0000
 40
0.0762
 41
0.0762
 70
0
  0
VERTEX
  8
22
 10
27.0720
 20
38.5219
 30
0.0000
 42
1.0000
  0
VERTEX
  8
22
 10
27.0720
 20
38.5981
 30
0.0000
  0
SEQEND
  8
0
  0
POLYLINE
  8
22
 66
1
 10
0.0000
 20
0.0000
 30
0.0000
 40
0.1524
 41
0.1524
 70
0
  0
VERTEX
  8
22
 10
28.0220
 20
38.5600
 30
0.0000
  0
VERTEX
  8
22
 10
27.9280
 20
38.5600
 30
0.0000
  0
SEQEND
  8
0
  0
POLYLINE
  8
22
 66
1
 10
0.0000
 20
0.0000
 30
0.0000
 40
0.0762
 41
0.0762
 70
0
  0
VERTEX
  8
22
 10
27.9280
 20
38.5981
 30
0.0000
 42
1.0000
  0
VERTEX
  8
22
 10
27.9280
 20
38.5219
 30
0.0000
  0
SEQEND
  8
0
  0
POLYLINE
  8
22
 66
1
 10
0.0000
 20
0.0000
 30
0.0000
 40
0.0762
 41
0.0762
 70
0
  0
VERTEX
  8
22
 10
28.0220
 20
38.5219
 30
0.0000
 42
1.0000
  0
VERTEX
  8
22
 10
28.0220
 20
38.5981
 30
0.0000
  0
SEQEND
  8
0
  0
POLYLINE
  8
22
 66
1
 10
0.0000
 20
0.0000
 30
0.0000
 40
0.1524
 41
0.1524
 70
0
  0
VERTEX
  8
22
 10
26.1720
 20
38.5600
 30
0.0000
  0
VERTEX
  8
22
 10
26.0780
 20
38.5600
 30
0.0000
  0
SEQEND
  8
0
  0
POLYLINE
  8
22
 66
1
 10
0.0000
 20
0.0000
 30
0.0000
 40
0.0762
 41
0.0762
 70
0
  0
VERTEX
  8
22
 10
26.0780
 20
38.5981
 30
0.0000
 42
1.0000
  0
VERTEX
  8
22
 10
26.0780
 20
38.5219
 30
0.0000
  0
SEQEND
  8
0
  0
POLYLINE
  8
22
 66
1
 10
0.0000
 20
0.0000
 30
0.0000
 40
0.0762
 41
0.0762
 70
0
  0
VERTEX
  8
22
 10
26.1720
 20
38.5219
 30
0.0000
 42
1.0000
  0
VERTEX
  8
22
 10
26.1720
 20
38.5981
 30
0.0000
  0
SEQEND
  8
0
  0
POLYLINE
  8
22
 66
1
 10
0.0000
 20
0.0000
 30
0.0000
 40
0.1524
 41
0.1524
 70
0
  0
VERTEX
  8
22
 10
28.9220
 20
38.5600
 30
0.0000
  0
VERTEX
  8
22
 10
28.8280
 20
38.5600
 30
0.0000
  0
SEQEND
  8
0
  0
POLYLINE
  8
22
 66
1
 10
0.0000
 20
0.0000
 30
0.0000
 40
0.0762
 41
0.0762
 70
0
  0
VERTEX
  8
22
 10
28.8280
 20
38.5981
 30
0.0000
 42
1.0000
  0
VERTEX
  8
22
 10
28.8280
 20
38.5219
 30
0.0000
  0
SEQEND
  8
0
  0
POLYLINE
  8
22
 66
1
 10
0.0000
 20
0.0000
 30
0.0000
 40
0.0762
 41
0.0762
 70
0
  0
VERTEX
  8
22
 10
28.9220
 20
38.5219
 30
0.0000
 42
1.0000
  0
VERTEX
  8
22
 10
28.9220
 20
38.5981
 30
0.0000
  0
SEQEND
  8
0
  0
POLYLINE
  8
22
 66
1
 10
0.0000
 20
0.0000
 30
0.0000
 40
0.1524
 41
0.1524
 70
0
  0
VERTEX
  8
22
 10
28.8280
 20
36.9400
 30
0.0000
  0
VERTEX
  8
22
 10
28.9220
 20
36.9400
 30
0.0000
  0
SEQEND
  8
0
  0
POLYLINE
  8
22
 66
1
 10
0.0000
 20
0.0000
 30
0.0000
 40
0.0762
 41
0.0762
 70
0
  0
VERTEX
  8
22
 10
28.9220
 20
36.9019
 30
0.0000
 42
1.0000
  0
VERTEX
  8
22
 10
28.9220
 20
36.9781
 30
0.0000
  0
SEQEND
  8
0
  0
POLYLINE
  8
22
 66
1
 10
0.0000
 20
0.0000
 30
0.0000
 40
0.0762
 41
0.0762
 70
0
  0
VERTEX
  8
22
 10
28.8280
 20
36.9781
 30
0.0000
 42
1.0000
  0
VERTEX
  8
22
 10
28.8280
 20
36.9019
 30
0.0000
  0
SEQEND
  8
0
  0
POLYLINE
  8
22
 66
1
 10
0.0000
 20
0.0000
 30
0.0000
 40
0.1524
 41
0.1524
 70
0
  0
VERTEX
  8
22
 10
26.0780
 20
36.9400
 30
0.0000
  0
VERTEX
  8
22
 10
26.1720
 20
36.9400
 30
0.0000
  0
SEQEND
  8
0
  0
POLYLINE
  8
22
 66
1
 10
0.0000
 20
0.0000
 30
0.0000
 40
0.0762
 41
0.0762
 70
0
  0
VERTEX
  8
22
 10
26.1720
 20
36.9019
 30
0.0000
 42
1.0000
  0
VERTEX
  8
22
 10
26.1720
 20
36.9781
 30
0.0000
  0
SEQEND
  8
0
  0
POLYLINE
  8
22
 66
1
 10
0.0000
 20
0.0000
 30
0.0000
 40
0.0762
 41
0.0762
 70
0
  0
VERTEX
  8
22
 10
26.0780
 20
36.9781
 30
0.0000
 42
1.0000
  0
VERTEX
  8
22
 10
26.0780
 20
36.9019
 30
0.0000
  0
SEQEND
  8
0
  0
POLYLINE
  8
22
 66
1
 10
0.0000
 20
0.0000
 30
0.0000
 40
0.1524
 41
0.1524
 70
0
  0
VERTEX
  8
22
 10
47.9220
 20
37.1900
 30
0.0000
  0
VERTEX
  8
22
 10
47.9220
 20
38.8100
 30
0.0000
  0
SEQEND
  8
0
  0
POLYLINE
  8
22
 66
1
 10
0.0000
 20
0.0000
 30
0.0000
 40
0.0762
 41
0.0762
 70
0
  0
VERTEX
  8
22
 10
47.9601
 20
38.8100
 30
0.0000
 42
1.0000
  0
VERTEX
  8
22
 10
47.8839
 20
38.8100
 30
0.0000
  0
SEQEND
  8
0
  0
POLYLINE
  8
22
 66
1
 10
0.0000
 20
0.0000
 30
0.0000
 40
0.0762
 41
0.0762
 70
0
  0
VERTEX
  8
22
 10
47.8839
 20
37.1900
 30
0.0000
 42
1.0000
  0
VERTEX
  8
22
 10
47.9601
 20
37.1900
 30
0.0000
  0
SEQEND
  8
0
  0
POLYLINE
  8
22
 66
1
 10
0.0000
 20
0.0000
 30
0.0000
 40
0.1524
 41
0.1524
 70
0
  0
VERTEX
  8
22
 10
45.0780
 20
38.8100
 30
0.0000
  0
VERTEX
  8
22
 10
45.0780
 20
37.1900
 30
0.0000
  0
SEQEND
  8
0
  0
POLYLINE
  8
22
 66
1
 10
0.0000
 20
0.0000
 30
0.0000
 40
0.0762
 41
0.0762
 70
0
  0
VERTEX
  8
22
 10
45.0399
 20
37.1900
 30
0.0000
 42
1.0000
  0
VERTEX
  8
22
 10
45.1161
 20
37.1900
 30
0.0000
  0
SEQEND
  8
0
  0
POLYLINE
  8
22
 66
1
 10
0.0000
 20
0.0000
 30
0.0000
 40
0.0762
 41
0.0762
 70
0
  0
VERTEX
  8
22
 10
45.1161
 20
38.8100
 30
0.0000
 42
1.0000
  0
VERTEX
  8
22
 10
45.0399
 20
38.8100
 30
0.0000
  0
SEQEND
  8
0
  0
POLYLINE
  8
22
 66
1
 10
0.0000
 20
0.0000
 30
0.0000
 40
0.1524
 41
0.1524
 70
0
  0
VERTEX
  8
22
 10
45.9780
 20
37.1900
 30
0.0000
  0
VERTEX
  8
22
 10
47.0220
 20
37.1900
 30
0.0000
  0
SEQEND
  8
0
  0
POLYLINE
  8
22
 66
1
 10
0.0000
 20
0.0000
 30
0.0000
 40
0.0762
 41
0.0762
 70
0
  0
VERTEX
  8
22
 10
47.0220
 20
37.1519
 30
0.0000
 42
1.0000
  0
VERTEX
  8
22
 10
47.0220
 20
37.2281
 30
0.0000
  0
SEQEND
  8
0
  0
POLYLINE
  8
22
 66
1
 10
0.0000
 20
0.0000
 30
0.0000
 40
0.0762
 41
0.0762
 70
0
  0
VERTEX
  8
22
 10
45.9780
 20
37.2281
 30
0.0000
 42
1.0000
  0
VERTEX
  8
22
 10
45.9780
 20
37.1519
 30
0.0000
  0
SEQEND
  8
0
  0
POLYLINE
  8
22
 66
1
 10
0.0000
 20
0.0000
 30
0.0000
 40
0.1524
 41
0.1524
 70
0
  0
VERTEX
  8
22
 10
46.0720
 20
38.8100
 30
0.0000
  0
VERTEX
  8
22
 10
45.9780
 20
38.8100
 30
0.0000
  0
SEQEND
  8
0
  0
POLYLINE
  8
22
 66
1
 10
0.0000
 20
0.0000
 30
0.0000
 40
0.0762
 41
0.0762
 70
0
  0
VERTEX
  8
22
 10
45.9780
 20
38.8481
 30
0.0000
 42
1.0000
  0
VERTEX
  8
22
 10
45.9780
 20
38.7719
 30
0.0000
  0
SEQEND
  8
0
  0
POLYLINE
  8
22
 66
1
 10
0.0000
 20
0.0000
 30
0.0000
 40
0.0762
 41
0.0762
 70
0
  0
VERTEX
  8
22
 10
46.0720
 20
38.7719
 30
0.0000
 42
1.0000
  0
VERTEX
  8
22
 10
46.0720
 20
38.8481
 30
0.0000
  0
SEQEND
  8
0
  0
POLYLINE
  8
22
 66
1
 10
0.0000
 20
0.0000
 30
0.0000
 40
0.1524
 41
0.1524
 70
0
  0
VERTEX
  8
22
 10
47.0220
 20
38.8100
 30
0.0000
  0
VERTEX
  8
22
 10
46.9280
 20
38.8100
 30
0.0000
  0
SEQEND
  8
0
  0
POLYLINE
  8
22
 66
1
 10
0.0000
 20
0.0000
 30
0.0000
 40
0.0762
 41
0.0762
 70
0
  0
VERTEX
  8
22
 10
46.9280
 20
38.8481
 30
0.0000
 42
1.0000
  0
VERTEX
  8
22
 10
46.9280
 20
38.7719
 30
0.0000
  0
SEQEND
  8
0
  0
POLYLINE
  8
22
 66
1
 10
0.0000
 20
0.0000
 30
0.0000
 40
0.0762
 41
0.0762
 70
0
  0
VERTEX
  8
22
 10
47.0220
 20
38.7719
 30
0.0000
 42
1.0000
  0
VERTEX
  8
22
 10
47.0220
 20
38.8481
 30
0.0000
  0
SEQEND
  8
0
  0
POLYLINE
  8
22
 66
1
 10
0.0000
 20
0.0000
 30
0.0000
 40
0.1524
 41
0.1524
 70
0
  0
VERTEX
  8
22
 10
45.1720
 20
38.8100
 30
0.0000
  0
VERTEX
  8
22
 10
45.0780
 20
38.8100
 30
0.0000
  0
SEQEND
  8
0
  0
POLYLINE
  8
22
 66
1
 10
0.0000
 20
0.0000
 30
0.0000
 40
0.0762
 41
0.0762
 70
0
  0
VERTEX
  8
22
 10
45.0780
 20
38.8481
 30
0.0000
 42
1.0000
  0
VERTEX
  8
22
 10
45.0780
 20
38.7719
 30
0.0000
  0
SEQEND
  8
0
  0
POLYLINE
  8
22
 66
1
 10
0.0000
 20
0.0000
 30
0.0000
 40
0.0762
 41
0.0762
 70
0
  0
VERTEX
  8
22
 10
45.1720
 20
38.7719
 30
0.0000
 42
1.0000
  0
VERTEX
  8
22
 10
45.1720
 20
38.8481
 30
0.0000
  0
SEQEND
  8
0
  0
POLYLINE
  8
22
 66
1
 10
0.0000
 20
0.0000
 30
0.0000
 40
0.1524
 41
0.1524
 70
0
  0
VERTEX
  8
22
 10
47.9220
 20
38.8100
 30
0.0000
  0
VERTEX
  8
22
 10
47.8280
 20
38.8100
 30
0.0000
  0
SEQEND
  8
0
  0
POLYLINE
  8
22
 66
1
 10
0.0000
 20
0.0000
 30
0.0000
 40
0.0762
 41
0.0762
 70
0
  0
VERTEX
  8
22
 10
47.8280
 20
38.8481
 30
0.0000
 42
1.0000
  0
VERTEX
  8
22
 10
47.8280
 20
38.7719
 30
0.0000
  0
SEQEND
  8
0
  0
POLYLINE
  8
22
 66
1
 10
0.0000
 20
0.0000
 30
0.0000
 40
0.0762
 41
0.0762
 70
0
  0
VERTEX
  8
22
 10
47.9220
 20
38.7719
 30
0.0000
 42
1.0000
  0
VERTEX
  8
22
 10
47.9220
 20
38.8481
 30
0.0000
  0
SEQEND
  8
0
  0
POLYLINE
  8
22
 66
1
 10
0.0000
 20
0.0000
 30
0.0000
 40
0.1524
 41
0.1524
 70
0
  0
VERTEX
  8
22
 10
47.8280
 20
37.1900
 30
0.0000
  0
VERTEX
  8
22
 10
47.9220
 20
37.1900
 30
0.0000
  0
SEQEND
  8
0
  0
POLYLINE
  8
22
 66
1
 10
0.0000
 20
0.0000
 30
0.0000
 40
0.0762
 41
0.0762
 70
0
  0
VERTEX
  8
22
 10
47.9220
 20
37.1519
 30
0.0000
 42
1.0000
  0
VERTEX
  8
22
 10
47.9220
 20
37.2281
 30
0.0000
  0
SEQEND
  8
0
  0
POLYLINE
  8
22
 66
1
 10
0.0000
 20
0.0000
 30
0.0000
 40
0.0762
 41
0.0762
 70
0
  0
VERTEX
  8
22
 10
47.8280
 20
37.2281
 30
0.0000
 42
1.0000
  0
VERTEX
  8
22
 10
47.8280
 20
37.1519
 30
0.0000
  0
SEQEND
  8
0
  0
POLYLINE
  8
22
 66
1
 10
0.0000
 20
0.0000
 30
0.0000
 40
0.1524
 41
0.1524
 70
0
  0
VERTEX
  8
22
 10
45.0780
 20
37.1900
 30
0.0000
  0
VERTEX
  8
22
 10
45.1720
 20
37.1900
 30
0.0000
  0
SEQEND
  8
0
  0
POLYLINE
  8
22
 66
1
 10
0.0000
 20
0.0000
 30
0.0000
 40
0.0762
 41
0.0762
 70
0
  0
VERTEX
  8
22
 10
45.1720
 20
37.1519
 30
0.0000
 42
1.0000
  0
VERTEX
  8
22
 10
45.1720
 20
37.2281
 30
0.0000
  0
SEQEND
  8
0
  0
POLYLINE
  8
22
 66
1
 10
0.0000
 20
0.0000
 30
0.0000
 40
0.0762
 41
0.0762
 70
0
  0
VERTEX
  8
22
 10
45.0780
 20
37.2281
 30
0.0000
 42
1.0000
  0
VERTEX
  8
22
 10
45.0780
 20
37.1519
 30
0.0000
  0
SEQEND
  8
0
  0
POLYLINE
  8
21
 66
1
 10
0.0000
 20
0.0000
 30
0.0000
 40
0.0500
 41
0.0500
 70
0
  0
VERTEX
  8
21
 10
40.8600
 20
14.8100
 30
0.0000
  0
VERTEX
  8
21
 10
40.8600
 20
13.8600
 30
0.0000
  0
SEQEND
  8
0
  0
POLYLINE
  8
21
 66
1
 10
0.0000
 20
0.0000
 30
0.0000
 40
0.0250
 41
0.0250
 70
0
  0
VERTEX
  8
21
 10
40.8475
 20
13.8600
 30
0.0000
 42
1.0000
  0
VERTEX
  8
21
 10
40.8725
 20
13.8600
 30
0.0000
  0
SEQEND
  8
0
  0
POLYLINE
  8
21
 66
1
 10
0.0000
 20
0.0000
 30
0.0000
 40
0.0250
 41
0.0250
 70
0
  0
VERTEX
  8
21
 10
40.8725
 20
14.8100
 30
0.0000
 42
1.0000
  0
VERTEX
  8
21
 10
40.8475
 20
14.8100
 30
0.0000
  0
SEQEND
  8
0
  0
POLYLINE
  8
21
 66
1
 10
0.0000
 20
0.0000
 30
0.0000
 40
0.0500
 41
0.0500
 70
0
  0
VERTEX
  8
21
 10
40.8600
 20
13.8600
 30
0.0000
  0
VERTEX
  8
21
 10
40.7500
 20
13.7500
 30
0.0000
  0
SEQEND
  8
0
  0
POLYLINE
  8
21
 66
1
 10
0.0000
 20
0.0000
 30
0.0000
 40
0.0250
 41
0.0250
 70
0
  0
VERTEX
  8
21
 10
40.7412
 20
13.7588
 30
0.0000
 42
1.0000
  0
VERTEX
  8
21
 10
40.7588
 20
13.7412
 30
0.0000
  0
SEQEND
  8
0
  0
POLYLINE
  8
21
 66
1
 10
0.0000
 20
0.0000
 30
0.0000
 40
0.0250
 41
0.0250
 70
0
  0
VERTEX
  8
21
 10
40.8688
 20
13.8512
 30
0.0000
 42
1.0000
  0
VERTEX
  8
21
 10
40.8512
 20
13.8688
 30
0.0000
  0
SEQEND
  8
0
  0
POLYLINE
  8
21
 66
1
 10
0.0000
 20
0.0000
 30
0.0000
 40
0.0500
 41
0.0500
 70
0
  0
VERTEX
  8
21
 10
40.7500
 20
13.7500
 30
0.0000
  0
VERTEX
  8
21
 10
40.8600
 20
13.6400
 30
0.0000
  0
SEQEND
  8
0
  0
POLYLINE
  8
21
 66
1
 10
0.0000
 20
0.0000
 30
0.0000
 40
0.0250
 41
0.0250
 70
0
  0
VERTEX
  8
21
 10
40.8512
 20
13.6312
 30
0.0000
 42
1.0000
  0
VERTEX
  8
21
 10
40.8688
 20
13.6488
 30
0.0000
  0
SEQEND
  8
0
  0
POLYLINE
  8
21
 66
1
 10
0.0000
 20
0.0000
 30
0.0000
 40
0.0250
 41
0.0250
 70
0
  0
VERTEX
  8
21
 10
40.7588
 20
13.7588
 30
0.0000
 42
1.0000
  0
VERTEX
  8
21
 10
40.7412
 20
13.7412
 30
0.0000
  0
SEQEND
  8
0
  0
POLYLINE
  8
21
 66
1
 10
0.0000
 20
0.0000
 30
0.0000
 40
0.0500
 41
0.0500
 70
0
  0
VERTEX
  8
21
 10
40.8600
 20
13.6400
 30
0.0000
  0
VERTEX
  8
21
 10
40.8600
 20
12.6900
 30
0.0000
  0
SEQEND
  8
0
  0
POLYLINE
  8
21
 66
1
 10
0.0000
 20
0.0000
 30
0.0000
 40
0.0250
 41
0.0250
 70
0
  0
VERTEX
  8
21
 10
40.8475
 20
12.6900
 30
0.0000
 42
1.0000
  0
VERTEX
  8
21
 10
40.8725
 20
12.6900
 30
0.0000
  0
SEQEND
  8
0
  0
POLYLINE
  8
21
 66
1
 10
0.0000
 20
0.0000
 30
0.0000
 40
0.0250
 41
0.0250
 70
0
  0
VERTEX
  8
21
 10
40.8725
 20
13.6400
 30
0.0000
 42
1.0000
  0
VERTEX
  8
21
 10
40.8475
 20
13.6400
 30
0.0000
  0
SEQEND
  8
0
  0
POLYLINE
  8
21
 66
1
 10
0.0000
 20
0.0000
 30
0.0000
 40
0.0500
 41
0.0500
 70
0
  0
VERTEX
  8
21
 10
40.8600
 20
12.6900
 30
0.0000
  0
VERTEX
  8
21
 10
39.1400
 20
12.6900
 30
0.0000
  0
SEQEND
  8
0
  0
POLYLINE
  8
21
 66
1
 10
0.0000
 20
0.0000
 30
0.0000
 40
0.0250
 41
0.0250
 70
0
  0
VERTEX
  8
21
 10
39.1400
 20
12.7025
 30
0.0000
 42
1.0000
  0
VERTEX
  8
21
 10
39.1400
 20
12.6775
 30
0.0000
  0
SEQEND
  8
0
  0
POLYLINE
  8
21
 66
1
 10
0.0000
 20
0.0000
 30
0.0000
 40
0.0250
 41
0.0250
 70
0
  0
VERTEX
  8
21
 10
40.8600
 20
12.6775
 30
0.0000
 42
1.0000
  0
VERTEX
  8
21
 10
40.8600
 20
12.7025
 30
0.0000
  0
SEQEND
  8
0
  0
POLYLINE
  8
21
 66
1
 10
0.0000
 20
0.0000
 30
0.0000
 40
0.0500
 41
0.0500
 70
0
  0
VERTEX
  8
21
 10
39.1400
 20
12.6900
 30
0.0000
  0
VERTEX
  8
21
 10
39.1400
 20
14.8100
 30
0.0000
  0
SEQEND
  8
0
  0
POLYLINE
  8
21
 66
1
 10
0.0000
 20
0.0000
 30
0.0000
 40
0.0250
 41
0.0250
 70
0
  0
VERTEX
  8
21
 10
39.1525
 20
14.8100
 30
0.0000
 42
1.0000
  0
VERTEX
  8
21
 10
39.1275
 20
14.8100
 30
0.0000
  0
SEQEND
  8
0
  0
POLYLINE
  8
21
 66
1
 10
0.0000
 20
0.0000
 30
0.0000
 40
0.0250
 41
0.0250
 70
0
  0
VERTEX
  8
21
 10
39.1275
 20
12.6900
 30
0.0000
 42
1.0000
  0
VERTEX
  8
21
 10
39.1525
 20
12.6900
 30
0.0000
  0
SEQEND
  8
0
  0
POLYLINE
  8
21
 66
1
 10
0.0000
 20
0.0000
 30
0.0000
 40
0.0500
 41
0.0500
 70
0
  0
VERTEX
  8
21
 10
39.1400
 20
14.8100
 30
0.0000
  0
VERTEX
  8
21
 10
40.8600
 20
14.8100
 30
0.0000
  0
SEQEND
  8
0
  0
POLYLINE
  8
21
 66
1
 10
0.0000
 20
0.0000
 30
0.0000
 40
0.0250
 41
0.0250
 70
0
  0
VERTEX
  8
21
 10
40.8600
 20
14.7975
 30
0.0000
 42
1.0000
  0
VERTEX
  8
21
 10
40.8600
 20
14.8225
 30
0.0000
  0
SEQEND
  8
0
  0
POLYLINE
  8
21
 66
1
 10
0.0000
 20
0.0000
 30
0.0000
 40
0.0250
 41
0.0250
 70
0
  0
VERTEX
  8
21
 10
39.1400
 20
14.8225
 30
0.0000
 42
1.0000
  0
VERTEX
  8
21
 10
39.1400
 20
14.7975
 30
0.0000
  0
SEQEND
  8
0
  0
POLYLINE
  8
21
 66
1
 10
0.0000
 20
0.0000
 30
0.0000
 40
0.0500
 41
0.0500
 70
0
  0
VERTEX
  8
21
 10
41.5000
 20
24.0000
 30
0.0000
  0
VERTEX
  8
21
 10
38.5000
 20
24.0000
 30
0.0000
  0
SEQEND
  8
0
  0
POLYLINE
  8
21
 66
1
 10
0.0000
 20
0.0000
 30
0.0000
 40
0.0250
 41
0.0250
 70
0
  0
VERTEX
  8
21
 10
38.5000
 20
24.0125
 30
0.0000
 42
1.0000
  0
VERTEX
  8
21
 10
38.5000
 20
23.9875
 30
0.0000
  0
SEQEND
  8
0
  0
POLYLINE
  8
21
 66
1
 10
0.0000
 20
0.0000
 30
0.0000
 40
0.0250
 41
0.0250
 70
0
  0
VERTEX
  8
21
 10
41.5000
 20
23.9875
 30
0.0000
 42
1.0000
  0
VERTEX
  8
21
 10
41.5000
 20
24.0125
 30
0.0000
  0
SEQEND
  8
0
  0
POLYLINE
  8
21
 66
1
 10
0.0000
 20
0.0000
 30
0.0000
 40
0.0500
 41
0.0500
 70
0
  0
VERTEX
  8
21
 10
38.5000
 20
24.0000
 30
0.0000
  0
VERTEX
  8
21
 10
38.5000
 20
27.0000
 30
0.0000
  0
SEQEND
  8
0
  0
POLYLINE
  8
21
 66
1
 10
0.0000
 20
0.0000
 30
0.0000
 40
0.0250
 41
0.0250
 70
0
  0
VERTEX
  8
21
 10
38.5125
 20
27.0000
 30
0.0000
 42
1.0000
  0
VERTEX
  8
21
 10
38.4875
 20
27.0000
 30
0.0000
  0
SEQEND
  8
0
  0
POLYLINE
  8
21
 66
1
 10
0.0000
 20
0.0000
 30
0.0000
 40
0.0250
 41
0.0250
 70
0
  0
VERTEX
  8
21
 10
38.4875
 20
24.0000
 30
0.0000
 42
1.0000
  0
VERTEX
  8
21
 10
38.5125
 20
24.0000
 30
0.0000
  0
SEQEND
  8
0
  0
POLYLINE
  8
21
 66
1
 10
0.0000
 20
0.0000
 30
0.0000
 40
0.0500
 41
0.0500
 70
0
  0
VERTEX
  8
21
 10
38.5000
 20
27.0000
 30
0.0000
  0
VERTEX
  8
21
 10
41.5000
 20
27.0000
 30
0.0000
  0
SEQEND
  8
0
  0
POLYLINE
  8
21
 66
1
 10
0.0000
 20
0.0000
 30
0.0000
 40
0.0250
 41
0.0250
 70
0
  0
VERTEX
  8
21
 10
41.5000
 20
26.9875
 30
0.0000
 42
1.0000
  0
VERTEX
  8
21
 10
41.5000
 20
27.0125
 30
0.0000
  0
SEQEND
  8
0
  0
POLYLINE
  8
21
 66
1
 10
0.0000
 20
0.0000
 30
0.0000
 40
0.0250
 41
0.0250
 70
0
  0
VERTEX
  8
21
 10
38.5000
 20
27.0125
 30
0.0000
 42
1.0000
  0
VERTEX
  8
21
 10
38.5000
 20
26.9875
 30
0.0000
  0
SEQEND
  8
0
  0
POLYLINE
  8
21
 66
1
 10
0.0000
 20
0.0000
 30
0.0000
 40
0.0500
 41
0.0500
 70
0
  0
VERTEX
  8
21
 10
41.5000
 20
27.0000
 30
0.0000
  0
VERTEX
  8
21
 10
41.5000
 20
24.0000
 30
0.0000
  0
SEQEND
  8
0
  0
POLYLINE
  8
21
 66
1
 10
0.0000
 20
0.0000
 30
0.0000
 40
0.0250
 41
0.0250
 70
0
  0
VERTEX
  8
21
 10
41.4875
 20
24.0000
 30
0.0000
 42
1.0000
  0
VERTEX
  8
21
 10
41.5125
 20
24.0000
 30
0.0000
  0
SEQEND
  8
0
  0
POLYLINE
  8
21
 66
1
 10
0.0000
 20
0.0000
 30
0.0000
 40
0.0250
 41
0.0250
 70
0
  0
VERTEX
  8
21
 10
41.5125
 20
27.0000
 30
0.0000
 42
1.0000
  0
VERTEX
  8
21
 10
41.4875
 20
27.0000
 30
0.0000
  0
SEQEND
  8
0
  0
ENDSEC
  0
EOF
