G04 EAGLE Gerber RS-274X export*
G75*
%MOMM*%
%FSLAX34Y34*%
%LPD*%
%INBottom Copper*%
%IPPOS*%
%AMOC8*
5,1,8,0,0,1.08239X$1,22.5*%
G01*
%ADD10P,1.539592X8X202.500000*%
%ADD11C,2.000000*%
%ADD12C,1.600000*%
%ADD13C,0.300000*%
%ADD14C,2.800000*%
%ADD15C,6.500000*%

G36*
X3050185Y-4988D02*
X3050185Y-4988D01*
X3050370Y-4986D01*
X3050500Y-4968D01*
X3050631Y-4959D01*
X3050812Y-4924D01*
X3050996Y-4899D01*
X3051122Y-4865D01*
X3051252Y-4840D01*
X3051428Y-4782D01*
X3051606Y-4734D01*
X3051727Y-4684D01*
X3051852Y-4643D01*
X3052020Y-4564D01*
X3052190Y-4494D01*
X3052305Y-4429D01*
X3052423Y-4373D01*
X3052579Y-4273D01*
X3052740Y-4182D01*
X3052845Y-4103D01*
X3052956Y-4032D01*
X3053098Y-3913D01*
X3053246Y-3802D01*
X3053340Y-3711D01*
X3053441Y-3627D01*
X3053567Y-3491D01*
X3053700Y-3362D01*
X3053782Y-3260D01*
X3053871Y-3163D01*
X3053979Y-3013D01*
X3054094Y-2869D01*
X3054163Y-2756D01*
X3054239Y-2650D01*
X3054327Y-2487D01*
X3054424Y-2329D01*
X3054477Y-2209D01*
X3054540Y-2094D01*
X3054606Y-1921D01*
X3054682Y-1752D01*
X3054720Y-1627D01*
X3054768Y-1504D01*
X3054812Y-1324D01*
X3054866Y-1147D01*
X3054888Y-1018D01*
X3054919Y-890D01*
X3054941Y-707D01*
X3054972Y-524D01*
X3054980Y-371D01*
X3054992Y-263D01*
X3054991Y-154D01*
X3054999Y0D01*
X3054999Y2290000D01*
X3054988Y2290185D01*
X3054986Y2290370D01*
X3054968Y2290500D01*
X3054959Y2290631D01*
X3054924Y2290812D01*
X3054899Y2290996D01*
X3054865Y2291122D01*
X3054840Y2291252D01*
X3054782Y2291428D01*
X3054734Y2291606D01*
X3054684Y2291727D01*
X3054643Y2291852D01*
X3054564Y2292020D01*
X3054494Y2292190D01*
X3054429Y2292305D01*
X3054373Y2292423D01*
X3054273Y2292579D01*
X3054182Y2292740D01*
X3054103Y2292845D01*
X3054032Y2292956D01*
X3053913Y2293098D01*
X3053802Y2293246D01*
X3053711Y2293340D01*
X3053627Y2293441D01*
X3053491Y2293567D01*
X3053362Y2293700D01*
X3053260Y2293782D01*
X3053163Y2293871D01*
X3053013Y2293979D01*
X3052869Y2294094D01*
X3052756Y2294163D01*
X3052650Y2294239D01*
X3052487Y2294327D01*
X3052329Y2294424D01*
X3052209Y2294477D01*
X3052094Y2294540D01*
X3051921Y2294606D01*
X3051752Y2294682D01*
X3051627Y2294720D01*
X3051504Y2294768D01*
X3051324Y2294812D01*
X3051147Y2294866D01*
X3051018Y2294888D01*
X3050890Y2294919D01*
X3050707Y2294941D01*
X3050524Y2294972D01*
X3050371Y2294980D01*
X3050263Y2294992D01*
X3050154Y2294991D01*
X3050000Y2294999D01*
X0Y2294999D01*
X-185Y2294988D01*
X-370Y2294986D01*
X-500Y2294968D01*
X-631Y2294959D01*
X-812Y2294924D01*
X-996Y2294899D01*
X-1122Y2294865D01*
X-1252Y2294840D01*
X-1428Y2294782D01*
X-1606Y2294734D01*
X-1727Y2294684D01*
X-1852Y2294643D01*
X-2020Y2294564D01*
X-2190Y2294494D01*
X-2305Y2294429D01*
X-2423Y2294373D01*
X-2579Y2294273D01*
X-2740Y2294182D01*
X-2845Y2294103D01*
X-2956Y2294032D01*
X-3098Y2293913D01*
X-3246Y2293802D01*
X-3340Y2293711D01*
X-3441Y2293627D01*
X-3567Y2293491D01*
X-3700Y2293362D01*
X-3782Y2293260D01*
X-3871Y2293163D01*
X-3979Y2293013D01*
X-4094Y2292869D01*
X-4163Y2292756D01*
X-4239Y2292650D01*
X-4327Y2292487D01*
X-4424Y2292329D01*
X-4477Y2292209D01*
X-4540Y2292094D01*
X-4606Y2291921D01*
X-4682Y2291752D01*
X-4720Y2291627D01*
X-4768Y2291504D01*
X-4812Y2291324D01*
X-4866Y2291147D01*
X-4888Y2291018D01*
X-4919Y2290890D01*
X-4941Y2290707D01*
X-4972Y2290524D01*
X-4980Y2290371D01*
X-4992Y2290263D01*
X-4991Y2290154D01*
X-4999Y2290000D01*
X-4999Y0D01*
X-4988Y-185D01*
X-4986Y-370D01*
X-4968Y-500D01*
X-4959Y-631D01*
X-4924Y-812D01*
X-4899Y-996D01*
X-4865Y-1122D01*
X-4840Y-1252D01*
X-4782Y-1428D01*
X-4734Y-1606D01*
X-4684Y-1727D01*
X-4643Y-1852D01*
X-4564Y-2020D01*
X-4494Y-2190D01*
X-4429Y-2305D01*
X-4373Y-2423D01*
X-4273Y-2579D01*
X-4182Y-2740D01*
X-4103Y-2845D01*
X-4032Y-2956D01*
X-3913Y-3098D01*
X-3802Y-3246D01*
X-3711Y-3340D01*
X-3627Y-3441D01*
X-3491Y-3567D01*
X-3362Y-3700D01*
X-3260Y-3782D01*
X-3163Y-3871D01*
X-3013Y-3979D01*
X-2869Y-4094D01*
X-2756Y-4163D01*
X-2650Y-4239D01*
X-2487Y-4327D01*
X-2329Y-4424D01*
X-2209Y-4477D01*
X-2094Y-4540D01*
X-1921Y-4606D01*
X-1752Y-4682D01*
X-1627Y-4720D01*
X-1504Y-4768D01*
X-1324Y-4812D01*
X-1147Y-4866D01*
X-1018Y-4888D01*
X-890Y-4919D01*
X-707Y-4941D01*
X-524Y-4972D01*
X-371Y-4980D01*
X-263Y-4992D01*
X-154Y-4991D01*
X0Y-4999D01*
X3050000Y-4999D01*
X3050185Y-4988D01*
G37*
%LPC*%
G36*
X336221Y530999D02*
X336221Y530999D01*
X329237Y533892D01*
X323892Y539237D01*
X320999Y546221D01*
X320999Y553779D01*
X323892Y560763D01*
X358544Y595415D01*
X359193Y596064D01*
X361920Y598791D01*
X361988Y598868D01*
X362089Y598969D01*
X363803Y600859D01*
X363868Y600942D01*
X363941Y601018D01*
X364110Y601245D01*
X364197Y601353D01*
X364220Y601393D01*
X364255Y601439D01*
X367087Y605677D01*
X367201Y605874D01*
X367323Y606067D01*
X367366Y606158D01*
X367404Y606224D01*
X367456Y606347D01*
X367549Y606541D01*
X369499Y611250D01*
X369573Y611466D01*
X369654Y611679D01*
X369679Y611776D01*
X369704Y611848D01*
X369731Y611979D01*
X369784Y612188D01*
X370778Y617187D01*
X370792Y617291D01*
X370815Y617395D01*
X370843Y617675D01*
X370862Y617813D01*
X370862Y617860D01*
X370868Y617917D01*
X370993Y620465D01*
X370992Y620568D01*
X370999Y620711D01*
X370999Y1783779D01*
X373892Y1790763D01*
X379237Y1796108D01*
X386221Y1799001D01*
X393779Y1799001D01*
X400763Y1796108D01*
X406108Y1790763D01*
X409001Y1783779D01*
X409001Y613915D01*
X406349Y600584D01*
X401148Y588026D01*
X393596Y576725D01*
X392167Y575296D01*
X392167Y575295D01*
X388590Y571719D01*
X385416Y568545D01*
X385415Y568544D01*
X350763Y533892D01*
X343779Y530999D01*
X336221Y530999D01*
G37*
%LPD*%
%LPC*%
G36*
X336221Y740999D02*
X336221Y740999D01*
X329237Y743892D01*
X323892Y749237D01*
X320999Y756221D01*
X320999Y1663779D01*
X323892Y1670763D01*
X329237Y1676108D01*
X336221Y1679001D01*
X343779Y1679001D01*
X350763Y1676108D01*
X356108Y1670763D01*
X359001Y1663779D01*
X359001Y756221D01*
X356108Y749237D01*
X350763Y743892D01*
X343779Y740999D01*
X336221Y740999D01*
G37*
%LPD*%
%LPC*%
G36*
X217957Y430999D02*
X217957Y430999D01*
X215568Y431989D01*
X205739Y441818D01*
X204749Y444207D01*
X204749Y459794D01*
X204742Y459913D01*
X204744Y460033D01*
X204722Y460229D01*
X204709Y460425D01*
X204687Y460542D01*
X204674Y460661D01*
X204627Y460852D01*
X204590Y461046D01*
X204553Y461159D01*
X204525Y461275D01*
X204455Y461459D01*
X204393Y461646D01*
X204342Y461755D01*
X204300Y461866D01*
X204207Y462039D01*
X204123Y462218D01*
X204058Y462318D01*
X204002Y462423D01*
X203888Y462584D01*
X203782Y462750D01*
X203705Y462842D01*
X203636Y462939D01*
X203466Y463128D01*
X203377Y463235D01*
X203334Y463274D01*
X203285Y463329D01*
X200228Y466386D01*
X198249Y471164D01*
X198249Y476336D01*
X200228Y481114D01*
X203886Y484772D01*
X208664Y486751D01*
X213836Y486751D01*
X218614Y484772D01*
X222272Y481114D01*
X224251Y476336D01*
X224251Y471164D01*
X222272Y466386D01*
X219215Y463329D01*
X219136Y463240D01*
X219050Y463157D01*
X218927Y463003D01*
X218797Y462855D01*
X218730Y462756D01*
X218656Y462663D01*
X218553Y462495D01*
X218443Y462332D01*
X218389Y462225D01*
X218326Y462123D01*
X218246Y461944D01*
X218157Y461768D01*
X218117Y461655D01*
X218068Y461546D01*
X218011Y461358D01*
X217944Y461172D01*
X217919Y461056D01*
X217884Y460942D01*
X217851Y460747D01*
X217809Y460555D01*
X217798Y460436D01*
X217778Y460318D01*
X217765Y460065D01*
X217752Y459925D01*
X217755Y459868D01*
X217751Y459794D01*
X217751Y450263D01*
X217758Y450144D01*
X217756Y450025D01*
X217778Y449829D01*
X217791Y449633D01*
X217813Y449516D01*
X217826Y449397D01*
X217873Y449205D01*
X217910Y449012D01*
X217947Y448898D01*
X217975Y448782D01*
X218045Y448599D01*
X218107Y448411D01*
X218158Y448303D01*
X218200Y448192D01*
X218293Y448018D01*
X218377Y447840D01*
X218442Y447739D01*
X218498Y447634D01*
X218612Y447474D01*
X218718Y447308D01*
X218795Y447216D01*
X218864Y447119D01*
X219034Y446930D01*
X219123Y446823D01*
X219166Y446783D01*
X219215Y446728D01*
X220478Y445465D01*
X220568Y445386D01*
X220651Y445300D01*
X220805Y445177D01*
X220953Y445047D01*
X221052Y444980D01*
X221145Y444906D01*
X221313Y444803D01*
X221476Y444693D01*
X221582Y444639D01*
X221684Y444576D01*
X221864Y444496D01*
X222040Y444407D01*
X222152Y444367D01*
X222261Y444318D01*
X222450Y444261D01*
X222635Y444194D01*
X222752Y444169D01*
X222866Y444134D01*
X223060Y444101D01*
X223253Y444059D01*
X223371Y444048D01*
X223489Y444028D01*
X223743Y444015D01*
X223882Y444002D01*
X223940Y444005D01*
X224013Y444001D01*
X232800Y444001D01*
X232985Y444012D01*
X233170Y444014D01*
X233300Y444032D01*
X233431Y444041D01*
X233612Y444076D01*
X233796Y444101D01*
X233922Y444135D01*
X234052Y444160D01*
X234228Y444218D01*
X234406Y444266D01*
X234527Y444316D01*
X234652Y444357D01*
X234820Y444436D01*
X234990Y444506D01*
X235105Y444571D01*
X235223Y444627D01*
X235379Y444727D01*
X235540Y444818D01*
X235645Y444897D01*
X235756Y444968D01*
X235898Y445087D01*
X236046Y445198D01*
X236140Y445289D01*
X236241Y445373D01*
X236367Y445509D01*
X236500Y445638D01*
X236582Y445740D01*
X236671Y445837D01*
X236779Y445987D01*
X236894Y446131D01*
X236963Y446244D01*
X237039Y446350D01*
X237127Y446513D01*
X237224Y446671D01*
X237277Y446791D01*
X237340Y446906D01*
X237406Y447079D01*
X237482Y447248D01*
X237520Y447373D01*
X237568Y447496D01*
X237612Y447676D01*
X237666Y447853D01*
X237688Y447982D01*
X237719Y448110D01*
X237741Y448293D01*
X237772Y448476D01*
X237780Y448629D01*
X237792Y448737D01*
X237791Y448846D01*
X237799Y449000D01*
X237799Y454786D01*
X239778Y459564D01*
X242835Y462621D01*
X242914Y462710D01*
X243000Y462793D01*
X243123Y462947D01*
X243253Y463095D01*
X243320Y463194D01*
X243394Y463287D01*
X243497Y463455D01*
X243607Y463618D01*
X243661Y463725D01*
X243724Y463827D01*
X243804Y464006D01*
X243893Y464182D01*
X243933Y464295D01*
X243982Y464404D01*
X244039Y464592D01*
X244106Y464778D01*
X244131Y464894D01*
X244166Y465008D01*
X244199Y465203D01*
X244241Y465395D01*
X244252Y465514D01*
X244272Y465632D01*
X244285Y465884D01*
X244298Y466025D01*
X244295Y466082D01*
X244299Y466156D01*
X244299Y496187D01*
X244292Y496306D01*
X244294Y496425D01*
X244272Y496621D01*
X244259Y496817D01*
X244237Y496934D01*
X244224Y497053D01*
X244177Y497245D01*
X244140Y497438D01*
X244103Y497552D01*
X244075Y497668D01*
X244005Y497851D01*
X243943Y498039D01*
X243892Y498147D01*
X243850Y498258D01*
X243757Y498432D01*
X243673Y498610D01*
X243608Y498711D01*
X243552Y498816D01*
X243438Y498976D01*
X243332Y499142D01*
X243255Y499234D01*
X243186Y499331D01*
X243016Y499520D01*
X242927Y499627D01*
X242884Y499667D01*
X242835Y499722D01*
X213572Y528985D01*
X213482Y529064D01*
X213399Y529150D01*
X213245Y529273D01*
X213097Y529403D01*
X212998Y529470D01*
X212905Y529544D01*
X212737Y529647D01*
X212574Y529757D01*
X212468Y529811D01*
X212366Y529874D01*
X212186Y529954D01*
X212010Y530043D01*
X211898Y530083D01*
X211789Y530132D01*
X211600Y530189D01*
X211415Y530256D01*
X211298Y530281D01*
X211184Y530316D01*
X210990Y530349D01*
X210797Y530391D01*
X210679Y530402D01*
X210561Y530422D01*
X210307Y530435D01*
X210168Y530448D01*
X210110Y530445D01*
X210037Y530449D01*
X205714Y530449D01*
X200936Y532428D01*
X197278Y536086D01*
X195299Y540864D01*
X195299Y546036D01*
X197278Y550814D01*
X200936Y554472D01*
X205714Y556451D01*
X210886Y556451D01*
X215664Y554472D01*
X219322Y550814D01*
X221301Y546036D01*
X221301Y541713D01*
X221308Y541594D01*
X221306Y541475D01*
X221328Y541279D01*
X221341Y541083D01*
X221363Y540966D01*
X221376Y540847D01*
X221423Y540655D01*
X221460Y540462D01*
X221497Y540348D01*
X221525Y540232D01*
X221595Y540049D01*
X221657Y539861D01*
X221708Y539753D01*
X221750Y539642D01*
X221843Y539468D01*
X221927Y539290D01*
X221992Y539189D01*
X222048Y539084D01*
X222162Y538924D01*
X222268Y538758D01*
X222345Y538666D01*
X222414Y538569D01*
X222584Y538380D01*
X222673Y538273D01*
X222716Y538233D01*
X222765Y538178D01*
X256311Y504632D01*
X257301Y502243D01*
X257301Y466156D01*
X257308Y466037D01*
X257306Y465917D01*
X257328Y465721D01*
X257341Y465525D01*
X257363Y465408D01*
X257376Y465289D01*
X257423Y465098D01*
X257460Y464904D01*
X257497Y464791D01*
X257525Y464675D01*
X257595Y464491D01*
X257657Y464304D01*
X257708Y464195D01*
X257750Y464084D01*
X257843Y463911D01*
X257927Y463732D01*
X257992Y463632D01*
X258048Y463527D01*
X258162Y463366D01*
X258268Y463200D01*
X258345Y463108D01*
X258414Y463011D01*
X258584Y462822D01*
X258673Y462715D01*
X258716Y462676D01*
X258765Y462621D01*
X261822Y459564D01*
X263801Y454786D01*
X263801Y449000D01*
X263812Y448815D01*
X263814Y448630D01*
X263832Y448500D01*
X263841Y448369D01*
X263876Y448188D01*
X263901Y448004D01*
X263935Y447878D01*
X263960Y447748D01*
X264018Y447572D01*
X264066Y447394D01*
X264116Y447273D01*
X264157Y447148D01*
X264236Y446980D01*
X264306Y446810D01*
X264371Y446695D01*
X264427Y446577D01*
X264527Y446421D01*
X264618Y446260D01*
X264697Y446155D01*
X264768Y446044D01*
X264887Y445902D01*
X264998Y445754D01*
X265089Y445660D01*
X265173Y445559D01*
X265309Y445433D01*
X265438Y445300D01*
X265540Y445218D01*
X265637Y445129D01*
X265787Y445021D01*
X265931Y444906D01*
X266044Y444837D01*
X266150Y444761D01*
X266313Y444673D01*
X266471Y444576D01*
X266591Y444523D01*
X266706Y444460D01*
X266879Y444394D01*
X267048Y444318D01*
X267173Y444280D01*
X267296Y444232D01*
X267476Y444188D01*
X267653Y444134D01*
X267782Y444112D01*
X267910Y444081D01*
X268093Y444059D01*
X268276Y444028D01*
X268429Y444020D01*
X268537Y444008D01*
X268646Y444009D01*
X268800Y444001D01*
X277237Y444001D01*
X277356Y444008D01*
X277475Y444006D01*
X277671Y444028D01*
X277867Y444041D01*
X277984Y444063D01*
X278103Y444076D01*
X278295Y444123D01*
X278488Y444160D01*
X278602Y444197D01*
X278718Y444225D01*
X278901Y444295D01*
X279089Y444357D01*
X279197Y444408D01*
X279308Y444450D01*
X279482Y444543D01*
X279660Y444627D01*
X279761Y444692D01*
X279866Y444748D01*
X280026Y444862D01*
X280192Y444968D01*
X280284Y445045D01*
X280381Y445114D01*
X280570Y445284D01*
X280677Y445373D01*
X280717Y445416D01*
X280772Y445465D01*
X282035Y446728D01*
X282114Y446818D01*
X282200Y446901D01*
X282323Y447055D01*
X282453Y447203D01*
X282520Y447302D01*
X282594Y447395D01*
X282697Y447563D01*
X282807Y447726D01*
X282861Y447832D01*
X282924Y447934D01*
X283004Y448114D01*
X283093Y448290D01*
X283133Y448402D01*
X283182Y448511D01*
X283239Y448700D01*
X283306Y448885D01*
X283331Y449002D01*
X283366Y449116D01*
X283399Y449310D01*
X283441Y449503D01*
X283452Y449621D01*
X283472Y449739D01*
X283485Y449993D01*
X283498Y450132D01*
X283495Y450190D01*
X283499Y450263D01*
X283499Y650238D01*
X283481Y650521D01*
X283473Y650736D01*
X283465Y650790D01*
X283460Y650864D01*
X283459Y650866D01*
X283459Y650869D01*
X283404Y651157D01*
X283370Y651360D01*
X283356Y651409D01*
X283341Y651485D01*
X283341Y651487D01*
X283340Y651489D01*
X283246Y651777D01*
X283190Y651965D01*
X283170Y652011D01*
X283145Y652086D01*
X283144Y652088D01*
X283143Y652090D01*
X283010Y652371D01*
X282934Y652544D01*
X282909Y652584D01*
X282875Y652657D01*
X282874Y652659D01*
X282873Y652661D01*
X282702Y652928D01*
X282607Y653085D01*
X282579Y653121D01*
X282535Y653190D01*
X282533Y653192D01*
X282532Y653194D01*
X282333Y653432D01*
X282325Y653442D01*
X282215Y653580D01*
X282183Y653611D01*
X282130Y653675D01*
X282128Y653677D01*
X282127Y653679D01*
X281901Y653889D01*
X281886Y653902D01*
X281763Y654022D01*
X281729Y654048D01*
X281667Y654106D01*
X281665Y654107D01*
X281663Y654109D01*
X281417Y654286D01*
X281394Y654302D01*
X281259Y654404D01*
X281223Y654425D01*
X281154Y654475D01*
X281151Y654476D01*
X281150Y654477D01*
X280885Y654620D01*
X280856Y654636D01*
X280711Y654719D01*
X280672Y654735D01*
X280598Y654776D01*
X280596Y654776D01*
X280594Y654778D01*
X280292Y654894D01*
X280282Y654898D01*
X280128Y654962D01*
X280088Y654973D01*
X280009Y655004D01*
X280006Y655005D01*
X280004Y655005D01*
X279689Y655083D01*
X279681Y655085D01*
X279518Y655130D01*
X279477Y655136D01*
X279395Y655156D01*
X279393Y655157D01*
X279390Y655157D01*
X279076Y655194D01*
X279062Y655195D01*
X278893Y655220D01*
X278850Y655220D01*
X278767Y655230D01*
X278765Y655230D01*
X278763Y655230D01*
X278448Y655227D01*
X278434Y655227D01*
X278261Y655229D01*
X278217Y655225D01*
X278135Y655224D01*
X278133Y655223D01*
X278130Y655223D01*
X277820Y655180D01*
X277810Y655179D01*
X277633Y655159D01*
X277589Y655149D01*
X277509Y655138D01*
X277507Y655137D01*
X277504Y655137D01*
X277214Y655058D01*
X277197Y655054D01*
X277018Y655011D01*
X276975Y654994D01*
X276899Y654974D01*
X276896Y654973D01*
X276894Y654972D01*
X276622Y654860D01*
X276605Y654853D01*
X276428Y654786D01*
X276385Y654763D01*
X276314Y654734D01*
X276312Y654732D01*
X276310Y654732D01*
X276045Y654581D01*
X275870Y654488D01*
X275829Y654459D01*
X275764Y654422D01*
X275762Y654421D01*
X275760Y654419D01*
X275523Y654242D01*
X275354Y654122D01*
X275311Y654083D01*
X275258Y654043D01*
X275256Y654042D01*
X275254Y654040D01*
X275135Y653924D01*
X274964Y653771D01*
X264432Y643239D01*
X262043Y642249D01*
X217957Y642249D01*
X215568Y643239D01*
X205739Y653068D01*
X204749Y655457D01*
X204749Y671044D01*
X204742Y671163D01*
X204744Y671283D01*
X204722Y671479D01*
X204709Y671675D01*
X204687Y671792D01*
X204674Y671911D01*
X204627Y672102D01*
X204590Y672296D01*
X204553Y672409D01*
X204525Y672525D01*
X204455Y672709D01*
X204393Y672896D01*
X204342Y673005D01*
X204300Y673116D01*
X204207Y673289D01*
X204123Y673468D01*
X204058Y673568D01*
X204002Y673673D01*
X203888Y673834D01*
X203782Y674000D01*
X203705Y674092D01*
X203636Y674189D01*
X203466Y674378D01*
X203377Y674485D01*
X203334Y674524D01*
X203285Y674579D01*
X200228Y677636D01*
X198249Y682414D01*
X198249Y687586D01*
X200228Y692364D01*
X203886Y696022D01*
X208664Y698001D01*
X213836Y698001D01*
X218614Y696022D01*
X222272Y692364D01*
X224251Y687586D01*
X224251Y682414D01*
X222272Y677636D01*
X219215Y674579D01*
X219136Y674490D01*
X219050Y674407D01*
X218927Y674253D01*
X218797Y674105D01*
X218730Y674006D01*
X218656Y673913D01*
X218553Y673745D01*
X218443Y673582D01*
X218389Y673475D01*
X218326Y673373D01*
X218246Y673194D01*
X218157Y673018D01*
X218117Y672905D01*
X218068Y672796D01*
X218011Y672608D01*
X217944Y672422D01*
X217919Y672306D01*
X217884Y672192D01*
X217851Y671997D01*
X217809Y671805D01*
X217798Y671686D01*
X217778Y671568D01*
X217765Y671315D01*
X217752Y671175D01*
X217755Y671118D01*
X217751Y671044D01*
X217751Y661513D01*
X217758Y661394D01*
X217756Y661275D01*
X217778Y661079D01*
X217791Y660883D01*
X217813Y660766D01*
X217826Y660647D01*
X217873Y660455D01*
X217910Y660262D01*
X217947Y660148D01*
X217975Y660032D01*
X218045Y659849D01*
X218107Y659661D01*
X218158Y659553D01*
X218200Y659442D01*
X218293Y659268D01*
X218377Y659090D01*
X218442Y658989D01*
X218498Y658884D01*
X218612Y658724D01*
X218718Y658558D01*
X218795Y658466D01*
X218864Y658369D01*
X219034Y658180D01*
X219123Y658073D01*
X219166Y658033D01*
X219215Y657978D01*
X220478Y656715D01*
X220568Y656636D01*
X220651Y656550D01*
X220805Y656427D01*
X220953Y656297D01*
X221052Y656230D01*
X221145Y656156D01*
X221313Y656053D01*
X221476Y655943D01*
X221582Y655889D01*
X221684Y655826D01*
X221864Y655746D01*
X222040Y655657D01*
X222152Y655617D01*
X222261Y655568D01*
X222450Y655511D01*
X222635Y655444D01*
X222752Y655419D01*
X222866Y655384D01*
X223060Y655351D01*
X223253Y655309D01*
X223371Y655298D01*
X223489Y655278D01*
X223743Y655265D01*
X223882Y655252D01*
X223940Y655255D01*
X224013Y655251D01*
X233100Y655251D01*
X233285Y655262D01*
X233470Y655264D01*
X233600Y655282D01*
X233731Y655291D01*
X233912Y655326D01*
X234096Y655351D01*
X234222Y655385D01*
X234352Y655410D01*
X234528Y655468D01*
X234706Y655516D01*
X234827Y655566D01*
X234952Y655607D01*
X235120Y655686D01*
X235290Y655756D01*
X235405Y655821D01*
X235523Y655877D01*
X235679Y655977D01*
X235840Y656068D01*
X235945Y656147D01*
X236056Y656218D01*
X236198Y656337D01*
X236346Y656448D01*
X236440Y656539D01*
X236541Y656623D01*
X236667Y656759D01*
X236800Y656888D01*
X236882Y656990D01*
X236971Y657087D01*
X237079Y657237D01*
X237194Y657381D01*
X237263Y657494D01*
X237339Y657600D01*
X237427Y657763D01*
X237524Y657921D01*
X237577Y658041D01*
X237640Y658156D01*
X237706Y658329D01*
X237782Y658498D01*
X237820Y658623D01*
X237868Y658746D01*
X237912Y658926D01*
X237966Y659103D01*
X237988Y659232D01*
X238019Y659360D01*
X238041Y659543D01*
X238072Y659726D01*
X238080Y659879D01*
X238092Y659987D01*
X238091Y660096D01*
X238099Y660250D01*
X238099Y664786D01*
X240078Y669564D01*
X243135Y672621D01*
X243214Y672710D01*
X243300Y672793D01*
X243423Y672947D01*
X243553Y673095D01*
X243620Y673194D01*
X243694Y673287D01*
X243797Y673455D01*
X243907Y673618D01*
X243961Y673725D01*
X244024Y673827D01*
X244104Y674006D01*
X244193Y674182D01*
X244233Y674295D01*
X244282Y674404D01*
X244339Y674592D01*
X244406Y674778D01*
X244431Y674894D01*
X244466Y675008D01*
X244499Y675203D01*
X244541Y675395D01*
X244552Y675514D01*
X244572Y675632D01*
X244585Y675885D01*
X244598Y676025D01*
X244595Y676082D01*
X244599Y676156D01*
X244599Y706187D01*
X244592Y706306D01*
X244594Y706425D01*
X244572Y706621D01*
X244559Y706817D01*
X244537Y706934D01*
X244524Y707053D01*
X244477Y707245D01*
X244440Y707438D01*
X244403Y707552D01*
X244375Y707668D01*
X244305Y707851D01*
X244243Y708039D01*
X244192Y708147D01*
X244150Y708258D01*
X244057Y708432D01*
X243973Y708610D01*
X243908Y708711D01*
X243852Y708816D01*
X243738Y708976D01*
X243632Y709142D01*
X243555Y709234D01*
X243486Y709331D01*
X243316Y709520D01*
X243227Y709627D01*
X243184Y709667D01*
X243135Y709722D01*
X213872Y738985D01*
X213782Y739064D01*
X213699Y739150D01*
X213545Y739273D01*
X213397Y739403D01*
X213298Y739470D01*
X213205Y739544D01*
X213037Y739647D01*
X212874Y739757D01*
X212768Y739811D01*
X212666Y739874D01*
X212486Y739954D01*
X212310Y740043D01*
X212198Y740083D01*
X212089Y740132D01*
X211900Y740189D01*
X211715Y740256D01*
X211598Y740281D01*
X211484Y740316D01*
X211290Y740349D01*
X211097Y740391D01*
X210979Y740402D01*
X210861Y740422D01*
X210607Y740435D01*
X210468Y740448D01*
X210410Y740445D01*
X210337Y740449D01*
X206014Y740449D01*
X201236Y742428D01*
X197578Y746086D01*
X195599Y750864D01*
X195599Y756036D01*
X197578Y760814D01*
X201236Y764472D01*
X206014Y766451D01*
X211186Y766451D01*
X215964Y764472D01*
X219622Y760814D01*
X221601Y756036D01*
X221601Y751713D01*
X221608Y751594D01*
X221606Y751475D01*
X221628Y751279D01*
X221641Y751083D01*
X221663Y750966D01*
X221676Y750847D01*
X221723Y750655D01*
X221760Y750462D01*
X221797Y750348D01*
X221825Y750232D01*
X221895Y750049D01*
X221957Y749861D01*
X222008Y749753D01*
X222050Y749642D01*
X222143Y749468D01*
X222227Y749290D01*
X222292Y749189D01*
X222348Y749084D01*
X222462Y748924D01*
X222568Y748758D01*
X222645Y748666D01*
X222714Y748569D01*
X222884Y748380D01*
X222973Y748273D01*
X223016Y748233D01*
X223065Y748178D01*
X253715Y717528D01*
X253903Y717363D01*
X254087Y717192D01*
X254140Y717154D01*
X254189Y717111D01*
X254397Y716970D01*
X254600Y716824D01*
X254658Y716793D01*
X254713Y716756D01*
X254937Y716642D01*
X255156Y716524D01*
X255218Y716500D01*
X255276Y716470D01*
X255512Y716386D01*
X255746Y716296D01*
X255810Y716280D01*
X255872Y716258D01*
X256116Y716204D01*
X256360Y716144D01*
X256425Y716136D01*
X256489Y716122D01*
X256739Y716100D01*
X256987Y716071D01*
X257053Y716072D01*
X257119Y716066D01*
X257370Y716075D01*
X257620Y716078D01*
X257684Y716087D01*
X257750Y716089D01*
X257998Y716130D01*
X258246Y716164D01*
X258309Y716181D01*
X258374Y716192D01*
X258614Y716264D01*
X258856Y716329D01*
X258917Y716354D01*
X258980Y716373D01*
X259209Y716474D01*
X259440Y716570D01*
X259498Y716602D01*
X259558Y716629D01*
X259772Y716758D01*
X259990Y716882D01*
X260043Y716921D01*
X260099Y716955D01*
X260296Y717111D01*
X260496Y717261D01*
X260543Y717307D01*
X260595Y717348D01*
X260770Y717526D01*
X260950Y717701D01*
X260991Y717752D01*
X261037Y717799D01*
X261188Y717999D01*
X261344Y718195D01*
X261379Y718251D01*
X261418Y718303D01*
X261542Y718519D01*
X261674Y718734D01*
X261701Y718794D01*
X261733Y718851D01*
X261829Y719082D01*
X261932Y719311D01*
X261951Y719374D01*
X261977Y719435D01*
X262043Y719676D01*
X262116Y719916D01*
X262127Y719981D01*
X262144Y720044D01*
X262180Y720292D01*
X262222Y720539D01*
X262226Y720612D01*
X262234Y720670D01*
X262236Y720810D01*
X262249Y721063D01*
X262249Y865106D01*
X262235Y865323D01*
X262230Y865541D01*
X262216Y865638D01*
X262209Y865737D01*
X262168Y865950D01*
X262136Y866166D01*
X262109Y866261D01*
X262090Y866357D01*
X262022Y866564D01*
X261963Y866774D01*
X261924Y866864D01*
X261893Y866958D01*
X261800Y867155D01*
X261715Y867355D01*
X261665Y867440D01*
X261623Y867529D01*
X261505Y867713D01*
X261395Y867901D01*
X261335Y867979D01*
X261282Y868062D01*
X261142Y868229D01*
X261009Y868401D01*
X260940Y868471D01*
X260877Y868547D01*
X260717Y868695D01*
X260563Y868849D01*
X260486Y868910D01*
X260413Y868977D01*
X260237Y869104D01*
X260065Y869237D01*
X259980Y869288D01*
X259900Y869345D01*
X259708Y869449D01*
X259521Y869560D01*
X259430Y869599D01*
X259344Y869646D01*
X259140Y869724D01*
X258941Y869811D01*
X258846Y869838D01*
X258754Y869873D01*
X258542Y869926D01*
X258333Y869986D01*
X258236Y870002D01*
X258140Y870025D01*
X257925Y870050D01*
X257709Y870084D01*
X257610Y870087D01*
X257513Y870098D01*
X257295Y870096D01*
X257077Y870102D01*
X256979Y870092D01*
X256880Y870091D01*
X256665Y870062D01*
X256448Y870040D01*
X256352Y870018D01*
X256254Y870005D01*
X256044Y869948D01*
X255832Y869900D01*
X255726Y869862D01*
X255644Y869840D01*
X255525Y869791D01*
X255337Y869725D01*
X253586Y868999D01*
X248414Y868999D01*
X243636Y870978D01*
X239978Y874636D01*
X237999Y879414D01*
X237999Y884586D01*
X239978Y889364D01*
X243035Y892421D01*
X243114Y892510D01*
X243200Y892593D01*
X243323Y892747D01*
X243453Y892895D01*
X243520Y892994D01*
X243594Y893087D01*
X243697Y893255D01*
X243807Y893418D01*
X243861Y893525D01*
X243924Y893627D01*
X244004Y893806D01*
X244093Y893982D01*
X244133Y894095D01*
X244182Y894204D01*
X244239Y894392D01*
X244306Y894578D01*
X244331Y894694D01*
X244366Y894808D01*
X244399Y895003D01*
X244441Y895195D01*
X244452Y895314D01*
X244472Y895432D01*
X244485Y895685D01*
X244498Y895825D01*
X244495Y895882D01*
X244499Y895956D01*
X244499Y923237D01*
X244492Y923356D01*
X244494Y923475D01*
X244472Y923671D01*
X244459Y923867D01*
X244437Y923984D01*
X244424Y924103D01*
X244377Y924295D01*
X244340Y924488D01*
X244303Y924602D01*
X244275Y924718D01*
X244205Y924901D01*
X244143Y925089D01*
X244092Y925197D01*
X244050Y925308D01*
X243957Y925482D01*
X243873Y925660D01*
X243808Y925761D01*
X243752Y925866D01*
X243638Y926026D01*
X243532Y926192D01*
X243455Y926284D01*
X243386Y926381D01*
X243216Y926570D01*
X243127Y926677D01*
X243084Y926717D01*
X243035Y926772D01*
X226285Y943522D01*
X226097Y943687D01*
X225913Y943858D01*
X225860Y943896D01*
X225811Y943939D01*
X225603Y944080D01*
X225400Y944226D01*
X225342Y944257D01*
X225287Y944294D01*
X225063Y944408D01*
X224844Y944526D01*
X224782Y944550D01*
X224724Y944580D01*
X224488Y944664D01*
X224254Y944754D01*
X224190Y944770D01*
X224128Y944792D01*
X223884Y944846D01*
X223640Y944906D01*
X223575Y944914D01*
X223511Y944928D01*
X223261Y944950D01*
X223013Y944979D01*
X222947Y944978D01*
X222881Y944984D01*
X222630Y944975D01*
X222380Y944972D01*
X222316Y944963D01*
X222250Y944961D01*
X222002Y944920D01*
X221754Y944886D01*
X221691Y944869D01*
X221626Y944858D01*
X221386Y944786D01*
X221144Y944721D01*
X221083Y944696D01*
X221020Y944677D01*
X220791Y944576D01*
X220560Y944480D01*
X220502Y944448D01*
X220442Y944421D01*
X220228Y944292D01*
X220010Y944168D01*
X219957Y944129D01*
X219901Y944095D01*
X219705Y943939D01*
X219504Y943789D01*
X219457Y943743D01*
X219405Y943702D01*
X219230Y943524D01*
X219050Y943349D01*
X219009Y943298D01*
X218963Y943251D01*
X218813Y943051D01*
X218656Y942855D01*
X218621Y942799D01*
X218582Y942747D01*
X218457Y942530D01*
X218326Y942316D01*
X218299Y942255D01*
X218267Y942199D01*
X218171Y941968D01*
X218068Y941739D01*
X218049Y941676D01*
X218023Y941615D01*
X217957Y941374D01*
X217884Y941134D01*
X217873Y941069D01*
X217856Y941006D01*
X217820Y940758D01*
X217778Y940511D01*
X217774Y940438D01*
X217766Y940380D01*
X217764Y940240D01*
X217758Y940124D01*
X217758Y940122D01*
X217758Y940119D01*
X217751Y939987D01*
X217751Y922706D01*
X217758Y922587D01*
X217756Y922467D01*
X217778Y922271D01*
X217791Y922075D01*
X217813Y921958D01*
X217826Y921839D01*
X217873Y921648D01*
X217910Y921454D01*
X217947Y921341D01*
X217975Y921225D01*
X218045Y921041D01*
X218107Y920854D01*
X218158Y920745D01*
X218200Y920634D01*
X218293Y920461D01*
X218377Y920282D01*
X218442Y920182D01*
X218498Y920077D01*
X218612Y919916D01*
X218718Y919750D01*
X218795Y919658D01*
X218864Y919561D01*
X219034Y919372D01*
X219123Y919265D01*
X219166Y919226D01*
X219215Y919171D01*
X222272Y916114D01*
X224251Y911336D01*
X224251Y906164D01*
X222272Y901386D01*
X218614Y897728D01*
X213836Y895749D01*
X208664Y895749D01*
X203886Y897728D01*
X200228Y901386D01*
X198249Y906164D01*
X198249Y911336D01*
X200228Y916114D01*
X203285Y919171D01*
X203364Y919260D01*
X203450Y919343D01*
X203573Y919497D01*
X203703Y919645D01*
X203770Y919744D01*
X203844Y919837D01*
X203947Y920005D01*
X204057Y920168D01*
X204111Y920275D01*
X204174Y920377D01*
X204254Y920556D01*
X204343Y920732D01*
X204383Y920845D01*
X204432Y920954D01*
X204489Y921142D01*
X204556Y921328D01*
X204581Y921444D01*
X204616Y921558D01*
X204649Y921753D01*
X204691Y921945D01*
X204702Y922064D01*
X204722Y922182D01*
X204735Y922434D01*
X204748Y922575D01*
X204745Y922632D01*
X204749Y922706D01*
X204749Y942737D01*
X204742Y942855D01*
X204744Y942975D01*
X204722Y943171D01*
X204709Y943367D01*
X204687Y943484D01*
X204674Y943603D01*
X204627Y943795D01*
X204590Y943988D01*
X204553Y944102D01*
X204525Y944218D01*
X204455Y944401D01*
X204393Y944589D01*
X204342Y944697D01*
X204300Y944808D01*
X204207Y944982D01*
X204123Y945160D01*
X204058Y945261D01*
X204002Y945366D01*
X203888Y945526D01*
X203782Y945692D01*
X203705Y945784D01*
X203636Y945881D01*
X203466Y946070D01*
X203377Y946177D01*
X203334Y946217D01*
X203285Y946272D01*
X178239Y971318D01*
X177249Y973707D01*
X177249Y974794D01*
X177242Y974913D01*
X177244Y975033D01*
X177222Y975229D01*
X177209Y975425D01*
X177187Y975542D01*
X177174Y975661D01*
X177127Y975852D01*
X177090Y976046D01*
X177053Y976159D01*
X177025Y976275D01*
X176955Y976459D01*
X176893Y976646D01*
X176842Y976755D01*
X176800Y976866D01*
X176707Y977039D01*
X176623Y977218D01*
X176558Y977318D01*
X176502Y977423D01*
X176388Y977584D01*
X176282Y977750D01*
X176205Y977842D01*
X176136Y977939D01*
X175998Y978093D01*
X175993Y978100D01*
X175979Y978114D01*
X175966Y978128D01*
X175877Y978235D01*
X175834Y978274D01*
X175785Y978329D01*
X172728Y981386D01*
X170749Y986164D01*
X170749Y991336D01*
X172728Y996114D01*
X176386Y999772D01*
X181164Y1001751D01*
X186336Y1001751D01*
X191114Y999772D01*
X194772Y996114D01*
X196751Y991336D01*
X196751Y989308D01*
X196765Y989091D01*
X196770Y988873D01*
X196784Y988776D01*
X196791Y988678D01*
X196832Y988464D01*
X196864Y988248D01*
X196891Y988154D01*
X196910Y988057D01*
X196978Y987850D01*
X197037Y987640D01*
X197076Y987550D01*
X197107Y987456D01*
X197200Y987259D01*
X197285Y987059D01*
X197335Y986974D01*
X197377Y986885D01*
X197495Y986701D01*
X197605Y986514D01*
X197665Y986436D01*
X197718Y986353D01*
X197858Y986185D01*
X197991Y986013D01*
X198060Y985943D01*
X198123Y985867D01*
X198283Y985719D01*
X198437Y985565D01*
X198514Y985504D01*
X198587Y985437D01*
X198763Y985311D01*
X198935Y985177D01*
X199020Y985126D01*
X199100Y985069D01*
X199292Y984966D01*
X199479Y984855D01*
X199570Y984816D01*
X199656Y984769D01*
X199860Y984690D01*
X200059Y984604D01*
X200154Y984576D01*
X200246Y984541D01*
X200458Y984488D01*
X200667Y984428D01*
X200764Y984413D01*
X200860Y984389D01*
X201076Y984364D01*
X201291Y984330D01*
X201390Y984327D01*
X201487Y984316D01*
X201705Y984318D01*
X201923Y984312D01*
X202021Y984322D01*
X202120Y984323D01*
X202335Y984353D01*
X202552Y984374D01*
X202648Y984396D01*
X202746Y984409D01*
X202956Y984466D01*
X203168Y984515D01*
X203274Y984552D01*
X203356Y984574D01*
X203475Y984623D01*
X203663Y984690D01*
X204414Y985001D01*
X209586Y985001D01*
X214364Y983022D01*
X218022Y979364D01*
X220001Y974586D01*
X220001Y970263D01*
X220008Y970144D01*
X220006Y970025D01*
X220028Y969829D01*
X220041Y969633D01*
X220063Y969516D01*
X220076Y969397D01*
X220123Y969205D01*
X220160Y969012D01*
X220197Y968898D01*
X220225Y968782D01*
X220295Y968599D01*
X220357Y968411D01*
X220408Y968303D01*
X220450Y968192D01*
X220543Y968018D01*
X220627Y967840D01*
X220692Y967739D01*
X220748Y967634D01*
X220862Y967474D01*
X220968Y967308D01*
X221045Y967216D01*
X221114Y967119D01*
X221284Y966930D01*
X221373Y966823D01*
X221416Y966783D01*
X221465Y966728D01*
X253715Y934478D01*
X253903Y934313D01*
X254087Y934142D01*
X254140Y934104D01*
X254189Y934061D01*
X254397Y933920D01*
X254600Y933774D01*
X254658Y933743D01*
X254713Y933706D01*
X254937Y933592D01*
X255156Y933474D01*
X255218Y933450D01*
X255276Y933420D01*
X255512Y933336D01*
X255746Y933246D01*
X255810Y933230D01*
X255872Y933208D01*
X256116Y933154D01*
X256360Y933094D01*
X256425Y933086D01*
X256489Y933072D01*
X256739Y933050D01*
X256987Y933021D01*
X257053Y933022D01*
X257119Y933016D01*
X257370Y933025D01*
X257620Y933028D01*
X257684Y933037D01*
X257750Y933039D01*
X257998Y933080D01*
X258246Y933114D01*
X258309Y933131D01*
X258374Y933142D01*
X258614Y933214D01*
X258856Y933279D01*
X258917Y933304D01*
X258980Y933323D01*
X259209Y933424D01*
X259440Y933520D01*
X259498Y933552D01*
X259558Y933579D01*
X259772Y933708D01*
X259990Y933832D01*
X260043Y933871D01*
X260099Y933905D01*
X260296Y934061D01*
X260496Y934211D01*
X260543Y934257D01*
X260595Y934298D01*
X260770Y934476D01*
X260950Y934651D01*
X260991Y934702D01*
X261037Y934749D01*
X261188Y934949D01*
X261344Y935145D01*
X261379Y935201D01*
X261418Y935253D01*
X261543Y935470D01*
X261674Y935684D01*
X261701Y935744D01*
X261733Y935801D01*
X261829Y936032D01*
X261932Y936261D01*
X261951Y936324D01*
X261977Y936385D01*
X262043Y936626D01*
X262116Y936866D01*
X262127Y936931D01*
X262144Y936994D01*
X262180Y937242D01*
X262222Y937489D01*
X262226Y937562D01*
X262234Y937620D01*
X262236Y937760D01*
X262249Y938013D01*
X262249Y1061044D01*
X262242Y1061163D01*
X262244Y1061283D01*
X262222Y1061479D01*
X262209Y1061675D01*
X262187Y1061792D01*
X262174Y1061911D01*
X262127Y1062102D01*
X262090Y1062296D01*
X262053Y1062409D01*
X262025Y1062525D01*
X261955Y1062709D01*
X261893Y1062896D01*
X261842Y1063005D01*
X261800Y1063116D01*
X261707Y1063289D01*
X261623Y1063468D01*
X261558Y1063568D01*
X261502Y1063673D01*
X261388Y1063834D01*
X261282Y1064000D01*
X261205Y1064092D01*
X261136Y1064189D01*
X260966Y1064378D01*
X260877Y1064485D01*
X260834Y1064524D01*
X260785Y1064579D01*
X257728Y1067636D01*
X255749Y1072414D01*
X255749Y1077586D01*
X257728Y1082364D01*
X261386Y1086022D01*
X266164Y1088001D01*
X271336Y1088001D01*
X276173Y1085997D01*
X276216Y1085965D01*
X276314Y1085878D01*
X276423Y1085805D01*
X276501Y1085742D01*
X276547Y1085714D01*
X276615Y1085662D01*
X276729Y1085597D01*
X276838Y1085523D01*
X276966Y1085458D01*
X277040Y1085413D01*
X277081Y1085395D01*
X277163Y1085348D01*
X277284Y1085297D01*
X277401Y1085238D01*
X277548Y1085185D01*
X277617Y1085154D01*
X277651Y1085144D01*
X277746Y1085104D01*
X277873Y1085069D01*
X277997Y1085025D01*
X278160Y1084989D01*
X278222Y1084971D01*
X278247Y1084966D01*
X278356Y1084937D01*
X278486Y1084918D01*
X278614Y1084890D01*
X278792Y1084874D01*
X278845Y1084865D01*
X278864Y1084864D01*
X278982Y1084847D01*
X279113Y1084845D01*
X279244Y1084833D01*
X279362Y1084838D01*
X279369Y1084837D01*
X279381Y1084837D01*
X279421Y1084840D01*
X279429Y1084840D01*
X279614Y1084837D01*
X279744Y1084852D01*
X279875Y1084857D01*
X279993Y1084876D01*
X280012Y1084877D01*
X280066Y1084888D01*
X280242Y1084907D01*
X280370Y1084938D01*
X280499Y1084960D01*
X280605Y1084991D01*
X280632Y1084996D01*
X280695Y1085017D01*
X280856Y1085056D01*
X280979Y1085103D01*
X281105Y1085140D01*
X281198Y1085182D01*
X281233Y1085193D01*
X281303Y1085226D01*
X281447Y1085281D01*
X281563Y1085343D01*
X281683Y1085396D01*
X281762Y1085444D01*
X281804Y1085464D01*
X281880Y1085512D01*
X282004Y1085579D01*
X282111Y1085655D01*
X282224Y1085723D01*
X282289Y1085774D01*
X282337Y1085805D01*
X282415Y1085870D01*
X282520Y1085945D01*
X282579Y1085998D01*
X287414Y1088001D01*
X292586Y1088001D01*
X297364Y1086022D01*
X301022Y1082364D01*
X303001Y1077586D01*
X303001Y1072414D01*
X301022Y1067636D01*
X297965Y1064579D01*
X297886Y1064490D01*
X297800Y1064407D01*
X297677Y1064253D01*
X297547Y1064105D01*
X297480Y1064006D01*
X297406Y1063913D01*
X297303Y1063745D01*
X297193Y1063582D01*
X297139Y1063475D01*
X297076Y1063373D01*
X296996Y1063194D01*
X296907Y1063018D01*
X296867Y1062905D01*
X296818Y1062796D01*
X296761Y1062608D01*
X296694Y1062422D01*
X296669Y1062306D01*
X296634Y1062192D01*
X296601Y1061997D01*
X296559Y1061805D01*
X296548Y1061686D01*
X296528Y1061568D01*
X296515Y1061315D01*
X296502Y1061175D01*
X296505Y1061118D01*
X296501Y1061044D01*
X296501Y444207D01*
X295511Y441818D01*
X285682Y431989D01*
X283293Y430999D01*
X217957Y430999D01*
G37*
%LPD*%
%LPC*%
G36*
X2795063Y2152499D02*
X2795063Y2152499D01*
X2785525Y2155055D01*
X2776974Y2159992D01*
X2769992Y2166974D01*
X2765055Y2175525D01*
X2762499Y2185063D01*
X2762499Y2194937D01*
X2765055Y2204475D01*
X2769992Y2213026D01*
X2776974Y2220008D01*
X2785525Y2224945D01*
X2795063Y2227501D01*
X2804937Y2227501D01*
X2814475Y2224945D01*
X2823026Y2220008D01*
X2830008Y2213026D01*
X2834945Y2204475D01*
X2837501Y2194937D01*
X2837501Y2185063D01*
X2834945Y2175525D01*
X2830008Y2166974D01*
X2823026Y2159992D01*
X2814475Y2155055D01*
X2804937Y2152499D01*
X2795063Y2152499D01*
G37*
%LPD*%
%LPC*%
G36*
X2195063Y2152499D02*
X2195063Y2152499D01*
X2185525Y2155055D01*
X2176974Y2159992D01*
X2169992Y2166974D01*
X2165055Y2175525D01*
X2162499Y2185063D01*
X2162499Y2194937D01*
X2165055Y2204475D01*
X2169992Y2213026D01*
X2176974Y2220008D01*
X2185525Y2224945D01*
X2195063Y2227501D01*
X2204937Y2227501D01*
X2214475Y2224945D01*
X2223026Y2220008D01*
X2230008Y2213026D01*
X2234945Y2204475D01*
X2237501Y2194937D01*
X2237501Y2185063D01*
X2234945Y2175525D01*
X2230008Y2166974D01*
X2223026Y2159992D01*
X2214475Y2155055D01*
X2204937Y2152499D01*
X2195063Y2152499D01*
G37*
%LPD*%
%LPC*%
G36*
X1495063Y2152499D02*
X1495063Y2152499D01*
X1485525Y2155055D01*
X1476974Y2159992D01*
X1469992Y2166974D01*
X1465055Y2175525D01*
X1462499Y2185063D01*
X1462499Y2194937D01*
X1465055Y2204475D01*
X1469992Y2213026D01*
X1476974Y2220008D01*
X1485525Y2224945D01*
X1495063Y2227501D01*
X1504937Y2227501D01*
X1514475Y2224945D01*
X1523026Y2220008D01*
X1530008Y2213026D01*
X1534945Y2204475D01*
X1537501Y2194937D01*
X1537501Y2185063D01*
X1534945Y2175525D01*
X1530008Y2166974D01*
X1523026Y2159992D01*
X1514475Y2155055D01*
X1504937Y2152499D01*
X1495063Y2152499D01*
G37*
%LPD*%
%LPC*%
G36*
X795063Y2152499D02*
X795063Y2152499D01*
X785525Y2155055D01*
X776974Y2159992D01*
X769992Y2166974D01*
X765055Y2175525D01*
X762499Y2185063D01*
X762499Y2194937D01*
X765055Y2204475D01*
X769992Y2213026D01*
X776974Y2220008D01*
X785525Y2224945D01*
X795063Y2227501D01*
X804937Y2227501D01*
X814475Y2224945D01*
X823026Y2220008D01*
X830008Y2213026D01*
X834945Y2204475D01*
X837501Y2194937D01*
X837501Y2185063D01*
X834945Y2175525D01*
X830008Y2166974D01*
X823026Y2159992D01*
X814475Y2155055D01*
X804937Y2152499D01*
X795063Y2152499D01*
G37*
%LPD*%
%LPC*%
G36*
X195063Y2152499D02*
X195063Y2152499D01*
X185525Y2155055D01*
X176974Y2159992D01*
X169992Y2166974D01*
X165055Y2175525D01*
X162499Y2185063D01*
X162499Y2194937D01*
X165055Y2204475D01*
X169992Y2213026D01*
X176974Y2220008D01*
X185525Y2224945D01*
X195063Y2227501D01*
X204937Y2227501D01*
X214475Y2224945D01*
X223026Y2220008D01*
X230008Y2213026D01*
X234945Y2204475D01*
X237501Y2194937D01*
X237501Y2185063D01*
X234945Y2175525D01*
X230008Y2166974D01*
X223026Y2159992D01*
X214475Y2155055D01*
X204937Y2152499D01*
X195063Y2152499D01*
G37*
%LPD*%
%LPC*%
G36*
X2795063Y62499D02*
X2795063Y62499D01*
X2785525Y65055D01*
X2776974Y69992D01*
X2769992Y76974D01*
X2765055Y85525D01*
X2762499Y95063D01*
X2762499Y104937D01*
X2765055Y114475D01*
X2769992Y123026D01*
X2776974Y130008D01*
X2785525Y134945D01*
X2795063Y137501D01*
X2804937Y137501D01*
X2814475Y134945D01*
X2823026Y130008D01*
X2830008Y123026D01*
X2834945Y114475D01*
X2837501Y104937D01*
X2837501Y95063D01*
X2834945Y85525D01*
X2830008Y76974D01*
X2823026Y69992D01*
X2814475Y65055D01*
X2804937Y62499D01*
X2795063Y62499D01*
G37*
%LPD*%
%LPC*%
G36*
X195063Y62499D02*
X195063Y62499D01*
X185525Y65055D01*
X176974Y69992D01*
X169992Y76974D01*
X165055Y85525D01*
X162499Y95063D01*
X162499Y104937D01*
X165055Y114475D01*
X169992Y123026D01*
X176974Y130008D01*
X185525Y134945D01*
X195063Y137501D01*
X204937Y137501D01*
X214475Y134945D01*
X223026Y130008D01*
X230008Y123026D01*
X234945Y114475D01*
X237501Y104937D01*
X237501Y95063D01*
X234945Y85525D01*
X230008Y76974D01*
X223026Y69992D01*
X214475Y65055D01*
X204937Y62499D01*
X195063Y62499D01*
G37*
%LPD*%
%LPC*%
G36*
X2195063Y1107499D02*
X2195063Y1107499D01*
X2185525Y1110055D01*
X2176974Y1114992D01*
X2169992Y1121974D01*
X2165055Y1130525D01*
X2162499Y1140063D01*
X2162499Y1149937D01*
X2165055Y1159475D01*
X2169992Y1168026D01*
X2176974Y1175008D01*
X2185525Y1179945D01*
X2195063Y1182501D01*
X2204937Y1182501D01*
X2214475Y1179945D01*
X2223026Y1175008D01*
X2230008Y1168026D01*
X2234945Y1159475D01*
X2237501Y1149937D01*
X2237501Y1140063D01*
X2234945Y1130525D01*
X2230008Y1121974D01*
X2223026Y1114992D01*
X2214475Y1110055D01*
X2204937Y1107499D01*
X2195063Y1107499D01*
G37*
%LPD*%
%LPC*%
G36*
X795063Y1107499D02*
X795063Y1107499D01*
X785525Y1110055D01*
X776974Y1114992D01*
X769992Y1121974D01*
X765055Y1130525D01*
X762499Y1140063D01*
X762499Y1149937D01*
X765055Y1159475D01*
X769992Y1168026D01*
X776974Y1175008D01*
X785525Y1179945D01*
X795063Y1182501D01*
X804937Y1182501D01*
X814475Y1179945D01*
X823026Y1175008D01*
X830008Y1168026D01*
X834945Y1159475D01*
X837501Y1149937D01*
X837501Y1140063D01*
X834945Y1130525D01*
X830008Y1121974D01*
X823026Y1114992D01*
X814475Y1110055D01*
X804937Y1107499D01*
X795063Y1107499D01*
G37*
%LPD*%
%LPC*%
G36*
X795063Y62499D02*
X795063Y62499D01*
X785525Y65055D01*
X776974Y69992D01*
X769992Y76974D01*
X765055Y85525D01*
X762499Y95063D01*
X762499Y104937D01*
X765055Y114475D01*
X769992Y123026D01*
X776974Y130008D01*
X785525Y134945D01*
X795063Y137501D01*
X804937Y137501D01*
X814475Y134945D01*
X823026Y130008D01*
X830008Y123026D01*
X834945Y114475D01*
X837501Y104937D01*
X837501Y95063D01*
X834945Y85525D01*
X830008Y76974D01*
X823026Y69992D01*
X814475Y65055D01*
X804937Y62499D01*
X795063Y62499D01*
G37*
%LPD*%
%LPC*%
G36*
X1495063Y62499D02*
X1495063Y62499D01*
X1485525Y65055D01*
X1476974Y69992D01*
X1469992Y76974D01*
X1465055Y85525D01*
X1462499Y95063D01*
X1462499Y104937D01*
X1465055Y114475D01*
X1469992Y123026D01*
X1476974Y130008D01*
X1485525Y134945D01*
X1495063Y137501D01*
X1504937Y137501D01*
X1514475Y134945D01*
X1523026Y130008D01*
X1530008Y123026D01*
X1534945Y114475D01*
X1537501Y104937D01*
X1537501Y95063D01*
X1534945Y85525D01*
X1530008Y76974D01*
X1523026Y69992D01*
X1514475Y65055D01*
X1504937Y62499D01*
X1495063Y62499D01*
G37*
%LPD*%
%LPC*%
G36*
X2195063Y62499D02*
X2195063Y62499D01*
X2185525Y65055D01*
X2176974Y69992D01*
X2169992Y76974D01*
X2165055Y85525D01*
X2162499Y95063D01*
X2162499Y104937D01*
X2165055Y114475D01*
X2169992Y123026D01*
X2176974Y130008D01*
X2185525Y134945D01*
X2195063Y137501D01*
X2204937Y137501D01*
X2214475Y134945D01*
X2223026Y130008D01*
X2230008Y123026D01*
X2234945Y114475D01*
X2237501Y104937D01*
X2237501Y95063D01*
X2234945Y85525D01*
X2230008Y76974D01*
X2223026Y69992D01*
X2214475Y65055D01*
X2204937Y62499D01*
X2195063Y62499D01*
G37*
%LPD*%
%LPC*%
G36*
X248300Y1249799D02*
X248300Y1249799D01*
X222900Y1249799D01*
X197500Y1249799D01*
X172100Y1249799D01*
X151699Y1249799D01*
X151699Y1270200D01*
X151699Y1278852D01*
X154126Y1276425D01*
X154264Y1276303D01*
X154396Y1276174D01*
X154501Y1276094D01*
X154600Y1276008D01*
X154753Y1275904D01*
X154900Y1275792D01*
X155015Y1275727D01*
X155123Y1275653D01*
X155288Y1275570D01*
X155448Y1275477D01*
X155570Y1275427D01*
X155687Y1275367D01*
X155861Y1275305D01*
X156032Y1275234D01*
X156158Y1275199D01*
X156282Y1275155D01*
X156463Y1275115D01*
X156641Y1275066D01*
X156772Y1275048D01*
X156900Y1275019D01*
X157084Y1275003D01*
X157267Y1274977D01*
X157398Y1274975D01*
X157529Y1274963D01*
X157714Y1274970D01*
X157899Y1274967D01*
X158030Y1274981D01*
X158161Y1274986D01*
X158343Y1275016D01*
X158527Y1275037D01*
X158655Y1275068D01*
X158785Y1275089D01*
X158962Y1275142D01*
X159142Y1275186D01*
X159264Y1275232D01*
X159390Y1275270D01*
X159560Y1275345D01*
X159732Y1275411D01*
X159848Y1275472D01*
X159968Y1275526D01*
X160127Y1275621D01*
X160290Y1275708D01*
X160397Y1275784D01*
X160509Y1275852D01*
X160654Y1275967D01*
X160805Y1276074D01*
X160919Y1276177D01*
X161005Y1276245D01*
X161082Y1276323D01*
X161196Y1276425D01*
X167083Y1282313D01*
X177117Y1282313D01*
X181265Y1278165D01*
X181404Y1278043D01*
X181536Y1277913D01*
X181641Y1277834D01*
X181739Y1277747D01*
X181892Y1277643D01*
X182040Y1277532D01*
X182154Y1277466D01*
X182263Y1277393D01*
X182428Y1277309D01*
X182588Y1277217D01*
X182709Y1277166D01*
X182826Y1277107D01*
X183001Y1277045D01*
X183171Y1276973D01*
X183298Y1276939D01*
X183422Y1276894D01*
X183602Y1276855D01*
X183781Y1276806D01*
X183911Y1276787D01*
X184039Y1276759D01*
X184223Y1276742D01*
X184406Y1276716D01*
X184538Y1276714D01*
X184669Y1276702D01*
X184854Y1276709D01*
X185038Y1276706D01*
X185169Y1276721D01*
X185300Y1276726D01*
X185483Y1276756D01*
X185667Y1276776D01*
X185795Y1276807D01*
X185924Y1276829D01*
X186101Y1276882D01*
X186281Y1276925D01*
X186404Y1276972D01*
X186530Y1277010D01*
X186699Y1277084D01*
X186872Y1277150D01*
X186988Y1277212D01*
X187108Y1277265D01*
X187266Y1277361D01*
X187429Y1277448D01*
X187536Y1277524D01*
X187649Y1277592D01*
X187794Y1277707D01*
X187945Y1277814D01*
X188059Y1277917D01*
X188145Y1277984D01*
X188221Y1278062D01*
X188335Y1278165D01*
X192483Y1282313D01*
X202517Y1282313D01*
X206665Y1278165D01*
X206804Y1278043D01*
X206936Y1277913D01*
X207041Y1277834D01*
X207139Y1277747D01*
X207292Y1277643D01*
X207440Y1277532D01*
X207554Y1277466D01*
X207663Y1277393D01*
X207828Y1277309D01*
X207988Y1277217D01*
X208109Y1277166D01*
X208226Y1277107D01*
X208401Y1277045D01*
X208571Y1276973D01*
X208698Y1276939D01*
X208822Y1276894D01*
X209002Y1276855D01*
X209181Y1276806D01*
X209311Y1276787D01*
X209439Y1276759D01*
X209623Y1276742D01*
X209806Y1276716D01*
X209938Y1276714D01*
X210069Y1276702D01*
X210254Y1276709D01*
X210438Y1276706D01*
X210569Y1276721D01*
X210700Y1276726D01*
X210883Y1276756D01*
X211067Y1276776D01*
X211195Y1276807D01*
X211324Y1276829D01*
X211501Y1276882D01*
X211681Y1276925D01*
X211804Y1276972D01*
X211930Y1277010D01*
X212099Y1277084D01*
X212272Y1277150D01*
X212388Y1277212D01*
X212508Y1277265D01*
X212666Y1277361D01*
X212829Y1277448D01*
X212936Y1277524D01*
X213049Y1277592D01*
X213194Y1277707D01*
X213345Y1277814D01*
X213459Y1277917D01*
X213545Y1277984D01*
X213621Y1278062D01*
X213735Y1278165D01*
X217883Y1282313D01*
X227917Y1282313D01*
X232065Y1278165D01*
X232204Y1278043D01*
X232336Y1277913D01*
X232441Y1277834D01*
X232539Y1277747D01*
X232692Y1277643D01*
X232840Y1277532D01*
X232954Y1277466D01*
X233063Y1277393D01*
X233228Y1277309D01*
X233388Y1277217D01*
X233509Y1277166D01*
X233626Y1277107D01*
X233801Y1277045D01*
X233971Y1276973D01*
X234098Y1276939D01*
X234222Y1276894D01*
X234402Y1276855D01*
X234581Y1276806D01*
X234711Y1276787D01*
X234839Y1276759D01*
X235023Y1276742D01*
X235206Y1276716D01*
X235338Y1276714D01*
X235469Y1276702D01*
X235654Y1276709D01*
X235838Y1276706D01*
X235969Y1276721D01*
X236100Y1276726D01*
X236283Y1276756D01*
X236467Y1276776D01*
X236595Y1276807D01*
X236724Y1276829D01*
X236901Y1276882D01*
X237081Y1276925D01*
X237204Y1276972D01*
X237330Y1277010D01*
X237499Y1277084D01*
X237672Y1277150D01*
X237788Y1277212D01*
X237908Y1277265D01*
X238066Y1277361D01*
X238229Y1277448D01*
X238336Y1277524D01*
X238449Y1277592D01*
X238594Y1277707D01*
X238745Y1277814D01*
X238859Y1277917D01*
X238945Y1277984D01*
X239021Y1278062D01*
X239135Y1278165D01*
X243283Y1282313D01*
X253317Y1282313D01*
X260413Y1275217D01*
X260413Y1265183D01*
X254525Y1259296D01*
X254403Y1259157D01*
X254274Y1259025D01*
X254194Y1258920D01*
X254108Y1258821D01*
X254004Y1258668D01*
X253892Y1258521D01*
X253827Y1258406D01*
X253753Y1258298D01*
X253670Y1258133D01*
X253577Y1257973D01*
X253527Y1257851D01*
X253467Y1257734D01*
X253405Y1257560D01*
X253334Y1257389D01*
X253299Y1257263D01*
X253255Y1257139D01*
X253215Y1256958D01*
X253166Y1256780D01*
X253148Y1256650D01*
X253119Y1256521D01*
X253103Y1256337D01*
X253077Y1256154D01*
X253075Y1256023D01*
X253063Y1255892D01*
X253070Y1255707D01*
X253067Y1255522D01*
X253081Y1255392D01*
X253086Y1255260D01*
X253116Y1255078D01*
X253137Y1254894D01*
X253168Y1254766D01*
X253189Y1254637D01*
X253242Y1254459D01*
X253286Y1254279D01*
X253332Y1254157D01*
X253370Y1254031D01*
X253445Y1253862D01*
X253511Y1253689D01*
X253573Y1253573D01*
X253626Y1253453D01*
X253721Y1253294D01*
X253808Y1253131D01*
X253884Y1253024D01*
X253952Y1252912D01*
X254067Y1252767D01*
X254174Y1252616D01*
X254277Y1252501D01*
X254345Y1252416D01*
X254423Y1252340D01*
X254525Y1252226D01*
X256952Y1249799D01*
X248300Y1249799D01*
X248300Y1249799D01*
G37*
%LPD*%
%LPC*%
G36*
X248300Y1129799D02*
X248300Y1129799D01*
X222900Y1129799D01*
X197500Y1129799D01*
X172100Y1129799D01*
X151699Y1129799D01*
X151699Y1150200D01*
X151699Y1158852D01*
X154126Y1156425D01*
X154264Y1156303D01*
X154396Y1156174D01*
X154501Y1156094D01*
X154600Y1156008D01*
X154753Y1155904D01*
X154900Y1155792D01*
X155015Y1155727D01*
X155123Y1155653D01*
X155288Y1155570D01*
X155448Y1155477D01*
X155570Y1155427D01*
X155687Y1155367D01*
X155861Y1155305D01*
X156032Y1155234D01*
X156158Y1155199D01*
X156282Y1155155D01*
X156463Y1155115D01*
X156641Y1155066D01*
X156772Y1155048D01*
X156900Y1155019D01*
X157084Y1155003D01*
X157267Y1154977D01*
X157398Y1154975D01*
X157529Y1154963D01*
X157714Y1154970D01*
X157899Y1154967D01*
X158030Y1154981D01*
X158161Y1154986D01*
X158343Y1155016D01*
X158527Y1155037D01*
X158655Y1155068D01*
X158785Y1155089D01*
X158962Y1155142D01*
X159142Y1155186D01*
X159264Y1155232D01*
X159390Y1155270D01*
X159560Y1155345D01*
X159732Y1155411D01*
X159848Y1155472D01*
X159968Y1155526D01*
X160127Y1155621D01*
X160290Y1155708D01*
X160397Y1155784D01*
X160509Y1155852D01*
X160654Y1155967D01*
X160805Y1156074D01*
X160919Y1156177D01*
X161005Y1156245D01*
X161082Y1156323D01*
X161196Y1156425D01*
X167083Y1162313D01*
X177117Y1162313D01*
X181265Y1158165D01*
X181404Y1158043D01*
X181536Y1157913D01*
X181641Y1157834D01*
X181739Y1157747D01*
X181892Y1157643D01*
X182040Y1157532D01*
X182154Y1157466D01*
X182263Y1157393D01*
X182428Y1157309D01*
X182588Y1157217D01*
X182709Y1157166D01*
X182826Y1157107D01*
X183001Y1157045D01*
X183171Y1156973D01*
X183298Y1156939D01*
X183422Y1156894D01*
X183602Y1156855D01*
X183781Y1156806D01*
X183911Y1156787D01*
X184039Y1156759D01*
X184223Y1156742D01*
X184406Y1156716D01*
X184538Y1156714D01*
X184669Y1156702D01*
X184854Y1156709D01*
X185038Y1156706D01*
X185169Y1156721D01*
X185300Y1156726D01*
X185483Y1156756D01*
X185667Y1156776D01*
X185795Y1156807D01*
X185924Y1156829D01*
X186101Y1156882D01*
X186281Y1156925D01*
X186404Y1156972D01*
X186530Y1157010D01*
X186699Y1157084D01*
X186872Y1157150D01*
X186988Y1157212D01*
X187108Y1157265D01*
X187266Y1157361D01*
X187429Y1157448D01*
X187536Y1157524D01*
X187649Y1157592D01*
X187794Y1157707D01*
X187945Y1157814D01*
X188059Y1157917D01*
X188145Y1157984D01*
X188221Y1158062D01*
X188335Y1158165D01*
X192483Y1162313D01*
X202517Y1162313D01*
X206665Y1158165D01*
X206804Y1158043D01*
X206936Y1157913D01*
X207041Y1157834D01*
X207139Y1157747D01*
X207292Y1157643D01*
X207440Y1157532D01*
X207554Y1157466D01*
X207663Y1157393D01*
X207828Y1157309D01*
X207988Y1157217D01*
X208109Y1157166D01*
X208226Y1157107D01*
X208401Y1157045D01*
X208571Y1156973D01*
X208698Y1156939D01*
X208822Y1156894D01*
X209002Y1156855D01*
X209181Y1156806D01*
X209311Y1156787D01*
X209439Y1156759D01*
X209623Y1156742D01*
X209806Y1156716D01*
X209938Y1156714D01*
X210069Y1156702D01*
X210254Y1156709D01*
X210438Y1156706D01*
X210569Y1156721D01*
X210700Y1156726D01*
X210883Y1156756D01*
X211067Y1156776D01*
X211195Y1156807D01*
X211324Y1156829D01*
X211501Y1156882D01*
X211681Y1156925D01*
X211804Y1156972D01*
X211930Y1157010D01*
X212099Y1157084D01*
X212272Y1157150D01*
X212388Y1157212D01*
X212508Y1157265D01*
X212666Y1157361D01*
X212829Y1157448D01*
X212936Y1157524D01*
X213049Y1157592D01*
X213194Y1157707D01*
X213345Y1157814D01*
X213459Y1157917D01*
X213545Y1157984D01*
X213621Y1158062D01*
X213735Y1158165D01*
X217883Y1162313D01*
X227917Y1162313D01*
X232065Y1158165D01*
X232204Y1158043D01*
X232336Y1157913D01*
X232441Y1157834D01*
X232539Y1157747D01*
X232692Y1157643D01*
X232840Y1157532D01*
X232954Y1157466D01*
X233063Y1157393D01*
X233228Y1157309D01*
X233388Y1157217D01*
X233509Y1157166D01*
X233626Y1157107D01*
X233801Y1157045D01*
X233971Y1156973D01*
X234098Y1156939D01*
X234222Y1156894D01*
X234402Y1156855D01*
X234581Y1156806D01*
X234711Y1156787D01*
X234839Y1156759D01*
X235023Y1156742D01*
X235206Y1156716D01*
X235338Y1156714D01*
X235469Y1156702D01*
X235654Y1156709D01*
X235838Y1156706D01*
X235969Y1156721D01*
X236100Y1156726D01*
X236283Y1156756D01*
X236467Y1156776D01*
X236595Y1156807D01*
X236724Y1156829D01*
X236901Y1156882D01*
X237081Y1156925D01*
X237204Y1156972D01*
X237330Y1157010D01*
X237499Y1157084D01*
X237672Y1157150D01*
X237788Y1157212D01*
X237908Y1157265D01*
X238066Y1157361D01*
X238229Y1157448D01*
X238336Y1157524D01*
X238449Y1157592D01*
X238594Y1157707D01*
X238745Y1157814D01*
X238859Y1157917D01*
X238945Y1157984D01*
X239021Y1158062D01*
X239135Y1158165D01*
X243283Y1162313D01*
X253317Y1162313D01*
X260413Y1155217D01*
X260413Y1145183D01*
X254525Y1139296D01*
X254403Y1139157D01*
X254274Y1139025D01*
X254194Y1138920D01*
X254108Y1138821D01*
X254004Y1138668D01*
X253892Y1138521D01*
X253827Y1138406D01*
X253753Y1138298D01*
X253670Y1138133D01*
X253577Y1137973D01*
X253527Y1137851D01*
X253467Y1137734D01*
X253405Y1137560D01*
X253334Y1137389D01*
X253299Y1137263D01*
X253255Y1137139D01*
X253215Y1136958D01*
X253166Y1136780D01*
X253148Y1136650D01*
X253119Y1136521D01*
X253103Y1136337D01*
X253077Y1136154D01*
X253075Y1136023D01*
X253063Y1135892D01*
X253070Y1135707D01*
X253067Y1135522D01*
X253081Y1135392D01*
X253086Y1135260D01*
X253116Y1135078D01*
X253137Y1134894D01*
X253168Y1134766D01*
X253189Y1134637D01*
X253242Y1134459D01*
X253286Y1134279D01*
X253332Y1134157D01*
X253370Y1134031D01*
X253445Y1133862D01*
X253511Y1133689D01*
X253573Y1133573D01*
X253626Y1133453D01*
X253721Y1133294D01*
X253808Y1133131D01*
X253884Y1133024D01*
X253952Y1132912D01*
X254067Y1132767D01*
X254174Y1132616D01*
X254277Y1132501D01*
X254345Y1132416D01*
X254423Y1132340D01*
X254525Y1132226D01*
X256952Y1129799D01*
X248300Y1129799D01*
X248300Y1129799D01*
G37*
%LPD*%
%LPC*%
G36*
X249914Y1328249D02*
X249914Y1328249D01*
X245136Y1330228D01*
X241478Y1333886D01*
X239499Y1338664D01*
X239499Y1343836D01*
X241478Y1348614D01*
X244535Y1351671D01*
X244614Y1351760D01*
X244700Y1351843D01*
X244823Y1351997D01*
X244953Y1352145D01*
X245020Y1352244D01*
X245094Y1352337D01*
X245197Y1352505D01*
X245307Y1352668D01*
X245361Y1352775D01*
X245424Y1352877D01*
X245504Y1353057D01*
X245593Y1353232D01*
X245633Y1353344D01*
X245682Y1353454D01*
X245739Y1353642D01*
X245806Y1353828D01*
X245831Y1353944D01*
X245866Y1354058D01*
X245899Y1354253D01*
X245941Y1354445D01*
X245952Y1354564D01*
X245972Y1354681D01*
X245985Y1354935D01*
X245998Y1355074D01*
X245995Y1355132D01*
X245999Y1355206D01*
X245999Y1386487D01*
X245992Y1386606D01*
X245994Y1386725D01*
X245972Y1386921D01*
X245959Y1387117D01*
X245937Y1387234D01*
X245924Y1387353D01*
X245877Y1387545D01*
X245840Y1387738D01*
X245803Y1387852D01*
X245775Y1387968D01*
X245705Y1388151D01*
X245643Y1388339D01*
X245592Y1388447D01*
X245550Y1388558D01*
X245457Y1388732D01*
X245373Y1388910D01*
X245308Y1389011D01*
X245252Y1389116D01*
X245138Y1389276D01*
X245032Y1389442D01*
X244955Y1389534D01*
X244886Y1389631D01*
X244716Y1389820D01*
X244627Y1389927D01*
X244584Y1389967D01*
X244535Y1390022D01*
X212772Y1421785D01*
X212682Y1421864D01*
X212599Y1421950D01*
X212445Y1422073D01*
X212297Y1422203D01*
X212198Y1422270D01*
X212105Y1422344D01*
X211937Y1422447D01*
X211774Y1422557D01*
X211668Y1422611D01*
X211566Y1422674D01*
X211386Y1422754D01*
X211210Y1422843D01*
X211098Y1422883D01*
X210989Y1422932D01*
X210800Y1422989D01*
X210615Y1423056D01*
X210498Y1423081D01*
X210384Y1423116D01*
X210190Y1423149D01*
X209997Y1423191D01*
X209879Y1423202D01*
X209761Y1423222D01*
X209507Y1423235D01*
X209368Y1423248D01*
X209310Y1423245D01*
X209237Y1423249D01*
X204914Y1423249D01*
X200136Y1425228D01*
X196478Y1428886D01*
X194499Y1433664D01*
X194499Y1438836D01*
X196478Y1443614D01*
X200136Y1447272D01*
X204914Y1449251D01*
X210086Y1449251D01*
X214864Y1447272D01*
X218522Y1443614D01*
X220501Y1438836D01*
X220501Y1434513D01*
X220508Y1434394D01*
X220506Y1434275D01*
X220528Y1434079D01*
X220541Y1433883D01*
X220563Y1433766D01*
X220576Y1433647D01*
X220623Y1433455D01*
X220660Y1433262D01*
X220697Y1433148D01*
X220725Y1433032D01*
X220795Y1432849D01*
X220857Y1432661D01*
X220908Y1432553D01*
X220950Y1432442D01*
X221043Y1432268D01*
X221127Y1432090D01*
X221192Y1431989D01*
X221248Y1431884D01*
X221362Y1431724D01*
X221468Y1431558D01*
X221545Y1431466D01*
X221614Y1431369D01*
X221784Y1431180D01*
X221873Y1431073D01*
X221916Y1431033D01*
X221965Y1430978D01*
X258011Y1394932D01*
X259001Y1392543D01*
X259001Y1355206D01*
X259008Y1355087D01*
X259006Y1354967D01*
X259028Y1354771D01*
X259041Y1354575D01*
X259063Y1354458D01*
X259076Y1354339D01*
X259123Y1354148D01*
X259160Y1353954D01*
X259197Y1353841D01*
X259225Y1353725D01*
X259295Y1353541D01*
X259357Y1353353D01*
X259408Y1353246D01*
X259450Y1353134D01*
X259543Y1352961D01*
X259627Y1352782D01*
X259692Y1352682D01*
X259748Y1352577D01*
X259862Y1352416D01*
X259968Y1352250D01*
X260045Y1352158D01*
X260114Y1352061D01*
X260284Y1351872D01*
X260373Y1351765D01*
X260416Y1351726D01*
X260465Y1351671D01*
X263522Y1348614D01*
X265501Y1343836D01*
X265501Y1338664D01*
X263522Y1333886D01*
X259864Y1330228D01*
X255086Y1328249D01*
X249914Y1328249D01*
G37*
%LPD*%
%LPC*%
G36*
X208664Y1303249D02*
X208664Y1303249D01*
X203886Y1305228D01*
X200228Y1308886D01*
X198249Y1313664D01*
X198249Y1318836D01*
X200228Y1323614D01*
X203285Y1326671D01*
X203364Y1326760D01*
X203450Y1326843D01*
X203573Y1326997D01*
X203703Y1327145D01*
X203770Y1327244D01*
X203844Y1327337D01*
X203947Y1327505D01*
X204057Y1327668D01*
X204111Y1327775D01*
X204174Y1327877D01*
X204254Y1328056D01*
X204343Y1328232D01*
X204383Y1328345D01*
X204432Y1328454D01*
X204489Y1328642D01*
X204556Y1328828D01*
X204581Y1328944D01*
X204616Y1329058D01*
X204649Y1329253D01*
X204691Y1329445D01*
X204702Y1329564D01*
X204722Y1329682D01*
X204735Y1329934D01*
X204748Y1330075D01*
X204745Y1330132D01*
X204749Y1330206D01*
X204749Y1341044D01*
X204742Y1341163D01*
X204744Y1341283D01*
X204722Y1341479D01*
X204709Y1341675D01*
X204687Y1341792D01*
X204674Y1341911D01*
X204627Y1342102D01*
X204590Y1342296D01*
X204553Y1342409D01*
X204525Y1342525D01*
X204455Y1342709D01*
X204393Y1342896D01*
X204342Y1343005D01*
X204300Y1343116D01*
X204207Y1343289D01*
X204123Y1343468D01*
X204058Y1343568D01*
X204002Y1343673D01*
X203888Y1343834D01*
X203782Y1344000D01*
X203705Y1344092D01*
X203636Y1344189D01*
X203466Y1344378D01*
X203377Y1344485D01*
X203334Y1344524D01*
X203285Y1344579D01*
X200228Y1347636D01*
X198249Y1352414D01*
X198249Y1357586D01*
X200228Y1362364D01*
X203886Y1366022D01*
X208664Y1368001D01*
X213836Y1368001D01*
X218614Y1366022D01*
X222272Y1362364D01*
X224251Y1357586D01*
X224251Y1352414D01*
X222272Y1347636D01*
X219215Y1344579D01*
X219136Y1344490D01*
X219050Y1344407D01*
X218927Y1344253D01*
X218797Y1344105D01*
X218730Y1344006D01*
X218656Y1343913D01*
X218553Y1343745D01*
X218443Y1343582D01*
X218389Y1343475D01*
X218326Y1343373D01*
X218246Y1343194D01*
X218157Y1343018D01*
X218117Y1342905D01*
X218068Y1342796D01*
X218011Y1342608D01*
X217944Y1342422D01*
X217919Y1342306D01*
X217884Y1342192D01*
X217851Y1341997D01*
X217809Y1341805D01*
X217798Y1341686D01*
X217778Y1341568D01*
X217765Y1341315D01*
X217752Y1341175D01*
X217755Y1341118D01*
X217751Y1341044D01*
X217751Y1330206D01*
X217758Y1330087D01*
X217756Y1329967D01*
X217778Y1329771D01*
X217791Y1329575D01*
X217813Y1329458D01*
X217826Y1329339D01*
X217873Y1329148D01*
X217910Y1328954D01*
X217947Y1328841D01*
X217975Y1328725D01*
X218045Y1328541D01*
X218107Y1328354D01*
X218158Y1328245D01*
X218200Y1328134D01*
X218293Y1327961D01*
X218377Y1327782D01*
X218442Y1327682D01*
X218498Y1327577D01*
X218612Y1327416D01*
X218718Y1327250D01*
X218795Y1327158D01*
X218864Y1327061D01*
X219034Y1326872D01*
X219123Y1326765D01*
X219166Y1326726D01*
X219215Y1326671D01*
X222272Y1323614D01*
X224251Y1318836D01*
X224251Y1313664D01*
X222272Y1308886D01*
X218614Y1305228D01*
X213836Y1303249D01*
X208664Y1303249D01*
G37*
%LPD*%
%LPC*%
G36*
X52016Y209999D02*
X52016Y209999D01*
X46503Y212283D01*
X42272Y216513D01*
X42236Y216616D01*
X39999Y222016D01*
X39999Y227984D01*
X42283Y233497D01*
X46503Y237717D01*
X52016Y240001D01*
X57984Y240001D01*
X63497Y237717D01*
X68210Y233004D01*
X68358Y232874D01*
X68499Y232737D01*
X68595Y232665D01*
X68685Y232586D01*
X68848Y232476D01*
X69005Y232358D01*
X69109Y232298D01*
X69208Y232231D01*
X69384Y232142D01*
X69555Y232045D01*
X69665Y232000D01*
X69772Y231946D01*
X69957Y231880D01*
X70139Y231805D01*
X70255Y231773D01*
X70367Y231733D01*
X70559Y231691D01*
X70749Y231640D01*
X70868Y231623D01*
X70985Y231598D01*
X71180Y231580D01*
X71376Y231553D01*
X71495Y231552D01*
X71614Y231541D01*
X71811Y231549D01*
X72008Y231546D01*
X72126Y231560D01*
X72246Y231565D01*
X72440Y231597D01*
X72635Y231619D01*
X72752Y231648D01*
X72869Y231668D01*
X73058Y231724D01*
X73249Y231771D01*
X73361Y231814D01*
X73475Y231848D01*
X73655Y231928D01*
X73839Y231999D01*
X73944Y232056D01*
X74053Y232104D01*
X74221Y232206D01*
X74395Y232299D01*
X74492Y232369D01*
X74594Y232431D01*
X74749Y232553D01*
X74909Y232668D01*
X74996Y232749D01*
X75090Y232823D01*
X75228Y232964D01*
X75372Y233098D01*
X75427Y233162D01*
X76714Y234449D01*
X78018Y235450D01*
X79441Y236272D01*
X80001Y236503D01*
X80001Y225000D01*
X80001Y213497D01*
X79441Y213728D01*
X78018Y214550D01*
X76714Y215551D01*
X75469Y216795D01*
X75461Y216806D01*
X75376Y216889D01*
X75297Y216979D01*
X75150Y217110D01*
X75009Y217248D01*
X74914Y217320D01*
X74825Y217399D01*
X74662Y217511D01*
X74506Y217629D01*
X74402Y217689D01*
X74303Y217756D01*
X74128Y217846D01*
X73958Y217944D01*
X73847Y217990D01*
X73741Y218045D01*
X73556Y218112D01*
X73374Y218188D01*
X73259Y218219D01*
X73147Y218260D01*
X72955Y218303D01*
X72765Y218355D01*
X72646Y218372D01*
X72530Y218399D01*
X72334Y218417D01*
X72139Y218445D01*
X72019Y218447D01*
X71900Y218458D01*
X71704Y218452D01*
X71507Y218455D01*
X71388Y218441D01*
X71269Y218438D01*
X71075Y218407D01*
X70879Y218385D01*
X70762Y218357D01*
X70645Y218338D01*
X70456Y218282D01*
X70264Y218236D01*
X70153Y218193D01*
X70038Y218160D01*
X69858Y218081D01*
X69674Y218011D01*
X69568Y217955D01*
X69459Y217907D01*
X69290Y217806D01*
X69116Y217713D01*
X69019Y217644D01*
X68916Y217583D01*
X68761Y217461D01*
X68601Y217347D01*
X68498Y217255D01*
X68419Y217193D01*
X68336Y217110D01*
X68210Y216996D01*
X63497Y212283D01*
X57984Y209999D01*
X52016Y209999D01*
G37*
%LPD*%
%LPC*%
G36*
X52016Y399999D02*
X52016Y399999D01*
X46503Y402283D01*
X42272Y406513D01*
X42236Y406616D01*
X39999Y412016D01*
X39999Y417984D01*
X42283Y423497D01*
X46503Y427717D01*
X52016Y430001D01*
X57984Y430001D01*
X63497Y427717D01*
X68210Y423004D01*
X68357Y422874D01*
X68498Y422738D01*
X68594Y422666D01*
X68685Y422586D01*
X68847Y422476D01*
X69003Y422359D01*
X69108Y422299D01*
X69208Y422231D01*
X69383Y422143D01*
X69553Y422046D01*
X69664Y422000D01*
X69772Y421946D01*
X69957Y421880D01*
X70137Y421805D01*
X70254Y421774D01*
X70367Y421733D01*
X70558Y421691D01*
X70748Y421640D01*
X70867Y421624D01*
X70985Y421598D01*
X71179Y421580D01*
X71374Y421553D01*
X71494Y421552D01*
X71614Y421541D01*
X71810Y421549D01*
X72006Y421546D01*
X72125Y421560D01*
X72246Y421565D01*
X72439Y421597D01*
X72634Y421619D01*
X72750Y421648D01*
X72869Y421668D01*
X73057Y421724D01*
X73247Y421771D01*
X73359Y421814D01*
X73475Y421848D01*
X73655Y421928D01*
X73837Y421998D01*
X73943Y422055D01*
X74053Y422104D01*
X74221Y422205D01*
X74393Y422298D01*
X74491Y422368D01*
X74594Y422431D01*
X74748Y422552D01*
X74907Y422666D01*
X74995Y422748D01*
X75090Y422823D01*
X75227Y422963D01*
X75370Y423096D01*
X75426Y423162D01*
X76714Y424449D01*
X78018Y425450D01*
X79441Y426272D01*
X80001Y426503D01*
X80001Y415000D01*
X80001Y403497D01*
X79441Y403728D01*
X78018Y404550D01*
X76714Y405551D01*
X75469Y406796D01*
X75461Y406806D01*
X75375Y406890D01*
X75296Y406981D01*
X75150Y407111D01*
X75009Y407248D01*
X74913Y407321D01*
X74823Y407401D01*
X74662Y407511D01*
X74506Y407629D01*
X74401Y407689D01*
X74302Y407757D01*
X74127Y407847D01*
X73957Y407944D01*
X73846Y407991D01*
X73739Y408046D01*
X73555Y408112D01*
X73374Y408188D01*
X73258Y408220D01*
X73145Y408261D01*
X72954Y408303D01*
X72765Y408355D01*
X72645Y408373D01*
X72528Y408399D01*
X72333Y408417D01*
X72139Y408445D01*
X72018Y408447D01*
X71899Y408458D01*
X71703Y408452D01*
X71507Y408455D01*
X71387Y408441D01*
X71267Y408437D01*
X71074Y408406D01*
X70879Y408385D01*
X70762Y408356D01*
X70643Y408337D01*
X70455Y408282D01*
X70264Y408236D01*
X70152Y408193D01*
X70036Y408159D01*
X69857Y408081D01*
X69674Y408011D01*
X69568Y407954D01*
X69457Y407906D01*
X69289Y407805D01*
X69116Y407713D01*
X69018Y407644D01*
X68914Y407582D01*
X68760Y407461D01*
X68601Y407347D01*
X68497Y407254D01*
X68417Y407192D01*
X68335Y407109D01*
X68210Y406996D01*
X63497Y402283D01*
X57984Y399999D01*
X52016Y399999D01*
G37*
%LPD*%
%LPC*%
G36*
X22911Y194899D02*
X22911Y194899D01*
X19052Y196498D01*
X16098Y199452D01*
X14499Y203311D01*
X14499Y207489D01*
X16098Y211348D01*
X19052Y214302D01*
X22911Y215901D01*
X27089Y215901D01*
X30948Y214302D01*
X33913Y211338D01*
X33949Y211235D01*
X35501Y207489D01*
X35501Y203311D01*
X33902Y199452D01*
X30948Y196498D01*
X27089Y194899D01*
X22911Y194899D01*
G37*
%LPD*%
%LPC*%
G36*
X22911Y384899D02*
X22911Y384899D01*
X19052Y386498D01*
X16098Y389452D01*
X14499Y393311D01*
X14499Y397489D01*
X16098Y401348D01*
X19052Y404302D01*
X22911Y405901D01*
X27089Y405901D01*
X30948Y404302D01*
X33913Y401338D01*
X33949Y401235D01*
X35501Y397489D01*
X35501Y393311D01*
X33902Y389452D01*
X30948Y386498D01*
X27089Y384899D01*
X22911Y384899D01*
G37*
%LPD*%
%LPC*%
G36*
X112911Y194899D02*
X112911Y194899D01*
X109052Y196498D01*
X106098Y199452D01*
X104499Y203311D01*
X104499Y207489D01*
X106098Y211348D01*
X109052Y214302D01*
X112911Y215901D01*
X117089Y215901D01*
X120948Y214302D01*
X123902Y211348D01*
X125501Y207489D01*
X125501Y203311D01*
X123902Y199452D01*
X120948Y196498D01*
X117089Y194899D01*
X112911Y194899D01*
G37*
%LPD*%
%LPC*%
G36*
X112911Y384899D02*
X112911Y384899D01*
X109052Y386498D01*
X106098Y389452D01*
X104499Y393311D01*
X104499Y397489D01*
X106098Y401348D01*
X109052Y404302D01*
X112911Y405901D01*
X117089Y405901D01*
X120948Y404302D01*
X123902Y401348D01*
X125501Y397489D01*
X125501Y393311D01*
X123902Y389452D01*
X120948Y386498D01*
X117089Y384899D01*
X112911Y384899D01*
G37*
%LPD*%
%LPC*%
G36*
X89999Y419999D02*
X89999Y419999D01*
X89999Y426503D01*
X90559Y426272D01*
X91982Y425450D01*
X93286Y424449D01*
X94449Y423286D01*
X95450Y421982D01*
X96272Y420559D01*
X96503Y419999D01*
X89999Y419999D01*
G37*
%LPD*%
%LPC*%
G36*
X89999Y229999D02*
X89999Y229999D01*
X89999Y236503D01*
X90559Y236272D01*
X91982Y235450D01*
X93286Y234449D01*
X94449Y233286D01*
X95450Y231982D01*
X96272Y230559D01*
X96503Y229999D01*
X89999Y229999D01*
G37*
%LPD*%
%LPC*%
G36*
X89999Y220001D02*
X89999Y220001D01*
X96503Y220001D01*
X96272Y219441D01*
X95450Y218018D01*
X94449Y216714D01*
X93286Y215551D01*
X91982Y214550D01*
X90559Y213728D01*
X89999Y213497D01*
X89999Y220001D01*
G37*
%LPD*%
%LPC*%
G36*
X89999Y410001D02*
X89999Y410001D01*
X96503Y410001D01*
X96272Y409441D01*
X95450Y408018D01*
X94449Y406714D01*
X93286Y405551D01*
X91982Y404550D01*
X90559Y403728D01*
X89999Y403497D01*
X89999Y410001D01*
G37*
%LPD*%
%LPC*%
G36*
X202499Y1119801D02*
X202499Y1119801D01*
X206152Y1119801D01*
X202499Y1116148D01*
X202499Y1119801D01*
G37*
%LPD*%
%LPC*%
G36*
X151699Y1239801D02*
X151699Y1239801D01*
X155352Y1239801D01*
X151699Y1236148D01*
X151699Y1239801D01*
G37*
%LPD*%
%LPC*%
G36*
X253299Y1239801D02*
X253299Y1239801D01*
X256952Y1239801D01*
X253299Y1236148D01*
X253299Y1239801D01*
G37*
%LPD*%
%LPC*%
G36*
X227899Y1239801D02*
X227899Y1239801D01*
X231552Y1239801D01*
X227899Y1236148D01*
X227899Y1239801D01*
G37*
%LPD*%
%LPC*%
G36*
X177099Y1239801D02*
X177099Y1239801D01*
X180752Y1239801D01*
X177099Y1236148D01*
X177099Y1239801D01*
G37*
%LPD*%
%LPC*%
G36*
X202499Y1239801D02*
X202499Y1239801D01*
X206152Y1239801D01*
X202499Y1236148D01*
X202499Y1239801D01*
G37*
%LPD*%
%LPC*%
G36*
X151699Y1119801D02*
X151699Y1119801D01*
X155352Y1119801D01*
X151699Y1116148D01*
X151699Y1119801D01*
G37*
%LPD*%
%LPC*%
G36*
X253299Y1119801D02*
X253299Y1119801D01*
X256952Y1119801D01*
X253299Y1116148D01*
X253299Y1119801D01*
G37*
%LPD*%
%LPC*%
G36*
X177099Y1119801D02*
X177099Y1119801D01*
X180752Y1119801D01*
X177099Y1116148D01*
X177099Y1119801D01*
G37*
%LPD*%
%LPC*%
G36*
X138048Y1275199D02*
X138048Y1275199D01*
X141701Y1278852D01*
X141701Y1275199D01*
X138048Y1275199D01*
G37*
%LPD*%
%LPC*%
G36*
X138048Y1155199D02*
X138048Y1155199D01*
X141701Y1158852D01*
X141701Y1155199D01*
X138048Y1155199D01*
G37*
%LPD*%
%LPC*%
G36*
X138048Y1249799D02*
X138048Y1249799D01*
X141701Y1253452D01*
X141701Y1249799D01*
X138048Y1249799D01*
G37*
%LPD*%
%LPC*%
G36*
X138048Y1129799D02*
X138048Y1129799D01*
X141701Y1133452D01*
X141701Y1129799D01*
X138048Y1129799D01*
G37*
%LPD*%
%LPC*%
G36*
X227899Y1119801D02*
X227899Y1119801D01*
X231552Y1119801D01*
X227899Y1116148D01*
X227899Y1119801D01*
G37*
%LPD*%
%LPC*%
G36*
X138048Y1265201D02*
X138048Y1265201D01*
X141701Y1265201D01*
X141701Y1261548D01*
X138048Y1265201D01*
G37*
%LPD*%
%LPC*%
G36*
X239648Y1119801D02*
X239648Y1119801D01*
X243301Y1119801D01*
X243301Y1116148D01*
X239648Y1119801D01*
G37*
%LPD*%
%LPC*%
G36*
X138048Y1239801D02*
X138048Y1239801D01*
X141701Y1239801D01*
X141701Y1236148D01*
X138048Y1239801D01*
G37*
%LPD*%
%LPC*%
G36*
X138048Y1119801D02*
X138048Y1119801D01*
X141701Y1119801D01*
X141701Y1116148D01*
X138048Y1119801D01*
G37*
%LPD*%
%LPC*%
G36*
X138048Y1145201D02*
X138048Y1145201D01*
X141701Y1145201D01*
X141701Y1141548D01*
X138048Y1145201D01*
G37*
%LPD*%
%LPC*%
G36*
X239648Y1239801D02*
X239648Y1239801D01*
X243301Y1239801D01*
X243301Y1236148D01*
X239648Y1239801D01*
G37*
%LPD*%
%LPC*%
G36*
X163448Y1239801D02*
X163448Y1239801D01*
X167101Y1239801D01*
X167101Y1236148D01*
X163448Y1239801D01*
G37*
%LPD*%
%LPC*%
G36*
X163448Y1119801D02*
X163448Y1119801D01*
X167101Y1119801D01*
X167101Y1116148D01*
X163448Y1119801D01*
G37*
%LPD*%
%LPC*%
G36*
X188848Y1119801D02*
X188848Y1119801D01*
X192501Y1119801D01*
X192501Y1116148D01*
X188848Y1119801D01*
G37*
%LPD*%
%LPC*%
G36*
X188848Y1239801D02*
X188848Y1239801D01*
X192501Y1239801D01*
X192501Y1236148D01*
X188848Y1239801D01*
G37*
%LPD*%
%LPC*%
G36*
X214248Y1119801D02*
X214248Y1119801D01*
X217901Y1119801D01*
X217901Y1116148D01*
X214248Y1119801D01*
G37*
%LPD*%
%LPC*%
G36*
X214248Y1239801D02*
X214248Y1239801D01*
X217901Y1239801D01*
X217901Y1236148D01*
X214248Y1239801D01*
G37*
%LPD*%
D10*
X248300Y1244800D03*
X248300Y1270200D03*
X222900Y1244800D03*
X222900Y1270200D03*
X197500Y1244800D03*
X197500Y1270200D03*
X172100Y1244800D03*
X172100Y1270200D03*
X146700Y1244800D03*
X146700Y1270200D03*
X248300Y1124800D03*
X248300Y1150200D03*
X222900Y1124800D03*
X222900Y1150200D03*
X197500Y1124800D03*
X197500Y1150200D03*
X172100Y1124800D03*
X172100Y1150200D03*
X146700Y1124800D03*
X146700Y1150200D03*
D11*
X85000Y415000D03*
X55000Y415000D03*
X85000Y225000D03*
X55000Y225000D03*
D12*
X232500Y487500D03*
X232500Y697500D03*
X232500Y930000D03*
X232550Y1374550D03*
X92500Y1377500D03*
X122500Y1377500D03*
X155000Y1377500D03*
X90000Y917500D03*
X122500Y917500D03*
X155000Y917500D03*
X180000Y1385000D03*
X90000Y700000D03*
X122500Y700000D03*
X155000Y700000D03*
X180000Y705000D03*
X180000Y495000D03*
X157500Y487500D03*
X122500Y487500D03*
X92500Y487500D03*
X152500Y1197500D03*
X277500Y1197500D03*
X140000Y440000D03*
X90000Y380000D03*
X140000Y380000D03*
X140000Y330000D03*
X152500Y1312500D03*
X282500Y1312500D03*
X152500Y1067500D03*
X177500Y925000D03*
X90000Y330000D03*
X140000Y280000D03*
X90000Y280000D03*
X251000Y882000D03*
D13*
X251000Y928000D01*
X207000Y972000D01*
D12*
X207000Y972000D03*
X250800Y452200D03*
X208300Y543450D03*
D13*
X250800Y500950D02*
X250800Y452200D01*
X250800Y500950D02*
X208300Y543450D01*
D12*
X340000Y550000D03*
D14*
X375355Y585355D01*
X375355Y585356D02*
X376187Y586207D01*
X376998Y587078D01*
X377787Y587968D01*
X378556Y588876D01*
X379303Y589803D01*
X380027Y590747D01*
X380729Y591708D01*
X381407Y592686D01*
X382063Y593679D01*
X382694Y594688D01*
X383301Y595711D01*
X383884Y596749D01*
X384442Y597800D01*
X384974Y598864D01*
X385482Y599940D01*
X385963Y601028D01*
X386418Y602128D01*
X386847Y603238D01*
X387250Y604358D01*
X387626Y605487D01*
X387975Y606624D01*
X388296Y607770D01*
X388591Y608923D01*
X388857Y610083D01*
X389096Y611248D01*
X389308Y612420D01*
X389491Y613595D01*
X389646Y614775D01*
X389774Y615958D01*
X389873Y617144D01*
X389943Y618332D01*
X389986Y619521D01*
X390000Y620711D01*
X390000Y1780000D01*
D12*
X390000Y1780000D03*
X251100Y662200D03*
X208600Y753450D03*
D13*
X251100Y710950D02*
X251100Y662200D01*
X251100Y710950D02*
X208600Y753450D01*
D12*
X340000Y760000D03*
D14*
X340000Y1660000D01*
D12*
X340000Y1660000D03*
X252500Y1341250D03*
D13*
X252500Y1391250D01*
X207500Y1436250D01*
D12*
X207500Y1436250D03*
X211250Y908750D03*
D13*
X211250Y947500D01*
X183750Y975000D01*
X183750Y988750D01*
D12*
X183750Y988750D03*
X211250Y473750D03*
D13*
X211250Y445500D01*
X219250Y437500D01*
X282000Y437500D01*
X290000Y445500D01*
X290000Y1075000D01*
D12*
X290000Y1075000D03*
X211250Y685000D03*
D13*
X211250Y656750D01*
X219250Y648750D01*
X260750Y648750D01*
X268750Y656750D01*
X268750Y1075000D01*
D12*
X268750Y1075000D03*
X211250Y1355000D03*
D13*
X211250Y1316250D01*
D12*
X211250Y1316250D03*
D15*
X200000Y2190000D03*
X200000Y100000D03*
X2800000Y2190000D03*
X2800000Y100000D03*
X1500000Y100000D03*
X1500000Y2190000D03*
X800000Y1145000D03*
X800000Y2190000D03*
X800000Y100000D03*
X2200000Y1145000D03*
X2200000Y2190000D03*
X2200000Y100000D03*
M02*
