G04 EAGLE Gerber RS-274X export*
G75*
%MOMM*%
%FSLAX34Y34*%
%LPD*%
%INSoldermask Top*%
%IPPOS*%
%AMOC8*
5,1,8,0,0,1.08239X$1,22.5*%
G01*
%ADD10C,0.293938*%
%ADD11R,1.703200X3.703200*%
%ADD12R,0.903200X3.703200*%
%ADD13R,1.203200X2.903200*%
%ADD14R,0.703200X2.903200*%
%ADD15R,3.003200X1.203200*%
%ADD16R,3.003200X0.753200*%
%ADD17P,1.759533X8X202.500000*%
%ADD18R,1.603200X1.303200*%
%ADD19R,0.753200X1.403200*%
%ADD20R,1.219200X1.168400*%
%ADD21R,1.727200X1.346200*%
%ADD22R,2.903200X1.803200*%
%ADD23R,3.003200X1.603200*%
%ADD24R,1.803200X2.006200*%
%ADD25R,1.983200X3.763200*%
%ADD26C,2.203200*%
%ADD27C,1.303200*%
%ADD28C,1.803200*%
%ADD29C,6.703200*%


D10*
X1541703Y1142703D02*
X1541703Y1146297D01*
X1558297Y1146297D01*
X1558297Y1142703D01*
X1541703Y1142703D01*
X1541703Y1145495D02*
X1558297Y1145495D01*
X1541703Y1137297D02*
X1541703Y1133703D01*
X1541703Y1137297D02*
X1558297Y1137297D01*
X1558297Y1133703D01*
X1541703Y1133703D01*
X1541703Y1136495D02*
X1558297Y1136495D01*
D11*
X500000Y1780000D03*
D12*
X486000Y1780000D03*
X514000Y1780000D03*
D11*
X1500000Y1780000D03*
D12*
X1486000Y1780000D03*
X1514000Y1780000D03*
D11*
X2500000Y1780000D03*
D12*
X2486000Y1780000D03*
X2514000Y1780000D03*
D11*
X2500000Y510000D03*
D12*
X2514000Y510000D03*
X2486000Y510000D03*
D11*
X1500000Y510000D03*
D12*
X1514000Y510000D03*
X1486000Y510000D03*
D13*
X500000Y1660000D03*
D14*
X489000Y1660000D03*
X511000Y1660000D03*
D13*
X1500000Y1660000D03*
D14*
X1489000Y1660000D03*
X1511000Y1660000D03*
D13*
X2500000Y1660000D03*
D14*
X2489000Y1660000D03*
X2511000Y1660000D03*
D13*
X2500000Y630000D03*
D14*
X2511000Y630000D03*
X2489000Y630000D03*
D13*
X1500000Y630000D03*
D14*
X1511000Y630000D03*
X1489000Y630000D03*
D13*
X500000Y630000D03*
D14*
X511000Y630000D03*
X489000Y630000D03*
D15*
X1440000Y1140000D03*
D16*
X1440000Y1151250D03*
X1440000Y1128750D03*
D11*
X500000Y510000D03*
D12*
X514000Y510000D03*
X486000Y510000D03*
D17*
X248300Y1244800D03*
X248300Y1270200D03*
X222900Y1244800D03*
X222900Y1270200D03*
X197500Y1244800D03*
X197500Y1270200D03*
X172100Y1244800D03*
X172100Y1270200D03*
X146700Y1244800D03*
X146700Y1270200D03*
X248300Y1124800D03*
X248300Y1150200D03*
X222900Y1124800D03*
X222900Y1150200D03*
X197500Y1124800D03*
X197500Y1150200D03*
X172100Y1124800D03*
X172100Y1150200D03*
X146700Y1124800D03*
X146700Y1150200D03*
D18*
X196725Y895900D03*
X196725Y878400D03*
D19*
X220000Y952700D03*
X210500Y952700D03*
X201000Y952700D03*
X201000Y926700D03*
X210500Y926700D03*
X220000Y926700D03*
D20*
X195615Y910925D03*
X177835Y910925D03*
X239190Y881675D03*
X221410Y881675D03*
D21*
X183000Y961135D03*
X183000Y940815D03*
D22*
X155500Y966200D03*
X155500Y938200D03*
D23*
X90500Y965200D03*
X90500Y939200D03*
D22*
X256725Y950800D03*
X256725Y922800D03*
X286725Y950800D03*
X286725Y922800D03*
D24*
X262095Y901800D03*
X233655Y901800D03*
D25*
X218500Y1014700D03*
X312500Y1014700D03*
D22*
X123000Y966200D03*
X123000Y938200D03*
X316725Y950800D03*
X316725Y922800D03*
X346725Y950800D03*
X346725Y922800D03*
D18*
X194525Y465900D03*
X194525Y448400D03*
D19*
X220300Y522700D03*
X210800Y522700D03*
X201300Y522700D03*
X201300Y496700D03*
X210800Y496700D03*
X220300Y496700D03*
D20*
X195915Y480925D03*
X178135Y480925D03*
X239490Y451675D03*
X221710Y451675D03*
D21*
X183300Y531135D03*
X183300Y510815D03*
D22*
X155800Y536200D03*
X155800Y508200D03*
D23*
X90800Y535200D03*
X90800Y509200D03*
D22*
X257025Y520800D03*
X257025Y492800D03*
X287025Y520800D03*
X287025Y492800D03*
D24*
X262395Y471800D03*
X233955Y471800D03*
D25*
X218800Y584700D03*
X312800Y584700D03*
D22*
X123300Y536200D03*
X123300Y508200D03*
X317025Y520800D03*
X317025Y492800D03*
X347025Y520800D03*
X347025Y492800D03*
D18*
X197325Y675900D03*
X197325Y658400D03*
D19*
X220600Y732700D03*
X211100Y732700D03*
X201600Y732700D03*
X201600Y706700D03*
X211100Y706700D03*
X220600Y706700D03*
D20*
X198715Y690925D03*
X180935Y690925D03*
X239790Y661675D03*
X222010Y661675D03*
D21*
X183600Y741135D03*
X183600Y720815D03*
D22*
X156100Y746200D03*
X156100Y718200D03*
D23*
X91100Y745200D03*
X91100Y719200D03*
D22*
X257325Y730800D03*
X257325Y702800D03*
X287325Y730800D03*
X287325Y702800D03*
D24*
X262695Y681800D03*
X234255Y681800D03*
D25*
X219100Y794700D03*
X313100Y794700D03*
D22*
X123600Y746200D03*
X123600Y718200D03*
X317325Y730800D03*
X317325Y702800D03*
X347325Y730800D03*
X347325Y702800D03*
D18*
X192625Y1355900D03*
X192625Y1338400D03*
D19*
X220900Y1412700D03*
X211400Y1412700D03*
X201900Y1412700D03*
X201900Y1386700D03*
X211400Y1386700D03*
X220900Y1386700D03*
D20*
X199015Y1370925D03*
X181235Y1370925D03*
X241340Y1341675D03*
X223560Y1341675D03*
D21*
X183900Y1421135D03*
X183900Y1400815D03*
D22*
X156400Y1426200D03*
X156400Y1398200D03*
D23*
X91400Y1425200D03*
X91400Y1399200D03*
D22*
X257625Y1410800D03*
X257625Y1382800D03*
X287625Y1410800D03*
X287625Y1382800D03*
D24*
X262995Y1361800D03*
X234555Y1361800D03*
D25*
X219400Y1474700D03*
X313400Y1474700D03*
D22*
X123900Y1426200D03*
X123900Y1398200D03*
X317625Y1410800D03*
X317625Y1382800D03*
X347625Y1410800D03*
X347625Y1382800D03*
D26*
X85000Y415000D03*
X55000Y415000D03*
D27*
X25000Y395400D03*
X115000Y395400D03*
D26*
X85000Y225000D03*
X55000Y225000D03*
D27*
X25000Y205400D03*
X115000Y205400D03*
D28*
X232500Y487500D03*
X232500Y697500D03*
X232500Y930000D03*
X232550Y1374550D03*
X92500Y1377500D03*
X122500Y1377500D03*
X155000Y1377500D03*
X90000Y917500D03*
X122500Y917500D03*
X155000Y917500D03*
X180000Y1385000D03*
X90000Y700000D03*
X122500Y700000D03*
X155000Y700000D03*
X180000Y705000D03*
X180000Y495000D03*
X157500Y487500D03*
X122500Y487500D03*
X92500Y487500D03*
X152500Y1197500D03*
X277500Y1197500D03*
X140000Y440000D03*
X90000Y380000D03*
X140000Y380000D03*
X140000Y330000D03*
X152500Y1312500D03*
X282500Y1312500D03*
X152500Y1067500D03*
X177500Y925000D03*
X90000Y330000D03*
X140000Y280000D03*
X90000Y280000D03*
X251000Y882000D03*
X207000Y972000D03*
X250800Y452200D03*
X208300Y543450D03*
X340000Y550000D03*
X390000Y1780000D03*
X251100Y662200D03*
X208600Y753450D03*
X340000Y760000D03*
X340000Y1660000D03*
X252500Y1341250D03*
X207500Y1436250D03*
X211250Y908750D03*
X183750Y988750D03*
X211250Y473750D03*
X290000Y1075000D03*
X211250Y685000D03*
X268750Y1075000D03*
X211250Y1355000D03*
X211250Y1316250D03*
D29*
X200000Y2190000D03*
X200000Y100000D03*
X2800000Y2190000D03*
X2800000Y100000D03*
X1500000Y100000D03*
X1500000Y2190000D03*
X800000Y1145000D03*
X800000Y2190000D03*
X800000Y100000D03*
X2200000Y1145000D03*
X2200000Y2190000D03*
X2200000Y100000D03*
M02*
