G04 EAGLE Gerber RS-274X export*
G75*
%MOMM*%
%FSLAX34Y34*%
%LPD*%
%IN*%
%IPPOS*%
%AMOC8*
5,1,8,0,0,1.08239X$1,22.5*%
G01*
%ADD10C,0.254000*%


D10*
X0Y30000D02*
X114Y27385D01*
X456Y24791D01*
X1022Y22235D01*
X1809Y19739D01*
X2811Y17321D01*
X4019Y15000D01*
X5425Y12793D01*
X7019Y10716D01*
X8787Y8787D01*
X10716Y7019D01*
X12793Y5425D01*
X15000Y4019D01*
X17321Y2811D01*
X19739Y1809D01*
X22235Y1022D01*
X24791Y456D01*
X27385Y114D01*
X30000Y0D01*
X167574Y0D01*
X170188Y-114D01*
X172783Y-456D01*
X175338Y-1022D01*
X177834Y-1809D01*
X180252Y-2811D01*
X182574Y-4019D01*
X184781Y-5425D01*
X186857Y-7019D01*
X188787Y-8787D01*
X271213Y-91213D01*
X273143Y-92981D01*
X275219Y-94575D01*
X277426Y-95981D01*
X279748Y-97189D01*
X282166Y-98191D01*
X284662Y-98978D01*
X287217Y-99544D01*
X289812Y-99886D01*
X292426Y-100000D01*
X467574Y-100000D01*
X470188Y-99886D01*
X472783Y-99544D01*
X475338Y-98978D01*
X477834Y-98191D01*
X480252Y-97189D01*
X482574Y-95981D01*
X484781Y-94575D01*
X486857Y-92981D01*
X488787Y-91213D01*
X571213Y-8787D01*
X573143Y-7019D01*
X575219Y-5425D01*
X577426Y-4019D01*
X579748Y-2811D01*
X582166Y-1809D01*
X584662Y-1022D01*
X587217Y-456D01*
X589812Y-114D01*
X592426Y0D01*
X770000Y0D01*
X772615Y114D01*
X775209Y456D01*
X777765Y1022D01*
X780261Y1809D01*
X782679Y2811D01*
X785000Y4019D01*
X787207Y5425D01*
X789284Y7019D01*
X791213Y8787D01*
X792981Y10716D01*
X794575Y12793D01*
X795981Y15000D01*
X797189Y17321D01*
X798191Y19739D01*
X798978Y22235D01*
X799544Y24791D01*
X799886Y27385D01*
X800000Y30000D01*
X800000Y470000D01*
X799886Y472615D01*
X799544Y475209D01*
X798978Y477765D01*
X798191Y480261D01*
X797189Y482679D01*
X795981Y485000D01*
X794575Y487207D01*
X792981Y489284D01*
X791213Y491213D01*
X789284Y492981D01*
X787207Y494575D01*
X785000Y495981D01*
X782679Y497189D01*
X780261Y498191D01*
X777765Y498978D01*
X775209Y499544D01*
X772615Y499886D01*
X770000Y500000D01*
X30000Y500000D01*
X27385Y499886D01*
X24791Y499544D01*
X22235Y498978D01*
X19739Y498191D01*
X17321Y497189D01*
X15000Y495981D01*
X12793Y494575D01*
X10716Y492981D01*
X8787Y491213D01*
X7019Y489284D01*
X5425Y487207D01*
X4019Y485000D01*
X2811Y482679D01*
X1809Y480261D01*
X1022Y477765D01*
X456Y475209D01*
X114Y472615D01*
X0Y470000D01*
X0Y30000D01*
X222500Y199369D02*
X222429Y198108D01*
X222288Y196853D01*
X222076Y195609D01*
X221795Y194378D01*
X221446Y193165D01*
X221029Y191973D01*
X220546Y190806D01*
X219998Y189669D01*
X219387Y188564D01*
X218715Y187495D01*
X217985Y186465D01*
X217198Y185478D01*
X216356Y184537D01*
X215464Y183644D01*
X214522Y182802D01*
X213535Y182015D01*
X212505Y181285D01*
X211436Y180613D01*
X210331Y180002D01*
X209194Y179454D01*
X208027Y178971D01*
X206835Y178554D01*
X205622Y178205D01*
X204391Y177924D01*
X203147Y177712D01*
X201892Y177571D01*
X200631Y177500D01*
X199369Y177500D01*
X198108Y177571D01*
X196853Y177712D01*
X195609Y177924D01*
X194378Y178205D01*
X193165Y178554D01*
X191973Y178971D01*
X190806Y179454D01*
X189669Y180002D01*
X188564Y180613D01*
X187495Y181285D01*
X186465Y182015D01*
X185478Y182802D01*
X184537Y183644D01*
X183644Y184537D01*
X182802Y185478D01*
X182015Y186465D01*
X181285Y187495D01*
X180613Y188564D01*
X180002Y189669D01*
X179454Y190806D01*
X178971Y191973D01*
X178554Y193165D01*
X178205Y194378D01*
X177924Y195609D01*
X177712Y196853D01*
X177571Y198108D01*
X177500Y199369D01*
X177500Y200631D01*
X177571Y201892D01*
X177712Y203147D01*
X177924Y204391D01*
X178205Y205622D01*
X178554Y206835D01*
X178971Y208027D01*
X179454Y209194D01*
X180002Y210331D01*
X180613Y211436D01*
X181285Y212505D01*
X182015Y213535D01*
X182802Y214522D01*
X183644Y215464D01*
X184537Y216356D01*
X185478Y217198D01*
X186465Y217985D01*
X187495Y218715D01*
X188564Y219387D01*
X189669Y219998D01*
X190806Y220546D01*
X191973Y221029D01*
X193165Y221446D01*
X194378Y221795D01*
X195609Y222076D01*
X196853Y222288D01*
X198108Y222429D01*
X199369Y222500D01*
X200631Y222500D01*
X201892Y222429D01*
X203147Y222288D01*
X204391Y222076D01*
X205622Y221795D01*
X206835Y221446D01*
X208027Y221029D01*
X209194Y220546D01*
X210331Y219998D01*
X211436Y219387D01*
X212505Y218715D01*
X213535Y217985D01*
X214522Y217198D01*
X215464Y216356D01*
X216356Y215464D01*
X217198Y214522D01*
X217985Y213535D01*
X218715Y212505D01*
X219387Y211436D01*
X219998Y210331D01*
X220546Y209194D01*
X221029Y208027D01*
X221446Y206835D01*
X221795Y205622D01*
X222076Y204391D01*
X222288Y203147D01*
X222429Y201892D01*
X222500Y200631D01*
X222500Y199369D01*
X622500Y199369D02*
X622429Y198108D01*
X622288Y196853D01*
X622076Y195609D01*
X621795Y194378D01*
X621446Y193165D01*
X621029Y191973D01*
X620546Y190806D01*
X619998Y189669D01*
X619387Y188564D01*
X618715Y187495D01*
X617985Y186465D01*
X617198Y185478D01*
X616356Y184537D01*
X615464Y183644D01*
X614522Y182802D01*
X613535Y182015D01*
X612505Y181285D01*
X611436Y180613D01*
X610331Y180002D01*
X609194Y179454D01*
X608027Y178971D01*
X606835Y178554D01*
X605622Y178205D01*
X604391Y177924D01*
X603147Y177712D01*
X601892Y177571D01*
X600631Y177500D01*
X599369Y177500D01*
X598108Y177571D01*
X596853Y177712D01*
X595609Y177924D01*
X594378Y178205D01*
X593165Y178554D01*
X591973Y178971D01*
X590806Y179454D01*
X589669Y180002D01*
X588564Y180613D01*
X587495Y181285D01*
X586465Y182015D01*
X585478Y182802D01*
X584537Y183644D01*
X583644Y184537D01*
X582802Y185478D01*
X582015Y186465D01*
X581285Y187495D01*
X580613Y188564D01*
X580002Y189669D01*
X579454Y190806D01*
X578971Y191973D01*
X578554Y193165D01*
X578205Y194378D01*
X577924Y195609D01*
X577712Y196853D01*
X577571Y198108D01*
X577500Y199369D01*
X577500Y200631D01*
X577571Y201892D01*
X577712Y203147D01*
X577924Y204391D01*
X578205Y205622D01*
X578554Y206835D01*
X578971Y208027D01*
X579454Y209194D01*
X580002Y210331D01*
X580613Y211436D01*
X581285Y212505D01*
X582015Y213535D01*
X582802Y214522D01*
X583644Y215464D01*
X584537Y216356D01*
X585478Y217198D01*
X586465Y217985D01*
X587495Y218715D01*
X588564Y219387D01*
X589669Y219998D01*
X590806Y220546D01*
X591973Y221029D01*
X593165Y221446D01*
X594378Y221795D01*
X595609Y222076D01*
X596853Y222288D01*
X598108Y222429D01*
X599369Y222500D01*
X600631Y222500D01*
X601892Y222429D01*
X603147Y222288D01*
X604391Y222076D01*
X605622Y221795D01*
X606835Y221446D01*
X608027Y221029D01*
X609194Y220546D01*
X610331Y219998D01*
X611436Y219387D01*
X612505Y218715D01*
X613535Y217985D01*
X614522Y217198D01*
X615464Y216356D01*
X616356Y215464D01*
X617198Y214522D01*
X617985Y213535D01*
X618715Y212505D01*
X619387Y211436D01*
X619998Y210331D01*
X620546Y209194D01*
X621029Y208027D01*
X621446Y206835D01*
X621795Y205622D01*
X622076Y204391D01*
X622288Y203147D01*
X622429Y201892D01*
X622500Y200631D01*
X622500Y199369D01*
X346500Y289460D02*
X346429Y288382D01*
X346288Y287311D01*
X346078Y286251D01*
X345798Y285208D01*
X345451Y284185D01*
X345037Y283187D01*
X344560Y282218D01*
X344019Y281282D01*
X343419Y280384D01*
X342762Y279527D01*
X342049Y278715D01*
X341285Y277951D01*
X340473Y277239D01*
X339616Y276581D01*
X338718Y275981D01*
X337782Y275441D01*
X336813Y274963D01*
X335815Y274549D01*
X334792Y274202D01*
X333749Y273922D01*
X332689Y273712D01*
X331618Y273571D01*
X330540Y273500D01*
X329460Y273500D01*
X328382Y273571D01*
X327311Y273712D01*
X326251Y273922D01*
X325208Y274202D01*
X324185Y274549D01*
X323187Y274963D01*
X322218Y275441D01*
X321282Y275981D01*
X320384Y276581D01*
X319527Y277239D01*
X318715Y277951D01*
X317951Y278715D01*
X317239Y279527D01*
X316581Y280384D01*
X315981Y281282D01*
X315441Y282218D01*
X314963Y283187D01*
X314549Y284185D01*
X314202Y285208D01*
X313922Y286251D01*
X313712Y287311D01*
X313571Y288382D01*
X313500Y289460D01*
X313500Y290540D01*
X313571Y291618D01*
X313712Y292689D01*
X313922Y293749D01*
X314202Y294792D01*
X314549Y295815D01*
X314963Y296813D01*
X315441Y297782D01*
X315981Y298718D01*
X316581Y299616D01*
X317239Y300473D01*
X317951Y301285D01*
X318715Y302049D01*
X319527Y302762D01*
X320384Y303419D01*
X321282Y304019D01*
X322218Y304560D01*
X323187Y305037D01*
X324185Y305451D01*
X325208Y305798D01*
X326251Y306078D01*
X327311Y306288D01*
X328382Y306429D01*
X329460Y306500D01*
X330540Y306500D01*
X331618Y306429D01*
X332689Y306288D01*
X333749Y306078D01*
X334792Y305798D01*
X335815Y305451D01*
X336813Y305037D01*
X337782Y304560D01*
X338718Y304019D01*
X339616Y303419D01*
X340473Y302762D01*
X341285Y302049D01*
X342049Y301285D01*
X342762Y300473D01*
X343419Y299616D01*
X344019Y298718D01*
X344560Y297782D01*
X345037Y296813D01*
X345451Y295815D01*
X345798Y294792D01*
X346078Y293749D01*
X346288Y292689D01*
X346429Y291618D01*
X346500Y290540D01*
X346500Y289460D01*
X536500Y99460D02*
X536429Y98382D01*
X536288Y97311D01*
X536078Y96251D01*
X535798Y95208D01*
X535451Y94185D01*
X535037Y93187D01*
X534560Y92218D01*
X534019Y91282D01*
X533419Y90384D01*
X532762Y89527D01*
X532049Y88715D01*
X531285Y87951D01*
X530473Y87239D01*
X529616Y86581D01*
X528718Y85981D01*
X527782Y85441D01*
X526813Y84963D01*
X525815Y84549D01*
X524792Y84202D01*
X523749Y83922D01*
X522689Y83712D01*
X521618Y83571D01*
X520540Y83500D01*
X519460Y83500D01*
X518382Y83571D01*
X517311Y83712D01*
X516251Y83922D01*
X515208Y84202D01*
X514185Y84549D01*
X513187Y84963D01*
X512218Y85441D01*
X511282Y85981D01*
X510384Y86581D01*
X509527Y87239D01*
X508715Y87951D01*
X507951Y88715D01*
X507239Y89527D01*
X506581Y90384D01*
X505981Y91282D01*
X505441Y92218D01*
X504963Y93187D01*
X504549Y94185D01*
X504202Y95208D01*
X503922Y96251D01*
X503712Y97311D01*
X503571Y98382D01*
X503500Y99460D01*
X503500Y100540D01*
X503571Y101618D01*
X503712Y102689D01*
X503922Y103749D01*
X504202Y104792D01*
X504549Y105815D01*
X504963Y106813D01*
X505441Y107782D01*
X505981Y108718D01*
X506581Y109616D01*
X507239Y110473D01*
X507951Y111285D01*
X508715Y112049D01*
X509527Y112762D01*
X510384Y113419D01*
X511282Y114019D01*
X512218Y114560D01*
X513187Y115037D01*
X514185Y115451D01*
X515208Y115798D01*
X516251Y116078D01*
X517311Y116288D01*
X518382Y116429D01*
X519460Y116500D01*
X520540Y116500D01*
X521618Y116429D01*
X522689Y116288D01*
X523749Y116078D01*
X524792Y115798D01*
X525815Y115451D01*
X526813Y115037D01*
X527782Y114560D01*
X528718Y114019D01*
X529616Y113419D01*
X530473Y112762D01*
X531285Y112049D01*
X532049Y111285D01*
X532762Y110473D01*
X533419Y109616D01*
X534019Y108718D01*
X534560Y107782D01*
X535037Y106813D01*
X535451Y105815D01*
X535798Y104792D01*
X536078Y103749D01*
X536288Y102689D01*
X536429Y101618D01*
X536500Y100540D01*
X536500Y99460D01*
X275500Y-59291D02*
X275431Y-58677D01*
X275293Y-58075D01*
X275089Y-57492D01*
X274821Y-56935D01*
X274493Y-56412D01*
X274108Y-55929D01*
X273671Y-55493D01*
X273188Y-55107D01*
X272665Y-54779D01*
X272108Y-54511D01*
X271525Y-54307D01*
X270923Y-54169D01*
X270309Y-54100D01*
X269691Y-54100D01*
X269077Y-54169D01*
X268475Y-54307D01*
X267892Y-54511D01*
X267335Y-54779D01*
X266812Y-55107D01*
X266329Y-55493D01*
X265893Y-55929D01*
X265507Y-56412D01*
X265179Y-56935D01*
X264911Y-57492D01*
X264707Y-58075D01*
X264569Y-58677D01*
X264500Y-59291D01*
X264500Y-59909D01*
X264569Y-60523D01*
X264707Y-61125D01*
X264911Y-61708D01*
X265179Y-62265D01*
X265507Y-62788D01*
X265893Y-63271D01*
X266329Y-63708D01*
X266812Y-64093D01*
X267335Y-64421D01*
X267892Y-64689D01*
X268475Y-64893D01*
X269077Y-65031D01*
X269691Y-65100D01*
X270309Y-65100D01*
X270923Y-65031D01*
X271525Y-64893D01*
X272108Y-64689D01*
X272665Y-64421D01*
X273188Y-64093D01*
X273671Y-63708D01*
X274108Y-63271D01*
X274493Y-62788D01*
X274821Y-62265D01*
X275089Y-61708D01*
X275293Y-61125D01*
X275431Y-60523D01*
X275500Y-59909D01*
X275500Y-59291D01*
X365500Y-59291D02*
X365431Y-58677D01*
X365293Y-58075D01*
X365089Y-57492D01*
X364821Y-56935D01*
X364493Y-56412D01*
X364108Y-55929D01*
X363671Y-55493D01*
X363188Y-55107D01*
X362665Y-54779D01*
X362108Y-54511D01*
X361525Y-54307D01*
X360923Y-54169D01*
X360309Y-54100D01*
X359691Y-54100D01*
X359077Y-54169D01*
X358475Y-54307D01*
X357892Y-54511D01*
X357335Y-54779D01*
X356812Y-55107D01*
X356329Y-55493D01*
X355893Y-55929D01*
X355507Y-56412D01*
X355179Y-56935D01*
X354911Y-57492D01*
X354707Y-58075D01*
X354569Y-58677D01*
X354500Y-59291D01*
X354500Y-59909D01*
X354569Y-60523D01*
X354707Y-61125D01*
X354911Y-61708D01*
X355179Y-62265D01*
X355507Y-62788D01*
X355893Y-63271D01*
X356329Y-63708D01*
X356812Y-64093D01*
X357335Y-64421D01*
X357892Y-64689D01*
X358475Y-64893D01*
X359077Y-65031D01*
X359691Y-65100D01*
X360309Y-65100D01*
X360923Y-65031D01*
X361525Y-64893D01*
X362108Y-64689D01*
X362665Y-64421D01*
X363188Y-64093D01*
X363671Y-63708D01*
X364108Y-63271D01*
X364493Y-62788D01*
X364821Y-62265D01*
X365089Y-61708D01*
X365293Y-61125D01*
X365431Y-60523D01*
X365500Y-59909D01*
X365500Y-59291D01*
X408000Y-59291D02*
X407931Y-58677D01*
X407793Y-58075D01*
X407589Y-57492D01*
X407321Y-56935D01*
X406993Y-56412D01*
X406608Y-55929D01*
X406171Y-55493D01*
X405688Y-55107D01*
X405165Y-54779D01*
X404608Y-54511D01*
X404025Y-54307D01*
X403423Y-54169D01*
X402809Y-54100D01*
X402191Y-54100D01*
X401577Y-54169D01*
X400975Y-54307D01*
X400392Y-54511D01*
X399835Y-54779D01*
X399312Y-55107D01*
X398829Y-55493D01*
X398393Y-55929D01*
X398007Y-56412D01*
X397679Y-56935D01*
X397411Y-57492D01*
X397207Y-58075D01*
X397069Y-58677D01*
X397000Y-59291D01*
X397000Y-59909D01*
X397069Y-60523D01*
X397207Y-61125D01*
X397411Y-61708D01*
X397679Y-62265D01*
X398007Y-62788D01*
X398393Y-63271D01*
X398829Y-63708D01*
X399312Y-64093D01*
X399835Y-64421D01*
X400392Y-64689D01*
X400975Y-64893D01*
X401577Y-65031D01*
X402191Y-65100D01*
X402809Y-65100D01*
X403423Y-65031D01*
X404025Y-64893D01*
X404608Y-64689D01*
X405165Y-64421D01*
X405688Y-64093D01*
X406171Y-63708D01*
X406608Y-63271D01*
X406993Y-62788D01*
X407321Y-62265D01*
X407589Y-61708D01*
X407793Y-61125D01*
X407931Y-60523D01*
X408000Y-59909D01*
X408000Y-59291D01*
X498000Y-59291D02*
X497931Y-58677D01*
X497793Y-58075D01*
X497589Y-57492D01*
X497321Y-56935D01*
X496993Y-56412D01*
X496608Y-55929D01*
X496171Y-55493D01*
X495688Y-55107D01*
X495165Y-54779D01*
X494608Y-54511D01*
X494025Y-54307D01*
X493423Y-54169D01*
X492809Y-54100D01*
X492191Y-54100D01*
X491577Y-54169D01*
X490975Y-54307D01*
X490392Y-54511D01*
X489835Y-54779D01*
X489312Y-55107D01*
X488829Y-55493D01*
X488393Y-55929D01*
X488007Y-56412D01*
X487679Y-56935D01*
X487411Y-57492D01*
X487207Y-58075D01*
X487069Y-58677D01*
X487000Y-59291D01*
X487000Y-59909D01*
X487069Y-60523D01*
X487207Y-61125D01*
X487411Y-61708D01*
X487679Y-62265D01*
X488007Y-62788D01*
X488393Y-63271D01*
X488829Y-63708D01*
X489312Y-64093D01*
X489835Y-64421D01*
X490392Y-64689D01*
X490975Y-64893D01*
X491577Y-65031D01*
X492191Y-65100D01*
X492809Y-65100D01*
X493423Y-65031D01*
X494025Y-64893D01*
X494608Y-64689D01*
X495165Y-64421D01*
X495688Y-64093D01*
X496171Y-63708D01*
X496608Y-63271D01*
X496993Y-62788D01*
X497321Y-62265D01*
X497589Y-61708D01*
X497793Y-61125D01*
X497931Y-60523D01*
X498000Y-59909D01*
X498000Y-59291D01*
M02*
