G04 EAGLE Gerber RS-274X export*
G75*
%MOMM*%
%FSLAX34Y34*%
%LPD*%
%INSilkscreen Top*%
%IPPOS*%
%AMOC8*
5,1,8,0,0,1.08239X$1,22.5*%
G01*
%ADD10C,0.050000*%
%ADD11C,0.101600*%


D10*
X408600Y148100D02*
X408600Y138600D01*
X407500Y137500D01*
X408600Y136400D01*
X408600Y126900D01*
X391400Y126900D01*
X391400Y148100D01*
X408600Y148100D01*
D11*
X400092Y123500D02*
X400092Y116007D01*
X401591Y114508D01*
X404588Y114508D01*
X406087Y116007D01*
X406087Y123500D01*
X409300Y123500D02*
X409300Y117505D01*
X412297Y114508D01*
X415295Y117505D01*
X415295Y123500D01*
D10*
X117250Y282750D02*
X117250Y317250D01*
X117250Y282750D02*
X82750Y282750D01*
X82750Y317250D01*
X117250Y317250D01*
D11*
X120100Y292634D02*
X129092Y292634D01*
X120100Y292634D02*
X120100Y297130D01*
X121599Y298629D01*
X123098Y298629D01*
X124596Y297130D01*
X126095Y298629D01*
X127593Y298629D01*
X129092Y297130D01*
X129092Y292634D01*
X124596Y292634D02*
X124596Y297130D01*
X120100Y301842D02*
X129092Y301842D01*
X129092Y307837D01*
X123098Y311050D02*
X120100Y314047D01*
X129092Y314047D01*
X129092Y311050D02*
X129092Y317045D01*
D10*
X117250Y117250D02*
X117250Y82750D01*
X82750Y82750D01*
X82750Y117250D01*
X117250Y117250D01*
D11*
X120100Y92634D02*
X129092Y92634D01*
X120100Y92634D02*
X120100Y97130D01*
X121599Y98629D01*
X123098Y98629D01*
X124596Y97130D01*
X126095Y98629D01*
X127593Y98629D01*
X129092Y97130D01*
X129092Y92634D01*
X124596Y92634D02*
X124596Y97130D01*
X120100Y101842D02*
X129092Y101842D01*
X129092Y107837D01*
X129092Y111050D02*
X129092Y117045D01*
X123098Y117045D02*
X129092Y111050D01*
X123098Y117045D02*
X121599Y117045D01*
X120100Y115546D01*
X120100Y112549D01*
X121599Y111050D01*
D10*
X682750Y317250D02*
X717250Y317250D01*
X717250Y282750D01*
X682750Y282750D01*
X682750Y317250D01*
X684000Y316000D02*
X686000Y316000D01*
X686000Y314000D01*
X684000Y314000D01*
X684000Y316000D01*
X714000Y317000D02*
X714000Y313000D01*
X717000Y313000D01*
X714000Y287000D02*
X714000Y283000D01*
X714000Y287000D02*
X717000Y287000D01*
D11*
X679492Y283508D02*
X670500Y283508D01*
X670500Y288004D01*
X671999Y289502D01*
X674996Y289502D01*
X676495Y288004D01*
X676495Y283508D01*
X676495Y286505D02*
X679492Y289502D01*
X679492Y292716D02*
X670500Y292716D01*
X679492Y292716D02*
X679492Y297212D01*
X677993Y298710D01*
X671999Y298710D01*
X670500Y297212D01*
X670500Y292716D01*
X673498Y301924D02*
X670500Y304921D01*
X679492Y304921D01*
X679492Y301924D02*
X679492Y307918D01*
D10*
X682750Y117250D02*
X717250Y117250D01*
X717250Y82750D01*
X682750Y82750D01*
X682750Y117250D01*
X684000Y116000D02*
X686000Y116000D01*
X686000Y114000D01*
X684000Y114000D01*
X684000Y116000D01*
X714000Y117000D02*
X714000Y113000D01*
X717000Y113000D01*
X714000Y87000D02*
X714000Y83000D01*
X714000Y87000D02*
X717000Y87000D01*
D11*
X679492Y83508D02*
X670500Y83508D01*
X670500Y88004D01*
X671999Y89502D01*
X674996Y89502D01*
X676495Y88004D01*
X676495Y83508D01*
X676495Y86505D02*
X679492Y89502D01*
X679492Y92716D02*
X670500Y92716D01*
X679492Y92716D02*
X679492Y97212D01*
X677993Y98710D01*
X671999Y98710D01*
X670500Y97212D01*
X670500Y92716D01*
X679492Y101924D02*
X679492Y107918D01*
X679492Y101924D02*
X673498Y107918D01*
X671999Y107918D01*
X670500Y106420D01*
X670500Y103422D01*
X671999Y101924D01*
D10*
X415000Y240000D02*
X385000Y240000D01*
X385000Y270000D01*
X415000Y270000D01*
X415000Y240000D01*
D11*
X419500Y251092D02*
X428492Y251092D01*
X425495Y254090D01*
X428492Y257087D01*
X419500Y257087D01*
X419500Y260300D02*
X428492Y260300D01*
X423996Y260300D02*
X423996Y266295D01*
X419500Y266295D02*
X428492Y266295D01*
M02*
