G04 EAGLE Gerber RS-274X export*
G75*
%MOMM*%
%FSLAX34Y34*%
%LPD*%
%INSilkscreen Bottom*%
%IPPOS*%
%AMOC8*
5,1,8,0,0,1.08239X$1,22.5*%
G01*
%ADD10C,0.200000*%
%ADD11C,0.101600*%
%ADD12C,0.254000*%
%ADD13C,0.127000*%
%ADD14C,0.152400*%
%ADD15C,0.050800*%


D10*
X550000Y70000D02*
X550000Y320000D01*
X300000Y320000D01*
X300000Y70000D01*
X550000Y70000D01*
D11*
X476817Y347508D02*
X476817Y359202D01*
X470970Y359202D01*
X469021Y357253D01*
X469021Y353355D01*
X470970Y351406D01*
X476817Y351406D01*
X472919Y351406D02*
X469021Y347508D01*
X465123Y355304D02*
X461225Y359202D01*
X461225Y347508D01*
X465123Y347508D02*
X457327Y347508D01*
X453429Y349457D02*
X453429Y357253D01*
X451480Y359202D01*
X447582Y359202D01*
X445633Y357253D01*
X445633Y349457D01*
X447582Y347508D01*
X451480Y347508D01*
X453429Y349457D01*
X445633Y357253D01*
D12*
X555300Y404500D02*
X555300Y449500D01*
X552800Y439500D02*
X537800Y452000D01*
X522800Y452000D01*
X507800Y439500D01*
X507800Y414500D01*
X522800Y402000D01*
X537800Y402000D01*
X552800Y414500D01*
X552800Y439500D01*
X505300Y449500D02*
X505300Y404500D01*
X542800Y404500D02*
X555300Y404500D01*
X517800Y404500D02*
X505300Y404500D01*
X542800Y449500D02*
X555300Y449500D01*
X517800Y449500D02*
X505300Y449500D01*
D11*
X586808Y407508D02*
X595800Y407508D01*
X586808Y407508D02*
X586808Y413502D01*
X595800Y416716D02*
X595800Y422710D01*
X595800Y416716D02*
X591304Y416716D01*
X592802Y419713D01*
X592802Y421212D01*
X591304Y422710D01*
X588307Y422710D01*
X586808Y421212D01*
X586808Y418214D01*
X588307Y416716D01*
X437395Y401752D02*
X435446Y399803D01*
X437395Y401752D02*
X441293Y401752D01*
X443242Y399803D01*
X443242Y392007D01*
X441293Y390058D01*
X437395Y390058D01*
X435446Y392007D01*
X431548Y399803D02*
X429599Y401752D01*
X425701Y401752D01*
X423752Y399803D01*
X423752Y397854D01*
X425701Y395905D01*
X427650Y395905D01*
X425701Y395905D02*
X423752Y393956D01*
X423752Y392007D01*
X425701Y390058D01*
X429599Y390058D01*
X431548Y392007D01*
X419854Y392007D02*
X417905Y390058D01*
X414007Y390058D01*
X412058Y392007D01*
X412058Y399803D01*
X414007Y401752D01*
X417905Y401752D01*
X419854Y399803D01*
X419854Y397854D01*
X417905Y395905D01*
X412058Y395905D01*
D13*
X310000Y-59000D02*
X266750Y-59000D01*
X310000Y-59000D02*
X320000Y-59000D01*
X363250Y-59000D01*
X363250Y-15300D01*
X332500Y-15300D01*
X322500Y-15300D01*
X307500Y-15300D01*
X297500Y-15300D01*
X266750Y-15300D01*
X266750Y-59000D01*
X310000Y-59000D02*
X310000Y-65000D01*
X320000Y-65000D01*
X320000Y-59000D01*
X307500Y-15300D02*
X307500Y-9300D01*
X297500Y-9300D01*
X297500Y-15300D01*
X322500Y-15300D02*
X322500Y-9300D01*
X332500Y-9300D01*
X332500Y-15300D01*
X342500Y-52500D02*
X317500Y-52500D01*
X342500Y-52500D02*
X342500Y-32500D01*
X337500Y-27500D01*
X317500Y-27500D01*
X317500Y-52500D01*
X312500Y-52500D02*
X287500Y-52500D01*
X312500Y-52500D02*
X312500Y-27500D01*
X292500Y-27500D01*
X287500Y-32500D01*
X287500Y-52500D01*
X327325Y-88365D02*
X328781Y-86909D01*
X327325Y-88365D02*
X325868Y-88365D01*
X324412Y-86909D01*
X324412Y-79628D01*
X325868Y-79628D02*
X322956Y-79628D01*
X319573Y-81084D02*
X318117Y-79628D01*
X315204Y-79628D01*
X313748Y-81084D01*
X313748Y-82540D01*
X315204Y-83996D01*
X316660Y-83996D01*
X315204Y-83996D02*
X313748Y-85453D01*
X313748Y-86909D01*
X315204Y-88365D01*
X318117Y-88365D01*
X319573Y-86909D01*
X399250Y-59000D02*
X442500Y-59000D01*
X452500Y-59000D01*
X495750Y-59000D01*
X495750Y-15300D01*
X465000Y-15300D01*
X455000Y-15300D01*
X440000Y-15300D01*
X430000Y-15300D01*
X399250Y-15300D01*
X399250Y-59000D01*
X442500Y-59000D02*
X442500Y-65000D01*
X452500Y-65000D01*
X452500Y-59000D01*
X440000Y-15300D02*
X440000Y-9300D01*
X430000Y-9300D01*
X430000Y-15300D01*
X455000Y-15300D02*
X455000Y-9300D01*
X465000Y-9300D01*
X465000Y-15300D01*
X475000Y-52500D02*
X450000Y-52500D01*
X475000Y-52500D02*
X475000Y-32500D01*
X470000Y-27500D01*
X450000Y-27500D01*
X450000Y-52500D01*
X445000Y-52500D02*
X420000Y-52500D01*
X445000Y-52500D02*
X445000Y-27500D01*
X425000Y-27500D01*
X420000Y-32500D01*
X420000Y-52500D01*
X459825Y-88365D02*
X461281Y-86909D01*
X459825Y-88365D02*
X458368Y-88365D01*
X456912Y-86909D01*
X456912Y-79628D01*
X458368Y-79628D02*
X455456Y-79628D01*
X447704Y-79628D02*
X447704Y-88365D01*
X452073Y-83996D02*
X447704Y-79628D01*
X446248Y-83996D02*
X452073Y-83996D01*
D14*
X479220Y371900D02*
X479220Y388100D01*
X450780Y388100D02*
X450780Y371900D01*
X459780Y371900D02*
X470220Y371900D01*
X460720Y388100D02*
X459780Y388100D01*
X469280Y388100D02*
X470220Y388100D01*
X451720Y388100D02*
X450780Y388100D01*
X478280Y388100D02*
X479220Y388100D01*
X479220Y371900D02*
X478280Y371900D01*
X451720Y371900D02*
X450780Y371900D01*
D15*
X447701Y372852D02*
X443040Y372852D01*
X442108Y373784D01*
X442108Y375648D01*
X443040Y376580D01*
X447701Y376580D01*
X443040Y378465D02*
X442108Y379397D01*
X442108Y381261D01*
X443040Y382193D01*
X443972Y382193D01*
X444904Y381261D01*
X444904Y379397D01*
X445837Y378465D01*
X446769Y378465D01*
X447701Y379397D01*
X447701Y381261D01*
X446769Y382193D01*
X448633Y380329D02*
X441176Y380329D01*
X442108Y384078D02*
X442108Y387806D01*
X442108Y384078D02*
X445837Y387806D01*
X446769Y387806D01*
X447701Y386874D01*
X447701Y385010D01*
X446769Y384078D01*
X442108Y389691D02*
X442108Y393419D01*
X442108Y389691D02*
X445837Y393419D01*
X446769Y393419D01*
X447701Y392487D01*
X447701Y390623D01*
X446769Y389691D01*
X494458Y342878D02*
X500051Y342878D01*
X500051Y345674D01*
X499119Y346606D01*
X497254Y346606D01*
X496322Y345674D01*
X496322Y342878D01*
X496322Y344742D02*
X494458Y346606D01*
X500051Y348491D02*
X500051Y352219D01*
X499119Y352219D01*
X495390Y348491D01*
X494458Y348491D01*
X542454Y331404D02*
X548047Y331404D01*
X548047Y334200D01*
X547115Y335133D01*
X545250Y335133D01*
X544318Y334200D01*
X544318Y331404D01*
X544318Y333268D02*
X542454Y335133D01*
X547115Y337017D02*
X548047Y337949D01*
X548047Y339813D01*
X547115Y340746D01*
X546183Y340746D01*
X545250Y339813D01*
X544318Y340746D01*
X543386Y340746D01*
X542454Y339813D01*
X542454Y337949D01*
X543386Y337017D01*
X544318Y337017D01*
X545250Y337949D01*
X546183Y337017D01*
X547115Y337017D01*
X545250Y337949D02*
X545250Y339813D01*
D12*
X474000Y427500D02*
X474000Y459500D01*
X474000Y472500D01*
X436000Y472500D01*
X436000Y459500D01*
X436000Y427500D01*
X474000Y427500D01*
X474000Y459500D02*
X436000Y459500D01*
D11*
X478008Y428008D02*
X489702Y428008D01*
X478008Y428008D02*
X478008Y433855D01*
X479957Y435804D01*
X487753Y435804D01*
X489702Y433855D01*
X489702Y428008D01*
X485804Y439702D02*
X489702Y443600D01*
X478008Y443600D01*
X478008Y439702D02*
X478008Y447498D01*
X52192Y337402D02*
X52192Y325708D01*
X52192Y337402D02*
X46345Y337402D01*
X44396Y335453D01*
X44396Y331555D01*
X46345Y329606D01*
X52192Y329606D01*
X48294Y329606D02*
X44396Y325708D01*
X40498Y333504D02*
X36600Y337402D01*
X36600Y325708D01*
X40498Y325708D02*
X32702Y325708D01*
D12*
X180000Y407500D02*
X180000Y452500D01*
X177500Y442500D02*
X162500Y455000D01*
X147500Y455000D01*
X132500Y442500D01*
X132500Y417500D01*
X147500Y405000D01*
X162500Y405000D01*
X177500Y417500D01*
X177500Y442500D01*
X130000Y452500D02*
X130000Y407500D01*
X167500Y407500D02*
X180000Y407500D01*
X142500Y407500D02*
X130000Y407500D01*
X167500Y452500D02*
X180000Y452500D01*
X142500Y452500D02*
X130000Y452500D01*
D11*
X211508Y410508D02*
X220500Y410508D01*
X211508Y410508D02*
X211508Y416502D01*
X217502Y419716D02*
X220500Y422713D01*
X211508Y422713D01*
X211508Y419716D02*
X211508Y425710D01*
X86252Y372305D02*
X84303Y374254D01*
X86252Y372305D02*
X86252Y368407D01*
X84303Y366458D01*
X76507Y366458D01*
X74558Y368407D01*
X74558Y372305D01*
X76507Y374254D01*
X82354Y378152D02*
X86252Y382050D01*
X74558Y382050D01*
X74558Y378152D02*
X74558Y385948D01*
D14*
X104220Y390600D02*
X104220Y374400D01*
X75780Y374400D02*
X75780Y390600D01*
X84780Y374400D02*
X95220Y374400D01*
X85720Y390600D02*
X84780Y390600D01*
X94280Y390600D02*
X95220Y390600D01*
X76720Y390600D02*
X75780Y390600D01*
X103280Y390600D02*
X104220Y390600D01*
X104220Y374400D02*
X103280Y374400D01*
X76720Y374400D02*
X75780Y374400D01*
D15*
X72701Y380965D02*
X68040Y380965D01*
X67108Y381897D01*
X67108Y383761D01*
X68040Y384693D01*
X72701Y384693D01*
X68040Y386578D02*
X67108Y387510D01*
X67108Y389374D01*
X68040Y390306D01*
X68972Y390306D01*
X69904Y389374D01*
X69904Y387510D01*
X70837Y386578D01*
X71769Y386578D01*
X72701Y387510D01*
X72701Y389374D01*
X71769Y390306D01*
X73633Y388442D02*
X66176Y388442D01*
X71769Y392191D02*
X72701Y393123D01*
X72701Y394987D01*
X71769Y395919D01*
X70837Y395919D01*
X69904Y394987D01*
X69904Y394055D01*
X69904Y394987D02*
X68972Y395919D01*
X68040Y395919D01*
X67108Y394987D01*
X67108Y393123D01*
X68040Y392191D01*
X114458Y350378D02*
X120051Y350378D01*
X120051Y353174D01*
X119119Y354106D01*
X117254Y354106D01*
X116322Y353174D01*
X116322Y350378D01*
X116322Y352242D02*
X114458Y354106D01*
X114458Y355991D02*
X114458Y359719D01*
X114458Y355991D02*
X118187Y359719D01*
X119119Y359719D01*
X120051Y358787D01*
X120051Y356923D01*
X119119Y355991D01*
X162454Y338904D02*
X168047Y338904D01*
X168047Y341700D01*
X167115Y342633D01*
X165250Y342633D01*
X164318Y341700D01*
X164318Y338904D01*
X164318Y340768D02*
X162454Y342633D01*
X167115Y344517D02*
X168047Y345449D01*
X168047Y347313D01*
X167115Y348246D01*
X166183Y348246D01*
X165250Y347313D01*
X165250Y346381D01*
X165250Y347313D02*
X164318Y348246D01*
X163386Y348246D01*
X162454Y347313D01*
X162454Y345449D01*
X163386Y344517D01*
D12*
X96500Y430000D02*
X96500Y462000D01*
X96500Y475000D01*
X58500Y475000D01*
X58500Y462000D01*
X58500Y430000D01*
X96500Y430000D01*
X96500Y462000D02*
X58500Y462000D01*
D11*
X100508Y430508D02*
X112202Y430508D01*
X100508Y430508D02*
X100508Y436355D01*
X102457Y438304D01*
X110253Y438304D01*
X112202Y436355D01*
X112202Y430508D01*
X100508Y442202D02*
X100508Y449998D01*
X100508Y442202D02*
X108304Y449998D01*
X110253Y449998D01*
X112202Y448049D01*
X112202Y444151D01*
X110253Y442202D01*
X667192Y347402D02*
X667192Y335708D01*
X667192Y347402D02*
X661345Y347402D01*
X659396Y345453D01*
X659396Y341555D01*
X661345Y339606D01*
X667192Y339606D01*
X663294Y339606D02*
X659396Y335708D01*
X649651Y335708D02*
X649651Y347402D01*
X655498Y341555D01*
X647702Y341555D01*
D12*
X745000Y405000D02*
X745000Y450000D01*
X742500Y440000D02*
X727500Y452500D01*
X712500Y452500D01*
X697500Y440000D01*
X697500Y415000D01*
X712500Y402500D01*
X727500Y402500D01*
X742500Y415000D01*
X742500Y440000D01*
X695000Y450000D02*
X695000Y405000D01*
X732500Y405000D02*
X745000Y405000D01*
X707500Y405000D02*
X695000Y405000D01*
X732500Y450000D02*
X745000Y450000D01*
X707500Y450000D02*
X695000Y450000D01*
D11*
X776508Y408008D02*
X785500Y408008D01*
X776508Y408008D02*
X776508Y414002D01*
X776508Y417216D02*
X776508Y423210D01*
X776508Y417216D02*
X782502Y423210D01*
X784001Y423210D01*
X785500Y421712D01*
X785500Y418714D01*
X784001Y417216D01*
X620195Y393752D02*
X618246Y391803D01*
X620195Y393752D02*
X624093Y393752D01*
X626042Y391803D01*
X626042Y384007D01*
X624093Y382058D01*
X620195Y382058D01*
X618246Y384007D01*
X614348Y382058D02*
X606552Y382058D01*
X614348Y382058D02*
X606552Y389854D01*
X606552Y391803D01*
X608501Y393752D01*
X612399Y393752D01*
X614348Y391803D01*
D14*
X669220Y383100D02*
X669220Y366900D01*
X640780Y366900D02*
X640780Y383100D01*
X649780Y366900D02*
X660220Y366900D01*
X650720Y383100D02*
X649780Y383100D01*
X659280Y383100D02*
X660220Y383100D01*
X641720Y383100D02*
X640780Y383100D01*
X668280Y383100D02*
X669220Y383100D01*
X669220Y366900D02*
X668280Y366900D01*
X641720Y366900D02*
X640780Y366900D01*
D15*
X637701Y373465D02*
X633040Y373465D01*
X632108Y374397D01*
X632108Y376261D01*
X633040Y377193D01*
X637701Y377193D01*
X633040Y379078D02*
X632108Y380010D01*
X632108Y381874D01*
X633040Y382806D01*
X633972Y382806D01*
X634904Y381874D01*
X634904Y380010D01*
X635837Y379078D01*
X636769Y379078D01*
X637701Y380010D01*
X637701Y381874D01*
X636769Y382806D01*
X638633Y380942D02*
X631176Y380942D01*
X637701Y384691D02*
X637701Y388419D01*
X636769Y388419D01*
X633040Y384691D01*
X632108Y384691D01*
X679458Y345378D02*
X685051Y345378D01*
X685051Y348174D01*
X684119Y349106D01*
X682254Y349106D01*
X681322Y348174D01*
X681322Y345378D01*
X681322Y347242D02*
X679458Y349106D01*
X685051Y350991D02*
X685051Y354719D01*
X685051Y350991D02*
X682254Y350991D01*
X683187Y352855D01*
X683187Y353787D01*
X682254Y354719D01*
X680390Y354719D01*
X679458Y353787D01*
X679458Y351923D01*
X680390Y350991D01*
X727454Y333904D02*
X733047Y333904D01*
X733047Y336700D01*
X732115Y337633D01*
X730250Y337633D01*
X729318Y336700D01*
X729318Y333904D01*
X729318Y335768D02*
X727454Y337633D01*
X732115Y341381D02*
X733047Y343246D01*
X732115Y341381D02*
X730250Y339517D01*
X728386Y339517D01*
X727454Y340449D01*
X727454Y342313D01*
X728386Y343246D01*
X729318Y343246D01*
X730250Y342313D01*
X730250Y339517D01*
D12*
X664000Y427500D02*
X664000Y459500D01*
X664000Y472500D01*
X626000Y472500D01*
X626000Y459500D01*
X626000Y427500D01*
X664000Y427500D01*
X664000Y459500D02*
X626000Y459500D01*
D11*
X668008Y428008D02*
X679702Y428008D01*
X668008Y428008D02*
X668008Y433855D01*
X669957Y435804D01*
X677753Y435804D01*
X679702Y433855D01*
X679702Y428008D01*
X677753Y439702D02*
X679702Y441651D01*
X679702Y445549D01*
X677753Y447498D01*
X675804Y447498D01*
X673855Y445549D01*
X673855Y443600D01*
X673855Y445549D02*
X671906Y447498D01*
X669957Y447498D01*
X668008Y445549D01*
X668008Y441651D01*
X669957Y439702D01*
X287192Y332402D02*
X287192Y320708D01*
X287192Y332402D02*
X281345Y332402D01*
X279396Y330453D01*
X279396Y326555D01*
X281345Y324606D01*
X287192Y324606D01*
X283294Y324606D02*
X279396Y320708D01*
X275498Y322657D02*
X273549Y320708D01*
X269651Y320708D01*
X267702Y322657D01*
X267702Y330453D01*
X269651Y332402D01*
X273549Y332402D01*
X275498Y330453D01*
X275498Y328504D01*
X273549Y326555D01*
X267702Y326555D01*
D12*
X367500Y405000D02*
X367500Y450000D01*
X365000Y440000D02*
X350000Y452500D01*
X335000Y452500D01*
X320000Y440000D01*
X320000Y415000D01*
X335000Y402500D01*
X350000Y402500D01*
X365000Y415000D01*
X365000Y440000D01*
X317500Y450000D02*
X317500Y405000D01*
X355000Y405000D02*
X367500Y405000D01*
X330000Y405000D02*
X317500Y405000D01*
X355000Y450000D02*
X367500Y450000D01*
X330000Y450000D02*
X317500Y450000D01*
D11*
X399008Y408008D02*
X408000Y408008D01*
X399008Y408008D02*
X399008Y414002D01*
X406501Y417216D02*
X408000Y418714D01*
X408000Y421712D01*
X406501Y423210D01*
X405002Y423210D01*
X403504Y421712D01*
X403504Y420213D01*
X403504Y421712D02*
X402005Y423210D01*
X400507Y423210D01*
X399008Y421712D01*
X399008Y418714D01*
X400507Y417216D01*
X220452Y352017D02*
X218503Y353966D01*
X220452Y352017D02*
X220452Y348119D01*
X218503Y346170D01*
X210707Y346170D01*
X208758Y348119D01*
X208758Y352017D01*
X210707Y353966D01*
X218503Y357864D02*
X220452Y359813D01*
X220452Y363711D01*
X218503Y365660D01*
X216554Y365660D01*
X214605Y363711D01*
X214605Y361762D01*
X214605Y363711D02*
X212656Y365660D01*
X210707Y365660D01*
X208758Y363711D01*
X208758Y359813D01*
X210707Y357864D01*
D14*
X289220Y369400D02*
X289220Y385600D01*
X260780Y385600D02*
X260780Y369400D01*
X269780Y369400D02*
X280220Y369400D01*
X270720Y385600D02*
X269780Y385600D01*
X279280Y385600D02*
X280220Y385600D01*
X261720Y385600D02*
X260780Y385600D01*
X288280Y385600D02*
X289220Y385600D01*
X289220Y369400D02*
X288280Y369400D01*
X261720Y369400D02*
X260780Y369400D01*
D15*
X257701Y370352D02*
X253040Y370352D01*
X252108Y371284D01*
X252108Y373148D01*
X253040Y374080D01*
X257701Y374080D01*
X253040Y375965D02*
X252108Y376897D01*
X252108Y378761D01*
X253040Y379693D01*
X253972Y379693D01*
X254904Y378761D01*
X254904Y376897D01*
X255837Y375965D01*
X256769Y375965D01*
X257701Y376897D01*
X257701Y378761D01*
X256769Y379693D01*
X258633Y377829D02*
X251176Y377829D01*
X255837Y381578D02*
X257701Y383442D01*
X252108Y383442D01*
X252108Y381578D02*
X252108Y385306D01*
X252108Y387191D02*
X252108Y390919D01*
X252108Y387191D02*
X255837Y390919D01*
X256769Y390919D01*
X257701Y389987D01*
X257701Y388123D01*
X256769Y387191D01*
X299458Y337265D02*
X305051Y337265D01*
X305051Y340061D01*
X304119Y340993D01*
X302254Y340993D01*
X301322Y340061D01*
X301322Y337265D01*
X301322Y339129D02*
X299458Y340993D01*
X303187Y342878D02*
X305051Y344742D01*
X299458Y344742D01*
X299458Y342878D02*
X299458Y346606D01*
X303187Y348491D02*
X305051Y350355D01*
X299458Y350355D01*
X299458Y348491D02*
X299458Y352219D01*
X344954Y331404D02*
X350547Y331404D01*
X350547Y334200D01*
X349615Y335133D01*
X347750Y335133D01*
X346818Y334200D01*
X346818Y331404D01*
X346818Y333268D02*
X344954Y335133D01*
X348683Y337017D02*
X350547Y338881D01*
X344954Y338881D01*
X344954Y337017D02*
X344954Y340746D01*
X344954Y342630D02*
X344954Y346359D01*
X344954Y342630D02*
X348683Y346359D01*
X349615Y346359D01*
X350547Y345427D01*
X350547Y343562D01*
X349615Y342630D01*
D12*
X280700Y427500D02*
X280700Y459500D01*
X280700Y472500D01*
X242700Y472500D01*
X242700Y459500D01*
X242700Y427500D01*
X280700Y427500D01*
X280700Y459500D02*
X242700Y459500D01*
D11*
X284708Y428008D02*
X296402Y428008D01*
X284708Y428008D02*
X284708Y433855D01*
X286657Y435804D01*
X294453Y435804D01*
X296402Y433855D01*
X296402Y428008D01*
X296402Y445549D02*
X284708Y445549D01*
X290555Y439702D02*
X296402Y445549D01*
X290555Y447498D02*
X290555Y439702D01*
M02*
