G75*
%MOIN*%
%OFA0B0*%
%FSLAX24Y24*%
%IPPOS*%
%LPD*%
%AMOC8*
5,1,8,0,0,1.08239X$1,22.5*
%
%ADD10C,0.0000*%
%ADD11C,0.1063*%
%ADD12R,0.0800X0.0800*%
%ADD13C,0.0800*%
%ADD14C,0.0827*%
%ADD15C,0.1000*%
%ADD16C,0.0083*%
%ADD17C,0.0240*%
D10*
X001281Y000141D02*
X038289Y000141D01*
X000100Y001322D02*
X000100Y027700D01*
X001281Y028881D02*
X038289Y028881D01*
X001183Y002110D02*
X001185Y002169D01*
X001191Y002228D01*
X001201Y002286D01*
X001214Y002344D01*
X001232Y002401D01*
X001253Y002456D01*
X001278Y002510D01*
X001307Y002562D01*
X001339Y002611D01*
X001374Y002659D01*
X001412Y002704D01*
X001453Y002747D01*
X001497Y002787D01*
X001543Y002823D01*
X001592Y002857D01*
X001643Y002887D01*
X001696Y002914D01*
X001751Y002937D01*
X001806Y002956D01*
X001864Y002972D01*
X001922Y002984D01*
X001980Y002992D01*
X002039Y002996D01*
X002099Y002996D01*
X002158Y002992D01*
X002216Y002984D01*
X002274Y002972D01*
X002332Y002956D01*
X002387Y002937D01*
X002442Y002914D01*
X002495Y002887D01*
X002546Y002857D01*
X002595Y002823D01*
X002641Y002787D01*
X002685Y002747D01*
X002726Y002704D01*
X002764Y002659D01*
X002799Y002611D01*
X002831Y002562D01*
X002860Y002510D01*
X002885Y002456D01*
X002906Y002401D01*
X002924Y002344D01*
X002937Y002286D01*
X002947Y002228D01*
X002953Y002169D01*
X002955Y002110D01*
X002953Y002051D01*
X002947Y001992D01*
X002937Y001934D01*
X002924Y001876D01*
X002906Y001819D01*
X002885Y001764D01*
X002860Y001710D01*
X002831Y001658D01*
X002799Y001609D01*
X002764Y001561D01*
X002726Y001516D01*
X002685Y001473D01*
X002641Y001433D01*
X002595Y001397D01*
X002546Y001363D01*
X002495Y001333D01*
X002442Y001306D01*
X002387Y001283D01*
X002332Y001264D01*
X002274Y001248D01*
X002216Y001236D01*
X002158Y001228D01*
X002099Y001224D01*
X002039Y001224D01*
X001980Y001228D01*
X001922Y001236D01*
X001864Y001248D01*
X001806Y001264D01*
X001751Y001283D01*
X001696Y001306D01*
X001643Y001333D01*
X001592Y001363D01*
X001543Y001397D01*
X001497Y001433D01*
X001453Y001473D01*
X001412Y001516D01*
X001374Y001561D01*
X001339Y001609D01*
X001307Y001658D01*
X001278Y001710D01*
X001253Y001764D01*
X001232Y001819D01*
X001214Y001876D01*
X001201Y001934D01*
X001191Y001992D01*
X001185Y002051D01*
X001183Y002110D01*
X036616Y002110D02*
X036618Y002169D01*
X036624Y002228D01*
X036634Y002286D01*
X036647Y002344D01*
X036665Y002401D01*
X036686Y002456D01*
X036711Y002510D01*
X036740Y002562D01*
X036772Y002611D01*
X036807Y002659D01*
X036845Y002704D01*
X036886Y002747D01*
X036930Y002787D01*
X036976Y002823D01*
X037025Y002857D01*
X037076Y002887D01*
X037129Y002914D01*
X037184Y002937D01*
X037239Y002956D01*
X037297Y002972D01*
X037355Y002984D01*
X037413Y002992D01*
X037472Y002996D01*
X037532Y002996D01*
X037591Y002992D01*
X037649Y002984D01*
X037707Y002972D01*
X037765Y002956D01*
X037820Y002937D01*
X037875Y002914D01*
X037928Y002887D01*
X037979Y002857D01*
X038028Y002823D01*
X038074Y002787D01*
X038118Y002747D01*
X038159Y002704D01*
X038197Y002659D01*
X038232Y002611D01*
X038264Y002562D01*
X038293Y002510D01*
X038318Y002456D01*
X038339Y002401D01*
X038357Y002344D01*
X038370Y002286D01*
X038380Y002228D01*
X038386Y002169D01*
X038388Y002110D01*
X038386Y002051D01*
X038380Y001992D01*
X038370Y001934D01*
X038357Y001876D01*
X038339Y001819D01*
X038318Y001764D01*
X038293Y001710D01*
X038264Y001658D01*
X038232Y001609D01*
X038197Y001561D01*
X038159Y001516D01*
X038118Y001473D01*
X038074Y001433D01*
X038028Y001397D01*
X037979Y001363D01*
X037928Y001333D01*
X037875Y001306D01*
X037820Y001283D01*
X037765Y001264D01*
X037707Y001248D01*
X037649Y001236D01*
X037591Y001228D01*
X037532Y001224D01*
X037472Y001224D01*
X037413Y001228D01*
X037355Y001236D01*
X037297Y001248D01*
X037239Y001264D01*
X037184Y001283D01*
X037129Y001306D01*
X037076Y001333D01*
X037025Y001363D01*
X036976Y001397D01*
X036930Y001433D01*
X036886Y001473D01*
X036845Y001516D01*
X036807Y001561D01*
X036772Y001609D01*
X036740Y001658D01*
X036711Y001710D01*
X036686Y001764D01*
X036665Y001819D01*
X036647Y001876D01*
X036634Y001934D01*
X036624Y001992D01*
X036618Y002051D01*
X036616Y002110D01*
X018899Y002110D02*
X018901Y002169D01*
X018907Y002228D01*
X018917Y002286D01*
X018930Y002344D01*
X018948Y002401D01*
X018969Y002456D01*
X018994Y002510D01*
X019023Y002562D01*
X019055Y002611D01*
X019090Y002659D01*
X019128Y002704D01*
X019169Y002747D01*
X019213Y002787D01*
X019259Y002823D01*
X019308Y002857D01*
X019359Y002887D01*
X019412Y002914D01*
X019467Y002937D01*
X019522Y002956D01*
X019580Y002972D01*
X019638Y002984D01*
X019696Y002992D01*
X019755Y002996D01*
X019815Y002996D01*
X019874Y002992D01*
X019932Y002984D01*
X019990Y002972D01*
X020048Y002956D01*
X020103Y002937D01*
X020158Y002914D01*
X020211Y002887D01*
X020262Y002857D01*
X020311Y002823D01*
X020357Y002787D01*
X020401Y002747D01*
X020442Y002704D01*
X020480Y002659D01*
X020515Y002611D01*
X020547Y002562D01*
X020576Y002510D01*
X020601Y002456D01*
X020622Y002401D01*
X020640Y002344D01*
X020653Y002286D01*
X020663Y002228D01*
X020669Y002169D01*
X020671Y002110D01*
X020669Y002051D01*
X020663Y001992D01*
X020653Y001934D01*
X020640Y001876D01*
X020622Y001819D01*
X020601Y001764D01*
X020576Y001710D01*
X020547Y001658D01*
X020515Y001609D01*
X020480Y001561D01*
X020442Y001516D01*
X020401Y001473D01*
X020357Y001433D01*
X020311Y001397D01*
X020262Y001363D01*
X020211Y001333D01*
X020158Y001306D01*
X020103Y001283D01*
X020048Y001264D01*
X019990Y001248D01*
X019932Y001236D01*
X019874Y001228D01*
X019815Y001224D01*
X019755Y001224D01*
X019696Y001228D01*
X019638Y001236D01*
X019580Y001248D01*
X019522Y001264D01*
X019467Y001283D01*
X019412Y001306D01*
X019359Y001333D01*
X019308Y001363D01*
X019259Y001397D01*
X019213Y001433D01*
X019169Y001473D01*
X019128Y001516D01*
X019090Y001561D01*
X019055Y001609D01*
X019023Y001658D01*
X018994Y001710D01*
X018969Y001764D01*
X018948Y001819D01*
X018930Y001876D01*
X018917Y001934D01*
X018907Y001992D01*
X018901Y002051D01*
X018899Y002110D01*
X024805Y022976D02*
X024807Y023035D01*
X024813Y023094D01*
X024823Y023152D01*
X024836Y023210D01*
X024854Y023267D01*
X024875Y023322D01*
X024900Y023376D01*
X024929Y023428D01*
X024961Y023477D01*
X024996Y023525D01*
X025034Y023570D01*
X025075Y023613D01*
X025119Y023653D01*
X025165Y023689D01*
X025214Y023723D01*
X025265Y023753D01*
X025318Y023780D01*
X025373Y023803D01*
X025428Y023822D01*
X025486Y023838D01*
X025544Y023850D01*
X025602Y023858D01*
X025661Y023862D01*
X025721Y023862D01*
X025780Y023858D01*
X025838Y023850D01*
X025896Y023838D01*
X025954Y023822D01*
X026009Y023803D01*
X026064Y023780D01*
X026117Y023753D01*
X026168Y023723D01*
X026217Y023689D01*
X026263Y023653D01*
X026307Y023613D01*
X026348Y023570D01*
X026386Y023525D01*
X026421Y023477D01*
X026453Y023428D01*
X026482Y023376D01*
X026507Y023322D01*
X026528Y023267D01*
X026546Y023210D01*
X026559Y023152D01*
X026569Y023094D01*
X026575Y023035D01*
X026577Y022976D01*
X026575Y022917D01*
X026569Y022858D01*
X026559Y022800D01*
X026546Y022742D01*
X026528Y022685D01*
X026507Y022630D01*
X026482Y022576D01*
X026453Y022524D01*
X026421Y022475D01*
X026386Y022427D01*
X026348Y022382D01*
X026307Y022339D01*
X026263Y022299D01*
X026217Y022263D01*
X026168Y022229D01*
X026117Y022199D01*
X026064Y022172D01*
X026009Y022149D01*
X025954Y022130D01*
X025896Y022114D01*
X025838Y022102D01*
X025780Y022094D01*
X025721Y022090D01*
X025661Y022090D01*
X025602Y022094D01*
X025544Y022102D01*
X025486Y022114D01*
X025428Y022130D01*
X025373Y022149D01*
X025318Y022172D01*
X025265Y022199D01*
X025214Y022229D01*
X025165Y022263D01*
X025119Y022299D01*
X025075Y022339D01*
X025034Y022382D01*
X024996Y022427D01*
X024961Y022475D01*
X024929Y022524D01*
X024900Y022576D01*
X024875Y022630D01*
X024854Y022685D01*
X024836Y022742D01*
X024823Y022800D01*
X024813Y022858D01*
X024807Y022917D01*
X024805Y022976D01*
X012994Y022976D02*
X012996Y023035D01*
X013002Y023094D01*
X013012Y023152D01*
X013025Y023210D01*
X013043Y023267D01*
X013064Y023322D01*
X013089Y023376D01*
X013118Y023428D01*
X013150Y023477D01*
X013185Y023525D01*
X013223Y023570D01*
X013264Y023613D01*
X013308Y023653D01*
X013354Y023689D01*
X013403Y023723D01*
X013454Y023753D01*
X013507Y023780D01*
X013562Y023803D01*
X013617Y023822D01*
X013675Y023838D01*
X013733Y023850D01*
X013791Y023858D01*
X013850Y023862D01*
X013910Y023862D01*
X013969Y023858D01*
X014027Y023850D01*
X014085Y023838D01*
X014143Y023822D01*
X014198Y023803D01*
X014253Y023780D01*
X014306Y023753D01*
X014357Y023723D01*
X014406Y023689D01*
X014452Y023653D01*
X014496Y023613D01*
X014537Y023570D01*
X014575Y023525D01*
X014610Y023477D01*
X014642Y023428D01*
X014671Y023376D01*
X014696Y023322D01*
X014717Y023267D01*
X014735Y023210D01*
X014748Y023152D01*
X014758Y023094D01*
X014764Y023035D01*
X014766Y022976D01*
X014764Y022917D01*
X014758Y022858D01*
X014748Y022800D01*
X014735Y022742D01*
X014717Y022685D01*
X014696Y022630D01*
X014671Y022576D01*
X014642Y022524D01*
X014610Y022475D01*
X014575Y022427D01*
X014537Y022382D01*
X014496Y022339D01*
X014452Y022299D01*
X014406Y022263D01*
X014357Y022229D01*
X014306Y022199D01*
X014253Y022172D01*
X014198Y022149D01*
X014143Y022130D01*
X014085Y022114D01*
X014027Y022102D01*
X013969Y022094D01*
X013910Y022090D01*
X013850Y022090D01*
X013791Y022094D01*
X013733Y022102D01*
X013675Y022114D01*
X013617Y022130D01*
X013562Y022149D01*
X013507Y022172D01*
X013454Y022199D01*
X013403Y022229D01*
X013354Y022263D01*
X013308Y022299D01*
X013264Y022339D01*
X013223Y022382D01*
X013185Y022427D01*
X013150Y022475D01*
X013118Y022524D01*
X013089Y022576D01*
X013064Y022630D01*
X013043Y022685D01*
X013025Y022742D01*
X013012Y022800D01*
X013002Y022858D01*
X012996Y022917D01*
X012994Y022976D01*
X001183Y022976D02*
X001185Y023035D01*
X001191Y023094D01*
X001201Y023152D01*
X001214Y023210D01*
X001232Y023267D01*
X001253Y023322D01*
X001278Y023376D01*
X001307Y023428D01*
X001339Y023477D01*
X001374Y023525D01*
X001412Y023570D01*
X001453Y023613D01*
X001497Y023653D01*
X001543Y023689D01*
X001592Y023723D01*
X001643Y023753D01*
X001696Y023780D01*
X001751Y023803D01*
X001806Y023822D01*
X001864Y023838D01*
X001922Y023850D01*
X001980Y023858D01*
X002039Y023862D01*
X002099Y023862D01*
X002158Y023858D01*
X002216Y023850D01*
X002274Y023838D01*
X002332Y023822D01*
X002387Y023803D01*
X002442Y023780D01*
X002495Y023753D01*
X002546Y023723D01*
X002595Y023689D01*
X002641Y023653D01*
X002685Y023613D01*
X002726Y023570D01*
X002764Y023525D01*
X002799Y023477D01*
X002831Y023428D01*
X002860Y023376D01*
X002885Y023322D01*
X002906Y023267D01*
X002924Y023210D01*
X002937Y023152D01*
X002947Y023094D01*
X002953Y023035D01*
X002955Y022976D01*
X002953Y022917D01*
X002947Y022858D01*
X002937Y022800D01*
X002924Y022742D01*
X002906Y022685D01*
X002885Y022630D01*
X002860Y022576D01*
X002831Y022524D01*
X002799Y022475D01*
X002764Y022427D01*
X002726Y022382D01*
X002685Y022339D01*
X002641Y022299D01*
X002595Y022263D01*
X002546Y022229D01*
X002495Y022199D01*
X002442Y022172D01*
X002387Y022149D01*
X002332Y022130D01*
X002274Y022114D01*
X002216Y022102D01*
X002158Y022094D01*
X002099Y022090D01*
X002039Y022090D01*
X001980Y022094D01*
X001922Y022102D01*
X001864Y022114D01*
X001806Y022130D01*
X001751Y022149D01*
X001696Y022172D01*
X001643Y022199D01*
X001592Y022229D01*
X001543Y022263D01*
X001497Y022299D01*
X001453Y022339D01*
X001412Y022382D01*
X001374Y022427D01*
X001339Y022475D01*
X001307Y022524D01*
X001278Y022576D01*
X001253Y022630D01*
X001232Y022685D01*
X001214Y022742D01*
X001201Y022800D01*
X001191Y022858D01*
X001185Y022917D01*
X001183Y022976D01*
X036616Y022976D02*
X036618Y023035D01*
X036624Y023094D01*
X036634Y023152D01*
X036647Y023210D01*
X036665Y023267D01*
X036686Y023322D01*
X036711Y023376D01*
X036740Y023428D01*
X036772Y023477D01*
X036807Y023525D01*
X036845Y023570D01*
X036886Y023613D01*
X036930Y023653D01*
X036976Y023689D01*
X037025Y023723D01*
X037076Y023753D01*
X037129Y023780D01*
X037184Y023803D01*
X037239Y023822D01*
X037297Y023838D01*
X037355Y023850D01*
X037413Y023858D01*
X037472Y023862D01*
X037532Y023862D01*
X037591Y023858D01*
X037649Y023850D01*
X037707Y023838D01*
X037765Y023822D01*
X037820Y023803D01*
X037875Y023780D01*
X037928Y023753D01*
X037979Y023723D01*
X038028Y023689D01*
X038074Y023653D01*
X038118Y023613D01*
X038159Y023570D01*
X038197Y023525D01*
X038232Y023477D01*
X038264Y023428D01*
X038293Y023376D01*
X038318Y023322D01*
X038339Y023267D01*
X038357Y023210D01*
X038370Y023152D01*
X038380Y023094D01*
X038386Y023035D01*
X038388Y022976D01*
X038386Y022917D01*
X038380Y022858D01*
X038370Y022800D01*
X038357Y022742D01*
X038339Y022685D01*
X038318Y022630D01*
X038293Y022576D01*
X038264Y022524D01*
X038232Y022475D01*
X038197Y022427D01*
X038159Y022382D01*
X038118Y022339D01*
X038074Y022299D01*
X038028Y022263D01*
X037979Y022229D01*
X037928Y022199D01*
X037875Y022172D01*
X037820Y022149D01*
X037765Y022130D01*
X037707Y022114D01*
X037649Y022102D01*
X037591Y022094D01*
X037532Y022090D01*
X037472Y022090D01*
X037413Y022094D01*
X037355Y022102D01*
X037297Y022114D01*
X037239Y022130D01*
X037184Y022149D01*
X037129Y022172D01*
X037076Y022199D01*
X037025Y022229D01*
X036976Y022263D01*
X036930Y022299D01*
X036886Y022339D01*
X036845Y022382D01*
X036807Y022427D01*
X036772Y022475D01*
X036740Y022524D01*
X036711Y022576D01*
X036686Y022630D01*
X036665Y022685D01*
X036647Y022742D01*
X036634Y022800D01*
X036624Y022858D01*
X036618Y022917D01*
X036616Y022976D01*
X039470Y027700D02*
X039470Y001322D01*
X001281Y000141D02*
X001215Y000143D01*
X001149Y000148D01*
X001083Y000158D01*
X001018Y000171D01*
X000954Y000187D01*
X000891Y000207D01*
X000829Y000231D01*
X000769Y000258D01*
X000710Y000288D01*
X000653Y000322D01*
X000598Y000359D01*
X000545Y000399D01*
X000494Y000441D01*
X000446Y000487D01*
X000400Y000535D01*
X000358Y000586D01*
X000318Y000639D01*
X000281Y000694D01*
X000247Y000751D01*
X000217Y000810D01*
X000190Y000870D01*
X000166Y000932D01*
X000146Y000995D01*
X000130Y001059D01*
X000117Y001124D01*
X000107Y001190D01*
X000102Y001256D01*
X000100Y001322D01*
X000100Y027700D02*
X000102Y027766D01*
X000107Y027832D01*
X000117Y027898D01*
X000130Y027963D01*
X000146Y028027D01*
X000166Y028090D01*
X000190Y028152D01*
X000217Y028212D01*
X000247Y028271D01*
X000281Y028328D01*
X000318Y028383D01*
X000358Y028436D01*
X000400Y028487D01*
X000446Y028535D01*
X000494Y028581D01*
X000545Y028623D01*
X000598Y028663D01*
X000653Y028700D01*
X000710Y028734D01*
X000769Y028764D01*
X000829Y028791D01*
X000891Y028815D01*
X000954Y028835D01*
X001018Y028851D01*
X001083Y028864D01*
X001149Y028874D01*
X001215Y028879D01*
X001281Y028881D01*
X038289Y028881D02*
X038355Y028879D01*
X038421Y028874D01*
X038487Y028864D01*
X038552Y028851D01*
X038616Y028835D01*
X038679Y028815D01*
X038741Y028791D01*
X038801Y028764D01*
X038860Y028734D01*
X038917Y028700D01*
X038972Y028663D01*
X039025Y028623D01*
X039076Y028581D01*
X039124Y028535D01*
X039170Y028487D01*
X039212Y028436D01*
X039252Y028383D01*
X039289Y028328D01*
X039323Y028271D01*
X039353Y028212D01*
X039380Y028152D01*
X039404Y028090D01*
X039424Y028027D01*
X039440Y027963D01*
X039453Y027898D01*
X039463Y027832D01*
X039468Y027766D01*
X039470Y027700D01*
X039470Y001322D02*
X039468Y001256D01*
X039463Y001190D01*
X039453Y001124D01*
X039440Y001059D01*
X039424Y000995D01*
X039404Y000932D01*
X039380Y000870D01*
X039353Y000810D01*
X039323Y000751D01*
X039289Y000694D01*
X039252Y000639D01*
X039212Y000586D01*
X039170Y000535D01*
X039124Y000487D01*
X039076Y000441D01*
X039025Y000399D01*
X038972Y000359D01*
X038917Y000322D01*
X038860Y000288D01*
X038801Y000258D01*
X038741Y000231D01*
X038679Y000207D01*
X038616Y000187D01*
X038552Y000171D01*
X038487Y000158D01*
X038421Y000148D01*
X038355Y000143D01*
X038289Y000141D01*
D11*
X013880Y014307D03*
X012112Y012539D03*
X010344Y010771D03*
X015647Y012539D03*
X013880Y010771D03*
X012112Y009003D03*
X017415Y010771D03*
X015647Y009003D03*
X013880Y007236D03*
D12*
X029431Y019826D03*
X016832Y019826D03*
X004628Y019826D03*
X010336Y001716D03*
X005218Y001716D03*
X037502Y005259D03*
X033565Y002110D03*
D13*
X031399Y019826D03*
X033368Y019826D03*
X035336Y019826D03*
X018801Y019826D03*
X020769Y019826D03*
X022738Y019826D03*
X006596Y019826D03*
X008565Y019826D03*
X010533Y019826D03*
X012305Y001716D03*
X014273Y001716D03*
X016242Y001716D03*
X007187Y001716D03*
X037502Y006637D03*
X037502Y008015D03*
X037502Y009393D03*
X037502Y010771D03*
X037502Y012149D03*
X037502Y013527D03*
X037502Y014905D03*
X032187Y002110D03*
X030809Y002110D03*
X029431Y002110D03*
X028053Y002110D03*
X026675Y002110D03*
X025297Y002110D03*
X023919Y002110D03*
D14*
X037502Y025913D03*
X037502Y027913D03*
X034549Y025913D03*
X034549Y027913D03*
X031596Y025913D03*
X031596Y027913D03*
X028643Y025913D03*
X028643Y027913D03*
X024706Y025913D03*
X024706Y027913D03*
X021754Y025913D03*
X021754Y027913D03*
X018801Y025913D03*
X018801Y027913D03*
X015848Y025913D03*
X015848Y027913D03*
X011911Y025913D03*
X011911Y027913D03*
X008958Y025913D03*
X008958Y027913D03*
X006006Y025913D03*
X006006Y027913D03*
X003053Y025913D03*
X003053Y027913D03*
D15*
X035336Y019826D02*
X035336Y023960D01*
X037305Y025929D01*
X037486Y025929D01*
X037502Y025913D01*
X037502Y026126D02*
X037502Y027913D01*
X033368Y019826D02*
X033368Y024732D01*
X034549Y025913D01*
X034549Y025929D02*
X034549Y027913D01*
X031399Y019826D02*
X031399Y025716D01*
X031596Y025913D01*
X031596Y027913D01*
X029431Y019826D02*
X029431Y025126D01*
X028643Y025913D01*
X028643Y027913D01*
X022738Y019826D02*
X022738Y023960D01*
X024706Y025929D01*
X024706Y027913D01*
X021754Y027913D02*
X021754Y025913D01*
X021769Y025929D02*
X020785Y024944D01*
X020769Y024929D02*
X020769Y019826D01*
X018801Y019826D02*
X018801Y024732D01*
X018817Y024748D02*
X018817Y025929D01*
X018801Y025913D02*
X018801Y027913D01*
X016832Y019826D02*
X016832Y024748D01*
X015848Y025732D01*
X015848Y027913D01*
X011911Y027913D02*
X011911Y025913D01*
X010533Y019826D02*
X010533Y024535D01*
X011911Y025913D01*
X008958Y025913D02*
X008958Y027913D01*
X008565Y019826D02*
X008565Y025535D01*
X008761Y025732D01*
X006006Y025913D02*
X006006Y027913D01*
X006596Y019826D02*
X006596Y025322D01*
X006006Y025913D01*
X003053Y025913D02*
X003053Y027913D01*
X004628Y019826D02*
X004628Y024338D01*
X003053Y025913D01*
X012305Y001716D02*
X012305Y008811D01*
X012112Y009003D01*
X010344Y010763D02*
X012104Y009003D01*
X012112Y009003D01*
X016242Y001716D02*
X016242Y004874D01*
X013880Y007236D01*
X017415Y010771D02*
X017415Y006047D01*
X016242Y004874D01*
X013880Y007236D01*
D16*
X003250Y015102D02*
X004824Y016677D01*
X017423Y016677D01*
X018998Y015102D01*
X018998Y002775D01*
X018963Y002741D01*
X018828Y002506D01*
X018758Y002245D01*
X018758Y001975D01*
X018828Y001713D01*
X018963Y001479D01*
X018998Y001445D01*
X018998Y000283D01*
X003250Y000283D01*
X003250Y015102D01*
X012682Y009385D02*
X012493Y009574D01*
X012404Y009611D01*
X010951Y011063D01*
X010914Y011152D01*
X010725Y011342D01*
X010478Y011444D01*
X010210Y011444D01*
X009963Y011342D01*
X009774Y011152D01*
X009671Y010905D01*
X009671Y010637D01*
X009774Y010390D01*
X009963Y010201D01*
X010026Y010175D01*
X011515Y008685D01*
X011541Y008622D01*
X011663Y008500D01*
X011663Y001589D01*
X011761Y001353D01*
X011941Y001172D01*
X012177Y001075D01*
X012432Y001075D01*
X012668Y001172D01*
X012848Y001353D01*
X012946Y001589D01*
X012946Y008938D01*
X012848Y009174D01*
X012714Y009309D01*
X012682Y009385D01*
X014552Y014173D02*
X014552Y014441D01*
X014450Y014688D01*
X014261Y014877D01*
X014013Y014980D01*
X013746Y014980D01*
X013498Y014877D01*
X013309Y014688D01*
X013207Y014441D01*
X013207Y014173D01*
X013309Y013926D01*
X013498Y013736D01*
X013746Y013634D01*
X014013Y013634D01*
X014261Y013736D01*
X014450Y013926D01*
X014552Y014173D01*
X015600Y001589D02*
X015698Y001353D01*
X015878Y001172D01*
X016114Y001075D01*
X016369Y001075D01*
X016605Y001172D01*
X016785Y001353D01*
X016883Y001589D01*
X016883Y004608D01*
X017959Y005684D01*
X018056Y005919D01*
X018056Y010561D01*
X018088Y010637D01*
X018088Y010905D01*
X017985Y011152D01*
X017796Y011342D01*
X017549Y011444D01*
X017281Y011444D01*
X017034Y011342D01*
X016845Y011152D01*
X016742Y010905D01*
X016742Y010637D01*
X016774Y010561D01*
X016774Y006313D01*
X016242Y005781D01*
X014481Y007541D01*
X014450Y007617D01*
X014261Y007806D01*
X014013Y007909D01*
X013746Y007909D01*
X013498Y007806D01*
X013309Y007617D01*
X013207Y007370D01*
X013207Y007102D01*
X013309Y006855D01*
X013498Y006665D01*
X013574Y006634D01*
X015600Y004608D01*
X015600Y001589D01*
X018998Y000304D02*
X003250Y000304D01*
X003250Y000385D02*
X018998Y000385D01*
X018998Y000466D02*
X003250Y000466D01*
X003250Y000547D02*
X018998Y000547D01*
X018998Y000628D02*
X003250Y000628D01*
X003250Y000710D02*
X018998Y000710D01*
X018998Y000791D02*
X003250Y000791D01*
X003250Y000872D02*
X018998Y000872D01*
X018998Y000953D02*
X003250Y000953D01*
X003250Y001034D02*
X018998Y001034D01*
X012079Y001115D02*
X003250Y001115D01*
X012530Y001115D02*
X016016Y001115D01*
X016467Y001115D02*
X018998Y001115D01*
X011917Y001197D02*
X003250Y001197D01*
X012692Y001197D02*
X015854Y001197D01*
X016629Y001197D02*
X018998Y001197D01*
X011836Y001278D02*
X003250Y001278D01*
X012773Y001278D02*
X015773Y001278D01*
X016710Y001278D02*
X018998Y001278D01*
X011758Y001359D02*
X003250Y001359D01*
X012851Y001359D02*
X015695Y001359D01*
X016788Y001359D02*
X018998Y001359D01*
X011725Y001440D02*
X003250Y001440D01*
X012885Y001440D02*
X015662Y001440D01*
X016822Y001440D02*
X018998Y001440D01*
X011691Y001521D02*
X003250Y001521D01*
X012918Y001521D02*
X015628Y001521D01*
X016855Y001521D02*
X018939Y001521D01*
X011663Y001603D02*
X003250Y001603D01*
X012946Y001603D02*
X015600Y001603D01*
X016883Y001603D02*
X018892Y001603D01*
X011663Y001684D02*
X003250Y001684D01*
X012946Y001684D02*
X015600Y001684D01*
X016883Y001684D02*
X018845Y001684D01*
X011663Y001765D02*
X003250Y001765D01*
X012946Y001765D02*
X015600Y001765D01*
X016883Y001765D02*
X018814Y001765D01*
X011663Y001846D02*
X003250Y001846D01*
X012946Y001846D02*
X015600Y001846D01*
X016883Y001846D02*
X018792Y001846D01*
X011663Y001927D02*
X003250Y001927D01*
X012946Y001927D02*
X015600Y001927D01*
X016883Y001927D02*
X018771Y001927D01*
X011663Y002008D02*
X003250Y002008D01*
X012946Y002008D02*
X015600Y002008D01*
X016883Y002008D02*
X018758Y002008D01*
X011663Y002090D02*
X003250Y002090D01*
X012946Y002090D02*
X015600Y002090D01*
X016883Y002090D02*
X018758Y002090D01*
X011663Y002171D02*
X003250Y002171D01*
X012946Y002171D02*
X015600Y002171D01*
X016883Y002171D02*
X018758Y002171D01*
X011663Y002252D02*
X003250Y002252D01*
X012946Y002252D02*
X015600Y002252D01*
X016883Y002252D02*
X018760Y002252D01*
X011663Y002333D02*
X003250Y002333D01*
X012946Y002333D02*
X015600Y002333D01*
X016883Y002333D02*
X018781Y002333D01*
X011663Y002414D02*
X003250Y002414D01*
X012946Y002414D02*
X015600Y002414D01*
X016883Y002414D02*
X018803Y002414D01*
X011663Y002495D02*
X003250Y002495D01*
X012946Y002495D02*
X015600Y002495D01*
X016883Y002495D02*
X018825Y002495D01*
X011663Y002577D02*
X003250Y002577D01*
X012946Y002577D02*
X015600Y002577D01*
X016883Y002577D02*
X018868Y002577D01*
X011663Y002658D02*
X003250Y002658D01*
X012946Y002658D02*
X015600Y002658D01*
X016883Y002658D02*
X018915Y002658D01*
X011663Y002739D02*
X003250Y002739D01*
X012946Y002739D02*
X015600Y002739D01*
X016883Y002739D02*
X018962Y002739D01*
X011663Y002820D02*
X003250Y002820D01*
X012946Y002820D02*
X015600Y002820D01*
X016883Y002820D02*
X018998Y002820D01*
X011663Y002901D02*
X003250Y002901D01*
X012946Y002901D02*
X015600Y002901D01*
X016883Y002901D02*
X018998Y002901D01*
X011663Y002983D02*
X003250Y002983D01*
X012946Y002983D02*
X015600Y002983D01*
X016883Y002983D02*
X018998Y002983D01*
X011663Y003064D02*
X003250Y003064D01*
X012946Y003064D02*
X015600Y003064D01*
X016883Y003064D02*
X018998Y003064D01*
X011663Y003145D02*
X003250Y003145D01*
X012946Y003145D02*
X015600Y003145D01*
X016883Y003145D02*
X018998Y003145D01*
X011663Y003226D02*
X003250Y003226D01*
X012946Y003226D02*
X015600Y003226D01*
X016883Y003226D02*
X018998Y003226D01*
X011663Y003307D02*
X003250Y003307D01*
X012946Y003307D02*
X015600Y003307D01*
X016883Y003307D02*
X018998Y003307D01*
X011663Y003388D02*
X003250Y003388D01*
X012946Y003388D02*
X015600Y003388D01*
X016883Y003388D02*
X018998Y003388D01*
X011663Y003470D02*
X003250Y003470D01*
X012946Y003470D02*
X015600Y003470D01*
X016883Y003470D02*
X018998Y003470D01*
X011663Y003551D02*
X003250Y003551D01*
X012946Y003551D02*
X015600Y003551D01*
X016883Y003551D02*
X018998Y003551D01*
X011663Y003632D02*
X003250Y003632D01*
X012946Y003632D02*
X015600Y003632D01*
X016883Y003632D02*
X018998Y003632D01*
X011663Y003713D02*
X003250Y003713D01*
X012946Y003713D02*
X015600Y003713D01*
X016883Y003713D02*
X018998Y003713D01*
X011663Y003794D02*
X003250Y003794D01*
X012946Y003794D02*
X015600Y003794D01*
X016883Y003794D02*
X018998Y003794D01*
X011663Y003875D02*
X003250Y003875D01*
X012946Y003875D02*
X015600Y003875D01*
X016883Y003875D02*
X018998Y003875D01*
X011663Y003957D02*
X003250Y003957D01*
X012946Y003957D02*
X015600Y003957D01*
X016883Y003957D02*
X018998Y003957D01*
X011663Y004038D02*
X003250Y004038D01*
X012946Y004038D02*
X015600Y004038D01*
X016883Y004038D02*
X018998Y004038D01*
X011663Y004119D02*
X003250Y004119D01*
X012946Y004119D02*
X015600Y004119D01*
X016883Y004119D02*
X018998Y004119D01*
X011663Y004200D02*
X003250Y004200D01*
X012946Y004200D02*
X015600Y004200D01*
X016883Y004200D02*
X018998Y004200D01*
X011663Y004281D02*
X003250Y004281D01*
X012946Y004281D02*
X015600Y004281D01*
X016883Y004281D02*
X018998Y004281D01*
X011663Y004363D02*
X003250Y004363D01*
X012946Y004363D02*
X015600Y004363D01*
X016883Y004363D02*
X018998Y004363D01*
X011663Y004444D02*
X003250Y004444D01*
X012946Y004444D02*
X015600Y004444D01*
X016883Y004444D02*
X018998Y004444D01*
X011663Y004525D02*
X003250Y004525D01*
X012946Y004525D02*
X015600Y004525D01*
X016883Y004525D02*
X018998Y004525D01*
X011663Y004606D02*
X003250Y004606D01*
X012946Y004606D02*
X015600Y004606D01*
X016883Y004606D02*
X018998Y004606D01*
X011663Y004687D02*
X003250Y004687D01*
X012946Y004687D02*
X015521Y004687D01*
X016962Y004687D02*
X018998Y004687D01*
X011663Y004768D02*
X003250Y004768D01*
X012946Y004768D02*
X015440Y004768D01*
X017044Y004768D02*
X018998Y004768D01*
X011663Y004850D02*
X003250Y004850D01*
X012946Y004850D02*
X015359Y004850D01*
X017125Y004850D02*
X018998Y004850D01*
X011663Y004931D02*
X003250Y004931D01*
X012946Y004931D02*
X015277Y004931D01*
X017206Y004931D02*
X018998Y004931D01*
X011663Y005012D02*
X003250Y005012D01*
X012946Y005012D02*
X015196Y005012D01*
X017287Y005012D02*
X018998Y005012D01*
X011663Y005093D02*
X003250Y005093D01*
X012946Y005093D02*
X015115Y005093D01*
X017368Y005093D02*
X018998Y005093D01*
X011663Y005174D02*
X003250Y005174D01*
X012946Y005174D02*
X015034Y005174D01*
X017450Y005174D02*
X018998Y005174D01*
X011663Y005256D02*
X003250Y005256D01*
X012946Y005256D02*
X014953Y005256D01*
X017531Y005256D02*
X018998Y005256D01*
X011663Y005337D02*
X003250Y005337D01*
X012946Y005337D02*
X014872Y005337D01*
X017612Y005337D02*
X018998Y005337D01*
X011663Y005418D02*
X003250Y005418D01*
X012946Y005418D02*
X014790Y005418D01*
X017693Y005418D02*
X018998Y005418D01*
X011663Y005499D02*
X003250Y005499D01*
X012946Y005499D02*
X014709Y005499D01*
X017774Y005499D02*
X018998Y005499D01*
X011663Y005580D02*
X003250Y005580D01*
X012946Y005580D02*
X014628Y005580D01*
X017855Y005580D02*
X018998Y005580D01*
X011663Y005661D02*
X003250Y005661D01*
X012946Y005661D02*
X014547Y005661D01*
X017937Y005661D02*
X018998Y005661D01*
X011663Y005743D02*
X003250Y005743D01*
X012946Y005743D02*
X014466Y005743D01*
X017983Y005743D02*
X018998Y005743D01*
X011663Y005824D02*
X003250Y005824D01*
X012946Y005824D02*
X014385Y005824D01*
X016198Y005824D02*
X016285Y005824D01*
X018017Y005824D02*
X018998Y005824D01*
X011663Y005905D02*
X003250Y005905D01*
X012946Y005905D02*
X014303Y005905D01*
X016117Y005905D02*
X016366Y005905D01*
X018050Y005905D02*
X018998Y005905D01*
X011663Y005986D02*
X003250Y005986D01*
X012946Y005986D02*
X014222Y005986D01*
X016036Y005986D02*
X016447Y005986D01*
X018056Y005986D02*
X018998Y005986D01*
X011663Y006067D02*
X003250Y006067D01*
X012946Y006067D02*
X014141Y006067D01*
X015955Y006067D02*
X016529Y006067D01*
X018056Y006067D02*
X018998Y006067D01*
X011663Y006148D02*
X003250Y006148D01*
X012946Y006148D02*
X014060Y006148D01*
X015874Y006148D02*
X016610Y006148D01*
X018056Y006148D02*
X018998Y006148D01*
X011663Y006230D02*
X003250Y006230D01*
X012946Y006230D02*
X013979Y006230D01*
X015793Y006230D02*
X016691Y006230D01*
X018056Y006230D02*
X018998Y006230D01*
X011663Y006311D02*
X003250Y006311D01*
X012946Y006311D02*
X013897Y006311D01*
X015711Y006311D02*
X016772Y006311D01*
X018056Y006311D02*
X018998Y006311D01*
X011663Y006392D02*
X003250Y006392D01*
X012946Y006392D02*
X013816Y006392D01*
X015630Y006392D02*
X016774Y006392D01*
X018056Y006392D02*
X018998Y006392D01*
X011663Y006473D02*
X003250Y006473D01*
X012946Y006473D02*
X013735Y006473D01*
X015549Y006473D02*
X016774Y006473D01*
X018056Y006473D02*
X018998Y006473D01*
X011663Y006554D02*
X003250Y006554D01*
X012946Y006554D02*
X013654Y006554D01*
X015468Y006554D02*
X016774Y006554D01*
X018056Y006554D02*
X018998Y006554D01*
X011663Y006636D02*
X003250Y006636D01*
X012946Y006636D02*
X013570Y006636D01*
X015387Y006636D02*
X016774Y006636D01*
X018056Y006636D02*
X018998Y006636D01*
X011663Y006717D02*
X003250Y006717D01*
X012946Y006717D02*
X013447Y006717D01*
X015306Y006717D02*
X016774Y006717D01*
X018056Y006717D02*
X018998Y006717D01*
X011663Y006798D02*
X003250Y006798D01*
X012946Y006798D02*
X013366Y006798D01*
X015224Y006798D02*
X016774Y006798D01*
X018056Y006798D02*
X018998Y006798D01*
X011663Y006879D02*
X003250Y006879D01*
X012946Y006879D02*
X013299Y006879D01*
X015143Y006879D02*
X016774Y006879D01*
X018056Y006879D02*
X018998Y006879D01*
X011663Y006960D02*
X003250Y006960D01*
X012946Y006960D02*
X013265Y006960D01*
X015062Y006960D02*
X016774Y006960D01*
X018056Y006960D02*
X018998Y006960D01*
X011663Y007041D02*
X003250Y007041D01*
X012946Y007041D02*
X013232Y007041D01*
X014981Y007041D02*
X016774Y007041D01*
X018056Y007041D02*
X018998Y007041D01*
X011663Y007123D02*
X003250Y007123D01*
X012946Y007123D02*
X013207Y007123D01*
X014900Y007123D02*
X016774Y007123D01*
X018056Y007123D02*
X018998Y007123D01*
X011663Y007204D02*
X003250Y007204D01*
X012946Y007204D02*
X013207Y007204D01*
X014818Y007204D02*
X016774Y007204D01*
X018056Y007204D02*
X018998Y007204D01*
X011663Y007285D02*
X003250Y007285D01*
X012946Y007285D02*
X013207Y007285D01*
X014737Y007285D02*
X016774Y007285D01*
X018056Y007285D02*
X018998Y007285D01*
X011663Y007366D02*
X003250Y007366D01*
X012946Y007366D02*
X013207Y007366D01*
X014656Y007366D02*
X016774Y007366D01*
X018056Y007366D02*
X018998Y007366D01*
X011663Y007447D02*
X003250Y007447D01*
X012946Y007447D02*
X013239Y007447D01*
X014575Y007447D02*
X016774Y007447D01*
X018056Y007447D02*
X018998Y007447D01*
X011663Y007528D02*
X003250Y007528D01*
X012946Y007528D02*
X013273Y007528D01*
X014494Y007528D02*
X016774Y007528D01*
X018056Y007528D02*
X018998Y007528D01*
X011663Y007610D02*
X003250Y007610D01*
X012946Y007610D02*
X013306Y007610D01*
X014453Y007610D02*
X016774Y007610D01*
X018056Y007610D02*
X018998Y007610D01*
X011663Y007691D02*
X003250Y007691D01*
X012946Y007691D02*
X013383Y007691D01*
X014376Y007691D02*
X016774Y007691D01*
X018056Y007691D02*
X018998Y007691D01*
X011663Y007772D02*
X003250Y007772D01*
X012946Y007772D02*
X013464Y007772D01*
X014295Y007772D02*
X016774Y007772D01*
X018056Y007772D02*
X018998Y007772D01*
X011663Y007853D02*
X003250Y007853D01*
X012946Y007853D02*
X013612Y007853D01*
X014147Y007853D02*
X016774Y007853D01*
X018056Y007853D02*
X018998Y007853D01*
X011663Y007934D02*
X003250Y007934D01*
X012946Y007934D02*
X016774Y007934D01*
X018056Y007934D02*
X018998Y007934D01*
X011663Y008016D02*
X003250Y008016D01*
X012946Y008016D02*
X016774Y008016D01*
X018056Y008016D02*
X018998Y008016D01*
X011663Y008097D02*
X003250Y008097D01*
X012946Y008097D02*
X016774Y008097D01*
X018056Y008097D02*
X018998Y008097D01*
X011663Y008178D02*
X003250Y008178D01*
X012946Y008178D02*
X016774Y008178D01*
X018056Y008178D02*
X018998Y008178D01*
X011663Y008259D02*
X003250Y008259D01*
X012946Y008259D02*
X016774Y008259D01*
X018056Y008259D02*
X018998Y008259D01*
X011663Y008340D02*
X003250Y008340D01*
X012946Y008340D02*
X016774Y008340D01*
X018056Y008340D02*
X018998Y008340D01*
X011663Y008421D02*
X003250Y008421D01*
X012946Y008421D02*
X016774Y008421D01*
X018056Y008421D02*
X018998Y008421D01*
X011661Y008503D02*
X003250Y008503D01*
X012946Y008503D02*
X016774Y008503D01*
X018056Y008503D02*
X018998Y008503D01*
X011580Y008584D02*
X003250Y008584D01*
X012946Y008584D02*
X016774Y008584D01*
X018056Y008584D02*
X018998Y008584D01*
X011524Y008665D02*
X003250Y008665D01*
X012946Y008665D02*
X016774Y008665D01*
X018056Y008665D02*
X018998Y008665D01*
X011454Y008746D02*
X003250Y008746D01*
X012946Y008746D02*
X016774Y008746D01*
X018056Y008746D02*
X018998Y008746D01*
X011373Y008827D02*
X003250Y008827D01*
X012946Y008827D02*
X016774Y008827D01*
X018056Y008827D02*
X018998Y008827D01*
X011292Y008908D02*
X003250Y008908D01*
X012946Y008908D02*
X016774Y008908D01*
X018056Y008908D02*
X018998Y008908D01*
X011211Y008990D02*
X003250Y008990D01*
X012925Y008990D02*
X016774Y008990D01*
X018056Y008990D02*
X018998Y008990D01*
X011130Y009071D02*
X003250Y009071D01*
X012891Y009071D02*
X016774Y009071D01*
X018056Y009071D02*
X018998Y009071D01*
X011048Y009152D02*
X003250Y009152D01*
X012857Y009152D02*
X016774Y009152D01*
X018056Y009152D02*
X018998Y009152D01*
X010967Y009233D02*
X003250Y009233D01*
X012789Y009233D02*
X016774Y009233D01*
X018056Y009233D02*
X018998Y009233D01*
X010886Y009314D02*
X003250Y009314D01*
X012711Y009314D02*
X016774Y009314D01*
X018056Y009314D02*
X018998Y009314D01*
X010805Y009396D02*
X003250Y009396D01*
X012671Y009396D02*
X016774Y009396D01*
X018056Y009396D02*
X018998Y009396D01*
X010724Y009477D02*
X003250Y009477D01*
X012590Y009477D02*
X016774Y009477D01*
X018056Y009477D02*
X018998Y009477D01*
X010643Y009558D02*
X003250Y009558D01*
X012509Y009558D02*
X016774Y009558D01*
X018056Y009558D02*
X018998Y009558D01*
X010561Y009639D02*
X003250Y009639D01*
X012375Y009639D02*
X016774Y009639D01*
X018056Y009639D02*
X018998Y009639D01*
X010480Y009720D02*
X003250Y009720D01*
X012294Y009720D02*
X016774Y009720D01*
X018056Y009720D02*
X018998Y009720D01*
X010399Y009801D02*
X003250Y009801D01*
X012213Y009801D02*
X016774Y009801D01*
X018056Y009801D02*
X018998Y009801D01*
X010318Y009883D02*
X003250Y009883D01*
X012132Y009883D02*
X016774Y009883D01*
X018056Y009883D02*
X018998Y009883D01*
X010237Y009964D02*
X003250Y009964D01*
X012051Y009964D02*
X016774Y009964D01*
X018056Y009964D02*
X018998Y009964D01*
X010156Y010045D02*
X003250Y010045D01*
X011969Y010045D02*
X016774Y010045D01*
X018056Y010045D02*
X018998Y010045D01*
X010074Y010126D02*
X003250Y010126D01*
X011888Y010126D02*
X016774Y010126D01*
X018056Y010126D02*
X018998Y010126D01*
X009956Y010207D02*
X003250Y010207D01*
X011807Y010207D02*
X016774Y010207D01*
X018056Y010207D02*
X018998Y010207D01*
X009875Y010289D02*
X003250Y010289D01*
X011726Y010289D02*
X016774Y010289D01*
X018056Y010289D02*
X018998Y010289D01*
X009794Y010370D02*
X003250Y010370D01*
X011645Y010370D02*
X016774Y010370D01*
X018056Y010370D02*
X018998Y010370D01*
X009748Y010451D02*
X003250Y010451D01*
X011564Y010451D02*
X016774Y010451D01*
X018056Y010451D02*
X018998Y010451D01*
X009715Y010532D02*
X003250Y010532D01*
X011482Y010532D02*
X016774Y010532D01*
X018056Y010532D02*
X018998Y010532D01*
X009681Y010613D02*
X003250Y010613D01*
X011401Y010613D02*
X016752Y010613D01*
X018078Y010613D02*
X018998Y010613D01*
X009671Y010694D02*
X003250Y010694D01*
X011320Y010694D02*
X016742Y010694D01*
X018088Y010694D02*
X018998Y010694D01*
X009671Y010776D02*
X003250Y010776D01*
X011239Y010776D02*
X016742Y010776D01*
X018088Y010776D02*
X018998Y010776D01*
X009671Y010857D02*
X003250Y010857D01*
X011158Y010857D02*
X016742Y010857D01*
X018088Y010857D02*
X018998Y010857D01*
X009685Y010938D02*
X003250Y010938D01*
X011077Y010938D02*
X016756Y010938D01*
X018074Y010938D02*
X018998Y010938D01*
X009718Y011019D02*
X003250Y011019D01*
X010995Y011019D02*
X016789Y011019D01*
X018041Y011019D02*
X018998Y011019D01*
X009752Y011100D02*
X003250Y011100D01*
X010936Y011100D02*
X016823Y011100D01*
X018007Y011100D02*
X018998Y011100D01*
X009803Y011181D02*
X003250Y011181D01*
X010885Y011181D02*
X016874Y011181D01*
X017956Y011181D02*
X018998Y011181D01*
X009884Y011263D02*
X003250Y011263D01*
X010804Y011263D02*
X016955Y011263D01*
X017875Y011263D02*
X018998Y011263D01*
X009968Y011344D02*
X003250Y011344D01*
X010720Y011344D02*
X017039Y011344D01*
X017791Y011344D02*
X018998Y011344D01*
X010164Y011425D02*
X003250Y011425D01*
X010524Y011425D02*
X017235Y011425D01*
X017595Y011425D02*
X018998Y011425D01*
X018998Y011506D02*
X003250Y011506D01*
X003250Y011587D02*
X018998Y011587D01*
X018998Y011669D02*
X003250Y011669D01*
X003250Y011750D02*
X018998Y011750D01*
X018998Y011831D02*
X003250Y011831D01*
X003250Y011912D02*
X018998Y011912D01*
X018998Y011993D02*
X003250Y011993D01*
X003250Y012074D02*
X018998Y012074D01*
X018998Y012156D02*
X003250Y012156D01*
X003250Y012237D02*
X018998Y012237D01*
X018998Y012318D02*
X003250Y012318D01*
X003250Y012399D02*
X018998Y012399D01*
X018998Y012480D02*
X003250Y012480D01*
X003250Y012561D02*
X018998Y012561D01*
X018998Y012643D02*
X003250Y012643D01*
X003250Y012724D02*
X018998Y012724D01*
X018998Y012805D02*
X003250Y012805D01*
X003250Y012886D02*
X018998Y012886D01*
X018998Y012967D02*
X003250Y012967D01*
X003250Y013049D02*
X018998Y013049D01*
X018998Y013130D02*
X003250Y013130D01*
X003250Y013211D02*
X018998Y013211D01*
X018998Y013292D02*
X003250Y013292D01*
X003250Y013373D02*
X018998Y013373D01*
X018998Y013454D02*
X003250Y013454D01*
X003250Y013536D02*
X018998Y013536D01*
X018998Y013617D02*
X003250Y013617D01*
X003250Y013698D02*
X013591Y013698D01*
X014168Y013698D02*
X018998Y013698D01*
X013456Y013779D02*
X003250Y013779D01*
X014303Y013779D02*
X018998Y013779D01*
X013374Y013860D02*
X003250Y013860D01*
X014385Y013860D02*
X018998Y013860D01*
X013303Y013941D02*
X003250Y013941D01*
X014456Y013941D02*
X018998Y013941D01*
X013269Y014023D02*
X003250Y014023D01*
X014490Y014023D02*
X018998Y014023D01*
X013235Y014104D02*
X003250Y014104D01*
X014524Y014104D02*
X018998Y014104D01*
X013207Y014185D02*
X003250Y014185D01*
X014552Y014185D02*
X018998Y014185D01*
X013207Y014266D02*
X003250Y014266D01*
X014552Y014266D02*
X018998Y014266D01*
X013207Y014347D02*
X003250Y014347D01*
X014552Y014347D02*
X018998Y014347D01*
X013207Y014429D02*
X003250Y014429D01*
X014552Y014429D02*
X018998Y014429D01*
X013235Y014510D02*
X003250Y014510D01*
X014524Y014510D02*
X018998Y014510D01*
X013269Y014591D02*
X003250Y014591D01*
X014490Y014591D02*
X018998Y014591D01*
X013303Y014672D02*
X003250Y014672D01*
X014456Y014672D02*
X018998Y014672D01*
X013374Y014753D02*
X003250Y014753D01*
X014385Y014753D02*
X018998Y014753D01*
X013456Y014834D02*
X003250Y014834D01*
X014303Y014834D02*
X018998Y014834D01*
X013591Y014916D02*
X003250Y014916D01*
X014168Y014916D02*
X018998Y014916D01*
X018998Y014997D02*
X003250Y014997D01*
X003250Y015078D02*
X018998Y015078D01*
X018940Y015159D02*
X003307Y015159D01*
X003388Y015240D02*
X018859Y015240D01*
X018778Y015322D02*
X003469Y015322D01*
X003550Y015403D02*
X018697Y015403D01*
X018616Y015484D02*
X003632Y015484D01*
X003713Y015565D02*
X018535Y015565D01*
X018453Y015646D02*
X003794Y015646D01*
X003875Y015727D02*
X018372Y015727D01*
X018291Y015809D02*
X003956Y015809D01*
X004037Y015890D02*
X018210Y015890D01*
X018129Y015971D02*
X004119Y015971D01*
X004200Y016052D02*
X018047Y016052D01*
X017966Y016133D02*
X004281Y016133D01*
X004362Y016214D02*
X017885Y016214D01*
X017804Y016296D02*
X004443Y016296D01*
X004524Y016377D02*
X017723Y016377D01*
X017642Y016458D02*
X004606Y016458D01*
X004687Y016539D02*
X017560Y016539D01*
X017479Y016620D02*
X004768Y016620D01*
D17*
X033565Y002110D02*
X033565Y002897D01*
X035927Y005259D01*
X037502Y005259D01*
X032187Y002110D02*
X032187Y003094D01*
X035730Y006637D01*
X037502Y006637D01*
X030809Y002110D02*
X030809Y003291D01*
X035533Y008015D01*
X037502Y008015D01*
X029431Y002110D02*
X029431Y003488D01*
X035336Y009393D01*
X037502Y009393D01*
X037502Y010771D02*
X035139Y010771D01*
X028053Y002110D02*
X028053Y003685D01*
X035139Y010771D01*
X026675Y002110D02*
X026675Y003881D01*
X034943Y012149D01*
X037502Y012149D01*
X037502Y013527D02*
X034746Y013527D01*
X025297Y004078D01*
X025297Y002110D01*
X023919Y002110D02*
X023919Y004275D01*
X034549Y014905D01*
X037502Y014905D01*
M02*
