G75*
%MOIN*%
%OFA0B0*%
%FSLAX24Y24*%
%IPPOS*%
%LPD*%
%AMOC8*
5,1,8,0,0,1.08239X$1,22.5*
%
%ADD10C,0.0110*%
D10*
X015312Y004365D02*
X015438Y004490D01*
X015688Y004490D01*
X015813Y004365D01*
X015813Y004240D01*
X015688Y004115D01*
X015563Y004115D01*
X015688Y004115D02*
X015813Y003990D01*
X015813Y003865D01*
X015688Y003740D01*
X015438Y003740D01*
X015312Y003865D01*
X016104Y003865D02*
X016104Y004365D01*
X016229Y004490D01*
X016480Y004490D01*
X016605Y004365D01*
X016605Y003865D01*
X016480Y003740D01*
X016229Y003740D01*
X016104Y003865D01*
X016605Y004365D01*
X016896Y004490D02*
X016896Y003990D01*
X017146Y003740D01*
X017397Y003990D01*
X017397Y004490D01*
X011179Y004365D02*
X011304Y004490D01*
X011554Y004490D01*
X011679Y004365D01*
X011679Y004240D01*
X011554Y004115D01*
X011429Y004115D01*
X011554Y004115D02*
X011679Y003990D01*
X011679Y003865D01*
X011554Y003740D01*
X011304Y003740D01*
X011179Y003865D01*
X012346Y003740D02*
X012346Y004490D01*
X011970Y004115D01*
X012471Y004115D01*
X012762Y004490D02*
X012762Y003990D01*
X013013Y003740D01*
X013263Y003990D01*
X013263Y004490D01*
X014131Y004115D02*
X014632Y004115D01*
X010695Y004115D02*
X010194Y004115D01*
X007742Y004115D02*
X007242Y004115D01*
X005380Y004115D02*
X004879Y004115D01*
X021128Y014534D02*
X021003Y014659D01*
X020753Y014659D01*
X020627Y014534D01*
X020627Y014034D01*
X020753Y013909D01*
X021003Y013909D01*
X021128Y014034D01*
X021419Y013909D02*
X021419Y014659D01*
X021419Y014284D02*
X021544Y014409D01*
X021795Y014409D01*
X021920Y014284D01*
X021920Y013909D01*
X022336Y014409D02*
X022587Y014409D01*
X022712Y014284D01*
X022712Y013909D01*
X022336Y013909D01*
X022211Y014034D01*
X022336Y014159D01*
X022712Y014159D01*
X023003Y013909D02*
X023003Y014409D01*
X023003Y014159D02*
X023253Y014409D01*
X023378Y014409D01*
X023663Y014659D02*
X023788Y014659D01*
X023788Y013909D01*
X023663Y013909D02*
X023913Y013909D01*
X024191Y014409D02*
X024191Y014034D01*
X024316Y013909D01*
X024691Y013909D01*
X024691Y014409D02*
X024691Y013784D01*
X024566Y013659D01*
X024441Y013659D01*
X025775Y013909D02*
X025775Y014659D01*
X026150Y014659D01*
X026275Y014534D01*
X026275Y014284D01*
X026150Y014159D01*
X025775Y014159D01*
X026025Y014159D02*
X026275Y013909D01*
X026692Y013909D02*
X026942Y013909D01*
X027067Y014034D01*
X027067Y014284D01*
X026942Y014409D01*
X026692Y014409D01*
X026567Y014284D01*
X026567Y014034D01*
X026692Y013909D01*
X027358Y014659D02*
X027358Y013909D01*
X027734Y013909D01*
X027859Y014034D01*
X027859Y014284D01*
X027734Y014409D01*
X027358Y014409D01*
X028275Y013909D02*
X028526Y013909D01*
X028651Y014034D01*
X028651Y014284D01*
X028526Y014409D01*
X028275Y014409D01*
X028150Y014284D01*
X028150Y014034D01*
X028275Y013909D01*
X029067Y014534D02*
X029067Y014034D01*
X029192Y013909D01*
X029192Y014409D02*
X028942Y014409D01*
X020627Y012744D02*
X020753Y012619D01*
X020878Y012619D01*
X021003Y012744D01*
X021003Y013369D01*
X020878Y013369D02*
X021128Y013369D01*
X021419Y013119D02*
X021419Y012744D01*
X021544Y012619D01*
X021920Y012619D01*
X021920Y013119D01*
X022211Y012619D02*
X022211Y013119D01*
X022587Y013119D01*
X022712Y012994D01*
X022712Y012619D01*
X023503Y013119D02*
X023128Y013119D01*
X023003Y012994D01*
X023003Y012744D01*
X023128Y012619D01*
X023503Y012619D01*
X023920Y013244D02*
X023920Y012744D01*
X024045Y012619D01*
X024045Y013119D02*
X023795Y013119D01*
X024323Y013119D02*
X024448Y013119D01*
X024448Y012619D01*
X024323Y012619D02*
X024573Y012619D01*
X024448Y013369D02*
X024448Y013495D01*
X024976Y012619D02*
X025226Y012619D01*
X025351Y012744D01*
X025351Y012994D01*
X025226Y013119D01*
X024976Y013119D01*
X024851Y012994D01*
X024851Y012744D01*
X024976Y012619D01*
X025643Y012619D02*
X025643Y013119D01*
X026018Y013119D01*
X026143Y012994D01*
X026143Y012619D01*
X027226Y012619D02*
X027226Y013369D01*
X027602Y013369D01*
X027727Y013244D01*
X027727Y013119D01*
X027602Y012994D01*
X027727Y012869D01*
X027727Y012744D01*
X027602Y012619D01*
X027226Y012619D01*
X027226Y012994D02*
X027602Y012994D01*
X028143Y012619D02*
X028394Y012619D01*
X028519Y012744D01*
X028519Y012994D01*
X028394Y013119D01*
X028143Y013119D01*
X028018Y012994D01*
X028018Y012744D01*
X028143Y012619D01*
X028935Y013119D02*
X029185Y013119D01*
X029311Y012994D01*
X029311Y012619D01*
X028935Y012619D01*
X028810Y012744D01*
X028935Y012869D01*
X029311Y012869D01*
X029602Y012619D02*
X029602Y013119D01*
X029602Y012869D02*
X029852Y013119D01*
X029977Y013119D01*
X030762Y013369D02*
X030762Y012619D01*
X030387Y012619D01*
X030262Y012744D01*
X030262Y012994D01*
X030387Y013119D01*
X030762Y013119D01*
X021128Y011954D02*
X021003Y012079D01*
X020753Y012079D01*
X020627Y011954D01*
X020627Y011829D01*
X020753Y011704D01*
X021003Y011704D01*
X021128Y011579D01*
X021128Y011454D01*
X021003Y011329D01*
X020753Y011329D01*
X020627Y011454D01*
X021419Y011329D02*
X021419Y011454D01*
X021544Y011454D01*
X021544Y011329D01*
X021419Y011329D01*
X021815Y011329D02*
X021815Y012079D01*
X022191Y012079D01*
X022316Y011954D01*
X022316Y011829D01*
X022191Y011704D01*
X022316Y011579D01*
X022316Y011454D01*
X022191Y011329D01*
X021815Y011329D01*
X021815Y011704D02*
X022191Y011704D01*
X022607Y011829D02*
X022607Y011329D01*
X022607Y011579D02*
X022857Y011829D01*
X022982Y011829D01*
X023267Y011829D02*
X023267Y011454D01*
X023392Y011329D01*
X023767Y011329D01*
X023767Y011829D01*
X024059Y012079D02*
X024184Y012079D01*
X024184Y011329D01*
X024059Y011329D02*
X024309Y011329D01*
X024712Y011829D02*
X024962Y011829D01*
X025087Y011704D01*
X025087Y011329D01*
X024712Y011329D01*
X024587Y011454D01*
X024712Y011579D01*
X025087Y011579D01*
X025379Y011829D02*
X025504Y011829D01*
X025504Y011329D01*
X025379Y011329D02*
X025629Y011329D01*
X025504Y012079D02*
X025504Y012205D01*
X025907Y011329D02*
X026282Y011329D01*
X026407Y011454D01*
X026282Y011579D01*
X026032Y011579D01*
X025907Y011704D01*
X026032Y011829D01*
X026407Y011829D01*
X020627Y010539D02*
X020878Y010789D01*
X020878Y010039D01*
X021128Y010039D02*
X020627Y010039D01*
X021419Y010164D02*
X021419Y010664D01*
X021544Y010789D01*
X021795Y010789D01*
X021920Y010664D01*
X021920Y010164D01*
X021795Y010039D01*
X021544Y010039D01*
X021419Y010164D01*
X021920Y010664D01*
X022211Y010039D02*
X022712Y010789D01*
X023503Y010039D02*
X023003Y010039D01*
X023503Y010539D01*
X023503Y010664D01*
X023378Y010789D01*
X023128Y010789D01*
X023003Y010664D01*
X023795Y010164D02*
X023795Y010664D01*
X023920Y010789D01*
X024170Y010789D01*
X024295Y010664D01*
X024295Y010164D01*
X024170Y010039D01*
X023920Y010039D01*
X023795Y010164D01*
X024295Y010664D01*
X024587Y010539D02*
X024837Y010789D01*
X024837Y010039D01*
X024587Y010039D02*
X025087Y010039D01*
X025379Y010789D02*
X025879Y010789D01*
X025879Y010664D01*
X025379Y010164D01*
X025379Y010039D01*
M02*
