%
M48
M72
T01C0.0472
T02C0.0512
T03C0.0551
T04C0.0709
T05C0.1772
%
T01
X37502Y5259
X37502Y6637
X37502Y8015
X37502Y9393
X37502Y10771
X37502Y12149
X37502Y13527
X37502Y14905
X33565Y2110
X32187Y2110
X30809Y2110
X29431Y2110
X28053Y2110
X26675Y2110
X25297Y2110
X23919Y2110
T02
X29431Y19826
X31399Y19826
X33368Y19826
X35336Y19826
X16832Y19826
X18801Y19826
X20769Y19826
X22738Y19826
X4628Y19826
X6596Y19826
X8565Y19826
X10533Y19826
X10336Y1716
X12305Y1716
X14273Y1716
X16242Y1716
X5218Y1716
X7187Y1716
T03
X37502Y25913
X37502Y27913
X34549Y25913
X34549Y27913
X31596Y25913
X31596Y27913
X28643Y25913
X28643Y27913
X24706Y25913
X24706Y27913
X21754Y25913
X21754Y27913
X18801Y25913
X18801Y27913
X15848Y25913
X15848Y27913
X11911Y25913
X11911Y27913
X8958Y25913
X8958Y27913
X6006Y25913
X6006Y27913
X3053Y25913
X3053Y27913
T04
X13880Y14307
X12112Y12539
X10344Y10771
X15647Y12539
X13880Y10771
X12112Y9003
X17415Y10771
X15647Y9003
X13880Y7236
T05
X2069Y2110
X37502Y2110
X19785Y2110
X25691Y22976
X13880Y22976
X2069Y22976
X37502Y22976
M30
